<svg version="1.1" viewBox="0.0 0.0 253.0 371.0" fill="none" stroke="none" stroke-linecap="square" stroke-miterlimit="10" width="253" height="371" xmlns:xlink="http://www.w3.org/1999/xlink" xmlns="http://www.w3.org/2000/svg"><path fill="#ffffff" d="M0 0L253.0 0L253.0 371.0L0 371.0L0 0Z" fill-rule="nonzero"/><path stroke="#cccccc" stroke-width="1.0" stroke-linecap="butt" d="M99.5 22.5L99.5 253.5" fill-rule="nonzero"/><path stroke="#cccccc" stroke-width="1.0" stroke-linecap="butt" d="M146.5 22.5L146.5 253.5" fill-rule="nonzero"/><path stroke="#cccccc" stroke-width="1.0" stroke-linecap="butt" d="M193.5 22.5L193.5 253.5" fill-rule="nonzero"/><path stroke="#cccccc" stroke-width="1.0" stroke-linecap="butt" d="M240.5 22.5L240.5 253.5" fill-rule="nonzero"/><path stroke="#333333" stroke-width="1.0" stroke-linecap="butt" d="M99.5 253.5L240.5 253.5" fill-rule="nonzero"/><path stroke="#cccccc" stroke-width="1.0" stroke-linecap="butt" d="M99.5 207.5L240.5 207.5" fill-rule="nonzero"/><path stroke="#cccccc" stroke-width="1.0" stroke-linecap="butt" d="M99.5 161.5L240.5 161.5" fill-rule="nonzero"/><path stroke="#cccccc" stroke-width="1.0" stroke-linecap="butt" d="M99.5 114.5L240.5 114.5" fill-rule="nonzero"/><path stroke="#cccccc" stroke-width="1.0" stroke-linecap="butt" d="M99.5 68.5L240.5 68.5" fill-rule="nonzero"/><path stroke="#cccccc" stroke-width="1.0" stroke-linecap="butt" d="M99.5 22.5L240.5 22.5" fill-rule="nonzero"/><clipPath id="id_0"><path d="M99.65 22.15L240.35 22.15L240.35 253.9132L99.65 253.9132L99.65 22.15Z" clip-rule="nonzero"/></clipPath><path stroke="#000000" stroke-width="2.0" stroke-linecap="butt" clip-path="url(#id_0)" d="M99.65 114.46941L103.629654 114.49345L107.22418 114.51672L111.203835 114.53926L115.05511 114.56108L119.03476 114.58222L122.88604 114.602684L126.86569 114.622505L130.84535 114.64169L134.69662 114.66028L138.67628 114.678276L142.52756 114.69571L146.5072 114.71259L150.48686 114.728935L154.20976 114.74476L158.18942 114.760086L162.0407 114.77493L166.02034 114.78931L169.87163 114.80322L173.85127 114.8167L177.83093 114.82976L181.6822 114.8424L185.66187 114.85464L189.51314 114.86649L193.4928 114.877975L197.47244 114.88909L201.06697 114.89986L205.04663 114.91028L208.8979 114.92037L212.87755 114.930145L216.72884 114.93961L220.70848 114.94878L224.68814 114.95766L228.53941 114.966255L232.51907 114.97458L236.37035 114.98264L240.35 114.99045" fill-rule="nonzero"/><path stroke="#000000" stroke-width="2.0" stroke-linecap="butt" stroke-dasharray="8.0,6.0,2.0,6.0" clip-path="url(#id_0)" d="M99.65 114.46941L103.629654 114.49345L107.22418 114.51672L111.203835 114.53926L115.05511 114.56108L119.03476 114.58222L122.88604 114.602684L126.86569 114.622505L130.84535 114.64169L134.69662 114.66028L138.67628 114.678276L142.52756 114.69571L146.5072 123.01554L150.48686 126.77608L154.20976 128.9379L158.18942 130.19786L162.0407 130.93631L166.02034 131.37138L169.87163 131.62955L173.85127 131.7844L177.83093 131.87883L181.6822 131.93788L185.66187 131.97617L189.51314 132.0022L193.4928 132.02097L197.47244 132.03539L201.06697 132.04715L205.04663 132.05727L208.8979 132.06631L212.87755 132.07463L216.72884 132.08243L220.70848 132.08984L224.68814 132.09692L228.53941 132.10374L232.51907 132.1103L236.37035 132.11665L240.35 132.12279" fill-rule="nonzero"/><path stroke="#000000" stroke-width="2.0" stroke-linecap="butt" stroke-dasharray="8.0,6.0" clip-path="url(#id_0)" d="M99.65 114.46941L103.629654 114.49345L107.22418 114.51672L111.203835 114.53926L115.05511 114.56108L119.03476 114.58222L122.88604 114.602684L126.86569 114.622505L130.84535 114.64169L134.69662 114.66028L138.67628 114.678276L142.52756 114.69571L146.5072 98.10668L150.48686 90.63464L154.20976 86.35848L158.18942 83.884544L162.0407 82.45217L166.02034 81.625145L169.87163 81.15058L173.85127 80.881325L177.83093 80.73161L181.6822 80.65142L185.66187 80.61159L189.51314 80.59508L193.4928 80.59198L197.47244 80.5965L201.06697 80.60526L205.04663 80.6163L208.8979 80.6285L212.87755 80.64118L216.72884 80.65397L220.70848 80.66665L224.68814 80.67911L228.53941 80.69128L232.51907 80.70312L236.37035 80.714615L240.35 80.72577" fill-rule="nonzero"/><path fill="#000000" fill-opacity="0.0" clip-path="url(#id_0)" d="M102.65 114.46941C102.65 116.12627 101.306854 117.46941 99.65 117.46941C97.99315 117.46941 96.65 116.12627 96.65 114.46941C96.65 112.81256 97.99315 111.46941 99.65 111.46941C101.306854 111.46941 102.65 112.81256 102.65 114.46941Z" fill-rule="nonzero"/><path fill="#000000" fill-opacity="0.0" clip-path="url(#id_0)" d="M106.629654 114.49345C106.629654 116.1503 105.28651 117.49345 103.629654 117.49345C101.9728 117.49345 100.629654 116.1503 100.629654 114.49345C100.629654 112.83659 101.9728 111.49345 103.629654 111.49345C105.28651 111.49345 106.629654 112.83659 106.629654 114.49345Z" fill-rule="nonzero"/><path fill="#000000" fill-opacity="0.0" clip-path="url(#id_0)" d="M110.22418 114.51672C110.22418 116.17358 108.881035 117.51672 107.22418 117.51672C105.56732 117.51672 104.22418 116.17358 104.22418 114.51672C104.22418 112.85986 105.56732 111.51672 107.22418 111.51672C108.881035 111.51672 110.22418 112.85986 110.22418 114.51672Z" fill-rule="nonzero"/><path fill="#000000" fill-opacity="0.0" clip-path="url(#id_0)" d="M114.203835 114.53926C114.203835 116.19611 112.86069 117.53926 111.203835 117.53926C109.546974 117.53926 108.203835 116.19611 108.203835 114.53926C108.203835 112.8824 109.546974 111.53926 111.203835 111.53926C112.86069 111.53926 114.203835 112.8824 114.203835 114.53926Z" fill-rule="nonzero"/><path fill="#000000" fill-opacity="0.0" clip-path="url(#id_0)" d="M118.05511 114.56108C118.05511 116.21793 116.71197 117.56108 115.05511 117.56108C113.398254 117.56108 112.05511 116.21793 112.05511 114.56108C112.05511 112.90423 113.398254 111.56108 115.05511 111.56108C116.71197 111.56108 118.05511 112.90423 118.05511 114.56108Z" fill-rule="nonzero"/><path fill="#000000" fill-opacity="0.0" clip-path="url(#id_0)" d="M122.03476 114.58222C122.03476 116.239075 120.69162 117.58222 119.03476 117.58222C117.37791 117.58222 116.03476 116.239075 116.03476 114.58222C116.03476 112.92536 117.37791 111.58222 119.03476 111.58222C120.69162 111.58222 122.03476 112.92536 122.03476 114.58222Z" fill-rule="nonzero"/><path fill="#000000" fill-opacity="0.0" clip-path="url(#id_0)" d="M125.88604 114.602684C125.88604 116.25954 124.54289 117.602684 122.88604 117.602684C121.22919 117.602684 119.88604 116.25954 119.88604 114.602684C119.88604 112.94583 121.22919 111.602684 122.88604 111.602684C124.54289 111.602684 125.88604 112.94583 125.88604 114.602684Z" fill-rule="nonzero"/><path fill="#000000" fill-opacity="0.0" clip-path="url(#id_0)" d="M129.86569 114.622505C129.86569 116.27936 128.52255 117.622505 126.86569 117.622505C125.20884 117.622505 123.86569 116.27936 123.86569 114.622505C123.86569 112.96565 125.20884 111.622505 126.86569 111.622505C128.52255 111.622505 129.86569 112.96565 129.86569 114.622505Z" fill-rule="nonzero"/><path fill="#000000" fill-opacity="0.0" clip-path="url(#id_0)" d="M133.84535 114.64169C133.84535 116.29855 132.5022 117.64169 130.84535 117.64169C129.18849 117.64169 127.845345 116.29855 127.845345 114.64169C127.845345 112.98484 129.18849 111.64169 130.84535 111.64169C132.5022 111.64169 133.84535 112.98484 133.84535 114.64169Z" fill-rule="nonzero"/><path fill="#000000" fill-opacity="0.0" clip-path="url(#id_0)" d="M137.69662 114.66028C137.69662 116.31714 136.35349 117.66028 134.69662 117.66028C133.03976 117.66028 131.69662 116.31714 131.69662 114.66028C131.69662 113.003426 133.03976 111.66028 134.69662 111.66028C136.35349 111.66028 137.69662 113.003426 137.69662 114.66028Z" fill-rule="nonzero"/><path fill="#000000" fill-opacity="0.0" clip-path="url(#id_0)" d="M141.67628 114.678276C141.67628 116.33514 140.33313 117.678276 138.67628 117.678276C137.01942 117.678276 135.67628 116.33514 135.67628 114.678276C135.67628 113.02142 137.01942 111.678276 138.67628 111.678276C140.33313 111.678276 141.67628 113.02142 141.67628 114.678276Z" fill-rule="nonzero"/><path fill="#000000" fill-opacity="0.0" clip-path="url(#id_0)" d="M145.52756 114.69571C145.52756 116.35256 144.1844 117.69571 142.52756 117.69571C140.8707 117.69571 139.52756 116.35256 139.52756 114.69571C139.52756 113.03886 140.8707 111.69571 142.52756 111.69571C144.1844 111.69571 145.52756 113.03886 145.52756 114.69571Z" fill-rule="nonzero"/><path fill="#000000" fill-opacity="0.0" clip-path="url(#id_0)" d="M149.5072 114.71259C149.5072 116.369446 148.16406 117.71259 146.5072 117.71259C144.85036 117.71259 143.5072 116.369446 143.5072 114.71259C143.5072 113.05573 144.85036 111.71259 146.5072 111.71259C148.16406 111.71259 149.5072 113.05573 149.5072 114.71259Z" fill-rule="nonzero"/><path fill="#000000" fill-opacity="0.0" clip-path="url(#id_0)" d="M153.48686 114.728935C153.48686 116.38579 152.14372 117.728935 150.48686 117.728935C148.83 117.728935 147.48686 116.38579 147.48686 114.728935C147.48686 113.07208 148.83 111.728935 150.48686 111.728935C152.14372 111.728935 153.48686 113.07208 153.48686 114.728935Z" fill-rule="nonzero"/><path fill="#000000" fill-opacity="0.0" clip-path="url(#id_0)" d="M157.20976 114.74476C157.20976 116.40162 155.86662 117.74476 154.20976 117.74476C152.5529 117.74476 151.20976 116.40162 151.20976 114.74476C151.20976 113.087906 152.5529 111.74476 154.20976 111.74476C155.86662 111.74476 157.20976 113.087906 157.20976 114.74476Z" fill-rule="nonzero"/><path fill="#000000" fill-opacity="0.0" clip-path="url(#id_0)" d="M161.18942 114.760086C161.18942 116.41694 159.84627 117.760086 158.18942 117.760086C156.53256 117.760086 155.18942 116.41694 155.18942 114.760086C155.18942 113.10323 156.53256 111.760086 158.18942 111.760086C159.84627 111.760086 161.18942 113.10323 161.18942 114.760086Z" fill-rule="nonzero"/><path fill="#000000" fill-opacity="0.0" clip-path="url(#id_0)" d="M165.0407 114.77493C165.0407 116.431786 163.69754 117.77493 162.0407 117.77493C160.38383 117.77493 159.0407 116.431786 159.0407 114.77493C159.0407 113.11807 160.38383 111.77493 162.0407 111.77493C163.69754 111.77493 165.0407 113.11807 165.0407 114.77493Z" fill-rule="nonzero"/><path fill="#000000" fill-opacity="0.0" clip-path="url(#id_0)" d="M169.02034 114.78931C169.02034 116.44616 167.6772 117.78931 166.02034 117.78931C164.3635 117.78931 163.02034 116.44616 163.02034 114.78931C163.02034 113.13245 164.3635 111.78931 166.02034 111.78931C167.6772 111.78931 169.02034 113.13245 169.02034 114.78931Z" fill-rule="nonzero"/><path fill="#000000" fill-opacity="0.0" clip-path="url(#id_0)" d="M172.87163 114.80322C172.87163 116.460075 171.52847 117.80322 169.87163 117.80322C168.21477 117.80322 166.87163 116.460075 166.87163 114.80322C166.87163 113.14637 168.21477 111.80322 169.87163 111.80322C171.52847 111.80322 172.87163 113.14637 172.87163 114.80322Z" fill-rule="nonzero"/><path fill="#000000" fill-opacity="0.0" clip-path="url(#id_0)" d="M176.85127 114.8167C176.85127 116.47356 175.50813 117.8167 173.85127 117.8167C172.19443 117.8167 170.85127 116.47356 170.85127 114.8167C170.85127 113.15985 172.19443 111.8167 173.85127 111.8167C175.50813 111.8167 176.85127 113.15985 176.85127 114.8167Z" fill-rule="nonzero"/><path fill="#000000" fill-opacity="0.0" clip-path="url(#id_0)" d="M180.83093 114.82976C180.83093 116.48661 179.48778 117.82976 177.83093 117.82976C176.17407 117.82976 174.83093 116.48661 174.83093 114.82976C174.83093 113.172905 176.17407 111.82976 177.83093 111.82976C179.48778 111.82976 180.83093 113.172905 180.83093 114.82976Z" fill-rule="nonzero"/><path fill="#000000" fill-opacity="0.0" clip-path="url(#id_0)" d="M184.6822 114.8424C184.6822 116.49925 183.33907 117.8424 181.6822 117.8424C180.02536 117.8424 178.6822 116.49925 178.6822 114.8424C178.6822 113.18555 180.02536 111.8424 181.6822 111.8424C183.33907 111.8424 184.6822 113.18555 184.6822 114.8424Z" fill-rule="nonzero"/><path fill="#000000" fill-opacity="0.0" clip-path="url(#id_0)" d="M188.66187 114.85464C188.66187 116.5115 187.31871 117.85464 185.66187 117.85464C184.005 117.85464 182.66187 116.5115 182.66187 114.85464C182.66187 113.197784 184.005 111.85464 185.66187 111.85464C187.31871 111.85464 188.66187 113.197784 188.66187 114.85464Z" fill-rule="nonzero"/><path fill="#000000" fill-opacity="0.0" clip-path="url(#id_0)" d="M192.51314 114.86649C192.51314 116.523346 191.17 117.86649 189.51314 117.86649C187.85628 117.86649 186.51314 116.523346 186.51314 114.86649C186.51314 113.20964 187.85628 111.86649 189.51314 111.86649C191.17 111.86649 192.51314 113.20964 192.51314 114.86649Z" fill-rule="nonzero"/><path fill="#000000" fill-opacity="0.0" clip-path="url(#id_0)" d="M196.4928 114.877975C196.4928 116.53483 195.14964 117.877975 193.4928 117.877975C191.83594 117.877975 190.4928 116.53483 190.4928 114.877975C190.4928 113.22112 191.83594 111.877975 193.4928 111.877975C195.14964 111.877975 196.4928 113.22112 196.4928 114.877975Z" fill-rule="nonzero"/><path fill="#000000" fill-opacity="0.0" clip-path="url(#id_0)" d="M200.47244 114.88909C200.47244 116.545944 199.1293 117.88909 197.47244 117.88909C195.8156 117.88909 194.47244 116.545944 194.47244 114.88909C194.47244 113.23224 195.8156 111.88909 197.47244 111.88909C199.1293 111.88909 200.47244 113.23224 200.47244 114.88909Z" fill-rule="nonzero"/><path fill="#000000" fill-opacity="0.0" clip-path="url(#id_0)" d="M204.06697 114.89986C204.06697 116.55671 202.72383 117.89986 201.06697 117.89986C199.41011 117.89986 198.06697 116.55671 198.06697 114.89986C198.06697 113.243004 199.41011 111.89986 201.06697 111.89986C202.72383 111.89986 204.06697 113.243004 204.06697 114.89986Z" fill-rule="nonzero"/><path fill="#000000" fill-opacity="0.0" clip-path="url(#id_0)" d="M208.04663 114.91028C208.04663 116.56713 206.70348 117.91028 205.04663 117.91028C203.38977 117.91028 202.04663 116.56713 202.04663 114.91028C202.04663 113.253426 203.38977 111.91028 205.04663 111.91028C206.70348 111.91028 208.04663 113.253426 208.04663 114.91028Z" fill-rule="nonzero"/><path fill="#000000" fill-opacity="0.0" clip-path="url(#id_0)" d="M211.8979 114.92037C211.8979 116.577225 210.55475 117.92037 208.8979 117.92037C207.24104 117.92037 205.8979 116.577225 205.8979 114.92037C205.8979 113.26352 207.24104 111.92037 208.8979 111.92037C210.55475 111.92037 211.8979 113.26352 211.8979 114.92037Z" fill-rule="nonzero"/><path fill="#000000" fill-opacity="0.0" clip-path="url(#id_0)" d="M215.87755 114.930145C215.87755 116.587006 214.53441 117.930145 212.87755 117.930145C211.2207 117.930145 209.87755 116.587006 209.87755 114.930145C209.87755 113.27329 211.2207 111.930145 212.87755 111.930145C214.53441 111.930145 215.87755 113.27329 215.87755 114.930145Z" fill-rule="nonzero"/><path fill="#000000" fill-opacity="0.0" clip-path="url(#id_0)" d="M219.72884 114.93961C219.72884 116.596466 218.38568 117.93961 216.72884 117.93961C215.07198 117.93961 213.72884 116.596466 213.72884 114.93961C213.72884 113.28276 215.07198 111.93961 216.72884 111.93961C218.38568 111.93961 219.72884 113.28276 219.72884 114.93961Z" fill-rule="nonzero"/><path fill="#000000" fill-opacity="0.0" clip-path="url(#id_0)" d="M223.70848 114.94878C223.70848 116.60563 222.36534 117.94878 220.70848 117.94878C219.05164 117.94878 217.70848 116.60563 217.70848 114.94878C217.70848 113.29192 219.05164 111.94878 220.70848 111.94878C222.36534 111.94878 223.70848 113.29192 223.70848 114.94878Z" fill-rule="nonzero"/><path fill="#000000" fill-opacity="0.0" clip-path="url(#id_0)" d="M227.68814 114.95766C227.68814 116.61451 226.34499 117.95766 224.68814 117.95766C223.03128 117.95766 221.68814 116.61451 221.68814 114.95766C221.68814 113.3008 223.03128 111.95766 224.68814 111.95766C226.34499 111.95766 227.68814 113.3008 227.68814 114.95766Z" fill-rule="nonzero"/><path fill="#000000" fill-opacity="0.0" clip-path="url(#id_0)" d="M231.53941 114.966255C231.53941 116.62311 230.19627 117.966255 228.53941 117.966255C226.88257 117.966255 225.53941 116.62311 225.53941 114.966255C225.53941 113.309395 226.88257 111.966255 228.53941 111.966255C230.19627 111.966255 231.53941 113.309395 231.53941 114.966255Z" fill-rule="nonzero"/><path fill="#000000" fill-opacity="0.0" clip-path="url(#id_0)" d="M235.51907 114.97458C235.51907 116.63143 234.17592 117.97458 232.51907 117.97458C230.86221 117.97458 229.51907 116.63143 229.51907 114.97458C229.51907 113.317726 230.86221 111.97458 232.51907 111.97458C234.17592 111.97458 235.51907 113.317726 235.51907 114.97458Z" fill-rule="nonzero"/><path fill="#000000" fill-opacity="0.0" clip-path="url(#id_0)" d="M239.37035 114.98264C239.37035 116.639496 238.0272 117.98264 236.37035 117.98264C234.71349 117.98264 233.37035 116.639496 233.37035 114.98264C233.37035 113.32578 234.71349 111.98264 236.37035 111.98264C238.0272 111.98264 239.37035 113.32578 239.37035 114.98264Z" fill-rule="nonzero"/><path fill="#000000" fill-opacity="0.0" clip-path="url(#id_0)" d="M243.35 114.99045C243.35 116.6473 242.00685 117.99045 240.35 117.99045C238.69315 117.99045 237.35 116.6473 237.35 114.99045C237.35 113.333595 238.69315 111.99045 240.35 111.99045C242.00685 111.99045 243.35 113.333595 243.35 114.99045Z" fill-rule="nonzero"/><path fill="#000000" fill-opacity="0.0" clip-path="url(#id_0)" d="M102.65 114.46941C102.65 116.12627 101.306854 117.46941 99.65 117.46941C97.99315 117.46941 96.65 116.12627 96.65 114.46941C96.65 112.81256 97.99315 111.46941 99.65 111.46941C101.306854 111.46941 102.65 112.81256 102.65 114.46941Z" fill-rule="nonzero"/><path fill="#000000" fill-opacity="0.0" clip-path="url(#id_0)" d="M106.629654 114.49345C106.629654 116.1503 105.28651 117.49345 103.629654 117.49345C101.9728 117.49345 100.629654 116.1503 100.629654 114.49345C100.629654 112.83659 101.9728 111.49345 103.629654 111.49345C105.28651 111.49345 106.629654 112.83659 106.629654 114.49345Z" fill-rule="nonzero"/><path fill="#000000" fill-opacity="0.0" clip-path="url(#id_0)" d="M110.22418 114.51672C110.22418 116.17358 108.881035 117.51672 107.22418 117.51672C105.56732 117.51672 104.22418 116.17358 104.22418 114.51672C104.22418 112.85986 105.56732 111.51672 107.22418 111.51672C108.881035 111.51672 110.22418 112.85986 110.22418 114.51672Z" fill-rule="nonzero"/><path fill="#000000" fill-opacity="0.0" clip-path="url(#id_0)" d="M114.203835 114.53926C114.203835 116.19611 112.86069 117.53926 111.203835 117.53926C109.546974 117.53926 108.203835 116.19611 108.203835 114.53926C108.203835 112.8824 109.546974 111.53926 111.203835 111.53926C112.86069 111.53926 114.203835 112.8824 114.203835 114.53926Z" fill-rule="nonzero"/><path fill="#000000" fill-opacity="0.0" clip-path="url(#id_0)" d="M118.05511 114.56108C118.05511 116.21793 116.71197 117.56108 115.05511 117.56108C113.398254 117.56108 112.05511 116.21793 112.05511 114.56108C112.05511 112.90423 113.398254 111.56108 115.05511 111.56108C116.71197 111.56108 118.05511 112.90423 118.05511 114.56108Z" fill-rule="nonzero"/><path fill="#000000" fill-opacity="0.0" clip-path="url(#id_0)" d="M122.03476 114.58222C122.03476 116.239075 120.69162 117.58222 119.03476 117.58222C117.37791 117.58222 116.03476 116.239075 116.03476 114.58222C116.03476 112.92536 117.37791 111.58222 119.03476 111.58222C120.69162 111.58222 122.03476 112.92536 122.03476 114.58222Z" fill-rule="nonzero"/><path fill="#000000" fill-opacity="0.0" clip-path="url(#id_0)" d="M125.88604 114.602684C125.88604 116.25954 124.54289 117.602684 122.88604 117.602684C121.22919 117.602684 119.88604 116.25954 119.88604 114.602684C119.88604 112.94583 121.22919 111.602684 122.88604 111.602684C124.54289 111.602684 125.88604 112.94583 125.88604 114.602684Z" fill-rule="nonzero"/><path fill="#000000" fill-opacity="0.0" clip-path="url(#id_0)" d="M129.86569 114.622505C129.86569 116.27936 128.52255 117.622505 126.86569 117.622505C125.20884 117.622505 123.86569 116.27936 123.86569 114.622505C123.86569 112.96565 125.20884 111.622505 126.86569 111.622505C128.52255 111.622505 129.86569 112.96565 129.86569 114.622505Z" fill-rule="nonzero"/><path fill="#000000" fill-opacity="0.0" clip-path="url(#id_0)" d="M133.84535 114.64169C133.84535 116.29855 132.5022 117.64169 130.84535 117.64169C129.18849 117.64169 127.845345 116.29855 127.845345 114.64169C127.845345 112.98484 129.18849 111.64169 130.84535 111.64169C132.5022 111.64169 133.84535 112.98484 133.84535 114.64169Z" fill-rule="nonzero"/><path fill="#000000" fill-opacity="0.0" clip-path="url(#id_0)" d="M137.69662 114.66028C137.69662 116.31714 136.35349 117.66028 134.69662 117.66028C133.03976 117.66028 131.69662 116.31714 131.69662 114.66028C131.69662 113.003426 133.03976 111.66028 134.69662 111.66028C136.35349 111.66028 137.69662 113.003426 137.69662 114.66028Z" fill-rule="nonzero"/><path fill="#000000" fill-opacity="0.0" clip-path="url(#id_0)" d="M141.67628 114.678276C141.67628 116.33514 140.33313 117.678276 138.67628 117.678276C137.01942 117.678276 135.67628 116.33514 135.67628 114.678276C135.67628 113.02142 137.01942 111.678276 138.67628 111.678276C140.33313 111.678276 141.67628 113.02142 141.67628 114.678276Z" fill-rule="nonzero"/><path fill="#000000" fill-opacity="0.0" clip-path="url(#id_0)" d="M145.52756 114.69571C145.52756 116.35256 144.1844 117.69571 142.52756 117.69571C140.8707 117.69571 139.52756 116.35256 139.52756 114.69571C139.52756 113.03886 140.8707 111.69571 142.52756 111.69571C144.1844 111.69571 145.52756 113.03886 145.52756 114.69571Z" fill-rule="nonzero"/><path fill="#000000" fill-opacity="0.0" clip-path="url(#id_0)" d="M149.5072 123.01554C149.5072 124.6724 148.16406 126.01554 146.5072 126.01554C144.85036 126.01554 143.5072 124.6724 143.5072 123.01554C143.5072 121.35869 144.85036 120.01554 146.5072 120.01554C148.16406 120.01554 149.5072 121.35869 149.5072 123.01554Z" fill-rule="nonzero"/><path fill="#000000" fill-opacity="0.0" clip-path="url(#id_0)" d="M153.48686 126.77608C153.48686 128.43294 152.14372 129.77608 150.48686 129.77608C148.83 129.77608 147.48686 128.43294 147.48686 126.77608C147.48686 125.119225 148.83 123.77608 150.48686 123.77608C152.14372 123.77608 153.48686 125.119225 153.48686 126.77608Z" fill-rule="nonzero"/><path fill="#000000" fill-opacity="0.0" clip-path="url(#id_0)" d="M157.20976 128.9379C157.20976 130.59476 155.86662 131.9379 154.20976 131.9379C152.5529 131.9379 151.20976 130.59476 151.20976 128.9379C151.20976 127.281044 152.5529 125.937904 154.20976 125.937904C155.86662 125.937904 157.20976 127.281044 157.20976 128.9379Z" fill-rule="nonzero"/><path fill="#000000" fill-opacity="0.0" clip-path="url(#id_0)" d="M161.18942 130.19786C161.18942 131.8547 159.84627 133.19786 158.18942 133.19786C156.53256 133.19786 155.18942 131.8547 155.18942 130.19786C155.18942 128.541 156.53256 127.19786 158.18942 127.19786C159.84627 127.19786 161.18942 128.541 161.18942 130.19786Z" fill-rule="nonzero"/><path fill="#000000" fill-opacity="0.0" clip-path="url(#id_0)" d="M165.0407 130.93631C165.0407 132.59315 163.69754 133.93631 162.0407 133.93631C160.38383 133.93631 159.0407 132.59315 159.0407 130.93631C159.0407 129.27945 160.38383 127.93631 162.0407 127.93631C163.69754 127.93631 165.0407 129.27945 165.0407 130.93631Z" fill-rule="nonzero"/><path fill="#000000" fill-opacity="0.0" clip-path="url(#id_0)" d="M169.02034 131.37138C169.02034 133.02823 167.6772 134.37138 166.02034 134.37138C164.3635 134.37138 163.02034 133.02823 163.02034 131.37138C163.02034 129.71452 164.3635 128.37138 166.02034 128.37138C167.6772 128.37138 169.02034 129.71452 169.02034 131.37138Z" fill-rule="nonzero"/><path fill="#000000" fill-opacity="0.0" clip-path="url(#id_0)" d="M172.87163 131.62955C172.87163 133.28639 171.52847 134.62955 169.87163 134.62955C168.21477 134.62955 166.87163 133.28639 166.87163 131.62955C166.87163 129.97269 168.21477 128.62955 169.87163 128.62955C171.52847 128.62955 172.87163 129.97269 172.87163 131.62955Z" fill-rule="nonzero"/><path fill="#000000" fill-opacity="0.0" clip-path="url(#id_0)" d="M176.85127 131.7844C176.85127 133.44125 175.50813 134.7844 173.85127 134.7844C172.19443 134.7844 170.85127 133.44125 170.85127 131.7844C170.85127 130.12753 172.19443 128.7844 173.85127 128.7844C175.50813 128.7844 176.85127 130.12753 176.85127 131.7844Z" fill-rule="nonzero"/><path fill="#000000" fill-opacity="0.0" clip-path="url(#id_0)" d="M180.83093 131.87883C180.83093 133.53569 179.48778 134.87883 177.83093 134.87883C176.17407 134.87883 174.83093 133.53569 174.83093 131.87883C174.83093 130.22197 176.17407 128.87883 177.83093 128.87883C179.48778 128.87883 180.83093 130.22197 180.83093 131.87883Z" fill-rule="nonzero"/><path fill="#000000" fill-opacity="0.0" clip-path="url(#id_0)" d="M184.6822 131.93788C184.6822 133.59474 183.33907 134.93788 181.6822 134.93788C180.02536 134.93788 178.6822 133.59474 178.6822 131.93788C178.6822 130.28104 180.02536 128.93788 181.6822 128.93788C183.33907 128.93788 184.6822 130.28104 184.6822 131.93788Z" fill-rule="nonzero"/><path fill="#000000" fill-opacity="0.0" clip-path="url(#id_0)" d="M188.66187 131.97617C188.66187 133.63303 187.31871 134.97617 185.66187 134.97617C184.005 134.97617 182.66187 133.63303 182.66187 131.97617C182.66187 130.31932 184.005 128.97617 185.66187 128.97617C187.31871 128.97617 188.66187 130.31932 188.66187 131.97617Z" fill-rule="nonzero"/><path fill="#000000" fill-opacity="0.0" clip-path="url(#id_0)" d="M192.51314 132.0022C192.51314 133.65906 191.17 135.0022 189.51314 135.0022C187.85628 135.0022 186.51314 133.65906 186.51314 132.0022C186.51314 130.34535 187.85628 129.0022 189.51314 129.0022C191.17 129.0022 192.51314 130.34535 192.51314 132.0022Z" fill-rule="nonzero"/><path fill="#000000" fill-opacity="0.0" clip-path="url(#id_0)" d="M196.4928 132.02097C196.4928 133.67783 195.14964 135.02097 193.4928 135.02097C191.83594 135.02097 190.4928 133.67783 190.4928 132.02097C190.4928 130.36412 191.83594 129.02097 193.4928 129.02097C195.14964 129.02097 196.4928 130.36412 196.4928 132.02097Z" fill-rule="nonzero"/><path fill="#000000" fill-opacity="0.0" clip-path="url(#id_0)" d="M200.47244 132.03539C200.47244 133.69225 199.1293 135.03539 197.47244 135.03539C195.8156 135.03539 194.47244 133.69225 194.47244 132.03539C194.47244 130.37854 195.8156 129.03539 197.47244 129.03539C199.1293 129.03539 200.47244 130.37854 200.47244 132.03539Z" fill-rule="nonzero"/><path fill="#000000" fill-opacity="0.0" clip-path="url(#id_0)" d="M204.06697 132.04715C204.06697 133.70401 202.72383 135.04715 201.06697 135.04715C199.41011 135.04715 198.06697 133.70401 198.06697 132.04715C198.06697 130.3903 199.41011 129.04715 201.06697 129.04715C202.72383 129.04715 204.06697 130.3903 204.06697 132.04715Z" fill-rule="nonzero"/><path fill="#000000" fill-opacity="0.0" clip-path="url(#id_0)" d="M208.04663 132.05727C208.04663 133.71413 206.70348 135.05727 205.04663 135.05727C203.38977 135.05727 202.04663 133.71413 202.04663 132.05727C202.04663 130.4004 203.38977 129.05727 205.04663 129.05727C206.70348 129.05727 208.04663 130.4004 208.04663 132.05727Z" fill-rule="nonzero"/><path fill="#000000" fill-opacity="0.0" clip-path="url(#id_0)" d="M211.8979 132.06631C211.8979 133.72316 210.55475 135.06631 208.8979 135.06631C207.24104 135.06631 205.8979 133.72316 205.8979 132.06631C205.8979 130.40945 207.24104 129.06631 208.8979 129.06631C210.55475 129.06631 211.8979 130.40945 211.8979 132.06631Z" fill-rule="nonzero"/><path fill="#000000" fill-opacity="0.0" clip-path="url(#id_0)" d="M215.87755 132.07463C215.87755 133.73149 214.53441 135.07463 212.87755 135.07463C211.2207 135.07463 209.87755 133.73149 209.87755 132.07463C209.87755 130.41777 211.2207 129.07463 212.87755 129.07463C214.53441 129.07463 215.87755 130.41777 215.87755 132.07463Z" fill-rule="nonzero"/><path fill="#000000" fill-opacity="0.0" clip-path="url(#id_0)" d="M219.72884 132.08243C219.72884 133.73929 218.38568 135.08243 216.72884 135.08243C215.07198 135.08243 213.72884 133.73929 213.72884 132.08243C213.72884 130.42558 215.07198 129.08243 216.72884 129.08243C218.38568 129.08243 219.72884 130.42558 219.72884 132.08243Z" fill-rule="nonzero"/><path fill="#000000" fill-opacity="0.0" clip-path="url(#id_0)" d="M223.70848 132.08984C223.70848 133.74669 222.36534 135.08984 220.70848 135.08984C219.05164 135.08984 217.70848 133.74669 217.70848 132.08984C217.70848 130.43298 219.05164 129.08984 220.70848 129.08984C222.36534 129.08984 223.70848 130.43298 223.70848 132.08984Z" fill-rule="nonzero"/><path fill="#000000" fill-opacity="0.0" clip-path="url(#id_0)" d="M227.68814 132.09692C227.68814 133.75378 226.34499 135.09692 224.68814 135.09692C223.03128 135.09692 221.68814 133.75378 221.68814 132.09692C221.68814 130.44008 223.03128 129.09692 224.68814 129.09692C226.34499 129.09692 227.68814 130.44008 227.68814 132.09692Z" fill-rule="nonzero"/><path fill="#000000" fill-opacity="0.0" clip-path="url(#id_0)" d="M231.53941 132.10374C231.53941 133.76059 230.19627 135.10374 228.53941 135.10374C226.88257 135.10374 225.53941 133.76059 225.53941 132.10374C225.53941 130.44688 226.88257 129.10374 228.53941 129.10374C230.19627 129.10374 231.53941 130.44688 231.53941 132.10374Z" fill-rule="nonzero"/><path fill="#000000" fill-opacity="0.0" clip-path="url(#id_0)" d="M235.51907 132.1103C235.51907 133.76717 234.17592 135.1103 232.51907 135.1103C230.86221 135.1103 229.51907 133.76717 229.51907 132.1103C229.51907 130.45346 230.86221 129.1103 232.51907 129.1103C234.17592 129.1103 235.51907 130.45346 235.51907 132.1103Z" fill-rule="nonzero"/><path fill="#000000" fill-opacity="0.0" clip-path="url(#id_0)" d="M239.37035 132.11665C239.37035 133.77351 238.0272 135.11665 236.37035 135.11665C234.71349 135.11665 233.37035 133.77351 233.37035 132.11665C233.37035 130.4598 234.71349 129.11665 236.37035 129.11665C238.0272 129.11665 239.37035 130.4598 239.37035 132.11665Z" fill-rule="nonzero"/><path fill="#000000" fill-opacity="0.0" clip-path="url(#id_0)" d="M243.35 132.12279C243.35 133.77963 242.00685 135.12279 240.35 135.12279C238.69315 135.12279 237.35 133.77963 237.35 132.12279C237.35 130.46593 238.69315 129.12279 240.35 129.12279C242.00685 129.12279 243.35 130.46593 243.35 132.12279Z" fill-rule="nonzero"/><path fill="#000000" fill-opacity="0.0" clip-path="url(#id_0)" d="M102.65 114.46941C102.65 116.12627 101.306854 117.46941 99.65 117.46941C97.99315 117.46941 96.65 116.12627 96.65 114.46941C96.65 112.81256 97.99315 111.46941 99.65 111.46941C101.306854 111.46941 102.65 112.81256 102.65 114.46941Z" fill-rule="nonzero"/><path fill="#000000" fill-opacity="0.0" clip-path="url(#id_0)" d="M106.629654 114.49345C106.629654 116.1503 105.28651 117.49345 103.629654 117.49345C101.9728 117.49345 100.629654 116.1503 100.629654 114.49345C100.629654 112.83659 101.9728 111.49345 103.629654 111.49345C105.28651 111.49345 106.629654 112.83659 106.629654 114.49345Z" fill-rule="nonzero"/><path fill="#000000" fill-opacity="0.0" clip-path="url(#id_0)" d="M110.22418 114.51672C110.22418 116.17358 108.881035 117.51672 107.22418 117.51672C105.56732 117.51672 104.22418 116.17358 104.22418 114.51672C104.22418 112.85986 105.56732 111.51672 107.22418 111.51672C108.881035 111.51672 110.22418 112.85986 110.22418 114.51672Z" fill-rule="nonzero"/><path fill="#000000" fill-opacity="0.0" clip-path="url(#id_0)" d="M114.203835 114.53926C114.203835 116.19611 112.86069 117.53926 111.203835 117.53926C109.546974 117.53926 108.203835 116.19611 108.203835 114.53926C108.203835 112.8824 109.546974 111.53926 111.203835 111.53926C112.86069 111.53926 114.203835 112.8824 114.203835 114.53926Z" fill-rule="nonzero"/><path fill="#000000" fill-opacity="0.0" clip-path="url(#id_0)" d="M118.05511 114.56108C118.05511 116.21793 116.71197 117.56108 115.05511 117.56108C113.398254 117.56108 112.05511 116.21793 112.05511 114.56108C112.05511 112.90423 113.398254 111.56108 115.05511 111.56108C116.71197 111.56108 118.05511 112.90423 118.05511 114.56108Z" fill-rule="nonzero"/><path fill="#000000" fill-opacity="0.0" clip-path="url(#id_0)" d="M122.03476 114.58222C122.03476 116.239075 120.69162 117.58222 119.03476 117.58222C117.37791 117.58222 116.03476 116.239075 116.03476 114.58222C116.03476 112.92536 117.37791 111.58222 119.03476 111.58222C120.69162 111.58222 122.03476 112.92536 122.03476 114.58222Z" fill-rule="nonzero"/><path fill="#000000" fill-opacity="0.0" clip-path="url(#id_0)" d="M125.88604 114.602684C125.88604 116.25954 124.54289 117.602684 122.88604 117.602684C121.22919 117.602684 119.88604 116.25954 119.88604 114.602684C119.88604 112.94583 121.22919 111.602684 122.88604 111.602684C124.54289 111.602684 125.88604 112.94583 125.88604 114.602684Z" fill-rule="nonzero"/><path fill="#000000" fill-opacity="0.0" clip-path="url(#id_0)" d="M129.86569 114.622505C129.86569 116.27936 128.52255 117.622505 126.86569 117.622505C125.20884 117.622505 123.86569 116.27936 123.86569 114.622505C123.86569 112.96565 125.20884 111.622505 126.86569 111.622505C128.52255 111.622505 129.86569 112.96565 129.86569 114.622505Z" fill-rule="nonzero"/><path fill="#000000" fill-opacity="0.0" clip-path="url(#id_0)" d="M133.84535 114.64169C133.84535 116.29855 132.5022 117.64169 130.84535 117.64169C129.18849 117.64169 127.845345 116.29855 127.845345 114.64169C127.845345 112.98484 129.18849 111.64169 130.84535 111.64169C132.5022 111.64169 133.84535 112.98484 133.84535 114.64169Z" fill-rule="nonzero"/><path fill="#000000" fill-opacity="0.0" clip-path="url(#id_0)" d="M137.69662 114.66028C137.69662 116.31714 136.35349 117.66028 134.69662 117.66028C133.03976 117.66028 131.69662 116.31714 131.69662 114.66028C131.69662 113.003426 133.03976 111.66028 134.69662 111.66028C136.35349 111.66028 137.69662 113.003426 137.69662 114.66028Z" fill-rule="nonzero"/><path fill="#000000" fill-opacity="0.0" clip-path="url(#id_0)" d="M141.67628 114.678276C141.67628 116.33514 140.33313 117.678276 138.67628 117.678276C137.01942 117.678276 135.67628 116.33514 135.67628 114.678276C135.67628 113.02142 137.01942 111.678276 138.67628 111.678276C140.33313 111.678276 141.67628 113.02142 141.67628 114.678276Z" fill-rule="nonzero"/><path fill="#000000" fill-opacity="0.0" clip-path="url(#id_0)" d="M145.52756 114.69571C145.52756 116.35256 144.1844 117.69571 142.52756 117.69571C140.8707 117.69571 139.52756 116.35256 139.52756 114.69571C139.52756 113.03886 140.8707 111.69571 142.52756 111.69571C144.1844 111.69571 145.52756 113.03886 145.52756 114.69571Z" fill-rule="nonzero"/><path fill="#000000" fill-opacity="0.0" clip-path="url(#id_0)" d="M149.5072 98.10668C149.5072 99.763535 148.16406 101.10668 146.5072 101.10668C144.85036 101.10668 143.5072 99.763535 143.5072 98.10668C143.5072 96.44983 144.85036 95.10668 146.5072 95.10668C148.16406 95.10668 149.5072 96.44983 149.5072 98.10668Z" fill-rule="nonzero"/><path fill="#000000" fill-opacity="0.0" clip-path="url(#id_0)" d="M153.48686 90.63464C153.48686 92.2915 152.14372 93.63464 150.48686 93.63464C148.83 93.63464 147.48686 92.2915 147.48686 90.63464C147.48686 88.97779 148.83 87.63464 150.48686 87.63464C152.14372 87.63464 153.48686 88.97779 153.48686 90.63464Z" fill-rule="nonzero"/><path fill="#000000" fill-opacity="0.0" clip-path="url(#id_0)" d="M157.20976 86.35848C157.20976 88.015335 155.86662 89.35848 154.20976 89.35848C152.5529 89.35848 151.20976 88.015335 151.20976 86.35848C151.20976 84.70163 152.5529 83.35848 154.20976 83.35848C155.86662 83.35848 157.20976 84.70163 157.20976 86.35848Z" fill-rule="nonzero"/><path fill="#000000" fill-opacity="0.0" clip-path="url(#id_0)" d="M161.18942 83.884544C161.18942 85.541405 159.84627 86.884544 158.18942 86.884544C156.53256 86.884544 155.18942 85.541405 155.18942 83.884544C155.18942 82.22769 156.53256 80.884544 158.18942 80.884544C159.84627 80.884544 161.18942 82.22769 161.18942 83.884544Z" fill-rule="nonzero"/><path fill="#000000" fill-opacity="0.0" clip-path="url(#id_0)" d="M165.0407 82.45217C165.0407 84.10903 163.69754 85.45217 162.0407 85.45217C160.38383 85.45217 159.0407 84.10903 159.0407 82.45217C159.0407 80.79532 160.38383 79.45217 162.0407 79.45217C163.69754 79.45217 165.0407 80.79532 165.0407 82.45217Z" fill-rule="nonzero"/><path fill="#000000" fill-opacity="0.0" clip-path="url(#id_0)" d="M169.02034 81.625145C169.02034 83.282005 167.6772 84.625145 166.02034 84.625145C164.3635 84.625145 163.02034 83.282005 163.02034 81.625145C163.02034 79.96829 164.3635 78.625145 166.02034 78.625145C167.6772 78.625145 169.02034 79.96829 169.02034 81.625145Z" fill-rule="nonzero"/><path fill="#000000" fill-opacity="0.0" clip-path="url(#id_0)" d="M172.87163 81.15058C172.87163 82.807434 171.52847 84.15058 169.87163 84.15058C168.21477 84.15058 166.87163 82.807434 166.87163 81.15058C166.87163 79.49373 168.21477 78.15058 169.87163 78.15058C171.52847 78.15058 172.87163 79.49373 172.87163 81.15058Z" fill-rule="nonzero"/><path fill="#000000" fill-opacity="0.0" clip-path="url(#id_0)" d="M176.85127 80.881325C176.85127 82.53818 175.50813 83.881325 173.85127 83.881325C172.19443 83.881325 170.85127 82.53818 170.85127 80.881325C170.85127 79.22447 172.19443 77.881325 173.85127 77.881325C175.50813 77.881325 176.85127 79.22447 176.85127 80.881325Z" fill-rule="nonzero"/><path fill="#000000" fill-opacity="0.0" clip-path="url(#id_0)" d="M180.83093 80.73161C180.83093 82.388466 179.48778 83.73161 177.83093 83.73161C176.17407 83.73161 174.83093 82.388466 174.83093 80.73161C174.83093 79.07475 176.17407 77.73161 177.83093 77.73161C179.48778 77.73161 180.83093 79.07475 180.83093 80.73161Z" fill-rule="nonzero"/><path fill="#000000" fill-opacity="0.0" clip-path="url(#id_0)" d="M184.6822 80.65142C184.6822 82.30828 183.33907 83.65142 181.6822 83.65142C180.02536 83.65142 178.6822 82.30828 178.6822 80.65142C178.6822 78.99457 180.02536 77.65142 181.6822 77.65142C183.33907 77.65142 184.6822 78.99457 184.6822 80.65142Z" fill-rule="nonzero"/><path fill="#000000" fill-opacity="0.0" clip-path="url(#id_0)" d="M188.66187 80.61159C188.66187 82.26844 187.31871 83.61159 185.66187 83.61159C184.005 83.61159 182.66187 82.26844 182.66187 80.61159C182.66187 78.95473 184.005 77.61159 185.66187 77.61159C187.31871 77.61159 188.66187 78.95473 188.66187 80.61159Z" fill-rule="nonzero"/><path fill="#000000" fill-opacity="0.0" clip-path="url(#id_0)" d="M192.51314 80.59508C192.51314 82.25193 191.17 83.59508 189.51314 83.59508C187.85628 83.59508 186.51314 82.25193 186.51314 80.59508C186.51314 78.938225 187.85628 77.59508 189.51314 77.59508C191.17 77.59508 192.51314 78.938225 192.51314 80.59508Z" fill-rule="nonzero"/><path fill="#000000" fill-opacity="0.0" clip-path="url(#id_0)" d="M196.4928 80.59198C196.4928 82.24883 195.14964 83.59198 193.4928 83.59198C191.83594 83.59198 190.4928 82.24883 190.4928 80.59198C190.4928 78.93513 191.83594 77.59198 193.4928 77.59198C195.14964 77.59198 196.4928 78.93513 196.4928 80.59198Z" fill-rule="nonzero"/><path fill="#000000" fill-opacity="0.0" clip-path="url(#id_0)" d="M200.47244 80.5965C200.47244 82.25335 199.1293 83.5965 197.47244 83.5965C195.8156 83.5965 194.47244 82.25335 194.47244 80.5965C194.47244 78.939644 195.8156 77.5965 197.47244 77.5965C199.1293 77.5965 200.47244 78.939644 200.47244 80.5965Z" fill-rule="nonzero"/><path fill="#000000" fill-opacity="0.0" clip-path="url(#id_0)" d="M204.06697 80.60526C204.06697 82.262115 202.72383 83.60526 201.06697 83.60526C199.41011 83.60526 198.06697 82.262115 198.06697 80.60526C198.06697 78.9484 199.41011 77.60526 201.06697 77.60526C202.72383 77.60526 204.06697 78.9484 204.06697 80.60526Z" fill-rule="nonzero"/><path fill="#000000" fill-opacity="0.0" clip-path="url(#id_0)" d="M208.04663 80.6163C208.04663 82.27316 206.70348 83.6163 205.04663 83.6163C203.38977 83.6163 202.04663 82.27316 202.04663 80.6163C202.04663 78.95945 203.38977 77.6163 205.04663 77.6163C206.70348 77.6163 208.04663 78.95945 208.04663 80.6163Z" fill-rule="nonzero"/><path fill="#000000" fill-opacity="0.0" clip-path="url(#id_0)" d="M211.8979 80.6285C211.8979 82.285355 210.55475 83.6285 208.8979 83.6285C207.24104 83.6285 205.8979 82.285355 205.8979 80.6285C205.8979 78.97164 207.24104 77.6285 208.8979 77.6285C210.55475 77.6285 211.8979 78.97164 211.8979 80.6285Z" fill-rule="nonzero"/><path fill="#000000" fill-opacity="0.0" clip-path="url(#id_0)" d="M215.87755 80.64118C215.87755 82.298035 214.53441 83.64118 212.87755 83.64118C211.2207 83.64118 209.87755 82.298035 209.87755 80.64118C209.87755 78.98433 211.2207 77.64118 212.87755 77.64118C214.53441 77.64118 215.87755 78.98433 215.87755 80.64118Z" fill-rule="nonzero"/><path fill="#000000" fill-opacity="0.0" clip-path="url(#id_0)" d="M219.72884 80.65397C219.72884 82.31082 218.38568 83.65397 216.72884 83.65397C215.07198 83.65397 213.72884 82.31082 213.72884 80.65397C213.72884 78.997116 215.07198 77.65397 216.72884 77.65397C218.38568 77.65397 219.72884 78.997116 219.72884 80.65397Z" fill-rule="nonzero"/><path fill="#000000" fill-opacity="0.0" clip-path="url(#id_0)" d="M223.70848 80.66665C223.70848 82.32351 222.36534 83.66665 220.70848 83.66665C219.05164 83.66665 217.70848 82.32351 217.70848 80.66665C217.70848 79.009796 219.05164 77.66665 220.70848 77.66665C222.36534 77.66665 223.70848 79.009796 223.70848 80.66665Z" fill-rule="nonzero"/><path fill="#000000" fill-opacity="0.0" clip-path="url(#id_0)" d="M227.68814 80.67911C227.68814 82.33596 226.34499 83.67911 224.68814 83.67911C223.03128 83.67911 221.68814 82.33596 221.68814 80.67911C221.68814 79.022255 223.03128 77.67911 224.68814 77.67911C226.34499 77.67911 227.68814 79.022255 227.68814 80.67911Z" fill-rule="nonzero"/><path fill="#000000" fill-opacity="0.0" clip-path="url(#id_0)" d="M231.53941 80.69128C231.53941 82.34813 230.19627 83.69128 228.53941 83.69128C226.88257 83.69128 225.53941 82.34813 225.53941 80.69128C225.53941 79.03442 226.88257 77.69128 228.53941 77.69128C230.19627 77.69128 231.53941 79.03442 231.53941 80.69128Z" fill-rule="nonzero"/><path fill="#000000" fill-opacity="0.0" clip-path="url(#id_0)" d="M235.51907 80.70312C235.51907 82.35997 234.17592 83.70312 232.51907 83.70312C230.86221 83.70312 229.51907 82.35997 229.51907 80.70312C229.51907 79.04626 230.86221 77.70312 232.51907 77.70312C234.17592 77.70312 235.51907 79.04626 235.51907 80.70312Z" fill-rule="nonzero"/><path fill="#000000" fill-opacity="0.0" clip-path="url(#id_0)" d="M239.37035 80.714615C239.37035 82.37147 238.0272 83.714615 236.37035 83.714615C234.71349 83.714615 233.37035 82.37147 233.37035 80.714615C233.37035 79.05776 234.71349 77.714615 236.37035 77.714615C238.0272 77.714615 239.37035 79.05776 239.37035 80.714615Z" fill-rule="nonzero"/><path fill="#000000" fill-opacity="0.0" clip-path="url(#id_0)" d="M243.35 80.72577C243.35 82.38262 242.00685 83.72577 240.35 83.72577C238.69315 83.72577 237.35 82.38262 237.35 80.72577C237.35 79.06892 238.69315 77.72577 240.35 77.72577C242.00685 77.72577 243.35 79.06892 243.35 80.72577Z" fill-rule="nonzero"/><path fill="#000000" d="M152.39062 354.35L152.39062 341.45938L156.82812 341.45938Q158.32812 341.45938 159.125 341.64688Q160.23438 341.89688 161.01562 342.56876Q162.03125 343.42813 162.53125 344.77188Q163.04688 346.11563 163.04688 347.83438Q163.04688 349.30313 162.70312 350.44376Q162.35938 351.56876 161.8125 352.31876Q161.28125 353.05313 160.64062 353.49063Q160.01562 353.9125 159.10938 354.13126Q158.20312 354.35 157.03125 354.35L152.39062 354.35ZM154.09375 352.83438L156.84375 352.83438Q158.125 352.83438 158.84375 352.6Q159.5625 352.35 160.0 351.92813Q160.60938 351.31876 160.9375 350.30313Q161.28125 349.27188 161.28125 347.80313Q161.28125 345.7875 160.60938 344.70938Q159.95312 343.61563 159.0 343.25626Q158.32812 342.99063 156.79688 342.99063L154.09375 342.99063L154.09375 352.83438ZM171.28125 353.19376Q170.40625 353.94376 169.57812 354.25626Q168.76562 354.56876 167.84375 354.56876Q166.29688 354.56876 165.46875 353.81876Q164.65625 353.05313 164.65625 351.88126Q164.65625 351.20938 164.96875 350.64688Q165.28125 350.06876 165.78125 349.725Q166.28125 349.38126 166.92188 349.20938Q167.39062 349.08438 168.32812 348.975Q170.23438 348.74063 171.14062 348.42813Q171.15625 348.1 171.15625 348.00626Q171.15625 347.05313 170.70312 346.64688Q170.09375 346.11563 168.90625 346.11563Q167.78125 346.11563 167.25 346.50626Q166.71875 346.89688 166.46875 347.89688L164.92188 347.67813Q165.14062 346.67813 165.60938 346.06876Q166.09375 345.45938 167.0 345.13126Q167.92188 344.80313 169.14062 344.80313Q170.32812 344.80313 171.07812 345.08438Q171.82812 345.36563 172.17188 345.80313Q172.53125 346.225 172.67188 346.86563Q172.75 347.27188 172.75 348.33438L172.75 350.44376Q172.75 352.64688 172.84375 353.24063Q172.95312 353.81876 173.25 354.35L171.59375 354.35Q171.34375 353.85 171.28125 353.19376ZM171.14062 349.6625Q170.28125 350.02188 168.5625 350.25626Q167.59375 350.39688 167.1875 350.58438Q166.78125 350.75626 166.5625 351.1Q166.34375 351.42813 166.34375 351.85Q166.34375 352.475 166.8125 352.89688Q167.29688 353.31876 168.21875 353.31876Q169.14062 353.31876 169.84375 352.92813Q170.5625 352.52188 170.89062 351.83438Q171.14062 351.2875 171.14062 350.24063L171.14062 349.6625ZM178.64062 352.92813L178.875 354.33438Q178.20312 354.475 177.67188 354.475Q176.8125 354.475 176.32812 354.20938Q175.85938 353.92813 175.67188 353.49063Q175.48438 353.0375 175.48438 351.61563L175.48438 346.24063L174.3125 346.24063L174.3125 345.02188L175.48438 345.02188L175.48438 342.70938L177.04688 341.75626L177.04688 345.02188L178.64062 345.02188L178.64062 346.24063L177.04688 346.24063L177.04688 351.70938Q177.04688 352.38126 177.125 352.58438Q177.21875 352.77188 177.40625 352.88126Q177.59375 352.99063 177.95312 352.99063Q178.20312 352.99063 178.64062 352.92813ZM186.57812 351.35L188.21875 351.55313Q187.82812 352.975 186.78125 353.77188Q185.73438 354.56876 184.10938 354.56876Q182.0625 354.56876 180.85938 353.30313Q179.65625 352.0375 179.65625 349.75626Q179.65625 347.4125 180.85938 346.11563Q182.07812 344.80313 184.01562 344.80313Q185.89062 344.80313 187.07812 346.08438Q188.26562 347.35 188.26562 349.6625Q188.26562 349.80313 188.25 350.08438L181.29688 350.08438Q181.375 351.63126 182.15625 352.44376Q182.95312 353.25626 184.10938 353.25626Q184.98438 353.25626 185.59375 352.80313Q186.21875 352.35 186.57812 351.35ZM181.375 348.7875L186.59375 348.7875Q186.48438 347.61563 186.0 347.02188Q185.23438 346.1 184.03125 346.1Q182.95312 346.1 182.20312 346.83438Q181.46875 347.56876 181.375 348.7875Z" fill-rule="nonzero"/><path fill="#000000" d="M29.650005 219.60938L16.75938 219.60938L16.75938 214.75Q16.75938 213.46875 16.88438 212.79688Q17.04063 211.84375 17.493755 211.20312Q17.931255 210.5625 18.743755 210.17188Q19.54063 209.78125 20.493755 209.78125Q22.13438 209.78125 23.275005 210.82812Q24.41563 211.875 24.41563 214.59375L24.41563 217.90625L29.650005 217.90625L29.650005 219.60938ZM22.88438 217.90625L22.88438 214.57812Q22.88438 212.92188 22.275005 212.23438Q21.66563 211.53125 20.54063 211.53125Q19.72813 211.53125 19.16563 211.9375Q18.587505 212.34375 18.400005 213.01562Q18.29063 213.45312 18.29063 214.60938L18.29063 217.90625L22.88438 217.90625ZM29.650005 207.82812L20.32188 207.82812L20.32188 206.40625L21.72813 206.40625Q20.743755 205.85938 20.431255 205.40625Q20.10313 204.9375 20.10313 204.39062Q20.10313 203.57812 20.618755 202.76562L22.087505 203.29688Q21.743755 203.89062 21.743755 204.46875Q21.743755 204.98438 22.056255 205.40625Q22.368755 205.8125 22.91563 205.98438Q23.75938 206.25 24.75938 206.25L29.650005 206.25L29.650005 207.82812ZM26.650005 195.42188L26.85313 193.78125Q28.275005 194.17188 29.07188 195.21875Q29.868755 196.26562 29.868755 197.89062Q29.868755 199.9375 28.60313 201.14062Q27.337505 202.34375 25.056255 202.34375Q22.712505 202.34375 21.41563 201.14062Q20.10313 199.92188 20.10313 197.98438Q20.10313 196.10938 21.38438 194.92188Q22.650005 193.73438 24.962505 193.73438Q25.10313 193.73438 25.38438 193.75L25.38438 200.70312Q26.931255 200.625 27.743755 199.84375Q28.556255 199.04688 28.556255 197.89062Q28.556255 197.01562 28.10313 196.40625Q27.650005 195.78125 26.650005 195.42188ZM24.087505 200.625L24.087505 195.40625Q22.91563 195.51562 22.32188 196.0Q21.400005 196.76562 21.400005 197.96875Q21.400005 199.04688 22.13438 199.79688Q22.868755 200.53125 24.087505 200.625ZM26.868755 192.45312L26.618755 190.875Q27.556255 190.75 28.056255 190.15625Q28.556255 189.54688 28.556255 188.46875Q28.556255 187.375 28.118755 186.84375Q27.66563 186.3125 27.07188 186.3125Q26.54063 186.3125 26.22813 186.78125Q26.025005 187.10938 25.69688 188.40625Q25.25938 190.14062 24.94688 190.8125Q24.618755 191.48438 24.056255 191.84375Q23.47813 192.1875 22.79063 192.1875Q22.16563 192.1875 21.63438 191.90625Q21.10313 191.60938 20.75938 191.125Q20.47813 190.75 20.29063 190.10938Q20.10313 189.46875 20.10313 188.75Q20.10313 187.64062 20.431255 186.8125Q20.743755 185.98438 21.29063 185.59375Q21.82188 185.1875 22.72813 185.04688L22.931255 186.59375Q22.212505 186.70312 21.806255 187.20312Q21.400005 187.70312 21.400005 188.625Q21.400005 189.71875 21.75938 190.1875Q22.118755 190.65625 22.60313 190.65625Q22.91563 190.65625 23.16563 190.45312Q23.41563 190.26562 23.587505 189.85938Q23.66563 189.60938 23.993755 188.45312Q24.431255 186.78125 24.72813 186.125Q25.00938 185.45312 25.556255 185.07812Q26.10313 184.6875 26.900005 184.6875Q27.69688 184.6875 28.400005 185.15625Q29.10313 185.60938 29.493755 186.48438Q29.868755 187.35938 29.868755 188.45312Q29.868755 190.28125 29.118755 191.23438Q28.35313 192.1875 26.868755 192.45312ZM26.868755 183.45312L26.618755 181.875Q27.556255 181.75 28.056255 181.15625Q28.556255 180.54688 28.556255 179.46875Q28.556255 178.375 28.118755 177.84375Q27.66563 177.3125 27.07188 177.3125Q26.54063 177.3125 26.22813 177.78125Q26.025005 178.10938 25.69688 179.40625Q25.25938 181.14062 24.94688 181.8125Q24.618755 182.48438 24.056255 182.84375Q23.47813 183.1875 22.79063 183.1875Q22.16563 183.1875 21.63438 182.90625Q21.10313 182.60938 20.75938 182.125Q20.47813 181.75 20.29063 181.10938Q20.10313 180.46875 20.10313 179.75Q20.10313 178.64062 20.431255 177.8125Q20.743755 176.98438 21.29063 176.59375Q21.82188 176.1875 22.72813 176.04688L22.931255 177.59375Q22.212505 177.70312 21.806255 178.20312Q21.400005 178.70312 21.400005 179.625Q21.400005 180.71875 21.75938 181.1875Q22.118755 181.65625 22.60313 181.65625Q22.91563 181.65625 23.16563 181.45312Q23.41563 181.26562 23.587505 180.85938Q23.66563 180.60938 23.993755 179.45312Q24.431255 177.78125 24.72813 177.125Q25.00938 176.45312 25.556255 176.07812Q26.10313 175.6875 26.900005 175.6875Q27.69688 175.6875 28.400005 176.15625Q29.10313 176.60938 29.493755 177.48438Q29.868755 178.35938 29.868755 179.45312Q29.868755 181.28125 29.118755 182.23438Q28.35313 183.1875 26.868755 183.45312ZM29.650005 167.70312L28.275005 167.70312Q29.868755 168.78125 29.868755 170.65625Q29.868755 171.48438 29.556255 172.20312Q29.22813 172.92188 28.75938 173.26562Q28.275005 173.60938 27.57188 173.75Q27.10313 173.84375 26.10313 173.84375L20.32188 173.84375L20.32188 172.26562L25.493755 172.26562Q26.72813 172.26562 27.16563 172.17188Q27.79063 172.01562 28.150005 171.53125Q28.493755 171.04688 28.493755 170.34375Q28.493755 169.625 28.13438 169.0Q27.775005 168.375 27.150005 168.125Q26.50938 167.85938 25.32188 167.85938L20.32188 167.85938L20.32188 166.28125L29.650005 166.28125L29.650005 167.70312ZM29.650005 163.82812L20.32188 163.82812L20.32188 162.40625L21.72813 162.40625Q20.743755 161.85938 20.431255 161.40625Q20.10313 160.9375 20.10313 160.39062Q20.10313 159.57812 20.618755 158.76562L22.087505 159.29688Q21.743755 159.89062 21.743755 160.46875Q21.743755 160.98438 22.056255 161.40625Q22.368755 161.8125 22.91563 161.98438Q23.75938 162.25 24.75938 162.25L29.650005 162.25L29.650005 163.82812ZM26.650005 151.42188L26.85313 149.78125Q28.275005 150.17188 29.07188 151.21875Q29.868755 152.26562 29.868755 153.89062Q29.868755 155.9375 28.60313 157.14062Q27.337505 158.34375 25.056255 158.34375Q22.712505 158.34375 21.41563 157.14062Q20.10313 155.92188 20.10313 153.98438Q20.10313 152.10938 21.38438 150.92188Q22.650005 149.73438 24.962505 149.73438Q25.10313 149.73438 25.38438 149.75L25.38438 156.70312Q26.931255 156.625 27.743755 155.84375Q28.556255 155.04688 28.556255 153.89062Q28.556255 153.01562 28.10313 152.40625Q27.650005 151.78125 26.650005 151.42188ZM24.087505 156.625L24.087505 151.40625Q22.91563 151.51562 22.32188 152.0Q21.400005 152.76562 21.400005 153.96875Q21.400005 155.04688 22.13438 155.79688Q22.868755 156.53125 24.087505 156.625ZM29.650005 147.40625L27.85313 147.40625L27.85313 145.59375L29.650005 145.59375Q30.650005 145.59375 31.25938 145.95312Q31.868755 146.29688 32.19688 147.0625L31.525005 147.5Q31.306255 147.0 30.868755 146.76562Q30.44688 146.53125 29.650005 146.5L29.650005 147.40625ZM29.650005 137.65625L16.75938 137.65625L16.75938 135.09375L25.88438 132.04688Q27.16563 131.625 27.79063 131.4375Q27.087505 131.21875 25.72813 130.75L16.75938 127.65625L16.75938 125.375L29.650005 125.375L29.650005 127.015625L18.868755 127.015625L29.650005 130.75L29.650005 132.29688L18.681255 136.01562L29.650005 136.01562L29.650005 137.65625ZM29.650005 122.609375L16.75938 122.609375L16.75938 117.75Q16.75938 116.46875 16.88438 115.796875Q17.04063 114.84375 17.493755 114.203125Q17.931255 113.5625 18.743755 113.171875Q19.54063 112.78125 20.493755 112.78125Q22.13438 112.78125 23.275005 113.828125Q24.41563 114.875 24.41563 117.59375L24.41563 120.90625L29.650005 120.90625L29.650005 122.609375ZM22.88438 120.90625L22.88438 117.578125Q22.88438 115.921875 22.275005 115.234375Q21.66563 114.53125 20.54063 114.53125Q19.72813 114.53125 19.16563 114.9375Q18.587505 115.34375 18.400005 116.015625Q18.29063 116.453125 18.29063 117.609375L18.29063 120.90625L22.88438 120.90625ZM28.493755 104.71875Q29.243755 105.59375 29.556255 106.421875Q29.868755 107.234375 29.868755 108.15625Q29.868755 109.703125 29.118755 110.53125Q28.35313 111.34375 27.181255 111.34375Q26.50938 111.34375 25.94688 111.03125Q25.368755 110.71875 25.025005 110.21875Q24.681255 109.71875 24.50938 109.078125Q24.38438 108.609375 24.275005 107.671875Q24.04063 105.765625 23.72813 104.859375Q23.400005 104.84375 23.306255 104.84375Q22.35313 104.84375 21.94688 105.296875Q21.41563 105.90625 21.41563 107.09375Q21.41563 108.21875 21.806255 108.75Q22.19688 109.28125 23.19688 109.53125L22.97813 111.078125Q21.97813 110.859375 21.368755 110.390625Q20.75938 109.90625 20.431255 109.0Q20.10313 108.078125 20.10313 106.859375Q20.10313 105.671875 20.38438 104.921875Q20.66563 104.171875 21.10313 103.828125Q21.525005 103.46875 22.16563 103.328125Q22.57188 103.25 23.63438 103.25L25.743755 103.25Q27.94688 103.25 28.54063 103.15625Q29.118755 103.046875 29.650005 102.75L29.650005 104.40625Q29.150005 104.65625 28.493755 104.71875ZM24.962505 104.859375Q25.32188 105.71875 25.556255 107.4375Q25.69688 108.40625 25.88438 108.8125Q26.056255 109.21875 26.400005 109.4375Q26.72813 109.65625 27.150005 109.65625Q27.775005 109.65625 28.19688 109.1875Q28.618755 108.703125 28.618755 107.78125Q28.618755 106.859375 28.22813 106.15625Q27.82188 105.4375 27.13438 105.109375Q26.587505 104.859375 25.54063 104.859375L24.962505 104.859375Z" fill-rule="nonzero"/><path fill="#000000" d="M70.32188 253.75693Q70.32188 251.72568 70.72813 250.4913Q71.15 249.25693 71.97813 248.58505Q72.80625 247.91318 74.05625 247.91318Q74.97813 247.91318 75.66563 248.28818Q76.36875 248.64755 76.82188 249.35068Q77.275 250.0538 77.525 251.0538Q77.79063 252.0538 77.79063 253.75693Q77.79063 255.77255 77.36875 257.02255Q76.9625 258.25693 76.13438 258.94443Q75.30625 259.6163 74.05625 259.6163Q72.4 259.6163 71.44688 258.41318Q70.32188 256.9913 70.32188 253.75693ZM71.75938 253.75693Q71.75938 256.58505 72.41563 257.52255Q73.0875 258.44443 74.05625 258.44443Q75.025 258.44443 75.68125 257.50693Q76.3375 256.56943 76.3375 253.75693Q76.3375 250.9288 75.68125 250.00693Q75.025 249.06943 74.04063 249.06943Q73.07188 249.06943 72.49375 249.89755Q71.75938 250.94443 71.75938 253.75693ZM80.07188 259.41318L80.07188 257.8038L81.68125 257.8038L81.68125 259.41318Q81.68125 260.3038 81.36875 260.83505Q81.05625 261.38193 80.36875 261.6788L79.97813 261.08505Q80.43125 260.88193 80.63438 260.50693Q80.85313 260.13193 80.86875 259.41318L80.07188 259.41318ZM83.32188 253.75693Q83.32188 251.72568 83.72813 250.4913Q84.15 249.25693 84.97813 248.58505Q85.80625 247.91318 87.05625 247.91318Q87.97813 247.91318 88.66563 248.28818Q89.36875 248.64755 89.82188 249.35068Q90.275 250.0538 90.525 251.0538Q90.79063 252.0538 90.79063 253.75693Q90.79063 255.77255 90.36875 257.02255Q89.9625 258.25693 89.13438 258.94443Q88.30625 259.6163 87.05625 259.6163Q85.4 259.6163 84.44688 258.41318Q83.32188 256.9913 83.32188 253.75693ZM84.75938 253.75693Q84.75938 256.58505 85.41563 257.52255Q86.0875 258.44443 87.05625 258.44443Q88.025 258.44443 88.68125 257.50693Q89.3375 256.56943 89.3375 253.75693Q89.3375 250.9288 88.68125 250.00693Q88.025 249.06943 87.04063 249.06943Q86.07188 249.06943 85.49375 249.89755Q84.75938 250.94443 84.75938 253.75693Z" fill-rule="nonzero"/><path fill="#000000" d="M70.32188 210.06055L71.79063 209.93555Q71.9625 211.01367 72.55625 211.56055Q73.15 212.0918 73.99375 212.0918Q75.00938 212.0918 75.7125 211.32617Q76.41563 210.56055 76.41563 209.29492Q76.41563 208.0918 75.74375 207.4043Q75.07188 206.70117 73.97813 206.70117Q73.29063 206.70117 72.74375 207.01367Q72.19688 207.32617 71.88438 207.81055L70.57188 207.63867L71.68125 201.76367L77.36875 201.76367L77.36875 203.10742L72.80625 203.10742L72.18125 206.18555Q73.2125 205.4668 74.35313 205.4668Q75.85313 205.4668 76.88438 206.51367Q77.91563 207.54492 77.91563 209.16992Q77.91563 210.73242 77.00938 211.85742Q75.9 213.26367 73.99375 213.26367Q72.43125 213.26367 71.44688 212.38867Q70.4625 211.49805 70.32188 210.06055ZM80.07188 213.06055L80.07188 211.45117L81.68125 211.45117L81.68125 213.06055Q81.68125 213.95117 81.36875 214.48242Q81.05625 215.0293 80.36875 215.32617L79.97813 214.73242Q80.43125 214.5293 80.63438 214.1543Q80.85313 213.7793 80.86875 213.06055L80.07188 213.06055ZM83.32188 207.4043Q83.32188 205.37305 83.72813 204.13867Q84.15 202.9043 84.97813 202.23242Q85.80625 201.56055 87.05625 201.56055Q87.97813 201.56055 88.66563 201.93555Q89.36875 202.29492 89.82188 202.99805Q90.275 203.70117 90.525 204.70117Q90.79063 205.70117 90.79063 207.4043Q90.79063 209.41992 90.36875 210.66992Q89.9625 211.9043 89.13438 212.5918Q88.30625 213.26367 87.05625 213.26367Q85.4 213.26367 84.44688 212.06055Q83.32188 210.63867 83.32188 207.4043ZM84.75938 207.4043Q84.75938 210.23242 85.41563 211.16992Q86.0875 212.0918 87.05625 212.0918Q88.025 212.0918 88.68125 211.1543Q89.3375 210.2168 89.3375 207.4043Q89.3375 204.57617 88.68125 203.6543Q88.025 202.7168 87.04063 202.7168Q86.07188 202.7168 85.49375 203.54492Q84.75938 204.5918 84.75938 207.4043Z" fill-rule="nonzero"/><path fill="#000000" d="M66.61875 166.70792L65.2125 166.70792L65.2125 157.73917Q64.69688 158.22354 63.86875 158.70792Q63.05625 159.19229 62.4 159.44229L62.4 158.08292Q63.571877 157.52042 64.44688 156.73917Q65.3375 155.94229 65.7125 155.20792L66.61875 155.20792L66.61875 166.70792ZM70.32188 161.05167Q70.32188 159.02042 70.72813 157.78604Q71.15 156.55167 71.97813 155.87979Q72.80625 155.20792 74.05625 155.20792Q74.97813 155.20792 75.66563 155.58292Q76.36875 155.94229 76.82188 156.64542Q77.275 157.34854 77.525 158.34854Q77.79063 159.34854 77.79063 161.05167Q77.79063 163.06729 77.36875 164.31729Q76.9625 165.55167 76.13438 166.23917Q75.30625 166.91104 74.05625 166.91104Q72.4 166.91104 71.44688 165.70792Q70.32188 164.28604 70.32188 161.05167ZM71.75938 161.05167Q71.75938 163.87979 72.41563 164.81729Q73.0875 165.73917 74.05625 165.73917Q75.025 165.73917 75.68125 164.80167Q76.3375 163.86417 76.3375 161.05167Q76.3375 158.22354 75.68125 157.30167Q75.025 156.36417 74.04063 156.36417Q73.07188 156.36417 72.49375 157.19229Q71.75938 158.23917 71.75938 161.05167ZM80.07188 166.70792L80.07188 165.09854L81.68125 165.09854L81.68125 166.70792Q81.68125 167.59854 81.36875 168.12979Q81.05625 168.67667 80.36875 168.97354L79.97813 168.37979Q80.43125 168.17667 80.63438 167.80167Q80.85313 167.42667 80.86875 166.70792L80.07188 166.70792ZM83.32188 161.05167Q83.32188 159.02042 83.72813 157.78604Q84.15 156.55167 84.97813 155.87979Q85.80625 155.20792 87.05625 155.20792Q87.97813 155.20792 88.66563 155.58292Q89.36875 155.94229 89.82188 156.64542Q90.275 157.34854 90.525 158.34854Q90.79063 159.34854 90.79063 161.05167Q90.79063 163.06729 90.36875 164.31729Q89.9625 165.55167 89.13438 166.23917Q88.30625 166.91104 87.05625 166.91104Q85.4 166.91104 84.44688 165.70792Q83.32188 164.28604 83.32188 161.05167ZM84.75938 161.05167Q84.75938 163.87979 85.41563 164.81729Q86.0875 165.73917 87.05625 165.73917Q88.025 165.73917 88.68125 164.80167Q89.3375 163.86417 89.3375 161.05167Q89.3375 158.22354 88.68125 157.30167Q88.025 156.36417 87.04063 156.36417Q86.07188 156.36417 85.49375 157.19229Q84.75938 158.23917 84.75938 161.05167Z" fill-rule="nonzero"/><path fill="#000000" d="M66.61875 120.35527L65.2125 120.35527L65.2125 111.38652Q64.69688 111.870895 63.86875 112.35527Q63.05625 112.839645 62.4 113.089645L62.4 111.73027Q63.571877 111.16777 64.44688 110.38652Q65.3375 109.589645 65.7125 108.85527L66.61875 108.85527L66.61875 120.35527ZM70.32188 117.35527L71.79063 117.23027Q71.9625 118.308395 72.55625 118.85527Q73.15 119.38652 73.99375 119.38652Q75.00938 119.38652 75.7125 118.620895Q76.41563 117.85527 76.41563 116.589645Q76.41563 115.38652 75.74375 114.69902Q75.07188 113.995895 73.97813 113.995895Q73.29063 113.995895 72.74375 114.308395Q72.19688 114.620895 71.88438 115.10527L70.57188 114.933395L71.68125 109.058395L77.36875 109.058395L77.36875 110.402145L72.80625 110.402145L72.18125 113.48027Q73.2125 112.76152 74.35313 112.76152Q75.85313 112.76152 76.88438 113.808395Q77.91563 114.839645 77.91563 116.464645Q77.91563 118.027145 77.00938 119.152145Q75.9 120.558395 73.99375 120.558395Q72.43125 120.558395 71.44688 119.683395Q70.4625 118.79277 70.32188 117.35527ZM80.07188 120.35527L80.07188 118.745895L81.68125 118.745895L81.68125 120.35527Q81.68125 121.245895 81.36875 121.777145Q81.05625 122.32402 80.36875 122.620895L79.97813 122.027145Q80.43125 121.82402 80.63438 121.44902Q80.85313 121.07402 80.86875 120.35527L80.07188 120.35527ZM83.32188 114.69902Q83.32188 112.66777 83.72813 111.433395Q84.15 110.19902 84.97813 109.527145Q85.80625 108.85527 87.05625 108.85527Q87.97813 108.85527 88.66563 109.23027Q89.36875 109.589645 89.82188 110.29277Q90.275 110.995895 90.525 111.995895Q90.79063 112.995895 90.79063 114.69902Q90.79063 116.714645 90.36875 117.964645Q89.9625 119.19902 89.13438 119.88652Q88.30625 120.558395 87.05625 120.558395Q85.4 120.558395 84.44688 119.35527Q83.32188 117.933395 83.32188 114.69902ZM84.75938 114.69902Q84.75938 117.527145 85.41563 118.464645Q86.0875 119.38652 87.05625 119.38652Q88.025 119.38652 88.68125 118.44902Q89.3375 117.51152 89.3375 114.69902Q89.3375 111.870895 88.68125 110.94902Q88.025 110.01152 87.04063 110.01152Q86.07188 110.01152 85.49375 110.839645Q84.75938 111.88652 84.75938 114.69902Z" fill-rule="nonzero"/><path fill="#000000" d="M68.7125 72.643265L68.7125 74.00264L61.134377 74.00264Q61.11875 73.487015 61.30625 73.018265Q61.5875 72.25264 62.228127 71.50264Q62.86875 70.75264 64.07188 69.768265Q65.93125 68.237015 66.5875 67.34639Q67.24375 66.44014 67.24375 65.643265Q67.24375 64.81514 66.65 64.237015Q66.05625 63.65889 65.0875 63.65889Q64.07188 63.65889 63.4625 64.268265Q62.853127 64.87764 62.853127 65.955765L61.4 65.81514Q61.55625 64.19014 62.525 63.34639Q63.49375 62.50264 65.11875 62.50264Q66.775 62.50264 67.72813 63.424515Q68.69688 64.330765 68.69688 65.674515Q68.69688 66.362015 68.41563 67.03389Q68.13438 67.69014 67.47813 68.424515Q66.82188 69.15889 65.30625 70.44014Q64.04063 71.50264 63.68125 71.893265Q63.321877 72.268265 63.0875 72.643265L68.7125 72.643265ZM70.32188 68.34639Q70.32188 66.31514 70.72813 65.080765Q71.15 63.84639 71.97813 63.174515Q72.80625 62.50264 74.05625 62.50264Q74.97813 62.50264 75.66563 62.87764Q76.36875 63.237015 76.82188 63.94014Q77.275 64.643265 77.525 65.643265Q77.79063 66.643265 77.79063 68.34639Q77.79063 70.362015 77.36875 71.612015Q76.9625 72.84639 76.13438 73.53389Q75.30625 74.205765 74.05625 74.205765Q72.4 74.205765 71.44688 73.00264Q70.32188 71.580765 70.32188 68.34639ZM71.75938 68.34639Q71.75938 71.174515 72.41563 72.112015Q73.0875 73.03389 74.05625 73.03389Q75.025 73.03389 75.68125 72.09639Q76.3375 71.15889 76.3375 68.34639Q76.3375 65.518265 75.68125 64.59639Q75.025 63.65889 74.04063 63.65889Q73.07188 63.65889 72.49375 64.487015Q71.75938 65.53389 71.75938 68.34639ZM80.07188 74.00264L80.07188 72.393265L81.68125 72.393265L81.68125 74.00264Q81.68125 74.893265 81.36875 75.424515Q81.05625 75.97139 80.36875 76.268265L79.97813 75.674515Q80.43125 75.47139 80.63438 75.09639Q80.85313 74.72139 80.86875 74.00264L80.07188 74.00264ZM83.32188 68.34639Q83.32188 66.31514 83.72813 65.080765Q84.15 63.84639 84.97813 63.174515Q85.80625 62.50264 87.05625 62.50264Q87.97813 62.50264 88.66563 62.87764Q89.36875 63.237015 89.82188 63.94014Q90.275 64.643265 90.525 65.643265Q90.79063 66.643265 90.79063 68.34639Q90.79063 70.362015 90.36875 71.612015Q89.9625 72.84639 89.13438 73.53389Q88.30625 74.205765 87.05625 74.205765Q85.4 74.205765 84.44688 73.00264Q83.32188 71.580765 83.32188 68.34639ZM84.75938 68.34639Q84.75938 71.174515 85.41563 72.112015Q86.0875 73.03389 87.05625 73.03389Q88.025 73.03389 88.68125 72.09639Q89.3375 71.15889 89.3375 68.34639Q89.3375 65.518265 88.68125 64.59639Q88.025 63.65889 87.04063 63.65889Q86.07188 63.65889 85.49375 64.487015Q84.75938 65.53389 84.75938 68.34639Z" fill-rule="nonzero"/><path fill="#000000" d="M68.7125 26.290625L68.7125 27.65L61.134377 27.65Q61.11875 27.134375 61.30625 26.665625Q61.5875 25.9 62.228127 25.15Q62.86875 24.4 64.07188 23.415625Q65.93125 21.884375 66.5875 20.99375Q67.24375 20.0875 67.24375 19.290625Q67.24375 18.4625 66.65 17.884375Q66.05625 17.30625 65.0875 17.30625Q64.07188 17.30625 63.4625 17.915625Q62.853127 18.525 62.853127 19.603125L61.4 19.4625Q61.55625 17.8375 62.525 16.99375Q63.49375 16.15 65.11875 16.15Q66.775 16.15 67.72813 17.071875Q68.69688 17.978125 68.69688 19.321875Q68.69688 20.009375 68.41563 20.68125Q68.13438 21.3375 67.47813 22.071875Q66.82188 22.80625 65.30625 24.0875Q64.04063 25.15 63.68125 25.540625Q63.321877 25.915625 63.0875 26.290625L68.7125 26.290625ZM70.32188 24.65L71.79063 24.525Q71.9625 25.603125 72.55625 26.15Q73.15 26.68125 73.99375 26.68125Q75.00938 26.68125 75.7125 25.915625Q76.41563 25.15 76.41563 23.884375Q76.41563 22.68125 75.74375 21.99375Q75.07188 21.290625 73.97813 21.290625Q73.29063 21.290625 72.74375 21.603125Q72.19688 21.915625 71.88438 22.4L70.57188 22.228125L71.68125 16.353125L77.36875 16.353125L77.36875 17.696875L72.80625 17.696875L72.18125 20.775Q73.2125 20.05625 74.35313 20.05625Q75.85313 20.05625 76.88438 21.103125Q77.91563 22.134375 77.91563 23.759375Q77.91563 25.321875 77.00938 26.446875Q75.9 27.853125 73.99375 27.853125Q72.43125 27.853125 71.44688 26.978125Q70.4625 26.0875 70.32188 24.65ZM80.07188 27.65L80.07188 26.040625L81.68125 26.040625L81.68125 27.65Q81.68125 28.540625 81.36875 29.071875Q81.05625 29.61875 80.36875 29.915625L79.97813 29.321875Q80.43125 29.11875 80.63438 28.74375Q80.85313 28.36875 80.86875 27.65L80.07188 27.65ZM83.32188 21.99375Q83.32188 19.9625 83.72813 18.728125Q84.15 17.49375 84.97813 16.821875Q85.80625 16.15 87.05625 16.15Q87.97813 16.15 88.66563 16.525Q89.36875 16.884375 89.82188 17.5875Q90.275 18.290625 90.525 19.290625Q90.79063 20.290625 90.79063 21.99375Q90.79063 24.009375 90.36875 25.259375Q89.9625 26.49375 89.13438 27.18125Q88.30625 27.853125 87.05625 27.853125Q85.4 27.853125 84.44688 26.65Q83.32188 25.228125 83.32188 21.99375ZM84.75938 21.99375Q84.75938 24.821875 85.41563 25.759375Q86.0875 26.68125 87.05625 26.68125Q88.025 26.68125 88.68125 25.74375Q89.3375 24.80625 89.3375 21.99375Q89.3375 19.165625 88.68125 18.24375Q88.025 17.30625 87.04063 17.30625Q86.07188 17.30625 85.49375 18.134375Q84.75938 19.18125 84.75938 21.99375Z" fill-rule="nonzero"/><path fill="#000000" d="M65.01281 309.76443Q63.576504 308.32812 62.99093 307.16803Q62.416405 305.99686 62.52689 304.93622Q62.637375 303.87555 63.52126 302.99167Q64.17313 302.3398 64.92442 302.11884Q65.67573 301.87576 66.49332 302.05255Q67.31091 302.2293 68.19479 302.75964Q69.08972 303.27893 70.294014 304.48322Q71.71928 305.90848 72.30485 307.09067Q72.89043 308.25076 72.790985 309.32248Q72.680504 310.38315 71.796616 311.26703Q70.62547 312.43817 69.10078 312.26138Q67.29986 312.05148 65.01281 309.76443ZM66.02928 308.74796Q68.02907 310.74774 69.15601 310.94662Q70.28297 311.12338 70.96798 310.4384Q71.652985 309.7534 71.45412 308.62643Q71.25524 307.49948 69.2665 305.51074Q67.266716 303.51096 66.15081 303.32312Q65.023865 303.12424 64.327805 303.8203Q63.64279 304.5053 63.81957 305.4997Q64.04054 306.75922 66.02928 308.74796ZM79.1218 303.65457L78.12743 304.64896L71.78557 298.3071Q71.76347 299.0142 71.5204 299.94226Q71.28838 300.85928 71.00112 301.50012L70.0399 300.53888Q70.470795 299.3125 70.53709 298.14136Q70.60338 296.94812 70.34926 296.16367L70.990074 295.52286L79.1218 303.65457ZM79.19914 298.71588L78.193726 297.71045L81.243126 294.66107L82.24854 295.66647L79.19914 298.71588ZM89.54058 291.31335L90.5018 292.27457L85.14326 297.63312Q84.76761 297.27957 84.56873 296.81552Q84.22623 296.0753 84.14889 295.09195Q84.07155 294.10864 84.22623 292.56183Q84.45825 290.1643 84.29252 289.0705Q84.115746 287.96564 83.55227 287.40216Q82.9667 286.8166 82.138054 286.82764Q81.30942 286.83868 80.624405 287.5237Q79.90625 288.24185 79.90625 289.10364Q79.90625 289.96542 80.6686 290.72778L79.54165 291.65585Q78.50308 290.39633 78.59147 289.1147Q78.67986 287.83307 79.82891 286.68402Q81.00005 285.51288 82.32588 285.49078Q83.6517 285.4466 84.60188 286.39676Q85.08801 286.8829 85.36423 287.55685Q85.629395 288.21976 85.68464 289.2031Q85.73988 290.1864 85.57415 292.1641Q85.43052 293.81033 85.45262 294.34067Q85.46367 294.85992 85.5631 295.29083L89.54058 291.31335ZM87.64023 287.137Q86.20392 285.70068 85.61835 284.5406Q85.04382 283.36945 85.154305 282.3088Q85.26479 281.24814 86.148674 280.36426Q86.80054 279.71237 87.55184 279.49142Q88.30314 279.24835 89.120735 279.4251Q89.938324 279.6019 90.82221 280.13223Q91.71714 280.65152 92.92143 281.8558Q94.346695 283.28107 94.93227 284.46326Q95.51784 285.62335 95.4184 286.69507Q95.30792 287.75574 94.424034 288.63962Q93.25289 289.81076 91.72819 289.63397Q89.92728 289.42404 87.64023 287.137ZM88.65669 286.12054Q90.65648 288.12033 91.78343 288.3192Q92.910385 288.49597 93.5954 287.81097Q94.2804 287.12595 94.08153 285.999Q93.88266 284.87207 91.89392 282.88333Q89.894135 280.88354 88.77823 280.6957Q87.651276 280.49683 86.95522 281.1929Q86.27021 281.8779 86.44698 282.87228Q86.66796 284.1318 88.65669 286.12054ZM94.00419 280.77304Q92.56788 279.33673 91.98231 278.17664Q91.40778 277.0055 91.518265 275.94482Q91.62875 274.8842 92.512634 274.00027Q93.164505 273.34842 93.9158 273.12744Q94.66711 272.8844 95.484695 273.06116Q96.302284 273.23795 97.18617 273.76828Q98.0811 274.28754 99.28539 275.49185Q100.710655 276.9171 101.29623 278.0993Q101.881805 279.2594 101.782364 280.33112Q101.67188 281.39175 100.787994 282.27563Q99.61685 283.4468 98.092155 283.27002Q96.29124 283.0601 94.00419 280.77304ZM95.02066 279.7566Q97.02045 281.75638 98.14739 281.95523Q99.274345 282.13202 99.95936 281.44702Q100.64436 280.762 100.44549 279.63504Q100.24662 278.5081 98.25788 276.51935Q96.258095 274.51956 95.14219 274.33176Q94.015236 274.13287 93.31918 274.82892Q92.63417 275.51395 92.81095 276.5083Q93.03192 277.76785 95.02066 279.7566ZM97.396095 271.30444L96.43487 270.34323L101.67188 265.1062L102.445274 265.8796Q102.50052 267.48166 103.10819 269.614Q103.71586 271.7243 104.73232 273.58044Q105.450485 274.89523 106.58848 276.1879L105.56097 277.21542Q104.62184 276.2321 103.62747 274.5306Q102.6331 272.80704 102.04753 270.89566Q101.46196 268.96216 101.36252 267.338L97.396095 271.30444Z" fill-rule="nonzero"/><path fill="#000000" d="M111.87002 309.76443Q110.43371 308.32812 109.84814 307.16803Q109.27361 305.99686 109.3841 304.93622Q109.49458 303.87555 110.37846 302.99167Q111.030334 302.3398 111.78163 302.11884Q112.532936 301.87576 113.350525 302.05255Q114.16812 302.2293 115.052 302.75964Q115.94693 303.27893 117.15122 304.48322Q118.576485 305.90848 119.162056 307.09067Q119.747635 308.25076 119.64819 309.32248Q119.53771 310.38315 118.653824 311.26703Q117.48268 312.43817 115.957985 312.26138Q114.15707 312.05148 111.87002 309.76443ZM112.88649 308.74796Q114.88628 310.74774 116.01322 310.94662Q117.140175 311.12338 117.82519 310.4384Q118.51019 309.7534 118.311325 308.62643Q118.11245 307.49948 116.12371 305.51074Q114.123924 303.51096 113.00802 303.32312Q111.88107 303.12424 111.18501 303.8203Q110.5 304.5053 110.67678 305.4997Q110.89775 306.75922 112.88649 308.74796ZM125.97901 303.65457L124.98464 304.64896L118.64278 298.3071Q118.62068 299.0142 118.37761 299.94226Q118.14559 300.85928 117.85833 301.50012L116.89711 300.53888Q117.328 299.3125 117.394295 298.14136Q117.46059 296.94812 117.20647 296.16367L117.84728 295.52286L125.97901 303.65457ZM126.05635 298.71588L125.050934 297.71045L128.10033 294.66107L129.10574 295.66647L126.05635 298.71588ZM136.39778 291.31335L137.35901 292.27457L132.00047 297.63312Q131.62482 297.27957 131.42595 296.81552Q131.08344 296.0753 131.0061 295.09195Q130.92876 294.10864 131.08344 292.56183Q131.31546 290.1643 131.14973 289.0705Q130.97295 287.96564 130.40947 287.40216Q129.8239 286.8166 128.99527 286.82764Q128.16663 286.83868 127.48161 287.5237Q126.76346 288.24185 126.76346 289.10364Q126.76346 289.96542 127.52581 290.72778L126.39886 291.65585Q125.36029 290.39633 125.44868 289.1147Q125.53707 287.83307 126.68612 286.68402Q127.85726 285.51288 129.18309 285.49078Q130.50891 285.4466 131.45909 286.39676Q131.94522 286.8829 132.22144 287.55685Q132.4866 288.21976 132.54184 289.2031Q132.59709 290.1864 132.43137 292.1641Q132.28773 293.81033 132.30983 294.34067Q132.32088 294.85992 132.42032 295.29083L136.39778 291.31335ZM134.49744 287.137Q133.06113 285.70068 132.47556 284.5406Q131.90103 283.36945 132.01152 282.3088Q132.122 281.24814 133.00589 280.36426Q133.65775 279.71237 134.40904 279.49142Q135.16035 279.24835 135.97794 279.4251Q136.79553 279.6019 137.67941 280.13223Q138.57436 280.65152 139.77864 281.8558Q141.2039 283.28107 141.78947 284.46326Q142.37505 285.62335 142.27562 286.69507Q142.16513 287.75574 141.28125 288.63962Q140.11009 289.81076 138.5854 289.63397Q136.78448 289.42404 134.49744 287.137ZM135.5139 286.12054Q137.51369 288.12033 138.64064 288.3192Q139.7676 288.49597 140.4526 287.81097Q141.13762 287.12595 140.93874 285.999Q140.73987 284.87207 138.75113 282.88333Q136.75134 280.88354 135.63544 280.6957Q134.50848 280.49683 133.81242 281.1929Q133.12741 281.8779 133.3042 282.87228Q133.52516 284.1318 135.5139 286.12054ZM140.8614 280.77304Q139.4251 279.33673 138.83951 278.17664Q138.26498 277.0055 138.37547 275.94482Q138.48596 274.8842 139.36984 274.00027Q140.02171 273.34842 140.77301 273.12744Q141.5243 272.8844 142.3419 273.06116Q143.1595 273.23795 144.04338 273.76828Q144.93831 274.28754 146.14261 275.49185Q147.56787 276.9171 148.15344 278.0993Q148.73901 279.2594 148.63957 280.33112Q148.52908 281.39175 147.6452 282.27563Q146.47406 283.4468 144.94936 283.27002Q143.14845 283.0601 140.8614 280.77304ZM141.87787 279.7566Q143.87766 281.75638 145.00461 281.95523Q146.13156 282.13202 146.81656 281.44702Q147.50157 280.762 147.3027 279.63504Q147.10382 278.5081 145.11508 276.51935Q143.1153 274.51956 141.9994 274.33176Q140.87245 274.13287 140.17639 274.82892Q139.49138 275.51395 139.66815 276.5083Q139.88913 277.76785 141.87787 279.7566ZM148.35231 272.48663Q147.51262 272.8844 146.79446 272.76285Q146.07631 272.64133 145.49074 272.05576Q144.60686 271.17188 144.64 269.94547Q144.67314 268.697 145.73381 267.63632Q146.79446 266.57565 148.054 266.55356Q149.31354 266.50937 150.19742 267.39325Q150.7609 267.95673 150.88243 268.6749Q151.00397 269.39304 150.62831 270.21063Q151.61163 269.71344 152.5397 269.86813Q153.47884 270.01178 154.23013 270.76306Q155.26869 271.80164 155.2466 273.26004Q155.2245 274.69635 154.02022 275.90063Q152.82697 277.09387 151.37961 277.127Q149.93225 277.13806 148.8716 276.07742Q148.0761 275.28192 147.94351 274.35385Q147.81093 273.42575 148.35231 272.48663ZM146.47406 271.00613Q147.04858 271.58066 147.77779 271.58066Q148.51804 271.5696 149.11465 270.973Q149.68918 270.39847 149.68918 269.66925Q149.68918 268.94006 149.1699 268.42078Q148.61748 267.86835 147.87723 267.8794Q147.12592 267.8794 146.56245 268.44287Q145.98793 269.0174 145.97687 269.75766Q145.96582 270.4979 146.47406 271.00613ZM149.88806 275.06094Q150.31895 275.49185 150.91557 275.6907Q151.52324 275.87854 152.14197 275.70175Q152.74963 275.51395 153.20262 275.06094Q153.92078 274.3428 153.93182 273.42575Q153.93182 272.49768 153.22472 271.7906Q152.50656 271.07242 151.5564 271.0945Q150.60622 271.0945 149.88806 271.81268Q149.192 272.50873 149.192 273.4368Q149.192 274.3649 149.88806 275.06094Z" fill-rule="nonzero"/><path fill="#000000" d="M158.8556 309.76443Q157.4193 308.32812 156.83372 307.16803Q156.2592 305.9969 156.36967 304.93622Q156.48016 303.87555 157.36404 302.99167Q158.01591 302.3398 158.76721 302.11884Q159.51851 301.87576 160.3361 302.05255Q161.1537 302.2293 162.03758 302.75964Q162.93251 303.27893 164.13681 304.48322Q165.56207 305.90848 166.14764 307.09067Q166.73322 308.25076 166.63377 309.32248Q166.52328 310.38315 165.6394 311.26703Q164.46826 312.43817 162.94356 312.26138Q161.14265 312.05148 158.8556 309.76443ZM159.87207 308.74796Q161.87186 310.74774 162.99881 310.94662Q164.12576 311.12338 164.81076 310.4384Q165.49577 309.7534 165.2969 308.62643Q165.09802 307.49948 163.1093 305.51074Q161.10951 303.51096 159.9936 303.32312Q158.86665 303.12424 158.1706 303.8203Q157.48558 304.5053 157.66235 305.4997Q157.88333 306.75922 159.87207 308.74796ZM172.9646 303.65457L171.97023 304.64896L165.62836 298.3071Q165.60626 299.0142 165.36319 299.94226Q165.13118 300.8593 164.84392 301.50012L163.88269 300.53888Q164.31358 299.3125 164.37987 298.14136Q164.44617 296.94812 164.19205 296.16367L164.83287 295.52286L172.9646 303.65457ZM173.04193 298.71588L172.03651 297.71048L175.0859 294.66107L176.09132 295.66647L173.04193 298.71588ZM183.38336 291.31335L184.34459 292.2746L178.98605 297.63312Q178.6104 297.27957 178.41153 296.81552Q178.06902 296.0753 177.99168 295.09195Q177.91434 294.10864 178.06902 292.56186Q178.30104 290.1643 178.13531 289.0705Q177.95853 287.96564 177.39507 287.40216Q176.80948 286.8166 175.98085 286.82764Q175.1522 286.83868 174.4672 287.5237Q173.74904 288.24185 173.74904 289.10364Q173.74904 289.96542 174.51138 290.72778L173.38443 291.65585Q172.34587 290.39633 172.43427 289.1147Q172.52264 287.83307 173.67169 286.68402Q174.84285 285.51288 176.16867 285.49078Q177.49449 285.4466 178.44467 286.39676Q178.9308 286.8829 179.20702 287.55685Q179.47218 288.21976 179.52742 289.2031Q179.58267 290.1864 179.41695 292.1641Q179.27332 293.81033 179.29541 294.34067Q179.30646 294.85995 179.4059 295.29083L183.38336 291.31335ZM181.48302 287.13702Q180.0467 285.7007 179.46114 284.5406Q178.88661 283.36945 178.9971 282.3088Q179.10759 281.24814 179.99147 280.36426Q180.64333 279.7124 181.39464 279.49142Q182.14594 279.24835 182.96353 279.42514Q183.78111 279.6019 184.665 280.13223Q185.55994 280.65152 186.76422 281.8558Q188.18948 283.28107 188.77505 284.46326Q189.36063 285.62335 189.2612 286.69507Q189.15071 287.75574 188.26683 288.63962Q187.09567 289.81076 185.57098 289.63397Q183.77007 289.42407 181.48302 287.13702ZM182.49948 286.12054Q184.49927 288.12033 185.62622 288.3192Q186.75317 288.49597 187.43819 287.81097Q188.1232 287.12595 187.92432 285.99902Q187.72545 284.87207 185.73671 282.88333Q183.73692 280.88354 182.62102 280.6957Q181.49406 280.49683 180.798 281.1929Q180.113 281.8779 180.28978 282.87228Q180.51074 284.1318 182.49948 286.12054ZM187.84698 280.77304Q186.41068 279.33673 185.8251 278.17664Q185.25058 277.0055 185.36105 275.94482Q185.47154 274.8842 186.35542 274.0003Q187.0073 273.34842 187.75859 273.12744Q188.50989 272.8844 189.32748 273.06116Q190.14508 273.23795 191.02896 273.76828Q191.92389 274.28757 193.12819 275.49185Q194.55345 276.9171 195.13902 278.0993Q195.7246 279.2594 195.62515 280.33112Q195.51466 281.39175 194.63078 282.27567Q193.45964 283.4468 191.93494 283.27002Q190.13403 283.0601 187.84698 280.77304ZM188.86345 279.7566Q190.86324 281.75638 191.99019 281.95523Q193.11714 282.13202 193.80214 281.44702Q194.48715 280.762 194.28828 279.63504Q194.0894 278.5081 192.10066 276.51935Q190.10088 274.51956 188.98499 274.33176Q187.85803 274.13287 187.16197 274.82892Q186.47696 275.51395 186.65373 276.5083Q186.87471 277.76785 188.86345 279.7566ZM196.47589 276.38678L197.34872 275.33716Q198.14423 275.8896 198.79608 275.85645Q199.4369 275.81226 199.96724 275.28192Q200.43127 274.81787 200.56386 274.26544Q200.69644 273.71304 200.5749 273.14957Q200.44232 272.57504 199.98933 271.83478Q199.5474 271.08347 198.92867 270.46475Q198.86238 270.39847 198.7298 270.26587Q198.90657 271.03928 198.68561 271.85687Q198.45358 272.66342 197.85696 273.26004Q196.85155 274.26544 195.42628 274.2323Q194.00102 274.19916 192.80777 273.00592Q191.58139 271.77954 191.54825 270.3101Q191.52614 268.82956 192.61995 267.73578Q193.41545 266.94028 194.4982 266.7193Q195.56992 266.48727 196.69687 266.92923Q197.82382 267.37115 199.31537 268.86273Q200.87321 270.42056 201.44774 271.68008Q202.03331 272.9286 201.84549 274.08868Q201.6687 275.23773 200.77377 276.13266Q199.82361 277.08282 198.68561 277.1602Q197.55865 277.22647 196.47589 276.38678ZM196.98413 268.74118Q196.12234 267.8794 195.16112 267.84625Q194.19989 267.79102 193.55908 268.43182Q192.89616 269.09473 192.94035 270.1333Q192.9956 271.16083 193.85739 272.0226Q194.63078 272.796 195.58096 272.81808Q196.54219 272.82913 197.22719 272.14413Q197.9122 271.45914 197.86801 270.53104Q197.83487 269.59192 196.98413 268.74118Z" fill-rule="nonzero"/><path fill="#000000" d="M205.71281 309.76443Q204.2765 308.32812 203.69093 307.16803Q203.11641 305.9969 203.22688 304.93622Q203.33737 303.87555 204.22125 302.99167Q204.87312 302.3398 205.62442 302.11884Q206.37572 301.87576 207.19331 302.05255Q208.01091 302.2293 208.89479 302.75964Q209.78972 303.27893 210.99402 304.48322Q212.41928 305.90848 213.00485 307.09067Q213.59042 308.25076 213.49098 309.32248Q213.3805 310.38315 212.49661 311.26703Q211.32547 312.43817 209.80077 312.26138Q207.99986 312.05148 205.71281 309.76443ZM206.72928 308.74796Q208.72906 310.74774 209.85602 310.94662Q210.98297 311.12338 211.66797 310.4384Q212.35298 309.7534 212.15411 308.62643Q211.95523 307.49948 209.9665 305.51074Q207.96672 303.51096 206.85081 303.32312Q205.72386 303.12424 205.0278 303.8203Q204.34279 304.5053 204.51956 305.4997Q204.74054 306.75922 206.72928 308.74796ZM219.82181 303.65457L218.82744 304.64896L212.48557 298.3071Q212.46347 299.0142 212.2204 299.94226Q211.98839 300.8593 211.70113 301.50012L210.7399 300.53888Q211.17079 299.3125 211.23708 298.14136Q211.30338 296.94812 211.04926 296.16367L211.69008 295.52286L219.82181 303.65457ZM219.89914 298.71588L218.89372 297.71048L221.94312 294.66107L222.94853 295.66647L219.89914 298.71588ZM230.24057 291.31335L231.2018 292.2746L225.84326 297.63312Q225.4676 297.27957 225.26874 296.81552Q224.92622 296.0753 224.84889 295.09195Q224.77155 294.10864 224.92622 292.56186Q225.15825 290.1643 224.99252 289.0705Q224.81573 287.96564 224.25227 287.40216Q223.66669 286.8166 222.83806 286.82764Q222.00941 286.83868 221.3244 287.5237Q220.60625 288.24185 220.60625 289.10364Q220.60625 289.96542 221.36859 290.72778L220.24164 291.65585Q219.20308 290.39633 219.29147 289.1147Q219.37985 287.83307 220.5289 286.68402Q221.70006 285.51288 223.02588 285.49078Q224.3517 285.4466 225.30188 286.39676Q225.78801 286.8829 226.06422 287.55685Q226.32939 288.21976 226.38463 289.2031Q226.43988 290.1864 226.27415 292.1641Q226.13052 293.81033 226.15262 294.34067Q226.16367 294.85995 226.2631 295.29083L230.24057 291.31335ZM228.34023 287.13702Q226.90392 285.70068 226.31834 284.5406Q225.74382 283.36945 225.85431 282.3088Q225.9648 281.24814 226.84868 280.36426Q227.50053 279.7124 228.25185 279.49142Q229.00314 279.24835 229.82074 279.42514Q230.63832 279.6019 231.5222 280.13223Q232.41714 280.65152 233.62143 281.8558Q235.04669 283.28107 235.63226 284.46326Q236.21783 285.62335 236.11841 286.69507Q236.00792 287.75574 235.12404 288.63962Q233.95288 289.81076 232.42819 289.63397Q230.62727 289.42407 228.34023 287.13702ZM229.35669 286.12054Q231.35648 288.12033 232.48343 288.3192Q233.61038 288.49597 234.2954 287.81097Q234.98041 287.12595 234.78152 285.99902Q234.58266 284.87207 232.59392 282.88333Q230.59413 280.88354 229.47823 280.6957Q228.35127 280.49683 227.65521 281.1929Q226.97021 281.8779 227.14699 282.87228Q227.36795 284.1318 229.35669 286.12054ZM242.44922 281.02716L241.45485 282.02155L235.11299 275.67966Q235.09088 276.38678 234.84782 277.31485Q234.6158 278.23187 234.32854 278.8727L233.36731 277.91147Q233.7982 276.6851 233.8645 275.51395Q233.93079 274.3207 233.67668 273.53625L234.31749 272.89545L242.44922 281.02716ZM241.06815 274.4091Q239.63184 272.97278 239.04626 271.81268Q238.47174 270.64154 238.58223 269.58087Q238.69272 268.5202 239.5766 267.63632Q240.22845 266.98447 240.97977 266.7635Q241.73106 266.52042 242.54866 266.6972Q243.36624 266.874 244.25014 267.4043Q245.14507 267.92358 246.34935 269.12787Q247.77461 270.55313 248.36018 271.73535Q248.94576 272.89545 248.84633 273.96713Q248.73584 275.0278 247.85196 275.91168Q246.68082 277.08282 245.15611 276.90607Q243.3552 276.69614 241.06815 274.4091ZM242.08461 273.3926Q244.0844 275.3924 245.21135 275.59128Q246.3383 275.76807 247.02332 275.08304Q247.70833 274.39804 247.50945 273.2711Q247.31058 272.14413 245.32184 270.1554Q243.32205 268.1556 242.20615 267.96777Q241.0792 267.76892 240.38313 268.46497Q239.69814 269.15 239.87491 270.14435Q240.09587 271.40387 242.08461 273.3926Z" fill-rule="nonzero"/></svg>