<svg version="1.1" viewBox="0.0 0.0 228.0 371.0" fill="none" stroke="none" stroke-linecap="square" stroke-miterlimit="10" width="228" height="371" xmlns:xlink="http://www.w3.org/1999/xlink" xmlns="http://www.w3.org/2000/svg"><path fill="#ffffff" d="M0 0L228.0 0L228.0 371.0L0 371.0L0 0Z" fill-rule="nonzero"/><path stroke="#cccccc" stroke-width="1.0" stroke-linecap="butt" d="M50.5 20.5L50.5 255.5" fill-rule="nonzero"/><path stroke="#cccccc" stroke-width="1.0" stroke-linecap="butt" d="M105.5 20.5L105.5 255.5" fill-rule="nonzero"/><path stroke="#cccccc" stroke-width="1.0" stroke-linecap="butt" d="M161.5 20.5L161.5 255.5" fill-rule="nonzero"/><path stroke="#cccccc" stroke-width="1.0" stroke-linecap="butt" d="M216.5 20.5L216.5 255.5" fill-rule="nonzero"/><path stroke="#333333" stroke-width="1.0" stroke-linecap="butt" d="M50.5 255.5L216.5 255.5" fill-rule="nonzero"/><path stroke="#cccccc" stroke-width="1.0" stroke-linecap="butt" d="M50.5 208.5L216.5 208.5" fill-rule="nonzero"/><path stroke="#cccccc" stroke-width="1.0" stroke-linecap="butt" d="M50.5 161.5L216.5 161.5" fill-rule="nonzero"/><path stroke="#cccccc" stroke-width="1.0" stroke-linecap="butt" d="M50.5 114.5L216.5 114.5" fill-rule="nonzero"/><path stroke="#cccccc" stroke-width="1.0" stroke-linecap="butt" d="M50.5 67.5L216.5 67.5" fill-rule="nonzero"/><path stroke="#cccccc" stroke-width="1.0" stroke-linecap="butt" d="M50.5 20.5L216.5 20.5" fill-rule="nonzero"/><clipPath id="id_0"><path d="M50.4 20.9L216.6 20.9L216.6 255.1632L50.4 255.1632L50.4 20.9Z" clip-rule="nonzero"/></clipPath><path stroke="#000000" stroke-width="2.0" stroke-linecap="butt" clip-path="url(#id_0)" d="M50.4 126.134796L55.100914 126.09262L59.346897 126.05178L64.04781 126.01223L68.597084 125.97394L73.29799 125.93685L77.84726 125.90094L82.54817 125.86616L87.249084 125.83247L91.798355 125.799866L96.49927 125.76827L101.04854 125.73769L105.74945 125.70807L110.45036 125.67938L114.84799 125.651596L119.548904 125.624695L124.098175 125.598656L128.79909 125.573425L133.34836 125.548996L138.04927 125.52534L142.75018 125.50243L147.29945 125.48025L152.00037 125.45876L156.54964 125.437965L161.25055 125.41782L165.95146 125.398315L170.19745 125.379425L174.89836 125.361145L179.44763 125.343445L184.14854 125.3263L188.69781 125.30969L193.39873 125.2936L198.09964 125.27801L202.64891 125.26291L207.34982 125.2483L211.8991 125.23415L216.6 125.22045" fill-rule="nonzero"/><path stroke="#000000" stroke-width="2.0" stroke-linecap="butt" stroke-dasharray="8.0,6.0,2.0,6.0" clip-path="url(#id_0)" d="M50.4 126.134796L55.100914 126.09262L59.346897 126.05178L64.04781 126.01223L68.597084 125.97394L73.29799 125.93685L77.84726 125.90094L82.54817 125.86616L87.249084 125.83247L91.798355 125.799866L96.49927 125.76827L101.04854 125.73769L105.74945 132.50522L110.45036 135.54424L114.84799 137.53891L119.548904 139.0914L124.098175 140.45197L128.79909 141.72888L133.34836 142.96942L138.04927 144.19432L142.75018 145.41267L147.29945 146.62845L152.00037 147.8434L156.54964 149.05826L161.25055 150.27338L165.95146 151.48886L170.19745 152.70479L174.89836 153.92114L179.44763 155.13794L184.14854 156.3552L188.69781 157.57285L193.39873 158.79092L198.09964 160.00938L202.64891 161.22823L207.34982 162.44745L211.8991 163.66702L216.6 164.88695" fill-rule="nonzero"/><path stroke="#000000" stroke-width="2.0" stroke-linecap="butt" stroke-dasharray="8.0,6.0" clip-path="url(#id_0)" d="M50.4 126.134796L55.100914 126.09262L59.346897 126.05178L64.04781 126.01223L68.597084 125.97394L73.29799 125.93685L77.84726 125.90094L82.54817 125.86616L87.249084 125.83247L91.798355 125.799866L96.49927 125.76827L101.04854 125.73769L105.74945 112.113785L110.45036 105.949715L114.84799 101.877014L119.548904 98.691315L124.098175 95.89203L128.79909 93.26254L133.34836 90.70819L138.04927 88.18742L142.75018 85.68201L147.29945 83.18391L152.00037 80.68958L156.54964 78.19745L161.25055 75.706795L165.95146 73.2173L170.19745 70.72878L174.89836 68.24117L179.44763 65.75441L184.14854 63.268467L188.69781 60.783306L193.39873 58.29891L198.09964 55.815247L202.64891 53.3323L207.34982 50.850033L211.8991 48.368427L216.6 45.887474" fill-rule="nonzero"/><path fill="#000000" fill-opacity="0.0" clip-path="url(#id_0)" d="M53.4 126.134796C53.4 127.79165 52.056854 129.1348 50.4 129.1348C48.743145 129.1348 47.4 127.79165 47.4 126.134796C47.4 124.477936 48.743145 123.134796 50.4 123.134796C52.056854 123.134796 53.4 124.477936 53.4 126.134796Z" fill-rule="nonzero"/><path fill="#000000" fill-opacity="0.0" clip-path="url(#id_0)" d="M58.100914 126.09262C58.100914 127.74947 56.757767 129.09262 55.100914 129.09262C53.444057 129.09262 52.100914 127.74947 52.100914 126.09262C52.100914 124.43576 53.444057 123.09262 55.100914 123.09262C56.757767 123.09262 58.100914 124.43576 58.100914 126.09262Z" fill-rule="nonzero"/><path fill="#000000" fill-opacity="0.0" clip-path="url(#id_0)" d="M62.346897 126.05178C62.346897 127.70863 61.003754 129.05177 59.346897 129.05177C57.690044 129.05177 56.346897 127.70863 56.346897 126.05178C56.346897 124.39493 57.690044 123.05178 59.346897 123.05178C61.003754 123.05178 62.346897 124.39493 62.346897 126.05178Z" fill-rule="nonzero"/><path fill="#000000" fill-opacity="0.0" clip-path="url(#id_0)" d="M67.04781 126.01223C67.04781 127.66908 65.704666 129.01224 64.04781 129.01224C62.390957 129.01224 61.04781 127.66908 61.04781 126.01223C61.04781 124.35538 62.390957 123.01223 64.04781 123.01223C65.704666 123.01223 67.04781 124.35538 67.04781 126.01223Z" fill-rule="nonzero"/><path fill="#000000" fill-opacity="0.0" clip-path="url(#id_0)" d="M71.597084 125.97394C71.597084 127.63079 70.25394 128.97394 68.597084 128.97394C66.94022 128.97394 65.597084 127.63079 65.597084 125.97394C65.597084 124.317085 66.94022 122.97394 68.597084 122.97394C70.25394 122.97394 71.597084 124.317085 71.597084 125.97394Z" fill-rule="nonzero"/><path fill="#000000" fill-opacity="0.0" clip-path="url(#id_0)" d="M76.29799 125.93685C76.29799 127.593704 74.95485 128.93686 73.29799 128.93686C71.641136 128.93686 70.29799 127.593704 70.29799 125.93685C70.29799 124.28 71.641136 122.93685 73.29799 122.93685C74.95485 122.93685 76.29799 124.28 76.29799 125.93685Z" fill-rule="nonzero"/><path fill="#000000" fill-opacity="0.0" clip-path="url(#id_0)" d="M80.84726 125.90094C80.84726 127.55779 79.50412 128.90094 77.84726 128.90094C76.19041 128.90094 74.84726 127.55779 74.84726 125.90094C74.84726 124.24408 76.19041 122.90094 77.84726 122.90094C79.50412 122.90094 80.84726 124.24408 80.84726 125.90094Z" fill-rule="nonzero"/><path fill="#000000" fill-opacity="0.0" clip-path="url(#id_0)" d="M85.54817 125.86616C85.54817 127.52301 84.20503 128.86617 82.54817 128.86617C80.89132 128.86617 79.54817 127.52301 79.54817 125.86616C79.54817 124.209305 80.89132 122.86616 82.54817 122.86616C84.20503 122.86616 85.54817 124.209305 85.54817 125.86616Z" fill-rule="nonzero"/><path fill="#000000" fill-opacity="0.0" clip-path="url(#id_0)" d="M90.249084 125.83247C90.249084 127.489334 88.905945 128.83247 87.249084 128.83247C85.59223 128.83247 84.249084 127.489334 84.249084 125.83247C84.249084 124.17562 85.59223 122.83247 87.249084 122.83247C88.905945 122.83247 90.249084 124.17562 90.249084 125.83247Z" fill-rule="nonzero"/><path fill="#000000" fill-opacity="0.0" clip-path="url(#id_0)" d="M94.798355 125.799866C94.798355 127.45672 93.455215 128.79987 91.798355 128.79987C90.1415 128.79987 88.798355 127.45672 88.798355 125.799866C88.798355 124.143005 90.1415 122.799866 91.798355 122.799866C93.455215 122.799866 94.798355 124.143005 94.798355 125.799866Z" fill-rule="nonzero"/><path fill="#000000" fill-opacity="0.0" clip-path="url(#id_0)" d="M99.49927 125.76827C99.49927 127.425125 98.15613 128.76828 96.49927 128.76828C94.842415 128.76828 93.49927 127.425125 93.49927 125.76827C93.49927 124.11142 94.842415 122.76827 96.49927 122.76827C98.15613 122.76827 99.49927 124.11142 99.49927 125.76827Z" fill-rule="nonzero"/><path fill="#000000" fill-opacity="0.0" clip-path="url(#id_0)" d="M104.04854 125.73769C104.04854 127.39455 102.70539 128.73769 101.04854 128.73769C99.391685 128.73769 98.04854 127.39455 98.04854 125.73769C98.04854 124.08083 99.391685 122.73769 101.04854 122.73769C102.70539 122.73769 104.04854 124.08083 104.04854 125.73769Z" fill-rule="nonzero"/><path fill="#000000" fill-opacity="0.0" clip-path="url(#id_0)" d="M108.74945 125.70807C108.74945 127.36492 107.4063 128.70807 105.74945 128.70807C104.0926 128.70807 102.74945 127.36492 102.74945 125.70807C102.74945 124.051216 104.0926 122.70807 105.74945 122.70807C107.4063 122.70807 108.74945 124.051216 108.74945 125.70807Z" fill-rule="nonzero"/><path fill="#000000" fill-opacity="0.0" clip-path="url(#id_0)" d="M113.45036 125.67938C113.45036 127.336235 112.107216 128.67938 110.45036 128.67938C108.79351 128.67938 107.45036 127.336235 107.45036 125.67938C107.45036 124.02253 108.79351 122.67938 110.45036 122.67938C112.107216 122.67938 113.45036 124.02253 113.45036 125.67938Z" fill-rule="nonzero"/><path fill="#000000" fill-opacity="0.0" clip-path="url(#id_0)" d="M117.84799 125.651596C117.84799 127.30846 116.504845 128.6516 114.84799 128.6516C113.19114 128.6516 111.84799 127.30846 111.84799 125.651596C111.84799 123.99474 113.19114 122.651596 114.84799 122.651596C116.504845 122.651596 117.84799 123.99474 117.84799 125.651596Z" fill-rule="nonzero"/><path fill="#000000" fill-opacity="0.0" clip-path="url(#id_0)" d="M122.548904 125.624695C122.548904 127.281555 121.20576 128.6247 119.548904 128.6247C117.89205 128.6247 116.548904 127.281555 116.548904 125.624695C116.548904 123.96784 117.89205 122.624695 119.548904 122.624695C121.20576 122.624695 122.548904 123.96784 122.548904 125.624695Z" fill-rule="nonzero"/><path fill="#000000" fill-opacity="0.0" clip-path="url(#id_0)" d="M127.098175 125.598656C127.098175 127.25551 125.75503 128.59865 124.098175 128.59865C122.44132 128.59865 121.098175 127.25551 121.098175 125.598656C121.098175 123.9418 122.44132 122.598656 124.098175 122.598656C125.75503 122.598656 127.098175 123.9418 127.098175 125.598656Z" fill-rule="nonzero"/><path fill="#000000" fill-opacity="0.0" clip-path="url(#id_0)" d="M131.79909 125.573425C131.79909 127.23028 130.45595 128.57343 128.79909 128.57343C127.142235 128.57343 125.79909 127.23028 125.79909 125.573425C125.79909 123.916565 127.142235 122.573425 128.79909 122.573425C130.45595 122.573425 131.79909 123.916565 131.79909 125.573425Z" fill-rule="nonzero"/><path fill="#000000" fill-opacity="0.0" clip-path="url(#id_0)" d="M136.34836 125.548996C136.34836 127.20586 135.00522 128.549 133.34836 128.549C131.6915 128.549 130.34836 127.20586 130.34836 125.548996C130.34836 123.89214 131.6915 122.548996 133.34836 122.548996C135.00522 122.548996 136.34836 123.89214 136.34836 125.548996Z" fill-rule="nonzero"/><path fill="#000000" fill-opacity="0.0" clip-path="url(#id_0)" d="M141.04927 125.52534C141.04927 127.1822 139.70613 128.52534 138.04927 128.52534C136.39241 128.52534 135.04927 127.1822 135.04927 125.52534C135.04927 123.868484 136.39241 122.52534 138.04927 122.52534C139.70613 122.52534 141.04927 123.868484 141.04927 125.52534Z" fill-rule="nonzero"/><path fill="#000000" fill-opacity="0.0" clip-path="url(#id_0)" d="M145.75018 125.50243C145.75018 127.15929 144.40704 128.50243 142.75018 128.50243C141.09332 128.50243 139.75018 127.15929 139.75018 125.50243C139.75018 123.84557 141.09332 122.50243 142.75018 122.50243C144.40704 122.50243 145.75018 123.84557 145.75018 125.50243Z" fill-rule="nonzero"/><path fill="#000000" fill-opacity="0.0" clip-path="url(#id_0)" d="M150.29945 125.48025C150.29945 127.1371 148.95631 128.48026 147.29945 128.48026C145.6426 128.48026 144.29945 127.1371 144.29945 125.48025C144.29945 123.823395 145.6426 122.48025 147.29945 122.48025C148.95631 122.48025 150.29945 123.823395 150.29945 125.48025Z" fill-rule="nonzero"/><path fill="#000000" fill-opacity="0.0" clip-path="url(#id_0)" d="M155.00037 125.45876C155.00037 127.11562 153.65723 128.45877 152.00037 128.45877C150.3435 128.45877 149.00037 127.11562 149.00037 125.45876C149.00037 123.80191 150.3435 122.45876 152.00037 122.45876C153.65723 122.45876 155.00037 123.80191 155.00037 125.45876Z" fill-rule="nonzero"/><path fill="#000000" fill-opacity="0.0" clip-path="url(#id_0)" d="M159.54964 125.437965C159.54964 127.09482 158.20648 128.43797 156.54964 128.43797C154.89278 128.43797 153.54964 127.09482 153.54964 125.437965C153.54964 123.78111 154.89278 122.437965 156.54964 122.437965C158.20648 122.437965 159.54964 123.78111 159.54964 125.437965Z" fill-rule="nonzero"/><path fill="#000000" fill-opacity="0.0" clip-path="url(#id_0)" d="M164.25055 125.41782C164.25055 127.07468 162.9074 128.41782 161.25055 128.41782C159.59369 128.41782 158.25055 127.07468 158.25055 125.41782C158.25055 123.76097 159.59369 122.41782 161.25055 122.41782C162.9074 122.41782 164.25055 123.76097 164.25055 125.41782Z" fill-rule="nonzero"/><path fill="#000000" fill-opacity="0.0" clip-path="url(#id_0)" d="M168.95146 125.398315C168.95146 127.05517 167.6083 128.39832 165.95146 128.39832C164.2946 128.39832 162.95146 127.05517 162.95146 125.398315C162.95146 123.74146 164.2946 122.398315 165.95146 122.398315C167.6083 122.398315 168.95146 123.74146 168.95146 125.398315Z" fill-rule="nonzero"/><path fill="#000000" fill-opacity="0.0" clip-path="url(#id_0)" d="M173.19745 125.379425C173.19745 127.036285 171.8543 128.37943 170.19745 128.37943C168.54059 128.37943 167.19745 127.036285 167.19745 125.379425C167.19745 123.72257 168.54059 122.379425 170.19745 122.379425C171.8543 122.379425 173.19745 123.72257 173.19745 125.379425Z" fill-rule="nonzero"/><path fill="#000000" fill-opacity="0.0" clip-path="url(#id_0)" d="M177.89836 125.361145C177.89836 127.018005 176.5552 128.36115 174.89836 128.36115C173.2415 128.36115 171.89836 127.018005 171.89836 125.361145C171.89836 123.70429 173.2415 122.361145 174.89836 122.361145C176.5552 122.361145 177.89836 123.70429 177.89836 125.361145Z" fill-rule="nonzero"/><path fill="#000000" fill-opacity="0.0" clip-path="url(#id_0)" d="M182.44763 125.343445C182.44763 127.0003 181.10448 128.34344 179.44763 128.34344C177.79077 128.34344 176.44763 127.0003 176.44763 125.343445C176.44763 123.68659 177.79077 122.343445 179.44763 122.343445C181.10448 122.343445 182.44763 123.68659 182.44763 125.343445Z" fill-rule="nonzero"/><path fill="#000000" fill-opacity="0.0" clip-path="url(#id_0)" d="M187.14854 125.3263C187.14854 126.983154 185.80539 128.3263 184.14854 128.3263C182.49168 128.3263 181.14854 126.983154 181.14854 125.3263C181.14854 123.66945 182.49168 122.3263 184.14854 122.3263C185.80539 122.3263 187.14854 123.66945 187.14854 125.3263Z" fill-rule="nonzero"/><path fill="#000000" fill-opacity="0.0" clip-path="url(#id_0)" d="M191.69781 125.30969C191.69781 126.966545 190.35466 128.3097 188.69781 128.3097C187.04095 128.3097 185.69781 126.966545 185.69781 125.30969C185.69781 123.65284 187.04095 122.30969 188.69781 122.30969C190.35466 122.30969 191.69781 123.65284 191.69781 125.30969Z" fill-rule="nonzero"/><path fill="#000000" fill-opacity="0.0" clip-path="url(#id_0)" d="M196.39873 125.2936C196.39873 126.950455 195.05557 128.2936 193.39873 128.2936C191.74187 128.2936 190.39873 126.950455 190.39873 125.2936C190.39873 123.63674 191.74187 122.2936 193.39873 122.2936C195.05557 122.2936 196.39873 123.63674 196.39873 125.2936Z" fill-rule="nonzero"/><path fill="#000000" fill-opacity="0.0" clip-path="url(#id_0)" d="M201.09964 125.27801C201.09964 126.93486 199.75648 128.27802 198.09964 128.27802C196.44278 128.27802 195.09964 126.93486 195.09964 125.27801C195.09964 123.621155 196.44278 122.27801 198.09964 122.27801C199.75648 122.27801 201.09964 123.621155 201.09964 125.27801Z" fill-rule="nonzero"/><path fill="#000000" fill-opacity="0.0" clip-path="url(#id_0)" d="M205.64891 125.26291C205.64891 126.91976 204.30576 128.26291 202.64891 128.26291C200.99205 128.26291 199.64891 126.91976 199.64891 125.26291C199.64891 123.60606 200.99205 122.26291 202.64891 122.26291C204.30576 122.26291 205.64891 123.60606 205.64891 125.26291Z" fill-rule="nonzero"/><path fill="#000000" fill-opacity="0.0" clip-path="url(#id_0)" d="M210.34982 125.2483C210.34982 126.90515 209.00667 128.2483 207.34982 128.2483C205.69296 128.2483 204.34982 126.90515 204.34982 125.2483C204.34982 123.591446 205.69296 122.2483 207.34982 122.2483C209.00667 122.2483 210.34982 123.591446 210.34982 125.2483Z" fill-rule="nonzero"/><path fill="#000000" fill-opacity="0.0" clip-path="url(#id_0)" d="M214.8991 125.23415C214.8991 126.89101 213.55594 128.23415 211.8991 128.23415C210.24223 128.23415 208.8991 126.89101 208.8991 125.23415C208.8991 123.5773 210.24223 122.23415 211.8991 122.23415C213.55594 122.23415 214.8991 123.5773 214.8991 125.23415Z" fill-rule="nonzero"/><path fill="#000000" fill-opacity="0.0" clip-path="url(#id_0)" d="M219.6 125.22045C219.6 126.877304 218.25685 128.22046 216.6 128.22046C214.94315 128.22046 213.6 126.877304 213.6 125.22045C213.6 123.5636 214.94315 122.22045 216.6 122.22045C218.25685 122.22045 219.6 123.5636 219.6 125.22045Z" fill-rule="nonzero"/><path fill="#000000" fill-opacity="0.0" clip-path="url(#id_0)" d="M53.4 126.134796C53.4 127.79165 52.056854 129.1348 50.4 129.1348C48.743145 129.1348 47.4 127.79165 47.4 126.134796C47.4 124.477936 48.743145 123.134796 50.4 123.134796C52.056854 123.134796 53.4 124.477936 53.4 126.134796Z" fill-rule="nonzero"/><path fill="#000000" fill-opacity="0.0" clip-path="url(#id_0)" d="M58.100914 126.09262C58.100914 127.74947 56.757767 129.09262 55.100914 129.09262C53.444057 129.09262 52.100914 127.74947 52.100914 126.09262C52.100914 124.43576 53.444057 123.09262 55.100914 123.09262C56.757767 123.09262 58.100914 124.43576 58.100914 126.09262Z" fill-rule="nonzero"/><path fill="#000000" fill-opacity="0.0" clip-path="url(#id_0)" d="M62.346897 126.05178C62.346897 127.70863 61.003754 129.05177 59.346897 129.05177C57.690044 129.05177 56.346897 127.70863 56.346897 126.05178C56.346897 124.39493 57.690044 123.05178 59.346897 123.05178C61.003754 123.05178 62.346897 124.39493 62.346897 126.05178Z" fill-rule="nonzero"/><path fill="#000000" fill-opacity="0.0" clip-path="url(#id_0)" d="M67.04781 126.01223C67.04781 127.66908 65.704666 129.01224 64.04781 129.01224C62.390957 129.01224 61.04781 127.66908 61.04781 126.01223C61.04781 124.35538 62.390957 123.01223 64.04781 123.01223C65.704666 123.01223 67.04781 124.35538 67.04781 126.01223Z" fill-rule="nonzero"/><path fill="#000000" fill-opacity="0.0" clip-path="url(#id_0)" d="M71.597084 125.97394C71.597084 127.63079 70.25394 128.97394 68.597084 128.97394C66.94022 128.97394 65.597084 127.63079 65.597084 125.97394C65.597084 124.317085 66.94022 122.97394 68.597084 122.97394C70.25394 122.97394 71.597084 124.317085 71.597084 125.97394Z" fill-rule="nonzero"/><path fill="#000000" fill-opacity="0.0" clip-path="url(#id_0)" d="M76.29799 125.93685C76.29799 127.593704 74.95485 128.93686 73.29799 128.93686C71.641136 128.93686 70.29799 127.593704 70.29799 125.93685C70.29799 124.28 71.641136 122.93685 73.29799 122.93685C74.95485 122.93685 76.29799 124.28 76.29799 125.93685Z" fill-rule="nonzero"/><path fill="#000000" fill-opacity="0.0" clip-path="url(#id_0)" d="M80.84726 125.90094C80.84726 127.55779 79.50412 128.90094 77.84726 128.90094C76.19041 128.90094 74.84726 127.55779 74.84726 125.90094C74.84726 124.24408 76.19041 122.90094 77.84726 122.90094C79.50412 122.90094 80.84726 124.24408 80.84726 125.90094Z" fill-rule="nonzero"/><path fill="#000000" fill-opacity="0.0" clip-path="url(#id_0)" d="M85.54817 125.86616C85.54817 127.52301 84.20503 128.86617 82.54817 128.86617C80.89132 128.86617 79.54817 127.52301 79.54817 125.86616C79.54817 124.209305 80.89132 122.86616 82.54817 122.86616C84.20503 122.86616 85.54817 124.209305 85.54817 125.86616Z" fill-rule="nonzero"/><path fill="#000000" fill-opacity="0.0" clip-path="url(#id_0)" d="M90.249084 125.83247C90.249084 127.489334 88.905945 128.83247 87.249084 128.83247C85.59223 128.83247 84.249084 127.489334 84.249084 125.83247C84.249084 124.17562 85.59223 122.83247 87.249084 122.83247C88.905945 122.83247 90.249084 124.17562 90.249084 125.83247Z" fill-rule="nonzero"/><path fill="#000000" fill-opacity="0.0" clip-path="url(#id_0)" d="M94.798355 125.799866C94.798355 127.45672 93.455215 128.79987 91.798355 128.79987C90.1415 128.79987 88.798355 127.45672 88.798355 125.799866C88.798355 124.143005 90.1415 122.799866 91.798355 122.799866C93.455215 122.799866 94.798355 124.143005 94.798355 125.799866Z" fill-rule="nonzero"/><path fill="#000000" fill-opacity="0.0" clip-path="url(#id_0)" d="M99.49927 125.76827C99.49927 127.425125 98.15613 128.76828 96.49927 128.76828C94.842415 128.76828 93.49927 127.425125 93.49927 125.76827C93.49927 124.11142 94.842415 122.76827 96.49927 122.76827C98.15613 122.76827 99.49927 124.11142 99.49927 125.76827Z" fill-rule="nonzero"/><path fill="#000000" fill-opacity="0.0" clip-path="url(#id_0)" d="M104.04854 125.73769C104.04854 127.39455 102.70539 128.73769 101.04854 128.73769C99.391685 128.73769 98.04854 127.39455 98.04854 125.73769C98.04854 124.08083 99.391685 122.73769 101.04854 122.73769C102.70539 122.73769 104.04854 124.08083 104.04854 125.73769Z" fill-rule="nonzero"/><path fill="#000000" fill-opacity="0.0" clip-path="url(#id_0)" d="M108.74945 132.50522C108.74945 134.16206 107.4063 135.50522 105.74945 135.50522C104.0926 135.50522 102.74945 134.16206 102.74945 132.50522C102.74945 130.84836 104.0926 129.50522 105.74945 129.50522C107.4063 129.50522 108.74945 130.84836 108.74945 132.50522Z" fill-rule="nonzero"/><path fill="#000000" fill-opacity="0.0" clip-path="url(#id_0)" d="M113.45036 135.54424C113.45036 137.20108 112.107216 138.54424 110.45036 138.54424C108.79351 138.54424 107.45036 137.20108 107.45036 135.54424C107.45036 133.88737 108.79351 132.54424 110.45036 132.54424C112.107216 132.54424 113.45036 133.88737 113.45036 135.54424Z" fill-rule="nonzero"/><path fill="#000000" fill-opacity="0.0" clip-path="url(#id_0)" d="M117.84799 137.53891C117.84799 139.19577 116.504845 140.53891 114.84799 140.53891C113.19114 140.53891 111.84799 139.19577 111.84799 137.53891C111.84799 135.88206 113.19114 134.53891 114.84799 134.53891C116.504845 134.53891 117.84799 135.88206 117.84799 137.53891Z" fill-rule="nonzero"/><path fill="#000000" fill-opacity="0.0" clip-path="url(#id_0)" d="M122.548904 139.0914C122.548904 140.74826 121.20576 142.0914 119.548904 142.0914C117.89205 142.0914 116.548904 140.74826 116.548904 139.0914C116.548904 137.43456 117.89205 136.0914 119.548904 136.0914C121.20576 136.0914 122.548904 137.43456 122.548904 139.0914Z" fill-rule="nonzero"/><path fill="#000000" fill-opacity="0.0" clip-path="url(#id_0)" d="M127.098175 140.45197C127.098175 142.10883 125.75503 143.45197 124.098175 143.45197C122.44132 143.45197 121.098175 142.10883 121.098175 140.45197C121.098175 138.79512 122.44132 137.45197 124.098175 137.45197C125.75503 137.45197 127.098175 138.79512 127.098175 140.45197Z" fill-rule="nonzero"/><path fill="#000000" fill-opacity="0.0" clip-path="url(#id_0)" d="M131.79909 141.72888C131.79909 143.38574 130.45595 144.72888 128.79909 144.72888C127.142235 144.72888 125.79909 143.38574 125.79909 141.72888C125.79909 140.07204 127.142235 138.72888 128.79909 138.72888C130.45595 138.72888 131.79909 140.07204 131.79909 141.72888Z" fill-rule="nonzero"/><path fill="#000000" fill-opacity="0.0" clip-path="url(#id_0)" d="M136.34836 142.96942C136.34836 144.62628 135.00522 145.96942 133.34836 145.96942C131.6915 145.96942 130.34836 144.62628 130.34836 142.96942C130.34836 141.31258 131.6915 139.96942 133.34836 139.96942C135.00522 139.96942 136.34836 141.31258 136.34836 142.96942Z" fill-rule="nonzero"/><path fill="#000000" fill-opacity="0.0" clip-path="url(#id_0)" d="M141.04927 144.19432C141.04927 145.85118 139.70613 147.19432 138.04927 147.19432C136.39241 147.19432 135.04927 145.85118 135.04927 144.19432C135.04927 142.53748 136.39241 141.19432 138.04927 141.19432C139.70613 141.19432 141.04927 142.53748 141.04927 144.19432Z" fill-rule="nonzero"/><path fill="#000000" fill-opacity="0.0" clip-path="url(#id_0)" d="M145.75018 145.41267C145.75018 147.06953 144.40704 148.41267 142.75018 148.41267C141.09332 148.41267 139.75018 147.06953 139.75018 145.41267C139.75018 143.75583 141.09332 142.41267 142.75018 142.41267C144.40704 142.41267 145.75018 143.75583 145.75018 145.41267Z" fill-rule="nonzero"/><path fill="#000000" fill-opacity="0.0" clip-path="url(#id_0)" d="M150.29945 146.62845C150.29945 148.28531 148.95631 149.62845 147.29945 149.62845C145.6426 149.62845 144.29945 148.28531 144.29945 146.62845C144.29945 144.9716 145.6426 143.62845 147.29945 143.62845C148.95631 143.62845 150.29945 144.9716 150.29945 146.62845Z" fill-rule="nonzero"/><path fill="#000000" fill-opacity="0.0" clip-path="url(#id_0)" d="M155.00037 147.8434C155.00037 149.50024 153.65723 150.8434 152.00037 150.8434C150.3435 150.8434 149.00037 149.50024 149.00037 147.8434C149.00037 146.18654 150.3435 144.8434 152.00037 144.8434C153.65723 144.8434 155.00037 146.18654 155.00037 147.8434Z" fill-rule="nonzero"/><path fill="#000000" fill-opacity="0.0" clip-path="url(#id_0)" d="M159.54964 149.05826C159.54964 150.71512 158.20648 152.05826 156.54964 152.05826C154.89278 152.05826 153.54964 150.71512 153.54964 149.05826C153.54964 147.40141 154.89278 146.05826 156.54964 146.05826C158.20648 146.05826 159.54964 147.40141 159.54964 149.05826Z" fill-rule="nonzero"/><path fill="#000000" fill-opacity="0.0" clip-path="url(#id_0)" d="M164.25055 150.27338C164.25055 151.93022 162.9074 153.27338 161.25055 153.27338C159.59369 153.27338 158.25055 151.93022 158.25055 150.27338C158.25055 148.61652 159.59369 147.27338 161.25055 147.27338C162.9074 147.27338 164.25055 148.61652 164.25055 150.27338Z" fill-rule="nonzero"/><path fill="#000000" fill-opacity="0.0" clip-path="url(#id_0)" d="M168.95146 151.48886C168.95146 153.14572 167.6083 154.48886 165.95146 154.48886C164.2946 154.48886 162.95146 153.14572 162.95146 151.48886C162.95146 149.832 164.2946 148.48886 165.95146 148.48886C167.6083 148.48886 168.95146 149.832 168.95146 151.48886Z" fill-rule="nonzero"/><path fill="#000000" fill-opacity="0.0" clip-path="url(#id_0)" d="M173.19745 152.70479C173.19745 154.36163 171.8543 155.70479 170.19745 155.70479C168.54059 155.70479 167.19745 154.36163 167.19745 152.70479C167.19745 151.04793 168.54059 149.70479 170.19745 149.70479C171.8543 149.70479 173.19745 151.04793 173.19745 152.70479Z" fill-rule="nonzero"/><path fill="#000000" fill-opacity="0.0" clip-path="url(#id_0)" d="M177.89836 153.92114C177.89836 155.578 176.5552 156.92114 174.89836 156.92114C173.2415 156.92114 171.89836 155.578 171.89836 153.92114C171.89836 152.26428 173.2415 150.92114 174.89836 150.92114C176.5552 150.92114 177.89836 152.26428 177.89836 153.92114Z" fill-rule="nonzero"/><path fill="#000000" fill-opacity="0.0" clip-path="url(#id_0)" d="M182.44763 155.13794C182.44763 156.7948 181.10448 158.13794 179.44763 158.13794C177.79077 158.13794 176.44763 156.7948 176.44763 155.13794C176.44763 153.4811 177.79077 152.13794 179.44763 152.13794C181.10448 152.13794 182.44763 153.4811 182.44763 155.13794Z" fill-rule="nonzero"/><path fill="#000000" fill-opacity="0.0" clip-path="url(#id_0)" d="M187.14854 156.3552C187.14854 158.01204 185.80539 159.3552 184.14854 159.3552C182.49168 159.3552 181.14854 158.01204 181.14854 156.3552C181.14854 154.69833 182.49168 153.3552 184.14854 153.3552C185.80539 153.3552 187.14854 154.69833 187.14854 156.3552Z" fill-rule="nonzero"/><path fill="#000000" fill-opacity="0.0" clip-path="url(#id_0)" d="M191.69781 157.57285C191.69781 159.2297 190.35466 160.57285 188.69781 160.57285C187.04095 160.57285 185.69781 159.2297 185.69781 157.57285C185.69781 155.916 187.04095 154.57285 188.69781 154.57285C190.35466 154.57285 191.69781 155.916 191.69781 157.57285Z" fill-rule="nonzero"/><path fill="#000000" fill-opacity="0.0" clip-path="url(#id_0)" d="M196.39873 158.79092C196.39873 160.44777 195.05557 161.79092 193.39873 161.79092C191.74187 161.79092 190.39873 160.44777 190.39873 158.79092C190.39873 157.13406 191.74187 155.79092 193.39873 155.79092C195.05557 155.79092 196.39873 157.13406 196.39873 158.79092Z" fill-rule="nonzero"/><path fill="#000000" fill-opacity="0.0" clip-path="url(#id_0)" d="M201.09964 160.00938C201.09964 161.66624 199.75648 163.00938 198.09964 163.00938C196.44278 163.00938 195.09964 161.66624 195.09964 160.00938C195.09964 158.35252 196.44278 157.00938 198.09964 157.00938C199.75648 157.00938 201.09964 158.35252 201.09964 160.00938Z" fill-rule="nonzero"/><path fill="#000000" fill-opacity="0.0" clip-path="url(#id_0)" d="M205.64891 161.22823C205.64891 162.88509 204.30576 164.22823 202.64891 164.22823C200.99205 164.22823 199.64891 162.88509 199.64891 161.22823C199.64891 159.57138 200.99205 158.22823 202.64891 158.22823C204.30576 158.22823 205.64891 159.57138 205.64891 161.22823Z" fill-rule="nonzero"/><path fill="#000000" fill-opacity="0.0" clip-path="url(#id_0)" d="M210.34982 162.44745C210.34982 164.1043 209.00667 165.44745 207.34982 165.44745C205.69296 165.44745 204.34982 164.1043 204.34982 162.44745C204.34982 160.79059 205.69296 159.44745 207.34982 159.44745C209.00667 159.44745 210.34982 160.79059 210.34982 162.44745Z" fill-rule="nonzero"/><path fill="#000000" fill-opacity="0.0" clip-path="url(#id_0)" d="M214.8991 163.66702C214.8991 165.32388 213.55594 166.66702 211.8991 166.66702C210.24223 166.66702 208.8991 165.32388 208.8991 163.66702C208.8991 162.01018 210.24223 160.66702 211.8991 160.66702C213.55594 160.66702 214.8991 162.01018 214.8991 163.66702Z" fill-rule="nonzero"/><path fill="#000000" fill-opacity="0.0" clip-path="url(#id_0)" d="M219.6 164.88695C219.6 166.54381 218.25685 167.88695 216.6 167.88695C214.94315 167.88695 213.6 166.54381 213.6 164.88695C213.6 163.2301 214.94315 161.88695 216.6 161.88695C218.25685 161.88695 219.6 163.2301 219.6 164.88695Z" fill-rule="nonzero"/><path fill="#000000" fill-opacity="0.0" clip-path="url(#id_0)" d="M53.4 126.134796C53.4 127.79165 52.056854 129.1348 50.4 129.1348C48.743145 129.1348 47.4 127.79165 47.4 126.134796C47.4 124.477936 48.743145 123.134796 50.4 123.134796C52.056854 123.134796 53.4 124.477936 53.4 126.134796Z" fill-rule="nonzero"/><path fill="#000000" fill-opacity="0.0" clip-path="url(#id_0)" d="M58.100914 126.09262C58.100914 127.74947 56.757767 129.09262 55.100914 129.09262C53.444057 129.09262 52.100914 127.74947 52.100914 126.09262C52.100914 124.43576 53.444057 123.09262 55.100914 123.09262C56.757767 123.09262 58.100914 124.43576 58.100914 126.09262Z" fill-rule="nonzero"/><path fill="#000000" fill-opacity="0.0" clip-path="url(#id_0)" d="M62.346897 126.05178C62.346897 127.70863 61.003754 129.05177 59.346897 129.05177C57.690044 129.05177 56.346897 127.70863 56.346897 126.05178C56.346897 124.39493 57.690044 123.05178 59.346897 123.05178C61.003754 123.05178 62.346897 124.39493 62.346897 126.05178Z" fill-rule="nonzero"/><path fill="#000000" fill-opacity="0.0" clip-path="url(#id_0)" d="M67.04781 126.01223C67.04781 127.66908 65.704666 129.01224 64.04781 129.01224C62.390957 129.01224 61.04781 127.66908 61.04781 126.01223C61.04781 124.35538 62.390957 123.01223 64.04781 123.01223C65.704666 123.01223 67.04781 124.35538 67.04781 126.01223Z" fill-rule="nonzero"/><path fill="#000000" fill-opacity="0.0" clip-path="url(#id_0)" d="M71.597084 125.97394C71.597084 127.63079 70.25394 128.97394 68.597084 128.97394C66.94022 128.97394 65.597084 127.63079 65.597084 125.97394C65.597084 124.317085 66.94022 122.97394 68.597084 122.97394C70.25394 122.97394 71.597084 124.317085 71.597084 125.97394Z" fill-rule="nonzero"/><path fill="#000000" fill-opacity="0.0" clip-path="url(#id_0)" d="M76.29799 125.93685C76.29799 127.593704 74.95485 128.93686 73.29799 128.93686C71.641136 128.93686 70.29799 127.593704 70.29799 125.93685C70.29799 124.28 71.641136 122.93685 73.29799 122.93685C74.95485 122.93685 76.29799 124.28 76.29799 125.93685Z" fill-rule="nonzero"/><path fill="#000000" fill-opacity="0.0" clip-path="url(#id_0)" d="M80.84726 125.90094C80.84726 127.55779 79.50412 128.90094 77.84726 128.90094C76.19041 128.90094 74.84726 127.55779 74.84726 125.90094C74.84726 124.24408 76.19041 122.90094 77.84726 122.90094C79.50412 122.90094 80.84726 124.24408 80.84726 125.90094Z" fill-rule="nonzero"/><path fill="#000000" fill-opacity="0.0" clip-path="url(#id_0)" d="M85.54817 125.86616C85.54817 127.52301 84.20503 128.86617 82.54817 128.86617C80.89132 128.86617 79.54817 127.52301 79.54817 125.86616C79.54817 124.209305 80.89132 122.86616 82.54817 122.86616C84.20503 122.86616 85.54817 124.209305 85.54817 125.86616Z" fill-rule="nonzero"/><path fill="#000000" fill-opacity="0.0" clip-path="url(#id_0)" d="M90.249084 125.83247C90.249084 127.489334 88.905945 128.83247 87.249084 128.83247C85.59223 128.83247 84.249084 127.489334 84.249084 125.83247C84.249084 124.17562 85.59223 122.83247 87.249084 122.83247C88.905945 122.83247 90.249084 124.17562 90.249084 125.83247Z" fill-rule="nonzero"/><path fill="#000000" fill-opacity="0.0" clip-path="url(#id_0)" d="M94.798355 125.799866C94.798355 127.45672 93.455215 128.79987 91.798355 128.79987C90.1415 128.79987 88.798355 127.45672 88.798355 125.799866C88.798355 124.143005 90.1415 122.799866 91.798355 122.799866C93.455215 122.799866 94.798355 124.143005 94.798355 125.799866Z" fill-rule="nonzero"/><path fill="#000000" fill-opacity="0.0" clip-path="url(#id_0)" d="M99.49927 125.76827C99.49927 127.425125 98.15613 128.76828 96.49927 128.76828C94.842415 128.76828 93.49927 127.425125 93.49927 125.76827C93.49927 124.11142 94.842415 122.76827 96.49927 122.76827C98.15613 122.76827 99.49927 124.11142 99.49927 125.76827Z" fill-rule="nonzero"/><path fill="#000000" fill-opacity="0.0" clip-path="url(#id_0)" d="M104.04854 125.73769C104.04854 127.39455 102.70539 128.73769 101.04854 128.73769C99.391685 128.73769 98.04854 127.39455 98.04854 125.73769C98.04854 124.08083 99.391685 122.73769 101.04854 122.73769C102.70539 122.73769 104.04854 124.08083 104.04854 125.73769Z" fill-rule="nonzero"/><path fill="#000000" fill-opacity="0.0" clip-path="url(#id_0)" d="M108.74945 112.113785C108.74945 113.77064 107.4063 115.113785 105.74945 115.113785C104.0926 115.113785 102.74945 113.77064 102.74945 112.113785C102.74945 110.45693 104.0926 109.113785 105.74945 109.113785C107.4063 109.113785 108.74945 110.45693 108.74945 112.113785Z" fill-rule="nonzero"/><path fill="#000000" fill-opacity="0.0" clip-path="url(#id_0)" d="M113.45036 105.949715C113.45036 107.60657 112.107216 108.949715 110.45036 108.949715C108.79351 108.949715 107.45036 107.60657 107.45036 105.949715C107.45036 104.29286 108.79351 102.949715 110.45036 102.949715C112.107216 102.949715 113.45036 104.29286 113.45036 105.949715Z" fill-rule="nonzero"/><path fill="#000000" fill-opacity="0.0" clip-path="url(#id_0)" d="M117.84799 101.877014C117.84799 103.53387 116.504845 104.877014 114.84799 104.877014C113.19114 104.877014 111.84799 103.53387 111.84799 101.877014C111.84799 100.22015 113.19114 98.877014 114.84799 98.877014C116.504845 98.877014 117.84799 100.22015 117.84799 101.877014Z" fill-rule="nonzero"/><path fill="#000000" fill-opacity="0.0" clip-path="url(#id_0)" d="M122.548904 98.691315C122.548904 100.34817 121.20576 101.691315 119.548904 101.691315C117.89205 101.691315 116.548904 100.34817 116.548904 98.691315C116.548904 97.03446 117.89205 95.691315 119.548904 95.691315C121.20576 95.691315 122.548904 97.03446 122.548904 98.691315Z" fill-rule="nonzero"/><path fill="#000000" fill-opacity="0.0" clip-path="url(#id_0)" d="M127.098175 95.89203C127.098175 97.54888 125.75503 98.89203 124.098175 98.89203C122.44132 98.89203 121.098175 97.54888 121.098175 95.89203C121.098175 94.235176 122.44132 92.89203 124.098175 92.89203C125.75503 92.89203 127.098175 94.235176 127.098175 95.89203Z" fill-rule="nonzero"/><path fill="#000000" fill-opacity="0.0" clip-path="url(#id_0)" d="M131.79909 93.26254C131.79909 94.9194 130.45595 96.26254 128.79909 96.26254C127.142235 96.26254 125.79909 94.9194 125.79909 93.26254C125.79909 91.60569 127.142235 90.26254 128.79909 90.26254C130.45595 90.26254 131.79909 91.60569 131.79909 93.26254Z" fill-rule="nonzero"/><path fill="#000000" fill-opacity="0.0" clip-path="url(#id_0)" d="M136.34836 90.70819C136.34836 92.36504 135.00522 93.70819 133.34836 93.70819C131.6915 93.70819 130.34836 92.36504 130.34836 90.70819C130.34836 89.05134 131.6915 87.70819 133.34836 87.70819C135.00522 87.70819 136.34836 89.05134 136.34836 90.70819Z" fill-rule="nonzero"/><path fill="#000000" fill-opacity="0.0" clip-path="url(#id_0)" d="M141.04927 88.18742C141.04927 89.84428 139.70613 91.18742 138.04927 91.18742C136.39241 91.18742 135.04927 89.84428 135.04927 88.18742C135.04927 86.53057 136.39241 85.18742 138.04927 85.18742C139.70613 85.18742 141.04927 86.53057 141.04927 88.18742Z" fill-rule="nonzero"/><path fill="#000000" fill-opacity="0.0" clip-path="url(#id_0)" d="M145.75018 85.68201C145.75018 87.33886 144.40704 88.68201 142.75018 88.68201C141.09332 88.68201 139.75018 87.33886 139.75018 85.68201C139.75018 84.025154 141.09332 82.68201 142.75018 82.68201C144.40704 82.68201 145.75018 84.025154 145.75018 85.68201Z" fill-rule="nonzero"/><path fill="#000000" fill-opacity="0.0" clip-path="url(#id_0)" d="M150.29945 83.18391C150.29945 84.84076 148.95631 86.18391 147.29945 86.18391C145.6426 86.18391 144.29945 84.84076 144.29945 83.18391C144.29945 81.527054 145.6426 80.18391 147.29945 80.18391C148.95631 80.18391 150.29945 81.527054 150.29945 83.18391Z" fill-rule="nonzero"/><path fill="#000000" fill-opacity="0.0" clip-path="url(#id_0)" d="M155.00037 80.68958C155.00037 82.346436 153.65723 83.68958 152.00037 83.68958C150.3435 83.68958 149.00037 82.346436 149.00037 80.68958C149.00037 79.03273 150.3435 77.68958 152.00037 77.68958C153.65723 77.68958 155.00037 79.03273 155.00037 80.68958Z" fill-rule="nonzero"/><path fill="#000000" fill-opacity="0.0" clip-path="url(#id_0)" d="M159.54964 78.19745C159.54964 79.8543 158.20648 81.19745 156.54964 81.19745C154.89278 81.19745 153.54964 79.8543 153.54964 78.19745C153.54964 76.54059 154.89278 75.19745 156.54964 75.19745C158.20648 75.19745 159.54964 76.54059 159.54964 78.19745Z" fill-rule="nonzero"/><path fill="#000000" fill-opacity="0.0" clip-path="url(#id_0)" d="M164.25055 75.706795C164.25055 77.36365 162.9074 78.706795 161.25055 78.706795C159.59369 78.706795 158.25055 77.36365 158.25055 75.706795C158.25055 74.04994 159.59369 72.706795 161.25055 72.706795C162.9074 72.706795 164.25055 74.04994 164.25055 75.706795Z" fill-rule="nonzero"/><path fill="#000000" fill-opacity="0.0" clip-path="url(#id_0)" d="M168.95146 73.2173C168.95146 74.87415 167.6083 76.2173 165.95146 76.2173C164.2946 76.2173 162.95146 74.87415 162.95146 73.2173C162.95146 71.56044 164.2946 70.2173 165.95146 70.2173C167.6083 70.2173 168.95146 71.56044 168.95146 73.2173Z" fill-rule="nonzero"/><path fill="#000000" fill-opacity="0.0" clip-path="url(#id_0)" d="M173.19745 70.72878C173.19745 72.38564 171.8543 73.72878 170.19745 73.72878C168.54059 73.72878 167.19745 72.38564 167.19745 70.72878C167.19745 69.07193 168.54059 67.72878 170.19745 67.72878C171.8543 67.72878 173.19745 69.07193 173.19745 70.72878Z" fill-rule="nonzero"/><path fill="#000000" fill-opacity="0.0" clip-path="url(#id_0)" d="M177.89836 68.24117C177.89836 69.898026 176.5552 71.24117 174.89836 71.24117C173.2415 71.24117 171.89836 69.898026 171.89836 68.24117C171.89836 66.58431 173.2415 65.24117 174.89836 65.24117C176.5552 65.24117 177.89836 66.58431 177.89836 68.24117Z" fill-rule="nonzero"/><path fill="#000000" fill-opacity="0.0" clip-path="url(#id_0)" d="M182.44763 65.75441C182.44763 67.41126 181.10448 68.75441 179.44763 68.75441C177.79077 68.75441 176.44763 67.41126 176.44763 65.75441C176.44763 64.09756 177.79077 62.754406 179.44763 62.754406C181.10448 62.754406 182.44763 64.09756 182.44763 65.75441Z" fill-rule="nonzero"/><path fill="#000000" fill-opacity="0.0" clip-path="url(#id_0)" d="M187.14854 63.268467C187.14854 64.92532 185.80539 66.26847 184.14854 66.26847C182.49168 66.26847 181.14854 64.92532 181.14854 63.268467C181.14854 61.611614 182.49168 60.268467 184.14854 60.268467C185.80539 60.268467 187.14854 61.611614 187.14854 63.268467Z" fill-rule="nonzero"/><path fill="#000000" fill-opacity="0.0" clip-path="url(#id_0)" d="M191.69781 60.783306C191.69781 62.440163 190.35466 63.783306 188.69781 63.783306C187.04095 63.783306 185.69781 62.440163 185.69781 60.783306C185.69781 59.126453 187.04095 57.783306 188.69781 57.783306C190.35466 57.783306 191.69781 59.126453 191.69781 60.783306Z" fill-rule="nonzero"/><path fill="#000000" fill-opacity="0.0" clip-path="url(#id_0)" d="M196.39873 58.29891C196.39873 59.955765 195.05557 61.29891 193.39873 61.29891C191.74187 61.29891 190.39873 59.955765 190.39873 58.29891C190.39873 56.642056 191.74187 55.29891 193.39873 55.29891C195.05557 55.29891 196.39873 56.642056 196.39873 58.29891Z" fill-rule="nonzero"/><path fill="#000000" fill-opacity="0.0" clip-path="url(#id_0)" d="M201.09964 55.815247C201.09964 57.4721 199.75648 58.815247 198.09964 58.815247C196.44278 58.815247 195.09964 57.4721 195.09964 55.815247C195.09964 54.158394 196.44278 52.815247 198.09964 52.815247C199.75648 52.815247 201.09964 54.158394 201.09964 55.815247Z" fill-rule="nonzero"/><path fill="#000000" fill-opacity="0.0" clip-path="url(#id_0)" d="M205.64891 53.3323C205.64891 54.98915 204.30576 56.3323 202.64891 56.3323C200.99205 56.3323 199.64891 54.98915 199.64891 53.3323C199.64891 51.67544 200.99205 50.3323 202.64891 50.3323C204.30576 50.3323 205.64891 51.67544 205.64891 53.3323Z" fill-rule="nonzero"/><path fill="#000000" fill-opacity="0.0" clip-path="url(#id_0)" d="M210.34982 50.850033C210.34982 52.506886 209.00667 53.850033 207.34982 53.850033C205.69296 53.850033 204.34982 52.506886 204.34982 50.850033C204.34982 49.193176 205.69296 47.850033 207.34982 47.850033C209.00667 47.850033 210.34982 49.193176 210.34982 50.850033Z" fill-rule="nonzero"/><path fill="#000000" fill-opacity="0.0" clip-path="url(#id_0)" d="M214.8991 48.368427C214.8991 50.02528 213.55594 51.368427 211.8991 51.368427C210.24223 51.368427 208.8991 50.02528 208.8991 48.368427C208.8991 46.71157 210.24223 45.368427 211.8991 45.368427C213.55594 45.368427 214.8991 46.71157 214.8991 48.368427Z" fill-rule="nonzero"/><path fill="#000000" fill-opacity="0.0" clip-path="url(#id_0)" d="M219.6 45.887474C219.6 47.544327 218.25685 48.887474 216.6 48.887474C214.94315 48.887474 213.6 47.544327 213.6 45.887474C213.6 44.230618 214.94315 42.887474 216.6 42.887474C218.25685 42.887474 219.6 44.230618 219.6 45.887474Z" fill-rule="nonzero"/><path fill="#000000" d="M115.890625 355.6L115.890625 342.70938L120.328125 342.70938Q121.828125 342.70938 122.625 342.89688Q123.734375 343.14688 124.515625 343.81876Q125.53125 344.67813 126.03125 346.02188Q126.546875 347.36563 126.546875 349.08438Q126.546875 350.55313 126.203125 351.69376Q125.859375 352.81876 125.3125 353.56876Q124.78125 354.30313 124.140625 354.74063Q123.515625 355.1625 122.609375 355.38126Q121.703125 355.6 120.53125 355.6L115.890625 355.6ZM117.59375 354.08438L120.34375 354.08438Q121.625 354.08438 122.34375 353.85Q123.0625 353.6 123.5 353.17813Q124.109375 352.56876 124.4375 351.55313Q124.78125 350.52188 124.78125 349.05313Q124.78125 347.0375 124.109375 345.95938Q123.453125 344.86563 122.5 344.50626Q121.828125 344.24063 120.296875 344.24063L117.59375 344.24063L117.59375 354.08438ZM134.78125 354.44376Q133.90625 355.19376 133.07812 355.50626Q132.26562 355.81876 131.34375 355.81876Q129.79688 355.81876 128.96875 355.06876Q128.15625 354.30313 128.15625 353.13126Q128.15625 352.45938 128.46875 351.89688Q128.78125 351.31876 129.28125 350.975Q129.78125 350.63126 130.42188 350.45938Q130.89062 350.33438 131.82812 350.225Q133.73438 349.99063 134.64062 349.67813Q134.65625 349.35 134.65625 349.25626Q134.65625 348.30313 134.20312 347.89688Q133.59375 347.36563 132.40625 347.36563Q131.28125 347.36563 130.75 347.75626Q130.21875 348.14688 129.96875 349.14688L128.42188 348.92813Q128.64062 347.92813 129.10938 347.31876Q129.59375 346.70938 130.5 346.38126Q131.42188 346.05313 132.64062 346.05313Q133.82812 346.05313 134.57812 346.33438Q135.32812 346.61563 135.67188 347.05313Q136.03125 347.475 136.17188 348.11563Q136.25 348.52188 136.25 349.58438L136.25 351.69376Q136.25 353.89688 136.34375 354.49063Q136.45312 355.06876 136.75 355.6L135.09375 355.6Q134.84375 355.1 134.78125 354.44376ZM134.64062 350.9125Q133.78125 351.27188 132.0625 351.50626Q131.09375 351.64688 130.6875 351.83438Q130.28125 352.00626 130.0625 352.35Q129.84375 352.67813 129.84375 353.1Q129.84375 353.725 130.3125 354.14688Q130.79688 354.56876 131.71875 354.56876Q132.64062 354.56876 133.34375 354.17813Q134.0625 353.77188 134.39062 353.08438Q134.64062 352.5375 134.64062 351.49063L134.64062 350.9125ZM142.14062 354.17813L142.375 355.58438Q141.70312 355.725 141.17188 355.725Q140.3125 355.725 139.82812 355.45938Q139.35938 355.17813 139.17188 354.74063Q138.98438 354.2875 138.98438 352.86563L138.98438 347.49063L137.8125 347.49063L137.8125 346.27188L138.98438 346.27188L138.98438 343.95938L140.54688 343.00626L140.54688 346.27188L142.14062 346.27188L142.14062 347.49063L140.54688 347.49063L140.54688 352.95938Q140.54688 353.63126 140.625 353.83438Q140.71875 354.02188 140.90625 354.13126Q141.09375 354.24063 141.45312 354.24063Q141.70312 354.24063 142.14062 354.17813ZM150.07812 352.6L151.71875 352.80313Q151.32812 354.225 150.28125 355.02188Q149.23438 355.81876 147.60938 355.81876Q145.5625 355.81876 144.35938 354.55313Q143.15625 353.2875 143.15625 351.00626Q143.15625 348.6625 144.35938 347.36563Q145.57812 346.05313 147.51562 346.05313Q149.39062 346.05313 150.57812 347.33438Q151.76562 348.6 151.76562 350.9125Q151.76562 351.05313 151.75 351.33438L144.79688 351.33438Q144.875 352.88126 145.65625 353.69376Q146.45312 354.50626 147.60938 354.50626Q148.48438 354.50626 149.09375 354.05313Q149.71875 353.6 150.07812 352.6ZM144.875 350.0375L150.09375 350.0375Q149.98438 348.86563 149.5 348.27188Q148.73438 347.35 147.53125 347.35Q146.45312 347.35 145.70312 348.08438Q144.96875 348.81876 144.875 350.0375Z" fill-rule="nonzero"/><path fill="#000000" d="M21.071875 255.00693Q21.071875 252.97568 21.478125 251.7413Q21.9 250.50693 22.728125 249.83505Q23.55625 249.16318 24.80625 249.16318Q25.728125 249.16318 26.415625 249.53818Q27.11875 249.89755 27.571875 250.60068Q28.025 251.3038 28.275 252.3038Q28.540625 253.3038 28.540625 255.00693Q28.540625 257.02255 28.11875 258.27255Q27.7125 259.50693 26.884375 260.19443Q26.05625 260.8663 24.80625 260.8663Q23.15 260.8663 22.196875 259.66318Q21.071875 258.2413 21.071875 255.00693ZM22.509375 255.00693Q22.509375 257.83505 23.165625 258.77255Q23.8375 259.69443 24.80625 259.69443Q25.775 259.69443 26.43125 258.75693Q27.0875 257.81943 27.0875 255.00693Q27.0875 252.1788 26.43125 251.25693Q25.775 250.31943 24.790625 250.31943Q23.821875 250.31943 23.24375 251.14755Q22.509375 252.19443 22.509375 255.00693ZM30.821875 260.66318L30.821875 259.0538L32.43125 259.0538L32.43125 260.66318Q32.43125 261.5538 32.11875 262.08505Q31.80625 262.63193 31.11875 262.9288L30.728125 262.33505Q31.18125 262.13193 31.384375 261.75693Q31.603125 261.38193 31.61875 260.66318L30.821875 260.66318ZM34.071877 255.00693Q34.071877 252.97568 34.478127 251.7413Q34.9 250.50693 35.728127 249.83505Q36.55625 249.16318 37.80625 249.16318Q38.728127 249.16318 39.415627 249.53818Q40.11875 249.89755 40.571877 250.60068Q41.025 251.3038 41.275 252.3038Q41.540627 253.3038 41.540627 255.00693Q41.540627 257.02255 41.11875 258.27255Q40.7125 259.50693 39.884377 260.19443Q39.05625 260.8663 37.80625 260.8663Q36.15 260.8663 35.196877 259.66318Q34.071877 258.2413 34.071877 255.00693ZM35.509377 255.00693Q35.509377 257.83505 36.165627 258.77255Q36.8375 259.69443 37.80625 259.69443Q38.775 259.69443 39.43125 258.75693Q40.0875 257.81943 40.0875 255.00693Q40.0875 252.1788 39.43125 251.25693Q38.775 250.31943 37.790627 250.31943Q36.821877 250.31943 36.24375 251.14755Q35.509377 252.19443 35.509377 255.00693Z" fill-rule="nonzero"/><path fill="#000000" d="M21.071875 210.81055L22.540625 210.68555Q22.7125 211.76367 23.30625 212.31055Q23.9 212.8418 24.74375 212.8418Q25.759375 212.8418 26.4625 212.07617Q27.165625 211.31055 27.165625 210.04492Q27.165625 208.8418 26.49375 208.1543Q25.821875 207.45117 24.728125 207.45117Q24.040625 207.45117 23.49375 207.76367Q22.946875 208.07617 22.634375 208.56055L21.321875 208.38867L22.43125 202.51367L28.11875 202.51367L28.11875 203.85742L23.55625 203.85742L22.93125 206.93555Q23.9625 206.2168 25.103125 206.2168Q26.603125 206.2168 27.634375 207.26367Q28.665625 208.29492 28.665625 209.91992Q28.665625 211.48242 27.759375 212.60742Q26.65 214.01367 24.74375 214.01367Q23.18125 214.01367 22.196875 213.13867Q21.2125 212.24805 21.071875 210.81055ZM30.821875 213.81055L30.821875 212.20117L32.43125 212.20117L32.43125 213.81055Q32.43125 214.70117 32.11875 215.23242Q31.80625 215.7793 31.11875 216.07617L30.728125 215.48242Q31.18125 215.2793 31.384375 214.9043Q31.603125 214.5293 31.61875 213.81055L30.821875 213.81055ZM34.071877 208.1543Q34.071877 206.12305 34.478127 204.88867Q34.9 203.6543 35.728127 202.98242Q36.55625 202.31055 37.80625 202.31055Q38.728127 202.31055 39.415627 202.68555Q40.11875 203.04492 40.571877 203.74805Q41.025 204.45117 41.275 205.45117Q41.540627 206.45117 41.540627 208.1543Q41.540627 210.16992 41.11875 211.41992Q40.7125 212.6543 39.884377 213.3418Q39.05625 214.01367 37.80625 214.01367Q36.15 214.01367 35.196877 212.81055Q34.071877 211.38867 34.071877 208.1543ZM35.509377 208.1543Q35.509377 210.98242 36.165627 211.91992Q36.8375 212.8418 37.80625 212.8418Q38.775 212.8418 39.43125 211.9043Q40.0875 210.9668 40.0875 208.1543Q40.0875 205.32617 39.43125 204.4043Q38.775 203.4668 37.790627 203.4668Q36.821877 203.4668 36.24375 204.29492Q35.509377 205.3418 35.509377 208.1543Z" fill-rule="nonzero"/><path fill="#000000" d="M17.36875 166.95792L15.9625 166.95792L15.9625 157.98917Q15.446875 158.47354 14.61875 158.95792Q13.80625 159.44229 13.15 159.69229L13.15 158.33292Q14.321875 157.77042 15.196875 156.98917Q16.0875 156.19229 16.4625 155.45792L17.36875 155.45792L17.36875 166.95792ZM21.071875 161.30167Q21.071875 159.27042 21.478125 158.03604Q21.9 156.80167 22.728125 156.12979Q23.55625 155.45792 24.80625 155.45792Q25.728125 155.45792 26.415625 155.83292Q27.11875 156.19229 27.571875 156.89542Q28.025 157.59854 28.275 158.59854Q28.540625 159.59854 28.540625 161.30167Q28.540625 163.31729 28.11875 164.56729Q27.7125 165.80167 26.884375 166.48917Q26.05625 167.16104 24.80625 167.16104Q23.15 167.16104 22.196875 165.95792Q21.071875 164.53604 21.071875 161.30167ZM22.509375 161.30167Q22.509375 164.12979 23.165625 165.06729Q23.8375 165.98917 24.80625 165.98917Q25.775 165.98917 26.43125 165.05167Q27.0875 164.11417 27.0875 161.30167Q27.0875 158.47354 26.43125 157.55167Q25.775 156.61417 24.790625 156.61417Q23.821875 156.61417 23.24375 157.44229Q22.509375 158.48917 22.509375 161.30167ZM30.821875 166.95792L30.821875 165.34854L32.43125 165.34854L32.43125 166.95792Q32.43125 167.84854 32.11875 168.37979Q31.80625 168.92667 31.11875 169.22354L30.728125 168.62979Q31.18125 168.42667 31.384375 168.05167Q31.603125 167.67667 31.61875 166.95792L30.821875 166.95792ZM34.071877 161.30167Q34.071877 159.27042 34.478127 158.03604Q34.9 156.80167 35.728127 156.12979Q36.55625 155.45792 37.80625 155.45792Q38.728127 155.45792 39.415627 155.83292Q40.11875 156.19229 40.571877 156.89542Q41.025 157.59854 41.275 158.59854Q41.540627 159.59854 41.540627 161.30167Q41.540627 163.31729 41.11875 164.56729Q40.7125 165.80167 39.884377 166.48917Q39.05625 167.16104 37.80625 167.16104Q36.15 167.16104 35.196877 165.95792Q34.071877 164.53604 34.071877 161.30167ZM35.509377 161.30167Q35.509377 164.12979 36.165627 165.06729Q36.8375 165.98917 37.80625 165.98917Q38.775 165.98917 39.43125 165.05167Q40.0875 164.11417 40.0875 161.30167Q40.0875 158.47354 39.43125 157.55167Q38.775 156.61417 37.790627 156.61417Q36.821877 156.61417 36.24375 157.44229Q35.509377 158.48917 35.509377 161.30167Z" fill-rule="nonzero"/><path fill="#000000" d="M17.36875 120.10527L15.9625 120.10527L15.9625 111.13652Q15.446875 111.620895 14.61875 112.10527Q13.80625 112.589645 13.15 112.839645L13.15 111.48027Q14.321875 110.91777 15.196875 110.13652Q16.0875 109.339645 16.4625 108.60527L17.36875 108.60527L17.36875 120.10527ZM21.071875 117.10527L22.540625 116.98027Q22.7125 118.058395 23.30625 118.60527Q23.9 119.13652 24.74375 119.13652Q25.759375 119.13652 26.4625 118.370895Q27.165625 117.60527 27.165625 116.339645Q27.165625 115.13652 26.49375 114.44902Q25.821875 113.745895 24.728125 113.745895Q24.040625 113.745895 23.49375 114.058395Q22.946875 114.370895 22.634375 114.85527L21.321875 114.683395L22.43125 108.808395L28.11875 108.808395L28.11875 110.152145L23.55625 110.152145L22.93125 113.23027Q23.9625 112.51152 25.103125 112.51152Q26.603125 112.51152 27.634375 113.558395Q28.665625 114.589645 28.665625 116.214645Q28.665625 117.777145 27.759375 118.902145Q26.65 120.308395 24.74375 120.308395Q23.18125 120.308395 22.196875 119.433395Q21.2125 118.54277 21.071875 117.10527ZM30.821875 120.10527L30.821875 118.495895L32.43125 118.495895L32.43125 120.10527Q32.43125 120.995895 32.11875 121.527145Q31.80625 122.07402 31.11875 122.370895L30.728125 121.777145Q31.18125 121.57402 31.384375 121.19902Q31.603125 120.82402 31.61875 120.10527L30.821875 120.10527ZM34.071877 114.44902Q34.071877 112.41777 34.478127 111.183395Q34.9 109.94902 35.728127 109.277145Q36.55625 108.60527 37.80625 108.60527Q38.728127 108.60527 39.415627 108.98027Q40.11875 109.339645 40.571877 110.04277Q41.025 110.745895 41.275 111.745895Q41.540627 112.745895 41.540627 114.44902Q41.540627 116.464645 41.11875 117.714645Q40.7125 118.94902 39.884377 119.63652Q39.05625 120.308395 37.80625 120.308395Q36.15 120.308395 35.196877 119.10527Q34.071877 117.683395 34.071877 114.44902ZM35.509377 114.44902Q35.509377 117.277145 36.165627 118.214645Q36.8375 119.13652 37.80625 119.13652Q38.775 119.13652 39.43125 118.19902Q40.0875 117.26152 40.0875 114.44902Q40.0875 111.620895 39.43125 110.69902Q38.775 109.76152 37.790627 109.76152Q36.821877 109.76152 36.24375 110.589645Q35.509377 111.63652 35.509377 114.44902Z" fill-rule="nonzero"/><path fill="#000000" d="M19.4625 71.893265L19.4625 73.25264L11.884375 73.25264Q11.86875 72.737015 12.05625 72.268265Q12.3375 71.50264 12.978125 70.75264Q13.61875 70.00264 14.821875 69.018265Q16.68125 67.487015 17.3375 66.59639Q17.99375 65.69014 17.99375 64.893265Q17.99375 64.06514 17.4 63.487015Q16.80625 62.90889 15.8375 62.90889Q14.821875 62.90889 14.2125 63.518265Q13.603125 64.12764 13.603125 65.205765L12.15 65.06514Q12.30625 63.44014 13.275 62.59639Q14.24375 61.75264 15.86875 61.75264Q17.525 61.75264 18.478125 62.674515Q19.446875 63.580765 19.446875 64.924515Q19.446875 65.612015 19.165625 66.28389Q18.884375 66.94014 18.228125 67.674515Q17.571875 68.40889 16.05625 69.69014Q14.790625 70.75264 14.43125 71.143265Q14.071875 71.518265 13.8375 71.893265L19.4625 71.893265ZM21.071875 67.59639Q21.071875 65.56514 21.478125 64.330765Q21.9 63.09639 22.728125 62.424515Q23.55625 61.75264 24.80625 61.75264Q25.728125 61.75264 26.415625 62.12764Q27.11875 62.487015 27.571875 63.19014Q28.025 63.893265 28.275 64.893265Q28.540625 65.893265 28.540625 67.59639Q28.540625 69.612015 28.11875 70.862015Q27.7125 72.09639 26.884375 72.78389Q26.05625 73.455765 24.80625 73.455765Q23.15 73.455765 22.196875 72.25264Q21.071875 70.830765 21.071875 67.59639ZM22.509375 67.59639Q22.509375 70.424515 23.165625 71.362015Q23.8375 72.28389 24.80625 72.28389Q25.775 72.28389 26.43125 71.34639Q27.0875 70.40889 27.0875 67.59639Q27.0875 64.768265 26.43125 63.84639Q25.775 62.90889 24.790625 62.90889Q23.821875 62.90889 23.24375 63.737015Q22.509375 64.78389 22.509375 67.59639ZM30.821875 73.25264L30.821875 71.643265L32.43125 71.643265L32.43125 73.25264Q32.43125 74.143265 32.11875 74.674515Q31.80625 75.22139 31.11875 75.518265L30.728125 74.924515Q31.18125 74.72139 31.384375 74.34639Q31.603125 73.97139 31.61875 73.25264L30.821875 73.25264ZM34.071877 67.59639Q34.071877 65.56514 34.478127 64.330765Q34.9 63.09639 35.728127 62.424515Q36.55625 61.75264 37.80625 61.75264Q38.728127 61.75264 39.415627 62.12764Q40.11875 62.487015 40.571877 63.19014Q41.025 63.893265 41.275 64.893265Q41.540627 65.893265 41.540627 67.59639Q41.540627 69.612015 41.11875 70.862015Q40.7125 72.09639 39.884377 72.78389Q39.05625 73.455765 37.80625 73.455765Q36.15 73.455765 35.196877 72.25264Q34.071877 70.830765 34.071877 67.59639ZM35.509377 67.59639Q35.509377 70.424515 36.165627 71.362015Q36.8375 72.28389 37.80625 72.28389Q38.775 72.28389 39.43125 71.34639Q40.0875 70.40889 40.0875 67.59639Q40.0875 64.768265 39.43125 63.84639Q38.775 62.90889 37.790627 62.90889Q36.821877 62.90889 36.24375 63.737015Q35.509377 64.78389 35.509377 67.59639Z" fill-rule="nonzero"/><path fill="#000000" d="M19.4625 25.040625L19.4625 26.4L11.884375 26.4Q11.86875 25.884375 12.05625 25.415625Q12.3375 24.65 12.978125 23.9Q13.61875 23.15 14.821875 22.165625Q16.68125 20.634375 17.3375 19.74375Q17.99375 18.8375 17.99375 18.040625Q17.99375 17.2125 17.4 16.634375Q16.80625 16.05625 15.8375 16.05625Q14.821875 16.05625 14.2125 16.665625Q13.603125 17.275 13.603125 18.353125L12.15 18.2125Q12.30625 16.5875 13.275 15.74375Q14.24375 14.9 15.86875 14.9Q17.525 14.9 18.478125 15.821875Q19.446875 16.728125 19.446875 18.071875Q19.446875 18.759375 19.165625 19.43125Q18.884375 20.0875 18.228125 20.821875Q17.571875 21.55625 16.05625 22.8375Q14.790625 23.9 14.43125 24.290625Q14.071875 24.665625 13.8375 25.040625L19.4625 25.040625ZM21.071875 23.4L22.540625 23.275Q22.7125 24.353125 23.30625 24.9Q23.9 25.43125 24.74375 25.43125Q25.759375 25.43125 26.4625 24.665625Q27.165625 23.9 27.165625 22.634375Q27.165625 21.43125 26.49375 20.74375Q25.821875 20.040625 24.728125 20.040625Q24.040625 20.040625 23.49375 20.353125Q22.946875 20.665625 22.634375 21.15L21.321875 20.978125L22.43125 15.103125L28.11875 15.103125L28.11875 16.446875L23.55625 16.446875L22.93125 19.525Q23.9625 18.80625 25.103125 18.80625Q26.603125 18.80625 27.634375 19.853125Q28.665625 20.884375 28.665625 22.509375Q28.665625 24.071875 27.759375 25.196875Q26.65 26.603125 24.74375 26.603125Q23.18125 26.603125 22.196875 25.728125Q21.2125 24.8375 21.071875 23.4ZM30.821875 26.4L30.821875 24.790625L32.43125 24.790625L32.43125 26.4Q32.43125 27.290625 32.11875 27.821875Q31.80625 28.36875 31.11875 28.665625L30.728125 28.071875Q31.18125 27.86875 31.384375 27.49375Q31.603125 27.11875 31.61875 26.4L30.821875 26.4ZM34.071877 20.74375Q34.071877 18.7125 34.478127 17.478125Q34.9 16.24375 35.728127 15.571875Q36.55625 14.9 37.80625 14.9Q38.728127 14.9 39.415627 15.275Q40.11875 15.634375 40.571877 16.3375Q41.025 17.040625 41.275 18.040625Q41.540627 19.040625 41.540627 20.74375Q41.540627 22.759375 41.11875 24.009375Q40.7125 25.24375 39.884377 25.93125Q39.05625 26.603125 37.80625 26.603125Q36.15 26.603125 35.196877 25.4Q34.071877 23.978125 34.071877 20.74375ZM35.509377 20.74375Q35.509377 23.571875 36.165627 24.509375Q36.8375 25.43125 37.80625 25.43125Q38.775 25.43125 39.43125 24.49375Q40.0875 23.55625 40.0875 20.74375Q40.0875 17.915625 39.43125 16.99375Q38.775 16.05625 37.790627 16.05625Q36.821877 16.05625 36.24375 16.884375Q35.509377 17.93125 35.509377 20.74375Z" fill-rule="nonzero"/><path fill="#000000" d="M15.762814 311.01443Q14.326503 309.57812 13.74093 308.41803Q13.166406 307.24686 13.276891 306.18622Q13.387377 305.12555 14.27126 304.24167Q14.923124 303.5898 15.674425 303.36884Q16.425726 303.12576 17.243319 303.30255Q18.060911 303.4793 18.944794 304.00964Q19.839725 304.52893 21.044018 305.73322Q22.469278 307.15848 23.054852 308.34067Q23.640425 309.50076 23.540987 310.57248Q23.430502 311.63315 22.54662 312.51703Q21.375473 313.68817 19.850775 313.51138Q18.049862 313.30148 15.762814 311.01443ZM16.77928 309.99796Q18.779066 311.99774 19.906017 312.19662Q21.032969 312.37338 21.717978 311.6884Q22.402988 311.0034 22.204115 309.87643Q22.00524 308.74948 20.016502 306.76074Q18.016716 304.76096 16.900814 304.57312Q15.773862 304.37424 15.077804 305.0703Q14.392794 305.7553 14.569571 306.7497Q14.790542 308.00922 16.77928 309.99796ZM29.871803 304.90457L28.877434 305.89896L22.53557 299.5571Q22.513474 300.2642 22.270405 301.19226Q22.038385 302.10928 21.751123 302.75012L20.7899 301.78888Q21.220795 300.5625 21.287085 299.39136Q21.353376 298.19812 21.09926 297.41367L21.740076 296.77286L29.871803 304.90457ZM29.949142 299.96588L28.943726 298.96045L31.993124 295.91107L32.998543 296.91647L29.949142 299.96588ZM40.29058 292.56335L41.251804 293.52457L35.89326 298.88312Q35.51761 298.52957 35.318737 298.06552Q34.97623 297.3253 34.89889 296.34195Q34.821552 295.35864 34.97623 293.81183Q35.20825 291.4143 35.042522 290.3205Q34.865746 289.21564 34.30227 288.65216Q33.716698 288.0666 32.888054 288.07764Q32.059414 288.08868 31.374405 288.7737Q30.65625 289.49185 30.65625 290.35364Q30.65625 291.21542 31.4186 291.97778L30.291649 292.90585Q29.253084 291.64633 29.341473 290.3647Q29.429861 289.08307 30.57891 287.93402Q31.750055 286.76288 33.075882 286.74078Q34.401707 286.6966 35.35188 287.64676Q35.838017 288.1329 36.11423 288.80685Q36.379395 289.46976 36.43464 290.4531Q36.48988 291.4364 36.324154 293.4141Q36.180523 295.06033 36.202618 295.59067Q36.21367 296.10992 36.313103 296.54083L40.29058 292.56335ZM38.390232 288.387Q36.95392 286.95068 36.368347 285.7906Q35.793823 284.61945 35.90431 283.5588Q36.014793 282.49814 36.898678 281.61426Q37.55054 280.96237 38.30184 280.74142Q39.053143 280.49835 39.870735 280.6751Q40.688328 280.8519 41.572212 281.38223Q42.467144 281.90152 43.671432 283.1058Q45.096695 284.53107 45.68227 285.71326Q46.26784 286.87335 46.168404 287.94507Q46.05792 289.00574 45.174034 289.88962Q44.00289 291.06076 42.47819 290.88397Q40.67728 290.67404 38.390232 288.387ZM39.406696 287.37054Q41.406483 289.37033 42.533436 289.5692Q43.660385 289.74597 44.345394 289.06097Q45.030403 288.37595 44.83153 287.249Q44.632656 286.12207 42.64392 284.13333Q40.644135 282.13354 39.52823 281.9457Q38.40128 281.74683 37.70522 282.4429Q37.02021 283.1279 37.196987 284.12228Q37.417957 285.3818 39.406696 287.37054ZM44.754192 282.02304Q43.317883 280.58673 42.732307 279.42664Q42.157784 278.2555 42.26827 277.19482Q42.378754 276.1342 43.262634 275.2503Q43.9145 274.59842 44.665802 274.37744Q45.417103 274.1344 46.23469 274.31116Q47.052284 274.48795 47.93617 275.01828Q48.8311 275.53757 50.035393 276.74185Q51.460655 278.1671 52.046227 279.3493Q52.6318 280.5094 52.532364 281.58112Q52.42188 282.64175 51.537994 283.52567Q50.36685 284.6968 48.84215 284.52002Q47.04124 284.3101 44.754192 282.02304ZM45.770657 281.0066Q47.770443 283.00638 48.897396 283.20523Q50.024345 283.38202 50.709354 282.69702Q51.394363 282.012 51.195488 280.88504Q50.996616 279.7581 49.007877 277.76935Q47.00809 275.76956 45.89219 275.58176Q44.765236 275.38287 44.06918 276.07892Q43.38417 276.76395 43.560947 277.7583Q43.78192 279.01785 45.770657 281.0066ZM48.14609 272.55444L47.184868 271.59323L52.42188 266.3562L53.195274 267.1296Q53.25052 268.73166 53.85819 270.864Q54.46586 272.9743 55.482323 274.83044Q56.20048 276.14523 57.338478 277.4379L56.310966 278.46542Q55.371838 277.4821 54.377472 275.7806Q53.383102 274.05704 52.797527 272.14566Q52.211956 270.21216 52.11252 268.588L48.14609 272.55444Z" fill-rule="nonzero"/><path fill="#000000" d="M71.11227 311.01443Q69.67596 309.57812 69.090385 308.41803Q68.51586 307.24686 68.62634 306.18622Q68.73683 305.12555 69.62071 304.24167Q70.272575 303.5898 71.02388 303.36884Q71.77518 303.12576 72.59277 303.30255Q73.41036 303.4793 74.29425 304.00964Q75.18918 304.52893 76.39347 305.73322Q77.81873 307.15848 78.404305 308.34067Q78.989876 309.50076 78.89044 310.57248Q78.77995 311.63315 77.89607 312.51703Q76.72493 313.68817 75.200226 313.51138Q73.399315 313.30148 71.11227 311.01443ZM72.12873 309.99796Q74.12852 311.99774 75.25547 312.19662Q76.38242 312.37338 77.06743 311.6884Q77.75244 311.0034 77.553566 309.87643Q77.35469 308.74948 75.36596 306.76074Q73.36617 304.76096 72.25027 304.57312Q71.123314 304.37424 70.42725 305.0703Q69.74225 305.7553 69.91902 306.7497Q70.13999 308.00922 72.12873 309.99796ZM85.22125 304.90457L84.22689 305.89896L77.885025 299.5571Q77.86292 300.2642 77.61986 301.19226Q77.38784 302.10928 77.10058 302.75012L76.13935 301.78888Q76.570244 300.5625 76.636536 299.39136Q76.70283 298.19812 76.448715 297.41367L77.08953 296.77286L85.22125 304.90457ZM85.2986 299.96588L84.293175 298.96045L87.342575 295.91107L88.34799 296.91647L85.2986 299.96588ZM95.64003 292.56335L96.60126 293.52457L91.242714 298.88312Q90.867065 298.52957 90.66819 298.06552Q90.32568 297.3253 90.248344 296.34195Q90.171005 295.35864 90.32568 293.81183Q90.5577 291.4143 90.391975 290.3205Q90.215195 289.21564 89.651726 288.65216Q89.06615 288.0666 88.23751 288.07764Q87.40887 288.08868 86.72386 288.7737Q86.0057 289.49185 86.0057 290.35364Q86.0057 291.21542 86.76805 291.97778L85.6411 292.90585Q84.60254 291.64633 84.690926 290.3647Q84.77931 289.08307 85.92836 287.93402Q87.09951 286.76288 88.42533 286.74078Q89.75116 286.6966 90.70133 287.64676Q91.18747 288.1329 91.463684 288.80685Q91.72885 289.46976 91.78409 290.4531Q91.83933 291.4364 91.67361 293.4141Q91.529976 295.06033 91.55207 295.59067Q91.56312 296.10992 91.66256 296.54083L95.64003 292.56335ZM93.739685 288.387Q92.303375 286.95068 91.7178 285.7906Q91.14327 284.61945 91.25376 283.5588Q91.36424 282.49814 92.24813 281.61426Q92.899994 280.96237 93.6513 280.74142Q94.402596 280.49835 95.220184 280.6751Q96.03778 280.8519 96.92166 281.38223Q97.8166 281.90152 99.02089 283.1058Q100.44615 284.53107 101.03172 285.71326Q101.617294 286.87335 101.51786 287.94507Q101.40737 289.00574 100.52349 289.88962Q99.35234 291.06076 97.827644 290.88397Q96.02673 290.67404 93.739685 288.387ZM94.75615 287.37054Q96.755936 289.37033 97.88289 289.5692Q99.00984 289.74597 99.69485 289.06097Q100.37986 288.37595 100.180984 287.249Q99.98211 286.12204 97.99337 284.13333Q95.99358 282.13354 94.877686 281.9457Q93.75073 281.74683 93.05467 282.4429Q92.36967 283.1279 92.54644 284.12225Q92.76741 285.3818 94.75615 287.37054ZM100.103645 282.02304Q98.667336 280.58673 98.081764 279.42664Q97.50724 278.2555 97.61772 277.19482Q97.72821 276.1342 98.61209 275.25027Q99.263954 274.59842 100.01526 274.37744Q100.766556 274.1344 101.58415 274.31116Q102.40174 274.48795 103.28562 275.01828Q104.18056 275.53754 105.38485 276.74185Q106.81011 278.1671 107.39568 279.3493Q107.981255 280.5094 107.88182 281.58112Q107.77133 282.64175 106.88745 283.52563Q105.7163 284.6968 104.191605 284.52002Q102.39069 284.3101 100.103645 282.02304ZM101.12011 281.0066Q103.119896 283.00638 104.24685 283.20523Q105.3738 283.38202 106.05881 282.69702Q106.74382 282.012 106.544945 280.88504Q106.34607 279.7581 104.35733 277.76935Q102.357544 275.76956 101.241646 275.58176Q100.11469 275.38287 99.41863 276.07892Q98.73363 276.76395 98.9104 277.7583Q99.13137 279.01785 101.12011 281.0066ZM107.59456 273.73663Q106.75487 274.1344 106.03671 274.01285Q105.31856 273.89133 104.73299 273.30576Q103.8491 272.42188 103.88225 271.19547Q103.91539 269.947 104.97605 268.88632Q106.03671 267.82565 107.29625 267.80356Q108.55578 267.75937 109.43967 268.64325Q110.003136 269.20673 110.12467 269.9249Q110.24621 270.64304 109.87056 271.46063Q110.853874 270.96344 111.78195 271.11813Q112.721085 271.26175 113.47238 272.01306Q114.51095 273.05164 114.488846 274.51004Q114.46675 275.94635 113.26246 277.15063Q112.069214 278.34387 110.62186 278.377Q109.1745 278.38806 108.11384 277.32742Q107.318344 276.53192 107.18576 275.60385Q107.05318 274.67575 107.59456 273.73663ZM105.7163 272.25613Q106.290825 272.83066 107.020035 272.83066Q107.760284 272.8196 108.3569 272.223Q108.93143 271.64847 108.93143 270.91925Q108.93143 270.19006 108.41215 269.67078Q107.85972 269.11835 107.11947 269.1294Q106.36817 269.1294 105.804695 269.69287Q105.23017 270.2674 105.21912 271.00766Q105.20807 271.7479 105.7163 272.25613ZM109.1303 276.31094Q109.561195 276.74185 110.15782 276.9407Q110.76549 277.12854 111.38421 276.95175Q111.991875 276.76395 112.44487 276.31094Q113.163025 275.5928 113.17407 274.67575Q113.17407 273.74768 112.466965 273.0406Q111.74881 272.32242 110.79864 272.3445Q109.84846 272.3445 109.1303 273.06268Q108.43424 273.75873 108.43424 274.6868Q108.43424 275.6149 109.1303 276.31094Z" fill-rule="nonzero"/><path fill="#000000" d="M126.613365 311.01443Q125.177055 309.57812 124.591484 308.418Q124.01695 307.24686 124.12744 306.18622Q124.23793 305.12555 125.12181 304.24167Q125.773674 303.5898 126.52498 303.36884Q127.276276 303.12576 128.09387 303.30255Q128.91145 303.4793 129.79535 304.00964Q130.69028 304.52893 131.89456 305.73322Q133.31982 307.15848 133.9054 308.34067Q134.49098 309.50076 134.39154 310.57248Q134.28105 311.63315 133.39717 312.51703Q132.22603 313.68817 130.70132 313.51138Q128.9004 313.30148 126.613365 311.01443ZM127.62983 309.99796Q129.62962 311.99774 130.75656 312.19662Q131.88351 312.37338 132.56853 311.6884Q133.25354 311.00336 133.05466 309.87643Q132.85579 308.74948 130.86705 306.76074Q128.86726 304.76096 127.751366 304.57312Q126.62441 304.37424 125.92835 305.0703Q125.24335 305.7553 125.42012 306.7497Q125.64109 308.00922 127.62983 309.99796ZM140.72235 304.90457L139.72798 305.89896L133.38612 299.55707Q133.36403 300.2642 133.12096 301.19226Q132.88893 302.10928 132.60167 302.75012L131.64046 301.78888Q132.07135 300.5625 132.13763 299.39136Q132.20393 298.19812 131.94981 297.41367L132.59062 296.77286L140.72235 304.90457ZM140.7997 299.96588L139.79428 298.96045L142.84367 295.91107L143.84909 296.91647L140.7997 299.96588ZM151.14113 292.56335L152.10236 293.52457L146.7438 298.88312Q146.36816 298.52957 146.16928 298.06552Q145.82678 297.3253 145.74944 296.34195Q145.6721 295.35864 145.82678 293.81183Q146.0588 291.4143 145.89307 290.3205Q145.7163 289.21564 145.15282 288.65216Q144.56725 288.0666 143.7386 288.07764Q142.90996 288.08868 142.22496 288.7737Q141.5068 289.49185 141.5068 290.35364Q141.5068 291.21542 142.26915 291.97778L141.1422 292.90585Q140.10364 291.64633 140.19202 290.3647Q140.28041 289.08307 141.42946 287.93402Q142.6006 286.76288 143.92644 286.74078Q145.25226 286.69656 146.20244 287.64676Q146.68857 288.13287 146.96478 288.80685Q147.22995 289.46976 147.28519 290.4531Q147.34044 291.4364 147.1747 293.4141Q147.03107 295.06033 147.05316 295.59067Q147.06422 296.10992 147.16365 296.54083L151.14113 292.56335ZM149.24078 288.387Q147.80447 286.95068 147.2189 285.7906Q146.64438 284.61945 146.75485 283.55878Q146.86534 282.49814 147.74922 281.61426Q148.4011 280.96237 149.15239 280.74142Q149.90369 280.49835 150.72128 280.6751Q151.53888 280.8519 152.42276 281.38223Q153.31769 281.90152 154.52199 283.1058Q155.94725 284.53107 156.53282 285.71326Q157.1184 286.87335 157.01895 287.94507Q156.90846 289.00574 156.02458 289.88962Q154.85344 291.06076 153.32874 290.88397Q151.52783 290.67404 149.24078 288.387ZM150.25725 287.37054Q152.25703 289.37033 153.38399 289.56918Q154.51094 289.74597 155.19594 289.06097Q155.88095 288.37595 155.68208 287.249Q155.48322 286.12204 153.49448 284.1333Q151.49469 282.1335 150.37878 281.9457Q149.25183 281.74683 148.55577 282.4429Q147.87076 283.1279 148.04753 284.12225Q148.26851 285.3818 150.25725 287.37054ZM155.60474 282.02304Q154.16843 280.58673 153.58286 279.42664Q153.00833 278.2555 153.11882 277.19482Q153.22931 276.13416 154.11319 275.25027Q154.76505 274.59842 155.51636 274.37744Q156.26765 274.13437 157.08525 274.31116Q157.90283 274.48795 158.78673 275.01828Q159.68166 275.53754 160.88594 276.74185Q162.3112 278.1671 162.89677 279.3493Q163.48236 280.5094 163.38292 281.58112Q163.27243 282.64175 162.38855 283.52563Q161.2174 284.69678 159.6927 284.52002Q157.89178 284.3101 155.60474 282.02304ZM156.6212 281.0066Q158.62099 283.00638 159.74794 283.20523Q160.8749 283.38202 161.5599 282.697Q162.24492 282.012 162.04604 280.88504Q161.84717 279.7581 159.85843 277.76935Q157.85864 275.76956 156.74274 275.58176Q155.61578 275.38287 154.91974 276.07892Q154.23473 276.76395 154.4115 277.7583Q154.63248 279.01785 156.6212 281.0066ZM164.23366 277.63678L165.10649 276.58716Q165.90198 277.1396 166.55385 277.10645Q167.19466 277.06226 167.72499 276.53192Q168.18903 276.06787 168.32161 275.51544Q168.4542 274.963 168.33266 274.39954Q168.20009 273.825 167.74709 273.08478Q167.30515 272.33347 166.68643 271.71475Q166.62013 271.64847 166.48756 271.51587Q166.66434 272.28928 166.44336 273.10687Q166.21135 273.91342 165.61472 274.51004Q164.6093 275.51544 163.18404 275.4823Q161.75877 275.44916 160.56554 274.25592Q159.33914 273.02954 159.306 271.56006Q159.2839 270.07956 160.37772 268.98575Q161.1732 268.19028 162.25597 267.9693Q163.32767 267.73727 164.45462 268.17923Q165.58157 268.62115 167.07314 270.1127Q168.63098 271.67056 169.2055 272.93008Q169.79108 274.1786 169.60324 275.33868Q169.42647 276.48773 168.53154 277.38266Q167.58136 278.33282 166.44336 278.41016Q165.3164 278.47647 164.23366 277.63678ZM164.74188 269.99118Q163.8801 269.1294 162.91888 269.09625Q161.95766 269.04102 161.31683 269.68182Q160.65393 270.34473 160.69812 271.3833Q160.75336 272.4108 161.61514 273.27258Q162.38855 274.046 163.33871 274.06808Q164.29994 274.07913 164.98495 273.39413Q165.66997 272.7091 165.62578 271.78104Q165.59262 270.84192 164.74188 269.99118Z" fill-rule="nonzero"/><path fill="#000000" d="M181.96281 311.01443Q180.5265 309.57812 179.94092 308.41803Q179.3664 307.2469 179.47688 306.18622Q179.58737 305.12555 180.47125 304.24167Q181.12312 303.5898 181.87442 303.36884Q182.62572 303.12576 183.44331 303.30255Q184.26091 303.4793 185.14479 304.00964Q186.03972 304.52893 187.24402 305.73322Q188.66928 307.15848 189.25485 308.34067Q189.84042 309.50076 189.74098 310.57248Q189.6305 311.63315 188.74661 312.51703Q187.57547 313.68817 186.05077 313.5114Q184.24986 313.30148 181.96281 311.01443ZM182.97928 309.99796Q184.97906 311.99774 186.10602 312.19662Q187.23297 312.3734 187.91797 311.6884Q188.60298 311.0034 188.40411 309.87643Q188.20523 308.74948 186.21649 306.76074Q184.2167 304.76096 183.10081 304.57312Q181.97386 304.37427 181.2778 305.0703Q180.59279 305.7553 180.76956 306.7497Q180.99054 308.00922 182.97928 309.99796ZM196.0718 304.90457L195.07742 305.89896L188.73557 299.5571Q188.71347 300.2642 188.4704 301.19226Q188.23839 302.1093 187.95113 302.75012L186.9899 301.7889Q187.42079 300.5625 187.48708 299.39136Q187.55338 298.19812 187.29926 297.41367L187.94006 296.77286L196.0718 304.90457ZM196.14914 299.96588L195.14372 298.96048L198.19312 295.91107L199.19853 296.91647L196.14914 299.96588ZM206.49057 292.56335L207.4518 293.5246L202.09326 298.88312Q201.7176 298.52957 201.51874 298.06552Q201.17622 297.3253 201.09889 296.34195Q201.02155 295.35864 201.17622 293.81186Q201.40825 291.4143 201.24252 290.3205Q201.06573 289.21564 200.50226 288.6522Q199.91669 288.0666 199.08806 288.07767Q198.25941 288.0887 197.5744 288.7737Q196.85625 289.49185 196.85625 290.35364Q196.85625 291.21542 197.61859 291.97778L196.49164 292.90585Q195.45308 291.64633 195.54147 290.36472Q195.62985 289.08307 196.7789 287.93402Q197.95006 286.76288 199.27588 286.74078Q200.6017 286.6966 201.55188 287.64676Q202.03801 288.1329 202.31422 288.80685Q202.57939 289.46976 202.63463 290.4531Q202.68988 291.4364 202.52415 293.4141Q202.38052 295.06033 202.40262 295.59067Q202.41367 296.10995 202.51309 296.54083L206.49057 292.56335ZM204.59023 288.38702Q203.15392 286.9507 202.56834 285.79062Q201.99382 284.61945 202.10431 283.5588Q202.21478 282.49814 203.09868 281.61426Q203.75053 280.9624 204.50183 280.74142Q205.25314 280.49835 206.07072 280.67514Q206.88832 280.8519 207.7722 281.38223Q208.66714 281.90152 209.87143 283.1058Q211.29669 284.53107 211.88226 285.71326Q212.46783 286.87335 212.3684 287.94507Q212.25792 289.00574 211.37404 289.88962Q210.20288 291.06076 208.67819 290.88397Q206.87727 290.67407 204.59023 288.38702ZM205.60669 287.37054Q207.60648 289.37033 208.73343 289.5692Q209.86038 289.74597 210.5454 289.06097Q211.23041 288.37598 211.03152 287.24902Q210.83266 286.12207 208.84392 284.13333Q206.84413 282.13354 205.72823 281.9457Q204.60127 281.74683 203.90521 282.4429Q203.2202 283.1279 203.39699 284.12228Q203.61795 285.3818 205.60669 287.37054ZM218.69922 282.27716L217.70485 283.27155L211.36298 276.92966Q211.34088 277.63678 211.09782 278.56485Q210.8658 279.48187 210.57854 280.1227L209.61731 279.16147Q210.0482 277.9351 210.1145 276.76395Q210.18079 275.5707 209.92667 274.78625L210.56749 274.14545L218.69922 282.27716ZM217.31815 275.6591Q215.88184 274.22278 215.29626 273.06268Q214.72174 271.89154 214.83223 270.83087Q214.9427 269.7702 215.8266 268.88632Q216.47845 268.23447 217.22975 268.0135Q217.98106 267.77042 218.79865 267.9472Q219.61624 268.124 220.50012 268.65433Q221.39507 269.17358 222.59935 270.3779Q224.02461 271.80316 224.61018 272.98535Q225.19576 274.14545 225.09633 275.21713Q224.98584 276.2778 224.10196 277.16168Q222.9308 278.33282 221.40611 278.15607Q219.6052 277.94614 217.31815 275.6591ZM218.33461 274.6426Q220.3344 276.6424 221.46135 276.84128Q222.5883 277.01807 223.27332 276.33304Q223.95833 275.64804 223.75945 274.5211Q223.56058 273.39413 221.57184 271.4054Q219.57205 269.4056 218.45615 269.21777Q217.3292 269.01892 216.63313 269.71497Q215.94814 270.4 216.12491 271.39435Q216.34587 272.6539 218.33461 274.6426Z" fill-rule="nonzero"/></svg>