<?xml version="1.0" encoding="utf-8" standalone="no"?>
<!DOCTYPE svg PUBLIC "-//W3C//DTD SVG 1.1//EN"
  "http://www.w3.org/Graphics/SVG/1.1/DTD/svg11.dtd">
<!-- Created with matplotlib (https://matplotlib.org/) -->
<svg height="324.245375pt" version="1.1" viewBox="0 0 388.95 324.245375" width="388.95pt" xmlns="http://www.w3.org/2000/svg" xmlns:xlink="http://www.w3.org/1999/xlink">
 <defs>
  <style type="text/css">
*{stroke-linecap:butt;stroke-linejoin:round;}
  </style>
 </defs>
 <g id="figure_1">
  <g id="patch_1">
   <path d="M 0 324.245375 
L 388.95 324.245375 
L 388.95 0 
L 0 0 
z
" style="fill:#ffffff;"/>
  </g>
  <g id="axes_1">
   <g id="patch_2">
    <path d="M 44.79 301.536 
L 321.99 301.536 
L 321.99 24.336 
L 44.79 24.336 
z
" style="fill:#ffffff;"/>
   </g>
   <g id="PathCollection_1"/>
   <g id="PathCollection_2"/>
   <g id="PathCollection_3"/>
   <g id="PathCollection_4"/>
   <g id="PathCollection_5"/>
   <g id="PathCollection_6"/>
   <g id="PathCollection_7"/>
   <g id="PathCollection_8"/>
   <g id="PathCollection_9"/>
   <g id="PathCollection_10">
    <path clip-path="url(#pb56682f7dd)" d="M 51.39 255.336 
L 51.39 242.136 
L 51.39 228.936 
L 51.39 215.736 
L 51.39 202.536 
L 51.39 189.336 
L 51.39 176.136 
L 51.39 162.936 
L 51.39 149.736 
L 51.39 136.536 
L 51.39 123.336 
L 51.39 110.136 
L 51.39 96.936 
L 51.39 91.7879 
L 63.607331 83.736 
L 64.59 82.124969 
L 74.980317 70.536 
L 64.59 58.494945 
L 64.161846 57.336 
L 60.405268 44.136 
L 64.59 34.845693 
L 68.819106 30.936 
L 77.79 30.936 
L 90.99 30.936 
L 104.19 30.936 
L 117.39 30.936 
L 130.59 30.936 
L 143.79 30.936 
L 156.99 30.936 
L 170.19 30.936 
L 183.39 30.936 
L 196.59 30.936 
L 209.79 30.936 
L 222.99 30.936 
L 236.19 30.936 
L 243.754291 30.936 
L 249.39 37.066436 
L 262.59 38.512635 
L 266.814286 30.936 
L 275.79 30.936 
L 288.99 30.936 
L 302.19 30.936 
L 315.39 30.936 
L 315.39 44.136 
L 315.39 57.336 
L 315.39 58.915729 
L 311.609555 70.536 
L 311.927672 83.736 
L 315.39 88.513337 
L 315.39 96.936 
L 315.39 110.136 
L 315.39 123.336 
L 315.39 131.922421 
L 310.846135 136.536 
L 302.19 142.943337 
L 288.99 146.979357 
L 275.79 147.80395 
L 271.071565 149.736 
L 262.59 157.845799 
L 255.756049 162.936 
L 257.016882 176.136 
L 262.59 186.827596 
L 275.79 183.099173 
L 288.99 178.709114 
L 302.19 177.936449 
L 315.39 182.099585 
L 315.39 189.336 
L 315.39 202.536 
L 315.39 215.736 
L 315.39 228.936 
L 315.39 242.136 
L 315.39 242.823717 
L 302.19 254.761893 
L 299.93036 255.336 
L 288.99 257.771579 
L 281.804643 255.336 
L 275.79 251.214396 
L 269.522478 242.136 
L 268.483126 228.936 
L 265.675829 215.736 
L 262.59 204.064545 
L 249.39 212.017084 
L 247.08197 215.736 
L 236.19 225.498266 
L 224.779791 228.936 
L 222.99 231.742736 
L 221.476368 228.936 
L 209.79 226.87699 
L 197.528869 215.736 
L 196.59 214.250806 
L 193.498165 202.536 
L 195.907408 189.336 
L 196.59 188.377092 
L 209.79 176.669113 
L 211.04147 176.136 
L 222.99 169.155512 
L 233.352271 162.936 
L 230.718304 149.736 
L 223.753779 136.536 
L 222.99 133.52484 
L 222.012397 123.336 
L 222.99 119.053081 
L 228.624497 110.136 
L 236.19 102.225182 
L 249.39 98.840566 
L 262.59 97.332041 
L 263.444363 96.936 
L 271.806666 83.736 
L 267.569272 70.536 
L 262.59 59.034947 
L 249.39 58.777328 
L 236.19 63.537612 
L 222.99 64.667418 
L 209.79 63.002885 
L 196.59 61.470328 
L 183.39 62.421443 
L 170.19 68.880823 
L 167.531422 70.536 
L 156.99 77.550739 
L 144.437811 83.736 
L 143.79 84.325094 
L 130.59 84.895385 
L 126.963013 83.736 
L 117.39 80.526846 
L 104.19 77.230342 
L 90.99 77.456433 
L 82.667072 83.736 
L 86.826446 96.936 
L 90.99 109.190559 
L 91.315934 110.136 
L 92.077834 123.336 
L 90.99 129.470943 
L 89.390805 136.536 
L 90.99 140.252432 
L 95.290994 149.736 
L 103.437138 162.936 
L 104.19 165.639509 
L 105.759042 176.136 
L 104.31062 189.336 
L 104.19 189.666958 
L 98.923054 202.536 
L 93.092421 215.736 
L 90.99 223.45469 
L 87.112096 228.936 
L 80.515638 242.136 
L 77.79 249.886179 
L 70.918822 255.336 
L 64.59 261.54063 
L 51.39 265.520507 
z
" style="fill:#8e8e8e;"/>
    <path clip-path="url(#pb56682f7dd)" d="M 179.877695 281.736 
L 183.39 274.141713 
L 186.307865 268.536 
L 196.59 256.098052 
L 197.723196 255.336 
L 209.79 247.614616 
L 222.99 244.14378 
L 236.19 246.644361 
L 246.437133 255.336 
L 249.39 262.835674 
L 251.068478 268.536 
L 249.39 279.101115 
L 249.026224 281.736 
L 241.564023 294.936 
L 236.19 294.936 
L 222.99 294.936 
L 209.79 294.936 
L 196.59 294.936 
L 183.39 294.936 
L 180.61301 294.936 
z
" style="fill:#8e8e8e;"/>
   </g>
   <g id="PathCollection_11">
    <path clip-path="url(#pb56682f7dd)" d="M 51.39 281.736 
L 51.39 268.536 
L 51.39 265.520507 
L 64.59 261.54063 
L 70.918822 255.336 
L 77.79 249.886179 
L 80.515638 242.136 
L 87.112096 228.936 
L 90.99 223.45469 
L 93.092421 215.736 
L 98.923054 202.536 
L 104.19 189.666958 
L 104.31062 189.336 
L 105.759042 176.136 
L 104.19 165.639509 
L 103.437138 162.936 
L 95.290994 149.736 
L 90.99 140.252432 
L 89.390805 136.536 
L 90.99 129.470943 
L 92.077834 123.336 
L 91.315934 110.136 
L 90.99 109.190559 
L 86.826446 96.936 
L 82.667072 83.736 
L 90.99 77.456433 
L 104.19 77.230342 
L 117.39 80.526846 
L 126.963013 83.736 
L 130.59 84.895385 
L 143.79 84.325094 
L 144.437811 83.736 
L 156.99 77.550739 
L 167.531422 70.536 
L 170.19 68.880823 
L 183.39 62.421443 
L 196.59 61.470328 
L 209.79 63.002885 
L 222.99 64.667418 
L 236.19 63.537612 
L 249.39 58.777328 
L 262.59 59.034947 
L 267.569272 70.536 
L 271.806666 83.736 
L 263.444363 96.936 
L 262.59 97.332041 
L 249.39 98.840566 
L 236.19 102.225182 
L 228.624497 110.136 
L 222.99 119.053081 
L 222.012397 123.336 
L 222.99 133.52484 
L 223.753779 136.536 
L 230.718304 149.736 
L 233.352271 162.936 
L 222.99 169.155512 
L 211.04147 176.136 
L 209.79 176.669113 
L 196.59 188.377092 
L 195.907408 189.336 
L 193.498165 202.536 
L 196.59 214.250806 
L 197.528869 215.736 
L 209.79 226.87699 
L 221.476368 228.936 
L 222.99 231.742736 
L 224.779791 228.936 
L 236.19 225.498266 
L 247.08197 215.736 
L 249.39 212.017084 
L 262.59 204.064545 
L 265.675829 215.736 
L 268.483126 228.936 
L 269.522478 242.136 
L 275.79 251.214396 
L 281.804643 255.336 
L 288.99 257.771579 
L 299.93036 255.336 
L 302.19 254.761893 
L 315.39 242.823717 
L 315.39 255.336 
L 315.39 268.536 
L 315.39 281.736 
L 315.39 294.936 
L 302.19 294.936 
L 288.99 294.936 
L 275.79 294.936 
L 262.59 294.936 
L 249.39 294.936 
L 241.564023 294.936 
L 249.026224 281.736 
L 249.39 279.101115 
L 251.068478 268.536 
L 249.39 262.835674 
L 246.437133 255.336 
L 236.19 246.644361 
L 222.99 244.14378 
L 209.79 247.614616 
L 197.723196 255.336 
L 196.59 256.098052 
L 186.307865 268.536 
L 183.39 274.141713 
L 179.877695 281.736 
L 180.61301 294.936 
L 170.19 294.936 
L 156.99 294.936 
L 143.79 294.936 
L 130.59 294.936 
L 117.39 294.936 
L 104.19 294.936 
L 90.99 294.936 
L 77.79 294.936 
L 64.59 294.936 
L 51.39 294.936 
z
M 104.19 260.897855 
L 108.954401 268.536 
L 117.39 277.90371 
L 127.029927 281.736 
L 130.59 284.403311 
L 143.79 286.26607 
L 150.773099 281.736 
L 156.99 280.599921 
L 170.157048 268.536 
L 170.19 268.517919 
L 182.499985 255.336 
L 183.39 253.326612 
L 192.763692 242.136 
L 194.135257 228.936 
L 188.632616 215.736 
L 183.39 204.574539 
L 182.571314 202.536 
L 180.639166 189.336 
L 183.39 182.920786 
L 187.419734 176.136 
L 196.59 170.200149 
L 205.384268 162.936 
L 209.79 156.657618 
L 213.537914 149.736 
L 212.975892 136.536 
L 212.179252 123.336 
L 215.844168 110.136 
L 219.362905 96.936 
L 213.971383 83.736 
L 209.79 80.811176 
L 196.59 73.169398 
L 183.39 71.857091 
L 170.19 77.693451 
L 163.051445 83.736 
L 157.140545 96.936 
L 156.99 98.462751 
L 153.347846 110.136 
L 155.792176 123.336 
L 156.99 131.647968 
L 157.340487 136.536 
L 156.99 140.624468 
L 155.156649 149.736 
L 150.638276 162.936 
L 143.79 169.070784 
L 136.511777 176.136 
L 130.59 179.027347 
L 121.975334 189.336 
L 117.39 193.524686 
L 111.263635 202.536 
L 104.58283 215.736 
L 104.19 217.474116 
L 97.780738 228.936 
L 96.427873 242.136 
L 100.940788 255.336 
z
" style="fill:#777777;"/>
    <path clip-path="url(#pb56682f7dd)" d="M 51.39 83.736 
L 51.39 70.536 
L 51.39 57.336 
L 51.39 44.136 
L 51.39 30.936 
L 64.59 30.936 
L 68.819106 30.936 
L 64.59 34.845693 
L 60.405268 44.136 
L 64.161846 57.336 
L 64.59 58.494945 
L 74.980317 70.536 
L 64.59 82.124969 
L 63.607331 83.736 
L 51.39 91.7879 
z
" style="fill:#777777;"/>
    <path clip-path="url(#pb56682f7dd)" d="M 243.754291 30.936 
L 249.39 30.936 
L 262.59 30.936 
L 266.814286 30.936 
L 262.59 38.512635 
L 249.39 37.066436 
z
" style="fill:#777777;"/>
    <path clip-path="url(#pb56682f7dd)" d="M 257.016882 176.136 
L 255.756049 162.936 
L 262.59 157.845799 
L 271.071565 149.736 
L 275.79 147.80395 
L 288.99 146.979357 
L 302.19 142.943337 
L 310.846135 136.536 
L 315.39 131.922421 
L 315.39 136.536 
L 315.39 149.736 
L 315.39 162.936 
L 315.39 176.136 
L 315.39 182.099585 
L 302.19 177.936449 
L 288.99 178.709114 
L 275.79 183.099173 
L 262.59 186.827596 
z
" style="fill:#777777;"/>
    <path clip-path="url(#pb56682f7dd)" d="M 311.927672 83.736 
L 311.609555 70.536 
L 315.39 58.915729 
L 315.39 70.536 
L 315.39 83.736 
L 315.39 88.513337 
z
" style="fill:#777777;"/>
   </g>
   <g id="PathCollection_12">
    <path clip-path="url(#pb56682f7dd)" d="M 100.940788 255.336 
L 96.427873 242.136 
L 97.780738 228.936 
L 104.19 217.474116 
L 104.58283 215.736 
L 111.263635 202.536 
L 117.39 193.524686 
L 121.975334 189.336 
L 130.59 179.027347 
L 136.511777 176.136 
L 143.79 169.070784 
L 150.638276 162.936 
L 155.156649 149.736 
L 156.99 140.624468 
L 157.340487 136.536 
L 156.99 131.647968 
L 155.792176 123.336 
L 153.347846 110.136 
L 156.99 98.462751 
L 157.140545 96.936 
L 163.051445 83.736 
L 170.19 77.693451 
L 183.39 71.857091 
L 196.59 73.169398 
L 209.79 80.811176 
L 213.971383 83.736 
L 219.362905 96.936 
L 215.844168 110.136 
L 212.179252 123.336 
L 212.975892 136.536 
L 213.537914 149.736 
L 209.79 156.657618 
L 205.384268 162.936 
L 196.59 170.200149 
L 187.419734 176.136 
L 183.39 182.920786 
L 180.639166 189.336 
L 182.571314 202.536 
L 183.39 204.574539 
L 188.632616 215.736 
L 194.135257 228.936 
L 192.763692 242.136 
L 183.39 253.326612 
L 182.499985 255.336 
L 170.19 268.517919 
L 170.157048 268.536 
L 156.99 280.599921 
L 150.773099 281.736 
L 143.79 286.26607 
L 130.59 284.403311 
L 127.029927 281.736 
L 117.39 277.90371 
L 108.954401 268.536 
L 104.19 260.897855 
z
M 117.39 266.646872 
L 122.066121 268.536 
L 130.59 274.928834 
L 143.79 277.193468 
L 156.99 272.763161 
L 161.603694 268.536 
L 170.19 263.824556 
L 178.11707 255.336 
L 183.39 243.431292 
L 184.474987 242.136 
L 187.720345 228.936 
L 183.39 220.358133 
L 182.41781 215.736 
L 175.526217 202.536 
L 170.19 193.301285 
L 161.784917 189.336 
L 156.99 186.214391 
L 143.79 186.891434 
L 139.870814 189.336 
L 130.59 191.572277 
L 119.261672 202.536 
L 117.39 203.870901 
L 107.69309 215.736 
L 104.34574 228.936 
L 104.198261 242.136 
L 107.04528 255.336 
z
M 170.19 130.818595 
L 171.262863 136.536 
L 172.679336 149.736 
L 183.39 161.438354 
L 196.59 156.458697 
L 202.006878 149.736 
L 203.983545 136.536 
L 204.644782 123.336 
L 208.151485 110.136 
L 209.418922 96.936 
L 202.006339 83.736 
L 196.59 79.954624 
L 183.39 76.629719 
L 172.033971 83.736 
L 170.19 86.782769 
L 164.367329 96.936 
L 164.478617 110.136 
L 168.730384 123.336 
z
" style="fill:#686868;"/>
   </g>
   <g id="PathCollection_13">
    <path clip-path="url(#pb56682f7dd)" d="M 107.04528 255.336 
L 104.198261 242.136 
L 104.34574 228.936 
L 107.69309 215.736 
L 117.39 203.870901 
L 119.261672 202.536 
L 130.59 191.572277 
L 139.870814 189.336 
L 143.79 186.891434 
L 156.99 186.214391 
L 161.784917 189.336 
L 170.19 193.301285 
L 175.526217 202.536 
L 182.41781 215.736 
L 183.39 220.358133 
L 187.720345 228.936 
L 184.474987 242.136 
L 183.39 243.431292 
L 178.11707 255.336 
L 170.19 263.824556 
L 161.603694 268.536 
L 156.99 272.763161 
L 143.79 277.193468 
L 130.59 274.928834 
L 122.066121 268.536 
L 117.39 266.646872 
z
M 117.39 262.663717 
L 130.59 268.41181 
L 133.036092 268.536 
L 143.79 271.767382 
L 151.233205 268.536 
L 156.99 268.015512 
L 170.19 259.131193 
L 173.734155 255.336 
L 182.266585 242.136 
L 183.038073 228.936 
L 179.745075 215.736 
L 170.19 203.374707 
L 168.751398 202.536 
L 156.99 193.178958 
L 143.79 192.201147 
L 130.59 196.736532 
L 124.597668 202.536 
L 117.39 207.676603 
L 110.803351 215.736 
L 105.27767 228.936 
L 105.126524 242.136 
L 110.688202 255.336 
z
" style="fill:#5d5d5d;"/>
    <path clip-path="url(#pb56682f7dd)" d="M 168.730384 123.336 
L 164.478617 110.136 
L 164.367329 96.936 
L 170.19 86.782769 
L 172.033971 83.736 
L 183.39 76.629719 
L 196.59 79.954624 
L 202.006339 83.736 
L 209.418922 96.936 
L 208.151485 110.136 
L 204.644782 123.336 
L 203.983545 136.536 
L 202.006878 149.736 
L 196.59 156.458697 
L 183.39 161.438354 
L 172.679336 149.736 
L 171.262863 136.536 
L 170.19 130.818595 
z
M 183.39 137.630296 
L 185.926465 136.536 
L 196.59 131.347964 
L 197.848115 123.336 
L 203.158128 110.136 
L 204.450163 96.936 
L 196.59 86.622317 
L 190.31772 83.736 
L 183.39 81.402346 
L 179.660759 83.736 
L 171.111381 96.936 
L 172.311683 110.136 
L 178.687324 123.336 
L 183.053825 136.536 
z
" style="fill:#5d5d5d;"/>
   </g>
   <g id="PathCollection_14">
    <path clip-path="url(#pb56682f7dd)" d="M 110.688202 255.336 
L 105.126524 242.136 
L 105.27767 228.936 
L 110.803351 215.736 
L 117.39 207.676603 
L 124.597668 202.536 
L 130.59 196.736532 
L 143.79 192.201147 
L 156.99 193.178958 
L 168.751398 202.536 
L 170.19 203.374707 
L 179.745075 215.736 
L 183.038073 228.936 
L 182.266585 242.136 
L 173.734155 255.336 
L 170.19 259.131193 
L 156.99 268.015512 
L 151.233205 268.536 
L 143.79 271.767382 
L 133.036092 268.536 
L 130.59 268.41181 
L 117.39 262.663717 
z
M 117.39 258.680561 
L 130.59 267.495003 
L 143.79 268.165348 
L 156.99 266.885488 
L 169.947385 255.336 
L 170.19 255.040001 
L 180.973967 242.136 
L 181.955074 228.936 
L 177.072339 215.736 
L 170.19 206.832395 
L 162.820561 202.536 
L 156.99 197.897367 
L 143.79 195.707474 
L 130.59 201.900788 
L 129.933663 202.536 
L 117.39 211.482305 
L 113.913611 215.736 
L 106.2096 228.936 
L 106.054787 242.136 
L 114.331124 255.336 
z
" style="fill:#545454;"/>
    <path clip-path="url(#pb56682f7dd)" d="M 183.053825 136.536 
L 178.687324 123.336 
L 172.311683 110.136 
L 171.111381 96.936 
L 179.660759 83.736 
L 183.39 81.402346 
L 190.31772 83.736 
L 196.59 86.622317 
L 204.450163 96.936 
L 203.158128 110.136 
L 197.848115 123.336 
L 196.59 131.347964 
L 185.926465 136.536 
L 183.39 137.630296 
z
M 183.39 118.455072 
L 196.59 113.81914 
L 198.164771 110.136 
L 199.481405 96.936 
L 196.59 93.142054 
L 183.39 86.947839 
L 175.853607 96.936 
L 178.224969 110.136 
z
" style="fill:#545454;"/>
   </g>
   <g id="PathCollection_15">
    <path clip-path="url(#pb56682f7dd)" d="M 114.331124 255.336 
L 106.054787 242.136 
L 106.2096 228.936 
L 113.913611 215.736 
L 117.39 211.482305 
L 129.933663 202.536 
L 130.59 201.900788 
L 143.79 195.707474 
L 156.99 197.897367 
L 162.820561 202.536 
L 170.19 206.832395 
L 177.072339 215.736 
L 181.955074 228.936 
L 180.973967 242.136 
L 170.19 255.040001 
L 169.947385 255.336 
L 156.99 266.885488 
L 143.79 268.165348 
L 130.59 267.495003 
L 117.39 258.680561 
z
M 117.39 255.149897 
L 117.560356 255.336 
L 130.59 266.578195 
L 143.79 267.248966 
L 156.99 265.755463 
L 168.679609 255.336 
L 170.19 253.493265 
L 179.681349 242.136 
L 180.872075 228.936 
L 174.399603 215.736 
L 170.19 210.290083 
L 156.99 202.553145 
L 156.75858 202.536 
L 143.79 199.213801 
L 136.93501 202.536 
L 130.59 203.370213 
L 117.39 215.288007 
L 117.023872 215.736 
L 107.14153 228.936 
L 106.98305 242.136 
z
" style="fill:#4d4d4d;"/>
    <path clip-path="url(#pb56682f7dd)" d="M 178.224969 110.136 
L 175.853607 96.936 
L 183.39 86.947839 
L 196.59 93.142054 
L 199.481405 96.936 
L 198.164771 110.136 
L 196.59 113.81914 
L 183.39 118.455072 
z
M 183.39 107.802356 
L 191.111262 96.936 
L 183.39 93.232824 
L 180.595832 96.936 
z
" style="fill:#4d4d4d;"/>
   </g>
   <g id="PathCollection_16">
    <path clip-path="url(#pb56682f7dd)" d="M 106.98305 242.136 
L 107.14153 228.936 
L 117.023872 215.736 
L 117.39 215.288007 
L 130.59 203.370213 
L 136.93501 202.536 
L 143.79 199.213801 
L 156.75858 202.536 
L 156.99 202.553145 
L 170.19 210.290083 
L 174.399603 215.736 
L 180.872075 228.936 
L 179.681349 242.136 
L 170.19 253.493265 
L 168.679609 255.336 
L 156.99 265.755463 
L 143.79 267.248966 
L 130.59 266.578195 
L 117.560356 255.336 
L 117.39 255.149897 
z
M 117.39 253.989104 
L 118.622931 255.336 
L 130.59 265.661387 
L 143.79 266.332584 
L 156.99 264.625438 
L 167.411832 255.336 
L 170.19 251.94653 
L 178.388731 242.136 
L 179.789077 228.936 
L 171.726868 215.736 
L 170.19 213.747772 
L 156.99 203.567211 
L 143.79 202.593513 
L 130.59 204.321428 
L 118.294043 215.736 
L 117.39 216.806485 
L 108.073461 228.936 
L 107.911312 242.136 
z
" style="fill:#474747;"/>
    <path clip-path="url(#pb56682f7dd)" d="M 180.595832 96.936 
L 183.39 93.232824 
L 191.111262 96.936 
L 183.39 107.802356 
z
" style="fill:#474747;"/>
   </g>
   <g id="PathCollection_17">
    <path clip-path="url(#pb56682f7dd)" d="M 107.911312 242.136 
L 108.073461 228.936 
L 117.39 216.806485 
L 118.294043 215.736 
L 130.59 204.321428 
L 143.79 202.593513 
L 156.99 203.567211 
L 170.19 213.747772 
L 171.726868 215.736 
L 179.789077 228.936 
L 178.388731 242.136 
L 170.19 251.94653 
L 167.411832 255.336 
L 156.99 264.625438 
L 143.79 266.332584 
L 130.59 265.661387 
L 118.622931 255.336 
L 117.39 253.989104 
z
M 117.39 252.828311 
L 119.685506 255.336 
L 130.59 264.74458 
L 143.79 265.416202 
L 156.99 263.495413 
L 166.144056 255.336 
L 170.19 250.399795 
L 177.096113 242.136 
L 178.706078 228.936 
L 170.19 216.412822 
L 169.69899 215.736 
L 156.99 204.581277 
L 143.79 203.68872 
L 130.59 205.272642 
L 119.318707 215.736 
L 117.39 218.019796 
L 109.005391 228.936 
L 108.839575 242.136 
z
" style="fill:#424242;"/>
   </g>
   <g id="PathCollection_18">
    <path clip-path="url(#pb56682f7dd)" d="M 108.839575 242.136 
L 109.005391 228.936 
L 117.39 218.019796 
L 119.318707 215.736 
L 130.59 205.272642 
L 143.79 203.68872 
L 156.99 204.581277 
L 169.69899 215.736 
L 170.19 216.412822 
L 178.706078 228.936 
L 177.096113 242.136 
L 170.19 250.399795 
L 166.144056 255.336 
L 156.99 263.495413 
L 143.79 265.416202 
L 130.59 264.74458 
L 119.685506 255.336 
L 117.39 252.828311 
z
M 117.39 251.667518 
L 120.748081 255.336 
L 130.59 263.827772 
L 143.79 264.49982 
L 156.99 262.365388 
L 164.87628 255.336 
L 170.19 248.853059 
L 175.803495 242.136 
L 177.623079 228.936 
L 170.19 218.005408 
L 168.543627 215.736 
L 156.99 205.595343 
L 143.79 204.783927 
L 130.59 206.223856 
L 120.34337 215.736 
L 117.39 219.233107 
L 109.937321 228.936 
L 109.767838 242.136 
z
" style="fill:#3d3d3d;"/>
   </g>
   <g id="PathCollection_19">
    <path clip-path="url(#pb56682f7dd)" d="M 109.767838 242.136 
L 109.937321 228.936 
L 117.39 219.233107 
L 120.34337 215.736 
L 130.59 206.223856 
L 143.79 204.783927 
L 156.99 205.595343 
L 168.543627 215.736 
L 170.19 218.005408 
L 177.623079 228.936 
L 175.803495 242.136 
L 170.19 248.853059 
L 164.87628 255.336 
L 156.99 262.365388 
L 143.79 264.49982 
L 130.59 263.827772 
L 120.748081 255.336 
L 117.39 251.667518 
z
" style="fill:#2c2c2c;"/>
   </g>
   <g id="PathCollection_20"/>
   <g id="PathCollection_21"/>
   <g id="matplotlib.axis_1">
    <g id="xtick_1">
     <g id="line2d_1">
      <defs>
       <path d="M 0 0 
L 0 3.5 
" id="mf0e85e43d3" style="stroke:#000000;stroke-width:0.8;"/>
      </defs>
      <g>
       <use style="stroke:#000000;stroke-width:0.8;" x="44.79" xlink:href="#mf0e85e43d3" y="301.536"/>
      </g>
     </g>
     <g id="text_1">
      <text style="font-family:DejaVu Sans;font-size:14px;font-style:normal;font-weight:normal;text-anchor:middle;" transform="rotate(-0, 44.79, 319.173813)" x="44.79" y="319.173813">0</text>
     </g>
    </g>
    <g id="xtick_2">
     <g id="line2d_2">
      <g>
       <use style="stroke:#000000;stroke-width:0.8;" x="100.23" xlink:href="#mf0e85e43d3" y="301.536"/>
      </g>
     </g>
     <g id="text_2">
      <text style="font-family:DejaVu Sans;font-size:14px;font-style:normal;font-weight:normal;text-anchor:middle;" transform="rotate(-0, 100.23, 319.173813)" x="100.23" y="319.173813">200</text>
     </g>
    </g>
    <g id="xtick_3">
     <g id="line2d_3">
      <g>
       <use style="stroke:#000000;stroke-width:0.8;" x="155.67" xlink:href="#mf0e85e43d3" y="301.536"/>
      </g>
     </g>
     <g id="text_3">
      <text style="font-family:DejaVu Sans;font-size:14px;font-style:normal;font-weight:normal;text-anchor:middle;" transform="rotate(-0, 155.67, 319.173813)" x="155.67" y="319.173813">400</text>
     </g>
    </g>
    <g id="xtick_4">
     <g id="line2d_4">
      <g>
       <use style="stroke:#000000;stroke-width:0.8;" x="211.11" xlink:href="#mf0e85e43d3" y="301.536"/>
      </g>
     </g>
     <g id="text_4">
      <text style="font-family:DejaVu Sans;font-size:14px;font-style:normal;font-weight:normal;text-anchor:middle;" transform="rotate(-0, 211.11, 319.173813)" x="211.11" y="319.173813">600</text>
     </g>
    </g>
    <g id="xtick_5">
     <g id="line2d_5">
      <g>
       <use style="stroke:#000000;stroke-width:0.8;" x="266.55" xlink:href="#mf0e85e43d3" y="301.536"/>
      </g>
     </g>
     <g id="text_5">
      <text style="font-family:DejaVu Sans;font-size:14px;font-style:normal;font-weight:normal;text-anchor:middle;" transform="rotate(-0, 266.55, 319.173813)" x="266.55" y="319.173813">800</text>
     </g>
    </g>
    <g id="xtick_6">
     <g id="line2d_6">
      <g>
       <use style="stroke:#000000;stroke-width:0.8;" x="321.99" xlink:href="#mf0e85e43d3" y="301.536"/>
      </g>
     </g>
     <g id="text_6">
      <text style="font-family:DejaVu Sans;font-size:14px;font-style:normal;font-weight:normal;text-anchor:middle;" transform="rotate(-0, 321.99, 319.173813)" x="321.99" y="319.173813">1000</text>
     </g>
    </g>
   </g>
   <g id="matplotlib.axis_2">
    <g id="ytick_1">
     <g id="line2d_7">
      <defs>
       <path d="M 0 0 
L -3.5 0 
" id="me811c8f2ce" style="stroke:#000000;stroke-width:0.8;"/>
      </defs>
      <g>
       <use style="stroke:#000000;stroke-width:0.8;" x="44.79" xlink:href="#me811c8f2ce" y="301.536"/>
      </g>
     </g>
     <g id="text_7">
      <text style="font-family:DejaVu Sans;font-size:14px;font-style:normal;font-weight:normal;text-anchor:end;" transform="rotate(-0, 37.79, 306.854906)" x="37.79" y="306.854906">0</text>
     </g>
    </g>
    <g id="ytick_2">
     <g id="line2d_8">
      <g>
       <use style="stroke:#000000;stroke-width:0.8;" x="44.79" xlink:href="#me811c8f2ce" y="246.096"/>
      </g>
     </g>
     <g id="text_8">
      <text style="font-family:DejaVu Sans;font-size:14px;font-style:normal;font-weight:normal;text-anchor:end;" transform="rotate(-0, 37.79, 251.414906)" x="37.79" y="251.414906">200</text>
     </g>
    </g>
    <g id="ytick_3">
     <g id="line2d_9">
      <g>
       <use style="stroke:#000000;stroke-width:0.8;" x="44.79" xlink:href="#me811c8f2ce" y="190.656"/>
      </g>
     </g>
     <g id="text_9">
      <text style="font-family:DejaVu Sans;font-size:14px;font-style:normal;font-weight:normal;text-anchor:end;" transform="rotate(-0, 37.79, 195.974906)" x="37.79" y="195.974906">400</text>
     </g>
    </g>
    <g id="ytick_4">
     <g id="line2d_10">
      <g>
       <use style="stroke:#000000;stroke-width:0.8;" x="44.79" xlink:href="#me811c8f2ce" y="135.216"/>
      </g>
     </g>
     <g id="text_10">
      <text style="font-family:DejaVu Sans;font-size:14px;font-style:normal;font-weight:normal;text-anchor:end;" transform="rotate(-0, 37.79, 140.534906)" x="37.79" y="140.534906">600</text>
     </g>
    </g>
    <g id="ytick_5">
     <g id="line2d_11">
      <g>
       <use style="stroke:#000000;stroke-width:0.8;" x="44.79" xlink:href="#me811c8f2ce" y="79.776"/>
      </g>
     </g>
     <g id="text_11">
      <text style="font-family:DejaVu Sans;font-size:14px;font-style:normal;font-weight:normal;text-anchor:end;" transform="rotate(-0, 37.79, 85.094906)" x="37.79" y="85.094906">800</text>
     </g>
    </g>
    <g id="ytick_6">
     <g id="line2d_12">
      <g>
       <use style="stroke:#000000;stroke-width:0.8;" x="44.79" xlink:href="#me811c8f2ce" y="24.336"/>
      </g>
     </g>
     <g id="text_12">
      <text style="font-family:DejaVu Sans;font-size:14px;font-style:normal;font-weight:normal;text-anchor:end;" transform="rotate(-0, 37.79, 29.654906)" x="37.79" y="29.654906">1000</text>
     </g>
    </g>
   </g>
   <g id="line2d_13">
    <defs>
     <path d="M -2 0 
L 2 0 
M 0 2 
L 0 -2 
" id="m05a43545bf" style="stroke:#000000;"/>
    </defs>
    <g clip-path="url(#pb56682f7dd)">
     <use style="stroke:#000000;" x="161.889341" xlink:href="#m05a43545bf" y="232.20875"/>
     <use style="stroke:#000000;" x="41.4537" xlink:href="#m05a43545bf" y="205.881734"/>
     <use style="stroke:#000000;" x="308.681159" xlink:href="#m05a43545bf" y="115.151461"/>
     <use style="stroke:#000000;" x="281.684481" xlink:href="#m05a43545bf" y="54.7792"/>
     <use style="stroke:#000000;" x="129.105286" xlink:href="#m05a43545bf" y="43.876038"/>
     <use style="stroke:#000000;" x="210.41285" xlink:href="#m05a43545bf" y="90.84672"/>
     <use style="stroke:#000000;" x="214.271236" xlink:href="#m05a43545bf" y="194.372853"/>
     <use style="stroke:#000000;" x="148.115609" xlink:href="#m05a43545bf" y="134.852652"/>
     <use style="stroke:#000000;" x="299.382665" xlink:href="#m05a43545bf" y="106.429893"/>
     <use style="stroke:#000000;" x="222.314429" xlink:href="#m05a43545bf" y="268.483919"/>
     <use style="stroke:#000000;" x="214.264017" xlink:href="#m05a43545bf" y="218.825616"/>
     <use style="stroke:#000000;" x="187.650217" xlink:href="#m05a43545bf" y="72.471013"/>
     <use style="stroke:#000000;" x="70.6127" xlink:href="#m05a43545bf" y="41.500048"/>
     <use style="stroke:#000000;" x="199.009493" xlink:href="#m05a43545bf" y="195.086422"/>
     <use style="stroke:#000000;" x="270.864577" xlink:href="#m05a43545bf" y="121.346261"/>
     <use style="stroke:#000000;" x="179.126659" xlink:href="#m05a43545bf" y="80.048804"/>
     <use style="stroke:#000000;" x="146.929543" xlink:href="#m05a43545bf" y="207.882599"/>
     <use style="stroke:#000000;" x="131.396692" xlink:href="#m05a43545bf" y="57.674839"/>
     <use style="stroke:#000000;" x="151.135188" xlink:href="#m05a43545bf" y="237.417286"/>
     <use style="stroke:#000000;" x="304.120126" xlink:href="#m05a43545bf" y="242.519532"/>
     <use style="stroke:#000000;" x="137.515598" xlink:href="#m05a43545bf" y="235.581264"/>
     <use style="stroke:#000000;" x="58.258661" xlink:href="#m05a43545bf" y="201.759349"/>
     <use style="stroke:#000000;" x="142.605953" xlink:href="#m05a43545bf" y="238.975627"/>
     <use style="stroke:#000000;" x="155.023187" xlink:href="#m05a43545bf" y="241.716005"/>
     <use style="stroke:#000000;" x="188.34828" xlink:href="#m05a43545bf" y="150.088477"/>
     <use style="stroke:#000000;" x="139.124583" xlink:href="#m05a43545bf" y="242.524645"/>
     <use style="stroke:#000000;" x="290.372885" xlink:href="#m05a43545bf" y="40.084514"/>
     <use style="stroke:#000000;" x="147.552568" xlink:href="#m05a43545bf" y="247.117792"/>
     <use style="stroke:#000000;" x="149.513362" xlink:href="#m05a43545bf" y="228.527614"/>
     <use style="stroke:#000000;" x="75.700851" xlink:href="#m05a43545bf" y="116.164564"/>
     <use style="stroke:#000000;" x="59.963109" xlink:href="#m05a43545bf" y="183.156973"/>
     <use style="stroke:#000000;" x="307.563259" xlink:href="#m05a43545bf" y="202.239658"/>
     <use style="stroke:#000000;" x="184.425685" xlink:href="#m05a43545bf" y="90.697503"/>
     <use style="stroke:#000000;" x="181.967958" xlink:href="#m05a43545bf" y="109.76621"/>
     <use style="stroke:#000000;" x="218.539845" xlink:href="#m05a43545bf" y="206.227845"/>
     <use style="stroke:#000000;" x="132.042997" xlink:href="#m05a43545bf" y="239.669314"/>
     <use style="stroke:#000000;" x="124.406134" xlink:href="#m05a43545bf" y="236.64895"/>
     <use style="stroke:#000000;" x="161.276239" xlink:href="#m05a43545bf" y="46.078004"/>
     <use style="stroke:#000000;" x="189.732116" xlink:href="#m05a43545bf" y="101.362347"/>
     <use style="stroke:#000000;" x="202.354351" xlink:href="#m05a43545bf" y="276.00065"/>
     <use style="stroke:#000000;" x="82.3622" xlink:href="#m05a43545bf" y="48.267827"/>
     <use style="stroke:#000000;" x="194.862764" xlink:href="#m05a43545bf" y="112.716929"/>
     <use style="stroke:#000000;" x="159.677723" xlink:href="#m05a43545bf" y="130.212963"/>
     <use style="stroke:#000000;" x="286.647563" xlink:href="#m05a43545bf" y="243.232288"/>
     <use style="stroke:#000000;" x="190.043397" xlink:href="#m05a43545bf" y="276.406181"/>
     <use style="stroke:#000000;" x="297.404213" xlink:href="#m05a43545bf" y="221.60603"/>
     <use style="stroke:#000000;" x="202.721087" xlink:href="#m05a43545bf" y="207.310966"/>
     <use style="stroke:#000000;" x="225.563019" xlink:href="#m05a43545bf" y="120.29938"/>
     <use style="stroke:#000000;" x="207.45336" xlink:href="#m05a43545bf" y="228.392129"/>
     <use style="stroke:#000000;" x="51.075717" xlink:href="#m05a43545bf" y="116.617638"/>
     <use style="stroke:#000000;" x="307.227888" xlink:href="#m05a43545bf" y="28.191716"/>
     <use style="stroke:#000000;" x="214.579272" xlink:href="#m05a43545bf" y="46.679652"/>
     <use style="stroke:#000000;" x="293.836307" xlink:href="#m05a43545bf" y="205.244986"/>
     <use style="stroke:#000000;" x="243.168902" xlink:href="#m05a43545bf" y="127.570617"/>
     <use style="stroke:#000000;" x="299.999499" xlink:href="#m05a43545bf" y="124.727162"/>
     <use style="stroke:#000000;" x="157.836318" xlink:href="#m05a43545bf" y="235.946558"/>
     <use style="stroke:#000000;" x="71.115569" xlink:href="#m05a43545bf" y="89.043689"/>
     <use style="stroke:#000000;" x="145.301666" xlink:href="#m05a43545bf" y="235.342392"/>
     <use style="stroke:#000000;" x="128.740921" xlink:href="#m05a43545bf" y="233.666266"/>
     <use style="stroke:#000000;" x="134.699726" xlink:href="#m05a43545bf" y="230.969396"/>
     <use style="stroke:#000000;" x="141.119734" xlink:href="#m05a43545bf" y="224.562615"/>
     <use style="stroke:#000000;" x="72.514924" xlink:href="#m05a43545bf" y="194.515094"/>
     <use style="stroke:#000000;" x="293.277967" xlink:href="#m05a43545bf" y="66.967677"/>
     <use style="stroke:#000000;" x="229.440901" xlink:href="#m05a43545bf" y="214.81749"/>
     <use style="stroke:#000000;" x="250.447973" xlink:href="#m05a43545bf" y="183.415291"/>
     <use style="stroke:#000000;" x="290.690922" xlink:href="#m05a43545bf" y="136.071165"/>
     <use style="stroke:#000000;" x="200.361949" xlink:href="#m05a43545bf" y="140.42515"/>
     <use style="stroke:#000000;" x="291.560527" xlink:href="#m05a43545bf" y="85.357058"/>
     <use style="stroke:#000000;" x="100.439569" xlink:href="#m05a43545bf" y="50.91805"/>
     <use style="stroke:#000000;" x="289.554925" xlink:href="#m05a43545bf" y="117.542356"/>
    </g>
   </g>
   <g id="patch_3">
    <path d="M 44.79 301.536 
L 44.79 24.336 
" style="fill:none;stroke:#000000;stroke-linecap:square;stroke-linejoin:miter;stroke-width:0.8;"/>
   </g>
   <g id="patch_4">
    <path d="M 321.99 301.536 
L 321.99 24.336 
" style="fill:none;stroke:#000000;stroke-linecap:square;stroke-linejoin:miter;stroke-width:0.8;"/>
   </g>
   <g id="patch_5">
    <path d="M 44.79 301.536 
L 321.99 301.536 
" style="fill:none;stroke:#000000;stroke-linecap:square;stroke-linejoin:miter;stroke-width:0.8;"/>
   </g>
   <g id="patch_6">
    <path d="M 44.79 24.336 
L 321.99 24.336 
" style="fill:none;stroke:#000000;stroke-linecap:square;stroke-linejoin:miter;stroke-width:0.8;"/>
   </g>
   <g id="line2d_14">
    <defs>
     <path d="M 0 6 
C 1.591219 6 3.117479 5.367802 4.242641 4.242641 
C 5.367802 3.117479 6 1.591219 6 0 
C 6 -1.591219 5.367802 -3.117479 4.242641 -4.242641 
C 3.117479 -5.367802 1.591219 -6 0 -6 
C -1.591219 -6 -3.117479 -5.367802 -4.242641 -4.242641 
C -5.367802 -3.117479 -6 -1.591219 -6 0 
C -6 1.591219 -5.367802 3.117479 -4.242641 4.242641 
C -3.117479 5.367802 -1.591219 6 0 6 
z
" id="m8c5d3d37c5" style="stroke:#000000;stroke-width:2;"/>
    </defs>
    <g clip-path="url(#pb56682f7dd)">
     <use style="fill:#808080;stroke:#000000;stroke-width:2;" x="104.19" xlink:href="#m8c5d3d37c5" y="242.136"/>
     <use style="fill:#808080;stroke:#000000;stroke-width:2;" x="262.59" xlink:href="#m8c5d3d37c5" y="242.136"/>
     <use style="fill:#808080;stroke:#000000;stroke-width:2;" x="183.39" xlink:href="#m8c5d3d37c5" y="162.936"/>
     <use style="fill:#808080;stroke:#000000;stroke-width:2;" x="104.19" xlink:href="#m8c5d3d37c5" y="83.736"/>
     <use style="fill:#808080;stroke:#000000;stroke-width:2;" x="262.59" xlink:href="#m8c5d3d37c5" y="83.736"/>
    </g>
   </g>
   <g id="line2d_15">
    <defs>
     <path d="M -0 6 
L 6 -6 
L -6 -6 
z
" id="mcb288feb67" style="stroke:#000000;stroke-linejoin:miter;stroke-width:2;"/>
    </defs>
    <g clip-path="url(#pb56682f7dd)">
     <use style="fill:#808080;stroke:#000000;stroke-linejoin:miter;stroke-width:2;" x="183.39" xlink:href="#mcb288feb67" y="242.136"/>
     <use style="fill:#808080;stroke:#000000;stroke-linejoin:miter;stroke-width:2;" x="104.19" xlink:href="#mcb288feb67" y="162.936"/>
     <use style="fill:#808080;stroke:#000000;stroke-linejoin:miter;stroke-width:2;" x="262.59" xlink:href="#mcb288feb67" y="162.936"/>
     <use style="fill:#808080;stroke:#000000;stroke-linejoin:miter;stroke-width:2;" x="183.39" xlink:href="#mcb288feb67" y="83.736"/>
    </g>
   </g>
  </g>
  <g id="axes_2">
   <g id="patch_7">
    <path clip-path="url(#pbcdec5217c)" d="M 338.73 301.536 
L 338.73 288.336 
L 338.73 37.536 
L 338.73 24.336 
L 352.59 24.336 
L 352.59 37.536 
L 352.59 288.336 
L 352.59 301.536 
z
" style="fill:#ffffff;stroke:#ffffff;stroke-linejoin:miter;stroke-width:0.01;"/>
   </g>
   <g id="QuadMesh_1">
    <path clip-path="url(#pbcdec5217c)" d="M 338.73 301.536 
L 352.59 301.536 
L 352.59 288.336 
L 338.73 288.336 
L 338.73 301.536 
" style="fill:#f1f1f1;"/>
    <path clip-path="url(#pbcdec5217c)" d="M 338.73 288.336 
L 352.59 288.336 
L 352.59 275.136 
L 338.73 275.136 
L 338.73 288.336 
" style="fill:#d9d9d9;"/>
    <path clip-path="url(#pbcdec5217c)" d="M 338.73 275.136 
L 352.59 275.136 
L 352.59 261.936 
L 338.73 261.936 
L 338.73 275.136 
" style="fill:#cacaca;"/>
    <path clip-path="url(#pbcdec5217c)" d="M 338.73 261.936 
L 352.59 261.936 
L 352.59 248.736 
L 338.73 248.736 
L 338.73 261.936 
" style="fill:#bfbfbf;"/>
    <path clip-path="url(#pbcdec5217c)" d="M 338.73 248.736 
L 352.59 248.736 
L 352.59 235.536 
L 338.73 235.536 
L 338.73 248.736 
" style="fill:#b7b7b7;"/>
    <path clip-path="url(#pbcdec5217c)" d="M 338.73 235.536 
L 352.59 235.536 
L 352.59 222.336 
L 338.73 222.336 
L 338.73 235.536 
" style="fill:#b0b0b0;"/>
    <path clip-path="url(#pbcdec5217c)" d="M 338.73 222.336 
L 352.59 222.336 
L 352.59 209.136 
L 338.73 209.136 
L 338.73 222.336 
" style="fill:#aaaaaa;"/>
    <path clip-path="url(#pbcdec5217c)" d="M 338.73 209.136 
L 352.59 209.136 
L 352.59 195.936 
L 338.73 195.936 
L 338.73 209.136 
" style="fill:#a4a4a4;"/>
    <path clip-path="url(#pbcdec5217c)" d="M 338.73 195.936 
L 352.59 195.936 
L 352.59 182.736 
L 338.73 182.736 
L 338.73 195.936 
" style="fill:#9f9f9f;"/>
    <path clip-path="url(#pbcdec5217c)" d="M 338.73 182.736 
L 352.59 182.736 
L 352.59 169.536 
L 338.73 169.536 
L 338.73 182.736 
" style="fill:#8e8e8e;"/>
    <path clip-path="url(#pbcdec5217c)" d="M 338.73 169.536 
L 352.59 169.536 
L 352.59 156.336 
L 338.73 156.336 
L 338.73 169.536 
" style="fill:#777777;"/>
    <path clip-path="url(#pbcdec5217c)" d="M 338.73 156.336 
L 352.59 156.336 
L 352.59 143.136 
L 338.73 143.136 
L 338.73 156.336 
" style="fill:#686868;"/>
    <path clip-path="url(#pbcdec5217c)" d="M 338.73 143.136 
L 352.59 143.136 
L 352.59 129.936 
L 338.73 129.936 
L 338.73 143.136 
" style="fill:#5d5d5d;"/>
    <path clip-path="url(#pbcdec5217c)" d="M 338.73 129.936 
L 352.59 129.936 
L 352.59 116.736 
L 338.73 116.736 
L 338.73 129.936 
" style="fill:#545454;"/>
    <path clip-path="url(#pbcdec5217c)" d="M 338.73 116.736 
L 352.59 116.736 
L 352.59 103.536 
L 338.73 103.536 
L 338.73 116.736 
" style="fill:#4d4d4d;"/>
    <path clip-path="url(#pbcdec5217c)" d="M 338.73 103.536 
L 352.59 103.536 
L 352.59 90.336 
L 338.73 90.336 
L 338.73 103.536 
" style="fill:#474747;"/>
    <path clip-path="url(#pbcdec5217c)" d="M 338.73 90.336 
L 352.59 90.336 
L 352.59 77.136 
L 338.73 77.136 
L 338.73 90.336 
" style="fill:#424242;"/>
    <path clip-path="url(#pbcdec5217c)" d="M 338.73 77.136 
L 352.59 77.136 
L 352.59 63.936 
L 338.73 63.936 
L 338.73 77.136 
" style="fill:#3d3d3d;"/>
    <path clip-path="url(#pbcdec5217c)" d="M 338.73 63.936 
L 352.59 63.936 
L 352.59 50.736 
L 338.73 50.736 
L 338.73 63.936 
" style="fill:#2c2c2c;"/>
    <path clip-path="url(#pbcdec5217c)" d="M 338.73 50.736 
L 352.59 50.736 
L 352.59 37.536 
L 338.73 37.536 
L 338.73 50.736 
" style="fill:#141414;"/>
    <path clip-path="url(#pbcdec5217c)" d="M 338.73 37.536 
L 352.59 37.536 
L 352.59 24.336 
L 338.73 24.336 
L 338.73 37.536 
" style="fill:#060606;"/>
   </g>
   <g id="matplotlib.axis_3"/>
   <g id="matplotlib.axis_4">
    <g id="ytick_7">
     <g id="line2d_16">
      <defs>
       <path d="M 0 0 
L 3.5 0 
" id="m93edd205e0" style="stroke:#000000;stroke-width:0.8;"/>
      </defs>
      <g>
       <use style="stroke:#000000;stroke-width:0.8;" x="352.59" xlink:href="#m93edd205e0" y="301.536"/>
      </g>
     </g>
     <g id="text_13">
      <!-- $\mathdefault{10^{0}}$ -->
      <g transform="translate(359.59 306.854906)">
       <text>
        <tspan style="font-family:DejaVu Sans;font-size:14px;font-style:book;font-weight:book;" x="0 8.907227" y="-0.3671875">10</tspan>
        <tspan style="font-family:DejaVu Sans;font-size:9.8px;font-style:book;font-weight:book;" x="17.948438" y="-5.7265625">0</tspan>
       </text>
      </g>
     </g>
    </g>
    <g id="ytick_8">
     <g id="line2d_17">
      <g>
       <use style="stroke:#000000;stroke-width:0.8;" x="352.59" xlink:href="#m93edd205e0" y="182.736"/>
      </g>
     </g>
     <g id="text_14">
      <!-- $\mathdefault{10^{1}}$ -->
      <g transform="translate(359.59 188.054906)">
       <text>
        <tspan style="font-family:DejaVu Sans;font-size:14px;font-style:book;font-weight:book;" x="0 8.907227" y="-0.4984375000000014">10</tspan>
        <tspan style="font-family:DejaVu Sans;font-size:9.8px;font-style:book;font-weight:book;" x="17.948438" y="-5.857812500000001">1</tspan>
       </text>
      </g>
     </g>
    </g>
    <g id="text_15">
     <!-- $k \cdot 10^{-15}, m^{2}$ -->
     <g transform="translate(301.67 13.668438)">
      <text>
       <tspan style="font-family:DejaVu Sans;font-size:14px;font-style:oblique;font-weight:oblique;" x="0 64.203125" y="-0.3671875">km</tspan>
       <tspan style="font-family:DejaVu Sans;font-size:14px;font-style:book;font-weight:book;" x="10.834961 18.012695 26.919922 57.025391" y="-0.3671875">⋅10,</tspan>
       <tspan style="font-family:DejaVu Sans;font-size:9.8px;font-style:book;font-weight:book;" x="35.961133 44.172461 50.40752 78.492331" y="-5.7265625">−152</tspan>
      </text>
     </g>
    </g>
   </g>
   <g id="patch_8">
    <path d="M 338.73 301.536 
L 338.73 288.336 
L 338.73 37.536 
L 338.73 24.336 
L 352.59 24.336 
L 352.59 37.536 
L 352.59 288.336 
L 352.59 301.536 
z
" style="fill:none;stroke:#000000;stroke-linejoin:miter;stroke-width:0.8;"/>
   </g>
  </g>
 </g>
 <defs>
  <clipPath id="pb56682f7dd">
   <rect height="277.2" width="277.2" x="44.79" y="24.336"/>
  </clipPath>
  <clipPath id="pbcdec5217c">
   <rect height="277.2" width="13.86" x="338.73" y="24.336"/>
  </clipPath>
 </defs>
</svg>
