<?xml version="1.0" encoding="utf-8" standalone="no"?>
<!DOCTYPE svg PUBLIC "-//W3C//DTD SVG 1.1//EN"
  "http://www.w3.org/Graphics/SVG/1.1/DTD/svg11.dtd">
<!-- Created with matplotlib (https://matplotlib.org/) -->
<svg height="211.858975pt" version="1.1" viewBox="0 0 378.04 211.858975" width="378.04pt" xmlns="http://www.w3.org/2000/svg" xmlns:xlink="http://www.w3.org/1999/xlink">
 <defs>
  <style type="text/css">
*{stroke-linecap:butt;stroke-linejoin:round;}
  </style>
 </defs>
 <g id="figure_1">
  <g id="patch_1">
   <path d="M 0 211.858975 
L 378.04 211.858975 
L 378.04 0 
L 0 0 
z
" style="fill:#ffffff;"/>
  </g>
  <g id="axes_1">
   <g id="patch_2">
    <path d="M 37.58 189.1496 
L 372.38 189.1496 
L 372.38 22.8296 
L 37.58 22.8296 
z
" style="fill:#ffffff;"/>
   </g>
   <g id="matplotlib.axis_1">
    <g id="xtick_1">
     <g id="line2d_1">
      <defs>
       <path d="M 0 0 
L 0 3.5 
" id="m239447eca8" style="stroke:#000000;stroke-width:0.8;"/>
      </defs>
      <g>
       <use style="stroke:#000000;stroke-width:0.8;" x="66.632893" xlink:href="#m239447eca8" y="189.1496"/>
      </g>
     </g>
     <g id="text_1">
      <text style="font-family:DejaVu Sans;font-size:14px;font-style:normal;font-weight:normal;text-anchor:middle;" transform="rotate(-0, 66.632893, 206.787413)" x="66.632893" y="206.787413">P1</text>
     </g>
    </g>
    <g id="xtick_2">
     <g id="line2d_2">
      <g>
       <use style="stroke:#000000;stroke-width:0.8;" x="101.219669" xlink:href="#m239447eca8" y="189.1496"/>
      </g>
     </g>
     <g id="text_2">
      <text style="font-family:DejaVu Sans;font-size:14px;font-style:normal;font-weight:normal;text-anchor:middle;" transform="rotate(-0, 101.219669, 206.787413)" x="101.219669" y="206.787413">I1</text>
     </g>
    </g>
    <g id="xtick_3">
     <g id="line2d_3">
      <g>
       <use style="stroke:#000000;stroke-width:0.8;" x="135.806446" xlink:href="#m239447eca8" y="189.1496"/>
      </g>
     </g>
     <g id="text_3">
      <text style="font-family:DejaVu Sans;font-size:14px;font-style:normal;font-weight:normal;text-anchor:middle;" transform="rotate(-0, 135.806446, 206.787413)" x="135.806446" y="206.787413">P2</text>
     </g>
    </g>
    <g id="xtick_4">
     <g id="line2d_4">
      <g>
       <use style="stroke:#000000;stroke-width:0.8;" x="170.393223" xlink:href="#m239447eca8" y="189.1496"/>
      </g>
     </g>
     <g id="text_4">
      <text style="font-family:DejaVu Sans;font-size:14px;font-style:normal;font-weight:normal;text-anchor:middle;" transform="rotate(-0, 170.393223, 206.787413)" x="170.393223" y="206.787413">I2</text>
     </g>
    </g>
    <g id="xtick_5">
     <g id="line2d_5">
      <g>
       <use style="stroke:#000000;stroke-width:0.8;" x="204.98" xlink:href="#m239447eca8" y="189.1496"/>
      </g>
     </g>
     <g id="text_5">
      <text style="font-family:DejaVu Sans;font-size:14px;font-style:normal;font-weight:normal;text-anchor:middle;" transform="rotate(-0, 204.98, 206.787413)" x="204.98" y="206.787413">P3</text>
     </g>
    </g>
    <g id="xtick_6">
     <g id="line2d_6">
      <g>
       <use style="stroke:#000000;stroke-width:0.8;" x="239.566777" xlink:href="#m239447eca8" y="189.1496"/>
      </g>
     </g>
     <g id="text_6">
      <text style="font-family:DejaVu Sans;font-size:14px;font-style:normal;font-weight:normal;text-anchor:middle;" transform="rotate(-0, 239.566777, 206.787413)" x="239.566777" y="206.787413">I3</text>
     </g>
    </g>
    <g id="xtick_7">
     <g id="line2d_7">
      <g>
       <use style="stroke:#000000;stroke-width:0.8;" x="274.153554" xlink:href="#m239447eca8" y="189.1496"/>
      </g>
     </g>
     <g id="text_7">
      <text style="font-family:DejaVu Sans;font-size:14px;font-style:normal;font-weight:normal;text-anchor:middle;" transform="rotate(-0, 274.153554, 206.787413)" x="274.153554" y="206.787413">P4</text>
     </g>
    </g>
    <g id="xtick_8">
     <g id="line2d_8">
      <g>
       <use style="stroke:#000000;stroke-width:0.8;" x="308.740331" xlink:href="#m239447eca8" y="189.1496"/>
      </g>
     </g>
     <g id="text_8">
      <text style="font-family:DejaVu Sans;font-size:14px;font-style:normal;font-weight:normal;text-anchor:middle;" transform="rotate(-0, 308.740331, 206.787413)" x="308.740331" y="206.787413">I4</text>
     </g>
    </g>
    <g id="xtick_9">
     <g id="line2d_9">
      <g>
       <use style="stroke:#000000;stroke-width:0.8;" x="343.327107" xlink:href="#m239447eca8" y="189.1496"/>
      </g>
     </g>
     <g id="text_9">
      <text style="font-family:DejaVu Sans;font-size:14px;font-style:normal;font-weight:normal;text-anchor:middle;" transform="rotate(-0, 343.327107, 206.787413)" x="343.327107" y="206.787413">P5</text>
     </g>
    </g>
   </g>
   <g id="matplotlib.axis_2">
    <g id="ytick_1">
     <g id="line2d_10">
      <path clip-path="url(#pa343a1d8cc)" d="M 37.58 189.1496 
L 372.38 189.1496 
" style="fill:none;stroke:#b0b0b0;stroke-linecap:square;stroke-width:0.8;"/>
     </g>
     <g id="line2d_11">
      <defs>
       <path d="M 0 0 
L -3.5 0 
" id="m4dfca0eb3a" style="stroke:#000000;stroke-width:0.8;"/>
      </defs>
      <g>
       <use style="stroke:#000000;stroke-width:0.8;" x="37.58" xlink:href="#m4dfca0eb3a" y="189.1496"/>
      </g>
     </g>
     <g id="text_10">
      <text style="font-family:DejaVu Sans;font-size:14px;font-style:normal;font-weight:normal;text-anchor:end;" transform="rotate(-0, 30.58, 194.468506)" x="30.58" y="194.468506">0</text>
     </g>
    </g>
    <g id="ytick_2">
     <g id="line2d_12">
      <path clip-path="url(#pa343a1d8cc)" d="M 37.58 144.664454 
L 372.38 144.664454 
" style="fill:none;stroke:#b0b0b0;stroke-linecap:square;stroke-width:0.8;"/>
     </g>
     <g id="line2d_13">
      <g>
       <use style="stroke:#000000;stroke-width:0.8;" x="37.58" xlink:href="#m4dfca0eb3a" y="144.664454"/>
      </g>
     </g>
     <g id="text_11">
      <text style="font-family:DejaVu Sans;font-size:14px;font-style:normal;font-weight:normal;text-anchor:end;" transform="rotate(-0, 30.58, 149.98336)" x="30.58" y="149.98336">1</text>
     </g>
    </g>
    <g id="ytick_3">
     <g id="line2d_14">
      <path clip-path="url(#pa343a1d8cc)" d="M 37.58 100.179308 
L 372.38 100.179308 
" style="fill:none;stroke:#b0b0b0;stroke-linecap:square;stroke-width:0.8;"/>
     </g>
     <g id="line2d_15">
      <g>
       <use style="stroke:#000000;stroke-width:0.8;" x="37.58" xlink:href="#m4dfca0eb3a" y="100.179308"/>
      </g>
     </g>
     <g id="text_12">
      <text style="font-family:DejaVu Sans;font-size:14px;font-style:normal;font-weight:normal;text-anchor:end;" transform="rotate(-0, 30.58, 105.498215)" x="30.58" y="105.498215">2</text>
     </g>
    </g>
    <g id="ytick_4">
     <g id="line2d_16">
      <path clip-path="url(#pa343a1d8cc)" d="M 37.58 55.694163 
L 372.38 55.694163 
" style="fill:none;stroke:#b0b0b0;stroke-linecap:square;stroke-width:0.8;"/>
     </g>
     <g id="line2d_17">
      <g>
       <use style="stroke:#000000;stroke-width:0.8;" x="37.58" xlink:href="#m4dfca0eb3a" y="55.694163"/>
      </g>
     </g>
     <g id="text_13">
      <text style="font-family:DejaVu Sans;font-size:14px;font-style:normal;font-weight:normal;text-anchor:end;" transform="rotate(-0, 30.58, 61.013069)" x="30.58" y="61.013069">3</text>
     </g>
    </g>
    <g id="text_14">
     <!-- $\beta, m^{3}/MPa $ -->
     <g transform="translate(2.16 14.9)">
      <text>
       <tspan style="font-family:DejaVu Sans;font-size:14px;font-style:oblique;font-weight:oblique;" x="0 16.112305 41.736178 53.81528 62.257663" y="-0.3671875">βmMPa</tspan>
       <tspan style="font-family:DejaVu Sans;font-size:14px;font-style:book;font-weight:book;" x="8.93457 37.019382" y="-0.3671875">,/</tspan>
       <tspan style="font-family:DejaVu Sans;font-size:9.8px;font-style:book;font-weight:book;" x="30.40151" y="-5.7265625">3</tspan>
      </text>
     </g>
    </g>
   </g>
   <g id="patch_3">
    <path clip-path="url(#pa343a1d8cc)" d="M 52.798182 189.1496 
L 66.632893 189.1496 
L 66.632893 148.800261 
L 52.798182 148.800261 
z
" style="fill:#a9a9a9;stroke:#000000;stroke-linejoin:miter;stroke-width:0.5;"/>
   </g>
   <g id="patch_4">
    <path clip-path="url(#pa343a1d8cc)" d="M 87.384959 189.1496 
L 101.219669 189.1496 
L 101.219669 148.800261 
L 87.384959 148.800261 
z
" style="fill:#a9a9a9;stroke:#000000;stroke-linejoin:miter;stroke-width:0.5;"/>
   </g>
   <g id="patch_5">
    <path clip-path="url(#pa343a1d8cc)" d="M 121.971736 189.1496 
L 135.806446 189.1496 
L 135.806446 148.800261 
L 121.971736 148.800261 
z
" style="fill:#a9a9a9;stroke:#000000;stroke-linejoin:miter;stroke-width:0.5;"/>
   </g>
   <g id="patch_6">
    <path clip-path="url(#pa343a1d8cc)" d="M 156.558512 189.1496 
L 170.393223 189.1496 
L 170.393223 148.800261 
L 156.558512 148.800261 
z
" style="fill:#a9a9a9;stroke:#000000;stroke-linejoin:miter;stroke-width:0.5;"/>
   </g>
   <g id="patch_7">
    <path clip-path="url(#pa343a1d8cc)" d="M 191.145289 189.1496 
L 204.98 189.1496 
L 204.98 140.565702 
L 191.145289 140.565702 
z
" style="fill:#a9a9a9;stroke:#000000;stroke-linejoin:miter;stroke-width:0.5;"/>
   </g>
   <g id="patch_8">
    <path clip-path="url(#pa343a1d8cc)" d="M 225.732066 189.1496 
L 239.566777 189.1496 
L 239.566777 115.03857 
L 225.732066 115.03857 
z
" style="fill:#a9a9a9;stroke:#000000;stroke-linejoin:miter;stroke-width:0.5;"/>
   </g>
   <g id="patch_9">
    <path clip-path="url(#pa343a1d8cc)" d="M 260.318843 189.1496 
L 274.153554 189.1496 
L 274.153554 148.800261 
L 260.318843 148.800261 
z
" style="fill:#a9a9a9;stroke:#000000;stroke-linejoin:miter;stroke-width:0.5;"/>
   </g>
   <g id="patch_10">
    <path clip-path="url(#pa343a1d8cc)" d="M 294.90562 189.1496 
L 308.740331 189.1496 
L 308.740331 115.03857 
L 294.90562 115.03857 
z
" style="fill:#a9a9a9;stroke:#000000;stroke-linejoin:miter;stroke-width:0.5;"/>
   </g>
   <g id="patch_11">
    <path clip-path="url(#pa343a1d8cc)" d="M 329.492397 189.1496 
L 343.327107 189.1496 
L 343.327107 108.450923 
L 329.492397 108.450923 
z
" style="fill:#a9a9a9;stroke:#000000;stroke-linejoin:miter;stroke-width:0.5;"/>
   </g>
   <g id="patch_12">
    <path clip-path="url(#pa343a1d8cc)" d="M 66.632893 189.1496 
L 80.467603 189.1496 
L 80.467603 172.699511 
L 66.632893 172.699511 
z
" style="fill:#696969;stroke:#000000;stroke-linejoin:miter;stroke-width:0.5;"/>
   </g>
   <g id="patch_13">
    <path clip-path="url(#pa343a1d8cc)" d="M 101.219669 189.1496 
L 115.05438 189.1496 
L 115.05438 185.063017 
L 101.219669 185.063017 
z
" style="fill:#696969;stroke:#000000;stroke-linejoin:miter;stroke-width:0.5;"/>
   </g>
   <g id="patch_14">
    <path clip-path="url(#pa343a1d8cc)" d="M 135.806446 189.1496 
L 149.641157 189.1496 
L 149.641157 166.347459 
L 135.806446 166.347459 
z
" style="fill:#696969;stroke:#000000;stroke-linejoin:miter;stroke-width:0.5;"/>
   </g>
   <g id="patch_15">
    <path clip-path="url(#pa343a1d8cc)" d="M 170.393223 189.1496 
L 184.227934 189.1496 
L 184.227934 172.677873 
L 170.393223 172.677873 
z
" style="fill:#696969;stroke:#000000;stroke-linejoin:miter;stroke-width:0.5;"/>
   </g>
   <g id="patch_16">
    <path clip-path="url(#pa343a1d8cc)" d="M 204.98 189.1496 
L 218.814711 189.1496 
L 218.814711 168.960025 
L 204.98 168.960025 
z
" style="fill:#696969;stroke:#000000;stroke-linejoin:miter;stroke-width:0.5;"/>
   </g>
   <g id="patch_17">
    <path clip-path="url(#pa343a1d8cc)" d="M 239.566777 189.1496 
L 253.401488 189.1496 
L 253.401488 138.855104 
L 239.566777 138.855104 
z
" style="fill:#696969;stroke:#000000;stroke-linejoin:miter;stroke-width:0.5;"/>
   </g>
   <g id="patch_18">
    <path clip-path="url(#pa343a1d8cc)" d="M 274.153554 189.1496 
L 287.988264 189.1496 
L 287.988264 149.921968 
L 274.153554 149.921968 
z
" style="fill:#696969;stroke:#000000;stroke-linejoin:miter;stroke-width:0.5;"/>
   </g>
   <g id="patch_19">
    <path clip-path="url(#pa343a1d8cc)" d="M 308.740331 189.1496 
L 322.575041 189.1496 
L 322.575041 67.284772 
L 308.740331 67.284772 
z
" style="fill:#696969;stroke:#000000;stroke-linejoin:miter;stroke-width:0.5;"/>
   </g>
   <g id="patch_20">
    <path clip-path="url(#pa343a1d8cc)" d="M 343.327107 189.1496 
L 357.161818 189.1496 
L 357.161818 30.7496 
L 343.327107 30.7496 
z
" style="fill:#696969;stroke:#000000;stroke-linejoin:miter;stroke-width:0.5;"/>
   </g>
   <g id="patch_21">
    <path d="M 37.58 189.1496 
L 37.58 22.8296 
" style="fill:none;stroke:#000000;stroke-linecap:square;stroke-linejoin:miter;stroke-width:0.8;"/>
   </g>
   <g id="patch_22">
    <path d="M 372.38 189.1496 
L 372.38 22.8296 
" style="fill:none;stroke:#000000;stroke-linecap:square;stroke-linejoin:miter;stroke-width:0.8;"/>
   </g>
   <g id="patch_23">
    <path d="M 37.58 189.1496 
L 372.38 189.1496 
" style="fill:none;stroke:#000000;stroke-linecap:square;stroke-linejoin:miter;stroke-width:0.8;"/>
   </g>
   <g id="patch_24">
    <path d="M 37.58 22.8296 
L 372.38 22.8296 
" style="fill:none;stroke:#000000;stroke-linecap:square;stroke-linejoin:miter;stroke-width:0.8;"/>
   </g>
   <g id="legend_1">
    <g id="patch_25">
     <path d="M 47.38 75.12835 
L 101.0875 75.12835 
Q 103.8875 75.12835 103.8875 72.32835 
L 103.8875 32.6296 
Q 103.8875 29.8296 101.0875 29.8296 
L 47.38 29.8296 
Q 44.58 29.8296 44.58 32.6296 
L 44.58 72.32835 
Q 44.58 75.12835 47.38 75.12835 
z
" style="fill:#ffffff;opacity:0.8;stroke:#cccccc;stroke-linejoin:miter;"/>
    </g>
    <g id="patch_26">
     <path d="M 50.18 46.067413 
L 78.18 46.067413 
L 78.18 36.267413 
L 50.18 36.267413 
z
" style="fill:#a9a9a9;stroke:#000000;stroke-linejoin:miter;stroke-width:0.5;"/>
    </g>
    <g id="text_15">
     <text style="font-family:DejaVu Sans;font-size:14px;font-style:normal;font-weight:normal;text-anchor:start;" transform="rotate(-0, 89.38, 46.067413)" x="89.38" y="46.067413">1</text>
    </g>
    <g id="patch_27">
     <path d="M 50.18 66.616788 
L 78.18 66.616788 
L 78.18 56.816788 
L 50.18 56.816788 
z
" style="fill:#696969;stroke:#000000;stroke-linejoin:miter;stroke-width:0.5;"/>
    </g>
    <g id="text_16">
     <text style="font-family:DejaVu Sans;font-size:14px;font-style:normal;font-weight:normal;text-anchor:start;" transform="rotate(-0, 89.38, 66.616788)" x="89.38" y="66.616788">2</text>
    </g>
   </g>
  </g>
 </g>
 <defs>
  <clipPath id="pa343a1d8cc">
   <rect height="166.32" width="334.8" x="37.58" y="22.8296"/>
  </clipPath>
 </defs>
</svg>
