<?xml version="1.0" encoding="utf-8"?>
<svg xmlns="http://www.w3.org/2000/svg" xmlns:xlink="http://www.w3.org/1999/xlink" width="600" height="400" viewBox="0 0 2400 1600">
<defs>
  <clipPath id="clip060">
    <rect x="0" y="0" width="2400" height="1600"/>
  </clipPath>
</defs>
<path clip-path="url(#clip060)" d="M0 1600 L2400 1600 L2400 0 L0 0  Z" fill="#ffffff" fill-rule="evenodd" fill-opacity="1"/>
<defs>
  <clipPath id="clip061">
    <rect x="480" y="0" width="1681" height="1600"/>
  </clipPath>
</defs>
<path clip-path="url(#clip060)" d="M234.125 1423.18 L2352.76 1423.18 L2352.76 196.789 L234.125 196.789  Z" fill="#ffffff" fill-rule="evenodd" fill-opacity="1"/>
<defs>
  <clipPath id="clip062">
    <rect x="234" y="196" width="2120" height="1227"/>
  </clipPath>
</defs>
<polyline clip-path="url(#clip062)" style="stroke:#000000; stroke-linecap:round; stroke-linejoin:round; stroke-width:2; stroke-opacity:0.1; fill:none" points="234.125,1423.18 234.125,196.789 "/>
<polyline clip-path="url(#clip062)" style="stroke:#000000; stroke-linecap:round; stroke-linejoin:round; stroke-width:2; stroke-opacity:0.1; fill:none" points="587.231,1423.18 587.231,196.789 "/>
<polyline clip-path="url(#clip062)" style="stroke:#000000; stroke-linecap:round; stroke-linejoin:round; stroke-width:2; stroke-opacity:0.1; fill:none" points="940.336,1423.18 940.336,196.789 "/>
<polyline clip-path="url(#clip062)" style="stroke:#000000; stroke-linecap:round; stroke-linejoin:round; stroke-width:2; stroke-opacity:0.1; fill:none" points="1293.44,1423.18 1293.44,196.789 "/>
<polyline clip-path="url(#clip062)" style="stroke:#000000; stroke-linecap:round; stroke-linejoin:round; stroke-width:2; stroke-opacity:0.1; fill:none" points="1646.55,1423.18 1646.55,196.789 "/>
<polyline clip-path="url(#clip062)" style="stroke:#000000; stroke-linecap:round; stroke-linejoin:round; stroke-width:2; stroke-opacity:0.1; fill:none" points="1999.65,1423.18 1999.65,196.789 "/>
<polyline clip-path="url(#clip062)" style="stroke:#000000; stroke-linecap:round; stroke-linejoin:round; stroke-width:2; stroke-opacity:0.1; fill:none" points="2352.76,1423.18 2352.76,196.789 "/>
<polyline clip-path="url(#clip060)" style="stroke:#000000; stroke-linecap:round; stroke-linejoin:round; stroke-width:4; stroke-opacity:1; fill:none" points="234.125,1423.18 2352.76,1423.18 "/>
<polyline clip-path="url(#clip060)" style="stroke:#000000; stroke-linecap:round; stroke-linejoin:round; stroke-width:4; stroke-opacity:1; fill:none" points="234.125,1423.18 234.125,1406.34 "/>
<polyline clip-path="url(#clip060)" style="stroke:#000000; stroke-linecap:round; stroke-linejoin:round; stroke-width:4; stroke-opacity:1; fill:none" points="587.231,1423.18 587.231,1406.34 "/>
<polyline clip-path="url(#clip060)" style="stroke:#000000; stroke-linecap:round; stroke-linejoin:round; stroke-width:4; stroke-opacity:1; fill:none" points="940.336,1423.18 940.336,1406.34 "/>
<polyline clip-path="url(#clip060)" style="stroke:#000000; stroke-linecap:round; stroke-linejoin:round; stroke-width:4; stroke-opacity:1; fill:none" points="1293.44,1423.18 1293.44,1406.34 "/>
<polyline clip-path="url(#clip060)" style="stroke:#000000; stroke-linecap:round; stroke-linejoin:round; stroke-width:4; stroke-opacity:1; fill:none" points="1646.55,1423.18 1646.55,1406.34 "/>
<polyline clip-path="url(#clip060)" style="stroke:#000000; stroke-linecap:round; stroke-linejoin:round; stroke-width:4; stroke-opacity:1; fill:none" points="1999.65,1423.18 1999.65,1406.34 "/>
<polyline clip-path="url(#clip060)" style="stroke:#000000; stroke-linecap:round; stroke-linejoin:round; stroke-width:4; stroke-opacity:1; fill:none" points="2352.76,1423.18 2352.76,1406.34 "/>
<path clip-path="url(#clip060)" d="M234.125 1454.1 Q230.514 1454.1 228.686 1457.66 Q226.88 1461.2 226.88 1468.33 Q226.88 1475.44 228.686 1479.01 Q230.514 1482.55 234.125 1482.55 Q237.76 1482.55 239.565 1479.01 Q241.394 1475.44 241.394 1468.33 Q241.394 1461.2 239.565 1457.66 Q237.76 1454.1 234.125 1454.1 M234.125 1450.39 Q239.936 1450.39 242.991 1455 Q246.07 1459.58 246.07 1468.33 Q246.07 1477.06 242.991 1481.67 Q239.936 1486.25 234.125 1486.25 Q228.315 1486.25 225.237 1481.67 Q222.181 1477.06 222.181 1468.33 Q222.181 1459.58 225.237 1455 Q228.315 1450.39 234.125 1450.39 Z" fill="#000000" fill-rule="nonzero" fill-opacity="1" /><path clip-path="url(#clip060)" d="M566.004 1481.64 L582.323 1481.64 L582.323 1485.58 L560.379 1485.58 L560.379 1481.64 Q563.041 1478.89 567.624 1474.26 Q572.231 1469.61 573.411 1468.27 Q575.657 1465.74 576.536 1464.01 Q577.439 1462.25 577.439 1460.56 Q577.439 1457.8 575.494 1456.07 Q573.573 1454.33 570.471 1454.33 Q568.272 1454.33 565.819 1455.09 Q563.388 1455.86 560.61 1457.41 L560.61 1452.69 Q563.434 1451.55 565.888 1450.97 Q568.342 1450.39 570.379 1450.39 Q575.749 1450.39 578.944 1453.08 Q582.138 1455.77 582.138 1460.26 Q582.138 1462.39 581.328 1464.31 Q580.541 1466.2 578.434 1468.8 Q577.856 1469.47 574.754 1472.69 Q571.652 1475.88 566.004 1481.64 Z" fill="#000000" fill-rule="nonzero" fill-opacity="1" /><path clip-path="url(#clip060)" d="M602.138 1454.1 Q598.527 1454.1 596.698 1457.66 Q594.893 1461.2 594.893 1468.33 Q594.893 1475.44 596.698 1479.01 Q598.527 1482.55 602.138 1482.55 Q605.772 1482.55 607.578 1479.01 Q609.406 1475.44 609.406 1468.33 Q609.406 1461.2 607.578 1457.66 Q605.772 1454.1 602.138 1454.1 M602.138 1450.39 Q607.948 1450.39 611.004 1455 Q614.082 1459.58 614.082 1468.33 Q614.082 1477.06 611.004 1481.67 Q607.948 1486.25 602.138 1486.25 Q596.328 1486.25 593.249 1481.67 Q590.193 1477.06 590.193 1468.33 Q590.193 1459.58 593.249 1455 Q596.328 1450.39 602.138 1450.39 Z" fill="#000000" fill-rule="nonzero" fill-opacity="1" /><path clip-path="url(#clip060)" d="M928.507 1455.09 L916.701 1473.54 L928.507 1473.54 L928.507 1455.09 M927.28 1451.02 L933.16 1451.02 L933.16 1473.54 L938.09 1473.54 L938.09 1477.43 L933.16 1477.43 L933.16 1485.58 L928.507 1485.58 L928.507 1477.43 L912.905 1477.43 L912.905 1472.92 L927.28 1451.02 Z" fill="#000000" fill-rule="nonzero" fill-opacity="1" /><path clip-path="url(#clip060)" d="M955.822 1454.1 Q952.211 1454.1 950.382 1457.66 Q948.576 1461.2 948.576 1468.33 Q948.576 1475.44 950.382 1479.01 Q952.211 1482.55 955.822 1482.55 Q959.456 1482.55 961.261 1479.01 Q963.09 1475.44 963.09 1468.33 Q963.09 1461.2 961.261 1457.66 Q959.456 1454.1 955.822 1454.1 M955.822 1450.39 Q961.632 1450.39 964.687 1455 Q967.766 1459.58 967.766 1468.33 Q967.766 1477.06 964.687 1481.67 Q961.632 1486.25 955.822 1486.25 Q950.011 1486.25 946.933 1481.67 Q943.877 1477.06 943.877 1468.33 Q943.877 1459.58 946.933 1455 Q950.011 1450.39 955.822 1450.39 Z" fill="#000000" fill-rule="nonzero" fill-opacity="1" /><path clip-path="url(#clip060)" d="M1278.85 1466.44 Q1275.7 1466.44 1273.85 1468.59 Q1272.02 1470.74 1272.02 1474.49 Q1272.02 1478.22 1273.85 1480.39 Q1275.7 1482.55 1278.85 1482.55 Q1281.99 1482.55 1283.82 1480.39 Q1285.67 1478.22 1285.67 1474.49 Q1285.67 1470.74 1283.82 1468.59 Q1281.99 1466.44 1278.85 1466.44 M1288.13 1451.78 L1288.13 1456.04 Q1286.37 1455.21 1284.56 1454.77 Q1282.78 1454.33 1281.02 1454.33 Q1276.39 1454.33 1273.94 1457.45 Q1271.51 1460.58 1271.16 1466.9 Q1272.53 1464.89 1274.59 1463.82 Q1276.65 1462.73 1279.12 1462.73 Q1284.33 1462.73 1287.34 1465.9 Q1290.37 1469.05 1290.37 1474.49 Q1290.37 1479.82 1287.23 1483.03 Q1284.08 1486.25 1278.85 1486.25 Q1272.85 1486.25 1269.68 1481.67 Q1266.51 1477.06 1266.51 1468.33 Q1266.51 1460.14 1270.4 1455.28 Q1274.29 1450.39 1280.84 1450.39 Q1282.6 1450.39 1284.38 1450.74 Q1286.18 1451.09 1288.13 1451.78 Z" fill="#000000" fill-rule="nonzero" fill-opacity="1" /><path clip-path="url(#clip060)" d="M1308.43 1454.1 Q1304.82 1454.1 1302.99 1457.66 Q1301.18 1461.2 1301.18 1468.33 Q1301.18 1475.44 1302.99 1479.01 Q1304.82 1482.55 1308.43 1482.55 Q1312.06 1482.55 1313.87 1479.01 Q1315.7 1475.44 1315.7 1468.33 Q1315.7 1461.2 1313.87 1457.66 Q1312.06 1454.1 1308.43 1454.1 M1308.43 1450.39 Q1314.24 1450.39 1317.29 1455 Q1320.37 1459.58 1320.37 1468.33 Q1320.37 1477.06 1317.29 1481.67 Q1314.24 1486.25 1308.43 1486.25 Q1302.62 1486.25 1299.54 1481.67 Q1296.48 1477.06 1296.48 1468.33 Q1296.48 1459.58 1299.54 1455 Q1302.62 1450.39 1308.43 1450.39 Z" fill="#000000" fill-rule="nonzero" fill-opacity="1" /><path clip-path="url(#clip060)" d="M1631.42 1469.17 Q1628.09 1469.17 1626.16 1470.95 Q1624.27 1472.73 1624.27 1475.86 Q1624.27 1478.98 1626.16 1480.77 Q1628.09 1482.55 1631.42 1482.55 Q1634.75 1482.55 1636.67 1480.77 Q1638.59 1478.96 1638.59 1475.86 Q1638.59 1472.73 1636.67 1470.95 Q1634.77 1469.17 1631.42 1469.17 M1626.74 1467.18 Q1623.73 1466.44 1622.04 1464.38 Q1620.38 1462.32 1620.38 1459.35 Q1620.38 1455.21 1623.32 1452.8 Q1626.28 1450.39 1631.42 1450.39 Q1636.58 1450.39 1639.52 1452.8 Q1642.46 1455.21 1642.46 1459.35 Q1642.46 1462.32 1640.77 1464.38 Q1639.1 1466.44 1636.12 1467.18 Q1639.5 1467.96 1641.37 1470.26 Q1643.27 1472.55 1643.27 1475.86 Q1643.27 1480.88 1640.19 1483.57 Q1637.14 1486.25 1631.42 1486.25 Q1625.7 1486.25 1622.62 1483.57 Q1619.57 1480.88 1619.57 1475.86 Q1619.57 1472.55 1621.46 1470.26 Q1623.36 1467.96 1626.74 1467.18 M1625.03 1459.79 Q1625.03 1462.48 1626.7 1463.98 Q1628.39 1465.49 1631.42 1465.49 Q1634.43 1465.49 1636.12 1463.98 Q1637.83 1462.48 1637.83 1459.79 Q1637.83 1457.11 1636.12 1455.6 Q1634.43 1454.1 1631.42 1454.1 Q1628.39 1454.1 1626.7 1455.6 Q1625.03 1457.11 1625.03 1459.79 Z" fill="#000000" fill-rule="nonzero" fill-opacity="1" /><path clip-path="url(#clip060)" d="M1661.58 1454.1 Q1657.97 1454.1 1656.14 1457.66 Q1654.34 1461.2 1654.34 1468.33 Q1654.34 1475.44 1656.14 1479.01 Q1657.97 1482.55 1661.58 1482.55 Q1665.21 1482.55 1667.02 1479.01 Q1668.85 1475.44 1668.85 1468.33 Q1668.85 1461.2 1667.02 1457.66 Q1665.21 1454.1 1661.58 1454.1 M1661.58 1450.39 Q1667.39 1450.39 1670.45 1455 Q1673.52 1459.58 1673.52 1468.33 Q1673.52 1477.06 1670.45 1481.67 Q1667.39 1486.25 1661.58 1486.25 Q1655.77 1486.25 1652.69 1481.67 Q1649.64 1477.06 1649.64 1468.33 Q1649.64 1459.58 1652.69 1455 Q1655.77 1450.39 1661.58 1450.39 Z" fill="#000000" fill-rule="nonzero" fill-opacity="1" /><path clip-path="url(#clip060)" d="M1959.26 1481.64 L1966.9 1481.64 L1966.9 1455.28 L1958.59 1456.95 L1958.59 1452.69 L1966.85 1451.02 L1971.53 1451.02 L1971.53 1481.64 L1979.16 1481.64 L1979.16 1485.58 L1959.26 1485.58 L1959.26 1481.64 Z" fill="#000000" fill-rule="nonzero" fill-opacity="1" /><path clip-path="url(#clip060)" d="M1998.61 1454.1 Q1995 1454.1 1993.17 1457.66 Q1991.36 1461.2 1991.36 1468.33 Q1991.36 1475.44 1993.17 1479.01 Q1995 1482.55 1998.61 1482.55 Q2002.24 1482.55 2004.05 1479.01 Q2005.88 1475.44 2005.88 1468.33 Q2005.88 1461.2 2004.05 1457.66 Q2002.24 1454.1 1998.61 1454.1 M1998.61 1450.39 Q2004.42 1450.39 2007.47 1455 Q2010.55 1459.58 2010.55 1468.33 Q2010.55 1477.06 2007.47 1481.67 Q2004.42 1486.25 1998.61 1486.25 Q1992.8 1486.25 1989.72 1481.67 Q1986.66 1477.06 1986.66 1468.33 Q1986.66 1459.58 1989.72 1455 Q1992.8 1450.39 1998.61 1450.39 Z" fill="#000000" fill-rule="nonzero" fill-opacity="1" /><path clip-path="url(#clip060)" d="M2028.77 1454.1 Q2025.16 1454.1 2023.33 1457.66 Q2021.53 1461.2 2021.53 1468.33 Q2021.53 1475.44 2023.33 1479.01 Q2025.16 1482.55 2028.77 1482.55 Q2032.41 1482.55 2034.21 1479.01 Q2036.04 1475.44 2036.04 1468.33 Q2036.04 1461.2 2034.21 1457.66 Q2032.41 1454.1 2028.77 1454.1 M2028.77 1450.39 Q2034.58 1450.39 2037.64 1455 Q2040.72 1459.58 2040.72 1468.33 Q2040.72 1477.06 2037.64 1481.67 Q2034.58 1486.25 2028.77 1486.25 Q2022.96 1486.25 2019.88 1481.67 Q2016.83 1477.06 2016.83 1468.33 Q2016.83 1459.58 2019.88 1455 Q2022.96 1450.39 2028.77 1450.39 Z" fill="#000000" fill-rule="nonzero" fill-opacity="1" /><path clip-path="url(#clip060)" d="M2312.36 1481.64 L2320 1481.64 L2320 1455.28 L2311.69 1456.95 L2311.69 1452.69 L2319.96 1451.02 L2324.63 1451.02 L2324.63 1481.64 L2332.27 1481.64 L2332.27 1485.58 L2312.36 1485.58 L2312.36 1481.64 Z" fill="#000000" fill-rule="nonzero" fill-opacity="1" /><path clip-path="url(#clip060)" d="M2345.74 1481.64 L2362.06 1481.64 L2362.06 1485.58 L2340.12 1485.58 L2340.12 1481.64 Q2342.78 1478.89 2347.36 1474.26 Q2351.97 1469.61 2353.15 1468.27 Q2355.39 1465.74 2356.27 1464.01 Q2357.18 1462.25 2357.18 1460.56 Q2357.18 1457.8 2355.23 1456.07 Q2353.31 1454.33 2350.21 1454.33 Q2348.01 1454.33 2345.56 1455.09 Q2343.13 1455.86 2340.35 1457.41 L2340.35 1452.69 Q2343.17 1451.55 2345.63 1450.97 Q2348.08 1450.39 2350.12 1450.39 Q2355.49 1450.39 2358.68 1453.08 Q2361.88 1455.77 2361.88 1460.26 Q2361.88 1462.39 2361.07 1464.31 Q2360.28 1466.2 2358.17 1468.8 Q2357.59 1469.47 2354.49 1472.69 Q2351.39 1475.88 2345.74 1481.64 Z" fill="#000000" fill-rule="nonzero" fill-opacity="1" /><path clip-path="url(#clip060)" d="M2381.88 1454.1 Q2378.27 1454.1 2376.44 1457.66 Q2374.63 1461.2 2374.63 1468.33 Q2374.63 1475.44 2376.44 1479.01 Q2378.27 1482.55 2381.88 1482.55 Q2385.51 1482.55 2387.32 1479.01 Q2389.14 1475.44 2389.14 1468.33 Q2389.14 1461.2 2387.32 1457.66 Q2385.51 1454.1 2381.88 1454.1 M2381.88 1450.39 Q2387.69 1450.39 2390.74 1455 Q2393.82 1459.58 2393.82 1468.33 Q2393.82 1477.06 2390.74 1481.67 Q2387.69 1486.25 2381.88 1486.25 Q2376.07 1486.25 2372.99 1481.67 Q2369.93 1477.06 2369.93 1468.33 Q2369.93 1459.58 2372.99 1455 Q2376.07 1450.39 2381.88 1450.39 Z" fill="#000000" fill-rule="nonzero" fill-opacity="1" /><path clip-path="url(#clip060)" d="M1197.25 1520.52 L1206.84 1520.52 L1218.96 1552.86 L1231.15 1520.52 L1240.73 1520.52 L1240.73 1568.04 L1234.46 1568.04 L1234.46 1526.32 L1222.21 1558.91 L1215.75 1558.91 L1203.49 1526.32 L1203.49 1568.04 L1197.25 1568.04 L1197.25 1520.52 Z" fill="#000000" fill-rule="nonzero" fill-opacity="1" /><path clip-path="url(#clip060)" d="M1267.05 1536.5 Q1262.34 1536.5 1259.61 1540.19 Q1256.87 1543.85 1256.87 1550.25 Q1256.87 1556.65 1259.58 1560.34 Q1262.31 1564 1267.05 1564 Q1271.73 1564 1274.47 1560.31 Q1277.21 1556.62 1277.21 1550.25 Q1277.21 1543.92 1274.47 1540.23 Q1271.73 1536.5 1267.05 1536.5 M1267.05 1531.54 Q1274.69 1531.54 1279.05 1536.5 Q1283.41 1541.47 1283.41 1550.25 Q1283.41 1559 1279.05 1564 Q1274.69 1568.97 1267.05 1568.97 Q1259.38 1568.97 1255.02 1564 Q1250.69 1559 1250.69 1550.25 Q1250.69 1541.47 1255.02 1536.5 Q1259.38 1531.54 1267.05 1531.54 Z" fill="#000000" fill-rule="nonzero" fill-opacity="1" /><path clip-path="url(#clip060)" d="M1322.75 1546.53 L1322.75 1568.04 L1316.9 1568.04 L1316.9 1546.72 Q1316.9 1541.66 1314.92 1539.14 Q1312.95 1536.63 1309 1536.63 Q1304.26 1536.63 1301.53 1539.65 Q1298.79 1542.68 1298.79 1547.9 L1298.79 1568.04 L1292.9 1568.04 L1292.9 1532.4 L1298.79 1532.4 L1298.79 1537.93 Q1300.89 1534.72 1303.72 1533.13 Q1306.59 1531.54 1310.31 1531.54 Q1316.45 1531.54 1319.6 1535.36 Q1322.75 1539.14 1322.75 1546.53 Z" fill="#000000" fill-rule="nonzero" fill-opacity="1" /><path clip-path="url(#clip060)" d="M1340.23 1522.27 L1340.23 1532.4 L1352.29 1532.4 L1352.29 1536.95 L1340.23 1536.95 L1340.23 1556.3 Q1340.23 1560.66 1341.41 1561.9 Q1342.62 1563.14 1346.28 1563.14 L1352.29 1563.14 L1352.29 1568.04 L1346.28 1568.04 Q1339.5 1568.04 1336.92 1565.53 Q1334.34 1562.98 1334.34 1556.3 L1334.34 1536.95 L1330.04 1536.95 L1330.04 1532.4 L1334.34 1532.4 L1334.34 1522.27 L1340.23 1522.27 Z" fill="#000000" fill-rule="nonzero" fill-opacity="1" /><path clip-path="url(#clip060)" d="M1389.63 1546.53 L1389.63 1568.04 L1383.77 1568.04 L1383.77 1546.72 Q1383.77 1541.66 1381.8 1539.14 Q1379.82 1536.63 1375.88 1536.63 Q1371.13 1536.63 1368.4 1539.65 Q1365.66 1542.68 1365.66 1547.9 L1365.66 1568.04 L1359.77 1568.04 L1359.77 1518.52 L1365.66 1518.52 L1365.66 1537.93 Q1367.76 1534.72 1370.59 1533.13 Q1373.46 1531.54 1377.18 1531.54 Q1383.32 1531.54 1386.48 1535.36 Q1389.63 1539.14 1389.63 1546.53 Z" fill="#000000" fill-rule="nonzero" fill-opacity="1" /><polyline clip-path="url(#clip062)" style="stroke:#000000; stroke-linecap:round; stroke-linejoin:round; stroke-width:2; stroke-opacity:0.1; fill:none" points="234.125,1388.47 2352.76,1388.47 "/>
<polyline clip-path="url(#clip062)" style="stroke:#000000; stroke-linecap:round; stroke-linejoin:round; stroke-width:2; stroke-opacity:0.1; fill:none" points="234.125,1068.77 2352.76,1068.77 "/>
<polyline clip-path="url(#clip062)" style="stroke:#000000; stroke-linecap:round; stroke-linejoin:round; stroke-width:2; stroke-opacity:0.1; fill:none" points="234.125,749.07 2352.76,749.07 "/>
<polyline clip-path="url(#clip062)" style="stroke:#000000; stroke-linecap:round; stroke-linejoin:round; stroke-width:2; stroke-opacity:0.1; fill:none" points="234.125,429.369 2352.76,429.369 "/>
<polyline clip-path="url(#clip060)" style="stroke:#000000; stroke-linecap:round; stroke-linejoin:round; stroke-width:4; stroke-opacity:1; fill:none" points="234.125,1423.18 234.125,196.789 "/>
<polyline clip-path="url(#clip060)" style="stroke:#000000; stroke-linecap:round; stroke-linejoin:round; stroke-width:4; stroke-opacity:1; fill:none" points="234.125,1388.47 253.023,1388.47 "/>
<polyline clip-path="url(#clip060)" style="stroke:#000000; stroke-linecap:round; stroke-linejoin:round; stroke-width:4; stroke-opacity:1; fill:none" points="234.125,1068.77 253.023,1068.77 "/>
<polyline clip-path="url(#clip060)" style="stroke:#000000; stroke-linecap:round; stroke-linejoin:round; stroke-width:4; stroke-opacity:1; fill:none" points="234.125,749.07 253.023,749.07 "/>
<polyline clip-path="url(#clip060)" style="stroke:#000000; stroke-linecap:round; stroke-linejoin:round; stroke-width:4; stroke-opacity:1; fill:none" points="234.125,429.369 253.023,429.369 "/>
<path clip-path="url(#clip060)" d="M186.181 1374.27 Q182.57 1374.27 180.741 1377.83 Q178.936 1381.38 178.936 1388.51 Q178.936 1395.61 180.741 1399.18 Q182.57 1402.72 186.181 1402.72 Q189.815 1402.72 191.621 1399.18 Q193.45 1395.61 193.45 1388.51 Q193.45 1381.38 191.621 1377.83 Q189.815 1374.27 186.181 1374.27 M186.181 1370.57 Q191.991 1370.57 195.047 1375.17 Q198.125 1379.76 198.125 1388.51 Q198.125 1397.23 195.047 1401.84 Q191.991 1406.42 186.181 1406.42 Q180.371 1406.42 177.292 1401.84 Q174.237 1397.23 174.237 1388.51 Q174.237 1379.76 177.292 1375.17 Q180.371 1370.57 186.181 1370.57 Z" fill="#000000" fill-rule="nonzero" fill-opacity="1" /><path clip-path="url(#clip060)" d="M116.668 1082.11 L124.306 1082.11 L124.306 1055.75 L115.996 1057.42 L115.996 1053.16 L124.26 1051.49 L128.936 1051.49 L128.936 1082.11 L136.575 1082.11 L136.575 1086.05 L116.668 1086.05 L116.668 1082.11 Z" fill="#000000" fill-rule="nonzero" fill-opacity="1" /><path clip-path="url(#clip060)" d="M156.019 1054.57 Q152.408 1054.57 150.579 1058.13 Q148.774 1061.68 148.774 1068.8 Q148.774 1075.91 150.579 1079.48 Q152.408 1083.02 156.019 1083.02 Q159.653 1083.02 161.459 1079.48 Q163.288 1075.91 163.288 1068.8 Q163.288 1061.68 161.459 1058.13 Q159.653 1054.57 156.019 1054.57 M156.019 1050.87 Q161.829 1050.87 164.885 1055.47 Q167.964 1060.05 167.964 1068.8 Q167.964 1077.53 164.885 1082.14 Q161.829 1086.72 156.019 1086.72 Q150.209 1086.72 147.13 1082.14 Q144.075 1077.53 144.075 1068.8 Q144.075 1060.05 147.13 1055.47 Q150.209 1050.87 156.019 1050.87 Z" fill="#000000" fill-rule="nonzero" fill-opacity="1" /><path clip-path="url(#clip060)" d="M186.181 1054.57 Q182.57 1054.57 180.741 1058.13 Q178.936 1061.68 178.936 1068.8 Q178.936 1075.91 180.741 1079.48 Q182.57 1083.02 186.181 1083.02 Q189.815 1083.02 191.621 1079.48 Q193.45 1075.91 193.45 1068.8 Q193.45 1061.68 191.621 1058.13 Q189.815 1054.57 186.181 1054.57 M186.181 1050.87 Q191.991 1050.87 195.047 1055.47 Q198.125 1060.05 198.125 1068.8 Q198.125 1077.53 195.047 1082.14 Q191.991 1086.72 186.181 1086.72 Q180.371 1086.72 177.292 1082.14 Q174.237 1077.53 174.237 1068.8 Q174.237 1060.05 177.292 1055.47 Q180.371 1050.87 186.181 1050.87 Z" fill="#000000" fill-rule="nonzero" fill-opacity="1" /><path clip-path="url(#clip060)" d="M119.885 762.414 L136.204 762.414 L136.204 766.35 L114.26 766.35 L114.26 762.414 Q116.922 759.66 121.505 755.03 Q126.112 750.377 127.292 749.035 Q129.538 746.512 130.417 744.776 Q131.32 743.016 131.32 741.327 Q131.32 738.572 129.376 736.836 Q127.455 735.1 124.353 735.1 Q122.154 735.1 119.7 735.864 Q117.269 736.628 114.492 738.178 L114.492 733.456 Q117.316 732.322 119.769 731.743 Q122.223 731.165 124.26 731.165 Q129.63 731.165 132.825 733.85 Q136.019 736.535 136.019 741.026 Q136.019 743.155 135.209 745.077 Q134.422 746.975 132.316 749.567 Q131.737 750.239 128.635 753.456 Q125.533 756.651 119.885 762.414 Z" fill="#000000" fill-rule="nonzero" fill-opacity="1" /><path clip-path="url(#clip060)" d="M156.019 734.868 Q152.408 734.868 150.579 738.433 Q148.774 741.975 148.774 749.104 Q148.774 756.211 150.579 759.776 Q152.408 763.317 156.019 763.317 Q159.653 763.317 161.459 759.776 Q163.288 756.211 163.288 749.104 Q163.288 741.975 161.459 738.433 Q159.653 734.868 156.019 734.868 M156.019 731.165 Q161.829 731.165 164.885 735.771 Q167.964 740.354 167.964 749.104 Q167.964 757.831 164.885 762.438 Q161.829 767.021 156.019 767.021 Q150.209 767.021 147.13 762.438 Q144.075 757.831 144.075 749.104 Q144.075 740.354 147.13 735.771 Q150.209 731.165 156.019 731.165 Z" fill="#000000" fill-rule="nonzero" fill-opacity="1" /><path clip-path="url(#clip060)" d="M186.181 734.868 Q182.57 734.868 180.741 738.433 Q178.936 741.975 178.936 749.104 Q178.936 756.211 180.741 759.776 Q182.57 763.317 186.181 763.317 Q189.815 763.317 191.621 759.776 Q193.45 756.211 193.45 749.104 Q193.45 741.975 191.621 738.433 Q189.815 734.868 186.181 734.868 M186.181 731.165 Q191.991 731.165 195.047 735.771 Q198.125 740.354 198.125 749.104 Q198.125 757.831 195.047 762.438 Q191.991 767.021 186.181 767.021 Q180.371 767.021 177.292 762.438 Q174.237 757.831 174.237 749.104 Q174.237 740.354 177.292 735.771 Q180.371 731.165 186.181 731.165 Z" fill="#000000" fill-rule="nonzero" fill-opacity="1" /><path clip-path="url(#clip060)" d="M130.024 428.015 Q133.38 428.733 135.255 431.001 Q137.154 433.27 137.154 436.603 Q137.154 441.719 133.635 444.519 Q130.117 447.32 123.635 447.32 Q121.459 447.32 119.144 446.881 Q116.853 446.464 114.399 445.607 L114.399 441.094 Q116.343 442.228 118.658 442.807 Q120.973 443.385 123.496 443.385 Q127.894 443.385 130.186 441.649 Q132.501 439.913 132.501 436.603 Q132.501 433.547 130.348 431.834 Q128.218 430.098 124.399 430.098 L120.371 430.098 L120.371 426.256 L124.584 426.256 Q128.033 426.256 129.862 424.89 Q131.691 423.501 131.691 420.909 Q131.691 418.246 129.792 416.834 Q127.917 415.399 124.399 415.399 Q122.478 415.399 120.279 415.816 Q118.08 416.233 115.441 417.112 L115.441 412.946 Q118.103 412.205 120.418 411.834 Q122.755 411.464 124.816 411.464 Q130.14 411.464 133.242 413.895 Q136.343 416.302 136.343 420.422 Q136.343 423.293 134.7 425.283 Q133.056 427.251 130.024 428.015 Z" fill="#000000" fill-rule="nonzero" fill-opacity="1" /><path clip-path="url(#clip060)" d="M156.019 415.168 Q152.408 415.168 150.579 418.733 Q148.774 422.274 148.774 429.404 Q148.774 436.51 150.579 440.075 Q152.408 443.617 156.019 443.617 Q159.653 443.617 161.459 440.075 Q163.288 436.51 163.288 429.404 Q163.288 422.274 161.459 418.733 Q159.653 415.168 156.019 415.168 M156.019 411.464 Q161.829 411.464 164.885 416.071 Q167.964 420.654 167.964 429.404 Q167.964 438.131 164.885 442.737 Q161.829 447.32 156.019 447.32 Q150.209 447.32 147.13 442.737 Q144.075 438.131 144.075 429.404 Q144.075 420.654 147.13 416.071 Q150.209 411.464 156.019 411.464 Z" fill="#000000" fill-rule="nonzero" fill-opacity="1" /><path clip-path="url(#clip060)" d="M186.181 415.168 Q182.57 415.168 180.741 418.733 Q178.936 422.274 178.936 429.404 Q178.936 436.51 180.741 440.075 Q182.57 443.617 186.181 443.617 Q189.815 443.617 191.621 440.075 Q193.45 436.51 193.45 429.404 Q193.45 422.274 191.621 418.733 Q189.815 415.168 186.181 415.168 M186.181 411.464 Q191.991 411.464 195.047 416.071 Q198.125 420.654 198.125 429.404 Q198.125 438.131 195.047 442.737 Q191.991 447.32 186.181 447.32 Q180.371 447.32 177.292 442.737 Q174.237 438.131 174.237 429.404 Q174.237 420.654 177.292 416.071 Q180.371 411.464 186.181 411.464 Z" fill="#000000" fill-rule="nonzero" fill-opacity="1" /><path clip-path="url(#clip060)" d="M16.4842 1274.35 L16.4842 1267.92 L58.5933 1267.92 L58.5933 1244.78 L64.0042 1244.78 L64.0042 1274.35 L16.4842 1274.35 Z" fill="#000000" fill-rule="nonzero" fill-opacity="1" /><path clip-path="url(#clip060)" d="M28.3562 1238.28 L28.3562 1232.43 L64.0042 1232.43 L64.0042 1238.28 L28.3562 1238.28 M14.479 1238.28 L14.479 1232.43 L21.895 1232.43 L21.895 1238.28 L14.479 1238.28 Z" fill="#000000" fill-rule="nonzero" fill-opacity="1" /><path clip-path="url(#clip060)" d="M46.212 1216.67 Q52.6732 1216.67 56.3653 1214.03 Q60.0256 1211.36 60.0256 1206.71 Q60.0256 1202.06 56.3653 1199.39 Q52.6732 1196.72 46.212 1196.72 Q39.7508 1196.72 36.0905 1199.39 Q32.3984 1202.06 32.3984 1206.71 Q32.3984 1211.36 36.0905 1214.03 Q39.7508 1216.67 46.212 1216.67 M58.657 1196.72 Q61.8398 1198.56 63.3994 1201.4 Q64.9272 1204.2 64.9272 1208.14 Q64.9272 1214.6 59.771 1218.68 Q54.6147 1222.72 46.212 1222.72 Q37.8093 1222.72 32.6531 1218.68 Q27.4968 1214.6 27.4968 1208.14 Q27.4968 1204.2 29.0564 1201.4 Q30.5842 1198.56 33.7671 1196.72 L28.3562 1196.72 L28.3562 1190.86 L77.5631 1190.86 L77.5631 1196.72 L58.657 1196.72 Z" fill="#000000" fill-rule="nonzero" fill-opacity="1" /><path clip-path="url(#clip060)" d="M49.9359 1179.4 L28.3562 1179.4 L28.3562 1173.55 L49.7131 1173.55 Q54.7739 1173.55 57.3202 1171.57 Q59.8346 1169.6 59.8346 1165.65 Q59.8346 1160.91 56.8109 1158.17 Q53.7872 1155.4 48.5673 1155.4 L28.3562 1155.4 L28.3562 1149.55 L64.0042 1149.55 L64.0042 1155.4 L58.5296 1155.4 Q61.7762 1157.54 63.3676 1160.37 Q64.9272 1163.17 64.9272 1166.89 Q64.9272 1173.04 61.1078 1176.22 Q57.2883 1179.4 49.9359 1179.4 M27.4968 1164.67 L27.4968 1164.67 Z" fill="#000000" fill-rule="nonzero" fill-opacity="1" /><path clip-path="url(#clip060)" d="M28.3562 1137.48 L28.3562 1131.63 L64.0042 1131.63 L64.0042 1137.48 L28.3562 1137.48 M14.479 1137.48 L14.479 1131.63 L21.895 1131.63 L21.895 1137.48 L14.479 1137.48 Z" fill="#000000" fill-rule="nonzero" fill-opacity="1" /><path clip-path="url(#clip060)" d="M33.7671 1095.92 L14.479 1095.92 L14.479 1090.06 L64.0042 1090.06 L64.0042 1095.92 L58.657 1095.92 Q61.8398 1097.76 63.3994 1100.59 Q64.9272 1103.4 64.9272 1107.34 Q64.9272 1113.8 59.771 1117.88 Q54.6147 1121.92 46.212 1121.92 Q37.8093 1121.92 32.6531 1117.88 Q27.4968 1113.8 27.4968 1107.34 Q27.4968 1103.4 29.0564 1100.59 Q30.5842 1097.76 33.7671 1095.92 M46.212 1115.87 Q52.6732 1115.87 56.3653 1113.23 Q60.0256 1110.56 60.0256 1105.91 Q60.0256 1101.26 56.3653 1098.59 Q52.6732 1095.92 46.212 1095.92 Q39.7508 1095.92 36.0905 1098.59 Q32.3984 1101.26 32.3984 1105.91 Q32.3984 1110.56 36.0905 1113.23 Q39.7508 1115.87 46.212 1115.87 Z" fill="#000000" fill-rule="nonzero" fill-opacity="1" /><path clip-path="url(#clip060)" d="M28.3562 1057.28 L28.3562 1051.42 L64.0042 1051.42 L64.0042 1057.28 L28.3562 1057.28 M14.479 1057.28 L14.479 1051.42 L21.895 1051.42 L21.895 1057.28 L14.479 1057.28 Z" fill="#000000" fill-rule="nonzero" fill-opacity="1" /><path clip-path="url(#clip060)" d="M42.4881 1009.53 L64.0042 1009.53 L64.0042 1015.39 L42.679 1015.39 Q37.6183 1015.39 35.1038 1017.36 Q32.5894 1019.34 32.5894 1023.28 Q32.5894 1028.03 35.6131 1030.76 Q38.6368 1033.5 43.8567 1033.5 L64.0042 1033.5 L64.0042 1039.39 L28.3562 1039.39 L28.3562 1033.5 L33.8944 1033.5 Q30.6797 1031.4 29.0883 1028.57 Q27.4968 1025.7 27.4968 1021.98 Q27.4968 1015.84 31.3163 1012.68 Q35.1038 1009.53 42.4881 1009.53 Z" fill="#000000" fill-rule="nonzero" fill-opacity="1" /><path clip-path="url(#clip060)" d="M28.3562 997.852 L28.3562 991.996 L64.6407 991.996 Q71.452 991.996 74.5076 994.606 Q77.5631 997.184 77.5631 1002.94 L77.5631 1005.17 L72.5979 1005.17 L72.5979 1003.61 Q72.5979 1000.27 71.0383 999.062 Q69.5105 997.852 64.6407 997.852 L28.3562 997.852 M14.479 997.852 L14.479 991.996 L21.895 991.996 L21.895 997.852 L14.479 997.852 Z" fill="#000000" fill-rule="nonzero" fill-opacity="1" /><path clip-path="url(#clip060)" d="M44.7161 949.25 L47.5806 949.25 L47.5806 976.177 Q53.6281 975.795 56.8109 972.548 Q59.9619 969.27 59.9619 963.446 Q59.9619 960.072 59.1344 956.921 Q58.3069 953.738 56.6518 950.619 L62.1899 950.619 Q63.5267 953.77 64.227 957.08 Q64.9272 960.39 64.9272 963.796 Q64.9272 972.326 59.9619 977.323 Q54.9967 982.288 46.5303 982.288 Q37.7774 982.288 32.6531 977.577 Q27.4968 972.835 27.4968 964.814 Q27.4968 957.621 32.1438 953.451 Q36.7589 949.25 44.7161 949.25 M42.9973 955.106 Q38.1912 955.17 35.3266 957.812 Q32.4621 960.422 32.4621 964.75 Q32.4621 969.652 35.2312 972.612 Q38.0002 975.54 43.0292 975.986 L42.9973 955.106 Z" fill="#000000" fill-rule="nonzero" fill-opacity="1" /><path clip-path="url(#clip060)" d="M29.7248 913.984 L35.1993 913.984 Q33.8307 916.467 33.1623 918.981 Q32.4621 921.464 32.4621 924.01 Q32.4621 929.707 36.0905 932.858 Q39.6872 936.009 46.212 936.009 Q52.7369 936.009 56.3653 932.858 Q59.9619 929.707 59.9619 924.01 Q59.9619 921.464 59.2935 918.981 Q58.5933 916.467 57.2247 913.984 L62.6355 913.984 Q63.7814 916.435 64.3543 919.077 Q64.9272 921.686 64.9272 924.647 Q64.9272 932.699 59.8664 937.442 Q54.8057 942.184 46.212 942.184 Q37.491 942.184 32.4939 937.41 Q27.4968 932.604 27.4968 924.265 Q27.4968 921.559 28.0697 918.981 Q28.6108 916.403 29.7248 913.984 Z" fill="#000000" fill-rule="nonzero" fill-opacity="1" /><path clip-path="url(#clip060)" d="M18.2347 898.006 L28.3562 898.006 L28.3562 885.943 L32.9077 885.943 L32.9077 898.006 L52.2594 898.006 Q56.6199 898.006 57.8613 896.828 Q59.1026 895.619 59.1026 891.959 L59.1026 885.943 L64.0042 885.943 L64.0042 891.959 Q64.0042 898.738 61.4897 901.316 Q58.9434 903.894 52.2594 903.894 L32.9077 903.894 L32.9077 908.191 L28.3562 908.191 L28.3562 903.894 L18.2347 903.894 L18.2347 898.006 Z" fill="#000000" fill-rule="nonzero" fill-opacity="1" /><path clip-path="url(#clip060)" d="M28.3562 878.241 L28.3562 872.384 L64.0042 872.384 L64.0042 878.241 L28.3562 878.241 M14.479 878.241 L14.479 872.384 L21.895 872.384 L21.895 878.241 L14.479 878.241 Z" fill="#000000" fill-rule="nonzero" fill-opacity="1" /><path clip-path="url(#clip060)" d="M32.4621 846.317 Q32.4621 851.027 36.1542 853.764 Q39.8145 856.502 46.212 856.502 Q52.6095 856.502 56.3017 853.796 Q59.9619 851.059 59.9619 846.317 Q59.9619 841.638 56.2698 838.9 Q52.5777 836.163 46.212 836.163 Q39.8781 836.163 36.186 838.9 Q32.4621 841.638 32.4621 846.317 M27.4968 846.317 Q27.4968 838.678 32.4621 834.317 Q37.4273 829.957 46.212 829.957 Q54.9649 829.957 59.9619 834.317 Q64.9272 838.678 64.9272 846.317 Q64.9272 853.987 59.9619 858.348 Q54.9649 862.676 46.212 862.676 Q37.4273 862.676 32.4621 858.348 Q27.4968 853.987 27.4968 846.317 Z" fill="#000000" fill-rule="nonzero" fill-opacity="1" /><path clip-path="url(#clip060)" d="M42.4881 790.617 L64.0042 790.617 L64.0042 796.473 L42.679 796.473 Q37.6183 796.473 35.1038 798.446 Q32.5894 800.42 32.5894 804.366 Q32.5894 809.109 35.6131 811.846 Q38.6368 814.583 43.8567 814.583 L64.0042 814.583 L64.0042 820.472 L28.3562 820.472 L28.3562 814.583 L33.8944 814.583 Q30.6797 812.483 29.0883 809.65 Q27.4968 806.785 27.4968 803.062 Q27.4968 796.919 31.3163 793.768 Q35.1038 790.617 42.4881 790.617 Z" fill="#000000" fill-rule="nonzero" fill-opacity="1" /><path clip-path="url(#clip060)" d="M33.8307 737.558 Q33.2578 738.545 33.0032 739.723 Q32.7167 740.869 32.7167 742.269 Q32.7167 747.234 35.9632 749.908 Q39.1779 752.55 45.2253 752.55 L64.0042 752.55 L64.0042 758.438 L28.3562 758.438 L28.3562 752.55 L33.8944 752.55 Q30.6479 750.704 29.0883 747.744 Q27.4968 744.783 27.4968 740.55 Q27.4968 739.946 27.5923 739.213 Q27.656 738.481 27.8151 737.59 L33.8307 737.558 Z" fill="#000000" fill-rule="nonzero" fill-opacity="1" /><path clip-path="url(#clip060)" d="M46.0847 715.215 Q46.0847 722.313 47.7079 725.05 Q49.3312 727.787 53.2461 727.787 Q56.3653 727.787 58.2114 725.75 Q60.0256 723.681 60.0256 720.148 Q60.0256 715.278 56.5881 712.35 Q53.1188 709.39 47.3897 709.39 L46.0847 709.39 L46.0847 715.215 M43.6657 703.534 L64.0042 703.534 L64.0042 709.39 L58.5933 709.39 Q61.8398 711.395 63.3994 714.387 Q64.9272 717.379 64.9272 721.708 Q64.9272 727.182 61.8716 730.429 Q58.7843 733.643 53.6281 733.643 Q47.6125 733.643 44.5569 729.633 Q41.5014 725.591 41.5014 717.602 L41.5014 709.39 L40.9285 709.39 Q36.8862 709.39 34.6901 712.064 Q32.4621 714.706 32.4621 719.512 Q32.4621 722.567 33.1941 725.464 Q33.9262 728.36 35.3903 731.034 L29.9795 731.034 Q28.7381 727.819 28.1334 724.795 Q27.4968 721.771 27.4968 718.907 Q27.4968 711.173 31.5072 707.353 Q35.5176 703.534 43.6657 703.534 Z" fill="#000000" fill-rule="nonzero" fill-opacity="1" /><path clip-path="url(#clip060)" d="M18.2347 685.678 L28.3562 685.678 L28.3562 673.615 L32.9077 673.615 L32.9077 685.678 L52.2594 685.678 Q56.6199 685.678 57.8613 684.5 Q59.1026 683.291 59.1026 679.63 L59.1026 673.615 L64.0042 673.615 L64.0042 679.63 Q64.0042 686.41 61.4897 688.988 Q58.9434 691.566 52.2594 691.566 L32.9077 691.566 L32.9077 695.863 L28.3562 695.863 L28.3562 691.566 L18.2347 691.566 L18.2347 685.678 Z" fill="#000000" fill-rule="nonzero" fill-opacity="1" /><path clip-path="url(#clip060)" d="M44.7161 635.421 L47.5806 635.421 L47.5806 662.348 Q53.6281 661.966 56.8109 658.719 Q59.9619 655.441 59.9619 649.616 Q59.9619 646.242 59.1344 643.091 Q58.3069 639.908 56.6518 636.789 L62.1899 636.789 Q63.5267 639.94 64.227 643.25 Q64.9272 646.561 64.9272 649.966 Q64.9272 658.496 59.9619 663.493 Q54.9967 668.459 46.5303 668.459 Q37.7774 668.459 32.6531 663.748 Q27.4968 659.006 27.4968 650.985 Q27.4968 643.792 32.1438 639.622 Q36.7589 635.421 44.7161 635.421 M42.9973 641.277 Q38.1912 641.341 35.3266 643.983 Q32.4621 646.592 32.4621 650.921 Q32.4621 655.823 35.2312 658.783 Q38.0002 661.711 43.0292 662.157 L42.9973 641.277 Z" fill="#000000" fill-rule="nonzero" fill-opacity="1" /><path clip-path="url(#clip060)" d="M55.9197 624.312 L55.9197 617.597 L61.3942 617.597 L71.5793 622.817 L71.5793 626.922 L61.3942 624.312 L55.9197 624.312 Z" fill="#000000" fill-rule="nonzero" fill-opacity="1" /><path clip-path="url(#clip060)" d="M35.1993 556.613 Q31.2526 554.417 29.3747 551.361 Q27.4968 548.306 27.4968 544.168 Q27.4968 538.598 31.4117 535.575 Q35.2948 532.551 42.4881 532.551 L64.0042 532.551 L64.0042 538.439 L42.679 538.439 Q37.5546 538.439 35.072 540.253 Q32.5894 542.068 32.5894 545.791 Q32.5894 550.343 35.6131 552.985 Q38.6368 555.627 43.8567 555.627 L64.0042 555.627 L64.0042 561.515 L42.679 561.515 Q37.5228 561.515 35.072 563.329 Q32.5894 565.143 32.5894 568.931 Q32.5894 573.419 35.6449 576.06 Q38.6686 578.702 43.8567 578.702 L64.0042 578.702 L64.0042 584.59 L28.3562 584.59 L28.3562 578.702 L33.8944 578.702 Q30.616 576.697 29.0564 573.896 Q27.4968 571.095 27.4968 567.244 Q27.4968 563.361 29.4702 560.655 Q31.4436 557.918 35.1993 556.613 Z" fill="#000000" fill-rule="nonzero" fill-opacity="1" /><path clip-path="url(#clip060)" d="M38.3822 500.563 Q39.3689 495.948 42.4881 493.37 Q45.6073 490.76 50.1906 490.76 Q57.2247 490.76 61.0759 495.598 Q64.9272 500.436 64.9272 509.348 Q64.9272 512.34 64.3224 515.523 Q63.7495 518.674 62.5719 522.047 L56.3653 522.047 Q57.9249 519.374 58.7206 516.191 Q59.5163 513.008 59.5163 509.539 Q59.5163 503.491 57.1292 500.34 Q54.7421 497.157 50.1906 497.157 Q45.9892 497.157 43.6339 500.118 Q41.2468 503.046 41.2468 508.297 L41.2468 513.836 L35.9632 513.836 L35.9632 508.043 Q35.9632 503.3 34.0853 500.786 Q32.1756 498.271 28.6108 498.271 Q24.9505 498.271 23.009 500.881 Q21.0356 503.46 21.0356 508.297 Q21.0356 510.939 21.6086 513.963 Q22.1815 516.987 23.3909 520.615 L17.6618 520.615 Q16.6433 516.955 16.134 513.772 Q15.6248 510.557 15.6248 507.725 Q15.6248 500.404 18.9668 496.139 Q22.277 491.874 27.9424 491.874 Q31.8892 491.874 34.6264 494.134 Q37.3318 496.394 38.3822 500.563 Z" fill="#000000" fill-rule="nonzero" fill-opacity="1" /><path clip-path="url(#clip060)" d="M16.4842 468.989 L16.4842 463.578 L70.0516 480.129 L70.0516 485.54 L16.4842 468.989 Z" fill="#000000" fill-rule="nonzero" fill-opacity="1" /><path clip-path="url(#clip060)" d="M33.7671 433.978 L14.479 433.978 L14.479 428.121 L64.0042 428.121 L64.0042 433.978 L58.657 433.978 Q61.8398 435.824 63.3994 438.657 Q64.9272 441.458 64.9272 445.404 Q64.9272 451.865 59.771 455.94 Q54.6147 459.982 46.212 459.982 Q37.8093 459.982 32.6531 455.94 Q27.4968 451.865 27.4968 445.404 Q27.4968 441.458 29.0564 438.657 Q30.5842 435.824 33.7671 433.978 M46.212 453.934 Q52.6732 453.934 56.3653 451.293 Q60.0256 448.619 60.0256 443.972 Q60.0256 439.325 56.3653 436.651 Q52.6732 433.978 46.212 433.978 Q39.7508 433.978 36.0905 436.651 Q32.3984 439.325 32.3984 443.972 Q32.3984 448.619 36.0905 451.293 Q39.7508 453.934 46.212 453.934 Z" fill="#000000" fill-rule="nonzero" fill-opacity="1" /><path clip-path="url(#clip060)" d="M46.0847 399.858 Q46.0847 406.955 47.7079 409.693 Q49.3312 412.43 53.2461 412.43 Q56.3653 412.43 58.2114 410.393 Q60.0256 408.324 60.0256 404.791 Q60.0256 399.921 56.5881 396.993 Q53.1188 394.033 47.3897 394.033 L46.0847 394.033 L46.0847 399.858 M43.6657 388.177 L64.0042 388.177 L64.0042 394.033 L58.5933 394.033 Q61.8398 396.038 63.3994 399.03 Q64.9272 402.022 64.9272 406.351 Q64.9272 411.825 61.8716 415.072 Q58.7843 418.286 53.6281 418.286 Q47.6125 418.286 44.5569 414.276 Q41.5014 410.234 41.5014 402.245 L41.5014 394.033 L40.9285 394.033 Q36.8862 394.033 34.6901 396.707 Q32.4621 399.348 32.4621 404.155 Q32.4621 407.21 33.1941 410.106 Q33.9262 413.003 35.3903 415.676 L29.9795 415.676 Q28.7381 412.462 28.1334 409.438 Q27.4968 406.414 27.4968 403.55 Q27.4968 395.815 31.5072 391.996 Q35.5176 388.177 43.6657 388.177 Z" fill="#000000" fill-rule="nonzero" fill-opacity="1" /><path clip-path="url(#clip060)" d="M67.3143 361.281 Q73.68 363.764 75.6216 366.119 Q77.5631 368.475 77.5631 372.421 L77.5631 377.1 L72.6615 377.1 L72.6615 373.663 Q72.6615 371.244 71.5157 369.907 Q70.3699 368.57 66.1048 366.947 L63.4312 365.897 L28.3562 380.315 L28.3562 374.108 L56.238 362.968 L28.3562 351.828 L28.3562 345.622 L67.3143 361.281 Z" fill="#000000" fill-rule="nonzero" fill-opacity="1" /><polyline clip-path="url(#clip062)" style="stroke:#000000; stroke-linecap:round; stroke-linejoin:round; stroke-width:8; stroke-opacity:1; fill:none" points="251.781,1388.47 269.436,1388.47 287.091,1388.47 304.746,1388.47 322.402,1388.47 340.057,1388.47 357.712,1388.47 357.712,261.915 375.367,261.915 375.367,307.54 393.023,307.54 393.023,277.123 410.678,277.123 410.678,254.31 428.333,254.31 428.333,239.102 445.988,239.102 445.988,284.727 463.644,284.727 463.644,277.123 481.299,277.123 481.299,269.519 498.954,269.519 498.954,307.54 516.61,307.54 516.61,1388.47 534.265,1388.47 551.92,1388.47 569.575,1388.47 569.575,269.519 587.231,269.519 587.231,231.498 604.886,231.498 604.886,246.706 622.541,246.706 622.541,239.102 640.196,239.102 640.196,299.936 657.852,299.936 657.852,246.706 675.507,246.706 693.162,246.706 693.162,307.54 710.817,307.54 710.817,284.727 728.473,284.727 728.473,231.498 746.128,231.498 763.783,231.498 781.438,231.498 781.438,269.519 799.094,269.519 799.094,1388.47 816.749,1388.47 834.404,1388.47 852.059,1388.47 852.059,307.54 869.715,307.54 869.715,254.31 887.37,254.31 887.37,239.102 905.025,239.102 905.025,246.706 922.68,246.706 922.68,231.498 940.336,231.498 940.336,284.727 957.991,284.727 957.991,231.498 975.646,231.498 975.646,277.123 993.301,277.123 1010.96,277.123 1010.96,254.31 1028.61,254.31 1028.61,307.54 1046.27,307.54 1046.27,299.936 1063.92,299.936 1063.92,269.519 1081.58,269.519 1081.58,1388.47 1099.23,1388.47 1116.89,1388.47 1134.54,1388.47 1134.54,292.331 1152.2,292.331 1152.2,254.31 1169.85,254.31 1169.85,246.706 1187.51,246.706 1187.51,261.915 1205.16,261.915 1205.16,299.936 1222.82,299.936 1222.82,292.331 1240.47,292.331 1240.47,269.519 1258.13,269.519 1258.13,284.727 1275.79,284.727 1275.79,299.936 1293.44,299.936 1293.44,284.727 1311.1,284.727 1311.1,269.519 1328.75,269.519 1328.75,277.123 1346.41,277.123 1346.41,269.519 1364.06,269.519 1364.06,1388.47 1381.72,1388.47 1399.37,1388.47 1417.03,1388.47 1417.03,231.498 1434.68,231.498 1434.68,277.123 1452.34,277.123 1452.34,284.727 1469.99,284.727 1469.99,299.936 1487.65,299.936 1487.65,284.727 1505.3,284.727 1505.3,299.936 1522.96,299.936 1522.96,307.54 1540.61,307.54 1540.61,261.915 1558.27,261.915 1558.27,284.727 1575.92,284.727 1575.92,277.123 1593.58,277.123 1593.58,292.331 1611.24,292.331 1628.89,292.331 1628.89,277.123 1646.55,277.123 1646.55,1388.47 1664.2,1388.47 1681.86,1388.47 1699.51,1388.47 1699.51,239.102 1717.17,239.102 1717.17,307.54 1734.82,307.54 1734.82,231.498 1752.48,231.498 1752.48,549.257 1770.13,549.257 1770.13,694.287 1787.79,694.287 1787.79,679.079 1805.44,679.079 1805.44,724.704 1823.1,724.704 1823.1,732.308 1840.75,732.308 1840.75,739.912 1858.41,739.912 1858.41,709.495 1876.06,709.495 1876.06,724.704 1893.72,724.704 1893.72,709.495 1911.37,709.495 1929.03,709.495 1929.03,1388.47 1946.69,1388.47 1964.34,1388.47 1982,1388.47 1982,694.287 1999.65,694.287 1999.65,747.516 2017.31,747.516 2017.31,686.683 2034.96,686.683 2034.96,694.287 2052.62,694.287 2052.62,739.912 2070.27,739.912 2070.27,755.121 2087.93,755.121 2087.93,724.704 2105.58,724.704 2105.58,755.121 2123.24,755.121 2140.89,755.121 2140.89,732.308 2158.55,732.308 2158.55,679.079 2176.2,679.079 2176.2,694.287 2193.86,694.287 2193.86,717.1 2211.51,717.1 2211.51,1388.47 2229.17,1388.47 2246.82,1388.47 2264.48,1388.47 2264.48,679.079 2282.13,679.079 2282.13,755.121 2299.79,755.121 2299.79,701.891 2317.45,701.891 2317.45,755.121 2335.1,755.121 2335.1,701.891 2352.76,701.891 2352.76,732.308 "/>
<polyline clip-path="url(#clip062)" style="stroke:#000000; stroke-linecap:round; stroke-linejoin:round; stroke-width:8; stroke-opacity:1; fill:none" stroke-dasharray="32, 20" points="251.781,1388.47 269.436,1388.47 287.091,1388.47 304.746,1388.47 322.402,1388.47 340.057,1388.47 357.712,1388.47 357.712,1227.13 375.367,1227.13 375.367,1216.73 393.023,1216.73 393.023,1214.12 410.678,1214.12 410.678,1220.63 428.333,1220.63 428.333,1214.12 445.988,1214.12 445.988,1221.93 463.644,1221.93 463.644,1225.83 481.299,1225.83 481.299,1219.33 498.954,1219.33 498.954,1221.93 516.61,1221.93 516.61,1220.63 534.265,1220.63 534.265,1214.12 551.92,1214.12 551.92,1216.73 569.575,1216.73 569.575,1224.53 587.231,1224.53 587.231,1219.33 604.886,1219.33 604.886,1220.63 622.541,1220.63 622.541,1224.53 640.196,1224.53 640.196,1219.33 657.852,1219.33 657.852,1223.23 675.507,1223.23 675.507,1216.73 693.162,1216.73 693.162,1215.42 710.817,1215.42 710.817,1223.23 728.473,1223.23 728.473,1221.93 746.128,1221.93 746.128,1215.42 763.783,1215.42 763.783,1216.73 781.438,1216.73 781.438,1221.93 799.094,1221.93 799.094,1388.47 816.749,1388.47 834.404,1388.47 852.059,1388.47 852.059,1216.73 869.715,1216.73 869.715,1227.13 887.37,1227.13 887.37,1221.93 905.025,1221.93 905.025,1216.73 922.68,1216.73 922.68,1227.13 940.336,1227.13 940.336,1214.12 957.991,1214.12 957.991,1216.73 975.646,1216.73 975.646,1225.83 993.301,1225.83 993.301,1216.73 1010.96,1216.73 1010.96,1224.53 1028.61,1224.53 1028.61,1225.83 1046.27,1225.83 1046.27,1388.47 1063.92,1388.47 1081.58,1388.47 1099.23,1388.47 1099.23,1219.33 1116.89,1219.33 1116.89,1225.83 1134.54,1225.83 1134.54,1227.13 1152.2,1227.13 1152.2,1225.83 1169.85,1225.83 1169.85,1227.13 1187.51,1227.13 1187.51,1214.12 1205.16,1214.12 1205.16,1223.23 1222.82,1223.23 1240.47,1223.23 1240.47,1216.73 1258.13,1216.73 1258.13,1218.03 1275.79,1218.03 1275.79,1214.12 1293.44,1214.12 1293.44,1388.47 1311.1,1388.47 1328.75,1388.47 1346.41,1388.47 1346.41,1219.33 1364.06,1219.33 1364.06,1223.23 1381.72,1223.23 1381.72,1216.73 1399.37,1216.73 1399.37,1223.23 1417.03,1223.23 1417.03,1214.12 1434.68,1214.12 1434.68,1220.63 1452.34,1220.63 1452.34,1225.83 1469.99,1225.83 1469.99,1216.73 1487.65,1216.73 1487.65,1225.83 1505.3,1225.83 1505.3,1227.13 1522.96,1227.13 1522.96,1219.33 1540.61,1219.33 1540.61,1388.47 1558.27,1388.47 1575.92,1388.47 1593.58,1388.47 1593.58,1223.23 1611.24,1223.23 1611.24,1220.63 1628.89,1220.63 1628.89,1224.53 1646.55,1224.53 1646.55,1221.93 1664.2,1221.93 1664.2,1227.13 1681.86,1227.13 1699.51,1227.13 1699.51,1214.12 1717.17,1214.12 1734.82,1214.12 1734.82,1216.73 1752.48,1216.73 1752.48,1219.33 1770.13,1219.33 1770.13,1220.63 1787.79,1220.63 1787.79,1388.47 1805.44,1388.47 1823.1,1388.47 1840.75,1388.47 1840.75,1225.83 1858.41,1225.83 1876.06,1225.83 1876.06,1216.73 1893.72,1216.73 1893.72,1225.83 1911.37,1225.83 1911.37,1223.23 1929.03,1223.23 1929.03,1227.13 1946.69,1227.13 1946.69,1215.42 1964.34,1215.42 1964.34,1220.63 1982,1220.63 1982,1219.33 1999.65,1219.33 1999.65,1224.53 2017.31,1224.53 2017.31,1220.63 2034.96,1220.63 2034.96,1388.47 2052.62,1388.47 2070.27,1388.47 2087.93,1388.47 2087.93,1225.83 2105.58,1225.83 2123.24,1225.83 2123.24,1221.93 2140.89,1221.93 2140.89,1225.83 2158.55,1225.83 2158.55,1218.03 2176.2,1218.03 2193.86,1218.03 2193.86,1221.93 2211.51,1221.93 2211.51,1215.42 2229.17,1215.42 2229.17,1218.03 2246.82,1218.03 2246.82,1227.13 2264.48,1227.13 2264.48,1221.93 2282.13,1221.93 2282.13,1388.47 2299.79,1388.47 2317.45,1388.47 2335.1,1388.47 2335.1,1227.13 2352.76,1227.13 2352.76,1220.63 "/>
<polyline clip-path="url(#clip062)" style="stroke:#000000; stroke-linecap:round; stroke-linejoin:round; stroke-width:8; stroke-opacity:1; fill:none" stroke-dasharray="4, 8" points="251.781,1388.47 269.436,1388.47 287.091,1388.47 304.746,1388.47 322.402,1388.47 340.057,1388.47 357.712,1388.47 357.712,1174.42 375.367,1174.42 375.367,1159.81 393.023,1159.81 393.023,1169.55 410.678,1169.55 410.678,1159.81 428.333,1159.81 428.333,1152.51 445.988,1152.51 445.988,1174.42 463.644,1174.42 463.644,1159.81 481.299,1159.81 481.299,1176.85 498.954,1176.85 498.954,1171.98 516.61,1171.98 516.61,1154.95 534.265,1154.95 551.92,1154.95 551.92,1171.98 569.575,1171.98 569.575,1159.81 587.231,1159.81 587.231,1152.51 604.886,1152.51 604.886,1167.11 622.541,1167.11 622.541,1159.81 640.196,1159.81 657.852,1159.81 657.852,1169.55 675.507,1169.55 675.507,1176.85 693.162,1176.85 710.817,1176.85 710.817,1174.42 728.473,1174.42 728.473,1167.11 746.128,1167.11 746.128,1164.68 763.783,1164.68 763.783,1167.11 781.438,1167.11 781.438,1169.55 799.094,1169.55 799.094,1171.98 816.749,1171.98 816.749,1154.95 834.404,1154.95 834.404,1040.62 852.059,1040.62 852.059,1062.52 869.715,1062.52 869.715,1047.92 887.37,1047.92 887.37,1057.65 905.025,1057.65 905.025,1050.35 922.68,1050.35 922.68,1052.79 940.336,1052.79 940.336,1050.35 957.991,1050.35 957.991,1052.79 975.646,1052.79 975.646,1062.52 993.301,1062.52 993.301,1040.62 1010.96,1040.62 1010.96,1045.48 1028.61,1045.48 1028.61,1052.79 1046.27,1052.79 1063.92,1052.79 1063.92,1040.62 1081.58,1040.62 1081.58,1388.47 1099.23,1388.47 1116.89,1388.47 1134.54,1388.47 1134.54,1045.48 1152.2,1045.48 1152.2,1055.22 1169.85,1055.22 1169.85,1040.62 1187.51,1040.62 1187.51,1050.35 1205.16,1050.35 1205.16,1043.05 1222.82,1043.05 1222.82,1040.62 1240.47,1040.62 1240.47,1043.05 1258.13,1043.05 1258.13,1052.79 1275.79,1052.79 1275.79,1050.35 1293.44,1050.35 1293.44,1388.47 1311.1,1388.47 1328.75,1388.47 1346.41,1388.47 1346.41,1050.35 1364.06,1050.35 1381.72,1050.35 1381.72,1052.79 1399.37,1052.79 1399.37,1045.48 1417.03,1045.48 1417.03,1064.95 1434.68,1064.95 1434.68,1062.52 1452.34,1062.52 1452.34,1050.35 1469.99,1050.35 1469.99,1055.22 1487.65,1055.22 1487.65,1040.62 1505.3,1040.62 1505.3,1388.47 1522.96,1388.47 1540.61,1388.47 1558.27,1388.47 1558.27,1040.62 1575.92,1040.62 1575.92,1047.92 1593.58,1047.92 1593.58,1052.79 1611.24,1052.79 1611.24,1055.22 1628.89,1055.22 1628.89,1060.09 1646.55,1060.09 1646.55,1043.05 1664.2,1043.05 1664.2,1045.48 1681.86,1045.48 1681.86,1040.62 1699.51,1040.62 1699.51,1050.35 1717.17,1050.35 1717.17,1388.47 1734.82,1388.47 1752.48,1388.47 1770.13,1388.47 1770.13,1040.62 1787.79,1040.62 1787.79,1045.48 1805.44,1045.48 1805.44,1050.35 1823.1,1050.35 1823.1,1043.05 1840.75,1043.05 1840.75,1045.48 1858.41,1045.48 1858.41,1047.92 1876.06,1047.92 1893.72,1047.92 1893.72,1040.62 1911.37,1040.62 1911.37,1057.65 1929.03,1057.65 1929.03,1388.47 1946.69,1388.47 1964.34,1388.47 1982,1388.47 1982,1062.52 1999.65,1062.52 1999.65,1045.48 2017.31,1045.48 2017.31,1043.05 2034.96,1043.05 2034.96,1062.52 2052.62,1062.52 2052.62,1045.48 2070.27,1045.48 2070.27,1057.65 2087.93,1057.65 2087.93,1052.79 2105.58,1052.79 2105.58,1043.05 2123.24,1043.05 2123.24,1040.62 2140.89,1040.62 2140.89,1388.47 2158.55,1388.47 2176.2,1388.47 2193.86,1388.47 2193.86,1055.22 2211.51,1055.22 2229.17,1055.22 2229.17,1040.62 2246.82,1040.62 2246.82,1064.95 2264.48,1064.95 2264.48,1050.35 2282.13,1050.35 2299.79,1050.35 2299.79,1060.09 2317.45,1060.09 2317.45,1047.92 2335.1,1047.92 2335.1,1064.95 2352.76,1064.95 2352.76,1062.52 "/>
<polyline clip-path="url(#clip062)" style="stroke:#000000; stroke-linecap:round; stroke-linejoin:round; stroke-width:8; stroke-opacity:1; fill:none" stroke-dasharray="32, 16, 4, 16" points="251.781,1388.47 269.436,1388.47 287.091,1388.47 304.746,1388.47 322.402,1388.47 340.057,1388.47 357.712,1388.47 357.712,1164.68 375.367,1164.68 375.367,1162.89 393.023,1162.89 393.023,1171.84 410.678,1171.84 428.333,1171.84 428.333,1162.89 445.988,1162.89 463.644,1162.89 463.644,1159.31 481.299,1159.31 481.299,1155.73 498.954,1155.73 516.61,1155.73 516.61,1162.89 534.265,1162.89 534.265,1164.68 551.92,1164.68 551.92,1155.73 569.575,1155.73 569.575,1162.89 587.231,1162.89 587.231,1159.31 604.886,1159.31 604.886,1166.47 622.541,1166.47 622.541,1155.73 640.196,1155.73 640.196,1170.05 657.852,1170.05 657.852,1164.68 675.507,1164.68 675.507,1162.89 693.162,1162.89 693.162,1170.05 710.817,1170.05 710.817,1164.68 728.473,1164.68 728.473,1162.89 746.128,1162.89 746.128,1173.63 763.783,1173.63 763.783,1171.84 781.438,1171.84 781.438,1168.26 799.094,1168.26 799.094,1171.84 816.749,1171.84 834.404,1171.84 834.404,1155.73 852.059,1155.73 852.059,1171.84 869.715,1171.84 887.37,1171.84 887.37,1159.31 905.025,1159.31 905.025,1155.73 922.68,1155.73 922.68,1161.1 940.336,1161.1 940.336,1159.31 957.991,1159.31 957.991,1166.47 975.646,1166.47 975.646,1173.63 993.301,1173.63 993.301,1159.31 1010.96,1159.31 1010.96,1164.68 1028.61,1164.68 1046.27,1164.68 1046.27,1171.84 1063.92,1171.84 1063.92,1162.89 1081.58,1162.89 1081.58,1170.05 1099.23,1170.05 1116.89,1170.05 1116.89,1159.31 1134.54,1159.31 1134.54,1171.84 1152.2,1171.84 1152.2,1157.52 1169.85,1157.52 1187.51,1157.52 1187.51,1162.89 1205.16,1162.89 1205.16,1168.26 1222.82,1168.26 1222.82,1159.31 1240.47,1159.31 1240.47,1168.26 1258.13,1168.26 1258.13,1173.63 1275.79,1173.63 1275.79,1159.31 1293.44,1159.31 1293.44,1166.47 1311.1,1166.47 1311.1,1170.05 1328.75,1170.05 1328.75,1155.73 1346.41,1155.73 1346.41,1164.68 1364.06,1164.68 1364.06,1388.47 1381.72,1388.47 1399.37,1388.47 1417.03,1388.47 1417.03,1170.05 1434.68,1170.05 1434.68,1166.47 1452.34,1166.47 1452.34,1164.68 1469.99,1164.68 1469.99,1170.05 1487.65,1170.05 1487.65,1161.1 1505.3,1161.1 1505.3,1159.31 1522.96,1159.31 1522.96,1157.52 1540.61,1157.52 1540.61,1388.47 1558.27,1388.47 1575.92,1388.47 1593.58,1388.47 1593.58,1161.1 1611.24,1161.1 1611.24,1171.84 1628.89,1171.84 1628.89,1157.52 1646.55,1157.52 1646.55,1173.63 1664.2,1173.63 1681.86,1173.63 1681.86,1168.26 1699.51,1168.26 1699.51,1171.84 1717.17,1171.84 1717.17,1388.47 1734.82,1388.47 1752.48,1388.47 1770.13,1388.47 1770.13,1170.05 1787.79,1170.05 1787.79,1166.47 1805.44,1166.47 1805.44,1155.73 1823.1,1155.73 1823.1,1157.52 1840.75,1157.52 1840.75,1166.47 1858.41,1166.47 1858.41,1159.31 1876.06,1159.31 1876.06,1171.84 1893.72,1171.84 1893.72,1388.47 1911.37,1388.47 1929.03,1388.47 1946.69,1388.47 1946.69,1170.05 1964.34,1170.05 1964.34,1164.68 1982,1164.68 1982,1155.73 1999.65,1155.73 1999.65,1157.52 2017.31,1157.52 2017.31,1161.1 2034.96,1161.1 2034.96,1157.52 2052.62,1157.52 2052.62,1170.05 2070.27,1170.05 2070.27,1388.47 2087.93,1388.47 2105.58,1388.47 2123.24,1388.47 2123.24,1171.84 2140.89,1171.84 2140.89,1173.63 2158.55,1173.63 2158.55,1157.52 2176.2,1157.52 2176.2,1162.89 2193.86,1162.89 2193.86,1159.31 2211.51,1159.31 2211.51,1173.63 2229.17,1173.63 2229.17,1164.68 2246.82,1164.68 2246.82,1388.47 2264.48,1388.47 2282.13,1388.47 2299.79,1388.47 2299.79,1157.52 2317.45,1157.52 2317.45,1171.84 2335.1,1171.84 2352.76,1171.84 2352.76,1173.63 "/>
<path clip-path="url(#clip060)" d="M831.368 150.924 L1755.51 150.924 L1755.51 47.2441 L831.368 47.2441  Z" fill="#ffffff" fill-rule="evenodd" fill-opacity="1"/>
<polyline clip-path="url(#clip060)" style="stroke:#000000; stroke-linecap:round; stroke-linejoin:round; stroke-width:4; stroke-opacity:1; fill:none" points="831.368,150.924 1755.51,150.924 1755.51,47.2441 831.368,47.2441 831.368,150.924 "/>
<polyline clip-path="url(#clip060)" style="stroke:#000000; stroke-linecap:round; stroke-linejoin:round; stroke-width:8; stroke-opacity:1; fill:none" points="854.908,99.0841 996.15,99.0841 "/>
<path clip-path="url(#clip060)" d="M1019.69 81.8041 L1024.37 81.8041 L1024.37 116.364 L1019.69 116.364 L1019.69 81.8041 Z" fill="#000000" fill-rule="nonzero" fill-opacity="1" /><path clip-path="url(#clip060)" d="M1034.9 112.429 L1042.54 112.429 L1042.54 86.0633 L1034.23 87.73 L1034.23 83.4708 L1042.49 81.8041 L1047.17 81.8041 L1047.17 112.429 L1054.81 112.429 L1054.81 116.364 L1034.9 116.364 L1034.9 112.429 Z" fill="#000000" fill-rule="nonzero" fill-opacity="1" /><polyline clip-path="url(#clip060)" style="stroke:#000000; stroke-linecap:round; stroke-linejoin:round; stroke-width:8; stroke-opacity:1; fill:none" stroke-dasharray="32, 20" points="1080.06,99.0841 1221.3,99.0841 "/>
<path clip-path="url(#clip060)" d="M1244.84 81.8041 L1249.52 81.8041 L1249.52 116.364 L1244.84 116.364 L1244.84 81.8041 Z" fill="#000000" fill-rule="nonzero" fill-opacity="1" /><path clip-path="url(#clip060)" d="M1263.27 112.429 L1279.59 112.429 L1279.59 116.364 L1257.64 116.364 L1257.64 112.429 Q1260.3 109.674 1264.89 105.045 Q1269.49 100.392 1270.68 99.0494 Q1272.92 96.5262 1273.8 94.7901 Q1274.7 93.0309 1274.7 91.3411 Q1274.7 88.5865 1272.76 86.8504 Q1270.84 85.1143 1267.74 85.1143 Q1265.54 85.1143 1263.08 85.8781 Q1260.65 86.642 1257.87 88.1929 L1257.87 83.4708 Q1260.7 82.3365 1263.15 81.7578 Q1265.61 81.1791 1267.64 81.1791 Q1273.01 81.1791 1276.21 83.8643 Q1279.4 86.5494 1279.4 91.0402 Q1279.4 93.1698 1278.59 95.0911 Q1277.8 96.9892 1275.7 99.5818 Q1275.12 100.253 1272.02 103.471 Q1268.92 106.665 1263.27 112.429 Z" fill="#000000" fill-rule="nonzero" fill-opacity="1" /><polyline clip-path="url(#clip060)" style="stroke:#000000; stroke-linecap:round; stroke-linejoin:round; stroke-width:8; stroke-opacity:1; fill:none" stroke-dasharray="4, 8" points="1305.21,99.0841 1446.45,99.0841 "/>
<path clip-path="url(#clip060)" d="M1469.99 81.8041 L1474.67 81.8041 L1474.67 116.364 L1469.99 116.364 L1469.99 81.8041 Z" fill="#000000" fill-rule="nonzero" fill-opacity="1" /><path clip-path="url(#clip060)" d="M1498.56 97.7299 Q1501.91 98.4475 1503.79 100.716 Q1505.69 102.985 1505.69 106.318 Q1505.69 111.434 1502.17 114.234 Q1498.65 117.035 1492.17 117.035 Q1489.99 117.035 1487.68 116.596 Q1485.39 116.179 1482.93 115.322 L1482.93 110.809 Q1484.88 111.943 1487.19 112.522 Q1489.51 113.1 1492.03 113.1 Q1496.43 113.1 1498.72 111.364 Q1501.03 109.628 1501.03 106.318 Q1501.03 103.262 1498.88 101.549 Q1496.75 99.8133 1492.93 99.8133 L1488.91 99.8133 L1488.91 95.9707 L1493.12 95.9707 Q1496.57 95.9707 1498.4 94.605 Q1500.22 93.2161 1500.22 90.6235 Q1500.22 87.9615 1498.33 86.5494 Q1496.45 85.1143 1492.93 85.1143 Q1491.01 85.1143 1488.81 85.5309 Q1486.61 85.9476 1483.97 86.8272 L1483.97 82.6606 Q1486.64 81.9198 1488.95 81.5495 Q1491.29 81.1791 1493.35 81.1791 Q1498.67 81.1791 1501.78 83.6096 Q1504.88 86.017 1504.88 90.1374 Q1504.88 93.0077 1503.23 94.9985 Q1501.59 96.9661 1498.56 97.7299 Z" fill="#000000" fill-rule="nonzero" fill-opacity="1" /><polyline clip-path="url(#clip060)" style="stroke:#000000; stroke-linecap:round; stroke-linejoin:round; stroke-width:8; stroke-opacity:1; fill:none" stroke-dasharray="32, 16, 4, 16" points="1530.36,99.0841 1671.6,99.0841 "/>
<path clip-path="url(#clip060)" d="M1695.14 81.8041 L1699.82 81.8041 L1699.82 116.364 L1695.14 116.364 L1695.14 81.8041 Z" fill="#000000" fill-rule="nonzero" fill-opacity="1" /><path clip-path="url(#clip060)" d="M1722.39 85.8781 L1710.58 104.327 L1722.39 104.327 L1722.39 85.8781 M1721.16 81.8041 L1727.04 81.8041 L1727.04 104.327 L1731.97 104.327 L1731.97 108.216 L1727.04 108.216 L1727.04 116.364 L1722.39 116.364 L1722.39 108.216 L1706.79 108.216 L1706.79 103.702 L1721.16 81.8041 Z" fill="#000000" fill-rule="nonzero" fill-opacity="1" /></svg>
