<?xml version="1.0" encoding="utf-8"?>
<svg xmlns="http://www.w3.org/2000/svg" xmlns:xlink="http://www.w3.org/1999/xlink" width="600" height="400" viewBox="0 0 2400 1600">
<defs>
  <clipPath id="clip140">
    <rect x="0" y="0" width="2400" height="1600"/>
  </clipPath>
</defs>
<path clip-path="url(#clip140)" d="M0 1600 L2400 1600 L2400 0 L0 0  Z" fill="#ffffff" fill-rule="evenodd" fill-opacity="1"/>
<defs>
  <clipPath id="clip141">
    <rect x="480" y="0" width="1681" height="1600"/>
  </clipPath>
</defs>
<path clip-path="url(#clip140)" d="M234.125 1423.18 L2352.76 1423.18 L2352.76 196.789 L234.125 196.789  Z" fill="#ffffff" fill-rule="evenodd" fill-opacity="1"/>
<defs>
  <clipPath id="clip142">
    <rect x="234" y="196" width="2120" height="1227"/>
  </clipPath>
</defs>
<polyline clip-path="url(#clip142)" style="stroke:#000000; stroke-linecap:round; stroke-linejoin:round; stroke-width:2; stroke-opacity:0.1; fill:none" points="234.125,1423.18 234.125,196.789 "/>
<polyline clip-path="url(#clip142)" style="stroke:#000000; stroke-linecap:round; stroke-linejoin:round; stroke-width:2; stroke-opacity:0.1; fill:none" points="587.231,1423.18 587.231,196.789 "/>
<polyline clip-path="url(#clip142)" style="stroke:#000000; stroke-linecap:round; stroke-linejoin:round; stroke-width:2; stroke-opacity:0.1; fill:none" points="940.336,1423.18 940.336,196.789 "/>
<polyline clip-path="url(#clip142)" style="stroke:#000000; stroke-linecap:round; stroke-linejoin:round; stroke-width:2; stroke-opacity:0.1; fill:none" points="1293.44,1423.18 1293.44,196.789 "/>
<polyline clip-path="url(#clip142)" style="stroke:#000000; stroke-linecap:round; stroke-linejoin:round; stroke-width:2; stroke-opacity:0.1; fill:none" points="1646.55,1423.18 1646.55,196.789 "/>
<polyline clip-path="url(#clip142)" style="stroke:#000000; stroke-linecap:round; stroke-linejoin:round; stroke-width:2; stroke-opacity:0.1; fill:none" points="1999.65,1423.18 1999.65,196.789 "/>
<polyline clip-path="url(#clip142)" style="stroke:#000000; stroke-linecap:round; stroke-linejoin:round; stroke-width:2; stroke-opacity:0.1; fill:none" points="2352.76,1423.18 2352.76,196.789 "/>
<polyline clip-path="url(#clip140)" style="stroke:#000000; stroke-linecap:round; stroke-linejoin:round; stroke-width:4; stroke-opacity:1; fill:none" points="234.125,1423.18 2352.76,1423.18 "/>
<polyline clip-path="url(#clip140)" style="stroke:#000000; stroke-linecap:round; stroke-linejoin:round; stroke-width:4; stroke-opacity:1; fill:none" points="234.125,1423.18 234.125,1406.34 "/>
<polyline clip-path="url(#clip140)" style="stroke:#000000; stroke-linecap:round; stroke-linejoin:round; stroke-width:4; stroke-opacity:1; fill:none" points="587.231,1423.18 587.231,1406.34 "/>
<polyline clip-path="url(#clip140)" style="stroke:#000000; stroke-linecap:round; stroke-linejoin:round; stroke-width:4; stroke-opacity:1; fill:none" points="940.336,1423.18 940.336,1406.34 "/>
<polyline clip-path="url(#clip140)" style="stroke:#000000; stroke-linecap:round; stroke-linejoin:round; stroke-width:4; stroke-opacity:1; fill:none" points="1293.44,1423.18 1293.44,1406.34 "/>
<polyline clip-path="url(#clip140)" style="stroke:#000000; stroke-linecap:round; stroke-linejoin:round; stroke-width:4; stroke-opacity:1; fill:none" points="1646.55,1423.18 1646.55,1406.34 "/>
<polyline clip-path="url(#clip140)" style="stroke:#000000; stroke-linecap:round; stroke-linejoin:round; stroke-width:4; stroke-opacity:1; fill:none" points="1999.65,1423.18 1999.65,1406.34 "/>
<polyline clip-path="url(#clip140)" style="stroke:#000000; stroke-linecap:round; stroke-linejoin:round; stroke-width:4; stroke-opacity:1; fill:none" points="2352.76,1423.18 2352.76,1406.34 "/>
<path clip-path="url(#clip140)" d="M234.125 1454.1 Q230.514 1454.1 228.686 1457.66 Q226.88 1461.2 226.88 1468.33 Q226.88 1475.44 228.686 1479.01 Q230.514 1482.55 234.125 1482.55 Q237.76 1482.55 239.565 1479.01 Q241.394 1475.44 241.394 1468.33 Q241.394 1461.2 239.565 1457.66 Q237.76 1454.1 234.125 1454.1 M234.125 1450.39 Q239.936 1450.39 242.991 1455 Q246.07 1459.58 246.07 1468.33 Q246.07 1477.06 242.991 1481.67 Q239.936 1486.25 234.125 1486.25 Q228.315 1486.25 225.237 1481.67 Q222.181 1477.06 222.181 1468.33 Q222.181 1459.58 225.237 1455 Q228.315 1450.39 234.125 1450.39 Z" fill="#000000" fill-rule="nonzero" fill-opacity="1" /><path clip-path="url(#clip140)" d="M566.004 1481.64 L582.323 1481.64 L582.323 1485.58 L560.379 1485.58 L560.379 1481.64 Q563.041 1478.89 567.624 1474.26 Q572.231 1469.61 573.411 1468.27 Q575.657 1465.74 576.536 1464.01 Q577.439 1462.25 577.439 1460.56 Q577.439 1457.8 575.494 1456.07 Q573.573 1454.33 570.471 1454.33 Q568.272 1454.33 565.819 1455.09 Q563.388 1455.86 560.61 1457.41 L560.61 1452.69 Q563.434 1451.55 565.888 1450.97 Q568.342 1450.39 570.379 1450.39 Q575.749 1450.39 578.944 1453.08 Q582.138 1455.77 582.138 1460.26 Q582.138 1462.39 581.328 1464.31 Q580.541 1466.2 578.434 1468.8 Q577.856 1469.47 574.754 1472.69 Q571.652 1475.88 566.004 1481.64 Z" fill="#000000" fill-rule="nonzero" fill-opacity="1" /><path clip-path="url(#clip140)" d="M602.138 1454.1 Q598.527 1454.1 596.698 1457.66 Q594.893 1461.2 594.893 1468.33 Q594.893 1475.44 596.698 1479.01 Q598.527 1482.55 602.138 1482.55 Q605.772 1482.55 607.578 1479.01 Q609.406 1475.44 609.406 1468.33 Q609.406 1461.2 607.578 1457.66 Q605.772 1454.1 602.138 1454.1 M602.138 1450.39 Q607.948 1450.39 611.004 1455 Q614.082 1459.58 614.082 1468.33 Q614.082 1477.06 611.004 1481.67 Q607.948 1486.25 602.138 1486.25 Q596.328 1486.25 593.249 1481.67 Q590.193 1477.06 590.193 1468.33 Q590.193 1459.58 593.249 1455 Q596.328 1450.39 602.138 1450.39 Z" fill="#000000" fill-rule="nonzero" fill-opacity="1" /><path clip-path="url(#clip140)" d="M928.507 1455.09 L916.701 1473.54 L928.507 1473.54 L928.507 1455.09 M927.28 1451.02 L933.16 1451.02 L933.16 1473.54 L938.09 1473.54 L938.09 1477.43 L933.16 1477.43 L933.16 1485.58 L928.507 1485.58 L928.507 1477.43 L912.905 1477.43 L912.905 1472.92 L927.28 1451.02 Z" fill="#000000" fill-rule="nonzero" fill-opacity="1" /><path clip-path="url(#clip140)" d="M955.822 1454.1 Q952.211 1454.1 950.382 1457.66 Q948.576 1461.2 948.576 1468.33 Q948.576 1475.44 950.382 1479.01 Q952.211 1482.55 955.822 1482.55 Q959.456 1482.55 961.261 1479.01 Q963.09 1475.44 963.09 1468.33 Q963.09 1461.2 961.261 1457.66 Q959.456 1454.1 955.822 1454.1 M955.822 1450.39 Q961.632 1450.39 964.687 1455 Q967.766 1459.58 967.766 1468.33 Q967.766 1477.06 964.687 1481.67 Q961.632 1486.25 955.822 1486.25 Q950.011 1486.25 946.933 1481.67 Q943.877 1477.06 943.877 1468.33 Q943.877 1459.58 946.933 1455 Q950.011 1450.39 955.822 1450.39 Z" fill="#000000" fill-rule="nonzero" fill-opacity="1" /><path clip-path="url(#clip140)" d="M1278.85 1466.44 Q1275.7 1466.44 1273.85 1468.59 Q1272.02 1470.74 1272.02 1474.49 Q1272.02 1478.22 1273.85 1480.39 Q1275.7 1482.55 1278.85 1482.55 Q1281.99 1482.55 1283.82 1480.39 Q1285.67 1478.22 1285.67 1474.49 Q1285.67 1470.74 1283.82 1468.59 Q1281.99 1466.44 1278.85 1466.44 M1288.13 1451.78 L1288.13 1456.04 Q1286.37 1455.21 1284.56 1454.77 Q1282.78 1454.33 1281.02 1454.33 Q1276.39 1454.33 1273.94 1457.45 Q1271.51 1460.58 1271.16 1466.9 Q1272.53 1464.89 1274.59 1463.82 Q1276.65 1462.73 1279.12 1462.73 Q1284.33 1462.73 1287.34 1465.9 Q1290.37 1469.05 1290.37 1474.49 Q1290.37 1479.82 1287.23 1483.03 Q1284.08 1486.25 1278.85 1486.25 Q1272.85 1486.25 1269.68 1481.67 Q1266.51 1477.06 1266.51 1468.33 Q1266.51 1460.14 1270.4 1455.28 Q1274.29 1450.39 1280.84 1450.39 Q1282.6 1450.39 1284.38 1450.74 Q1286.18 1451.09 1288.13 1451.78 Z" fill="#000000" fill-rule="nonzero" fill-opacity="1" /><path clip-path="url(#clip140)" d="M1308.43 1454.1 Q1304.82 1454.1 1302.99 1457.66 Q1301.18 1461.2 1301.18 1468.33 Q1301.18 1475.44 1302.99 1479.01 Q1304.82 1482.55 1308.43 1482.55 Q1312.06 1482.55 1313.87 1479.01 Q1315.7 1475.44 1315.7 1468.33 Q1315.7 1461.2 1313.87 1457.66 Q1312.06 1454.1 1308.43 1454.1 M1308.43 1450.39 Q1314.24 1450.39 1317.29 1455 Q1320.37 1459.58 1320.37 1468.33 Q1320.37 1477.06 1317.29 1481.67 Q1314.24 1486.25 1308.43 1486.25 Q1302.62 1486.25 1299.54 1481.67 Q1296.48 1477.06 1296.48 1468.33 Q1296.48 1459.58 1299.54 1455 Q1302.62 1450.39 1308.43 1450.39 Z" fill="#000000" fill-rule="nonzero" fill-opacity="1" /><path clip-path="url(#clip140)" d="M1631.42 1469.17 Q1628.09 1469.17 1626.16 1470.95 Q1624.27 1472.73 1624.27 1475.86 Q1624.27 1478.98 1626.16 1480.77 Q1628.09 1482.55 1631.42 1482.55 Q1634.75 1482.55 1636.67 1480.77 Q1638.59 1478.96 1638.59 1475.86 Q1638.59 1472.73 1636.67 1470.95 Q1634.77 1469.17 1631.42 1469.17 M1626.74 1467.18 Q1623.73 1466.44 1622.04 1464.38 Q1620.38 1462.32 1620.38 1459.35 Q1620.38 1455.21 1623.32 1452.8 Q1626.28 1450.39 1631.42 1450.39 Q1636.58 1450.39 1639.52 1452.8 Q1642.46 1455.21 1642.46 1459.35 Q1642.46 1462.32 1640.77 1464.38 Q1639.1 1466.44 1636.12 1467.18 Q1639.5 1467.96 1641.37 1470.26 Q1643.27 1472.55 1643.27 1475.86 Q1643.27 1480.88 1640.19 1483.57 Q1637.14 1486.25 1631.42 1486.25 Q1625.7 1486.25 1622.62 1483.57 Q1619.57 1480.88 1619.57 1475.86 Q1619.57 1472.55 1621.46 1470.26 Q1623.36 1467.96 1626.74 1467.18 M1625.03 1459.79 Q1625.03 1462.48 1626.7 1463.98 Q1628.39 1465.49 1631.42 1465.49 Q1634.43 1465.49 1636.12 1463.98 Q1637.83 1462.48 1637.83 1459.79 Q1637.83 1457.11 1636.12 1455.6 Q1634.43 1454.1 1631.42 1454.1 Q1628.39 1454.1 1626.7 1455.6 Q1625.03 1457.11 1625.03 1459.79 Z" fill="#000000" fill-rule="nonzero" fill-opacity="1" /><path clip-path="url(#clip140)" d="M1661.58 1454.1 Q1657.97 1454.1 1656.14 1457.66 Q1654.34 1461.2 1654.34 1468.33 Q1654.34 1475.44 1656.14 1479.01 Q1657.97 1482.55 1661.58 1482.55 Q1665.21 1482.55 1667.02 1479.01 Q1668.85 1475.44 1668.85 1468.33 Q1668.85 1461.2 1667.02 1457.66 Q1665.21 1454.1 1661.58 1454.1 M1661.58 1450.39 Q1667.39 1450.39 1670.45 1455 Q1673.52 1459.58 1673.52 1468.33 Q1673.52 1477.06 1670.45 1481.67 Q1667.39 1486.25 1661.58 1486.25 Q1655.77 1486.25 1652.69 1481.67 Q1649.64 1477.06 1649.64 1468.33 Q1649.64 1459.58 1652.69 1455 Q1655.77 1450.39 1661.58 1450.39 Z" fill="#000000" fill-rule="nonzero" fill-opacity="1" /><path clip-path="url(#clip140)" d="M1959.26 1481.64 L1966.9 1481.64 L1966.9 1455.28 L1958.59 1456.95 L1958.59 1452.69 L1966.85 1451.02 L1971.53 1451.02 L1971.53 1481.64 L1979.16 1481.64 L1979.16 1485.58 L1959.26 1485.58 L1959.26 1481.64 Z" fill="#000000" fill-rule="nonzero" fill-opacity="1" /><path clip-path="url(#clip140)" d="M1998.61 1454.1 Q1995 1454.1 1993.17 1457.66 Q1991.36 1461.2 1991.36 1468.33 Q1991.36 1475.44 1993.17 1479.01 Q1995 1482.55 1998.61 1482.55 Q2002.24 1482.55 2004.05 1479.01 Q2005.88 1475.44 2005.88 1468.33 Q2005.88 1461.2 2004.05 1457.66 Q2002.24 1454.1 1998.61 1454.1 M1998.61 1450.39 Q2004.42 1450.39 2007.47 1455 Q2010.55 1459.58 2010.55 1468.33 Q2010.55 1477.06 2007.47 1481.67 Q2004.42 1486.25 1998.61 1486.25 Q1992.8 1486.25 1989.72 1481.67 Q1986.66 1477.06 1986.66 1468.33 Q1986.66 1459.58 1989.72 1455 Q1992.8 1450.39 1998.61 1450.39 Z" fill="#000000" fill-rule="nonzero" fill-opacity="1" /><path clip-path="url(#clip140)" d="M2028.77 1454.1 Q2025.16 1454.1 2023.33 1457.66 Q2021.53 1461.2 2021.53 1468.33 Q2021.53 1475.44 2023.33 1479.01 Q2025.16 1482.55 2028.77 1482.55 Q2032.41 1482.55 2034.21 1479.01 Q2036.04 1475.44 2036.04 1468.33 Q2036.04 1461.2 2034.21 1457.66 Q2032.41 1454.1 2028.77 1454.1 M2028.77 1450.39 Q2034.58 1450.39 2037.64 1455 Q2040.72 1459.58 2040.72 1468.33 Q2040.72 1477.06 2037.64 1481.67 Q2034.58 1486.25 2028.77 1486.25 Q2022.96 1486.25 2019.88 1481.67 Q2016.83 1477.06 2016.83 1468.33 Q2016.83 1459.58 2019.88 1455 Q2022.96 1450.39 2028.77 1450.39 Z" fill="#000000" fill-rule="nonzero" fill-opacity="1" /><path clip-path="url(#clip140)" d="M2312.36 1481.64 L2320 1481.64 L2320 1455.28 L2311.69 1456.95 L2311.69 1452.69 L2319.96 1451.02 L2324.63 1451.02 L2324.63 1481.64 L2332.27 1481.64 L2332.27 1485.58 L2312.36 1485.58 L2312.36 1481.64 Z" fill="#000000" fill-rule="nonzero" fill-opacity="1" /><path clip-path="url(#clip140)" d="M2345.74 1481.64 L2362.06 1481.64 L2362.06 1485.58 L2340.12 1485.58 L2340.12 1481.64 Q2342.78 1478.89 2347.36 1474.26 Q2351.97 1469.61 2353.15 1468.27 Q2355.39 1465.74 2356.27 1464.01 Q2357.18 1462.25 2357.18 1460.56 Q2357.18 1457.8 2355.23 1456.07 Q2353.31 1454.33 2350.21 1454.33 Q2348.01 1454.33 2345.56 1455.09 Q2343.13 1455.86 2340.35 1457.41 L2340.35 1452.69 Q2343.17 1451.55 2345.63 1450.97 Q2348.08 1450.39 2350.12 1450.39 Q2355.49 1450.39 2358.68 1453.08 Q2361.88 1455.77 2361.88 1460.26 Q2361.88 1462.39 2361.07 1464.31 Q2360.28 1466.2 2358.17 1468.8 Q2357.59 1469.47 2354.49 1472.69 Q2351.39 1475.88 2345.74 1481.64 Z" fill="#000000" fill-rule="nonzero" fill-opacity="1" /><path clip-path="url(#clip140)" d="M2381.88 1454.1 Q2378.27 1454.1 2376.44 1457.66 Q2374.63 1461.2 2374.63 1468.33 Q2374.63 1475.44 2376.44 1479.01 Q2378.27 1482.55 2381.88 1482.55 Q2385.51 1482.55 2387.32 1479.01 Q2389.14 1475.44 2389.14 1468.33 Q2389.14 1461.2 2387.32 1457.66 Q2385.51 1454.1 2381.88 1454.1 M2381.88 1450.39 Q2387.69 1450.39 2390.74 1455 Q2393.82 1459.58 2393.82 1468.33 Q2393.82 1477.06 2390.74 1481.67 Q2387.69 1486.25 2381.88 1486.25 Q2376.07 1486.25 2372.99 1481.67 Q2369.93 1477.06 2369.93 1468.33 Q2369.93 1459.58 2372.99 1455 Q2376.07 1450.39 2381.88 1450.39 Z" fill="#000000" fill-rule="nonzero" fill-opacity="1" /><path clip-path="url(#clip140)" d="M1197.25 1520.52 L1206.84 1520.52 L1218.96 1552.86 L1231.15 1520.52 L1240.73 1520.52 L1240.73 1568.04 L1234.46 1568.04 L1234.46 1526.32 L1222.21 1558.91 L1215.75 1558.91 L1203.49 1526.32 L1203.49 1568.04 L1197.25 1568.04 L1197.25 1520.52 Z" fill="#000000" fill-rule="nonzero" fill-opacity="1" /><path clip-path="url(#clip140)" d="M1267.05 1536.5 Q1262.34 1536.5 1259.61 1540.19 Q1256.87 1543.85 1256.87 1550.25 Q1256.87 1556.65 1259.58 1560.34 Q1262.31 1564 1267.05 1564 Q1271.73 1564 1274.47 1560.31 Q1277.21 1556.62 1277.21 1550.25 Q1277.21 1543.92 1274.47 1540.23 Q1271.73 1536.5 1267.05 1536.5 M1267.05 1531.54 Q1274.69 1531.54 1279.05 1536.5 Q1283.41 1541.47 1283.41 1550.25 Q1283.41 1559 1279.05 1564 Q1274.69 1568.97 1267.05 1568.97 Q1259.38 1568.97 1255.02 1564 Q1250.69 1559 1250.69 1550.25 Q1250.69 1541.47 1255.02 1536.5 Q1259.38 1531.54 1267.05 1531.54 Z" fill="#000000" fill-rule="nonzero" fill-opacity="1" /><path clip-path="url(#clip140)" d="M1322.75 1546.53 L1322.75 1568.04 L1316.9 1568.04 L1316.9 1546.72 Q1316.9 1541.66 1314.92 1539.14 Q1312.95 1536.63 1309 1536.63 Q1304.26 1536.63 1301.53 1539.65 Q1298.79 1542.68 1298.79 1547.9 L1298.79 1568.04 L1292.9 1568.04 L1292.9 1532.4 L1298.79 1532.4 L1298.79 1537.93 Q1300.89 1534.72 1303.72 1533.13 Q1306.59 1531.54 1310.31 1531.54 Q1316.45 1531.54 1319.6 1535.36 Q1322.75 1539.14 1322.75 1546.53 Z" fill="#000000" fill-rule="nonzero" fill-opacity="1" /><path clip-path="url(#clip140)" d="M1340.23 1522.27 L1340.23 1532.4 L1352.29 1532.4 L1352.29 1536.95 L1340.23 1536.95 L1340.23 1556.3 Q1340.23 1560.66 1341.41 1561.9 Q1342.62 1563.14 1346.28 1563.14 L1352.29 1563.14 L1352.29 1568.04 L1346.28 1568.04 Q1339.5 1568.04 1336.92 1565.53 Q1334.34 1562.98 1334.34 1556.3 L1334.34 1536.95 L1330.04 1536.95 L1330.04 1532.4 L1334.34 1532.4 L1334.34 1522.27 L1340.23 1522.27 Z" fill="#000000" fill-rule="nonzero" fill-opacity="1" /><path clip-path="url(#clip140)" d="M1389.63 1546.53 L1389.63 1568.04 L1383.77 1568.04 L1383.77 1546.72 Q1383.77 1541.66 1381.8 1539.14 Q1379.82 1536.63 1375.88 1536.63 Q1371.13 1536.63 1368.4 1539.65 Q1365.66 1542.68 1365.66 1547.9 L1365.66 1568.04 L1359.77 1568.04 L1359.77 1518.52 L1365.66 1518.52 L1365.66 1537.93 Q1367.76 1534.72 1370.59 1533.13 Q1373.46 1531.54 1377.18 1531.54 Q1383.32 1531.54 1386.48 1535.36 Q1389.63 1539.14 1389.63 1546.53 Z" fill="#000000" fill-rule="nonzero" fill-opacity="1" /><polyline clip-path="url(#clip142)" style="stroke:#000000; stroke-linecap:round; stroke-linejoin:round; stroke-width:2; stroke-opacity:0.1; fill:none" points="234.125,1388.47 2352.76,1388.47 "/>
<polyline clip-path="url(#clip142)" style="stroke:#000000; stroke-linecap:round; stroke-linejoin:round; stroke-width:2; stroke-opacity:0.1; fill:none" points="234.125,1073.65 2352.76,1073.65 "/>
<polyline clip-path="url(#clip142)" style="stroke:#000000; stroke-linecap:round; stroke-linejoin:round; stroke-width:2; stroke-opacity:0.1; fill:none" points="234.125,758.826 2352.76,758.826 "/>
<polyline clip-path="url(#clip142)" style="stroke:#000000; stroke-linecap:round; stroke-linejoin:round; stroke-width:2; stroke-opacity:0.1; fill:none" points="234.125,444.003 2352.76,444.003 "/>
<polyline clip-path="url(#clip140)" style="stroke:#000000; stroke-linecap:round; stroke-linejoin:round; stroke-width:4; stroke-opacity:1; fill:none" points="234.125,1423.18 234.125,196.789 "/>
<polyline clip-path="url(#clip140)" style="stroke:#000000; stroke-linecap:round; stroke-linejoin:round; stroke-width:4; stroke-opacity:1; fill:none" points="234.125,1388.47 253.023,1388.47 "/>
<polyline clip-path="url(#clip140)" style="stroke:#000000; stroke-linecap:round; stroke-linejoin:round; stroke-width:4; stroke-opacity:1; fill:none" points="234.125,1073.65 253.023,1073.65 "/>
<polyline clip-path="url(#clip140)" style="stroke:#000000; stroke-linecap:round; stroke-linejoin:round; stroke-width:4; stroke-opacity:1; fill:none" points="234.125,758.826 253.023,758.826 "/>
<polyline clip-path="url(#clip140)" style="stroke:#000000; stroke-linecap:round; stroke-linejoin:round; stroke-width:4; stroke-opacity:1; fill:none" points="234.125,444.003 253.023,444.003 "/>
<path clip-path="url(#clip140)" d="M186.181 1374.27 Q182.57 1374.27 180.741 1377.83 Q178.936 1381.38 178.936 1388.51 Q178.936 1395.61 180.741 1399.18 Q182.57 1402.72 186.181 1402.72 Q189.815 1402.72 191.621 1399.18 Q193.45 1395.61 193.45 1388.51 Q193.45 1381.38 191.621 1377.83 Q189.815 1374.27 186.181 1374.27 M186.181 1370.57 Q191.991 1370.57 195.047 1375.17 Q198.125 1379.76 198.125 1388.51 Q198.125 1397.23 195.047 1401.84 Q191.991 1406.42 186.181 1406.42 Q180.371 1406.42 177.292 1401.84 Q174.237 1397.23 174.237 1388.51 Q174.237 1379.76 177.292 1375.17 Q180.371 1370.57 186.181 1370.57 Z" fill="#000000" fill-rule="nonzero" fill-opacity="1" /><path clip-path="url(#clip140)" d="M116.668 1086.99 L124.306 1086.99 L124.306 1060.63 L115.996 1062.29 L115.996 1058.03 L124.26 1056.37 L128.936 1056.37 L128.936 1086.99 L136.575 1086.99 L136.575 1090.93 L116.668 1090.93 L116.668 1086.99 Z" fill="#000000" fill-rule="nonzero" fill-opacity="1" /><path clip-path="url(#clip140)" d="M156.019 1059.45 Q152.408 1059.45 150.579 1063.01 Q148.774 1066.55 148.774 1073.68 Q148.774 1080.79 150.579 1084.35 Q152.408 1087.9 156.019 1087.9 Q159.653 1087.9 161.459 1084.35 Q163.288 1080.79 163.288 1073.68 Q163.288 1066.55 161.459 1063.01 Q159.653 1059.45 156.019 1059.45 M156.019 1055.74 Q161.829 1055.74 164.885 1060.35 Q167.964 1064.93 167.964 1073.68 Q167.964 1082.41 164.885 1087.02 Q161.829 1091.6 156.019 1091.6 Q150.209 1091.6 147.13 1087.02 Q144.075 1082.41 144.075 1073.68 Q144.075 1064.93 147.13 1060.35 Q150.209 1055.74 156.019 1055.74 Z" fill="#000000" fill-rule="nonzero" fill-opacity="1" /><path clip-path="url(#clip140)" d="M186.181 1059.45 Q182.57 1059.45 180.741 1063.01 Q178.936 1066.55 178.936 1073.68 Q178.936 1080.79 180.741 1084.35 Q182.57 1087.9 186.181 1087.9 Q189.815 1087.9 191.621 1084.35 Q193.45 1080.79 193.45 1073.68 Q193.45 1066.55 191.621 1063.01 Q189.815 1059.45 186.181 1059.45 M186.181 1055.74 Q191.991 1055.74 195.047 1060.35 Q198.125 1064.93 198.125 1073.68 Q198.125 1082.41 195.047 1087.02 Q191.991 1091.6 186.181 1091.6 Q180.371 1091.6 177.292 1087.02 Q174.237 1082.41 174.237 1073.68 Q174.237 1064.93 177.292 1060.35 Q180.371 1055.74 186.181 1055.74 Z" fill="#000000" fill-rule="nonzero" fill-opacity="1" /><path clip-path="url(#clip140)" d="M119.885 772.17 L136.204 772.17 L136.204 776.106 L114.26 776.106 L114.26 772.17 Q116.922 769.416 121.505 764.786 Q126.112 760.133 127.292 758.791 Q129.538 756.268 130.417 754.532 Q131.32 752.772 131.32 751.083 Q131.32 748.328 129.376 746.592 Q127.455 744.856 124.353 744.856 Q122.154 744.856 119.7 745.62 Q117.269 746.384 114.492 747.934 L114.492 743.212 Q117.316 742.078 119.769 741.499 Q122.223 740.921 124.26 740.921 Q129.63 740.921 132.825 743.606 Q136.019 746.291 136.019 750.782 Q136.019 752.911 135.209 754.833 Q134.422 756.731 132.316 759.323 Q131.737 759.995 128.635 763.212 Q125.533 766.407 119.885 772.17 Z" fill="#000000" fill-rule="nonzero" fill-opacity="1" /><path clip-path="url(#clip140)" d="M156.019 744.624 Q152.408 744.624 150.579 748.189 Q148.774 751.731 148.774 758.86 Q148.774 765.967 150.579 769.532 Q152.408 773.073 156.019 773.073 Q159.653 773.073 161.459 769.532 Q163.288 765.967 163.288 758.86 Q163.288 751.731 161.459 748.189 Q159.653 744.624 156.019 744.624 M156.019 740.921 Q161.829 740.921 164.885 745.527 Q167.964 750.11 167.964 758.86 Q167.964 767.587 164.885 772.194 Q161.829 776.777 156.019 776.777 Q150.209 776.777 147.13 772.194 Q144.075 767.587 144.075 758.86 Q144.075 750.11 147.13 745.527 Q150.209 740.921 156.019 740.921 Z" fill="#000000" fill-rule="nonzero" fill-opacity="1" /><path clip-path="url(#clip140)" d="M186.181 744.624 Q182.57 744.624 180.741 748.189 Q178.936 751.731 178.936 758.86 Q178.936 765.967 180.741 769.532 Q182.57 773.073 186.181 773.073 Q189.815 773.073 191.621 769.532 Q193.45 765.967 193.45 758.86 Q193.45 751.731 191.621 748.189 Q189.815 744.624 186.181 744.624 M186.181 740.921 Q191.991 740.921 195.047 745.527 Q198.125 750.11 198.125 758.86 Q198.125 767.587 195.047 772.194 Q191.991 776.777 186.181 776.777 Q180.371 776.777 177.292 772.194 Q174.237 767.587 174.237 758.86 Q174.237 750.11 177.292 745.527 Q180.371 740.921 186.181 740.921 Z" fill="#000000" fill-rule="nonzero" fill-opacity="1" /><path clip-path="url(#clip140)" d="M130.024 442.649 Q133.38 443.366 135.255 445.635 Q137.154 447.903 137.154 451.237 Q137.154 456.352 133.635 459.153 Q130.117 461.954 123.635 461.954 Q121.459 461.954 119.144 461.515 Q116.853 461.098 114.399 460.241 L114.399 455.727 Q116.343 456.862 118.658 457.44 Q120.973 458.019 123.496 458.019 Q127.894 458.019 130.186 456.283 Q132.501 454.547 132.501 451.237 Q132.501 448.181 130.348 446.468 Q128.218 444.732 124.399 444.732 L120.371 444.732 L120.371 440.89 L124.584 440.89 Q128.033 440.89 129.862 439.524 Q131.691 438.135 131.691 435.542 Q131.691 432.88 129.792 431.468 Q127.917 430.033 124.399 430.033 Q122.478 430.033 120.279 430.45 Q118.08 430.867 115.441 431.746 L115.441 427.579 Q118.103 426.839 120.418 426.468 Q122.755 426.098 124.816 426.098 Q130.14 426.098 133.242 428.529 Q136.343 430.936 136.343 435.056 Q136.343 437.927 134.7 439.917 Q133.056 441.885 130.024 442.649 Z" fill="#000000" fill-rule="nonzero" fill-opacity="1" /><path clip-path="url(#clip140)" d="M156.019 429.802 Q152.408 429.802 150.579 433.367 Q148.774 436.908 148.774 444.038 Q148.774 451.144 150.579 454.709 Q152.408 458.251 156.019 458.251 Q159.653 458.251 161.459 454.709 Q163.288 451.144 163.288 444.038 Q163.288 436.908 161.459 433.367 Q159.653 429.802 156.019 429.802 M156.019 426.098 Q161.829 426.098 164.885 430.704 Q167.964 435.288 167.964 444.038 Q167.964 452.765 164.885 457.371 Q161.829 461.954 156.019 461.954 Q150.209 461.954 147.13 457.371 Q144.075 452.765 144.075 444.038 Q144.075 435.288 147.13 430.704 Q150.209 426.098 156.019 426.098 Z" fill="#000000" fill-rule="nonzero" fill-opacity="1" /><path clip-path="url(#clip140)" d="M186.181 429.802 Q182.57 429.802 180.741 433.367 Q178.936 436.908 178.936 444.038 Q178.936 451.144 180.741 454.709 Q182.57 458.251 186.181 458.251 Q189.815 458.251 191.621 454.709 Q193.45 451.144 193.45 444.038 Q193.45 436.908 191.621 433.367 Q189.815 429.802 186.181 429.802 M186.181 426.098 Q191.991 426.098 195.047 430.704 Q198.125 435.288 198.125 444.038 Q198.125 452.765 195.047 457.371 Q191.991 461.954 186.181 461.954 Q180.371 461.954 177.292 457.371 Q174.237 452.765 174.237 444.038 Q174.237 435.288 177.292 430.704 Q180.371 426.098 186.181 426.098 Z" fill="#000000" fill-rule="nonzero" fill-opacity="1" /><path clip-path="url(#clip140)" d="M16.4842 1310.19 L16.4842 1303.76 L58.5933 1303.76 L58.5933 1280.62 L64.0042 1280.62 L64.0042 1310.19 L16.4842 1310.19 Z" fill="#000000" fill-rule="nonzero" fill-opacity="1" /><path clip-path="url(#clip140)" d="M28.3562 1274.12 L28.3562 1268.27 L64.0042 1268.27 L64.0042 1274.12 L28.3562 1274.12 M14.479 1274.12 L14.479 1268.27 L21.895 1268.27 L21.895 1274.12 L14.479 1274.12 Z" fill="#000000" fill-rule="nonzero" fill-opacity="1" /><path clip-path="url(#clip140)" d="M46.212 1252.51 Q52.6732 1252.51 56.3653 1249.87 Q60.0256 1247.2 60.0256 1242.55 Q60.0256 1237.9 56.3653 1235.23 Q52.6732 1232.56 46.212 1232.56 Q39.7508 1232.56 36.0905 1235.23 Q32.3984 1237.9 32.3984 1242.55 Q32.3984 1247.2 36.0905 1249.87 Q39.7508 1252.51 46.212 1252.51 M58.657 1232.56 Q61.8398 1234.4 63.3994 1237.23 Q64.9272 1240.04 64.9272 1243.98 Q64.9272 1250.44 59.771 1254.52 Q54.6147 1258.56 46.212 1258.56 Q37.8093 1258.56 32.6531 1254.52 Q27.4968 1250.44 27.4968 1243.98 Q27.4968 1240.04 29.0564 1237.23 Q30.5842 1234.4 33.7671 1232.56 L28.3562 1232.56 L28.3562 1226.7 L77.5631 1226.7 L77.5631 1232.56 L58.657 1232.56 Z" fill="#000000" fill-rule="nonzero" fill-opacity="1" /><path clip-path="url(#clip140)" d="M49.9359 1215.24 L28.3562 1215.24 L28.3562 1209.38 L49.7131 1209.38 Q54.7739 1209.38 57.3202 1207.41 Q59.8346 1205.44 59.8346 1201.49 Q59.8346 1196.75 56.8109 1194.01 Q53.7872 1191.24 48.5673 1191.24 L28.3562 1191.24 L28.3562 1185.39 L64.0042 1185.39 L64.0042 1191.24 L58.5296 1191.24 Q61.7762 1193.37 63.3676 1196.21 Q64.9272 1199.01 64.9272 1202.73 Q64.9272 1208.88 61.1078 1212.06 Q57.2883 1215.24 49.9359 1215.24 M27.4968 1200.5 L27.4968 1200.5 Z" fill="#000000" fill-rule="nonzero" fill-opacity="1" /><path clip-path="url(#clip140)" d="M28.3562 1173.32 L28.3562 1167.47 L64.0042 1167.47 L64.0042 1173.32 L28.3562 1173.32 M14.479 1173.32 L14.479 1167.47 L21.895 1167.47 L21.895 1173.32 L14.479 1173.32 Z" fill="#000000" fill-rule="nonzero" fill-opacity="1" /><path clip-path="url(#clip140)" d="M33.7671 1131.75 L14.479 1131.75 L14.479 1125.9 L64.0042 1125.9 L64.0042 1131.75 L58.657 1131.75 Q61.8398 1133.6 63.3994 1136.43 Q64.9272 1139.23 64.9272 1143.18 Q64.9272 1149.64 59.771 1153.72 Q54.6147 1157.76 46.212 1157.76 Q37.8093 1157.76 32.6531 1153.72 Q27.4968 1149.64 27.4968 1143.18 Q27.4968 1139.23 29.0564 1136.43 Q30.5842 1133.6 33.7671 1131.75 M46.212 1151.71 Q52.6732 1151.71 56.3653 1149.07 Q60.0256 1146.4 60.0256 1141.75 Q60.0256 1137.1 56.3653 1134.43 Q52.6732 1131.75 46.212 1131.75 Q39.7508 1131.75 36.0905 1134.43 Q32.3984 1137.1 32.3984 1141.75 Q32.3984 1146.4 36.0905 1149.07 Q39.7508 1151.71 46.212 1151.71 Z" fill="#000000" fill-rule="nonzero" fill-opacity="1" /><path clip-path="url(#clip140)" d="M58.657 1087.45 L77.5631 1087.45 L77.5631 1093.34 L28.3562 1093.34 L28.3562 1087.45 L33.7671 1087.45 Q30.5842 1085.6 29.0564 1082.8 Q27.4968 1079.97 27.4968 1076.05 Q27.4968 1069.56 32.6531 1065.52 Q37.8093 1061.45 46.212 1061.45 Q54.6147 1061.45 59.771 1065.52 Q64.9272 1069.56 64.9272 1076.05 Q64.9272 1079.97 63.3994 1082.8 Q61.8398 1085.6 58.657 1087.45 M46.212 1067.52 Q39.7508 1067.52 36.0905 1070.2 Q32.3984 1072.84 32.3984 1077.49 Q32.3984 1082.13 36.0905 1084.81 Q39.7508 1087.45 46.212 1087.45 Q52.6732 1087.45 56.3653 1084.81 Q60.0256 1082.13 60.0256 1077.49 Q60.0256 1072.84 56.3653 1070.2 Q52.6732 1067.52 46.212 1067.52 Z" fill="#000000" fill-rule="nonzero" fill-opacity="1" /><path clip-path="url(#clip140)" d="M33.8307 1031.08 Q33.2578 1032.07 33.0032 1033.25 Q32.7167 1034.39 32.7167 1035.79 Q32.7167 1040.76 35.9632 1043.43 Q39.1779 1046.07 45.2253 1046.07 L64.0042 1046.07 L64.0042 1051.96 L28.3562 1051.96 L28.3562 1046.07 L33.8944 1046.07 Q30.6479 1044.23 29.0883 1041.27 Q27.4968 1038.31 27.4968 1034.07 Q27.4968 1033.47 27.5923 1032.74 Q27.656 1032 27.8151 1031.11 L33.8307 1031.08 Z" fill="#000000" fill-rule="nonzero" fill-opacity="1" /><path clip-path="url(#clip140)" d="M32.4621 1012.56 Q32.4621 1017.27 36.1542 1020 Q39.8145 1022.74 46.212 1022.74 Q52.6095 1022.74 56.3017 1020.04 Q59.9619 1017.3 59.9619 1012.56 Q59.9619 1007.88 56.2698 1005.14 Q52.5777 1002.4 46.212 1002.4 Q39.8781 1002.4 36.186 1005.14 Q32.4621 1007.88 32.4621 1012.56 M27.4968 1012.56 Q27.4968 1004.92 32.4621 1000.56 Q37.4273 996.197 46.212 996.197 Q54.9649 996.197 59.9619 1000.56 Q64.9272 1004.92 64.9272 1012.56 Q64.9272 1020.23 59.9619 1024.59 Q54.9649 1028.92 46.212 1028.92 Q37.4273 1028.92 32.4621 1024.59 Q27.4968 1020.23 27.4968 1012.56 Z" fill="#000000" fill-rule="nonzero" fill-opacity="1" /><path clip-path="url(#clip140)" d="M33.7671 963.032 L14.479 963.032 L14.479 957.175 L64.0042 957.175 L64.0042 963.032 L58.657 963.032 Q61.8398 964.878 63.3994 967.711 Q64.9272 970.511 64.9272 974.458 Q64.9272 980.919 59.771 984.993 Q54.6147 989.036 46.212 989.036 Q37.8093 989.036 32.6531 984.993 Q27.4968 980.919 27.4968 974.458 Q27.4968 970.511 29.0564 967.711 Q30.5842 964.878 33.7671 963.032 M46.212 982.988 Q52.6732 982.988 56.3653 980.346 Q60.0256 977.673 60.0256 973.026 Q60.0256 968.379 56.3653 965.705 Q52.6732 963.032 46.212 963.032 Q39.7508 963.032 36.0905 965.705 Q32.3984 968.379 32.3984 973.026 Q32.3984 977.673 36.0905 980.346 Q39.7508 982.988 46.212 982.988 Z" fill="#000000" fill-rule="nonzero" fill-opacity="1" /><path clip-path="url(#clip140)" d="M49.9359 945.717 L28.3562 945.717 L28.3562 939.861 L49.7131 939.861 Q54.7739 939.861 57.3202 937.887 Q59.8346 935.914 59.8346 931.967 Q59.8346 927.225 56.8109 924.487 Q53.7872 921.718 48.5673 921.718 L28.3562 921.718 L28.3562 915.862 L64.0042 915.862 L64.0042 921.718 L58.5296 921.718 Q61.7762 923.851 63.3676 926.684 Q64.9272 929.484 64.9272 933.208 Q64.9272 939.351 61.1078 942.534 Q57.2883 945.717 49.9359 945.717 M27.4968 930.98 L27.4968 930.98 Z" fill="#000000" fill-rule="nonzero" fill-opacity="1" /><path clip-path="url(#clip140)" d="M29.7248 878.145 L35.1993 878.145 Q33.8307 880.628 33.1623 883.142 Q32.4621 885.625 32.4621 888.171 Q32.4621 893.868 36.0905 897.019 Q39.6872 900.17 46.212 900.17 Q52.7369 900.17 56.3653 897.019 Q59.9619 893.868 59.9619 888.171 Q59.9619 885.625 59.2935 883.142 Q58.5933 880.628 57.2247 878.145 L62.6355 878.145 Q63.7814 880.596 64.3543 883.238 Q64.9272 885.848 64.9272 888.808 Q64.9272 896.86 59.8664 901.603 Q54.8057 906.345 46.212 906.345 Q37.491 906.345 32.4939 901.571 Q27.4968 896.765 27.4968 888.426 Q27.4968 885.72 28.0697 883.142 Q28.6108 880.564 29.7248 878.145 Z" fill="#000000" fill-rule="nonzero" fill-opacity="1" /><path clip-path="url(#clip140)" d="M18.2347 862.167 L28.3562 862.167 L28.3562 850.104 L32.9077 850.104 L32.9077 862.167 L52.2594 862.167 Q56.6199 862.167 57.8613 860.989 Q59.1026 859.78 59.1026 856.12 L59.1026 850.104 L64.0042 850.104 L64.0042 856.12 Q64.0042 862.899 61.4897 865.477 Q58.9434 868.055 52.2594 868.055 L32.9077 868.055 L32.9077 872.352 L28.3562 872.352 L28.3562 868.055 L18.2347 868.055 L18.2347 862.167 Z" fill="#000000" fill-rule="nonzero" fill-opacity="1" /><path clip-path="url(#clip140)" d="M28.3562 842.402 L28.3562 836.545 L64.0042 836.545 L64.0042 842.402 L28.3562 842.402 M14.479 842.402 L14.479 836.545 L21.895 836.545 L21.895 842.402 L14.479 842.402 Z" fill="#000000" fill-rule="nonzero" fill-opacity="1" /><path clip-path="url(#clip140)" d="M32.4621 810.478 Q32.4621 815.188 36.1542 817.925 Q39.8145 820.663 46.212 820.663 Q52.6095 820.663 56.3017 817.957 Q59.9619 815.22 59.9619 810.478 Q59.9619 805.799 56.2698 803.062 Q52.5777 800.324 46.212 800.324 Q39.8781 800.324 36.186 803.062 Q32.4621 805.799 32.4621 810.478 M27.4968 810.478 Q27.4968 802.839 32.4621 798.478 Q37.4273 794.118 46.212 794.118 Q54.9649 794.118 59.9619 798.478 Q64.9272 802.839 64.9272 810.478 Q64.9272 818.148 59.9619 822.509 Q54.9649 826.837 46.212 826.837 Q37.4273 826.837 32.4621 822.509 Q27.4968 818.148 27.4968 810.478 Z" fill="#000000" fill-rule="nonzero" fill-opacity="1" /><path clip-path="url(#clip140)" d="M42.4881 754.778 L64.0042 754.778 L64.0042 760.634 L42.679 760.634 Q37.6183 760.634 35.1038 762.607 Q32.5894 764.581 32.5894 768.528 Q32.5894 773.27 35.6131 776.007 Q38.6368 778.745 43.8567 778.745 L64.0042 778.745 L64.0042 784.633 L28.3562 784.633 L28.3562 778.745 L33.8944 778.745 Q30.6797 776.644 29.0883 773.811 Q27.4968 770.947 27.4968 767.223 Q27.4968 761.08 31.3163 757.929 Q35.1038 754.778 42.4881 754.778 Z" fill="#000000" fill-rule="nonzero" fill-opacity="1" /><path clip-path="url(#clip140)" d="M33.8307 701.719 Q33.2578 702.706 33.0032 703.884 Q32.7167 705.03 32.7167 706.43 Q32.7167 711.395 35.9632 714.069 Q39.1779 716.711 45.2253 716.711 L64.0042 716.711 L64.0042 722.599 L28.3562 722.599 L28.3562 716.711 L33.8944 716.711 Q30.6479 714.865 29.0883 711.905 Q27.4968 708.945 27.4968 704.711 Q27.4968 704.107 27.5923 703.375 Q27.656 702.643 27.8151 701.751 L33.8307 701.719 Z" fill="#000000" fill-rule="nonzero" fill-opacity="1" /><path clip-path="url(#clip140)" d="M46.0847 679.376 Q46.0847 686.474 47.7079 689.211 Q49.3312 691.948 53.2461 691.948 Q56.3653 691.948 58.2114 689.911 Q60.0256 687.842 60.0256 684.309 Q60.0256 679.44 56.5881 676.511 Q53.1188 673.551 47.3897 673.551 L46.0847 673.551 L46.0847 679.376 M43.6657 667.695 L64.0042 667.695 L64.0042 673.551 L58.5933 673.551 Q61.8398 675.556 63.3994 678.548 Q64.9272 681.54 64.9272 685.869 Q64.9272 691.343 61.8716 694.59 Q58.7843 697.805 53.6281 697.805 Q47.6125 697.805 44.5569 693.794 Q41.5014 689.752 41.5014 681.763 L41.5014 673.551 L40.9285 673.551 Q36.8862 673.551 34.6901 676.225 Q32.4621 678.867 32.4621 683.673 Q32.4621 686.728 33.1941 689.625 Q33.9262 692.521 35.3903 695.195 L29.9795 695.195 Q28.7381 691.98 28.1334 688.956 Q27.4968 685.933 27.4968 683.068 Q27.4968 675.334 31.5072 671.514 Q35.5176 667.695 43.6657 667.695 Z" fill="#000000" fill-rule="nonzero" fill-opacity="1" /><path clip-path="url(#clip140)" d="M18.2347 649.839 L28.3562 649.839 L28.3562 637.776 L32.9077 637.776 L32.9077 649.839 L52.2594 649.839 Q56.6199 649.839 57.8613 648.661 Q59.1026 647.452 59.1026 643.792 L59.1026 637.776 L64.0042 637.776 L64.0042 643.792 Q64.0042 650.571 61.4897 653.149 Q58.9434 655.727 52.2594 655.727 L32.9077 655.727 L32.9077 660.024 L28.3562 660.024 L28.3562 655.727 L18.2347 655.727 L18.2347 649.839 Z" fill="#000000" fill-rule="nonzero" fill-opacity="1" /><path clip-path="url(#clip140)" d="M44.7161 599.582 L47.5806 599.582 L47.5806 626.509 Q53.6281 626.127 56.8109 622.88 Q59.9619 619.602 59.9619 613.777 Q59.9619 610.403 59.1344 607.252 Q58.3069 604.07 56.6518 600.95 L62.1899 600.95 Q63.5267 604.101 64.227 607.412 Q64.9272 610.722 64.9272 614.127 Q64.9272 622.657 59.9619 627.654 Q54.9967 632.62 46.5303 632.62 Q37.7774 632.62 32.6531 627.909 Q27.4968 623.167 27.4968 615.146 Q27.4968 607.953 32.1438 603.783 Q36.7589 599.582 44.7161 599.582 M42.9973 605.438 Q38.1912 605.502 35.3266 608.144 Q32.4621 610.754 32.4621 615.082 Q32.4621 619.984 35.2312 622.944 Q38.0002 625.872 43.0292 626.318 L42.9973 605.438 Z" fill="#000000" fill-rule="nonzero" fill-opacity="1" /><path clip-path="url(#clip140)" d="M55.9197 588.474 L55.9197 581.758 L61.3942 581.758 L71.5793 586.978 L71.5793 591.083 L61.3942 588.474 L55.9197 588.474 Z" fill="#000000" fill-rule="nonzero" fill-opacity="1" /><path clip-path="url(#clip140)" d="M35.1993 520.774 Q31.2526 518.578 29.3747 515.523 Q27.4968 512.467 27.4968 508.329 Q27.4968 502.759 31.4117 499.736 Q35.2948 496.712 42.4881 496.712 L64.0042 496.712 L64.0042 502.6 L42.679 502.6 Q37.5546 502.6 35.072 504.414 Q32.5894 506.229 32.5894 509.953 Q32.5894 514.504 35.6131 517.146 Q38.6368 519.788 43.8567 519.788 L64.0042 519.788 L64.0042 525.676 L42.679 525.676 Q37.5228 525.676 35.072 527.49 Q32.5894 529.304 32.5894 533.092 Q32.5894 537.58 35.6449 540.221 Q38.6686 542.863 43.8567 542.863 L64.0042 542.863 L64.0042 548.752 L28.3562 548.752 L28.3562 542.863 L33.8944 542.863 Q30.616 540.858 29.0564 538.057 Q27.4968 535.256 27.4968 531.405 Q27.4968 527.522 29.4702 524.816 Q31.4436 522.079 35.1993 520.774 Z" fill="#000000" fill-rule="nonzero" fill-opacity="1" /><path clip-path="url(#clip140)" d="M38.3822 464.724 Q39.3689 460.109 42.4881 457.531 Q45.6073 454.921 50.1906 454.921 Q57.2247 454.921 61.0759 459.759 Q64.9272 464.597 64.9272 473.509 Q64.9272 476.501 64.3224 479.684 Q63.7495 482.835 62.5719 486.208 L56.3653 486.208 Q57.9249 483.535 58.7206 480.352 Q59.5163 477.169 59.5163 473.7 Q59.5163 467.652 57.1292 464.501 Q54.7421 461.319 50.1906 461.319 Q45.9892 461.319 43.6339 464.279 Q41.2468 467.207 41.2468 472.459 L41.2468 477.997 L35.9632 477.997 L35.9632 472.204 Q35.9632 467.461 34.0853 464.947 Q32.1756 462.433 28.6108 462.433 Q24.9505 462.433 23.009 465.043 Q21.0356 467.621 21.0356 472.459 Q21.0356 475.1 21.6086 478.124 Q22.1815 481.148 23.3909 484.776 L17.6618 484.776 Q16.6433 481.116 16.134 477.933 Q15.6248 474.718 15.6248 471.886 Q15.6248 464.565 18.9668 460.3 Q22.277 456.035 27.9424 456.035 Q31.8892 456.035 34.6264 458.295 Q37.3318 460.555 38.3822 464.724 Z" fill="#000000" fill-rule="nonzero" fill-opacity="1" /><path clip-path="url(#clip140)" d="M16.4842 433.15 L16.4842 427.739 L70.0516 444.29 L70.0516 449.701 L16.4842 433.15 Z" fill="#000000" fill-rule="nonzero" fill-opacity="1" /><path clip-path="url(#clip140)" d="M33.7671 398.139 L14.479 398.139 L14.479 392.282 L64.0042 392.282 L64.0042 398.139 L58.657 398.139 Q61.8398 399.985 63.3994 402.818 Q64.9272 405.619 64.9272 409.565 Q64.9272 416.027 59.771 420.101 Q54.6147 424.143 46.212 424.143 Q37.8093 424.143 32.6531 420.101 Q27.4968 416.027 27.4968 409.565 Q27.4968 405.619 29.0564 402.818 Q30.5842 399.985 33.7671 398.139 M46.212 418.095 Q52.6732 418.095 56.3653 415.454 Q60.0256 412.78 60.0256 408.133 Q60.0256 403.486 56.3653 400.813 Q52.6732 398.139 46.212 398.139 Q39.7508 398.139 36.0905 400.813 Q32.3984 403.486 32.3984 408.133 Q32.3984 412.78 36.0905 415.454 Q39.7508 418.095 46.212 418.095 Z" fill="#000000" fill-rule="nonzero" fill-opacity="1" /><path clip-path="url(#clip140)" d="M46.0847 364.019 Q46.0847 371.117 47.7079 373.854 Q49.3312 376.591 53.2461 376.591 Q56.3653 376.591 58.2114 374.554 Q60.0256 372.485 60.0256 368.952 Q60.0256 364.082 56.5881 361.154 Q53.1188 358.194 47.3897 358.194 L46.0847 358.194 L46.0847 364.019 M43.6657 352.338 L64.0042 352.338 L64.0042 358.194 L58.5933 358.194 Q61.8398 360.199 63.3994 363.191 Q64.9272 366.183 64.9272 370.512 Q64.9272 375.986 61.8716 379.233 Q58.7843 382.447 53.6281 382.447 Q47.6125 382.447 44.5569 378.437 Q41.5014 374.395 41.5014 366.406 L41.5014 358.194 L40.9285 358.194 Q36.8862 358.194 34.6901 360.868 Q32.4621 363.509 32.4621 368.316 Q32.4621 371.371 33.1941 374.268 Q33.9262 377.164 35.3903 379.838 L29.9795 379.838 Q28.7381 376.623 28.1334 373.599 Q27.4968 370.575 27.4968 367.711 Q27.4968 359.977 31.5072 356.157 Q35.5176 352.338 43.6657 352.338 Z" fill="#000000" fill-rule="nonzero" fill-opacity="1" /><path clip-path="url(#clip140)" d="M67.3143 325.443 Q73.68 327.925 75.6216 330.28 Q77.5631 332.636 77.5631 336.583 L77.5631 341.261 L72.6615 341.261 L72.6615 337.824 Q72.6615 335.405 71.5157 334.068 Q70.3699 332.731 66.1048 331.108 L63.4312 330.058 L28.3562 344.476 L28.3562 338.269 L56.238 327.129 L28.3562 315.989 L28.3562 309.783 L67.3143 325.443 Z" fill="#000000" fill-rule="nonzero" fill-opacity="1" /><polyline clip-path="url(#clip142)" style="stroke:#000000; stroke-linecap:round; stroke-linejoin:round; stroke-width:8; stroke-opacity:1; fill:none" points="251.781,319.648 269.436,319.648 269.436,275.573 287.091,275.573 287.091,319.648 304.746,319.648 304.746,231.498 322.402,231.498 322.402,264.554 340.057,264.554 357.712,264.554 357.712,242.517 375.367,242.517 393.023,242.517 393.023,308.629 410.678,308.629 410.678,319.648 428.333,319.648 428.333,330.667 445.988,330.667 445.988,341.686 463.644,341.686 481.299,341.686 481.299,297.611 498.954,297.611 498.954,253.535 516.61,253.535 516.61,242.517 534.265,242.517 534.265,297.611 551.92,297.611 569.575,297.611 569.575,286.592 587.231,286.592 587.231,242.517 604.886,242.517 604.886,231.498 622.541,231.498 622.541,242.517 640.196,242.517 640.196,275.573 657.852,275.573 657.852,286.592 675.507,286.592 693.162,286.592 693.162,264.554 710.817,264.554 710.817,231.498 728.473,231.498 728.473,242.517 746.128,242.517 746.128,286.592 763.783,286.592 763.783,264.554 781.438,264.554 781.438,297.611 799.094,297.611 799.094,264.554 816.749,264.554 816.749,242.517 834.404,242.517 834.404,308.629 852.059,308.629 852.059,231.498 869.715,231.498 869.715,275.573 887.37,275.573 887.37,308.629 905.025,308.629 905.025,275.573 922.68,275.573 922.68,341.686 940.336,341.686 957.991,341.686 957.991,253.535 975.646,253.535 975.646,297.611 993.301,297.611 993.301,242.517 1010.96,242.517 1010.96,297.611 1028.61,297.611 1028.61,286.592 1046.27,286.592 1046.27,319.648 1063.92,319.648 1081.58,319.648 1081.58,264.554 1099.23,264.554 1116.89,264.554 1116.89,308.629 1134.54,308.629 1134.54,319.648 1152.2,319.648 1152.2,264.554 1169.85,264.554 1169.85,253.535 1187.51,253.535 1187.51,330.667 1205.16,330.667 1205.16,242.517 1222.82,242.517 1222.82,286.592 1240.47,286.592 1240.47,341.686 1258.13,341.686 1258.13,319.648 1275.79,319.648 1275.79,253.535 1293.44,253.535 1293.44,308.629 1311.1,308.629 1311.1,264.554 1328.75,264.554 1328.75,275.573 1346.41,275.573 1346.41,286.592 1364.06,286.592 1364.06,319.648 1381.72,319.648 1381.72,275.573 1399.37,275.573 1417.03,275.573 1417.03,264.554 1434.68,264.554 1434.68,242.517 1452.34,242.517 1452.34,275.573 1469.99,275.573 1469.99,231.498 1487.65,231.498 1487.65,242.517 1505.3,242.517 1505.3,319.648 1522.96,319.648 1522.96,308.629 1540.61,308.629 1540.61,319.648 1558.27,319.648 1558.27,231.498 1575.92,231.498 1575.92,308.629 1593.58,308.629 1593.58,286.592 1611.24,286.592 1628.89,286.592 1646.55,286.592 1646.55,319.648 1664.2,319.648 1664.2,330.667 1681.86,330.667 1681.86,297.611 1699.51,297.611 1699.51,242.517 1717.17,242.517 1717.17,319.648 1734.82,319.648 1734.82,341.686 1752.48,341.686 1752.48,286.592 1770.13,286.592 1787.79,286.592 1787.79,231.498 1805.44,231.498 1823.1,231.498 1823.1,275.573 1840.75,275.573 1840.75,319.648 1858.41,319.648 1858.41,330.667 1876.06,330.667 1876.06,341.686 1893.72,341.686 1893.72,319.648 1911.37,319.648 1911.37,264.554 1929.03,264.554 1929.03,330.667 1946.69,330.667 1946.69,275.573 1964.34,275.573 1982,275.573 1982,286.592 1999.65,286.592 1999.65,264.554 2017.31,264.554 2017.31,330.667 2034.96,330.667 2034.96,286.592 2052.62,286.592 2052.62,319.648 2070.27,319.648 2070.27,231.498 2087.93,231.498 2087.93,308.629 2105.58,308.629 2105.58,286.592 2123.24,286.592 2123.24,264.554 2140.89,264.554 2140.89,286.592 2158.55,286.592 2158.55,297.611 2176.2,297.611 2176.2,308.629 2193.86,308.629 2193.86,231.498 2211.51,231.498 2211.51,319.648 2229.17,319.648 2229.17,297.611 2246.82,297.611 2246.82,275.573 2264.48,275.573 2264.48,286.592 2282.13,286.592 2282.13,253.535 2299.79,253.535 2299.79,297.611 2317.45,297.611 2317.45,341.686 2335.1,341.686 2335.1,286.592 2352.76,286.592 2352.76,297.611 "/>
<polyline clip-path="url(#clip142)" style="stroke:#000000; stroke-linecap:round; stroke-linejoin:round; stroke-width:8; stroke-opacity:1; fill:none" stroke-dasharray="32, 20" points="251.781,1388.47 269.436,1388.47 287.091,1388.47 304.746,1388.47 322.402,1388.47 322.402,1143.86 340.057,1143.86 340.057,1152.66 357.712,1152.66 357.712,1137.26 375.367,1137.26 393.023,1137.26 393.023,1141.66 410.678,1141.66 428.333,1141.66 428.333,1139.46 445.988,1139.46 445.988,1152.66 463.644,1152.66 463.644,1137.26 481.299,1137.26 481.299,1143.86 498.954,1143.86 498.954,1150.46 516.61,1150.46 516.61,1148.26 534.265,1148.26 551.92,1148.26 551.92,1154.86 569.575,1154.86 569.575,1137.26 587.231,1137.26 587.231,1135.06 604.886,1135.06 604.886,1157.06 622.541,1157.06 622.541,1135.06 640.196,1135.06 640.196,1143.86 657.852,1143.86 657.852,1141.66 675.507,1141.66 675.507,1150.46 693.162,1150.46 693.162,1135.06 710.817,1135.06 710.817,1143.86 728.473,1143.86 728.473,1157.06 746.128,1157.06 746.128,1146.06 763.783,1146.06 763.783,1135.06 781.438,1135.06 781.438,1146.06 799.094,1146.06 799.094,1143.86 816.749,1143.86 816.749,1150.46 834.404,1150.46 834.404,1152.66 852.059,1152.66 869.715,1152.66 869.715,1137.26 887.37,1137.26 905.025,1137.26 905.025,1135.06 922.68,1135.06 922.68,1154.86 940.336,1154.86 940.336,1143.86 957.991,1143.86 957.991,1148.26 975.646,1148.26 975.646,1150.46 993.301,1150.46 993.301,1168.09 1010.96,1168.09 1010.96,1174.7 1028.61,1174.7 1028.61,1176.9 1046.27,1176.9 1046.27,1170.29 1063.92,1170.29 1063.92,1163.69 1081.58,1163.69 1099.23,1163.69 1099.23,1159.29 1116.89,1159.29 1116.89,1179.1 1134.54,1179.1 1134.54,1174.7 1152.2,1174.7 1152.2,1159.29 1169.85,1159.29 1169.85,1172.5 1187.51,1172.5 1187.51,1161.49 1205.16,1161.49 1205.16,1157.09 1222.82,1157.09 1222.82,1170.29 1240.47,1170.29 1240.47,1157.09 1258.13,1157.09 1275.79,1157.09 1275.79,1172.5 1293.44,1172.5 1293.44,1163.69 1311.1,1163.69 1311.1,1161.49 1328.75,1161.49 1328.75,1179.1 1346.41,1179.1 1346.41,1168.09 1364.06,1168.09 1364.06,1165.89 1381.72,1165.89 1399.37,1165.89 1399.37,1174.7 1417.03,1174.7 1417.03,1159.29 1434.68,1159.29 1434.68,1170.29 1452.34,1170.29 1452.34,1172.5 1469.99,1172.5 1469.99,1170.29 1487.65,1170.29 1487.65,1161.49 1505.3,1161.49 1505.3,1168.09 1522.96,1168.09 1522.96,1165.89 1540.61,1165.89 1540.61,1172.5 1558.27,1172.5 1558.27,1163.69 1575.92,1163.69 1575.92,1174.7 1593.58,1174.7 1593.58,1161.49 1611.24,1161.49 1611.24,1157.09 1628.89,1157.09 1646.55,1157.09 1646.55,1170.29 1664.2,1170.29 1664.2,1161.49 1681.86,1161.49 1681.86,1179.1 1699.51,1179.1 1699.51,1165.89 1717.17,1165.89 1734.82,1165.89 1734.82,1163.69 1752.48,1163.69 1752.48,1174.7 1770.13,1174.7 1770.13,1179.1 1787.79,1179.1 1787.79,1170.29 1805.44,1170.29 1805.44,1161.49 1823.1,1161.49 1823.1,1163.69 1840.75,1163.69 1840.75,1176.9 1858.41,1176.9 1858.41,1174.7 1876.06,1174.7 1876.06,1165.89 1893.72,1165.89 1893.72,1161.49 1911.37,1161.49 1911.37,1172.5 1929.03,1172.5 1929.03,1159.29 1946.69,1159.29 1946.69,1165.89 1964.34,1165.89 1964.34,1172.5 1982,1172.5 1982,1170.29 1999.65,1170.29 1999.65,1157.09 2017.31,1157.09 2017.31,1176.9 2034.96,1176.9 2034.96,1174.7 2052.62,1174.7 2070.27,1174.7 2070.27,1163.69 2087.93,1163.69 2087.93,1159.29 2105.58,1159.29 2105.58,1174.7 2123.24,1174.7 2140.89,1174.7 2158.55,1174.7 2158.55,1176.9 2176.2,1176.9 2176.2,1163.69 2193.86,1163.69 2193.86,1161.49 2211.51,1161.49 2211.51,1170.29 2229.17,1170.29 2229.17,1163.69 2246.82,1163.69 2246.82,1165.89 2264.48,1165.89 2264.48,1161.49 2282.13,1161.49 2282.13,1176.9 2299.79,1176.9 2299.79,1172.5 2317.45,1172.5 2317.45,1168.09 2335.1,1168.09 2335.1,1176.9 2352.76,1176.9 2352.76,1163.69 "/>
<polyline clip-path="url(#clip142)" style="stroke:#000000; stroke-linecap:round; stroke-linejoin:round; stroke-width:8; stroke-opacity:1; fill:none" stroke-dasharray="4, 8" points="251.781,1388.47 269.436,1388.47 287.091,1388.47 304.746,1388.47 322.402,1388.47 340.057,1388.47 357.712,1388.47 375.367,1388.47 393.023,1388.47 393.023,944.059 410.678,944.059 410.678,955.039 428.333,955.039 428.333,933.08 445.988,933.08 445.988,929.421 463.644,929.421 463.644,947.719 481.299,947.719 481.299,929.421 498.954,929.421 498.954,936.74 516.61,936.74 534.265,936.74 534.265,933.08 551.92,933.08 551.92,951.379 569.575,951.379 569.575,936.74 587.231,936.74 587.231,947.719 604.886,947.719 604.886,944.059 622.541,944.059 622.541,958.698 640.196,958.698 640.196,940.4 657.852,940.4 657.852,951.379 675.507,951.379 675.507,944.059 693.162,944.059 693.162,966.018 710.817,966.018 710.817,944.059 728.473,944.059 728.473,955.039 746.128,955.039 746.128,958.698 763.783,958.698 763.783,936.74 781.438,936.74 781.438,944.059 799.094,944.059 799.094,962.358 816.749,962.358 816.749,947.719 834.404,947.719 834.404,966.018 852.059,966.018 852.059,940.4 869.715,940.4 887.37,940.4 887.37,933.08 905.025,933.08 905.025,944.059 922.68,944.059 922.68,1043.19 940.336,1043.19 940.336,1039.53 957.991,1039.53 957.991,1054.17 975.646,1054.17 975.646,1024.89 993.301,1024.89 993.301,1028.55 1010.96,1028.55 1010.96,1046.85 1028.61,1046.85 1028.61,1039.53 1046.27,1039.53 1046.27,1032.21 1063.92,1032.21 1063.92,1021.23 1081.58,1021.23 1081.58,1017.57 1099.23,1017.57 1099.23,1024.89 1116.89,1024.89 1116.89,1046.85 1134.54,1046.85 1134.54,1050.51 1152.2,1050.51 1152.2,1017.57 1169.85,1017.57 1169.85,1021.23 1187.51,1021.23 1187.51,1032.21 1205.16,1032.21 1205.16,1046.85 1222.82,1046.85 1222.82,1054.17 1240.47,1054.17 1240.47,1017.57 1258.13,1017.57 1258.13,1028.55 1275.79,1028.55 1275.79,1035.87 1293.44,1035.87 1293.44,1043.19 1311.1,1043.19 1311.1,1024.89 1328.75,1024.89 1346.41,1024.89 1346.41,1028.55 1364.06,1028.55 1364.06,1024.89 1381.72,1024.89 1381.72,1021.23 1399.37,1021.23 1399.37,1028.55 1417.03,1028.55 1417.03,1046.85 1434.68,1046.85 1434.68,1028.55 1452.34,1028.55 1469.99,1028.55 1469.99,1035.87 1487.65,1035.87 1505.3,1035.87 1505.3,1032.21 1522.96,1032.21 1522.96,1050.51 1540.61,1050.51 1540.61,1046.85 1558.27,1046.85 1558.27,1054.17 1575.92,1054.17 1593.58,1054.17 1593.58,1028.55 1611.24,1028.55 1628.89,1028.55 1628.89,1032.21 1646.55,1032.21 1646.55,1043.19 1664.2,1043.19 1664.2,1054.17 1681.86,1054.17 1681.86,1021.23 1699.51,1021.23 1699.51,1043.19 1717.17,1043.19 1717.17,1054.17 1734.82,1054.17 1734.82,1043.19 1752.48,1043.19 1752.48,1021.23 1770.13,1021.23 1770.13,1046.85 1787.79,1046.85 1787.79,1028.55 1805.44,1028.55 1805.44,1035.87 1823.1,1035.87 1823.1,1021.23 1840.75,1021.23 1858.41,1021.23 1858.41,1028.55 1876.06,1028.55 1893.72,1028.55 1893.72,1043.19 1911.37,1043.19 1911.37,1046.85 1929.03,1046.85 1929.03,1017.57 1946.69,1017.57 1946.69,1035.87 1964.34,1035.87 1964.34,1046.85 1982,1046.85 1982,1017.57 1999.65,1017.57 1999.65,1028.55 2017.31,1028.55 2017.31,1024.89 2034.96,1024.89 2034.96,1035.87 2052.62,1035.87 2052.62,1032.21 2070.27,1032.21 2070.27,1014.58 2087.93,1014.58 2087.93,918.362 2105.58,918.362 2105.58,911.043 2123.24,911.043 2123.24,940.32 2140.89,940.32 2158.55,940.32 2158.55,925.682 2176.2,925.682 2176.2,929.341 2193.86,929.341 2193.86,933.001 2211.51,933.001 2211.51,940.32 2229.17,940.32 2229.17,914.702 2246.82,914.702 2246.82,929.341 2264.48,929.341 2264.48,907.383 2282.13,907.383 2282.13,925.682 2299.79,925.682 2299.79,933.001 2317.45,933.001 2317.45,911.043 2335.1,911.043 2335.1,943.98 2352.76,943.98 2352.76,918.362 "/>
<polyline clip-path="url(#clip142)" style="stroke:#000000; stroke-linecap:round; stroke-linejoin:round; stroke-width:8; stroke-opacity:1; fill:none" stroke-dasharray="32, 16, 4, 16" points="251.781,1388.47 269.436,1388.47 287.091,1388.47 304.746,1388.47 322.402,1388.47 340.057,1388.47 357.712,1388.47 375.367,1388.47 393.023,1388.47 410.678,1388.47 428.333,1388.47 445.988,1388.47 463.644,1388.47 463.644,1137.21 481.299,1137.21 481.299,1157.12 498.954,1157.12 498.954,1139.42 516.61,1139.42 534.265,1139.42 534.265,1146.06 551.92,1146.06 551.92,1150.48 569.575,1150.48 569.575,1141.63 587.231,1141.63 604.886,1141.63 604.886,1157.12 622.541,1157.12 622.541,1152.69 640.196,1152.69 640.196,1146.06 657.852,1146.06 657.852,1139.42 675.507,1139.42 675.507,1148.27 693.162,1148.27 693.162,1137.21 710.817,1137.21 710.817,1143.85 728.473,1143.85 728.473,1103.06 746.128,1103.06 746.128,1128.4 763.783,1128.4 763.783,1146.1 781.438,1146.1 781.438,1130.62 799.094,1130.62 799.094,1135.04 816.749,1135.04 816.749,1139.46 834.404,1139.46 834.404,1146.1 852.059,1146.1 852.059,1143.89 869.715,1143.89 869.715,1130.62 887.37,1130.62 887.37,1137.25 905.025,1137.25 905.025,1132.83 922.68,1132.83 922.68,1141.67 940.336,1141.67 940.336,1137.25 957.991,1137.25 957.991,1126.19 975.646,1126.19 975.646,1128.4 993.301,1128.4 993.301,1141.67 1010.96,1141.67 1010.96,1126.19 1028.61,1126.19 1028.61,1143.89 1046.27,1143.89 1046.27,1130.62 1063.92,1130.62 1063.92,1137.25 1081.58,1137.25 1081.58,1126.19 1099.23,1126.19 1099.23,1130.62 1116.89,1130.62 1134.54,1130.62 1134.54,1135.04 1152.2,1135.04 1169.85,1135.04 1169.85,1137.25 1187.51,1137.25 1187.51,1135.04 1205.16,1135.04 1205.16,1114.12 1222.82,1114.12 1222.82,1146.06 1240.47,1146.06 1258.13,1146.06 1258.13,1152.69 1275.79,1152.69 1275.79,1146.06 1293.44,1146.06 1293.44,1139.42 1311.1,1139.42 1311.1,1150.48 1328.75,1150.48 1328.75,1143.85 1346.41,1143.85 1364.06,1143.85 1364.06,1139.42 1381.72,1139.42 1381.72,1143.85 1399.37,1143.85 1399.37,1146.06 1417.03,1146.06 1417.03,1152.69 1434.68,1152.69 1434.68,1137.21 1452.34,1137.21 1452.34,1157.12 1469.99,1157.12 1469.99,1143.85 1487.65,1143.85 1487.65,1146.06 1505.3,1146.06 1505.3,1139.42 1522.96,1139.42 1522.96,1150.48 1540.61,1150.48 1558.27,1150.48 1575.92,1150.48 1575.92,1139.42 1593.58,1139.42 1593.58,1150.48 1611.24,1150.48 1611.24,1154.9 1628.89,1154.9 1628.89,1152.69 1646.55,1152.69 1646.55,1146.06 1664.2,1146.06 1664.2,1143.85 1681.86,1143.85 1699.51,1143.85 1699.51,1148.27 1717.17,1148.27 1717.17,1135 1734.82,1135 1734.82,1148.27 1752.48,1148.27 1752.48,1143.85 1770.13,1143.85 1770.13,1150.48 1787.79,1150.48 1787.79,1157.12 1805.44,1157.12 1805.44,1148.27 1823.1,1148.27 1823.1,1135 1840.75,1135 1840.75,1152.69 1858.41,1152.69 1876.06,1152.69 1876.06,1157.12 1893.72,1157.12 1893.72,1152.69 1911.37,1152.69 1911.37,1143.85 1929.03,1143.85 1929.03,1148.27 1946.69,1148.27 1946.69,1146.06 1964.34,1146.06 1964.34,1139.42 1982,1139.42 1982,1154.9 1999.65,1154.9 1999.65,1152.69 2017.31,1152.69 2017.31,1148.27 2034.96,1148.27 2034.96,1139.42 2052.62,1139.42 2052.62,1135 2070.27,1135 2070.27,1146.06 2087.93,1146.06 2087.93,1152.69 2105.58,1152.69 2105.58,1141.63 2123.24,1141.63 2123.24,1139.42 2140.89,1139.42 2140.89,1143.85 2158.55,1143.85 2176.2,1143.85 2176.2,1146.06 2193.86,1146.06 2193.86,1152.69 2211.51,1152.69 2211.51,1157.12 2229.17,1157.12 2229.17,1152.69 2246.82,1152.69 2246.82,1143.85 2264.48,1143.85 2282.13,1143.85 2282.13,1150.48 2299.79,1150.48 2299.79,1135 2317.45,1135 2317.45,1148.27 2335.1,1148.27 2335.1,1141.63 2352.76,1141.63 2352.76,1135 "/>
<polyline clip-path="url(#clip142)" style="stroke:#000000; stroke-linecap:round; stroke-linejoin:round; stroke-width:8; stroke-opacity:1; fill:none" stroke-dasharray="32, 16, 4, 16, 4, 16" points="251.781,1388.47 269.436,1388.47 287.091,1388.47 304.746,1388.47 322.402,1388.47 340.057,1388.47 357.712,1388.47 375.367,1388.47 393.023,1388.47 410.678,1388.47 428.333,1388.47 445.988,1388.47 463.644,1388.47 481.299,1388.47 498.954,1388.47 516.61,1388.47 534.265,1388.47 534.265,1186.69 551.92,1186.69 551.92,1191.85 569.575,1191.85 569.575,1193.57 587.231,1193.57 587.231,1186.69 604.886,1186.69 604.886,1193.57 622.541,1193.57 622.541,1190.13 640.196,1190.13 640.196,1193.57 657.852,1193.57 657.852,1183.26 675.507,1183.26 675.507,1181.54 693.162,1181.54 693.162,1197.01 710.817,1197.01 710.817,1188.41 728.473,1188.41 728.473,1186.69 746.128,1186.69 746.128,1183.26 763.783,1183.26 763.783,1197.01 781.438,1197.01 781.438,1184.98 799.094,1184.98 799.094,1198.73 816.749,1198.73 816.749,1190.13 834.404,1190.13 852.059,1190.13 852.059,1188.41 869.715,1188.41 869.715,1197.01 887.37,1197.01 887.37,1181.54 905.025,1181.54 905.025,1193.57 922.68,1193.57 922.68,1181.54 940.336,1181.54 957.991,1181.54 957.991,1193.57 975.646,1193.57 975.646,1190.13 993.301,1190.13 993.301,1188.41 1010.96,1188.41 1028.61,1188.41 1028.61,1191.85 1046.27,1191.85 1046.27,1193.57 1063.92,1193.57 1063.92,1190.13 1081.58,1190.13 1081.58,1191.85 1099.23,1191.85 1116.89,1191.85 1116.89,1198.73 1134.54,1198.73 1152.2,1198.73 1152.2,1181.54 1169.85,1181.54 1169.85,1191.85 1187.51,1191.85 1187.51,1186.69 1205.16,1186.69 1205.16,1195.29 1222.82,1195.29 1222.82,1181.54 1240.47,1181.54 1240.47,1193.57 1258.13,1193.57 1258.13,1184.98 1275.79,1184.98 1275.79,1191.85 1293.44,1191.85 1293.44,1181.54 1311.1,1181.54 1311.1,1195.29 1328.75,1195.29 1328.75,1188.41 1346.41,1188.41 1346.41,1181.54 1364.06,1181.54 1364.06,1186.69 1381.72,1186.69 1381.72,1183.26 1399.37,1183.26 1399.37,1195.29 1417.03,1195.29 1417.03,1190.13 1434.68,1190.13 1434.68,1184.98 1452.34,1184.98 1452.34,1181.54 1469.99,1181.54 1469.99,1190.13 1487.65,1190.13 1487.65,1186.69 1505.3,1186.69 1522.96,1186.69 1522.96,1190.13 1540.61,1190.13 1540.61,1184.98 1558.27,1184.98 1558.27,1181.54 1575.92,1181.54 1575.92,1186.69 1593.58,1186.69 1593.58,1181.54 1611.24,1181.54 1611.24,1198.73 1628.89,1198.73 1628.89,1193.57 1646.55,1193.57 1646.55,1197.01 1664.2,1197.01 1664.2,1198.73 1681.86,1198.73 1681.86,1186.69 1699.51,1186.69 1699.51,1181.54 1717.17,1181.54 1734.82,1181.54 1752.48,1181.54 1752.48,1198.73 1770.13,1198.73 1770.13,1184.98 1787.79,1184.98 1787.79,1183.26 1805.44,1183.26 1805.44,1198.73 1823.1,1198.73 1823.1,1183.26 1840.75,1183.26 1840.75,1193.57 1858.41,1193.57 1858.41,1198.73 1876.06,1198.73 1876.06,1186.69 1893.72,1186.69 1893.72,1188.41 1911.37,1188.41 1911.37,1181.54 1929.03,1181.54 1929.03,1190.13 1946.69,1190.13 1946.69,1181.54 1964.34,1181.54 1964.34,1184.98 1982,1184.98 1982,1191.85 1999.65,1191.85 1999.65,1186.69 2017.31,1186.69 2017.31,1191.85 2034.96,1191.85 2034.96,1186.69 2052.62,1186.69 2052.62,1183.26 2070.27,1183.26 2070.27,1188.41 2087.93,1188.41 2087.93,1197.01 2105.58,1197.01 2123.24,1197.01 2123.24,1195.29 2140.89,1195.29 2140.89,1193.57 2158.55,1193.57 2158.55,1198.73 2176.2,1198.73 2193.86,1198.73 2193.86,1195.29 2211.51,1195.29 2211.51,1181.54 2229.17,1181.54 2229.17,1191.85 2246.82,1191.85 2246.82,1198.73 2264.48,1198.73 2282.13,1198.73 2282.13,1181.54 2299.79,1181.54 2299.79,1183.26 2317.45,1183.26 2317.45,1195.29 2335.1,1195.29 2335.1,1193.57 2352.76,1193.57 2352.76,1186.69 "/>
<path clip-path="url(#clip140)" d="M682.276 150.924 L1904.6 150.924 L1904.6 47.2441 L682.276 47.2441  Z" fill="#ffffff" fill-rule="evenodd" fill-opacity="1"/>
<polyline clip-path="url(#clip140)" style="stroke:#000000; stroke-linecap:round; stroke-linejoin:round; stroke-width:4; stroke-opacity:1; fill:none" points="682.276,150.924 1904.6,150.924 1904.6,47.2441 682.276,47.2441 682.276,150.924 "/>
<polyline clip-path="url(#clip140)" style="stroke:#000000; stroke-linecap:round; stroke-linejoin:round; stroke-width:8; stroke-opacity:1; fill:none" points="705.817,99.0841 847.059,99.0841 "/>
<path clip-path="url(#clip140)" d="M875.275 85.6467 L875.275 98.6327 L881.155 98.6327 Q884.419 98.6327 886.201 96.9429 Q887.983 95.2531 887.983 92.1281 Q887.983 89.0263 886.201 87.3365 Q884.419 85.6467 881.155 85.6467 L875.275 85.6467 M870.599 81.8041 L881.155 81.8041 Q886.965 81.8041 889.928 84.443 Q892.914 87.0587 892.914 92.1281 Q892.914 97.2438 889.928 99.8596 Q886.965 102.475 881.155 102.475 L875.275 102.475 L875.275 116.364 L870.599 116.364 L870.599 81.8041 Z" fill="#000000" fill-rule="nonzero" fill-opacity="1" /><path clip-path="url(#clip140)" d="M900.414 112.429 L908.053 112.429 L908.053 86.0633 L899.743 87.73 L899.743 83.4708 L908.006 81.8041 L912.682 81.8041 L912.682 112.429 L920.321 112.429 L920.321 116.364 L900.414 116.364 L900.414 112.429 Z" fill="#000000" fill-rule="nonzero" fill-opacity="1" /><polyline clip-path="url(#clip140)" style="stroke:#000000; stroke-linecap:round; stroke-linejoin:round; stroke-width:8; stroke-opacity:1; fill:none" stroke-dasharray="32, 20" points="945.574,99.0841 1086.82,99.0841 "/>
<path clip-path="url(#clip140)" d="M1115.03 85.6467 L1115.03 98.6327 L1120.91 98.6327 Q1124.18 98.6327 1125.96 96.9429 Q1127.74 95.2531 1127.74 92.1281 Q1127.74 89.0263 1125.96 87.3365 Q1124.18 85.6467 1120.91 85.6467 L1115.03 85.6467 M1110.36 81.8041 L1120.91 81.8041 Q1126.72 81.8041 1129.69 84.443 Q1132.67 87.0587 1132.67 92.1281 Q1132.67 97.2438 1129.69 99.8596 Q1126.72 102.475 1120.91 102.475 L1115.03 102.475 L1115.03 116.364 L1110.36 116.364 L1110.36 81.8041 Z" fill="#000000" fill-rule="nonzero" fill-opacity="1" /><path clip-path="url(#clip140)" d="M1143.39 112.429 L1159.71 112.429 L1159.71 116.364 L1137.76 116.364 L1137.76 112.429 Q1140.43 109.674 1145.01 105.045 Q1149.62 100.392 1150.8 99.0494 Q1153.04 96.5262 1153.92 94.7901 Q1154.82 93.0309 1154.82 91.3411 Q1154.82 88.5865 1152.88 86.8504 Q1150.96 85.1143 1147.86 85.1143 Q1145.66 85.1143 1143.2 85.8781 Q1140.77 86.642 1138 88.1929 L1138 83.4708 Q1140.82 82.3365 1143.27 81.7578 Q1145.73 81.1791 1147.76 81.1791 Q1153.13 81.1791 1156.33 83.8643 Q1159.52 86.5494 1159.52 91.0402 Q1159.52 93.1698 1158.71 95.0911 Q1157.93 96.9892 1155.82 99.5818 Q1155.24 100.253 1152.14 103.471 Q1149.04 106.665 1143.39 112.429 Z" fill="#000000" fill-rule="nonzero" fill-opacity="1" /><polyline clip-path="url(#clip140)" style="stroke:#000000; stroke-linecap:round; stroke-linejoin:round; stroke-width:8; stroke-opacity:1; fill:none" stroke-dasharray="4, 8" points="1185.33,99.0841 1326.57,99.0841 "/>
<path clip-path="url(#clip140)" d="M1354.79 85.6467 L1354.79 98.6327 L1360.67 98.6327 Q1363.93 98.6327 1365.72 96.9429 Q1367.5 95.2531 1367.5 92.1281 Q1367.5 89.0263 1365.72 87.3365 Q1363.93 85.6467 1360.67 85.6467 L1354.79 85.6467 M1350.11 81.8041 L1360.67 81.8041 Q1366.48 81.8041 1369.44 84.443 Q1372.43 87.0587 1372.43 92.1281 Q1372.43 97.2438 1369.44 99.8596 Q1366.48 102.475 1360.67 102.475 L1354.79 102.475 L1354.79 116.364 L1350.11 116.364 L1350.11 81.8041 Z" fill="#000000" fill-rule="nonzero" fill-opacity="1" /><path clip-path="url(#clip140)" d="M1393.29 97.7299 Q1396.64 98.4475 1398.52 100.716 Q1400.42 102.985 1400.42 106.318 Q1400.42 111.434 1396.9 114.234 Q1393.38 117.035 1386.9 117.035 Q1384.72 117.035 1382.41 116.596 Q1380.11 116.179 1377.66 115.322 L1377.66 110.809 Q1379.6 111.943 1381.92 112.522 Q1384.23 113.1 1386.76 113.1 Q1391.16 113.1 1393.45 111.364 Q1395.76 109.628 1395.76 106.318 Q1395.76 103.262 1393.61 101.549 Q1391.48 99.8133 1387.66 99.8133 L1383.63 99.8133 L1383.63 95.9707 L1387.85 95.9707 Q1391.29 95.9707 1393.12 94.605 Q1394.95 93.2161 1394.95 90.6235 Q1394.95 87.9615 1393.05 86.5494 Q1391.18 85.1143 1387.66 85.1143 Q1385.74 85.1143 1383.54 85.5309 Q1381.34 85.9476 1378.7 86.8272 L1378.7 82.6606 Q1381.36 81.9198 1383.68 81.5495 Q1386.02 81.1791 1388.08 81.1791 Q1393.4 81.1791 1396.5 83.6096 Q1399.6 86.017 1399.6 90.1374 Q1399.6 93.0077 1397.96 94.9985 Q1396.32 96.9661 1393.29 97.7299 Z" fill="#000000" fill-rule="nonzero" fill-opacity="1" /><polyline clip-path="url(#clip140)" style="stroke:#000000; stroke-linecap:round; stroke-linejoin:round; stroke-width:8; stroke-opacity:1; fill:none" stroke-dasharray="32, 16, 4, 16" points="1425.09,99.0841 1566.33,99.0841 "/>
<path clip-path="url(#clip140)" d="M1594.55 85.6467 L1594.55 98.6327 L1600.43 98.6327 Q1603.69 98.6327 1605.47 96.9429 Q1607.26 95.2531 1607.26 92.1281 Q1607.26 89.0263 1605.47 87.3365 Q1603.69 85.6467 1600.43 85.6467 L1594.55 85.6467 M1589.87 81.8041 L1600.43 81.8041 Q1606.24 81.8041 1609.2 84.443 Q1612.19 87.0587 1612.19 92.1281 Q1612.19 97.2438 1609.2 99.8596 Q1606.24 102.475 1600.43 102.475 L1594.55 102.475 L1594.55 116.364 L1589.87 116.364 L1589.87 81.8041 Z" fill="#000000" fill-rule="nonzero" fill-opacity="1" /><path clip-path="url(#clip140)" d="M1631.72 85.8781 L1619.92 104.327 L1631.72 104.327 L1631.72 85.8781 M1630.5 81.8041 L1636.38 81.8041 L1636.38 104.327 L1641.31 104.327 L1641.31 108.216 L1636.38 108.216 L1636.38 116.364 L1631.72 116.364 L1631.72 108.216 L1616.12 108.216 L1616.12 103.702 L1630.5 81.8041 Z" fill="#000000" fill-rule="nonzero" fill-opacity="1" /><polyline clip-path="url(#clip140)" style="stroke:#000000; stroke-linecap:round; stroke-linejoin:round; stroke-width:8; stroke-opacity:1; fill:none" stroke-dasharray="32, 16, 4, 16, 4, 16" points="1664.85,99.0841 1806.09,99.0841 "/>
<path clip-path="url(#clip140)" d="M1834.31 85.6467 L1834.31 98.6327 L1840.19 98.6327 Q1843.45 98.6327 1845.23 96.9429 Q1847.01 95.2531 1847.01 92.1281 Q1847.01 89.0263 1845.23 87.3365 Q1843.45 85.6467 1840.19 85.6467 L1834.31 85.6467 M1829.63 81.8041 L1840.19 81.8041 Q1846 81.8041 1848.96 84.443 Q1851.94 87.0587 1851.94 92.1281 Q1851.94 97.2438 1848.96 99.8596 Q1846 102.475 1840.19 102.475 L1834.31 102.475 L1834.31 116.364 L1829.63 116.364 L1829.63 81.8041 Z" fill="#000000" fill-rule="nonzero" fill-opacity="1" /><path clip-path="url(#clip140)" d="M1858.68 81.8041 L1877.04 81.8041 L1877.04 85.7393 L1862.96 85.7393 L1862.96 94.2114 Q1863.98 93.8642 1865 93.7022 Q1866.02 93.517 1867.04 93.517 Q1872.82 93.517 1876.2 96.6883 Q1879.58 99.8596 1879.58 105.276 Q1879.58 110.855 1876.11 113.957 Q1872.64 117.035 1866.32 117.035 Q1864.14 117.035 1861.87 116.665 Q1859.63 116.295 1857.22 115.554 L1857.22 110.855 Q1859.31 111.989 1861.53 112.545 Q1863.75 113.1 1866.23 113.1 Q1870.23 113.1 1872.57 110.994 Q1874.91 108.887 1874.91 105.276 Q1874.91 101.665 1872.57 99.5586 Q1870.23 97.4522 1866.23 97.4522 Q1864.35 97.4522 1862.48 97.8688 Q1860.62 98.2855 1858.68 99.1651 L1858.68 81.8041 Z" fill="#000000" fill-rule="nonzero" fill-opacity="1" /></svg>
