<?xml version="1.0" encoding="UTF-8"?>
<!DOCTYPE svg PUBLIC "-//W3C//DTD SVG 1.1//EN" "http://www.w3.org/Graphics/SVG/1.1/DTD/svg11.dtd">
<svg width="66mm" height="90mm" viewBox="0 0 6600 9000" version="1.1" xmlns="http://www.w3.org/2000/svg" xmlns:xlink="http://www.w3.org/1999/xlink" stroke-width="28.222" stroke-linejoin="round" xml:space="preserve">
 <path fill="rgb(255,255,255)" stroke="none" d="M 3321,9005 L 0,9005 0,0 6642,0 6642,9005 3321,9005 Z"/>
 <path fill="none" stroke="rgb(179,179,179)" stroke-linejoin="round" d="M 3686,6598 L 1018,6598 1018,485 6355,485 6355,6598 3686,6598 Z"/>
 <path fill="none" stroke="rgb(179,179,179)" stroke-linejoin="round" d="M 6355,6597 L 1018,6597"/>
 <path fill="none" stroke="rgb(179,179,179)" stroke-linejoin="round" d="M 6355,5374 L 1018,5374"/>
 <path fill="none" stroke="rgb(179,179,179)" stroke-linejoin="round" d="M 6355,4152 L 1018,4152"/>
 <path fill="none" stroke="rgb(179,179,179)" stroke-linejoin="round" d="M 6355,2929 L 1018,2929"/>
 <path fill="none" stroke="rgb(179,179,179)" stroke-linejoin="round" d="M 6355,1706 L 1018,1706"/>
 <path fill="none" stroke="rgb(179,179,179)" stroke-linejoin="round" d="M 6355,483 L 1018,483"/>
 <path fill="none" stroke="rgb(179,179,179)" stroke-linejoin="round" d="M 1018,6747 L 1018,6597"/>
 <path fill="none" stroke="rgb(179,179,179)" stroke-linejoin="round" d="M 1018,6747 L 1018,6597"/>
 <path fill="none" stroke="rgb(179,179,179)" stroke-linejoin="round" d="M 3452,6747 L 3452,6597"/>
 <path fill="none" stroke="rgb(179,179,179)" stroke-linejoin="round" d="M 3452,6747 L 3452,6597"/>
 <path fill="none" stroke="rgb(179,179,179)" stroke-linejoin="round" d="M 5887,6747 L 5887,6597"/>
 <path fill="none" stroke="rgb(179,179,179)" stroke-linejoin="round" d="M 5887,6747 L 5887,6597"/>
 <path fill="none" stroke="rgb(179,179,179)" stroke-linejoin="round" d="M 1018,6597 L 6355,6597"/>
 <path fill="none" stroke="rgb(179,179,179)" stroke-linejoin="round" d="M 868,6597 L 1018,6597"/>
 <path fill="none" stroke="rgb(179,179,179)" stroke-linejoin="round" d="M 868,6597 L 1018,6597"/>
 <path fill="none" stroke="rgb(179,179,179)" stroke-linejoin="round" d="M 868,5374 L 1018,5374"/>
 <path fill="none" stroke="rgb(179,179,179)" stroke-linejoin="round" d="M 868,5374 L 1018,5374"/>
 <path fill="none" stroke="rgb(179,179,179)" stroke-linejoin="round" d="M 868,4152 L 1018,4152"/>
 <path fill="none" stroke="rgb(179,179,179)" stroke-linejoin="round" d="M 868,4152 L 1018,4152"/>
 <path fill="none" stroke="rgb(179,179,179)" stroke-linejoin="round" d="M 868,2929 L 1018,2929"/>
 <path fill="none" stroke="rgb(179,179,179)" stroke-linejoin="round" d="M 868,2929 L 1018,2929"/>
 <path fill="none" stroke="rgb(179,179,179)" stroke-linejoin="round" d="M 868,1706 L 1018,1706"/>
 <path fill="none" stroke="rgb(179,179,179)" stroke-linejoin="round" d="M 868,1706 L 1018,1706"/>
 <path fill="none" stroke="rgb(179,179,179)" stroke-linejoin="round" d="M 868,483 L 1018,483"/>
 <path fill="none" stroke="rgb(179,179,179)" stroke-linejoin="round" d="M 868,483 L 1018,483"/>
 <path fill="none" stroke="rgb(179,179,179)" stroke-linejoin="round" d="M 1018,6597 L 1018,483"/>
 <path fill="none" stroke="rgb(255,211,32)" stroke-width="80" stroke-linejoin="round" d="M 1018,3223 L 1033,3223 1049,3223 1064,3223 1080,3223 1087,3223 1102,3223 1118,3223 1132,3223 1147,3223 1161,3223 1168,3223 1182,3223 1196,3223 1210,3223 1223,3223 1243,3223 1257,3223 1270,3223 1284,3223 1298,3223 1312,3223 1319,3223 1334,3223 1349,3223 1364,3223 1379,3223 1387,3223 1402,3223 1418,3223 1433,3223 1448,3223 1456,3223 1471,3223 1486,3223 1500,3223 1515,3223 1529,3223 1544,3223 1558,3223 1565,3223 1580,3223 1595,3223 1609,3223 1624,3223 1639,3223 1655,3223 1662,3223 1677,3223 1693,3223 1708,3223 1723,3223 1730,3223 1745,3223 1760,3223 1775,3223 1790,3223 1804,3223 1812,3223 1826,3223 1841,3223 1855,3223 1870,3223 1884,3223 1899,3223 1914,3223 1921,3223 1936,3223 1951,3223 1966,3223 1981,3223 1997,3223 2004,3223 2019,3223 2035,3223 2050,3223 2065,3222 2073,3222 2088,3222 2103,3222 2119,3222 2126,3222 2141,3222 2156,3222 2171,3222 2186,3222 2201,3223 2208,3223 2223,3223 2238,3224 2252,3224 2267,3225 2281,3225 2296,3225 2310,3225 2325,3224 2332,3224 2347,3223 2362,3221 2377,3219 2392,3217 2407,3215 2415,3214 2430,3213 2445,3213 2461,3214 2476,3216 2483,3218 2498,3223 2513,3229 2528,3237 2542,3244 2557,3251 2571,3256 2579,3258 2593,3259 2608,3255 2622,3247 2630,3240 2637,3232 2644,3223 2652,3211 2659,3198 2666,3183 2674,3167 2681,3150 2689,3131 2696,3112 2704,3092 2711,3072 2719,3051 2726,3030 2734,3009 2742,2988 2749,2967 2757,2946 2765,2926 2772,2907 2780,2889 2788,2872 2795,2856 2803,2841 2811,2828 2818,2815 2826,2804 2841,2785 2849,2777 2857,2769 2864,2762 2872,2756 2879,2751 2895,2740 2902,2736 2910,2731 2924,2723 2939,2714 2946,2709 2953,2704 2968,2693 2982,2681 2989,2675 2996,2668 3003,2662 3010,2655 3017,2649 3024,2642 3031,2636 3038,2629 3045,2622 3052,2616 3059,2610 3066,2604 3073,2598 3080,2592 3087,2587 3102,2577 3117,2568 3125,2563 3132,2559 3140,2556 3147,2552 3155,2548 3170,2542 3178,2538 3185,2535 3201,2529 3208,2526 3223,2520 3238,2513 3246,2510 3253,2507 3268,2500 3275,2496 3283,2493 3290,2489 3297,2485 3304,2482 3319,2474 3325,2470 3332,2467 3347,2459 3361,2451 3376,2444 3391,2436 3398,2433 3413,2425 3429,2418 3444,2411 3459,2404 3467,2400 3482,2393 3497,2385 3512,2378 3527,2370 3535,2367 3542,2363 3549,2359 3564,2351 3579,2343 3586,2339 3593,2335 3608,2328 3615,2324 3622,2320 3637,2313 3651,2306 3659,2303 3666,2299 3673,2296 3688,2290 3703,2285 3718,2280 3733,2275 3740,2273 3755,2269 3771,2264 3786,2260 3801,2255 3809,2252 3824,2247 3839,2241 3855,2235 3862,2232 3870,2229 3877,2225 3893,2218 3908,2211 3915,2207 3923,2203 3938,2195 3945,2191 3953,2187 3960,2183 3968,2179 3975,2175 3990,2167 4005,2159 4019,2151 4034,2143 4041,2139 4048,2135 4055,2131 4063,2127 4070,2124 4085,2117 4092,2113 4099,2110 4114,2104 4121,2101 4129,2098 4144,2092 4151,2090 4159,2087 4166,2085 4181,2080 4197,2075 4204,2073 4212,2071 4219,2069 4235,2064 4242,2062 4250,2059 4265,2054 4280,2049 4287,2046 4295,2043 4302,2040 4317,2033 4331,2026 4346,2019 4360,2011 4368,2007 4375,2004 4389,1996 4397,1992 4404,1988 4411,1983 4418,1979 4426,1975 4441,1967 4455,1959 4463,1955 4470,1951 4485,1943 4493,1939 4500,1935 4508,1932 4516,1928 4523,1924 4538,1917 4546,1914 4554,1911 4569,1905 4577,1902 4592,1897 4608,1892 4623,1887 4631,1885 4646,1880 4662,1876 4669,1874 4677,1872 4692,1867 4699,1864 4706,1862 4713,1859 4728,1853 4742,1847 4755,1839 4762,1836 4769,1832 4782,1824 4789,1820 4796,1816 4809,1808 4823,1801 4836,1793 4850,1786 4857,1783 4864,1780 4879,1774 4893,1768 4908,1763 4923,1759 4931,1757 4946,1752 4962,1748 4977,1743 4992,1739 5000,1736 5015,1731 5023,1728 5030,1725 5045,1719 5052,1715 5059,1712 5074,1705 5081,1701 5088,1697 5096,1694 5103,1690 5110,1686 5125,1678 5132,1674 5139,1670 5154,1661 5169,1653 5176,1649 5184,1645 5191,1641 5199,1637 5206,1633 5221,1625 5229,1621 5237,1618 5252,1610 5267,1603 5275,1600 5282,1596 5290,1593 5305,1587 5312,1584 5320,1581 5334,1576 5342,1573 5356,1569 5371,1564 5385,1560 5393,1557 5400,1555 5414,1550 5429,1546 5436,1543 5444,1541 5458,1535 5466,1532 5473,1529 5481,1526 5495,1519 5503,1516 5511,1512 5526,1505 5533,1501 5541,1498 5548,1494 5556,1490 5564,1486 5579,1478 5594,1470 5609,1462 5617,1458 5632,1450 5647,1441 5655,1437 5663,1434 5670,1430 5685,1422 5701,1415 5708,1411 5716,1407 5731,1401 5738,1397 5746,1394 5753,1391 5768,1386 5775,1383 5782,1380 5797,1375 5811,1371 5826,1366 5840,1362 5855,1357 5862,1355 5877,1350 5892,1345 5906,1339 5921,1333 5929,1330 5936,1327 5944,1324 5959,1317 5974,1309 5982,1306 5990,1302 6005,1294 6012,1290 6020,1286 6027,1282 6035,1278 6042,1274 6057,1266 6065,1262 6072,1258 6087,1250 6102,1242 6109,1238 6123,1231 6138,1223 6152,1216 6160,1212 6167,1209 6182,1202 6189,1199 6196,1196 6211,1190 6218,1187 6226,1184 6233,1181 6248,1176 6263,1171 6278,1166 6294,1161 6301,1159 6316,1155 6332,1150 6347,1146 6355,1144"/>
 <path fill="none" stroke="rgb(255,66,14)" stroke-width="80" stroke-linejoin="round" d="M 1018,3223 L 1033,3223 1049,3223 1064,3223 1080,3223 1087,3223 1102,3223 1118,3223 1132,3223 1147,3223 1161,3223 1168,3223 1182,3223 1196,3223 1210,3223 1223,3223 1243,3223 1257,3223 1270,3223 1284,3223 1298,3223 1312,3223 1319,3223 1334,3223 1349,3223 1364,3223 1379,3223 1387,3223 1402,3223 1418,3223 1433,3223 1448,3223 1456,3223 1471,3223 1486,3223 1500,3223 1515,3223 1529,3223 1544,3223 1558,3223 1565,3223 1580,3223 1595,3223 1609,3223 1624,3223 1639,3223 1655,3223 1662,3223 1677,3223 1693,3223 1708,3223 1723,3223 1730,3223 1745,3223 1760,3223 1775,3223 1790,3223 1804,3223 1812,3223 1826,3223 1841,3223 1855,3223 1870,3223 1884,3223 1899,3223 1914,3223 1921,3223 1936,3223 1951,3223 1966,3222 1981,3222 1997,3222 2004,3222 2019,3223 2035,3223 2050,3223 2065,3223 2073,3223 2088,3223 2103,3223 2119,3223 2126,3223 2141,3223 2156,3223 2171,3223 2186,3223 2201,3223 2208,3222 2223,3222 2238,3222 2252,3222 2267,3222 2281,3221 2296,3221 2310,3221 2325,3222 2332,3222 2347,3223 2362,3223 2377,3224 2392,3225 2407,3226 2415,3226 2430,3227 2445,3227 2461,3227 2476,3226 2483,3225 2498,3223 2513,3220 2528,3216 2535,3214 2542,3213 2557,3209 2571,3207 2579,3206 2593,3206 2608,3208 2622,3211 2637,3218 2652,3228 2659,3234 2666,3241 2674,3248 2681,3256 2689,3265 2696,3273 2704,3283 2719,3302 2726,3312 2734,3322 2742,3331 2749,3341 2757,3351 2772,3369 2780,3378 2788,3386 2795,3394 2803,3401 2811,3407 2826,3419 2841,3429 2857,3437 2872,3444 2879,3447 2895,3452 2902,3454 2910,3457 2924,3461 2939,3465 2953,3469 2968,3474 2982,3478 2989,3481 2996,3483 3003,3486 3017,3491 3031,3496 3045,3501 3059,3506 3066,3508 3073,3511 3087,3516 3102,3521 3117,3526 3132,3531 3140,3533 3147,3536 3155,3538 3170,3543 3185,3548 3201,3552 3208,3555 3223,3560 3231,3562 3238,3565 3253,3570 3268,3575 3283,3581 3290,3583 3304,3589 3319,3594 3332,3599 3340,3601 3347,3603 3361,3608 3376,3612 3384,3614 3391,3616 3398,3617 3413,3621 3429,3624 3444,3626 3451,3628 3459,3629 3467,3630 3482,3632 3497,3634 3512,3636 3527,3637 3542,3639 3549,3640 3564,3642 3579,3644 3593,3645 3608,3648 3622,3650 3637,3653 3644,3654 3651,3656 3659,3657 3673,3661 3688,3665 3695,3667 3703,3669 3718,3674 3733,3679 3740,3682 3755,3687 3771,3693 3778,3695 3786,3698 3801,3703 3809,3705 3816,3707 3824,3710 3839,3714 3855,3717 3870,3720 3877,3721 3893,3724 3908,3726 3923,3728 3938,3730 3953,3732 3960,3733 3975,3735 3990,3737 4005,3740 4019,3742 4034,3745 4048,3747 4055,3748 4070,3751 4085,3754 4099,3756 4114,3758 4121,3760 4129,3761 4144,3763 4151,3764 4166,3766 4181,3768 4197,3770 4212,3772 4219,3773 4235,3775 4250,3778 4265,3781 4280,3785 4287,3787 4295,3789 4302,3792 4317,3796 4331,3801 4346,3807 4360,3812 4368,3815 4375,3817 4389,3822 4404,3827 4411,3830 4426,3834 4441,3838 4448,3840 4455,3841 4470,3844 4485,3847 4500,3849 4508,3850 4523,3852 4538,3854 4554,3856 4569,3858 4577,3858 4592,3860 4608,3862 4623,3864 4631,3864 4639,3865 4646,3866 4662,3869 4677,3871 4692,3874 4699,3876 4713,3879 4728,3883 4742,3887 4755,3892 4762,3894 4769,3897 4782,3902 4796,3907 4809,3913 4823,3918 4829,3920 4836,3923 4850,3927 4864,3932 4879,3936 4893,3939 4908,3942 4923,3945 4931,3946 4946,3948 4962,3950 4977,3952 4992,3954 5000,3955 5015,3956 5030,3958 5037,3959 5045,3960 5059,3961 5074,3963 5088,3965 5096,3967 5110,3969 5125,3972 5139,3975 5154,3979 5169,3983 5176,3985 5184,3987 5191,3990 5206,3995 5221,4000 5237,4005 5252,4011 5259,4013 5267,4016 5275,4018 5290,4023 5297,4025 5305,4028 5320,4032 5334,4035 5342,4037 5349,4038 5356,4039 5371,4042 5385,4044 5400,4046 5414,4048 5429,4050 5444,4052 5458,4054 5466,4055 5481,4057 5495,4060 5511,4062 5526,4065 5541,4068 5548,4069 5564,4071 5579,4074 5594,4076 5609,4079 5617,4080 5632,4082 5647,4084 5663,4085 5670,4086 5685,4089 5701,4091 5708,4092 5716,4093 5731,4096 5746,4099 5753,4101 5768,4105 5782,4109 5797,4114 5811,4119 5826,4125 5840,4130 5848,4133 5855,4135 5862,4138 5877,4143 5884,4145 5892,4148 5906,4152 5921,4156 5929,4157 5936,4159 5944,4161 5959,4163 5974,4166 5990,4168 6005,4170 6012,4171 6020,4172 6027,4173 6042,4175 6057,4176 6072,4178 6087,4180 6102,4182 6109,4183 6116,4184 6123,4185 6138,4187 6152,4190 6167,4193 6182,4196 6189,4197 6196,4199 6211,4203 6218,4205 6233,4209 6241,4211 6248,4213 6263,4218 6278,4223 6286,4226 6294,4228 6301,4231 6316,4236 6324,4239 6332,4242 6347,4247 6355,4250"/>
 <path fill="none" stroke="rgb(0,69,134)" stroke-width="80" stroke-linejoin="round" d="M 1018,3223 L 1033,3223 1049,3223 1064,3223 1080,3223 1087,3223 1102,3223 1118,3223 1132,3223 1147,3223 1161,3223 1168,3223 1182,3223 1196,3223 1210,3223 1223,3223 1243,3223 1257,3223 1270,3223 1284,3223 1298,3223 1312,3223 1319,3223 1334,3223 1349,3223 1364,3223 1379,3223 1387,3223 1402,3223 1418,3223 1433,3223 1448,3223 1456,3223 1471,3223 1486,3223 1500,3223 1515,3223 1529,3223 1544,3223 1558,3223 1565,3223 1580,3223 1595,3223 1609,3223 1624,3223 1639,3223 1655,3223 1662,3223 1677,3223 1693,3223 1708,3223 1723,3223 1730,3223 1745,3223 1760,3223 1775,3223 1790,3223 1804,3223 1812,3223 1826,3223 1841,3223 1855,3223 1870,3223 1884,3223 1899,3223 1914,3223 1921,3223 1936,3223 1951,3223 1966,3223 1981,3223 1997,3223 2004,3223 2019,3223 2035,3223 2050,3223 2065,3223 2073,3223 2088,3223 2103,3223 2119,3223 2126,3223 2141,3223 2156,3223 2171,3223 2186,3223 2201,3223 2208,3223 2223,3223 2238,3223 2252,3223 2267,3223 2281,3223 2296,3223 2310,3223 2325,3223 2332,3223 2347,3223 2362,3223 2377,3223 2392,3223 2407,3223 2415,3223 2430,3223 2445,3223 2461,3223 2476,3223 2483,3223 2498,3223 2513,3223 2528,3223 2542,3223 2557,3223 2571,3223 2579,3223 2593,3223 2608,3223 2622,3223 2637,3223 2652,3223 2666,3223 2674,3223 2689,3223 2704,3223 2719,3223 2734,3223 2749,3223 2757,3223 2772,3223 2788,3223 2803,3223 2811,3223 2826,3223 2841,3223 2857,3223 2872,3223 2879,3223 2895,3223 2910,3223 2924,3223 2939,3223 2953,3223 2968,3223 2982,3223 2989,3223 3003,3223 3017,3223 3031,3223 3045,3223 3059,3223 3073,3223 3087,3223 3102,3223 3117,3223 3132,3223 3140,3223 3155,3223 3170,3223 3185,3223 3201,3223 3208,3223 3223,3223 3238,3223 3253,3223 3268,3223 3283,3223 3290,3223 3304,3223 3319,3223 3332,3223 3347,3223 3361,3223 3376,3223 3391,3223 3398,3223 3413,3223 3429,3223 3444,3223 3459,3223 3467,3223 3482,3223 3497,3223 3512,3223 3527,3223 3542,3223 3549,3223 3564,3223 3579,3223 3593,3223 3608,3223 3622,3223 3637,3223 3651,3223 3659,3223 3673,3223 3688,3223 3703,3223 3718,3223 3733,3223 3740,3223 3755,3223 3771,3223 3786,3223 3801,3223 3809,3223 3824,3223 3839,3223 3855,3223 3870,3223 3877,3223 3893,3223 3908,3223 3923,3223 3938,3223 3953,3223 3960,3223 3975,3223 3990,3223 4005,3223 4019,3223 4034,3223 4048,3223 4055,3223 4070,3223 4085,3223 4099,3223 4114,3223 4129,3223 4144,3223 4151,3223 4166,3223 4181,3223 4197,3223 4212,3223 4219,3223 4235,3223 4250,3223 4265,3223 4280,3223 4295,3223 4302,3223 4317,3223 4331,3223 4346,3223 4360,3223 4375,3223 4389,3223 4404,3223 4411,3223 4426,3223 4441,3222 4455,3222 4470,3222 4485,3222 4500,3222 4508,3222 4523,3222 4538,3222 4554,3222 4569,3222 4577,3223 4592,3223 4608,3224 4623,3224 4631,3224 4646,3225 4662,3225 4677,3225 4692,3225 4699,3225 4713,3224 4728,3223 4742,3221 4755,3219 4769,3216 4776,3215 4782,3213 4796,3210 4809,3207 4823,3205 4836,3202 4850,3200 4864,3198 4879,3197 4893,3196 4908,3196 4923,3195 4931,3196 4946,3196 4962,3196 4977,3197 4992,3197 5000,3198 5015,3198 5030,3198 5045,3199 5059,3199 5074,3199 5088,3199 5096,3199 5110,3199 5125,3198 5139,3198 5154,3198 5169,3198 5184,3198 5191,3198 5206,3198 5221,3198 5237,3198 5252,3198 5267,3198 5275,3198 5290,3198 5305,3198 5320,3198 5334,3198 5342,3198 5356,3198 5371,3198 5385,3198 5400,3198 5414,3198 5429,3198 5444,3198 5458,3198 5466,3198 5481,3198 5495,3198 5511,3198 5526,3198 5541,3198 5548,3198 5564,3198 5579,3198 5594,3198 5609,3198 5617,3198 5632,3198 5647,3198 5663,3198 5670,3198 5685,3198 5701,3198 5716,3198 5731,3198 5746,3198 5753,3198 5768,3198 5782,3198 5797,3198 5811,3198 5826,3198 5840,3198 5855,3198 5862,3198 5877,3198 5892,3198 5906,3198 5921,3198 5936,3198 5944,3198 5959,3198 5974,3198 5990,3198 6005,3198 6020,3198 6027,3198 6042,3198 6057,3198 6072,3198 6087,3198 6102,3198 6109,3198 6123,3198 6138,3198 6152,3198 6167,3198 6182,3198 6196,3198 6211,3198 6218,3198 6233,3198 6248,3198 6263,3198 6278,3198 6294,3198 6301,3198 6316,3198 6332,3198 6347,3198 6355,3198"/>
 <text class="TextShape"><tspan class="TextParagraph" font-family="Liberation Sans, sans-serif" font-size="564px" font-weight="400"><tspan class="TextPosition" x="383" y="7350"><tspan fill="rgb(0,0,0)" stroke="none">2007</tspan></tspan></tspan></text>
 <text class="TextShape"><tspan class="TextParagraph" font-family="Liberation Sans, sans-serif" font-size="564px" font-weight="400"><tspan class="TextPosition" x="2818" y="7350"><tspan fill="rgb(0,0,0)" stroke="none">2008</tspan></tspan></tspan></text>
 <text class="TextShape"><tspan class="TextParagraph" font-family="Liberation Sans, sans-serif" font-size="564px" font-weight="400"><tspan class="TextPosition" x="5253" y="7350"><tspan fill="rgb(0,0,0)" stroke="none">2009</tspan></tspan></tspan></text>
 <text class="TextShape"><tspan class="TextParagraph" font-family="Liberation Sans, sans-serif" font-size="564px" font-weight="400"><tspan class="TextPosition" x="450" y="6797"><tspan fill="rgb(0,0,0)" stroke="none">0</tspan></tspan></tspan></text>
 <text class="TextShape"><tspan class="TextParagraph" font-family="Liberation Sans, sans-serif" font-size="564px" font-weight="400"><tspan class="TextPosition" x="450" y="5574"><tspan fill="rgb(0,0,0)" stroke="none">5</tspan></tspan></tspan></text>
 <text class="TextShape"><tspan class="TextParagraph" font-family="Liberation Sans, sans-serif" font-size="564px" font-weight="400"><tspan class="TextPosition" x="133" y="4351"><tspan fill="rgb(0,0,0)" stroke="none">10</tspan></tspan></tspan></text>
 <text class="TextShape"><tspan class="TextParagraph" font-family="Liberation Sans, sans-serif" font-size="564px" font-weight="400"><tspan class="TextPosition" x="133" y="3128"><tspan fill="rgb(0,0,0)" stroke="none">15</tspan></tspan></tspan></text>
 <text class="TextShape"><tspan class="TextParagraph" font-family="Liberation Sans, sans-serif" font-size="564px" font-weight="400"><tspan class="TextPosition" x="133" y="1905"><tspan fill="rgb(0,0,0)" stroke="none">20</tspan></tspan></tspan></text>
 <text class="TextShape"><tspan class="TextParagraph" font-family="Liberation Sans, sans-serif" font-size="564px" font-weight="400"><tspan class="TextPosition" x="133" y="682"><tspan fill="rgb(0,0,0)" stroke="none">25</tspan></tspan></tspan></text>
 <text class="TextShape"><tspan class="TextParagraph" font-family="Liberation Sans, sans-serif" font-size="564px" font-weight="400"><tspan class="TextPosition" x="2580" y="8311"><tspan fill="rgb(0,0,0)" stroke="none">Years</tspan></tspan></tspan></text>
</svg>