<?xml version="1.0" encoding="UTF-8"?>
<!DOCTYPE svg PUBLIC "-//W3C//DTD SVG 1.1//EN" "http://www.w3.org/Graphics/SVG/1.1/DTD/svg11.dtd">
<svg width="72mm" height="90mm" viewBox="0 0 7200 9000" version="1.1" xmlns="http://www.w3.org/2000/svg" xmlns:xlink="http://www.w3.org/1999/xlink" stroke-width="28.222" stroke-linejoin="round" xml:space="preserve">
 <path fill="rgb(255,255,255)" stroke="none" d="M 3599,8999 L 0,8999 0,0 7198,0 7198,8999 3599,8999 Z"/>
 <path fill="none" stroke="rgb(179,179,179)" stroke-linejoin="round" d="M 3987,6592 L 1029,6592 1029,485 6946,485 6946,6592 3987,6592 Z"/>
 <path fill="none" stroke="rgb(179,179,179)" stroke-linejoin="round" d="M 6946,6591 L 1029,6591"/>
 <path fill="none" stroke="rgb(179,179,179)" stroke-linejoin="round" d="M 6946,5369 L 1029,5369"/>
 <path fill="none" stroke="rgb(179,179,179)" stroke-linejoin="round" d="M 6946,4148 L 1029,4148"/>
 <path fill="none" stroke="rgb(179,179,179)" stroke-linejoin="round" d="M 6946,2927 L 1029,2927"/>
 <path fill="none" stroke="rgb(179,179,179)" stroke-linejoin="round" d="M 6946,1705 L 1029,1705"/>
 <path fill="none" stroke="rgb(179,179,179)" stroke-linejoin="round" d="M 6946,484 L 1029,484"/>
 <path fill="none" stroke="rgb(179,179,179)" stroke-linejoin="round" d="M 1029,6741 L 1029,6591"/>
 <path fill="none" stroke="rgb(179,179,179)" stroke-linejoin="round" d="M 1029,6741 L 1029,6591"/>
 <path fill="none" stroke="rgb(179,179,179)" stroke-linejoin="round" d="M 3727,6741 L 3727,6591"/>
 <path fill="none" stroke="rgb(179,179,179)" stroke-linejoin="round" d="M 3727,6741 L 3727,6591"/>
 <path fill="none" stroke="rgb(179,179,179)" stroke-linejoin="round" d="M 6427,6741 L 6427,6591"/>
 <path fill="none" stroke="rgb(179,179,179)" stroke-linejoin="round" d="M 6427,6741 L 6427,6591"/>
 <path fill="none" stroke="rgb(179,179,179)" stroke-linejoin="round" d="M 1029,6591 L 6946,6591"/>
 <path fill="none" stroke="rgb(179,179,179)" stroke-linejoin="round" d="M 879,6591 L 1029,6591"/>
 <path fill="none" stroke="rgb(179,179,179)" stroke-linejoin="round" d="M 879,6591 L 1029,6591"/>
 <path fill="none" stroke="rgb(179,179,179)" stroke-linejoin="round" d="M 879,5369 L 1029,5369"/>
 <path fill="none" stroke="rgb(179,179,179)" stroke-linejoin="round" d="M 879,5369 L 1029,5369"/>
 <path fill="none" stroke="rgb(179,179,179)" stroke-linejoin="round" d="M 879,4148 L 1029,4148"/>
 <path fill="none" stroke="rgb(179,179,179)" stroke-linejoin="round" d="M 879,4148 L 1029,4148"/>
 <path fill="none" stroke="rgb(179,179,179)" stroke-linejoin="round" d="M 879,2927 L 1029,2927"/>
 <path fill="none" stroke="rgb(179,179,179)" stroke-linejoin="round" d="M 879,2927 L 1029,2927"/>
 <path fill="none" stroke="rgb(179,179,179)" stroke-linejoin="round" d="M 879,1705 L 1029,1705"/>
 <path fill="none" stroke="rgb(179,179,179)" stroke-linejoin="round" d="M 879,1705 L 1029,1705"/>
 <path fill="none" stroke="rgb(179,179,179)" stroke-linejoin="round" d="M 879,484 L 1029,484"/>
 <path fill="none" stroke="rgb(179,179,179)" stroke-linejoin="round" d="M 879,484 L 1029,484"/>
 <path fill="none" stroke="rgb(179,179,179)" stroke-linejoin="round" d="M 1029,6591 L 1029,484"/>
 <path fill="none" stroke="rgb(255,211,32)" stroke-width="80" stroke-linejoin="round" d="M 1029,2902 L 1196,2902 1347,2902 1514,2902 1676,2902 1844,2902 2006,2902 2173,2902 2341,2902 2503,2902 2670,2902 2832,2902 2999,2462 3167,2218 3323,2072 3491,1974 3652,1876 3819,1803 3981,1754 4148,1705 4316,1681 4478,1632 4645,1607 4807,1583 4975,1583 5142,1559 5293,1534 5461,1534 5623,1510 5790,1510 5952,1510 6119,1510 6287,1485 6449,1485 6616,1485 6778,1485 6946,1485"/>
 <path fill="none" stroke="rgb(255,66,14)" stroke-width="80" stroke-linejoin="round" d="M 1029,2902 L 1196,2902 1347,2902 1514,2902 1676,2902 1844,2902 2006,2902 2173,2902 2341,2902 2503,2902 2670,2902 2832,2902 2999,3147 3167,3244 3323,3342 3491,3391 3652,3440 3819,3464 3981,3489 4148,3513 4316,3538 4478,3562 4645,3562 4807,3586 4975,3586 5142,3611 5293,3611 5461,3611 5623,3611 5790,3635 5952,3635 6119,3635 6287,3635 6449,3635 6616,3635 6778,3635 6946,3660"/>
 <path fill="none" stroke="rgb(0,69,134)" stroke-width="80" stroke-linejoin="round" d="M 1029,2902 L 1196,2902 1347,2902 1514,2902 1676,2902 1844,2902 2006,2902 2173,2902 2341,2902 2503,2902 2670,2902 2832,2902 2999,2902 3167,2902 3323,2902 3491,2902 3652,2927 3819,2927 3981,2927 4148,2927 4316,2927 4478,2927 4645,2927 4807,2927 4975,2927 5142,2927 5293,2927 5461,2927 5623,2927 5790,2927 5952,2927 6119,2927 6287,2927 6449,2927 6616,2927 6778,2927 6946,2927"/>
 <text class="TextShape"><tspan class="TextParagraph" font-family="Liberation Sans, sans-serif" font-size="564px" font-weight="400"><tspan class="TextPosition" x="394" y="7344"><tspan fill="rgb(0,0,0)" stroke="none">2007</tspan></tspan></tspan></text>
 <text class="TextShape"><tspan class="TextParagraph" font-family="Liberation Sans, sans-serif" font-size="564px" font-weight="400"><tspan class="TextPosition" x="3093" y="7344"><tspan fill="rgb(0,0,0)" stroke="none">2008</tspan></tspan></tspan></text>
 <text class="TextShape"><tspan class="TextParagraph" font-family="Liberation Sans, sans-serif" font-size="564px" font-weight="400"><tspan class="TextPosition" x="5793" y="7344"><tspan fill="rgb(0,0,0)" stroke="none">2009</tspan></tspan></tspan></text>
 <text class="TextShape"><tspan class="TextParagraph" font-family="Liberation Sans, sans-serif" font-size="564px" font-weight="400"><tspan class="TextPosition" x="461" y="6791"><tspan fill="rgb(0,0,0)" stroke="none">0</tspan></tspan></tspan></text>
 <text class="TextShape"><tspan class="TextParagraph" font-family="Liberation Sans, sans-serif" font-size="564px" font-weight="400"><tspan class="TextPosition" x="461" y="5569"><tspan fill="rgb(0,0,0)" stroke="none">5</tspan></tspan></tspan></text>
 <text class="TextShape"><tspan class="TextParagraph" font-family="Liberation Sans, sans-serif" font-size="564px" font-weight="400"><tspan class="TextPosition" x="144" y="4347"><tspan fill="rgb(0,0,0)" stroke="none">10</tspan></tspan></tspan></text>
 <text class="TextShape"><tspan class="TextParagraph" font-family="Liberation Sans, sans-serif" font-size="564px" font-weight="400"><tspan class="TextPosition" x="144" y="3126"><tspan fill="rgb(0,0,0)" stroke="none">15</tspan></tspan></tspan></text>
 <text class="TextShape"><tspan class="TextParagraph" font-family="Liberation Sans, sans-serif" font-size="564px" font-weight="400"><tspan class="TextPosition" x="144" y="1904"><tspan fill="rgb(0,0,0)" stroke="none">20</tspan></tspan></tspan></text>
 <text class="TextShape"><tspan class="TextParagraph" font-family="Liberation Sans, sans-serif" font-size="564px" font-weight="400"><tspan class="TextPosition" x="144" y="683"><tspan fill="rgb(0,0,0)" stroke="none">25</tspan></tspan></tspan></text>
 <text class="TextShape"><tspan class="TextParagraph" font-family="Liberation Sans, sans-serif" font-size="564px" font-weight="400"><tspan class="TextPosition" x="2858" y="8305"><tspan fill="rgb(0,0,0)" stroke="none">Years</tspan></tspan></tspan></text>
</svg>