<?xml version="1.0" encoding="UTF-8"?>
<!DOCTYPE svg PUBLIC "-//W3C//DTD SVG 1.1//EN" "http://www.w3.org/Graphics/SVG/1.1/DTD/svg11.dtd">
<svg width="79mm" height="90mm" viewBox="0 0 7900 9000" version="1.1" xmlns="http://www.w3.org/2000/svg" xmlns:xlink="http://www.w3.org/1999/xlink" stroke-width="28.222" stroke-linejoin="round" xml:space="preserve">
 <path fill="rgb(255,255,255)" stroke="none" d="M 3965,9005 L 0,9005 0,0 7930,0 7930,9005 3965,9005 Z"/>
 <path fill="none" stroke="rgb(179,179,179)" stroke-linejoin="round" d="M 5022,6598 L 2442,6598 2442,485 7602,485 7602,6598 5022,6598 Z"/>
 <path fill="none" stroke="rgb(179,179,179)" stroke-linejoin="round" d="M 7602,6597 L 2442,6597"/>
 <path fill="none" stroke="rgb(179,179,179)" stroke-linejoin="round" d="M 7602,5374 L 2442,5374"/>
 <path fill="none" stroke="rgb(179,179,179)" stroke-linejoin="round" d="M 7602,4152 L 2442,4152"/>
 <path fill="none" stroke="rgb(179,179,179)" stroke-linejoin="round" d="M 7602,2929 L 2442,2929"/>
 <path fill="none" stroke="rgb(179,179,179)" stroke-linejoin="round" d="M 7602,1706 L 2442,1706"/>
 <path fill="none" stroke="rgb(179,179,179)" stroke-linejoin="round" d="M 7602,483 L 2442,483"/>
 <path fill="none" stroke="rgb(179,179,179)" stroke-linejoin="round" d="M 2442,6747 L 2442,6597"/>
 <path fill="none" stroke="rgb(179,179,179)" stroke-linejoin="round" d="M 2442,6747 L 2442,6597"/>
 <path fill="none" stroke="rgb(179,179,179)" stroke-linejoin="round" d="M 4795,6747 L 4795,6597"/>
 <path fill="none" stroke="rgb(179,179,179)" stroke-linejoin="round" d="M 4795,6747 L 4795,6597"/>
 <path fill="none" stroke="rgb(179,179,179)" stroke-linejoin="round" d="M 7149,6747 L 7149,6597"/>
 <path fill="none" stroke="rgb(179,179,179)" stroke-linejoin="round" d="M 7149,6747 L 7149,6597"/>
 <path fill="none" stroke="rgb(179,179,179)" stroke-linejoin="round" d="M 2442,6597 L 7602,6597"/>
 <path fill="none" stroke="rgb(179,179,179)" stroke-linejoin="round" d="M 2292,6597 L 2442,6597"/>
 <path fill="none" stroke="rgb(179,179,179)" stroke-linejoin="round" d="M 2292,6597 L 2442,6597"/>
 <path fill="none" stroke="rgb(179,179,179)" stroke-linejoin="round" d="M 2292,5374 L 2442,5374"/>
 <path fill="none" stroke="rgb(179,179,179)" stroke-linejoin="round" d="M 2292,5374 L 2442,5374"/>
 <path fill="none" stroke="rgb(179,179,179)" stroke-linejoin="round" d="M 2292,4152 L 2442,4152"/>
 <path fill="none" stroke="rgb(179,179,179)" stroke-linejoin="round" d="M 2292,4152 L 2442,4152"/>
 <path fill="none" stroke="rgb(179,179,179)" stroke-linejoin="round" d="M 2292,2929 L 2442,2929"/>
 <path fill="none" stroke="rgb(179,179,179)" stroke-linejoin="round" d="M 2292,2929 L 2442,2929"/>
 <path fill="none" stroke="rgb(179,179,179)" stroke-linejoin="round" d="M 2292,1706 L 2442,1706"/>
 <path fill="none" stroke="rgb(179,179,179)" stroke-linejoin="round" d="M 2292,1706 L 2442,1706"/>
 <path fill="none" stroke="rgb(179,179,179)" stroke-linejoin="round" d="M 2292,483 L 2442,483"/>
 <path fill="none" stroke="rgb(179,179,179)" stroke-linejoin="round" d="M 2292,483 L 2442,483"/>
 <path fill="none" stroke="rgb(179,179,179)" stroke-linejoin="round" d="M 2442,6597 L 2442,483"/>
 <path fill="none" stroke="rgb(255,211,32)" stroke-width="80" stroke-linejoin="round" d="M 2442,2929 L 2457,2929 2472,2929 2487,2929 2502,2929 2516,2929 2524,2929 2538,2929 2553,2929 2567,2929 2581,2929 2594,2929 2608,2929 2621,2929 2634,2929 2653,2929 2666,2929 2679,2929 2692,2929 2706,2929 2719,2929 2733,2929 2748,2929 2762,2929 2777,2929 2784,2929 2799,2929 2814,2929 2829,2929 2843,2929 2858,2929 2873,2929 2880,2929 2894,2929 2908,2929 2922,2929 2936,2929 2950,2929 2964,2929 2978,2929 2992,2929 3007,2929 3021,2929 3035,2929 3050,2929 3065,2929 3072,2929 3087,2929 3102,2929 3116,2929 3131,2929 3145,2929 3160,2929 3174,2929 3181,2929 3195,2929 3209,2929 3223,2929 3237,2929 3251,2929 3265,2929 3280,2929 3294,2929 3308,2929 3323,2929 3337,2929 3352,2929 3359,2929 3373,2929 3388,2929 3403,2929 3418,2929 3432,2929 3447,2929 3455,2929 3469,2929 3484,2929 3499,2928 3513,2928 3528,2928 3543,2928 3557,2928 3564,2929 3579,2929 3593,2929 3607,2930 3621,2931 3635,2931 3649,2932 3663,2932 3677,2932 3691,2932 3706,2931 3720,2930 3734,2928 3749,2926 3756,2925 3763,2923 3771,2922 3785,2920 3800,2918 3815,2918 3829,2918 3844,2920 3859,2923 3866,2926 3880,2933 3894,2941 3909,2950 3916,2955 3923,2959 3937,2966 3951,2971 3965,2972 3978,2968 3985,2963 3992,2958 3999,2950 4006,2941 4013,2929 4020,2915 4028,2900 4035,2883 4042,2863 4049,2843 4056,2821 4064,2799 4071,2775 4078,2751 4086,2726 4093,2700 4100,2675 4108,2650 4115,2625 4122,2600 4130,2576 4137,2552 4144,2530 4152,2509 4159,2489 4167,2470 4174,2453 4182,2438 4189,2423 4196,2410 4204,2398 4211,2387 4219,2376 4226,2367 4233,2358 4241,2350 4248,2343 4255,2336 4263,2329 4270,2323 4277,2317 4284,2311 4291,2305 4298,2299 4305,2293 4312,2287 4319,2281 4333,2268 4346,2255 4360,2241 4373,2228 4387,2215 4400,2203 4414,2191 4428,2180 4442,2171 4449,2167 4456,2163 4470,2156 4478,2153 4485,2150 4500,2145 4514,2141 4522,2139 4537,2135 4551,2131 4566,2128 4581,2124 4595,2120 4609,2116 4616,2113 4623,2111 4638,2106 4652,2101 4659,2098 4673,2093 4687,2088 4701,2083 4715,2078 4729,2073 4743,2069 4758,2065 4773,2062 4787,2059 4802,2056 4809,2055 4824,2053 4839,2051 4853,2050 4868,2049 4882,2049 4896,2049 4911,2049 4925,2049 4939,2050 4946,2050 4960,2050 4974,2050 4988,2050 5002,2050 5016,2049 5023,2048 5031,2047 5045,2045 5059,2042 5074,2040 5089,2037 5103,2034 5111,2032 5125,2030 5140,2027 5155,2025 5170,2023 5184,2022 5199,2022 5207,2022 5221,2021 5236,2022 5251,2022 5265,2023 5280,2023 5294,2024 5308,2024 5315,2024 5330,2025 5344,2025 5358,2025 5372,2025 5386,2025 5400,2025 5414,2025 5428,2024 5442,2024 5457,2024 5471,2024 5486,2024 5500,2024 5508,2024 5522,2024 5537,2024 5552,2024 5566,2024 5581,2024 5595,2024 5610,2024 5617,2024 5631,2024 5645,2024 5659,2024 5673,2024 5687,2024 5701,2024 5716,2024 5730,2024 5744,2024 5758,2024 5773,2024 5787,2024 5802,2024 5809,2024 5823,2024 5838,2024 5853,2024 5868,2024 5883,2024 5898,2024 5905,2024 5920,2024 5935,2024 5950,2024 5965,2024 5979,2024 5987,2024 6001,2024 6015,2024 6029,2024 6042,2024 6055,2024 6069,2024 6088,2024 6101,2024 6114,2024 6127,2024 6140,2024 6154,2024 6168,2024 6182,2024 6196,2024 6211,2024 6225,2024 6233,2024 6247,2024 6262,2024 6277,2024 6292,2024 6307,2024 6321,2024 6335,2024 6342,2024 6356,2024 6370,2024 6384,2024 6398,2024 6412,2024 6426,2024 6441,2024 6455,2024 6469,2024 6484,2024 6499,2024 6513,2024 6521,2024 6535,2024 6550,2024 6565,2024 6579,2024 6594,2024 6608,2024 6622,2024 6636,2024 6644,2024 6658,2024 6672,2024 6686,2024 6700,2024 6714,2024 6728,2024 6742,2024 6757,2024 6771,2024 6785,2024 6800,2024 6815,2024 6822,2024 6837,2024 6852,2024 6866,2024 6881,2024 6896,2024 6911,2024 6918,2024 6933,2024 6947,2024 6962,2024 6977,2024 6991,2024 7006,2024 7020,2024 7027,2024 7041,2024 7055,2024 7069,2024 7083,2024 7097,2024 7112,2024 7126,2024 7140,2024 7154,2024 7168,2024 7183,2024 7197,2024 7205,2024 7219,2024 7234,2024 7249,2024 7263,2024 7278,2024 7293,2024 7307,2024 7314,2024 7329,2024 7343,2024 7357,2024 7371,2024 7385,2024 7399,2024 7413,2024 7427,2024 7441,2024 7456,2024 7470,2024 7484,2024 7499,2024 7506,2024 7521,2024 7535,2024 7550,2024 7565,2024 7579,2024 7594,2024 7602,2024"/>
 <path fill="none" stroke="rgb(255,66,14)" stroke-width="80" stroke-linejoin="round" d="M 2442,2929 L 2457,2929 2472,2929 2487,2929 2502,2929 2516,2929 2524,2929 2538,2929 2553,2929 2567,2929 2581,2929 2594,2929 2608,2929 2621,2929 2634,2929 2653,2929 2666,2929 2679,2929 2692,2929 2706,2929 2719,2929 2733,2929 2748,2929 2762,2929 2777,2929 2784,2929 2799,2929 2814,2929 2829,2929 2843,2929 2858,2929 2873,2929 2880,2929 2894,2929 2908,2929 2922,2929 2936,2929 2950,2929 2964,2929 2978,2929 2992,2929 3007,2929 3021,2929 3035,2929 3050,2929 3065,2929 3072,2929 3087,2929 3102,2929 3116,2929 3131,2929 3145,2929 3160,2929 3174,2929 3181,2929 3195,2929 3209,2929 3223,2929 3237,2929 3251,2929 3265,2929 3280,2929 3294,2929 3308,2929 3323,2929 3337,2929 3352,2929 3359,2929 3373,2929 3388,2929 3403,2929 3418,2929 3432,2929 3447,2929 3455,2929 3469,2929 3484,2929 3499,2929 3513,2929 3528,2930 3543,2929 3557,2929 3564,2929 3579,2929 3593,2929 3607,2929 3621,2928 3635,2928 3649,2928 3663,2928 3677,2928 3691,2928 3706,2928 3720,2929 3734,2930 3749,2931 3756,2931 3771,2933 3785,2934 3800,2934 3815,2935 3829,2935 3844,2934 3859,2932 3866,2931 3880,2927 3894,2923 3909,2919 3923,2914 3937,2911 3944,2909 3951,2908 3965,2908 3978,2910 3985,2912 3992,2915 4006,2923 4013,2929 4020,2936 4028,2944 4035,2952 4049,2972 4056,2983 4064,2994 4071,3006 4078,3018 4086,3030 4100,3056 4108,3068 4115,3081 4122,3093 4130,3105 4137,3117 4144,3128 4152,3139 4167,3159 4174,3167 4182,3175 4189,3183 4196,3190 4211,3202 4219,3207 4226,3212 4233,3217 4241,3221 4248,3225 4263,3231 4277,3237 4291,3242 4305,3247 4319,3252 4333,3256 4346,3261 4360,3266 4373,3270 4387,3275 4400,3280 4407,3283 4414,3285 4428,3290 4442,3296 4456,3302 4470,3308 4478,3311 4485,3314 4500,3319 4507,3322 4514,3325 4522,3328 4537,3333 4551,3337 4566,3341 4581,3344 4595,3346 4609,3347 4623,3347 4638,3347 4652,3347 4659,3346 4673,3346 4687,3345 4701,3344 4715,3344 4729,3345 4743,3346 4758,3348 4765,3349 4773,3350 4787,3353 4802,3356 4809,3358 4824,3361 4831,3362 4839,3363 4853,3366 4868,3368 4882,3370 4896,3371 4911,3372 4925,3372 4939,3372 4946,3372 4960,3372 4974,3371 4988,3370 5002,3370 5016,3369 5031,3369 5045,3369 5059,3369 5074,3369 5089,3369 5103,3369 5111,3369 5125,3369 5140,3369 5155,3369 5170,3369 5184,3369 5199,3370 5207,3370 5221,3370 5236,3370 5251,3370 5265,3369 5280,3369 5294,3369 5308,3369 5315,3369 5330,3369 5344,3369 5358,3369 5372,3369 5386,3369 5400,3369 5414,3369 5428,3369 5442,3369 5457,3369 5471,3370 5486,3370 5500,3370 5508,3370 5522,3370 5537,3370 5552,3370 5566,3370 5581,3370 5595,3369 5610,3369 5617,3369 5631,3368 5645,3367 5659,3367 5673,3367 5687,3367 5701,3367 5716,3368 5730,3369 5744,3370 5758,3372 5773,3375 5780,3376 5787,3377 5802,3380 5809,3382 5823,3384 5838,3387 5846,3388 5853,3390 5868,3392 5883,3394 5898,3395 5905,3396 5920,3396 5935,3396 5950,3396 5965,3396 5979,3396 5987,3395 6001,3395 6015,3394 6029,3394 6042,3393 6055,3393 6069,3393 6088,3393 6101,3393 6114,3393 6127,3393 6140,3394 6154,3394 6168,3394 6182,3394 6196,3394 6211,3394 6225,3394 6233,3394 6247,3394 6262,3394 6277,3394 6292,3394 6307,3394 6321,3394 6335,3394 6342,3394 6356,3394 6370,3394 6384,3394 6398,3394 6412,3394 6426,3394 6441,3394 6455,3394 6469,3394 6484,3394 6499,3394 6513,3394 6521,3394 6535,3394 6550,3394 6565,3394 6579,3394 6594,3394 6608,3394 6622,3394 6636,3394 6644,3394 6658,3394 6672,3394 6686,3394 6700,3394 6714,3394 6728,3394 6742,3394 6757,3394 6771,3394 6785,3394 6800,3394 6815,3394 6822,3394 6837,3394 6852,3394 6866,3394 6881,3394 6896,3394 6911,3394 6918,3394 6933,3394 6947,3394 6962,3394 6977,3394 6991,3394 7006,3394 7020,3394 7027,3394 7041,3394 7055,3394 7069,3394 7083,3394 7097,3394 7112,3394 7126,3394 7140,3394 7154,3394 7168,3394 7183,3394 7197,3394 7205,3394 7219,3394 7234,3394 7249,3394 7263,3394 7278,3394 7293,3394 7307,3394 7314,3394 7329,3394 7343,3394 7357,3394 7371,3394 7385,3394 7399,3394 7413,3394 7427,3394 7441,3394 7456,3394 7470,3394 7484,3394 7499,3394 7506,3394 7521,3394 7535,3394 7550,3394 7565,3394 7579,3394 7594,3394 7602,3394"/>
 <path fill="none" stroke="rgb(0,69,134)" stroke-width="80" stroke-linejoin="round" d="M 2442,2929 L 2457,2929 2472,2929 2487,2929 2502,2929 2516,2929 2524,2929 2538,2929 2553,2929 2567,2929 2581,2929 2594,2929 2608,2929 2621,2929 2634,2929 2653,2929 2666,2929 2679,2929 2692,2929 2706,2929 2719,2929 2733,2929 2748,2929 2762,2929 2777,2929 2784,2929 2799,2929 2814,2929 2829,2929 2843,2929 2858,2929 2873,2929 2880,2929 2894,2929 2908,2929 2922,2929 2936,2929 2950,2929 2964,2929 2978,2929 2992,2929 3007,2929 3021,2929 3035,2929 3050,2929 3065,2929 3072,2929 3087,2929 3102,2929 3116,2929 3131,2929 3145,2929 3160,2929 3174,2929 3181,2929 3195,2929 3209,2929 3223,2929 3237,2929 3251,2929 3265,2929 3280,2929 3294,2929 3308,2929 3323,2929 3337,2929 3352,2929 3359,2929 3373,2929 3388,2929 3403,2929 3418,2929 3432,2929 3447,2929 3455,2929 3469,2929 3484,2929 3499,2929 3513,2929 3528,2929 3543,2929 3557,2929 3564,2929 3579,2929 3593,2929 3607,2929 3621,2929 3635,2929 3649,2929 3663,2929 3677,2929 3691,2929 3706,2929 3720,2929 3734,2929 3749,2929 3756,2929 3771,2929 3785,2929 3800,2929 3815,2929 3829,2929 3844,2929 3859,2929 3866,2929 3880,2929 3894,2929 3909,2929 3923,2929 3937,2929 3951,2929 3965,2929 3978,2929 3992,2929 4006,2929 4020,2929 4035,2929 4049,2929 4056,2929 4071,2929 4086,2929 4100,2929 4115,2929 4130,2929 4144,2929 4152,2929 4167,2929 4182,2929 4196,2929 4211,2929 4226,2929 4241,2929 4248,2929 4263,2929 4277,2929 4291,2929 4305,2929 4319,2929 4333,2929 4346,2929 4360,2929 4373,2929 4387,2929 4400,2929 4414,2929 4428,2929 4442,2929 4456,2929 4470,2929 4485,2929 4500,2929 4514,2929 4522,2929 4537,2929 4551,2929 4566,2929 4581,2929 4595,2929 4609,2929 4623,2929 4638,2929 4652,2929 4659,2929 4673,2929 4687,2929 4701,2929 4715,2929 4729,2929 4743,2929 4758,2929 4773,2929 4787,2929 4802,2929 4809,2929 4824,2929 4839,2929 4853,2929 4868,2929 4882,2929 4896,2929 4911,2929 4925,2929 4939,2929 4946,2929 4960,2929 4974,2929 4988,2929 5002,2929 5016,2929 5031,2929 5045,2929 5059,2929 5074,2929 5089,2929 5103,2929 5111,2929 5125,2929 5140,2929 5155,2929 5170,2929 5184,2929 5199,2929 5207,2929 5221,2929 5236,2929 5251,2929 5265,2929 5280,2929 5294,2929 5308,2929 5315,2929 5330,2929 5344,2929 5358,2929 5372,2929 5386,2929 5400,2929 5414,2929 5428,2929 5442,2929 5457,2929 5471,2929 5486,2929 5500,2929 5508,2929 5522,2929 5537,2929 5552,2929 5566,2929 5581,2929 5595,2929 5610,2929 5617,2929 5631,2929 5645,2929 5659,2929 5673,2929 5687,2929 5701,2929 5716,2929 5730,2929 5744,2929 5758,2929 5773,2929 5787,2929 5802,2929 5809,2929 5823,2929 5838,2929 5853,2929 5868,2929 5883,2929 5898,2929 5905,2929 5920,2929 5935,2929 5950,2929 5965,2929 5979,2929 5987,2929 6001,2929 6015,2929 6029,2929 6042,2929 6055,2929 6069,2929 6088,2929 6101,2929 6114,2929 6127,2929 6140,2929 6154,2929 6168,2929 6182,2929 6196,2929 6211,2929 6225,2929 6233,2929 6247,2929 6262,2929 6277,2929 6292,2929 6307,2929 6321,2929 6335,2929 6342,2929 6356,2929 6370,2929 6384,2929 6398,2929 6412,2929 6426,2929 6441,2929 6455,2929 6469,2929 6484,2929 6499,2929 6513,2929 6521,2929 6535,2929 6550,2929 6565,2929 6579,2929 6594,2929 6608,2929 6622,2929 6636,2929 6644,2929 6658,2929 6672,2929 6686,2929 6700,2929 6714,2929 6728,2929 6742,2929 6757,2929 6771,2929 6785,2929 6800,2929 6815,2929 6822,2929 6837,2929 6852,2929 6866,2929 6881,2929 6896,2929 6911,2929 6918,2929 6933,2929 6947,2929 6962,2929 6977,2929 6991,2929 7006,2929 7020,2929 7027,2929 7041,2929 7055,2929 7069,2929 7083,2929 7097,2929 7112,2929 7126,2929 7140,2929 7154,2929 7168,2929 7183,2929 7197,2929 7205,2929 7219,2929 7234,2929 7249,2929 7263,2929 7278,2929 7293,2929 7307,2929 7314,2929 7329,2929 7343,2929 7357,2929 7371,2929 7385,2929 7399,2929 7413,2929 7427,2929 7441,2929 7456,2929 7470,2929 7484,2929 7499,2929 7506,2929 7521,2929 7535,2929 7550,2929 7565,2929 7579,2929 7594,2929 7602,2929"/>
 <text class="TextShape"><tspan class="TextParagraph" font-family="Liberation Sans, sans-serif" font-size="564px" font-weight="400"><tspan class="TextPosition" x="1807" y="7350"><tspan fill="rgb(0,0,0)" stroke="none">2007</tspan></tspan></tspan></text>
 <text class="TextShape"><tspan class="TextParagraph" font-family="Liberation Sans, sans-serif" font-size="564px" font-weight="400"><tspan class="TextPosition" x="4161" y="7350"><tspan fill="rgb(0,0,0)" stroke="none">2008</tspan></tspan></tspan></text>
 <text class="TextShape"><tspan class="TextParagraph" font-family="Liberation Sans, sans-serif" font-size="564px" font-weight="400"><tspan class="TextPosition" x="6515" y="7350"><tspan fill="rgb(0,0,0)" stroke="none">2009</tspan></tspan></tspan></text>
 <text class="TextShape"><tspan class="TextParagraph" font-family="Liberation Sans, sans-serif" font-size="564px" font-weight="400"><tspan class="TextPosition" x="1874" y="6797"><tspan fill="rgb(0,0,0)" stroke="none">0</tspan></tspan></tspan></text>
 <text class="TextShape"><tspan class="TextParagraph" font-family="Liberation Sans, sans-serif" font-size="564px" font-weight="400"><tspan class="TextPosition" x="1874" y="5574"><tspan fill="rgb(0,0,0)" stroke="none">5</tspan></tspan></tspan></text>
 <text class="TextShape"><tspan class="TextParagraph" font-family="Liberation Sans, sans-serif" font-size="564px" font-weight="400"><tspan class="TextPosition" x="1557" y="4351"><tspan fill="rgb(0,0,0)" stroke="none">10</tspan></tspan></tspan></text>
 <text class="TextShape"><tspan class="TextParagraph" font-family="Liberation Sans, sans-serif" font-size="564px" font-weight="400"><tspan class="TextPosition" x="1557" y="3128"><tspan fill="rgb(0,0,0)" stroke="none">15</tspan></tspan></tspan></text>
 <text class="TextShape"><tspan class="TextParagraph" font-family="Liberation Sans, sans-serif" font-size="564px" font-weight="400"><tspan class="TextPosition" x="1557" y="1905"><tspan fill="rgb(0,0,0)" stroke="none">20</tspan></tspan></tspan></text>
 <text class="TextShape"><tspan class="TextParagraph" font-family="Liberation Sans, sans-serif" font-size="564px" font-weight="400"><tspan class="TextPosition" x="1557" y="682"><tspan fill="rgb(0,0,0)" stroke="none">25</tspan></tspan></tspan></text>
 <text class="TextShape"><tspan class="TextParagraph" font-family="Liberation Sans, sans-serif" font-size="564px" font-weight="400"><tspan class="TextPosition" x="3923" y="8311"><tspan fill="rgb(0,0,0)" stroke="none">Years</tspan></tspan></tspan></text>
 <text class="TextShape" transform="rotate(-90 1123 5684)"><tspan class="TextParagraph" font-family="Liberation Sans, sans-serif" font-size="564px" font-weight="400"><tspan class="TextPosition" x="1123" y="5684"><tspan fill="rgb(0,0,0)" stroke="none">Pressure, MPa</tspan></tspan></tspan></text>
</svg>