<?xml version="1.0" encoding="UTF-8"?>
<!DOCTYPE svg PUBLIC "-//W3C//DTD SVG 1.1//EN" "http://www.w3.org/Graphics/SVG/1.1/DTD/svg11.dtd">
<svg width="209mm" height="118mm" viewBox="0 0 20900 11800" version="1.1" xmlns="http://www.w3.org/2000/svg" xmlns:xlink="http://www.w3.org/1999/xlink" stroke-width="28.222" stroke-linejoin="round" xml:space="preserve">
 <path fill="rgb(255,255,255)" stroke="none" d="M 10430,11820 L -5,11820 -5,0 20865,0 20865,11820 10430,11820 Z"/>
 <path fill="none" stroke="rgb(0,0,0)" stroke-linejoin="round" d="M 10430,11820 L -5,11820 -5,0 20865,0 20865,11820 10430,11820 Z"/>
 <path fill="none" stroke="rgb(179,179,179)" stroke-linejoin="round" d="M 11289,9357 L 2697,9357 2697,541 19882,541 19882,9357 11289,9357 Z"/>
 <path fill="none" stroke="rgb(179,179,179)" stroke-linejoin="round" d="M 2697,540 L 2697,9356"/>
 <path fill="none" stroke="rgb(179,179,179)" stroke-linejoin="round" d="M 6105,540 L 6105,9356"/>
 <path fill="none" stroke="rgb(179,179,179)" stroke-linejoin="round" d="M 9514,540 L 9514,9356"/>
 <path fill="none" stroke="rgb(179,179,179)" stroke-linejoin="round" d="M 12922,540 L 12922,9356"/>
 <path fill="none" stroke="rgb(179,179,179)" stroke-linejoin="round" d="M 16331,540 L 16331,9356"/>
 <path fill="none" stroke="rgb(179,179,179)" stroke-linejoin="round" d="M 19739,540 L 19739,9356"/>
 <path fill="none" stroke="rgb(179,179,179)" stroke-linejoin="round" d="M 19882,9356 L 2697,9356"/>
 <path fill="none" stroke="rgb(179,179,179)" stroke-linejoin="round" d="M 19882,7151 L 2697,7151"/>
 <path fill="none" stroke="rgb(179,179,179)" stroke-linejoin="round" d="M 19882,4948 L 2697,4948"/>
 <path fill="none" stroke="rgb(179,179,179)" stroke-linejoin="round" d="M 19882,2744 L 2697,2744"/>
 <path fill="none" stroke="rgb(179,179,179)" stroke-linejoin="round" d="M 19882,540 L 2697,540"/>
 <path fill="none" stroke="rgb(179,179,179)" stroke-linejoin="round" d="M 2697,9506 L 2697,9356"/>
 <path fill="none" stroke="rgb(179,179,179)" stroke-linejoin="round" d="M 2697,9506 L 2697,9356"/>
 <path fill="none" stroke="rgb(179,179,179)" stroke-linejoin="round" d="M 6105,9506 L 6105,9356"/>
 <path fill="none" stroke="rgb(179,179,179)" stroke-linejoin="round" d="M 6105,9506 L 6105,9356"/>
 <path fill="none" stroke="rgb(179,179,179)" stroke-linejoin="round" d="M 9514,9506 L 9514,9356"/>
 <path fill="none" stroke="rgb(179,179,179)" stroke-linejoin="round" d="M 9514,9506 L 9514,9356"/>
 <path fill="none" stroke="rgb(179,179,179)" stroke-linejoin="round" d="M 12922,9506 L 12922,9356"/>
 <path fill="none" stroke="rgb(179,179,179)" stroke-linejoin="round" d="M 12922,9506 L 12922,9356"/>
 <path fill="none" stroke="rgb(179,179,179)" stroke-linejoin="round" d="M 16331,9506 L 16331,9356"/>
 <path fill="none" stroke="rgb(179,179,179)" stroke-linejoin="round" d="M 16331,9506 L 16331,9356"/>
 <path fill="none" stroke="rgb(179,179,179)" stroke-linejoin="round" d="M 19739,9506 L 19739,9356"/>
 <path fill="none" stroke="rgb(179,179,179)" stroke-linejoin="round" d="M 19739,9506 L 19739,9356"/>
 <path fill="none" stroke="rgb(179,179,179)" stroke-linejoin="round" d="M 2697,9356 L 19882,9356"/>
 <path fill="none" stroke="rgb(179,179,179)" stroke-linejoin="round" d="M 2547,9356 L 2697,9356"/>
 <path fill="none" stroke="rgb(179,179,179)" stroke-linejoin="round" d="M 2547,9356 L 2697,9356"/>
 <path fill="none" stroke="rgb(179,179,179)" stroke-linejoin="round" d="M 2547,7151 L 2697,7151"/>
 <path fill="none" stroke="rgb(179,179,179)" stroke-linejoin="round" d="M 2547,7151 L 2697,7151"/>
 <path fill="none" stroke="rgb(179,179,179)" stroke-linejoin="round" d="M 2547,4948 L 2697,4948"/>
 <path fill="none" stroke="rgb(179,179,179)" stroke-linejoin="round" d="M 2547,4948 L 2697,4948"/>
 <path fill="none" stroke="rgb(179,179,179)" stroke-linejoin="round" d="M 2547,2744 L 2697,2744"/>
 <path fill="none" stroke="rgb(179,179,179)" stroke-linejoin="round" d="M 2547,2744 L 2697,2744"/>
 <path fill="none" stroke="rgb(179,179,179)" stroke-linejoin="round" d="M 2547,540 L 2697,540"/>
 <path fill="none" stroke="rgb(179,179,179)" stroke-linejoin="round" d="M 2547,540 L 2697,540"/>
 <path fill="none" stroke="rgb(179,179,179)" stroke-linejoin="round" d="M 2697,9356 L 2697,540"/>
 <path fill="none" stroke="rgb(0,0,0)" stroke-width="80" stroke-linejoin="round" d="M 2768,3122 L 2775,3130 2782,3137 2789,3145 2796,3152 2810,3167 2824,3182 2839,3196 2853,3210 2867,3223 2881,3235 2895,3247 2910,3258 2924,3268 2931,3273 2938,3277 2952,3286 2959,3290 2973,3297 2988,3304 3002,3311 3016,3317 3030,3322 3037,3325 3044,3328 3059,3333 3073,3338 3087,3343 3101,3348 3115,3352 3130,3357 3144,3361 3151,3363 3158,3365 3165,3367 3179,3371 3194,3375 3208,3378 3222,3382 3236,3385 3250,3388 3265,3391 3279,3394 3293,3397 3307,3400 3321,3403 3329,3404 3343,3407 3357,3410 3371,3412 3385,3415 3400,3417 3414,3420 3428,3422 3442,3425 3456,3427 3471,3429 3478,3431 3485,3432 3499,3434 3513,3436 3520,3437 3534,3440 3549,3442 3563,3444 3577,3446 3591,3448 3606,3451 3620,3453 3634,3455 3648,3457 3662,3459 3677,3461 3691,3463 3705,3465 3712,3466 3726,3468 3740,3470 3755,3472 3769,3474 3783,3476 3797,3478 3811,3480 3826,3482 3840,3484 3854,3486 3868,3488 3882,3490 3890,3491 3904,3493 3918,3495 3932,3497 3946,3500 3961,3502 3975,3504 3989,3506 4003,3508 4017,3509 4025,3510 4032,3511 4046,3512 4060,3513 4074,3513 4081,3514 4096,3514 4110,3515 4124,3516 4138,3518 4152,3521 4167,3524 4181,3528 4195,3534 4202,3537 4209,3540 4223,3547 4230,3550 4238,3553 4252,3559 4266,3563 4273,3564 4287,3565 4301,3564 4309,3561 4316,3558 4330,3549 4344,3536 4358,3518 4365,3508 4372,3498 4380,3487 4387,3475 4394,3463 4401,3451 4408,3439 4415,3427 4422,3414 4429,3402 4444,3379 4451,3368 4458,3358 4465,3348 4479,3331 4493,3317 4507,3307 4522,3299 4529,3295 4536,3293 4550,3288 4564,3285 4578,3283 4593,3282 4607,3281 4621,3280 4635,3278 4642,3277 4657,3275 4671,3273 4685,3271 4692,3270 4699,3269 4713,3267 4728,3265 4742,3263 4756,3261 4770,3260 4784,3259 4799,3258 4813,3258 4827,3257 4834,3257 4848,3257 4863,3257 4877,3257 4891,3257 4905,3258 4912,3258 4919,3258 4934,3258 4948,3258 4962,3258 4976,3258 4990,3259 5005,3259 5012,3259 5026,3259 5040,3259 5054,3260 5068,3260 5083,3260 5097,3261 5111,3261 5125,3262 5139,3262 5154,3263 5168,3263 5182,3264 5196,3264 5203,3264 5218,3265 5232,3265 5246,3266 5260,3266 5274,3267 5289,3267 5303,3268 5317,3268 5331,3269 5345,3269 5360,3270 5374,3270 5388,3271 5395,3271 5409,3272 5424,3272 5438,3273 5452,3273 5466,3274 5480,3274 5495,3275 5509,3275 5523,3276 5537,3276 5551,3277 5566,3278 5573,3278 5587,3278 5601,3279 5615,3279 5629,3280 5644,3281 5658,3281 5672,3282 5686,3282 5700,3283 5715,3283 5729,3284 5743,3284 5757,3285 5764,3285 5779,3285 5793,3285 5807,3286 5821,3286 5835,3287 5850,3287 5864,3288 5878,3289 5892,3289 5906,3291 5921,3292 5935,3293 5949,3294 5956,3294 5970,3295 5985,3296 5999,3296 6013,3296 6027,3295 6041,3294 6056,3292 6070,3290 6084,3287 6098,3284 6105,3283 6112,3281 6127,3278 6134,3277 6148,3274 6162,3271 6169,3270 6176,3269 6191,3267 6205,3266 6219,3265 6233,3264 6247,3263 6262,3263 6276,3263 6290,3263 6304,3263 6318,3263 6325,3263 6340,3263 6354,3263 6368,3263 6382,3263 6396,3263 6411,3263 6425,3263 6439,3263 6453,3263 6467,3263 6482,3263 6496,3263 6510,3263 6517,3263 6531,3263 6546,3263 6560,3263 6574,3263 6588,3264 6602,3264 6617,3264 6631,3264 6645,3264 6659,3265 6673,3265 6688,3265 6695,3265 6709,3265 6723,3265 6737,3266 6752,3266 6766,3266 6780,3266 6794,3266 6808,3267 6823,3267 6837,3267 6851,3267 6865,3267 6879,3268 6886,3268 6901,3268 6915,3268 6929,3268 6943,3269 6957,3269 6972,3269 6986,3269 7000,3269 7014,3270 7029,3270 7043,3270 7057,3270 7064,3270 7078,3271 7092,3271 7100,3271 7107,3271 7121,3271 7135,3271 7149,3272 7163,3272 7178,3272 7192,3272 7206,3272 7220,3272 7234,3272 7249,3273 7256,3273 7270,3273 7284,3273 7298,3273 7313,3274 7327,3274 7341,3274 7355,3275 7369,3275 7384,3276 7398,3276 7412,3276 7426,3276 7440,3276 7448,3276 7462,3275 7476,3275 7490,3274 7504,3274 7519,3273 7533,3273 7547,3273 7561,3274 7575,3275 7590,3276 7604,3279 7618,3281 7625,3283 7632,3284 7639,3286 7653,3288 7668,3290 7682,3291 7696,3291 7710,3289 7724,3285 7732,3283 7739,3279 7753,3271 7767,3260 7774,3254 7781,3247 7788,3241 7795,3234 7803,3227 7810,3220 7817,3212 7831,3198 7838,3191 7845,3184 7852,3177 7859,3171 7874,3160 7888,3150 7902,3143 7916,3137 7930,3133 7945,3131 7959,3129 7973,3128 7987,3128 8001,3128 8009,3128 8023,3128 8037,3128 8051,3127 8065,3127 8080,3126 8094,3124 8108,3123 8122,3122 8136,3120 8151,3119 8165,3118 8179,3117 8186,3117 8200,3116 8214,3115 8229,3115 8243,3114 8257,3114 8271,3114 8286,3113 8300,3113 8314,3113 8328,3113 8342,3112 8357,3112 8371,3112 8378,3111 8392,3111 8406,3111 8420,3110 8435,3110 8449,3110 8463,3109 8477,3109 8491,3109 8506,3108 8520,3108 8534,3108 8548,3108 8562,3107 8570,3107 8584,3107 8598,3107 8612,3106 8626,3106 8641,3106 8655,3106 8669,3105 8683,3105 8697,3105 8712,3105 8726,3104 8740,3104 8747,3104 8761,3104 8776,3104 8790,3103 8804,3103 8818,3103 8832,3103 8847,3102 8861,3102 8875,3102 8889,3102 8903,3102 8918,3101 8932,3101 8939,3101 8953,3101 8967,3100 8981,3100 8996,3100 9010,3100 9024,3100 9038,3099 9052,3099 9067,3099 9081,3099 9095,3098 9102,3098 9109,3098 9123,3098 9131,3098 9145,3098 9159,3097 9173,3097 9187,3097 9202,3097 9216,3097 9230,3096 9244,3096 9258,3096 9273,3096 9287,3096 9301,3095 9308,3095 9322,3095 9337,3095 9351,3095 9365,3094 9379,3094 9393,3094 9408,3094 9422,3094 9436,3093 9450,3093 9464,3093 9479,3093 9493,3093 9500,3092 9514,3092 9528,3092 9542,3092 9557,3092 9571,3091 9585,3091 9599,3091 9614,3091 9628,3091 9642,3091 9656,3090 9670,3090 9685,3090 9692,3090 9706,3090 9720,3089 9734,3089 9748,3089 9763,3089 9777,3089 9791,3088 9805,3088 9819,3088 9834,3088 9848,3088 9862,3088 9869,3087 9883,3087 9898,3087 9912,3087 9926,3087 9940,3087 9954,3086 9969,3086 9983,3086 9997,3086 10011,3086 10025,3085 10040,3085 10054,3085 10061,3085 10075,3085 10089,3085 10104,3085 10118,3084 10132,3084 10146,3084 10160,3084 10175,3084 10189,3083 10203,3083 10217,3083 10231,3083 10246,3083 10253,3083 10267,3083 10281,3082 10295,3082 10309,3082 10324,3082 10338,3082 10352,3082 10366,3081 10380,3081 10395,3081 10409,3081 10423,3081 10430,3081 10443,3080 10458,3080 10472,3080 10486,3080 10500,3080 10514,3080 10529,3080 10543,3079 10557,3079 10571,3079 10585,3079 10600,3079 10614,3079 10621,3078 10635,3078 10649,3078 10664,3078 10678,3078 10692,3078 10706,3078 10720,3077 10735,3077 10749,3077 10763,3077 10777,3077 10791,3077 10806,3076 10813,3076 10827,3076 10841,3076 10855,3076 10870,3076 10884,3076 10898,3076 10912,3075 10926,3075 10941,3075 10955,3075 10969,3075 10983,3075 10990,3075 11004,3074 11019,3074 11033,3074 11047,3074 11061,3074 11075,3074 11090,3074 11104,3073 11118,3073 11132,3073 11146,3073 11161,3073 11175,3073 11182,3073 11196,3073 11210,3072 11225,3072 11239,3072 11253,3072 11267,3072 11281,3072 11296,3072 11310,3071 11324,3071 11338,3071 11352,3071 11360,3071 11374,3071 11388,3071 11402,3071 11416,3071 11431,3070 11445,3070 11459,3070 11473,3070 11487,3070 11502,3070 11516,3070 11530,3069 11544,3069 11551,3069 11565,3069 11580,3069 11594,3069 11608,3069 11622,3069 11636,3069 11651,3068 11665,3068 11679,3068 11693,3068 11707,3068 11722,3068 11736,3068 11743,3068 11757,3068 11771,3067 11786,3067 11800,3067 11814,3067 11828,3067 11842,3067 11857,3067 11871,3067 11885,3066 11899,3066 11913,3066 11921,3066 11935,3066 11949,3066 11963,3066 11977,3066 11992,3066 12006,3065 12020,3065 12034,3065 12048,3065 12063,3065 12077,3065 12091,3065 12105,3065 12112,3065 12126,3064 12141,3064 12155,3064 12169,3064 12183,3064 12198,3064 12212,3064 12226,3064 12240,3064 12254,3064 12269,3063 12283,3063 12297,3063 12304,3063 12318,3063 12332,3063 12347,3063 12361,3063 12375,3063 12389,3063 12403,3062 12418,3062 12432,3062 12446,3062 12460,3062 12474,3062 12482,3062 12496,3062 12510,3062 12524,3062 12538,3061 12553,3061 12567,3061 12581,3061 12595,3061 12609,3061 12624,3061 12638,3061 12652,3061 12666,3061 12673,3060 12688,3060 12702,3060 12716,3060 12730,3060 12744,3060 12759,3060 12773,3060 12787,3060 12801,3060 12815,3060 12830,3059 12844,3059 12858,3059 12865,3059 12879,3059 12893,3059 12908,3059 12922,3059 12936,3059 12950,3059 12964,3059 12979,3058 12993,3058 13007,3058 13021,3058 13036,3058 13043,3058 13057,3058 13071,3058 13085,3058 13099,3058 13114,3058 13128,3058 13142,3057 13156,3057 13170,3057 13185,3057 13199,3057 13213,3057 13227,3057 13234,3057 13249,3057 13263,3057 13277,3057 13291,3057 13305,3056 13320,3056 13334,3056 13348,3056 13362,3056 13376,3056 13391,3056 13405,3056 13419,3056 13426,3056 13440,3056 13455,3056 13469,3055 13483,3055 13497,3055 13511,3055 13526,3055 13540,3055 13554,3055 13568,3055 13582,3055 13597,3055 13604,3055 13618,3055 13632,3055 13646,3054 13660,3054 13675,3054 13689,3054 13703,3054 13717,3054 13731,3054 13746,3054 13760,3054 13774,3054 13788,3054 13795,3054 13810,3054 13824,3054 13838,3053 13852,3053 13866,3053 13881,3053 13895,3053 13909,3053 13923,3053 13937,3053 13952,3053 13966,3053 13980,3053 13987,3053 14001,3053 14016,3053 14030,3052 14044,3052 14058,3052 14072,3052 14087,3052 14101,3052 14115,3052 14129,3052 14143,3052 14158,3052 14165,3052 14179,3052 14193,3052 14207,3052 14221,3051 14236,3051 14250,3051 14264,3051 14278,3051 14292,3051 14307,3051 14321,3051 14335,3051 14349,3051 14356,3051 14371,3051 14385,3051 14399,3051 14413,3051 14427,3051 14442,3050 14456,3050 14470,3050 14484,3050 14498,3050 14513,3050 14527,3050 14541,3050 14548,3050 14562,3050 14577,3050 14591,3050 14605,3050 14619,3050 14633,3050 14648,3050 14662,3049 14676,3049 14690,3049 14704,3049 14719,3049 14726,3049 14740,3049 14754,3049 14768,3049 14783,3049 14797,3049 14811,3049 14825,3049 14839,3049 14854,3049 14868,3049 14882,3049 14896,3048 14910,3048 14917,3048 14932,3048 14946,3048 14960,3048 14974,3048 14988,3048 15003,3048 15017,3048 15031,3048 15045,3048 15059,3048 15074,3048 15088,3048 15102,3048 15109,3048 15123,3048 15138,3047 15152,3047 15166,3047 15180,3047 15194,3047 15209,3047 15223,3047 15237,3047 15251,3047 15265,3047 15280,3047 15287,3047 15301,3047 15315,3047 15329,3047 15344,3047 15358,3047 15372,3047 15386,3047 15400,3046 15415,3046 15429,3046 15443,3046 15457,3046 15471,3046 15478,3046 15493,3046 15507,3046 15521,3046 15535,3046 15549,3046 15564,3046 15578,3046 15592,3046 15606,3046 15621,3046 15635,3046 15649,3046 15656,3046 15670,3045 15684,3045 15699,3045 15706,3045 15713,3045 15727,3045 15741,3045 15755,3045 15770,3045 15784,3045 15798,3045 15812,3045 15826,3045 15841,3045 15848,3045 15862,3045 15876,3045 15890,3045 15905,3045 15919,3045 15933,3045 15947,3045 15961,3045 15976,3044 15990,3044 16004,3044 16018,3044 16032,3044 16040,3044 16054,3044 16068,3044 16082,3044 16096,3044 16111,3044 16125,3044 16139,3044 16153,3044 16167,3044 16182,3044 16196,3044 16210,3044 16217,3044 16231,3044 16245,3044 16260,3044 16274,3044 16288,3043 16302,3043 16316,3043 16331,3043 16345,3043 16359,3043 16373,3043 16387,3043 16402,3043 16409,3043 16423,3043 16437,3043 16451,3043 16466,3043 16480,3043 16494,3043 16508,3043 16522,3043 16537,3043 16551,3043 16565,3043 16579,3043 16593,3043 16601,3043 16615,3043 16629,3042 16643,3042 16657,3042 16672,3042 16686,3042 16700,3042 16714,3042 16728,3042 16743,3042 16757,3042 16771,3042 16778,3042 16792,3042 16806,3042 16821,3042 16835,3042 16849,3042 16863,3042 16878,3042 16892,3042 16906,3042 16920,3042 16934,3042 16949,3042 16963,3042 16970,3042 16984,3042 16998,3041 17012,3041 17027,3041 17041,3041 17055,3041 17069,3041 17083,3041 17098,3041 17112,3041 17126,3041 17140,3041 17154,3041 17162,3041 17176,3041 17190,3041 17204,3041 17218,3041 17233,3041 17247,3041 17261,3041 17275,3041 17289,3041 17304,3041 17318,3041 17332,3041 17339,3041 17353,3041 17368,3041 17382,3041 17396,3041 17410,3040 17424,3040 17439,3040 17453,3040 17467,3040 17481,3040 17495,3040 17510,3040 17524,3040 17531,3040 17545,3040 17559,3040 17573,3040 17588,3040 17602,3040 17616,3040 17630,3040 17644,3040 17659,3040 17673,3040 17687,3040 17701,3040 17715,3040 17723,3040 17737,3040 17751,3040 17765,3040 17779,3040 17794,3040 17808,3040 17822,3040 17836,3040 17850,3039 17865,3039 17879,3039 17893,3039 17900,3039 17914,3039 17929,3039 17943,3039 17957,3039 17971,3039 17985,3039 18000,3039 18014,3039 18028,3039 18042,3039 18056,3039 18071,3039 18085,3039 18092,3039 18106,3039 18120,3039 18134,3039 18149,3039 18163,3039 18177,3039 18191,3039 18206,3039 18220,3039 18234,3039 18248,3039 18262,3039 18277,3039 18284,3039 18298,3039 18312,3039 18326,3039 18340,3038 18355,3038 18369,3038 18383,3038 18397,3038 18411,3038 18426,3038 18440,3038 18454,3038 18461,3038 18475,3038 18490,3038 18504,3038 18518,3038 18532,3038 18546,3038 18561,3038 18575,3038 18589,3038 18603,3038 18617,3038 18632,3038 18646,3038 18653,3038 18667,3038 18681,3038 18696,3038 18710,3038 18724,3038 18738,3038 18752,3038 18767,3038 18781,3038 18795,3038 18809,3038 18823,3038 18838,3038 18845,3038 18859,3038 18873,3038 18887,3038 18901,3037 18916,3037 18930,3037 18944,3037 18958,3037 18972,3037 18987,3037 19001,3037 19015,3037 19022,3037 19036,3037 19051,3037 19065,3037 19079,3037 19093,3037 19107,3037 19122,3037 19136,3037 19150,3037 19164,3037 19178,3037 19193,3037 19207,3037 19214,3037 19228,3037 19242,3037 19257,3037 19271,3037 19285,3037 19299,3037 19313,3037 19328,3037 19342,3037 19356,3037 19370,3037 19384,3037 19399,3037 19406,3037 19420,3037 19434,3037 19448,3037 19463,3037 19477,3037 19491,3037 19505,3037 19519,3037 19534,3036 19548,3036 19562,3036 19576,3036 19583,3036 19597,3036 19612,3036 19626,3036 19640,3036 19654,3036 19668,3036 19683,3036 19697,3036 19711,3036 19725,3036 19739,3036 19754,3036 19768,3036 19775,3036 19789,3036 19803,3036"/>
 <path fill="none" stroke="rgb(0,0,0)" stroke-width="80" stroke-linejoin="round" d="M 2768,3229 L 2775,3244 2782,3260 2789,3275 2796,3290 2803,3306 2810,3321 2817,3337 2824,3352 2831,3368 2839,3383 2846,3398 2853,3414 2860,3429 2867,3445 2874,3460 2881,3476 2888,3491 2895,3506 2902,3522 2910,3537 2917,3553 2924,3568 2931,3584 2938,3599 2945,3614 2952,3630 2959,3645 2966,3661 2973,3676 2981,3691 2988,3707 2995,3722 3002,3738 3009,3753 3016,3769 3023,3784 3030,3800 3037,3815 3044,3830 3052,3846 3059,3861 3066,3877 3073,3892 3080,3908 3087,3923 3094,3939 3101,3954 3108,3970 3115,3985 3123,4001 3130,4016 3137,4031 3144,4047 3151,4062 3158,4078 3165,4093 3172,4108 3179,4124 3187,4139 3194,4154 3201,4170 3208,4185 3215,4200 3222,4216 3229,4231 3236,4246 3243,4262 3250,4277 3258,4292 3265,4308 3272,4323 3279,4338 3286,4354 3293,4369 3300,4385 3307,4400 3314,4416 3321,4432 3329,4447 3336,4463 3343,4479 3350,4495 3357,4511 3364,4527 3371,4543 3378,4559 3385,4575 3392,4590 3400,4606 3407,4622 3414,4638 3421,4653 3428,4669 3435,4684 3442,4699 3449,4714 3456,4729 3463,4743 3471,4758 3478,4772 3485,4785 3492,4799 3499,4813 3506,4826 3513,4839 3520,4852 3527,4865 3534,4877 3542,4890 3549,4903 3556,4916 3563,4929 3570,4942 3577,4955 3584,4968 3591,4981 3598,4994 3606,5008 3613,5022 3620,5036 3627,5051 3634,5065 3641,5080 3648,5095 3655,5111 3662,5126 3669,5142 3677,5158 3684,5173 3691,5189 3698,5205 3705,5221 3712,5237 3719,5253 3726,5268 3733,5284 3740,5299 3748,5315 3755,5330 3762,5345 3769,5359 3776,5374 3783,5388 3790,5402 3797,5416 3804,5429 3811,5443 3819,5456 3826,5469 3833,5482 3840,5495 3847,5508 3854,5521 3861,5534 3868,5546 3875,5559 3882,5572 3890,5584 3897,5597 3904,5609 3911,5622 3918,5635 3925,5647 3932,5660 3939,5673 3946,5686 3953,5698 3961,5711 3968,5724 3975,5737 3982,5751 3989,5764 3996,5777 4003,5791 4010,5804 4017,5818 4025,5832 4032,5846 4039,5860 4046,5874 4053,5888 4060,5902 4067,5916 4074,5931 4081,5946 4088,5960 4096,5976 4103,5991 4110,6006 4117,6021 4124,6037 4131,6053 4138,6068 4145,6084 4152,6100 4159,6116 4167,6132 4174,6149 4181,6165 4188,6181 4195,6198 4202,6214 4209,6231 4216,6247 4223,6264 4230,6280 4238,6296 4245,6311 4252,6326 4259,6340 4266,6354 4273,6368 4280,6381 4287,6393 4294,6404 4301,6414 4316,6432 4323,6440 4330,6446 4344,6455 4358,6461 4372,6463 4387,6462 4401,6460 4415,6457 4429,6453 4436,6451 4444,6449 4451,6448 4465,6446 4479,6446 4493,6449 4507,6454 4522,6460 4536,6468 4550,6478 4557,6483 4564,6489 4571,6495 4578,6501 4586,6507 4593,6514 4600,6520 4607,6527 4614,6534 4621,6541 4628,6548 4635,6555 4642,6562 4657,6576 4671,6590 4685,6604 4692,6611 4699,6618 4706,6625 4713,6631 4728,6644 4742,6655 4756,6666 4770,6676 4777,6681 4784,6686 4799,6694 4813,6703 4820,6707 4827,6711 4834,6715 4841,6719 4848,6723 4863,6731 4877,6740 4884,6745 4891,6749 4905,6760 4919,6771 4934,6783 4941,6789 4948,6795 4955,6802 4962,6808 4969,6815 4976,6822 4983,6829 4990,6836 4997,6843 5005,6850 5012,6857 5019,6865 5026,6872 5033,6879 5040,6887 5047,6894 5054,6901 5061,6909 5068,6916 5083,6931 5097,6945 5111,6959 5125,6972 5139,6985 5154,6997 5168,7008 5175,7014 5182,7019 5189,7024 5196,7029 5203,7033 5210,7038 5218,7042 5232,7050 5246,7058 5253,7062 5260,7066 5274,7074 5282,7078 5289,7083 5303,7092 5317,7102 5331,7113 5338,7119 5345,7125 5353,7131 5360,7138 5367,7144 5374,7151 5381,7158 5388,7165 5395,7172 5409,7186 5424,7200 5438,7214 5452,7227 5466,7239 5480,7251 5495,7262 5509,7271 5516,7276 5523,7281 5537,7289 5551,7297 5558,7301 5566,7305 5573,7309 5587,7317 5601,7324 5608,7328 5615,7331 5629,7339 5637,7342 5644,7346 5658,7354 5672,7362 5686,7371 5700,7379 5708,7384 5715,7389 5722,7394 5729,7399 5743,7410 5757,7422 5764,7428 5772,7434 5779,7441 5786,7447 5793,7454 5800,7461 5807,7468 5814,7474 5821,7481 5828,7488 5835,7495 5843,7502 5850,7509 5857,7516 5864,7523 5871,7529 5878,7536 5885,7542 5892,7548 5899,7554 5906,7560 5921,7571 5935,7581 5949,7591 5956,7595 5970,7604 5977,7608 5985,7612 5999,7620 6013,7627 6027,7633 6041,7639 6056,7645 6063,7648 6070,7650 6084,7655 6098,7660 6112,7664 6127,7668 6134,7670 6148,7673 6162,7677 6176,7680 6191,7683 6198,7685 6205,7687 6219,7690 6233,7693 6247,7697 6254,7699 6262,7701 6276,7706 6290,7711 6304,7717 6318,7724 6325,7728 6340,7736 6347,7741 6354,7745 6368,7754 6382,7764 6389,7769 6396,7773 6404,7778 6411,7783 6425,7792 6439,7801 6446,7805 6453,7809 6467,7816 6475,7819 6482,7822 6496,7828 6510,7833 6517,7835 6531,7839 6546,7843 6553,7845 6560,7846 6574,7850 6588,7853 6602,7857 6610,7858 6617,7860 6631,7864 6645,7868 6652,7871 6659,7873 6673,7877 6688,7882 6695,7884 6709,7889 6723,7893 6737,7898 6752,7903 6766,7908 6780,7913 6794,7917 6808,7922 6815,7924 6823,7926 6837,7931 6851,7935 6858,7937 6865,7939 6879,7943 6886,7945 6901,7948 6915,7952 6929,7955 6943,7959 6957,7962 6965,7964 6972,7966 6986,7971 7000,7976 7007,7979 7014,7982 7029,7989 7036,7993 7043,7997 7057,8005 7064,8009 7078,8019 7092,8028 7100,8033 7107,8038 7121,8047 7135,8057 7149,8065 7156,8069 7163,8073 7178,8080 7185,8084 7192,8087 7206,8092 7220,8097 7234,8101 7249,8105 7256,8107 7270,8110 7284,8114 7298,8117 7313,8121 7320,8123 7327,8125 7341,8130 7355,8134 7362,8136 7369,8139 7384,8143 7398,8148 7405,8150 7412,8153 7426,8157 7440,8161 7448,8163 7462,8167 7476,8170 7490,8174 7504,8177 7519,8180 7533,8184 7547,8188 7554,8191 7561,8193 7575,8199 7582,8202 7590,8206 7604,8213 7611,8218 7618,8222 7625,8227 7632,8231 7639,8236 7653,8244 7668,8252 7682,8258 7696,8261 7710,8262 7724,8260 7739,8253 7753,8243 7760,8236 7767,8228 7781,8211 7788,8202 7795,8192 7803,8182 7810,8171 7817,8161 7831,8140 7838,8130 7845,8120 7859,8101 7867,8092 7874,8084 7881,8077 7888,8071 7895,8065 7902,8061 7916,8053 7930,8048 7945,8044 7959,8042 7973,8040 7987,8039 8001,8037 8009,8036 8023,8033 8037,8028 8051,8022 8065,8015 8080,8007 8087,8002 8094,7998 8108,7988 8122,7977 8129,7972 8136,7967 8143,7961 8151,7956 8165,7945 8179,7934 8186,7929 8193,7923 8200,7918 8214,7908 8229,7899 8236,7894 8243,7889 8257,7881 8271,7873 8278,7869 8286,7866 8300,7859 8307,7857 8314,7854 8328,7849 8342,7845 8349,7843 8357,7842 8371,7838 8378,7836 8392,7833 8406,7829 8420,7824 8435,7819 8442,7816 8449,7813 8463,7805 8470,7801 8477,7797 8491,7787 8506,7778 8513,7773 8520,7768 8527,7763 8534,7758 8548,7749 8562,7740 8570,7736 8584,7728 8591,7724 8598,7721 8612,7716 8626,7711 8641,7707 8655,7704 8669,7700 8683,7697 8697,7693 8712,7689 8726,7683 8740,7677 8747,7673 8754,7669 8761,7665 8776,7657 8790,7647 8797,7643 8804,7638 8818,7628 8832,7618 8847,7609 8854,7604 8861,7600 8875,7592 8889,7585 8903,7579 8918,7573 8932,7568 8939,7566 8946,7564 8953,7562 8967,7559 8981,7555 8996,7552 9003,7551 9010,7549 9024,7547 9038,7544 9052,7541 9060,7539 9067,7537 9081,7534 9095,7530 9109,7525 9123,7520 9131,7517 9145,7511 9159,7504 9173,7496 9187,7488 9195,7483 9202,7478 9216,7469 9230,7460 9244,7450 9251,7445 9258,7441 9273,7432 9287,7423 9294,7419 9301,7416 9308,7412 9322,7406 9337,7401 9351,7396 9365,7391 9379,7387 9393,7384 9408,7380 9415,7379 9422,7377 9436,7373 9450,7370 9464,7366 9479,7362 9493,7357 9500,7355 9507,7353 9514,7351 9528,7346 9542,7342 9550,7339 9557,7337 9571,7332 9585,7328 9592,7325 9599,7323 9614,7319 9628,7314 9635,7312 9642,7310 9656,7305 9670,7301 9677,7299 9685,7297 9692,7294 9706,7290 9720,7286 9734,7281 9748,7277 9763,7273 9777,7268 9791,7264 9805,7259 9819,7255 9834,7250 9848,7246 9862,7242 9869,7239 9883,7235 9890,7233 9898,7231 9912,7226 9926,7222 9933,7220 9940,7217 9954,7213 9969,7209 9976,7206 9983,7204 9997,7200 10011,7195 10018,7193 10025,7191 10040,7187 10054,7182 10061,7180 10075,7176 10089,7171 10104,7167 10118,7162 10132,7158 10146,7153 10160,7149 10175,7145 10189,7140 10203,7136 10217,7131 10231,7127 10246,7123 10253,7120 10267,7116 10274,7114 10281,7112 10295,7107 10309,7103 10317,7101 10324,7098 10338,7094 10352,7090 10359,7087 10366,7085 10380,7081 10395,7076 10402,7074 10409,7072 10423,7067 10430,7065 10443,7061 10458,7056 10472,7052 10486,7048 10500,7043 10514,7039 10529,7034 10543,7030 10557,7026 10571,7021 10585,7017 10600,7012 10614,7008 10621,7006 10635,7001 10649,6997 10656,6995 10664,6993 10678,6988 10692,6984 10699,6982 10706,6979 10720,6975 10735,6971 10742,6968 10749,6966 10763,6962 10777,6957 10784,6955 10791,6953 10806,6949 10813,6946 10827,6942 10841,6937 10855,6933 10870,6929 10884,6924 10898,6920 10912,6915 10926,6911 10941,6906 10955,6902 10969,6897 10983,6893 10990,6891 10997,6889 11004,6887 11019,6883 11033,6878 11047,6874 11061,6870 11075,6866 11090,6862 11104,6857 11118,6852 11132,6848 11146,6843 11161,6837 11168,6835 11175,6832 11182,6829 11196,6824 11203,6821 11210,6819 11225,6814 11239,6809 11253,6805 11267,6802 11281,6799 11296,6798 11310,6797 11324,6797 11338,6798 11352,6798 11360,6799 11374,6799 11388,6800 11402,6800 11416,6800 11431,6799 11445,6796 11459,6793 11473,6790 11487,6785 11494,6783 11502,6781 11516,6776 11530,6770 11537,6768 11544,6765 11551,6762 11565,6757 11573,6754 11580,6752 11594,6747 11608,6743 11622,6739 11636,6734 11651,6730 11658,6728 11665,6726 11679,6722 11693,6717 11700,6715 11707,6713 11722,6708 11736,6703 11743,6700 11757,6695 11771,6689 11786,6684 11800,6680 11814,6675 11828,6672 11842,6668 11857,6666 11871,6665 11885,6665 11899,6665 11913,6665 11921,6666 11935,6666 11949,6667 11963,6667 11977,6668 11992,6667 12006,6666 12020,6663 12034,6660 12048,6657 12063,6652 12070,6650 12077,6647 12091,6642 12105,6637 12112,6634 12126,6628 12141,6622 12155,6616 12169,6611 12183,6605 12198,6600 12205,6597 12212,6595 12226,6590 12240,6586 12247,6584 12254,6583 12269,6580 12283,6578 12297,6577 12304,6577 12318,6577 12332,6577 12347,6578 12361,6578 12375,6579 12389,6579 12403,6579 12418,6579 12432,6577 12446,6575 12460,6572 12467,6570 12474,6568 12482,6566 12496,6562 12510,6557 12524,6551 12538,6546 12545,6543 12553,6540 12567,6534 12574,6531 12581,6528 12595,6522 12609,6517 12624,6511 12638,6506 12645,6504 12652,6502 12666,6498 12673,6496 12688,6493 12702,6491 12716,6489 12730,6489 12744,6489 12759,6490 12773,6491 12787,6492 12801,6493 12815,6493 12830,6492 12844,6491 12858,6489 12865,6487 12879,6483 12893,6478 12908,6473 12922,6468 12929,6465 12936,6462 12950,6457 12964,6452 12972,6450 12979,6449 12993,6446 13007,6444 13021,6444 13036,6444 13043,6445 13057,6445 13071,6447 13085,6447 13099,6448 13114,6448 13128,6447 13142,6445 13156,6441 13170,6437 13185,6432 13199,6427 13206,6424 13213,6421 13227,6416 13234,6413 13241,6411 13249,6409 13263,6405 13277,6402 13291,6400 13305,6400 13320,6400 13334,6401 13348,6402 13362,6403 13376,6404 13391,6404 13405,6403 13419,6402 13426,6401 13440,6397 13455,6393 13469,6388 13476,6385 13483,6383 13497,6377 13511,6372 13526,6367 13540,6362 13554,6359 13568,6357 13582,6356 13597,6355 13604,6356 13618,6356 13632,6357 13646,6358 13660,6359 13675,6359 13689,6359 13696,6359 13703,6358 13717,6355 13731,6352 13746,6347 13753,6345 13760,6343 13774,6337 13788,6332 13795,6329 13810,6324 13824,6319 13831,6317 13838,6315 13852,6312 13866,6310 13881,6308 13895,6308 13909,6307 13923,6308 13937,6309 13952,6310 13966,6311 13980,6313 13987,6314 14001,6315 14016,6317 14030,6318 14044,6319 14051,6319 14058,6320 14072,6320 14087,6319 14094,6319 14101,6318 14115,6316 14129,6314 14143,6310 14158,6306 14165,6303 14179,6298 14193,6293 14207,6287 14221,6282 14236,6278 14250,6274 14264,6271 14278,6269 14292,6268 14307,6268 14321,6268 14335,6269 14349,6270 14356,6271 14371,6271 14385,6271 14399,6271 14413,6270 14427,6267 14435,6265 14442,6263 14456,6259 14470,6254 14477,6252 14484,6249 14498,6244 14513,6238 14527,6233 14541,6229 14548,6227 14555,6225 14562,6224 14577,6222 14591,6220 14605,6220 14619,6219 14633,6220 14648,6221 14662,6222 14676,6223 14690,6225 14704,6226 14711,6227 14719,6228 14726,6228 14740,6230 14754,6231 14768,6231 14783,6231 14797,6231 14811,6230 14825,6228 14839,6225 14854,6222 14868,6218 14882,6213 14889,6211 14896,6209 14910,6203 14917,6201 14925,6198 14932,6196 14946,6191 14960,6187 14974,6183 14988,6180 15003,6178 15017,6177 15031,6176 15045,6176 15059,6176 15074,6177 15088,6178 15102,6179 15109,6180 15123,6181 15138,6183 15152,6184 15166,6185 15180,6186 15194,6187 15209,6187 15223,6187 15237,6186 15251,6184 15265,6181 15280,6178 15287,6176 15301,6172 15315,6167 15329,6162 15336,6159 15344,6157 15358,6152 15372,6147 15379,6145 15386,6143 15400,6139 15415,6136 15429,6134 15436,6133 15443,6132 15457,6132 15471,6132 15478,6132 15493,6132 15507,6133 15514,6134 15521,6134 15535,6136 15549,6137 15564,6139 15578,6140 15592,6141 15606,6142 15621,6143 15635,6143 15649,6143 15656,6142 15670,6141 15684,6139 15699,6136 15713,6132 15727,6127 15741,6123 15748,6120 15755,6117 15770,6112 15784,6107 15791,6105 15798,6102 15812,6098 15826,6095 15834,6093 15841,6092 15848,6091 15862,6090 15876,6089 15890,6089 15905,6089 15919,6090 15933,6091 15947,6092 15961,6093 15976,6093 15990,6094 16004,6094 16018,6094 16032,6093 16040,6093 16054,6093 16068,6093 16082,6093 16096,6093 16111,6093 16125,6094 16132,6094 16139,6094 16153,6095 16167,6096 16182,6097 16196,6098 16210,6098 16217,6098 16231,6097 16245,6095 16260,6093 16274,6090 16288,6086 16302,6081 16309,6079 16316,6076 16331,6071 16345,6066 16359,6061 16373,6056 16387,6052 16402,6049 16409,6048 16423,6046 16437,6045 16451,6045 16466,6045 16480,6045 16494,6046 16508,6047 16522,6048 16537,6049 16551,6049 16565,6050 16579,6050 16593,6050 16601,6049 16615,6049 16629,6049 16643,6049 16657,6049 16672,6049 16686,6049 16700,6050 16714,6051 16728,6052 16743,6053 16757,6053 16771,6054 16778,6054 16792,6053 16806,6052 16821,6050 16835,6048 16849,6044 16863,6040 16878,6035 16892,6030 16899,6027 16906,6025 16920,6019 16934,6015 16941,6012 16949,6010 16963,6007 16970,6005 16984,6003 16998,6001 17005,6001 17012,6000 17027,6000 17041,6001 17055,6001 17069,6002 17083,6003 17098,6004 17112,6005 17126,6006 17140,6006 17154,6006 17162,6007 17176,6007 17190,6006 17204,6006 17218,6006 17233,6006 17247,6005 17261,6005 17275,6004 17289,6004 17304,6004 17318,6004 17332,6004 17339,6003 17353,6004 17368,6004 17382,6004 17396,6005 17410,6006 17424,6007 17439,6008 17453,6009 17467,6010 17481,6010 17495,6010 17510,6009 17524,6007 17531,6006 17545,6004 17559,6000 17573,5996 17588,5991 17602,5986 17616,5980 17630,5975 17637,5973 17644,5970 17659,5966 17673,5962 17680,5961 17687,5960 17701,5958 17715,5957 17723,5956 17737,5956 17751,5956 17765,5957 17779,5958 17794,5959 17808,5960 17822,5961 17829,5961 17836,5962 17850,5962 17865,5962 17879,5962 17893,5962 17900,5962 17914,5962 17929,5962 17943,5962 17957,5961 17971,5961 17985,5960 18000,5960 18014,5960 18028,5960 18042,5959 18056,5959 18071,5960 18085,5960 18092,5960 18106,5961 18113,5961 18120,5962 18134,5963 18149,5964 18163,5965 18177,5965 18191,5966 18206,5966 18220,5965 18234,5963 18248,5961 18262,5958 18277,5954 18284,5951 18298,5947 18312,5941 18326,5936 18333,5934 18340,5931 18355,5926 18369,5922 18376,5920 18383,5918 18397,5916 18411,5914 18426,5913 18440,5912 18454,5912 18461,5912 18475,5913 18490,5914 18504,5915 18518,5916 18532,5917 18546,5917 18561,5918 18575,5918 18589,5918 18603,5918 18617,5918 18632,5918 18646,5917 18653,5917 18667,5917 18681,5917 18696,5917 18710,5917 18724,5916 18738,5916 18752,5916 18767,5917 18781,5917 18795,5917 18809,5917 18823,5917 18838,5917 18845,5917 18859,5917 18873,5917 18887,5917 18901,5917 18916,5917 18930,5917 18944,5917 18958,5917 18972,5917 18987,5916 19001,5916 19015,5916 19022,5916 19036,5916 19051,5916 19065,5916 19079,5916 19093,5917 19107,5917 19122,5918 19136,5919 19150,5920 19164,5921 19178,5922 19193,5922 19200,5921 19207,5921 19214,5921 19228,5919 19242,5917 19257,5914 19271,5910 19278,5908 19285,5906 19299,5901 19313,5896 19328,5891 19342,5886 19356,5881 19370,5877 19384,5874 19399,5871 19406,5871 19420,5870 19427,5869 19434,5869 19448,5869 19463,5870 19477,5870 19491,5871 19505,5872 19519,5873 19534,5874 19548,5875 19562,5875 19576,5875 19583,5875 19597,5875 19612,5875 19626,5875 19640,5874 19654,5874 19668,5874 19683,5874 19697,5873 19711,5873 19725,5873 19739,5873 19754,5873 19768,5873 19775,5874 19789,5874 19803,5874"/>
 <path fill="none" stroke="rgb(0,0,0)" stroke-width="80" stroke-linejoin="round" stroke-dasharray="158,158" d="M 2768,3141 L 2782,3155 2796,3169 2810,3183 2824,3197 2839,3210 2853,3224 2867,3236 2881,3249 2895,3261 2910,3273 2924,3284 2931,3289 2938,3294 2945,3299 2952,3304 2959,3309 2966,3314 2973,3318 2988,3327 3002,3335 3009,3339 3016,3343 3030,3351 3044,3358 3059,3364 3073,3370 3087,3376 3094,3379 3101,3382 3115,3387 3130,3391 3144,3395 3151,3397 3165,3400 3179,3403 3187,3404 3194,3405 3208,3406 3222,3407 3236,3408 3250,3408 3265,3408 3279,3407 3293,3407 3307,3406 3321,3406 3329,3405 3343,3405 3357,3404 3371,3404 3385,3404 3400,3404 3414,3404 3428,3404 3442,3405 3456,3405 3471,3405 3485,3405 3499,3405 3513,3405 3520,3405 3534,3405 3549,3405 3563,3405 3577,3405 3591,3405 3606,3405 3620,3405 3634,3405 3648,3405 3662,3405 3677,3405 3691,3405 3705,3405 3712,3405 3726,3405 3740,3405 3755,3405 3769,3405 3783,3405 3797,3404 3811,3404 3826,3404 3840,3403 3847,3403 3854,3403 3861,3403 3868,3404 3882,3404 3890,3404 3904,3405 3918,3406 3932,3407 3946,3409 3961,3410 3975,3411 3989,3411 4003,3411 4017,3410 4032,3408 4046,3405 4053,3403 4060,3401 4074,3395 4081,3393 4088,3390 4096,3387 4110,3380 4124,3375 4138,3369 4152,3365 4159,3363 4167,3362 4181,3361 4195,3362 4209,3364 4223,3368 4238,3372 4252,3375 4259,3377 4266,3378 4273,3379 4287,3379 4301,3377 4316,3371 4330,3361 4344,3347 4358,3328 4365,3318 4372,3307 4380,3295 4387,3283 4401,3258 4408,3246 4415,3233 4422,3220 4429,3207 4436,3195 4444,3183 4451,3171 4458,3160 4465,3150 4479,3132 4486,3124 4493,3117 4500,3110 4507,3104 4522,3094 4536,3086 4543,3083 4550,3079 4564,3073 4571,3071 4578,3068 4593,3062 4607,3056 4621,3049 4628,3044 4635,3040 4642,3035 4649,3031 4657,3026 4671,3016 4685,3006 4692,3001 4699,2996 4706,2991 4713,2986 4728,2978 4742,2970 4756,2964 4770,2960 4784,2957 4799,2955 4813,2954 4827,2955 4834,2955 4848,2957 4863,2959 4877,2961 4891,2963 4905,2965 4912,2966 4919,2967 4934,2969 4948,2970 4962,2971 4976,2971 4990,2971 5005,2970 5012,2969 5026,2967 5033,2966 5040,2964 5054,2961 5068,2956 5083,2952 5097,2947 5111,2942 5118,2939 5125,2936 5139,2932 5154,2927 5161,2925 5168,2923 5182,2920 5196,2918 5203,2917 5218,2916 5232,2916 5246,2916 5260,2916 5274,2917 5289,2918 5303,2919 5317,2920 5331,2920 5345,2921 5360,2921 5374,2921 5388,2921 5395,2921 5409,2921 5424,2921 5438,2920 5452,2920 5466,2920 5480,2920 5495,2920 5509,2920 5523,2920 5537,2920 5551,2920 5566,2920 5573,2920 5587,2920 5601,2920 5615,2920 5629,2920 5644,2919 5658,2919 5672,2919 5686,2919 5700,2919 5715,2919 5729,2919 5743,2920 5757,2921 5764,2921 5779,2922 5793,2923 5807,2924 5821,2925 5835,2925 5850,2925 5864,2924 5878,2923 5892,2920 5906,2917 5921,2912 5935,2907 5949,2902 5956,2900 5963,2897 5970,2894 5985,2889 5999,2884 6013,2880 6027,2877 6041,2875 6056,2874 6070,2874 6084,2875 6098,2875 6112,2877 6127,2877 6134,2878 6148,2878 6162,2877 6176,2876 6191,2873 6198,2872 6205,2870 6219,2865 6233,2860 6240,2858 6247,2855 6262,2850 6276,2845 6290,2840 6304,2835 6318,2832 6325,2831 6340,2829 6354,2827 6368,2827 6382,2827 6396,2828 6411,2828 6425,2829 6439,2830 6453,2831 6467,2832 6482,2833 6496,2833 6510,2833 6517,2833 6531,2833 6546,2833 6560,2833 6574,2832 6588,2832 6602,2832 6617,2832 6631,2832 6645,2832 6659,2832 6673,2832 6688,2832 6695,2832 6709,2832 6723,2832 6737,2832 6752,2832 6766,2832 6780,2831 6794,2831 6808,2831 6823,2831 6837,2831 6851,2831 6865,2831 6879,2832 6886,2832 6901,2833 6915,2834 6929,2835 6943,2836 6957,2836 6972,2837 6986,2836 7000,2836 7014,2834 7021,2833 7029,2832 7043,2829 7057,2825 7064,2822 7078,2818 7092,2813 7107,2807 7114,2805 7121,2802 7135,2797 7149,2793 7163,2789 7178,2787 7192,2785 7206,2783 7220,2783 7234,2783 7249,2783 7256,2784 7270,2785 7284,2786 7298,2787 7313,2788 7327,2789 7341,2789 7355,2790 7369,2790 7384,2790 7398,2790 7412,2790 7426,2789 7440,2789 7448,2788 7462,2787 7476,2787 7490,2786 7504,2785 7519,2784 7533,2784 7547,2784 7561,2785 7575,2785 7590,2787 7604,2789 7618,2792 7625,2793 7632,2794 7639,2796 7653,2798 7668,2800 7682,2801 7696,2800 7710,2798 7724,2794 7732,2791 7739,2788 7753,2779 7767,2768 7774,2762 7781,2755 7788,2748 7795,2741 7803,2734 7810,2726 7817,2719 7824,2711 7831,2703 7838,2696 7845,2688 7852,2681 7859,2674 7867,2668 7874,2661 7881,2656 7888,2650 7895,2645 7902,2641 7916,2633 7930,2627 7945,2622 7952,2620 7959,2619 7973,2616 7987,2614 8001,2613 8009,2612 8023,2611 8037,2611 8051,2611 8065,2611 8080,2611 8094,2611 8108,2611 8122,2611 8136,2611 8151,2611 8165,2611 8179,2612 8186,2612 8200,2612 8214,2612 8229,2612 8243,2612 8257,2612 8271,2612 8286,2612 8300,2612 8314,2611 8328,2611 8342,2611 8357,2611 8371,2611 8378,2611 8392,2611 8406,2611 8420,2611 8435,2611 8449,2611 8463,2612 8477,2612 8491,2612 8506,2612 8520,2612 8534,2612 8548,2612 8562,2612 8570,2612 8584,2612 8598,2611 8612,2611 8626,2611 8641,2611 8655,2611 8669,2611 8683,2611 8697,2611 8712,2611 8726,2611 8740,2612 8747,2612 8761,2612 8776,2612 8790,2613 8804,2613 8818,2613 8832,2613 8847,2613 8861,2612 8875,2611 8889,2611 8903,2610 8918,2609 8932,2608 8939,2607 8953,2607 8967,2607 8981,2607 8996,2608 9010,2610 9024,2613 9038,2617 9052,2621 9060,2623 9067,2626 9081,2631 9095,2636 9109,2641 9123,2646 9131,2648 9145,2652 9159,2656 9173,2658 9187,2659 9202,2660 9216,2660 9230,2660 9244,2659 9258,2658 9273,2657 9287,2656 9301,2656 9308,2655 9322,2655 9337,2654 9351,2654 9365,2654 9379,2654 9393,2655 9408,2655 9422,2655 9436,2655 9450,2656 9464,2656 9479,2656 9493,2656 9500,2656 9514,2656 9528,2656 9542,2656 9557,2656 9571,2656 9585,2656 9599,2656 9614,2656 9628,2655 9642,2655 9656,2655 9670,2656 9685,2656 9692,2656 9706,2656 9720,2656 9734,2656 9748,2656 9763,2656 9777,2656 9791,2656 9805,2656 9819,2656 9834,2656 9848,2656 9862,2656 9869,2656 9883,2656 9898,2656 9912,2656 9926,2656 9940,2656 9954,2656 9969,2656 9983,2656 9997,2656 10011,2656 10025,2656 10040,2656 10054,2656 10061,2656 10075,2656 10089,2656 10104,2656 10118,2656 10132,2656 10146,2656 10160,2656 10175,2656 10189,2656 10203,2656 10217,2656 10231,2656 10246,2656 10253,2656 10267,2656 10281,2656 10295,2656 10309,2656 10324,2656 10338,2656 10352,2656 10366,2656 10380,2656 10395,2656 10409,2656 10423,2656 10430,2656 10443,2656 10458,2655 10472,2655 10486,2655 10500,2655 10514,2655 10529,2655 10543,2655 10557,2655 10571,2655 10585,2656 10600,2656 10614,2656 10621,2656 10635,2657 10649,2657 10664,2657 10678,2657 10692,2657 10706,2656 10720,2656 10735,2655 10749,2654 10763,2653 10777,2652 10791,2651 10806,2651 10813,2651 10827,2651 10841,2652 10855,2654 10870,2657 10884,2661 10891,2663 10898,2665 10912,2670 10926,2675 10941,2680 10955,2685 10962,2688 10969,2690 10983,2694 10990,2696 11004,2700 11012,2701 11019,2702 11033,2703 11047,2704 11061,2704 11075,2704 11090,2703 11104,2703 11118,2702 11132,2701 11146,2700 11161,2699 11175,2699 11182,2699 11196,2698 11210,2698 11225,2699 11239,2699 11253,2699 11267,2699 11281,2700 11296,2700 11310,2700 11324,2700 11338,2700 11352,2700 11360,2700 11374,2700 11388,2700 11402,2700 11416,2700 11431,2700 11445,2700 11459,2700 11473,2700 11487,2700 11502,2700 11516,2700 11530,2700 11544,2700 11551,2700 11565,2700 11580,2700 11594,2700 11608,2700 11622,2700 11636,2700 11651,2700 11665,2700 11679,2700 11693,2700 11707,2700 11722,2700 11736,2700 11743,2700 11757,2700 11771,2700 11786,2700 11800,2700 11814,2700 11828,2700 11842,2700 11857,2700 11871,2700 11885,2700 11899,2700 11913,2700 11921,2700 11935,2700 11949,2700 11963,2700 11977,2700 11992,2700 12006,2700 12020,2700 12034,2700 12048,2700 12063,2700 12077,2700 12091,2700 12105,2700 12112,2700 12126,2700 12141,2700 12155,2700 12169,2700 12183,2700 12198,2700 12212,2700 12226,2700 12240,2700 12254,2700 12269,2700 12283,2700 12297,2700 12304,2700 12318,2700 12332,2700 12347,2700 12361,2700 12375,2700 12389,2700 12403,2700 12418,2700 12432,2700 12446,2700 12460,2700 12474,2700 12482,2700 12496,2700 12510,2700 12524,2700 12538,2700 12553,2700 12567,2700 12581,2700 12595,2700 12609,2700 12624,2700 12638,2700 12652,2700 12666,2700 12673,2700 12688,2700 12702,2700 12716,2700 12730,2700 12744,2700 12759,2700 12773,2700 12787,2700 12801,2700 12815,2700 12830,2700 12844,2700 12858,2700 12865,2700 12879,2700 12893,2700 12908,2700 12922,2700 12936,2700 12950,2700 12964,2700 12979,2700 12993,2700 13007,2700 13021,2700 13036,2700 13043,2700 13057,2700 13071,2700 13085,2700 13099,2700 13114,2700 13128,2700 13142,2700 13156,2700 13170,2700 13185,2700 13199,2700 13213,2700 13227,2700 13234,2700 13249,2700 13263,2700 13277,2700 13291,2700 13305,2700 13320,2700 13334,2700 13348,2700 13362,2700 13376,2700 13391,2700 13405,2700 13419,2700 13426,2700 13440,2700 13455,2700 13469,2700 13483,2700 13497,2700 13511,2700 13526,2700 13540,2700 13554,2700 13568,2700 13582,2700 13597,2700 13604,2700 13618,2700 13632,2700 13646,2700 13660,2700 13675,2700 13689,2700 13703,2700 13717,2700 13731,2700 13746,2699 13760,2699 13774,2699 13788,2699 13795,2699 13810,2699 13824,2699 13838,2700 13852,2700 13866,2700 13881,2700 13895,2701 13902,2701 13909,2701 13923,2701 13937,2701 13952,2701 13966,2701 13980,2700 13987,2700 14001,2699 14016,2698 14030,2697 14044,2696 14058,2695 14072,2695 14087,2695 14101,2696 14115,2697 14129,2700 14136,2701 14143,2703 14158,2707 14165,2709 14179,2714 14193,2719 14207,2724 14221,2729 14236,2734 14250,2739 14257,2741 14264,2742 14278,2745 14292,2747 14307,2748 14321,2748 14335,2748 14349,2748 14356,2748 14371,2747 14385,2746 14399,2745 14413,2744 14427,2743 14442,2743 14456,2743 14470,2742 14484,2743 14498,2743 14513,2743 14527,2743 14541,2744 14548,2744 14562,2744 14577,2744 14591,2744 14605,2744 14619,2744 14633,2744 14648,2744 14662,2744 14676,2744 14690,2744 14704,2744 14719,2744 14726,2744 14740,2744 14754,2744 14768,2744 14783,2744 14797,2744 14811,2744 14825,2744 14839,2744 14854,2744 14868,2744 14882,2744 14896,2744 14910,2744 14917,2744 14932,2744 14946,2744 14960,2744 14974,2744 14988,2744 15003,2744 15017,2744 15031,2744 15045,2744 15059,2744 15074,2744 15088,2744 15102,2744 15109,2744 15123,2744 15138,2744 15152,2744 15166,2744 15180,2744 15194,2744 15209,2744 15223,2744 15237,2744 15251,2744 15265,2744 15280,2744 15287,2744 15301,2744 15315,2744 15329,2744 15344,2744 15358,2744 15372,2744 15386,2744 15400,2744 15415,2744 15429,2744 15443,2744 15457,2744 15471,2744 15478,2744 15493,2744 15507,2744 15521,2744 15535,2744 15549,2744 15564,2744 15578,2744 15592,2744 15606,2744 15621,2744 15635,2744 15649,2744 15656,2744 15670,2744 15684,2744 15699,2744 15713,2744 15727,2744 15741,2744 15755,2744 15770,2744 15784,2744 15798,2744 15812,2744 15826,2744 15841,2744 15848,2744 15862,2744 15876,2744 15890,2744 15905,2744 15919,2744 15933,2744 15947,2744 15961,2744 15976,2744 15990,2744 16004,2744 16018,2744 16032,2744 16040,2744 16054,2744 16068,2744 16082,2744 16096,2744 16111,2744 16125,2744 16139,2744 16153,2744 16167,2744 16182,2744 16196,2744 16210,2744 16217,2744 16231,2744 16245,2744 16260,2744 16274,2744 16288,2744 16302,2744 16316,2744 16331,2744 16345,2744 16359,2744 16373,2744 16387,2744 16402,2744 16409,2744 16423,2744 16437,2744 16451,2744 16466,2744 16480,2744 16494,2744 16508,2744 16522,2744 16537,2744 16551,2744 16565,2744 16579,2744 16593,2744 16601,2744 16615,2744 16629,2744 16643,2744 16657,2744 16672,2744 16686,2744 16700,2744 16714,2744 16728,2744 16743,2744 16757,2744 16771,2744 16778,2744 16792,2744 16806,2744 16821,2744 16835,2744 16849,2744 16863,2744 16878,2744 16892,2744 16906,2744 16920,2744 16934,2744 16949,2744 16963,2744 16970,2744 16984,2744 16998,2744 17012,2744 17027,2744 17041,2744 17055,2744 17069,2744 17083,2744 17098,2744 17112,2744 17126,2744 17140,2744 17154,2744 17162,2744 17176,2744 17190,2744 17204,2744 17218,2744 17233,2744 17247,2744 17261,2744 17275,2744 17289,2744 17304,2744 17318,2744 17332,2744 17339,2744 17353,2744 17368,2744 17382,2744 17396,2744 17410,2744 17424,2744 17439,2744 17453,2744 17467,2744 17481,2744 17495,2744 17510,2744 17524,2744 17531,2744 17545,2744 17559,2744 17573,2744 17588,2744 17602,2744 17616,2744 17630,2744 17644,2744 17659,2744 17673,2744 17687,2744 17701,2744 17715,2744 17723,2744 17737,2744 17751,2744 17765,2744 17779,2744 17794,2744 17808,2744 17822,2744 17836,2744 17850,2744 17865,2744 17879,2744 17893,2744 17900,2744 17914,2744 17929,2744 17943,2744 17957,2744 17971,2744 17985,2744 18000,2744 18014,2744 18028,2744 18042,2744 18056,2744 18071,2744 18085,2744 18092,2744 18106,2744 18120,2744 18134,2744 18149,2744 18163,2744 18177,2744 18191,2744 18206,2744 18220,2744 18234,2744 18248,2744 18262,2744 18277,2744 18284,2744 18298,2744 18312,2744 18326,2744 18340,2744 18355,2744 18369,2744 18383,2744 18397,2744 18411,2744 18426,2744 18440,2744 18454,2744 18461,2744 18475,2744 18490,2744 18504,2744 18518,2744 18532,2744 18546,2744 18561,2744 18575,2744 18589,2744 18603,2744 18617,2744 18632,2744 18646,2744 18653,2744 18667,2744 18681,2744 18696,2744 18710,2744 18724,2744 18738,2744 18752,2744 18767,2744 18781,2744 18795,2744 18809,2744 18823,2744 18838,2744 18845,2744 18859,2744 18873,2744 18887,2744 18901,2744 18916,2744 18930,2744 18944,2744 18958,2744 18972,2744 18987,2744 19001,2744 19015,2744 19022,2744 19036,2744 19051,2744 19065,2744 19079,2744 19093,2744 19107,2744 19122,2744 19136,2744 19150,2744 19164,2744 19178,2744 19193,2744 19207,2744 19214,2744 19228,2744 19242,2744 19257,2744 19271,2744 19285,2744 19299,2744 19313,2744 19328,2744 19342,2744 19356,2744 19370,2744 19384,2744 19399,2744 19406,2744 19420,2744 19434,2744 19448,2744 19463,2744 19477,2744 19491,2744 19505,2744 19519,2744 19534,2744 19548,2744 19562,2744 19576,2744 19583,2744 19597,2744 19612,2744 19626,2744 19640,2744 19654,2744 19668,2744 19683,2744 19697,2744 19711,2744 19725,2744 19739,2744 19754,2744 19768,2744 19775,2744 19789,2744 19803,2744"/>
 <path fill="none" stroke="rgb(0,0,0)" stroke-width="80" stroke-linejoin="round" d="M 2768,3052 L 2775,3060 2782,3068 2789,3076 2796,3084 2803,3092 2810,3100 2824,3115 2839,3129 2853,3142 2867,3155 2881,3166 2895,3176 2902,3181 2910,3185 2924,3192 2938,3197 2952,3202 2959,3204 2966,3205 2973,3207 2988,3210 3002,3213 3016,3217 3023,3219 3030,3221 3044,3226 3059,3232 3073,3239 3087,3248 3101,3257 3108,3261 3115,3266 3123,3271 3130,3276 3144,3286 3151,3291 3165,3300 3179,3309 3187,3313 3194,3317 3208,3324 3222,3330 3236,3335 3243,3338 3250,3340 3265,3344 3279,3348 3293,3351 3307,3354 3321,3358 3329,3359 3343,3363 3350,3364 3357,3366 3371,3370 3385,3374 3400,3378 3414,3383 3428,3387 3442,3392 3456,3397 3471,3402 3478,3405 3485,3408 3499,3413 3513,3419 3520,3421 3534,3427 3549,3432 3563,3436 3577,3441 3591,3444 3606,3447 3620,3449 3634,3450 3648,3451 3662,3450 3677,3450 3691,3449 3705,3448 3712,3448 3726,3448 3740,3448 3755,3448 3769,3450 3783,3452 3797,3456 3804,3458 3811,3460 3826,3464 3840,3469 3847,3471 3854,3474 3868,3479 3882,3485 3890,3488 3904,3493 3918,3499 3932,3504 3946,3509 3953,3511 3961,3513 3975,3518 3989,3522 3996,3524 4003,3526 4017,3530 4032,3534 4046,3537 4060,3540 4074,3543 4081,3545 4096,3548 4103,3550 4110,3551 4124,3555 4138,3560 4152,3565 4167,3571 4181,3577 4195,3586 4202,3590 4209,3594 4223,3604 4238,3613 4245,3617 4252,3621 4266,3628 4273,3631 4287,3634 4301,3635 4316,3632 4330,3625 4344,3614 4358,3599 4372,3582 4380,3572 4387,3562 4401,3541 4408,3530 4415,3520 4422,3509 4429,3499 4436,3489 4444,3480 4451,3471 4458,3463 4465,3456 4479,3444 4486,3439 4493,3436 4507,3431 4515,3430 4522,3429 4536,3429 4543,3430 4550,3431 4564,3435 4578,3439 4593,3443 4607,3447 4621,3451 4635,3453 4642,3454 4657,3455 4671,3455 4685,3455 4699,3455 4713,3454 4728,3452 4742,3451 4756,3449 4770,3448 4784,3446 4799,3445 4813,3444 4827,3443 4834,3443 4848,3443 4863,3444 4877,3446 4891,3448 4905,3451 4919,3454 4926,3457 4934,3459 4948,3464 4962,3469 4969,3471 4976,3474 4990,3479 5005,3484 5012,3486 5026,3490 5040,3493 5054,3496 5061,3497 5068,3497 5083,3498 5097,3499 5111,3499 5125,3498 5139,3497 5154,3496 5168,3495 5182,3493 5196,3492 5203,3491 5218,3490 5232,3489 5246,3488 5260,3488 5274,3488 5289,3488 5303,3490 5317,3492 5331,3495 5338,3497 5345,3498 5360,3503 5374,3508 5381,3510 5388,3513 5395,3515 5409,3520 5416,3523 5424,3525 5438,3530 5452,3534 5466,3537 5480,3540 5495,3542 5509,3543 5523,3543 5537,3543 5551,3542 5566,3541 5573,3541 5587,3539 5601,3538 5615,3537 5622,3536 5629,3535 5644,3534 5658,3533 5672,3532 5686,3532 5700,3532 5715,3532 5729,3534 5743,3536 5750,3537 5757,3539 5764,3541 5779,3545 5793,3549 5807,3554 5821,3560 5835,3565 5850,3570 5864,3574 5871,3576 5878,3578 5892,3581 5906,3584 5921,3585 5935,3586 5949,3586 5956,3586 5970,3585 5985,3585 5999,3584 6013,3583 6027,3582 6041,3581 6056,3581 6070,3580 6084,3580 6098,3580 6112,3580 6127,3580 6134,3581 6148,3581 6162,3581 6176,3581 6191,3582 6205,3582 6219,3582 6233,3582 6247,3582 6262,3582 6276,3582 6290,3582 6304,3581 6318,3581 6325,3581 6340,3581 6354,3581 6368,3581 6382,3581 6396,3581 6411,3581 6425,3581 6439,3581 6453,3581 6467,3581 6482,3581 6496,3581 6510,3581 6517,3581 6531,3581 6546,3581 6560,3581 6574,3581 6588,3581 6602,3581 6617,3581 6631,3581 6645,3581 6659,3581 6673,3581 6688,3581 6695,3581 6709,3581 6723,3581 6737,3581 6752,3581 6766,3582 6780,3582 6794,3582 6808,3582 6823,3583 6837,3583 6851,3583 6865,3582 6879,3582 6886,3581 6901,3581 6915,3580 6929,3578 6943,3578 6957,3577 6972,3577 6986,3577 7000,3578 7014,3579 7029,3581 7043,3585 7057,3589 7064,3591 7078,3596 7092,3601 7100,3603 7107,3606 7121,3611 7135,3616 7149,3620 7163,3624 7178,3627 7192,3629 7199,3629 7206,3630 7220,3630 7234,3630 7249,3629 7256,3629 7263,3629 7270,3628 7284,3627 7298,3626 7313,3625 7327,3625 7341,3625 7355,3625 7369,3625 7384,3625 7398,3625 7412,3625 7426,3625 7440,3626 7448,3626 7462,3625 7476,3625 7490,3625 7504,3624 7519,3624 7533,3624 7547,3623 7561,3624 7575,3624 7590,3625 7604,3626 7618,3628 7625,3629 7632,3629 7639,3630 7653,3632 7668,3633 7682,3634 7696,3633 7710,3632 7724,3629 7732,3628 7739,3625 7753,3620 7767,3613 7781,3605 7788,3600 7795,3596 7810,3586 7817,3581 7831,3571 7845,3561 7859,3551 7867,3546 7874,3542 7888,3533 7902,3526 7909,3522 7916,3519 7930,3514 7945,3509 7959,3504 7973,3501 7987,3498 8001,3496 8009,3495 8023,3493 8037,3492 8051,3491 8065,3491 8080,3491 8094,3491 8108,3491 8122,3492 8136,3492 8151,3493 8165,3493 8179,3494 8186,3494 8200,3494 8214,3494 8229,3494 8243,3494 8257,3494 8271,3494 8286,3494 8300,3493 8314,3493 8328,3493 8342,3492 8357,3492 8371,3492 8378,3492 8392,3492 8406,3492 8420,3492 8435,3493 8449,3493 8463,3494 8477,3495 8491,3496 8499,3497 8506,3497 8520,3498 8534,3498 8548,3498 8562,3497 8570,3496 8577,3496 8584,3494 8598,3492 8612,3488 8626,3484 8633,3481 8641,3479 8655,3474 8669,3469 8683,3463 8697,3459 8704,3456 8712,3454 8726,3451 8740,3448 8747,3447 8761,3445 8776,3445 8790,3444 8804,3445 8818,3445 8832,3446 8847,3447 8861,3448 8875,3449 8889,3450 8903,3450 8918,3450 8932,3450 8939,3450 8953,3450 8967,3450 8981,3450 8996,3449 9010,3449 9024,3449 9038,3449 9052,3449 9067,3449 9081,3449 9095,3449 9109,3449 9123,3449 9131,3449 9145,3449 9159,3449 9173,3449 9187,3449 9202,3448 9216,3448 9230,3448 9244,3448 9258,3448 9273,3448 9287,3449 9301,3449 9308,3450 9322,3450 9337,3451 9351,3452 9365,3453 9379,3454 9393,3454 9408,3453 9422,3452 9436,3450 9450,3448 9464,3444 9471,3442 9479,3440 9493,3435 9500,3432 9507,3430 9514,3427 9528,3422 9542,3417 9550,3415 9557,3412 9571,3408 9585,3405 9599,3403 9614,3401 9628,3400 9642,3400 9656,3401 9670,3401 9685,3402 9692,3403 9706,3404 9720,3405 9734,3405 9748,3406 9763,3406 9777,3406 9791,3406 9805,3406 9819,3406 9834,3406 9848,3405 9862,3405 9869,3405 9883,3405 9898,3405 9912,3405 9926,3405 9940,3405 9954,3405 9969,3405 9983,3405 9997,3405 10011,3405 10025,3405 10040,3405 10054,3405 10061,3405 10075,3405 10089,3405 10104,3405 10118,3405 10132,3405 10146,3405 10160,3405 10175,3405 10189,3404 10203,3404 10217,3404 10231,3404 10246,3404 10253,3404 10267,3404 10281,3404 10295,3405 10309,3406 10324,3407 10338,3408 10352,3409 10366,3409 10380,3410 10395,3410 10409,3409 10423,3407 10430,3406 10443,3404 10451,3402 10458,3400 10472,3396 10486,3391 10493,3388 10500,3386 10514,3380 10529,3375 10543,3370 10557,3366 10571,3362 10585,3360 10600,3358 10614,3357 10621,3356 10635,3356 10649,3357 10664,3357 10678,3358 10692,3359 10706,3360 10720,3361 10735,3362 10749,3362 10763,3362 10777,3362 10791,3362 10806,3362 10813,3362 10827,3362 10841,3361 10855,3361 10870,3361 10884,3361 10898,3361 10912,3361 10926,3361 10941,3361 10955,3361 10969,3361 10983,3361 10990,3361 11004,3361 11019,3361 11033,3361 11047,3361 11061,3361 11075,3361 11090,3361 11104,3361 11118,3361 11132,3361 11146,3361 11161,3361 11175,3361 11182,3361 11196,3361 11210,3361 11225,3361 11239,3361 11253,3361 11267,3361 11281,3361 11296,3361 11310,3361 11324,3361 11338,3361 11352,3361 11360,3361 11374,3361 11388,3361 11402,3361 11416,3361 11431,3361 11445,3361 11459,3361 11473,3361 11487,3361 11502,3361 11516,3361 11530,3361 11544,3361 11551,3361 11565,3361 11580,3361 11594,3361 11608,3361 11622,3361 11636,3361 11651,3361 11665,3361 11679,3361 11693,3361 11707,3361 11722,3361 11736,3361 11743,3360 11757,3360 11771,3360 11786,3360 11800,3360 11814,3360 11828,3360 11842,3360 11857,3361 11871,3362 11885,3363 11899,3364 11913,3365 11921,3365 11935,3366 11949,3366 11963,3365 11977,3364 11984,3363 11992,3362 12006,3359 12020,3356 12034,3351 12041,3349 12048,3347 12063,3342 12077,3336 12091,3331 12105,3326 12112,3324 12119,3322 12126,3320 12141,3317 12155,3315 12169,3313 12183,3312 12198,3312 12212,3312 12226,3313 12240,3314 12254,3315 12269,3316 12283,3317 12297,3317 12304,3318 12318,3318 12332,3318 12347,3318 12361,3318 12375,3318 12389,3317 12403,3317 12418,3317 12432,3317 12446,3317 12460,3317 12474,3317 12482,3317 12496,3317 12510,3317 12524,3317 12538,3317 12553,3317 12567,3317 12581,3317 12595,3317 12609,3317 12624,3317 12638,3317 12652,3317 12666,3317 12673,3317 12688,3317 12702,3317 12716,3317 12730,3317 12744,3317 12759,3317 12773,3317 12787,3317 12801,3317 12815,3317 12830,3317 12844,3317 12858,3317 12865,3317 12879,3317 12893,3317 12908,3317 12922,3317 12936,3317 12950,3317 12964,3317 12979,3317 12993,3317 13007,3317 13021,3317 13036,3317 13043,3317 13057,3317 13071,3317 13085,3317 13099,3317 13114,3317 13128,3317 13142,3317 13156,3317 13170,3317 13185,3317 13199,3317 13213,3317 13227,3317 13234,3317 13249,3317 13263,3317 13277,3317 13291,3317 13305,3317 13320,3317 13334,3317 13348,3317 13362,3317 13376,3317 13391,3317 13405,3317 13419,3317 13426,3317 13440,3317 13455,3317 13469,3317 13483,3317 13497,3317 13511,3317 13526,3317 13540,3317 13554,3317 13568,3317 13582,3317 13597,3317 13604,3317 13618,3317 13632,3317 13646,3317 13660,3317 13675,3317 13689,3317 13703,3317 13717,3317 13731,3316 13746,3316 13760,3316 13774,3316 13788,3316 13795,3316 13810,3316 13824,3316 13838,3317 13852,3317 13866,3318 13881,3319 13895,3320 13909,3321 13923,3321 13937,3322 13952,3321 13966,3320 13980,3318 13987,3317 14001,3314 14016,3310 14030,3305 14044,3300 14058,3295 14072,3290 14087,3285 14094,3282 14101,3280 14115,3276 14129,3273 14143,3270 14158,3269 14165,3268 14179,3268 14193,3268 14207,3269 14221,3269 14236,3270 14243,3271 14250,3271 14264,3272 14278,3273 14292,3274 14307,3274 14321,3274 14335,3274 14349,3274 14356,3274 14371,3274 14385,3273 14399,3273 14413,3273 14427,3273 14442,3272 14456,3272 14470,3272 14484,3272 14498,3272 14513,3273 14527,3273 14541,3273 14548,3273 14562,3273 14577,3273 14591,3273 14605,3273 14619,3273 14633,3273 14648,3273 14662,3273 14676,3273 14690,3273 14704,3273 14719,3273 14726,3273 14740,3273 14754,3273 14768,3273 14783,3273 14797,3273 14811,3273 14825,3273 14839,3273 14854,3273 14868,3273 14882,3273 14896,3273 14910,3273 14917,3273 14932,3273 14946,3273 14960,3273 14974,3273 14988,3273 15003,3273 15017,3273 15031,3273 15045,3273 15059,3273 15074,3273 15088,3273 15102,3273 15109,3273 15123,3273 15138,3273 15152,3273 15166,3273 15180,3273 15194,3273 15209,3273 15223,3273 15237,3273 15251,3273 15265,3273 15280,3273 15287,3273 15301,3273 15315,3273 15329,3273 15344,3273 15358,3273 15372,3273 15386,3273 15400,3273 15415,3273 15429,3273 15443,3273 15457,3273 15471,3273 15478,3273 15493,3273 15507,3273 15521,3273 15535,3273 15549,3273 15564,3273 15578,3273 15592,3273 15606,3273 15621,3273 15635,3273 15649,3273 15656,3273 15670,3273 15684,3273 15699,3273 15713,3273 15727,3273 15741,3273 15755,3273 15770,3273 15784,3273 15798,3273 15812,3273 15826,3273 15841,3273 15848,3273 15862,3273 15876,3273 15890,3273 15905,3273 15919,3273 15933,3273 15947,3273 15961,3273 15976,3273 15990,3273 16004,3273 16018,3273 16032,3273 16040,3273 16054,3273 16068,3273 16082,3273 16096,3273 16111,3273 16125,3273 16139,3273 16153,3273 16167,3273 16182,3273 16196,3273 16210,3273 16217,3273 16231,3273 16245,3273 16260,3273 16274,3273 16288,3273 16302,3273 16316,3273 16331,3273 16345,3273 16359,3273 16373,3273 16387,3273 16402,3273 16409,3273 16423,3273 16437,3273 16451,3273 16466,3273 16480,3273 16494,3273 16508,3273 16522,3273 16537,3273 16551,3273 16565,3273 16579,3273 16593,3273 16601,3273 16615,3273 16629,3273 16643,3273 16657,3273 16672,3273 16686,3273 16700,3273 16714,3273 16728,3273 16743,3273 16757,3273 16771,3273 16778,3273 16792,3273 16806,3273 16821,3273 16835,3273 16849,3273 16863,3273 16878,3273 16892,3273 16906,3273 16920,3273 16934,3273 16949,3273 16963,3273 16970,3273 16984,3273 16998,3273 17012,3273 17027,3273 17041,3273 17055,3273 17069,3273 17083,3273 17098,3273 17112,3273 17126,3273 17140,3273 17154,3273 17162,3273 17176,3273 17190,3273 17204,3273 17218,3273 17233,3273 17247,3273 17261,3273 17275,3273 17289,3273 17304,3273 17318,3273 17332,3273 17339,3273 17353,3273 17368,3273 17382,3273 17396,3273 17410,3273 17424,3273 17439,3273 17453,3273 17467,3273 17481,3273 17495,3273 17510,3273 17524,3273 17531,3273 17545,3273 17559,3273 17573,3273 17588,3273 17602,3273 17616,3273 17630,3273 17644,3273 17659,3273 17673,3273 17687,3273 17701,3273 17715,3273 17723,3273 17737,3273 17751,3273 17765,3273 17779,3273 17794,3273 17808,3273 17822,3273 17836,3273 17850,3273 17865,3273 17879,3273 17893,3273 17900,3273 17914,3273 17929,3273 17943,3273 17957,3273 17971,3273 17985,3272 18000,3272 18014,3272 18028,3272 18042,3272 18056,3272 18071,3272 18085,3272 18092,3272 18106,3273 18120,3274 18134,3275 18149,3276 18163,3277 18177,3277 18191,3278 18206,3277 18220,3277 18234,3275 18248,3273 18262,3270 18277,3266 18284,3263 18298,3258 18305,3256 18312,3253 18326,3248 18340,3243 18355,3238 18369,3234 18383,3230 18397,3227 18411,3226 18426,3224 18440,3224 18454,3224 18461,3224 18475,3225 18490,3226 18504,3227 18518,3228 18532,3229 18546,3229 18561,3230 18575,3230 18589,3230 18603,3230 18617,3230 18632,3229 18646,3229 18653,3229 18667,3229 18681,3229 18696,3228 18710,3228 18724,3228 18738,3228 18752,3228 18767,3228 18781,3229 18795,3229 18809,3229 18823,3229 18838,3229 18845,3229 18859,3229 18873,3229 18887,3229 18901,3229 18916,3229 18930,3229 18944,3229 18958,3229 18972,3229 18987,3229 19001,3229 19015,3229 19022,3229 19036,3229 19051,3229 19065,3229 19079,3229 19093,3229 19107,3229 19122,3229 19136,3229 19150,3229 19164,3229 19178,3229 19193,3229 19207,3229 19214,3229 19228,3229 19242,3229 19257,3229 19271,3229 19285,3229 19299,3229 19313,3229 19328,3229 19342,3229 19356,3229 19370,3229 19384,3229 19399,3229 19406,3229 19420,3229 19434,3229 19448,3229 19463,3229 19477,3229 19491,3229 19505,3229 19519,3229 19534,3229 19548,3229 19562,3229 19576,3229 19583,3229 19597,3229 19612,3229 19626,3229 19640,3229 19654,3229 19668,3229 19683,3229 19697,3229 19711,3229 19725,3229 19739,3229 19754,3229 19768,3229 19775,3229 19789,3229 19803,3229"/>
 <path fill="none" stroke="rgb(0,0,0)" stroke-width="80" stroke-linejoin="round" d="M 2768,3141 L 2782,3159 2789,3168 2796,3177 2803,3186 2810,3195 2824,3213 2831,3222 2839,3231 2846,3240 2853,3248 2867,3266 2874,3275 2881,3283 2888,3292 2895,3300 2910,3317 2917,3325 2924,3333 2931,3341 2938,3349 2945,3357 2952,3365 2959,3372 2966,3379 2973,3386 2981,3393 2988,3400 2995,3407 3002,3413 3009,3419 3016,3425 3023,3430 3030,3435 3044,3445 3059,3453 3066,3457 3073,3460 3087,3466 3101,3471 3115,3475 3130,3479 3144,3482 3151,3484 3165,3487 3179,3490 3194,3493 3208,3497 3222,3501 3236,3505 3250,3509 3258,3512 3265,3514 3279,3519 3293,3523 3307,3528 3321,3533 3329,3535 3336,3537 3343,3539 3357,3544 3371,3548 3378,3550 3385,3552 3400,3556 3414,3561 3421,3563 3428,3565 3442,3569 3456,3574 3463,3576 3471,3579 3485,3584 3499,3589 3513,3595 3520,3597 3534,3603 3549,3608 3563,3613 3577,3617 3591,3621 3606,3623 3620,3625 3634,3626 3648,3627 3662,3626 3677,3626 3691,3625 3705,3624 3712,3623 3726,3623 3740,3623 3755,3625 3769,3627 3783,3630 3797,3634 3811,3638 3826,3644 3840,3649 3854,3654 3861,3657 3868,3659 3882,3664 3890,3666 3904,3670 3918,3672 3932,3674 3946,3675 3961,3676 3975,3676 3989,3675 4003,3674 4017,3673 4032,3671 4046,3670 4060,3668 4074,3666 4081,3666 4096,3664 4110,3664 4124,3663 4138,3663 4152,3664 4167,3666 4181,3668 4188,3670 4195,3671 4209,3675 4223,3680 4230,3682 4238,3684 4252,3687 4266,3690 4273,3690 4287,3689 4301,3686 4316,3680 4330,3670 4337,3663 4344,3656 4351,3647 4358,3638 4365,3629 4372,3618 4380,3607 4387,3596 4394,3584 4401,3572 4408,3559 4415,3547 4422,3534 4429,3521 4436,3509 4444,3496 4451,3484 4458,3472 4465,3460 4472,3449 4479,3438 4486,3428 4493,3419 4500,3410 4507,3401 4522,3385 4536,3371 4550,3358 4564,3347 4578,3337 4593,3328 4607,3320 4621,3314 4635,3308 4642,3305 4657,3300 4671,3296 4685,3292 4699,3288 4713,3285 4720,3283 4728,3281 4742,3277 4756,3273 4763,3270 4770,3268 4784,3263 4799,3258 4806,3255 4813,3252 4827,3247 4834,3244 4841,3242 4848,3240 4863,3236 4877,3232 4884,3231 4891,3230 4905,3228 4919,3227 4934,3228 4948,3228 4962,3229 4976,3230 4990,3231 4997,3231 5005,3231 5012,3231 5019,3231 5026,3230 5040,3229 5054,3226 5068,3222 5083,3217 5097,3212 5111,3206 5118,3204 5125,3201 5139,3196 5154,3191 5168,3187 5182,3185 5196,3183 5203,3183 5218,3183 5232,3183 5246,3184 5260,3185 5274,3186 5289,3187 5303,3187 5317,3186 5331,3183 5345,3180 5353,3178 5360,3176 5374,3171 5388,3165 5395,3163 5409,3157 5424,3152 5431,3150 5438,3147 5452,3143 5466,3141 5480,3139 5495,3138 5509,3138 5523,3139 5537,3140 5551,3141 5566,3142 5573,3142 5587,3142 5601,3141 5615,3139 5622,3138 5629,3136 5644,3132 5658,3128 5672,3123 5686,3117 5700,3112 5708,3109 5715,3107 5729,3102 5743,3098 5757,3095 5764,3094 5779,3092 5793,3091 5807,3091 5821,3091 5835,3091 5850,3092 5864,3094 5878,3095 5892,3096 5906,3098 5921,3099 5935,3100 5949,3100 5956,3101 5970,3101 5985,3101 5999,3100 6013,3099 6020,3098 6027,3097 6041,3095 6056,3092 6070,3089 6084,3085 6091,3083 6098,3081 6112,3076 6127,3071 6134,3069 6148,3064 6162,3058 6176,3052 6191,3047 6198,3044 6205,3041 6219,3035 6233,3030 6247,3025 6262,3020 6269,3018 6276,3016 6290,3013 6304,3010 6318,3008 6325,3008 6340,3007 6354,3007 6368,3008 6382,3009 6396,3010 6411,3010 6425,3011 6439,3010 6453,3009 6467,3007 6475,3006 6482,3004 6496,3000 6510,2995 6517,2993 6524,2990 6531,2987 6546,2982 6560,2977 6574,2972 6588,2968 6602,2964 6617,2961 6631,2960 6645,2959 6659,2958 6673,2958 6688,2959 6695,2959 6709,2961 6723,2962 6737,2963 6752,2965 6766,2966 6780,2968 6794,2969 6808,2970 6823,2970 6837,2970 6851,2969 6865,2968 6879,2966 6886,2964 6901,2961 6915,2957 6929,2952 6943,2947 6957,2942 6965,2939 6972,2937 6986,2932 7000,2927 7007,2925 7014,2923 7029,2920 7043,2918 7057,2917 7064,2916 7078,2916 7092,2916 7107,2916 7121,2917 7135,2918 7149,2919 7163,2920 7178,2920 7192,2920 7206,2920 7220,2920 7234,2920 7249,2920 7256,2920 7270,2919 7284,2919 7298,2920 7313,2920 7327,2921 7341,2922 7355,2923 7369,2924 7384,2925 7398,2926 7412,2925 7426,2925 7440,2923 7448,2922 7462,2918 7476,2914 7483,2911 7490,2909 7504,2903 7519,2898 7533,2892 7547,2887 7554,2884 7561,2882 7575,2879 7590,2877 7604,2876 7618,2877 7625,2877 7639,2879 7653,2882 7668,2884 7682,2886 7696,2886 7710,2885 7724,2882 7739,2876 7746,2872 7753,2868 7767,2857 7781,2844 7795,2829 7810,2814 7817,2806 7831,2791 7845,2776 7859,2762 7874,2749 7888,2739 7902,2730 7909,2727 7916,2724 7930,2718 7945,2714 7952,2713 7959,2711 7973,2709 7987,2707 8001,2704 8009,2703 8023,2700 8037,2696 8051,2691 8065,2686 8080,2681 8094,2676 8101,2673 8108,2671 8122,2666 8136,2661 8143,2660 8151,2658 8165,2656 8179,2654 8186,2654 8200,2654 8214,2654 8229,2655 8243,2656 8257,2657 8271,2658 8286,2657 8300,2656 8314,2654 8328,2651 8342,2647 8357,2642 8371,2637 8378,2635 8385,2632 8392,2629 8406,2624 8420,2619 8435,2615 8449,2611 8463,2609 8477,2607 8491,2607 8506,2606 8520,2607 8534,2607 8541,2608 8548,2608 8562,2610 8570,2610 8584,2611 8598,2612 8612,2612 8626,2613 8641,2613 8655,2613 8669,2613 8683,2612 8697,2612 8712,2612 8726,2612 8740,2611 8747,2611 8761,2611 8776,2611 8790,2611 8804,2611 8818,2611 8832,2611 8847,2611 8861,2611 8875,2611 8889,2612 8903,2612 8918,2612 8932,2612 8939,2612 8953,2612 8967,2612 8981,2612 8996,2612 9010,2612 9024,2611 9038,2611 9052,2611 9067,2611 9081,2611 9095,2611 9109,2611 9123,2611 9131,2611 9145,2611 9159,2611 9173,2611 9187,2612 9202,2612 9216,2612 9230,2612 9244,2612 9258,2611 9273,2611 9287,2611 9301,2611 9308,2611 9322,2611 9337,2611 9351,2611 9365,2611 9379,2611 9393,2611 9408,2611 9422,2611 9436,2611 9450,2611 9464,2611 9479,2611 9493,2611 9500,2611 9514,2611 9528,2611 9542,2611 9557,2611 9571,2611 9585,2611 9599,2611 9614,2611 9628,2611 9642,2611 9656,2611 9670,2611 9685,2611 9692,2611 9706,2611 9720,2611 9734,2611 9748,2611 9763,2611 9777,2611 9791,2611 9805,2611 9819,2611 9834,2611 9848,2611 9862,2611 9869,2611 9883,2611 9898,2611 9912,2611 9926,2611 9940,2611 9954,2611 9969,2611 9983,2611 9997,2611 10011,2611 10025,2611 10040,2611 10054,2611 10061,2611 10075,2611 10089,2611 10104,2611 10118,2611 10132,2611 10146,2611 10160,2611 10175,2611 10189,2611 10203,2611 10217,2611 10231,2611 10246,2611 10253,2611 10267,2611 10281,2611 10295,2611 10309,2611 10324,2611 10338,2611 10352,2611 10366,2611 10380,2611 10395,2611 10409,2611 10423,2611 10430,2611 10443,2611 10458,2611 10472,2611 10486,2611 10500,2611 10514,2611 10529,2611 10543,2611 10557,2611 10571,2611 10585,2611 10600,2611 10614,2611 10621,2611 10635,2611 10649,2611 10664,2611 10678,2611 10692,2611 10706,2611 10720,2611 10735,2611 10749,2611 10763,2611 10777,2612 10791,2612 10806,2612 10813,2612 10827,2612 10841,2611 10855,2611 10870,2611 10884,2611 10898,2611 10912,2611 10926,2611 10941,2611 10955,2611 10969,2611 10983,2611 10990,2611 11004,2611 11019,2612 11033,2612 11047,2612 11061,2612 11075,2612 11090,2612 11104,2612 11118,2612 11132,2612 11146,2611 11161,2611 11175,2611 11182,2611 11196,2611 11210,2611 11225,2611 11239,2611 11253,2611 11267,2611 11281,2611 11296,2612 11310,2612 11324,2612 11338,2612 11352,2613 11360,2613 11374,2613 11388,2613 11402,2613 11416,2612 11431,2611 11445,2611 11459,2610 11473,2609 11487,2608 11502,2607 11516,2607 11530,2607 11544,2608 11551,2608 11565,2610 11580,2613 11594,2617 11608,2621 11615,2623 11622,2626 11636,2631 11651,2636 11665,2641 11679,2646 11686,2648 11693,2650 11707,2654 11722,2657 11736,2659 11743,2659 11757,2660 11771,2660 11786,2660 11800,2659 11814,2658 11828,2657 11842,2656 11857,2656 11871,2655 11885,2655 11899,2654 11913,2654 11921,2654 11935,2654 11949,2655 11963,2655 11977,2655 11992,2655 12006,2656 12020,2656 12034,2656 12048,2656 12063,2656 12077,2656 12091,2656 12105,2656 12112,2656 12126,2656 12141,2656 12155,2656 12169,2656 12183,2655 12198,2655 12212,2655 12226,2656 12240,2656 12254,2656 12269,2656 12283,2656 12297,2656 12304,2656 12318,2656 12332,2656 12347,2656 12361,2656 12375,2656 12389,2656 12403,2656 12418,2656 12432,2656 12446,2656 12460,2656 12474,2656 12482,2656 12496,2656 12510,2656 12524,2656 12538,2656 12553,2656 12567,2656 12581,2656 12595,2656 12609,2656 12624,2656 12638,2656 12652,2656 12666,2656 12673,2656 12688,2656 12702,2656 12716,2656 12730,2656 12744,2656 12759,2656 12773,2656 12787,2656 12801,2656 12815,2656 12830,2656 12844,2656 12858,2656 12865,2656 12879,2656 12893,2656 12908,2656 12922,2656 12936,2656 12950,2656 12964,2656 12979,2656 12993,2656 13007,2656 13021,2656 13036,2656 13043,2656 13057,2656 13071,2656 13085,2656 13099,2656 13114,2656 13128,2656 13142,2656 13156,2655 13170,2655 13185,2655 13199,2655 13213,2655 13227,2655 13234,2655 13249,2655 13263,2655 13277,2656 13291,2656 13305,2656 13320,2656 13334,2657 13348,2657 13362,2657 13376,2657 13391,2657 13405,2656 13419,2656 13426,2655 13440,2654 13455,2653 13469,2652 13483,2651 13497,2651 13511,2651 13526,2651 13540,2652 13554,2654 13568,2657 13582,2661 13589,2663 13597,2665 13604,2667 13618,2672 13625,2675 13632,2678 13646,2683 13660,2688 13675,2692 13689,2696 13703,2700 13710,2701 13717,2702 13731,2703 13746,2704 13760,2704 13774,2704 13788,2703 13795,2703 13810,2702 13824,2701 13831,2701 13838,2700 13852,2699 13866,2699 13881,2699 13895,2698 13909,2698 13923,2699 13937,2699 13952,2699 13966,2699 13980,2700 13987,2700 14001,2700 14016,2700 14030,2700 14044,2700 14058,2700 14072,2700 14087,2700 14101,2700 14115,2700 14129,2700 14143,2700 14158,2700 14165,2700 14179,2700 14193,2700 14207,2700 14221,2700 14236,2700 14250,2700 14264,2700 14278,2700 14292,2700 14307,2700 14321,2700 14335,2700 14349,2700 14356,2700 14371,2700 14385,2700 14399,2700 14413,2700 14427,2700 14442,2700 14456,2700 14470,2700 14484,2700 14498,2700 14513,2700 14527,2700 14541,2700 14548,2700 14562,2700 14577,2700 14591,2700 14605,2700 14619,2700 14633,2700 14648,2700 14662,2700 14676,2700 14690,2700 14704,2700 14719,2700 14726,2700 14740,2700 14754,2700 14768,2700 14783,2700 14797,2700 14811,2700 14825,2700 14839,2700 14854,2700 14868,2700 14882,2700 14896,2700 14910,2700 14917,2700 14932,2700 14946,2700 14960,2700 14974,2700 14988,2700 15003,2700 15017,2700 15031,2700 15045,2700 15059,2700 15074,2700 15088,2700 15102,2700 15109,2700 15123,2700 15138,2700 15152,2700 15166,2700 15180,2700 15194,2700 15209,2700 15223,2700 15237,2700 15251,2700 15265,2700 15280,2700 15287,2700 15301,2700 15315,2700 15329,2700 15344,2700 15358,2700 15372,2700 15386,2700 15400,2700 15415,2700 15429,2700 15443,2700 15457,2700 15471,2700 15478,2700 15493,2700 15507,2700 15521,2700 15535,2700 15549,2700 15564,2700 15578,2700 15592,2700 15606,2700 15621,2700 15635,2700 15649,2700 15656,2700 15670,2700 15684,2700 15699,2700 15713,2700 15727,2700 15741,2700 15755,2700 15770,2700 15784,2700 15798,2700 15812,2700 15826,2700 15841,2700 15848,2700 15862,2700 15876,2700 15890,2700 15905,2700 15919,2700 15933,2700 15947,2700 15961,2700 15976,2700 15990,2700 16004,2700 16018,2700 16032,2700 16040,2700 16054,2700 16068,2700 16082,2700 16096,2700 16111,2700 16125,2700 16139,2700 16153,2700 16167,2700 16182,2700 16196,2700 16210,2700 16217,2700 16231,2700 16245,2700 16260,2700 16274,2700 16288,2700 16302,2700 16316,2700 16331,2700 16345,2700 16359,2700 16373,2700 16387,2700 16402,2700 16409,2700 16423,2700 16437,2699 16451,2699 16466,2699 16480,2699 16494,2699 16508,2699 16522,2699 16537,2700 16551,2700 16565,2700 16579,2700 16593,2701 16601,2701 16615,2701 16629,2701 16643,2701 16657,2701 16664,2701 16672,2700 16686,2700 16700,2699 16714,2698 16728,2697 16743,2696 16757,2695 16771,2695 16778,2695 16792,2695 16806,2696 16821,2698 16835,2701 16849,2705 16863,2709 16878,2714 16892,2719 16906,2724 16920,2729 16934,2734 16949,2739 16956,2741 16963,2742 16970,2744 16984,2746 16998,2748 17012,2748 17027,2748 17041,2748 17055,2748 17069,2747 17083,2746 17098,2745 17112,2744 17126,2743 17140,2743 17154,2743 17162,2742 17176,2743 17190,2743 17204,2743 17218,2743 17233,2743 17247,2744 17261,2744 17275,2744 17289,2744 17304,2744 17318,2744 17332,2744 17339,2744 17353,2744 17368,2744 17382,2744 17396,2744 17410,2744 17424,2744 17439,2744 17453,2744 17467,2744 17481,2744 17495,2744 17510,2744 17524,2744 17531,2744 17545,2744 17559,2744 17573,2744 17588,2744 17602,2744 17616,2744 17630,2744 17644,2744 17659,2744 17673,2744 17687,2744 17701,2744 17715,2744 17723,2744 17737,2744 17751,2744 17765,2744 17779,2744 17794,2744 17808,2744 17822,2744 17836,2744 17850,2744 17865,2744 17879,2744 17893,2744 17900,2744 17914,2744 17929,2744 17943,2744 17957,2744 17971,2744 17985,2744 18000,2744 18014,2744 18028,2744 18042,2744 18056,2744 18071,2744 18085,2744 18092,2744 18106,2744 18120,2744 18134,2744 18149,2744 18163,2744 18177,2744 18191,2744 18206,2744 18220,2744 18234,2744 18248,2744 18262,2744 18277,2744 18284,2744 18298,2744 18312,2744 18326,2744 18340,2744 18355,2744 18369,2744 18383,2744 18397,2744 18411,2744 18426,2744 18440,2744 18454,2744 18461,2744 18475,2744 18490,2744 18504,2744 18518,2744 18532,2744 18546,2744 18561,2744 18575,2744 18589,2744 18603,2744 18617,2744 18632,2744 18646,2744 18653,2744 18667,2744 18681,2744 18696,2744 18710,2744 18724,2744 18738,2744 18752,2744 18767,2744 18781,2744 18795,2744 18809,2744 18823,2744 18838,2744 18845,2744 18859,2744 18873,2744 18887,2744 18901,2744 18916,2744 18930,2744 18944,2744 18958,2744 18972,2744 18987,2744 19001,2744 19015,2744 19022,2744 19036,2744 19051,2744 19065,2744 19079,2744 19093,2744 19107,2744 19122,2744 19136,2744 19150,2744 19164,2744 19178,2744 19193,2744 19207,2744 19214,2744 19228,2744 19242,2744 19257,2744 19271,2744 19285,2744 19299,2744 19313,2744 19328,2744 19342,2744 19356,2744 19370,2744 19384,2744 19399,2744 19406,2744 19420,2744 19434,2744 19448,2744 19463,2744 19477,2744 19491,2744 19505,2744 19519,2744 19534,2744 19548,2744 19562,2744 19576,2744 19583,2744 19597,2744 19612,2744 19626,2744 19640,2744 19654,2744 19668,2744 19683,2744 19697,2744 19711,2744 19725,2744 19739,2744 19754,2744 19768,2744 19775,2744 19789,2744 19803,2744"/>
 <text class="TextShape"><tspan class="TextParagraph" font-family="Liberation Sans, sans-serif" font-size="564px" font-weight="400"><tspan class="TextPosition" x="2134" y="10109"><tspan fill="rgb(0,0,0)" stroke="none">2000</tspan></tspan></tspan></text>
 <text class="TextShape"><tspan class="TextParagraph" font-family="Liberation Sans, sans-serif" font-size="564px" font-weight="400"><tspan class="TextPosition" x="5541" y="10109"><tspan fill="rgb(0,0,0)" stroke="none">2002</tspan></tspan></tspan></text>
 <text class="TextShape"><tspan class="TextParagraph" font-family="Liberation Sans, sans-serif" font-size="564px" font-weight="400"><tspan class="TextPosition" x="8950" y="10109"><tspan fill="rgb(0,0,0)" stroke="none">2004</tspan></tspan></tspan></text>
 <text class="TextShape"><tspan class="TextParagraph" font-family="Liberation Sans, sans-serif" font-size="564px" font-weight="400"><tspan class="TextPosition" x="12359" y="10109"><tspan fill="rgb(0,0,0)" stroke="none">2006</tspan></tspan></tspan></text>
 <text class="TextShape"><tspan class="TextParagraph" font-family="Liberation Sans, sans-serif" font-size="564px" font-weight="400"><tspan class="TextPosition" x="15767" y="10109"><tspan fill="rgb(0,0,0)" stroke="none">2008</tspan></tspan></tspan></text>
 <text class="TextShape"><tspan class="TextParagraph" font-family="Liberation Sans, sans-serif" font-size="564px" font-weight="400"><tspan class="TextPosition" x="19175" y="10109"><tspan fill="rgb(0,0,0)" stroke="none">2010</tspan></tspan></tspan></text>
 <text class="TextShape"><tspan class="TextParagraph" font-family="Liberation Sans, sans-serif" font-size="564px" font-weight="400"><tspan class="TextPosition" x="2129" y="9555"><tspan fill="rgb(0,0,0)" stroke="none">0</tspan></tspan></tspan></text>
 <text class="TextShape"><tspan class="TextParagraph" font-family="Liberation Sans, sans-serif" font-size="564px" font-weight="400"><tspan class="TextPosition" x="2129" y="7351"><tspan fill="rgb(0,0,0)" stroke="none">5</tspan></tspan></tspan></text>
 <text class="TextShape"><tspan class="TextParagraph" font-family="Liberation Sans, sans-serif" font-size="564px" font-weight="400"><tspan class="TextPosition" x="1812" y="5147"><tspan fill="rgb(0,0,0)" stroke="none">10</tspan></tspan></tspan></text>
 <text class="TextShape"><tspan class="TextParagraph" font-family="Liberation Sans, sans-serif" font-size="564px" font-weight="400"><tspan class="TextPosition" x="1812" y="2944"><tspan fill="rgb(0,0,0)" stroke="none">15</tspan></tspan></tspan></text>
 <text class="TextShape"><tspan class="TextParagraph" font-family="Liberation Sans, sans-serif" font-size="564px" font-weight="400"><tspan class="TextPosition" x="1812" y="740"><tspan fill="rgb(0,0,0)" stroke="none">20</tspan></tspan></tspan></text>
 <text class="TextShape"><tspan class="TextParagraph" font-family="Liberation Sans, sans-serif" font-size="564px" font-weight="400"><tspan class="TextPosition" x="10388" y="11125"><tspan fill="rgb(0,0,0)" stroke="none">Years</tspan></tspan></tspan></text>
 <text class="TextShape" transform="rotate(-90 1119 7091)"><tspan class="TextParagraph" font-family="Liberation Sans, sans-serif" font-size="564px" font-weight="400"><tspan class="TextPosition" x="1119" y="7091"><tspan fill="rgb(0,0,0)" stroke="none">Pressure, MPa</tspan></tspan></tspan></text>
</svg>