<svg version="1.1" viewBox="0.0 0.0 275.0 371.0" fill="none" stroke="none" stroke-linecap="square" stroke-miterlimit="10" width="275" height="371" xmlns:xlink="http://www.w3.org/1999/xlink" xmlns="http://www.w3.org/2000/svg"><path fill="#ffffff" d="M0 0L275.0 0L275.0 371.0L0 371.0L0 0Z" fill-rule="nonzero"/><path stroke="#cccccc" stroke-width="1.0" stroke-linecap="butt" d="M52.5 23.5L52.5 263.5" fill-rule="nonzero"/><path stroke="#cccccc" stroke-width="1.0" stroke-linecap="butt" d="M97.5 23.5L97.5 263.5" fill-rule="nonzero"/><path stroke="#cccccc" stroke-width="1.0" stroke-linecap="butt" d="M142.5 23.5L142.5 263.5" fill-rule="nonzero"/><path stroke="#cccccc" stroke-width="1.0" stroke-linecap="butt" d="M187.5 23.5L187.5 263.5" fill-rule="nonzero"/><path stroke="#333333" stroke-width="1.0" stroke-linecap="butt" d="M52.5 263.5L187.5 263.5" fill-rule="nonzero"/><path stroke="#cccccc" stroke-width="1.0" stroke-linecap="butt" d="M52.5 215.5L187.5 215.5" fill-rule="nonzero"/><path stroke="#cccccc" stroke-width="1.0" stroke-linecap="butt" d="M52.5 167.5L187.5 167.5" fill-rule="nonzero"/><path stroke="#cccccc" stroke-width="1.0" stroke-linecap="butt" d="M52.5 119.5L187.5 119.5" fill-rule="nonzero"/><path stroke="#cccccc" stroke-width="1.0" stroke-linecap="butt" d="M52.5 71.5L187.5 71.5" fill-rule="nonzero"/><path stroke="#cccccc" stroke-width="1.0" stroke-linecap="butt" d="M52.5 23.5L187.5 23.5" fill-rule="nonzero"/><clipPath id="id_0"><path d="M52.75 23.25L187.0 23.25L187.0 263.52277L52.75 263.52277L52.75 23.25Z" clip-rule="nonzero"/></clipPath><path stroke="#000000" stroke-width="2.0" stroke-linecap="butt" clip-path="url(#id_0)" d="M52.75 118.32299L56.54722 118.36849L59.976963 118.41262L63.774178 118.45539L67.448906 118.49686L71.246124 118.53705L74.920845 118.576L78.71806 118.61373L82.51528 118.6503L86.19001 118.68574L89.98723 118.72006L93.66195 118.75332L97.45917 118.78554L101.256386 118.81675L104.808624 118.84698L108.60584 118.87626L112.28056 118.904625L116.07778 118.93209L119.75251 118.9587L123.54973 118.984474L127.34695 119.00944L131.02167 119.03361L134.8189 119.05702L138.4936 119.0797L142.29083 119.10166L146.08804 119.122925L149.51779 119.143524L153.315 119.16347L156.98973 119.18278L160.78696 119.201485L164.46169 119.2196L168.2589 119.237144L172.0561 119.25413L175.73083 119.270584L179.52806 119.286514L183.20279 119.30194L187.0 119.31689" fill-rule="nonzero"/><path stroke="#000000" stroke-width="2.0" stroke-linecap="butt" stroke-dasharray="8.0,6.0,2.0,6.0" clip-path="url(#id_0)" d="M52.75 118.32299L56.54722 118.36849L59.976963 118.41262L63.774178 118.45539L67.448906 118.49686L71.246124 118.53705L74.920845 118.576L78.71806 118.61373L82.51528 118.6503L86.19001 118.68574L89.98723 118.72006L93.66195 118.75332L97.45917 127.773865L101.256386 132.28622L104.808624 135.3521L108.60584 137.5848L112.28056 139.2946L116.07778 140.65399L119.75251 141.76407L123.54973 142.68727L127.34695 143.4645L131.02167 144.12407L134.8189 144.68675L138.4936 145.16847L142.29083 145.58186L146.08804 145.93726L149.51779 146.24323L153.315 146.50694L156.98973 146.7345L160.78696 146.93108L164.46169 147.10109L168.2589 147.24829L172.0561 147.37593L175.73083 147.48674L179.52806 147.58311L183.20279 147.66707L187.0 147.74034" fill-rule="nonzero"/><path stroke="#000000" stroke-width="2.0" stroke-linecap="butt" stroke-dasharray="8.0,6.0" clip-path="url(#id_0)" d="M52.75 118.32299L56.54722 118.36849L59.976963 118.41262L63.774178 118.45539L67.448906 118.49686L71.246124 118.53705L74.920845 118.576L78.71806 118.61373L82.51528 118.6503L86.19001 118.68574L89.98723 118.72006L93.66195 118.75332L97.45917 100.80889L101.256386 91.877785L104.808624 85.83673L108.60584 81.459206L112.28056 78.12467L116.07778 75.488304L119.75251 73.34799L123.54973 71.57888L127.34695 70.09932L131.02167 68.85269L134.8189 67.79756L138.4936 66.90216L142.29083 66.14125L146.08804 65.49426L149.51779 64.94413L153.315 64.476524L156.98973 64.079346L160.78696 63.742306L164.46169 63.456635L168.2589 63.21484L172.0561 63.010532L175.73083 62.83825L179.52806 62.693306L183.20279 62.571693L187.0 62.46999" fill-rule="nonzero"/><path fill="#000000" fill-opacity="0.0" clip-path="url(#id_0)" d="M55.75 118.32299C55.75 119.97984 54.406853 121.32299 52.75 121.32299C51.093147 121.32299 49.75 119.97984 49.75 118.32299C49.75 116.66614 51.093147 115.32299 52.75 115.32299C54.406853 115.32299 55.75 116.66614 55.75 118.32299Z" fill-rule="nonzero"/><path fill="#000000" fill-opacity="0.0" clip-path="url(#id_0)" d="M59.54722 118.36849C59.54722 120.02535 58.20407 121.36849 56.54722 121.36849C54.89036 121.36849 53.54722 120.02535 53.54722 118.36849C53.54722 116.71164 54.89036 115.36849 56.54722 115.36849C58.20407 115.36849 59.54722 116.71164 59.54722 118.36849Z" fill-rule="nonzero"/><path fill="#000000" fill-opacity="0.0" clip-path="url(#id_0)" d="M62.976963 118.41262C62.976963 120.06947 61.633816 121.41262 59.976963 121.41262C58.320107 121.41262 56.976963 120.06947 56.976963 118.41262C56.976963 116.75576 58.320107 115.41262 59.976963 115.41262C61.633816 115.41262 62.976963 116.75576 62.976963 118.41262Z" fill-rule="nonzero"/><path fill="#000000" fill-opacity="0.0" clip-path="url(#id_0)" d="M66.77418 118.45539C66.77418 120.11225 65.43103 121.45539 63.774178 121.45539C62.117325 121.45539 60.774178 120.11225 60.774178 118.45539C60.774178 116.79854 62.117325 115.45539 63.774178 115.45539C65.43103 115.45539 66.77418 116.79854 66.77418 118.45539Z" fill-rule="nonzero"/><path fill="#000000" fill-opacity="0.0" clip-path="url(#id_0)" d="M70.448906 118.49686C70.448906 120.15371 69.10576 121.49686 67.448906 121.49686C65.79205 121.49686 64.448906 120.15371 64.448906 118.49686C64.448906 116.840004 65.79205 115.49686 67.448906 115.49686C69.10576 115.49686 70.448906 116.840004 70.448906 118.49686Z" fill-rule="nonzero"/><path fill="#000000" fill-opacity="0.0" clip-path="url(#id_0)" d="M74.246124 118.53705C74.246124 120.1939 72.90298 121.53705 71.246124 121.53705C69.58927 121.53705 68.246124 120.1939 68.246124 118.53705C68.246124 116.880196 69.58927 115.53705 71.246124 115.53705C72.90298 115.53705 74.246124 116.880196 74.246124 118.53705Z" fill-rule="nonzero"/><path fill="#000000" fill-opacity="0.0" clip-path="url(#id_0)" d="M77.920845 118.576C77.920845 120.23285 76.577705 121.576 74.920845 121.576C73.26399 121.576 71.920845 120.23285 71.920845 118.576C71.920845 116.919136 73.26399 115.576 74.920845 115.576C76.577705 115.576 77.920845 116.919136 77.920845 118.576Z" fill-rule="nonzero"/><path fill="#000000" fill-opacity="0.0" clip-path="url(#id_0)" d="M81.71806 118.61373C81.71806 120.270584 80.37492 121.61373 78.71806 121.61373C77.06121 121.61373 75.71806 120.270584 75.71806 118.61373C75.71806 116.95688 77.06121 115.61373 78.71806 115.61373C80.37492 115.61373 81.71806 116.95688 81.71806 118.61373Z" fill-rule="nonzero"/><path fill="#000000" fill-opacity="0.0" clip-path="url(#id_0)" d="M85.51528 118.6503C85.51528 120.30716 84.172134 121.6503 82.51528 121.6503C80.85843 121.6503 79.51528 120.30716 79.51528 118.6503C79.51528 116.99345 80.85843 115.6503 82.51528 115.6503C84.172134 115.6503 85.51528 116.99345 85.51528 118.6503Z" fill-rule="nonzero"/><path fill="#000000" fill-opacity="0.0" clip-path="url(#id_0)" d="M89.19001 118.68574C89.19001 120.34259 87.84686 121.68574 86.19001 121.68574C84.53316 121.68574 83.19001 120.34259 83.19001 118.68574C83.19001 117.02888 84.53316 115.68574 86.19001 115.68574C87.84686 115.68574 89.19001 117.02888 89.19001 118.68574Z" fill-rule="nonzero"/><path fill="#000000" fill-opacity="0.0" clip-path="url(#id_0)" d="M92.98723 118.72006C92.98723 120.376915 91.64408 121.72006 89.98723 121.72006C88.330376 121.72006 86.98723 120.376915 86.98723 118.72006C86.98723 117.06321 88.330376 115.72006 89.98723 115.72006C91.64408 115.72006 92.98723 117.06321 92.98723 118.72006Z" fill-rule="nonzero"/><path fill="#000000" fill-opacity="0.0" clip-path="url(#id_0)" d="M96.66195 118.75332C96.66195 120.41018 95.31881 121.75332 93.66195 121.75332C92.0051 121.75332 90.66195 120.41018 90.66195 118.75332C90.66195 117.096466 92.0051 115.75332 93.66195 115.75332C95.31881 115.75332 96.66195 117.096466 96.66195 118.75332Z" fill-rule="nonzero"/><path fill="#000000" fill-opacity="0.0" clip-path="url(#id_0)" d="M100.45917 118.78554C100.45917 120.44239 99.11602 121.78554 97.45917 121.78554C95.802315 121.78554 94.45917 120.44239 94.45917 118.78554C94.45917 117.128685 95.802315 115.78554 97.45917 115.78554C99.11602 115.78554 100.45917 117.128685 100.45917 118.78554Z" fill-rule="nonzero"/><path fill="#000000" fill-opacity="0.0" clip-path="url(#id_0)" d="M104.256386 118.81675C104.256386 120.4736 102.91324 121.81675 101.256386 121.81675C99.59953 121.81675 98.256386 120.4736 98.256386 118.81675C98.256386 117.1599 99.59953 115.81675 101.256386 115.81675C102.91324 115.81675 104.256386 117.1599 104.256386 118.81675Z" fill-rule="nonzero"/><path fill="#000000" fill-opacity="0.0" clip-path="url(#id_0)" d="M107.808624 118.84698C107.808624 120.50383 106.46548 121.84698 104.808624 121.84698C103.15177 121.84698 101.808624 120.50383 101.808624 118.84698C101.808624 117.190125 103.15177 115.84698 104.808624 115.84698C106.46548 115.84698 107.808624 117.190125 107.808624 118.84698Z" fill-rule="nonzero"/><path fill="#000000" fill-opacity="0.0" clip-path="url(#id_0)" d="M111.60584 118.87626C111.60584 120.53311 110.262695 121.87626 108.60584 121.87626C106.94898 121.87626 105.60584 120.53311 105.60584 118.87626C105.60584 117.219406 106.94898 115.87626 108.60584 115.87626C110.262695 115.87626 111.60584 117.219406 111.60584 118.87626Z" fill-rule="nonzero"/><path fill="#000000" fill-opacity="0.0" clip-path="url(#id_0)" d="M115.28056 118.904625C115.28056 120.56148 113.93742 121.904625 112.28056 121.904625C110.62371 121.904625 109.28056 120.56148 109.28056 118.904625C109.28056 117.247765 110.62371 115.904625 112.28056 115.904625C113.93742 115.904625 115.28056 117.247765 115.28056 118.904625Z" fill-rule="nonzero"/><path fill="#000000" fill-opacity="0.0" clip-path="url(#id_0)" d="M119.07778 118.93209C119.07778 120.58895 117.734634 121.93209 116.07778 121.93209C114.42093 121.93209 113.07778 120.58895 113.07778 118.93209C113.07778 117.27524 114.42093 115.93209 116.07778 115.93209C117.734634 115.93209 119.07778 117.27524 119.07778 118.93209Z" fill-rule="nonzero"/><path fill="#000000" fill-opacity="0.0" clip-path="url(#id_0)" d="M122.75251 118.9587C122.75251 120.615555 121.40936 121.9587 119.75251 121.9587C118.09566 121.9587 116.75251 120.615555 116.75251 118.9587C116.75251 117.30185 118.09566 115.9587 119.75251 115.9587C121.40936 115.9587 122.75251 117.30185 122.75251 118.9587Z" fill-rule="nonzero"/><path fill="#000000" fill-opacity="0.0" clip-path="url(#id_0)" d="M126.54973 118.984474C126.54973 120.64133 125.20658 121.984474 123.54973 121.984474C121.892876 121.984474 120.54973 120.64133 120.54973 118.984474C120.54973 117.32762 121.892876 115.984474 123.54973 115.984474C125.20658 115.984474 126.54973 117.32762 126.54973 118.984474Z" fill-rule="nonzero"/><path fill="#000000" fill-opacity="0.0" clip-path="url(#id_0)" d="M130.34694 119.00944C130.34694 120.66629 129.0038 122.00944 127.34695 122.00944C125.69009 122.00944 124.34695 120.66629 124.34695 119.00944C124.34695 117.35258 125.69009 116.00944 127.34695 116.00944C129.0038 116.00944 130.34694 117.35258 130.34694 119.00944Z" fill-rule="nonzero"/><path fill="#000000" fill-opacity="0.0" clip-path="url(#id_0)" d="M134.02167 119.03361C134.02167 120.69047 132.67853 122.03361 131.02167 122.03361C129.36482 122.03361 128.02167 120.69047 128.02167 119.03361C128.02167 117.376755 129.36482 116.03361 131.02167 116.03361C132.67853 116.03361 134.02167 117.376755 134.02167 119.03361Z" fill-rule="nonzero"/><path fill="#000000" fill-opacity="0.0" clip-path="url(#id_0)" d="M137.8189 119.05702C137.8189 120.713875 136.47574 122.05702 134.8189 122.05702C133.16203 122.05702 131.8189 120.713875 131.8189 119.05702C131.8189 117.40017 133.16203 116.05702 134.8189 116.05702C136.47574 116.05702 137.8189 117.40017 137.8189 119.05702Z" fill-rule="nonzero"/><path fill="#000000" fill-opacity="0.0" clip-path="url(#id_0)" d="M141.4936 119.0797C141.4936 120.73655 140.15047 122.0797 138.4936 122.0797C136.83676 122.0797 135.4936 120.73655 135.4936 119.0797C135.4936 117.422844 136.83676 116.0797 138.4936 116.0797C140.15047 116.0797 141.4936 117.422844 141.4936 119.0797Z" fill-rule="nonzero"/><path fill="#000000" fill-opacity="0.0" clip-path="url(#id_0)" d="M145.29083 119.10166C145.29083 120.758514 143.94768 122.10166 142.29083 122.10166C140.63397 122.10166 139.29083 120.758514 139.29083 119.10166C139.29083 117.4448 140.63397 116.10166 142.29083 116.10166C143.94768 116.10166 145.29083 117.4448 145.29083 119.10166Z" fill-rule="nonzero"/><path fill="#000000" fill-opacity="0.0" clip-path="url(#id_0)" d="M149.08804 119.122925C149.08804 120.77978 147.7449 122.122925 146.08804 122.122925C144.4312 122.122925 143.08804 120.77978 143.08804 119.122925C143.08804 117.46607 144.4312 116.122925 146.08804 116.122925C147.7449 116.122925 149.08804 117.46607 149.08804 119.122925Z" fill-rule="nonzero"/><path fill="#000000" fill-opacity="0.0" clip-path="url(#id_0)" d="M152.51779 119.143524C152.51779 120.80038 151.17465 122.143524 149.51779 122.143524C147.86093 122.143524 146.51779 120.80038 146.51779 119.143524C146.51779 117.486664 147.86093 116.143524 149.51779 116.143524C151.17465 116.143524 152.51779 117.486664 152.51779 119.143524Z" fill-rule="nonzero"/><path fill="#000000" fill-opacity="0.0" clip-path="url(#id_0)" d="M156.315 119.16347C156.315 120.82032 154.97186 122.16347 153.315 122.16347C151.65816 122.16347 150.315 120.82032 150.315 119.16347C150.315 117.50661 151.65816 116.16347 153.315 116.16347C154.97186 116.16347 156.315 117.50661 156.315 119.16347Z" fill-rule="nonzero"/><path fill="#000000" fill-opacity="0.0" clip-path="url(#id_0)" d="M159.98973 119.18278C159.98973 120.83964 158.64659 122.18278 156.98973 122.18278C155.33289 122.18278 153.98973 120.83964 153.98973 119.18278C153.98973 117.525925 155.33289 116.18278 156.98973 116.18278C158.64659 116.18278 159.98973 117.525925 159.98973 119.18278Z" fill-rule="nonzero"/><path fill="#000000" fill-opacity="0.0" clip-path="url(#id_0)" d="M163.78696 119.201485C163.78696 120.85834 162.4438 122.201485 160.78696 122.201485C159.1301 122.201485 157.78696 120.85834 157.78696 119.201485C157.78696 117.54463 159.1301 116.201485 160.78696 116.201485C162.4438 116.201485 163.78696 117.54463 163.78696 119.201485Z" fill-rule="nonzero"/><path fill="#000000" fill-opacity="0.0" clip-path="url(#id_0)" d="M167.46169 119.2196C167.46169 120.87646 166.11853 122.2196 164.46169 122.2196C162.80482 122.2196 161.46169 120.87646 161.46169 119.2196C161.46169 117.562744 162.80482 116.2196 164.46169 116.2196C166.11853 116.2196 167.46169 117.562744 167.46169 119.2196Z" fill-rule="nonzero"/><path fill="#000000" fill-opacity="0.0" clip-path="url(#id_0)" d="M171.2589 119.237144C171.2589 120.894 169.91576 122.237144 168.2589 122.237144C166.60204 122.237144 165.2589 120.894 165.2589 119.237144C165.2589 117.580284 166.60204 116.237144 168.2589 116.237144C169.91576 116.237144 171.2589 117.580284 171.2589 119.237144Z" fill-rule="nonzero"/><path fill="#000000" fill-opacity="0.0" clip-path="url(#id_0)" d="M175.0561 119.25413C175.0561 120.91098 173.71297 122.25413 172.0561 122.25413C170.39926 122.25413 169.0561 120.91098 169.0561 119.25413C169.0561 117.597275 170.39926 116.25413 172.0561 116.25413C173.71297 116.25413 175.0561 117.597275 175.0561 119.25413Z" fill-rule="nonzero"/><path fill="#000000" fill-opacity="0.0" clip-path="url(#id_0)" d="M178.73083 119.270584C178.73083 120.92744 177.3877 122.270584 175.73083 122.270584C174.07399 122.270584 172.73083 120.92744 172.73083 119.270584C172.73083 117.61372 174.07399 116.270584 175.73083 116.270584C177.3877 116.270584 178.73083 117.61372 178.73083 119.270584Z" fill-rule="nonzero"/><path fill="#000000" fill-opacity="0.0" clip-path="url(#id_0)" d="M182.52806 119.286514C182.52806 120.94337 181.1849 122.286514 179.52806 122.286514C177.8712 122.286514 176.52806 120.94337 176.52806 119.286514C176.52806 117.62966 177.8712 116.286514 179.52806 116.286514C181.1849 116.286514 182.52806 117.62966 182.52806 119.286514Z" fill-rule="nonzero"/><path fill="#000000" fill-opacity="0.0" clip-path="url(#id_0)" d="M186.20279 119.30194C186.20279 120.95879 184.85963 122.30194 183.20279 122.30194C181.54593 122.30194 180.20279 120.95879 180.20279 119.30194C180.20279 117.64509 181.54593 116.30194 183.20279 116.30194C184.85963 116.30194 186.20279 117.64509 186.20279 119.30194Z" fill-rule="nonzero"/><path fill="#000000" fill-opacity="0.0" clip-path="url(#id_0)" d="M190.0 119.31689C190.0 120.97374 188.65686 122.31689 187.0 122.31689C185.34314 122.31689 184.0 120.97374 184.0 119.31689C184.0 117.66003 185.34314 116.31689 187.0 116.31689C188.65686 116.31689 190.0 117.66003 190.0 119.31689Z" fill-rule="nonzero"/><path fill="#000000" fill-opacity="0.0" clip-path="url(#id_0)" d="M55.75 118.32299C55.75 119.97984 54.406853 121.32299 52.75 121.32299C51.093147 121.32299 49.75 119.97984 49.75 118.32299C49.75 116.66614 51.093147 115.32299 52.75 115.32299C54.406853 115.32299 55.75 116.66614 55.75 118.32299Z" fill-rule="nonzero"/><path fill="#000000" fill-opacity="0.0" clip-path="url(#id_0)" d="M59.54722 118.36849C59.54722 120.02535 58.20407 121.36849 56.54722 121.36849C54.89036 121.36849 53.54722 120.02535 53.54722 118.36849C53.54722 116.71164 54.89036 115.36849 56.54722 115.36849C58.20407 115.36849 59.54722 116.71164 59.54722 118.36849Z" fill-rule="nonzero"/><path fill="#000000" fill-opacity="0.0" clip-path="url(#id_0)" d="M62.976963 118.41262C62.976963 120.06947 61.633816 121.41262 59.976963 121.41262C58.320107 121.41262 56.976963 120.06947 56.976963 118.41262C56.976963 116.75576 58.320107 115.41262 59.976963 115.41262C61.633816 115.41262 62.976963 116.75576 62.976963 118.41262Z" fill-rule="nonzero"/><path fill="#000000" fill-opacity="0.0" clip-path="url(#id_0)" d="M66.77418 118.45539C66.77418 120.11225 65.43103 121.45539 63.774178 121.45539C62.117325 121.45539 60.774178 120.11225 60.774178 118.45539C60.774178 116.79854 62.117325 115.45539 63.774178 115.45539C65.43103 115.45539 66.77418 116.79854 66.77418 118.45539Z" fill-rule="nonzero"/><path fill="#000000" fill-opacity="0.0" clip-path="url(#id_0)" d="M70.448906 118.49686C70.448906 120.15371 69.10576 121.49686 67.448906 121.49686C65.79205 121.49686 64.448906 120.15371 64.448906 118.49686C64.448906 116.840004 65.79205 115.49686 67.448906 115.49686C69.10576 115.49686 70.448906 116.840004 70.448906 118.49686Z" fill-rule="nonzero"/><path fill="#000000" fill-opacity="0.0" clip-path="url(#id_0)" d="M74.246124 118.53705C74.246124 120.1939 72.90298 121.53705 71.246124 121.53705C69.58927 121.53705 68.246124 120.1939 68.246124 118.53705C68.246124 116.880196 69.58927 115.53705 71.246124 115.53705C72.90298 115.53705 74.246124 116.880196 74.246124 118.53705Z" fill-rule="nonzero"/><path fill="#000000" fill-opacity="0.0" clip-path="url(#id_0)" d="M77.920845 118.576C77.920845 120.23285 76.577705 121.576 74.920845 121.576C73.26399 121.576 71.920845 120.23285 71.920845 118.576C71.920845 116.919136 73.26399 115.576 74.920845 115.576C76.577705 115.576 77.920845 116.919136 77.920845 118.576Z" fill-rule="nonzero"/><path fill="#000000" fill-opacity="0.0" clip-path="url(#id_0)" d="M81.71806 118.61373C81.71806 120.270584 80.37492 121.61373 78.71806 121.61373C77.06121 121.61373 75.71806 120.270584 75.71806 118.61373C75.71806 116.95688 77.06121 115.61373 78.71806 115.61373C80.37492 115.61373 81.71806 116.95688 81.71806 118.61373Z" fill-rule="nonzero"/><path fill="#000000" fill-opacity="0.0" clip-path="url(#id_0)" d="M85.51528 118.6503C85.51528 120.30716 84.172134 121.6503 82.51528 121.6503C80.85843 121.6503 79.51528 120.30716 79.51528 118.6503C79.51528 116.99345 80.85843 115.6503 82.51528 115.6503C84.172134 115.6503 85.51528 116.99345 85.51528 118.6503Z" fill-rule="nonzero"/><path fill="#000000" fill-opacity="0.0" clip-path="url(#id_0)" d="M89.19001 118.68574C89.19001 120.34259 87.84686 121.68574 86.19001 121.68574C84.53316 121.68574 83.19001 120.34259 83.19001 118.68574C83.19001 117.02888 84.53316 115.68574 86.19001 115.68574C87.84686 115.68574 89.19001 117.02888 89.19001 118.68574Z" fill-rule="nonzero"/><path fill="#000000" fill-opacity="0.0" clip-path="url(#id_0)" d="M92.98723 118.72006C92.98723 120.376915 91.64408 121.72006 89.98723 121.72006C88.330376 121.72006 86.98723 120.376915 86.98723 118.72006C86.98723 117.06321 88.330376 115.72006 89.98723 115.72006C91.64408 115.72006 92.98723 117.06321 92.98723 118.72006Z" fill-rule="nonzero"/><path fill="#000000" fill-opacity="0.0" clip-path="url(#id_0)" d="M96.66195 118.75332C96.66195 120.41018 95.31881 121.75332 93.66195 121.75332C92.0051 121.75332 90.66195 120.41018 90.66195 118.75332C90.66195 117.096466 92.0051 115.75332 93.66195 115.75332C95.31881 115.75332 96.66195 117.096466 96.66195 118.75332Z" fill-rule="nonzero"/><path fill="#000000" fill-opacity="0.0" clip-path="url(#id_0)" d="M100.45917 127.773865C100.45917 129.43071 99.11602 130.77386 97.45917 130.77386C95.802315 130.77386 94.45917 129.43071 94.45917 127.773865C94.45917 126.11701 95.802315 124.773865 97.45917 124.773865C99.11602 124.773865 100.45917 126.11701 100.45917 127.773865Z" fill-rule="nonzero"/><path fill="#000000" fill-opacity="0.0" clip-path="url(#id_0)" d="M104.256386 132.28622C104.256386 133.94308 102.91324 135.28622 101.256386 135.28622C99.59953 135.28622 98.256386 133.94308 98.256386 132.28622C98.256386 130.62938 99.59953 129.28622 101.256386 129.28622C102.91324 129.28622 104.256386 130.62938 104.256386 132.28622Z" fill-rule="nonzero"/><path fill="#000000" fill-opacity="0.0" clip-path="url(#id_0)" d="M107.808624 135.3521C107.808624 137.00896 106.46548 138.3521 104.808624 138.3521C103.15177 138.3521 101.808624 137.00896 101.808624 135.3521C101.808624 133.69525 103.15177 132.3521 104.808624 132.3521C106.46548 132.3521 107.808624 133.69525 107.808624 135.3521Z" fill-rule="nonzero"/><path fill="#000000" fill-opacity="0.0" clip-path="url(#id_0)" d="M111.60584 137.5848C111.60584 139.24164 110.262695 140.5848 108.60584 140.5848C106.94898 140.5848 105.60584 139.24164 105.60584 137.5848C105.60584 135.92793 106.94898 134.5848 108.60584 134.5848C110.262695 134.5848 111.60584 135.92793 111.60584 137.5848Z" fill-rule="nonzero"/><path fill="#000000" fill-opacity="0.0" clip-path="url(#id_0)" d="M115.28056 139.2946C115.28056 140.95146 113.93742 142.2946 112.28056 142.2946C110.62371 142.2946 109.28056 140.95146 109.28056 139.2946C109.28056 137.63774 110.62371 136.2946 112.28056 136.2946C113.93742 136.2946 115.28056 137.63774 115.28056 139.2946Z" fill-rule="nonzero"/><path fill="#000000" fill-opacity="0.0" clip-path="url(#id_0)" d="M119.07778 140.65399C119.07778 142.31085 117.734634 143.65399 116.07778 143.65399C114.42093 143.65399 113.07778 142.31085 113.07778 140.65399C113.07778 138.99715 114.42093 137.65399 116.07778 137.65399C117.734634 137.65399 119.07778 138.99715 119.07778 140.65399Z" fill-rule="nonzero"/><path fill="#000000" fill-opacity="0.0" clip-path="url(#id_0)" d="M122.75251 141.76407C122.75251 143.42091 121.40936 144.76407 119.75251 144.76407C118.09566 144.76407 116.75251 143.42091 116.75251 141.76407C116.75251 140.10721 118.09566 138.76407 119.75251 138.76407C121.40936 138.76407 122.75251 140.10721 122.75251 141.76407Z" fill-rule="nonzero"/><path fill="#000000" fill-opacity="0.0" clip-path="url(#id_0)" d="M126.54973 142.68727C126.54973 144.34413 125.20658 145.68727 123.54973 145.68727C121.892876 145.68727 120.54973 144.34413 120.54973 142.68727C120.54973 141.03043 121.892876 139.68727 123.54973 139.68727C125.20658 139.68727 126.54973 141.03043 126.54973 142.68727Z" fill-rule="nonzero"/><path fill="#000000" fill-opacity="0.0" clip-path="url(#id_0)" d="M130.34694 143.4645C130.34694 145.12135 129.0038 146.4645 127.34695 146.4645C125.69009 146.4645 124.34695 145.12135 124.34695 143.4645C124.34695 141.80765 125.69009 140.4645 127.34695 140.4645C129.0038 140.4645 130.34694 141.80765 130.34694 143.4645Z" fill-rule="nonzero"/><path fill="#000000" fill-opacity="0.0" clip-path="url(#id_0)" d="M134.02167 144.12407C134.02167 145.78093 132.67853 147.12407 131.02167 147.12407C129.36482 147.12407 128.02167 145.78093 128.02167 144.12407C128.02167 142.46722 129.36482 141.12407 131.02167 141.12407C132.67853 141.12407 134.02167 142.46722 134.02167 144.12407Z" fill-rule="nonzero"/><path fill="#000000" fill-opacity="0.0" clip-path="url(#id_0)" d="M137.8189 144.68675C137.8189 146.34361 136.47574 147.68675 134.8189 147.68675C133.16203 147.68675 131.8189 146.34361 131.8189 144.68675C131.8189 143.0299 133.16203 141.68675 134.8189 141.68675C136.47574 141.68675 137.8189 143.0299 137.8189 144.68675Z" fill-rule="nonzero"/><path fill="#000000" fill-opacity="0.0" clip-path="url(#id_0)" d="M141.4936 145.16847C141.4936 146.82532 140.15047 148.16847 138.4936 148.16847C136.83676 148.16847 135.4936 146.82532 135.4936 145.16847C135.4936 143.51161 136.83676 142.16847 138.4936 142.16847C140.15047 142.16847 141.4936 143.51161 141.4936 145.16847Z" fill-rule="nonzero"/><path fill="#000000" fill-opacity="0.0" clip-path="url(#id_0)" d="M145.29083 145.58186C145.29083 147.23872 143.94768 148.58186 142.29083 148.58186C140.63397 148.58186 139.29083 147.23872 139.29083 145.58186C139.29083 143.925 140.63397 142.58186 142.29083 142.58186C143.94768 142.58186 145.29083 143.925 145.29083 145.58186Z" fill-rule="nonzero"/><path fill="#000000" fill-opacity="0.0" clip-path="url(#id_0)" d="M149.08804 145.93726C149.08804 147.59412 147.7449 148.93726 146.08804 148.93726C144.4312 148.93726 143.08804 147.59412 143.08804 145.93726C143.08804 144.28041 144.4312 142.93726 146.08804 142.93726C147.7449 142.93726 149.08804 144.28041 149.08804 145.93726Z" fill-rule="nonzero"/><path fill="#000000" fill-opacity="0.0" clip-path="url(#id_0)" d="M152.51779 146.24323C152.51779 147.90007 151.17465 149.24323 149.51779 149.24323C147.86093 149.24323 146.51779 147.90007 146.51779 146.24323C146.51779 144.58636 147.86093 143.24323 149.51779 143.24323C151.17465 143.24323 152.51779 144.58636 152.51779 146.24323Z" fill-rule="nonzero"/><path fill="#000000" fill-opacity="0.0" clip-path="url(#id_0)" d="M156.315 146.50694C156.315 148.16379 154.97186 149.50694 153.315 149.50694C151.65816 149.50694 150.315 148.16379 150.315 146.50694C150.315 144.85008 151.65816 143.50694 153.315 143.50694C154.97186 143.50694 156.315 144.85008 156.315 146.50694Z" fill-rule="nonzero"/><path fill="#000000" fill-opacity="0.0" clip-path="url(#id_0)" d="M159.98973 146.7345C159.98973 148.39136 158.64659 149.7345 156.98973 149.7345C155.33289 149.7345 153.98973 148.39136 153.98973 146.7345C153.98973 145.07764 155.33289 143.7345 156.98973 143.7345C158.64659 143.7345 159.98973 145.07764 159.98973 146.7345Z" fill-rule="nonzero"/><path fill="#000000" fill-opacity="0.0" clip-path="url(#id_0)" d="M163.78696 146.93108C163.78696 148.58794 162.4438 149.93108 160.78696 149.93108C159.1301 149.93108 157.78696 148.58794 157.78696 146.93108C157.78696 145.27422 159.1301 143.93108 160.78696 143.93108C162.4438 143.93108 163.78696 145.27422 163.78696 146.93108Z" fill-rule="nonzero"/><path fill="#000000" fill-opacity="0.0" clip-path="url(#id_0)" d="M167.46169 147.10109C167.46169 148.75793 166.11853 150.10109 164.46169 150.10109C162.80482 150.10109 161.46169 148.75793 161.46169 147.10109C161.46169 145.44423 162.80482 144.10109 164.46169 144.10109C166.11853 144.10109 167.46169 145.44423 167.46169 147.10109Z" fill-rule="nonzero"/><path fill="#000000" fill-opacity="0.0" clip-path="url(#id_0)" d="M171.2589 147.24829C171.2589 148.90515 169.91576 150.24829 168.2589 150.24829C166.60204 150.24829 165.2589 148.90515 165.2589 147.24829C165.2589 145.59143 166.60204 144.24829 168.2589 144.24829C169.91576 144.24829 171.2589 145.59143 171.2589 147.24829Z" fill-rule="nonzero"/><path fill="#000000" fill-opacity="0.0" clip-path="url(#id_0)" d="M175.0561 147.37593C175.0561 149.03278 173.71297 150.37593 172.0561 150.37593C170.39926 150.37593 169.0561 149.03278 169.0561 147.37593C169.0561 145.71907 170.39926 144.37593 172.0561 144.37593C173.71297 144.37593 175.0561 145.71907 175.0561 147.37593Z" fill-rule="nonzero"/><path fill="#000000" fill-opacity="0.0" clip-path="url(#id_0)" d="M178.73083 147.48674C178.73083 149.1436 177.3877 150.48674 175.73083 150.48674C174.07399 150.48674 172.73083 149.1436 172.73083 147.48674C172.73083 145.8299 174.07399 144.48674 175.73083 144.48674C177.3877 144.48674 178.73083 145.8299 178.73083 147.48674Z" fill-rule="nonzero"/><path fill="#000000" fill-opacity="0.0" clip-path="url(#id_0)" d="M182.52806 147.58311C182.52806 149.23997 181.1849 150.58311 179.52806 150.58311C177.8712 150.58311 176.52806 149.23997 176.52806 147.58311C176.52806 145.92627 177.8712 144.58311 179.52806 144.58311C181.1849 144.58311 182.52806 145.92627 182.52806 147.58311Z" fill-rule="nonzero"/><path fill="#000000" fill-opacity="0.0" clip-path="url(#id_0)" d="M186.20279 147.66707C186.20279 149.32393 184.85963 150.66707 183.20279 150.66707C181.54593 150.66707 180.20279 149.32393 180.20279 147.66707C180.20279 146.01021 181.54593 144.66707 183.20279 144.66707C184.85963 144.66707 186.20279 146.01021 186.20279 147.66707Z" fill-rule="nonzero"/><path fill="#000000" fill-opacity="0.0" clip-path="url(#id_0)" d="M190.0 147.74034C190.0 149.39719 188.65686 150.74034 187.0 150.74034C185.34314 150.74034 184.0 149.39719 184.0 147.74034C184.0 146.08348 185.34314 144.74034 187.0 144.74034C188.65686 144.74034 190.0 146.08348 190.0 147.74034Z" fill-rule="nonzero"/><path fill="#000000" fill-opacity="0.0" clip-path="url(#id_0)" d="M55.75 118.32299C55.75 119.97984 54.406853 121.32299 52.75 121.32299C51.093147 121.32299 49.75 119.97984 49.75 118.32299C49.75 116.66614 51.093147 115.32299 52.75 115.32299C54.406853 115.32299 55.75 116.66614 55.75 118.32299Z" fill-rule="nonzero"/><path fill="#000000" fill-opacity="0.0" clip-path="url(#id_0)" d="M59.54722 118.36849C59.54722 120.02535 58.20407 121.36849 56.54722 121.36849C54.89036 121.36849 53.54722 120.02535 53.54722 118.36849C53.54722 116.71164 54.89036 115.36849 56.54722 115.36849C58.20407 115.36849 59.54722 116.71164 59.54722 118.36849Z" fill-rule="nonzero"/><path fill="#000000" fill-opacity="0.0" clip-path="url(#id_0)" d="M62.976963 118.41262C62.976963 120.06947 61.633816 121.41262 59.976963 121.41262C58.320107 121.41262 56.976963 120.06947 56.976963 118.41262C56.976963 116.75576 58.320107 115.41262 59.976963 115.41262C61.633816 115.41262 62.976963 116.75576 62.976963 118.41262Z" fill-rule="nonzero"/><path fill="#000000" fill-opacity="0.0" clip-path="url(#id_0)" d="M66.77418 118.45539C66.77418 120.11225 65.43103 121.45539 63.774178 121.45539C62.117325 121.45539 60.774178 120.11225 60.774178 118.45539C60.774178 116.79854 62.117325 115.45539 63.774178 115.45539C65.43103 115.45539 66.77418 116.79854 66.77418 118.45539Z" fill-rule="nonzero"/><path fill="#000000" fill-opacity="0.0" clip-path="url(#id_0)" d="M70.448906 118.49686C70.448906 120.15371 69.10576 121.49686 67.448906 121.49686C65.79205 121.49686 64.448906 120.15371 64.448906 118.49686C64.448906 116.840004 65.79205 115.49686 67.448906 115.49686C69.10576 115.49686 70.448906 116.840004 70.448906 118.49686Z" fill-rule="nonzero"/><path fill="#000000" fill-opacity="0.0" clip-path="url(#id_0)" d="M74.246124 118.53705C74.246124 120.1939 72.90298 121.53705 71.246124 121.53705C69.58927 121.53705 68.246124 120.1939 68.246124 118.53705C68.246124 116.880196 69.58927 115.53705 71.246124 115.53705C72.90298 115.53705 74.246124 116.880196 74.246124 118.53705Z" fill-rule="nonzero"/><path fill="#000000" fill-opacity="0.0" clip-path="url(#id_0)" d="M77.920845 118.576C77.920845 120.23285 76.577705 121.576 74.920845 121.576C73.26399 121.576 71.920845 120.23285 71.920845 118.576C71.920845 116.919136 73.26399 115.576 74.920845 115.576C76.577705 115.576 77.920845 116.919136 77.920845 118.576Z" fill-rule="nonzero"/><path fill="#000000" fill-opacity="0.0" clip-path="url(#id_0)" d="M81.71806 118.61373C81.71806 120.270584 80.37492 121.61373 78.71806 121.61373C77.06121 121.61373 75.71806 120.270584 75.71806 118.61373C75.71806 116.95688 77.06121 115.61373 78.71806 115.61373C80.37492 115.61373 81.71806 116.95688 81.71806 118.61373Z" fill-rule="nonzero"/><path fill="#000000" fill-opacity="0.0" clip-path="url(#id_0)" d="M85.51528 118.6503C85.51528 120.30716 84.172134 121.6503 82.51528 121.6503C80.85843 121.6503 79.51528 120.30716 79.51528 118.6503C79.51528 116.99345 80.85843 115.6503 82.51528 115.6503C84.172134 115.6503 85.51528 116.99345 85.51528 118.6503Z" fill-rule="nonzero"/><path fill="#000000" fill-opacity="0.0" clip-path="url(#id_0)" d="M89.19001 118.68574C89.19001 120.34259 87.84686 121.68574 86.19001 121.68574C84.53316 121.68574 83.19001 120.34259 83.19001 118.68574C83.19001 117.02888 84.53316 115.68574 86.19001 115.68574C87.84686 115.68574 89.19001 117.02888 89.19001 118.68574Z" fill-rule="nonzero"/><path fill="#000000" fill-opacity="0.0" clip-path="url(#id_0)" d="M92.98723 118.72006C92.98723 120.376915 91.64408 121.72006 89.98723 121.72006C88.330376 121.72006 86.98723 120.376915 86.98723 118.72006C86.98723 117.06321 88.330376 115.72006 89.98723 115.72006C91.64408 115.72006 92.98723 117.06321 92.98723 118.72006Z" fill-rule="nonzero"/><path fill="#000000" fill-opacity="0.0" clip-path="url(#id_0)" d="M96.66195 118.75332C96.66195 120.41018 95.31881 121.75332 93.66195 121.75332C92.0051 121.75332 90.66195 120.41018 90.66195 118.75332C90.66195 117.096466 92.0051 115.75332 93.66195 115.75332C95.31881 115.75332 96.66195 117.096466 96.66195 118.75332Z" fill-rule="nonzero"/><path fill="#000000" fill-opacity="0.0" clip-path="url(#id_0)" d="M100.45917 100.80889C100.45917 102.465744 99.11602 103.80889 97.45917 103.80889C95.802315 103.80889 94.45917 102.465744 94.45917 100.80889C94.45917 99.15203 95.802315 97.80889 97.45917 97.80889C99.11602 97.80889 100.45917 99.15203 100.45917 100.80889Z" fill-rule="nonzero"/><path fill="#000000" fill-opacity="0.0" clip-path="url(#id_0)" d="M104.256386 91.877785C104.256386 93.534645 102.91324 94.877785 101.256386 94.877785C99.59953 94.877785 98.256386 93.534645 98.256386 91.877785C98.256386 90.22093 99.59953 88.877785 101.256386 88.877785C102.91324 88.877785 104.256386 90.22093 104.256386 91.877785Z" fill-rule="nonzero"/><path fill="#000000" fill-opacity="0.0" clip-path="url(#id_0)" d="M107.808624 85.83673C107.808624 87.49358 106.46548 88.83673 104.808624 88.83673C103.15177 88.83673 101.808624 87.49358 101.808624 85.83673C101.808624 84.17988 103.15177 82.83673 104.808624 82.83673C106.46548 82.83673 107.808624 84.17988 107.808624 85.83673Z" fill-rule="nonzero"/><path fill="#000000" fill-opacity="0.0" clip-path="url(#id_0)" d="M111.60584 81.459206C111.60584 83.11606 110.262695 84.459206 108.60584 84.459206C106.94898 84.459206 105.60584 83.11606 105.60584 81.459206C105.60584 79.802345 106.94898 78.459206 108.60584 78.459206C110.262695 78.459206 111.60584 79.802345 111.60584 81.459206Z" fill-rule="nonzero"/><path fill="#000000" fill-opacity="0.0" clip-path="url(#id_0)" d="M115.28056 78.12467C115.28056 79.781525 113.93742 81.12467 112.28056 81.12467C110.62371 81.12467 109.28056 79.781525 109.28056 78.12467C109.28056 76.46782 110.62371 75.12467 112.28056 75.12467C113.93742 75.12467 115.28056 76.46782 115.28056 78.12467Z" fill-rule="nonzero"/><path fill="#000000" fill-opacity="0.0" clip-path="url(#id_0)" d="M119.07778 75.488304C119.07778 77.14516 117.734634 78.488304 116.07778 78.488304C114.42093 78.488304 113.07778 77.14516 113.07778 75.488304C113.07778 73.83145 114.42093 72.488304 116.07778 72.488304C117.734634 72.488304 119.07778 73.83145 119.07778 75.488304Z" fill-rule="nonzero"/><path fill="#000000" fill-opacity="0.0" clip-path="url(#id_0)" d="M122.75251 73.34799C122.75251 75.004845 121.40936 76.34799 119.75251 76.34799C118.09566 76.34799 116.75251 75.004845 116.75251 73.34799C116.75251 71.69114 118.09566 70.34799 119.75251 70.34799C121.40936 70.34799 122.75251 71.69114 122.75251 73.34799Z" fill-rule="nonzero"/><path fill="#000000" fill-opacity="0.0" clip-path="url(#id_0)" d="M126.54973 71.57888C126.54973 73.23573 125.20658 74.57888 123.54973 74.57888C121.892876 74.57888 120.54973 73.23573 120.54973 71.57888C120.54973 69.92203 121.892876 68.57888 123.54973 68.57888C125.20658 68.57888 126.54973 69.92203 126.54973 71.57888Z" fill-rule="nonzero"/><path fill="#000000" fill-opacity="0.0" clip-path="url(#id_0)" d="M130.34694 70.09932C130.34694 71.75617 129.0038 73.09932 127.34695 73.09932C125.69009 73.09932 124.34695 71.75617 124.34695 70.09932C124.34695 68.44246 125.69009 67.09932 127.34695 67.09932C129.0038 67.09932 130.34694 68.44246 130.34694 70.09932Z" fill-rule="nonzero"/><path fill="#000000" fill-opacity="0.0" clip-path="url(#id_0)" d="M134.02167 68.85269C134.02167 70.509544 132.67853 71.85269 131.02167 71.85269C129.36482 71.85269 128.02167 70.509544 128.02167 68.85269C128.02167 67.19584 129.36482 65.85269 131.02167 65.85269C132.67853 65.85269 134.02167 67.19584 134.02167 68.85269Z" fill-rule="nonzero"/><path fill="#000000" fill-opacity="0.0" clip-path="url(#id_0)" d="M137.8189 67.79756C137.8189 69.454414 136.47574 70.79756 134.8189 70.79756C133.16203 70.79756 131.8189 69.454414 131.8189 67.79756C131.8189 66.14071 133.16203 64.79756 134.8189 64.79756C136.47574 64.79756 137.8189 66.14071 137.8189 67.79756Z" fill-rule="nonzero"/><path fill="#000000" fill-opacity="0.0" clip-path="url(#id_0)" d="M141.4936 66.90216C141.4936 68.55901 140.15047 69.90216 138.4936 69.90216C136.83676 69.90216 135.4936 68.55901 135.4936 66.90216C135.4936 65.24531 136.83676 63.90216 138.4936 63.90216C140.15047 63.90216 141.4936 65.24531 141.4936 66.90216Z" fill-rule="nonzero"/><path fill="#000000" fill-opacity="0.0" clip-path="url(#id_0)" d="M145.29083 66.14125C145.29083 67.7981 143.94768 69.14125 142.29083 69.14125C140.63397 69.14125 139.29083 67.7981 139.29083 66.14125C139.29083 64.4844 140.63397 63.141254 142.29083 63.141254C143.94768 63.141254 145.29083 64.4844 145.29083 66.14125Z" fill-rule="nonzero"/><path fill="#000000" fill-opacity="0.0" clip-path="url(#id_0)" d="M149.08804 65.49426C149.08804 67.151115 147.7449 68.49426 146.08804 68.49426C144.4312 68.49426 143.08804 67.151115 143.08804 65.49426C143.08804 63.83741 144.4312 62.494263 146.08804 62.494263C147.7449 62.494263 149.08804 63.83741 149.08804 65.49426Z" fill-rule="nonzero"/><path fill="#000000" fill-opacity="0.0" clip-path="url(#id_0)" d="M152.51779 64.94413C152.51779 66.60098 151.17465 67.94413 149.51779 67.94413C147.86093 67.94413 146.51779 66.60098 146.51779 64.94413C146.51779 63.287273 147.86093 61.94413 149.51779 61.94413C151.17465 61.94413 152.51779 63.287273 152.51779 64.94413Z" fill-rule="nonzero"/><path fill="#000000" fill-opacity="0.0" clip-path="url(#id_0)" d="M156.315 64.476524C156.315 66.133385 154.97186 67.476524 153.315 67.476524C151.65816 67.476524 150.315 66.133385 150.315 64.476524C150.315 62.81967 151.65816 61.47653 153.315 61.47653C154.97186 61.47653 156.315 62.81967 156.315 64.476524Z" fill-rule="nonzero"/><path fill="#000000" fill-opacity="0.0" clip-path="url(#id_0)" d="M159.98973 64.079346C159.98973 65.736206 158.64659 67.079346 156.98973 67.079346C155.33289 67.079346 153.98973 65.736206 153.98973 64.079346C153.98973 62.422493 155.33289 61.07935 156.98973 61.07935C158.64659 61.07935 159.98973 62.422493 159.98973 64.079346Z" fill-rule="nonzero"/><path fill="#000000" fill-opacity="0.0" clip-path="url(#id_0)" d="M163.78696 63.742306C163.78696 65.39916 162.4438 66.74231 160.78696 66.74231C159.1301 66.74231 157.78696 65.39916 157.78696 63.742306C157.78696 62.085453 159.1301 60.742306 160.78696 60.742306C162.4438 60.742306 163.78696 62.085453 163.78696 63.742306Z" fill-rule="nonzero"/><path fill="#000000" fill-opacity="0.0" clip-path="url(#id_0)" d="M167.46169 63.456635C167.46169 65.11349 166.11853 66.456635 164.46169 66.456635C162.80482 66.456635 161.46169 65.11349 161.46169 63.456635C161.46169 61.799778 162.80482 60.456635 164.46169 60.456635C166.11853 60.456635 167.46169 61.799778 167.46169 63.456635Z" fill-rule="nonzero"/><path fill="#000000" fill-opacity="0.0" clip-path="url(#id_0)" d="M171.2589 63.21484C171.2589 64.8717 169.91576 66.214836 168.2589 66.214836C166.60204 66.214836 165.2589 64.8717 165.2589 63.21484C165.2589 61.557983 166.60204 60.21484 168.2589 60.21484C169.91576 60.21484 171.2589 61.557983 171.2589 63.21484Z" fill-rule="nonzero"/><path fill="#000000" fill-opacity="0.0" clip-path="url(#id_0)" d="M175.0561 63.010532C175.0561 64.66739 173.71297 66.01054 172.0561 66.01054C170.39926 66.01054 169.0561 64.66739 169.0561 63.010532C169.0561 61.35368 170.39926 60.010532 172.0561 60.010532C173.71297 60.010532 175.0561 61.35368 175.0561 63.010532Z" fill-rule="nonzero"/><path fill="#000000" fill-opacity="0.0" clip-path="url(#id_0)" d="M178.73083 62.83825C178.73083 64.4951 177.3877 65.83825 175.73083 65.83825C174.07399 65.83825 172.73083 64.4951 172.73083 62.83825C172.73083 61.181396 174.07399 59.83825 175.73083 59.83825C177.3877 59.83825 178.73083 61.181396 178.73083 62.83825Z" fill-rule="nonzero"/><path fill="#000000" fill-opacity="0.0" clip-path="url(#id_0)" d="M182.52806 62.693306C182.52806 64.35016 181.1849 65.693306 179.52806 65.693306C177.8712 65.693306 176.52806 64.35016 176.52806 62.693306C176.52806 61.03645 177.8712 59.693306 179.52806 59.693306C181.1849 59.693306 182.52806 61.03645 182.52806 62.693306Z" fill-rule="nonzero"/><path fill="#000000" fill-opacity="0.0" clip-path="url(#id_0)" d="M186.20279 62.571693C186.20279 64.228546 184.85963 65.57169 183.20279 65.57169C181.54593 65.57169 180.20279 64.228546 180.20279 62.571693C180.20279 60.91484 181.54593 59.571693 183.20279 59.571693C184.85963 59.571693 186.20279 60.91484 186.20279 62.571693Z" fill-rule="nonzero"/><path fill="#000000" fill-opacity="0.0" clip-path="url(#id_0)" d="M190.0 62.46999C190.0 64.12685 188.65686 65.46999 187.0 65.46999C185.34314 65.46999 184.0 64.12685 184.0 62.46999C184.0 60.813137 185.34314 59.46999 187.0 59.46999C188.65686 59.46999 190.0 60.813137 190.0 62.46999Z" fill-rule="nonzero"/><path fill="#000000" d="M102.265625 353.25L102.265625 340.35938L106.703125 340.35938Q108.203125 340.35938 109.0 340.54688Q110.109375 340.79688 110.890625 341.46875Q111.90625 342.32812 112.40625 343.67188Q112.921875 345.01562 112.921875 346.73438Q112.921875 348.20312 112.578125 349.34375Q112.234375 350.46875 111.6875 351.21875Q111.15625 351.95312 110.515625 352.39062Q109.890625 352.8125 108.984375 353.03125Q108.078125 353.25 106.90625 353.25L102.265625 353.25ZM103.96875 351.73438L106.71875 351.73438Q108.0 351.73438 108.71875 351.5Q109.4375 351.25 109.875 350.82812Q110.484375 350.21875 110.8125 349.20312Q111.15625 348.17188 111.15625 346.70312Q111.15625 344.6875 110.484375 343.60938Q109.828125 342.51562 108.875 342.15625Q108.203125 341.89062 106.671875 341.89062L103.96875 341.89062L103.96875 351.73438ZM121.15625 352.09375Q120.28125 352.84375 119.453125 353.15625Q118.640625 353.46875 117.71875 353.46875Q116.171875 353.46875 115.34375 352.71875Q114.53125 351.95312 114.53125 350.78125Q114.53125 350.10938 114.84375 349.54688Q115.15625 348.96875 115.65625 348.625Q116.15625 348.28125 116.796875 348.10938Q117.265625 347.98438 118.203125 347.875Q120.109375 347.64062 121.015625 347.32812Q121.03125 347.0 121.03125 346.90625Q121.03125 345.95312 120.578125 345.54688Q119.96875 345.01562 118.78125 345.01562Q117.65625 345.01562 117.125 345.40625Q116.59375 345.79688 116.34375 346.79688L114.796875 346.57812Q115.015625 345.57812 115.484375 344.96875Q115.96875 344.35938 116.875 344.03125Q117.796875 343.70312 119.015625 343.70312Q120.203125 343.70312 120.953125 343.98438Q121.703125 344.26562 122.046875 344.70312Q122.40625 345.125 122.546875 345.76562Q122.625 346.17188 122.625 347.23438L122.625 349.34375Q122.625 351.54688 122.71875 352.14062Q122.828125 352.71875 123.125 353.25L121.46875 353.25Q121.21875 352.75 121.15625 352.09375ZM121.015625 348.5625Q120.15625 348.92188 118.4375 349.15625Q117.46875 349.29688 117.0625 349.48438Q116.65625 349.65625 116.4375 350.0Q116.21875 350.32812 116.21875 350.75Q116.21875 351.375 116.6875 351.79688Q117.171875 352.21875 118.09375 352.21875Q119.015625 352.21875 119.71875 351.82812Q120.4375 351.42188 120.765625 350.73438Q121.015625 350.1875 121.015625 349.14062L121.015625 348.5625ZM128.51562 351.82812L128.75 353.23438Q128.07812 353.375 127.546875 353.375Q126.6875 353.375 126.203125 353.10938Q125.734375 352.82812 125.546875 352.39062Q125.359375 351.9375 125.359375 350.51562L125.359375 345.14062L124.1875 345.14062L124.1875 343.92188L125.359375 343.92188L125.359375 341.60938L126.921875 340.65625L126.921875 343.92188L128.51562 343.92188L128.51562 345.14062L126.921875 345.14062L126.921875 350.60938Q126.921875 351.28125 127.0 351.48438Q127.09375 351.67188 127.28125 351.78125Q127.46875 351.89062 127.828125 351.89062Q128.07812 351.89062 128.51562 351.82812ZM136.45312 350.25L138.09375 350.45312Q137.70312 351.875 136.65625 352.67188Q135.60938 353.46875 133.98438 353.46875Q131.9375 353.46875 130.73438 352.20312Q129.53125 350.9375 129.53125 348.65625Q129.53125 346.3125 130.73438 345.01562Q131.95312 343.70312 133.89062 343.70312Q135.76562 343.70312 136.95312 344.98438Q138.14062 346.25 138.14062 348.5625Q138.14062 348.70312 138.125 348.98438L131.17188 348.98438Q131.25 350.53125 132.03125 351.34375Q132.82812 352.15625 133.98438 352.15625Q134.85938 352.15625 135.46875 351.70312Q136.09375 351.25 136.45312 350.25ZM131.25 347.6875L136.46875 347.6875Q136.35938 346.51562 135.875 345.92188Q135.10938 345.0 133.90625 345.0Q132.82812 345.0 132.07812 345.73438Q131.34375 346.46875 131.25 347.6875Z" fill-rule="nonzero"/><path fill="#000000" d="M23.421875 263.36652Q23.421875 261.33527 23.828125 260.1009Q24.25 258.86652 25.078125 258.19464Q25.90625 257.52277 27.15625 257.52277Q28.078125 257.52277 28.765625 257.89777Q29.46875 258.25714 29.921875 258.96027Q30.375 259.6634 30.625 260.6634Q30.890625 261.6634 30.890625 263.36652Q30.890625 265.38214 30.46875 266.63214Q30.0625 267.86652 29.234375 268.55402Q28.40625 269.2259 27.15625 269.2259Q25.5 269.2259 24.546875 268.02277Q23.421875 266.6009 23.421875 263.36652ZM24.859375 263.36652Q24.859375 266.19464 25.515625 267.13214Q26.1875 268.05402 27.15625 268.05402Q28.125 268.05402 28.78125 267.11652Q29.4375 266.17902 29.4375 263.36652Q29.4375 260.5384 28.78125 259.61652Q28.125 258.67902 27.140625 258.67902Q26.171875 258.67902 25.59375 259.50714Q24.859375 260.55402 24.859375 263.36652ZM33.171875 269.02277L33.171875 267.4134L34.78125 267.4134L34.78125 269.02277Q34.78125 269.9134 34.46875 270.44464Q34.15625 270.99152 33.46875 271.2884L33.078125 270.69464Q33.53125 270.49152 33.734375 270.11652Q33.953125 269.74152 33.96875 269.02277L33.171875 269.02277ZM36.421875 263.36652Q36.421875 261.33527 36.828125 260.1009Q37.25 258.86652 38.078125 258.19464Q38.90625 257.52277 40.15625 257.52277Q41.078125 257.52277 41.765625 257.89777Q42.46875 258.25714 42.921875 258.96027Q43.375 259.6634 43.625 260.6634Q43.890625 261.6634 43.890625 263.36652Q43.890625 265.38214 43.46875 266.63214Q43.0625 267.86652 42.234375 268.55402Q41.40625 269.2259 40.15625 269.2259Q38.5 269.2259 37.546875 268.02277Q36.421875 266.6009 36.421875 263.36652ZM37.859375 263.36652Q37.859375 266.19464 38.515625 267.13214Q39.1875 268.05402 40.15625 268.05402Q41.125 268.05402 41.78125 267.11652Q42.4375 266.17902 42.4375 263.36652Q42.4375 260.5384 41.78125 259.61652Q41.125 258.67902 40.140625 258.67902Q39.171875 258.67902 38.59375 259.50714Q37.859375 260.55402 37.859375 263.36652Z" fill-rule="nonzero"/><path fill="#000000" d="M23.421875 217.9682L24.890625 217.8432Q25.0625 218.92133 25.65625 219.4682Q26.25 219.99945 27.09375 219.99945Q28.109375 219.99945 28.8125 219.23383Q29.515625 218.4682 29.515625 217.20258Q29.515625 215.99945 28.84375 215.31195Q28.171875 214.60883 27.078125 214.60883Q26.390625 214.60883 25.84375 214.92133Q25.296875 215.23383 24.984375 215.7182L23.671875 215.54633L24.78125 209.67133L30.46875 209.67133L30.46875 211.01508L25.90625 211.01508L25.28125 214.0932Q26.3125 213.37445 27.453125 213.37445Q28.953125 213.37445 29.984375 214.42133Q31.015625 215.45258 31.015625 217.07758Q31.015625 218.64008 30.109375 219.76508Q29.0 221.17133 27.09375 221.17133Q25.53125 221.17133 24.546875 220.29633Q23.5625 219.4057 23.421875 217.9682ZM33.171875 220.9682L33.171875 219.35883L34.78125 219.35883L34.78125 220.9682Q34.78125 221.85883 34.46875 222.39008Q34.15625 222.93695 33.46875 223.23383L33.078125 222.64008Q33.53125 222.43695 33.734375 222.06195Q33.953125 221.68695 33.96875 220.9682L33.171875 220.9682ZM36.421875 215.31195Q36.421875 213.2807 36.828125 212.04633Q37.25 210.81195 38.078125 210.14008Q38.90625 209.4682 40.15625 209.4682Q41.078125 209.4682 41.765625 209.8432Q42.46875 210.20258 42.921875 210.9057Q43.375 211.60883 43.625 212.60883Q43.890625 213.60883 43.890625 215.31195Q43.890625 217.32758 43.46875 218.57758Q43.0625 219.81195 42.234375 220.49945Q41.40625 221.17133 40.15625 221.17133Q38.5 221.17133 37.546875 219.9682Q36.421875 218.54633 36.421875 215.31195ZM37.859375 215.31195Q37.859375 218.14008 38.515625 219.07758Q39.1875 219.99945 40.15625 219.99945Q41.125 219.99945 41.78125 219.06195Q42.4375 218.12445 42.4375 215.31195Q42.4375 212.48383 41.78125 211.56195Q41.125 210.62445 40.140625 210.62445Q39.171875 210.62445 38.59375 211.45258Q37.859375 212.49945 37.859375 215.31195Z" fill-rule="nonzero"/><path fill="#000000" d="M19.71875 172.91365L18.3125 172.91365L18.3125 163.9449Q17.796875 164.42928 16.96875 164.91365Q16.15625 165.39803 15.5 165.64803L15.5 164.28865Q16.671875 163.72615 17.546875 162.9449Q18.4375 162.14803 18.8125 161.41365L19.71875 161.41365L19.71875 172.91365ZM23.421875 167.2574Q23.421875 165.22615 23.828125 163.99178Q24.25 162.7574 25.078125 162.08553Q25.90625 161.41365 27.15625 161.41365Q28.078125 161.41365 28.765625 161.78865Q29.46875 162.14803 29.921875 162.85115Q30.375 163.55428 30.625 164.55428Q30.890625 165.55428 30.890625 167.2574Q30.890625 169.27303 30.46875 170.52303Q30.0625 171.7574 29.234375 172.4449Q28.40625 173.11678 27.15625 173.11678Q25.5 173.11678 24.546875 171.91365Q23.421875 170.49178 23.421875 167.2574ZM24.859375 167.2574Q24.859375 170.08553 25.515625 171.02303Q26.1875 171.9449 27.15625 171.9449Q28.125 171.9449 28.78125 171.0074Q29.4375 170.0699 29.4375 167.2574Q29.4375 164.42928 28.78125 163.5074Q28.125 162.5699 27.140625 162.5699Q26.171875 162.5699 25.59375 163.39803Q24.859375 164.4449 24.859375 167.2574ZM33.171875 172.91365L33.171875 171.30428L34.78125 171.30428L34.78125 172.91365Q34.78125 173.80428 34.46875 174.33553Q34.15625 174.8824 33.46875 175.17928L33.078125 174.58553Q33.53125 174.3824 33.734375 174.0074Q33.953125 173.6324 33.96875 172.91365L33.171875 172.91365ZM36.421875 167.2574Q36.421875 165.22615 36.828125 163.99178Q37.25 162.7574 38.078125 162.08553Q38.90625 161.41365 40.15625 161.41365Q41.078125 161.41365 41.765625 161.78865Q42.46875 162.14803 42.921875 162.85115Q43.375 163.55428 43.625 164.55428Q43.890625 165.55428 43.890625 167.2574Q43.890625 169.27303 43.46875 170.52303Q43.0625 171.7574 42.234375 172.4449Q41.40625 173.11678 40.15625 173.11678Q38.5 173.11678 37.546875 171.91365Q36.421875 170.49178 36.421875 167.2574ZM37.859375 167.2574Q37.859375 170.08553 38.515625 171.02303Q39.1875 171.9449 40.15625 171.9449Q41.125 171.9449 41.78125 171.0074Q42.4375 170.0699 42.4375 167.2574Q42.4375 164.42928 41.78125 163.5074Q41.125 162.5699 40.140625 162.5699Q39.171875 162.5699 38.59375 163.39803Q37.859375 164.4449 37.859375 167.2574Z" fill-rule="nonzero"/><path fill="#000000" d="M19.71875 124.8591L18.3125 124.8591L18.3125 115.89035Q17.796875 116.374725 16.96875 116.8591Q16.15625 117.343475 15.5 117.593475L15.5 116.2341Q16.671875 115.6716 17.546875 114.89035Q18.4375 114.093475 18.8125 113.3591L19.71875 113.3591L19.71875 124.8591ZM23.421875 121.8591L24.890625 121.7341Q25.0625 122.812225 25.65625 123.3591Q26.25 123.89035 27.09375 123.89035Q28.109375 123.89035 28.8125 123.124725Q29.515625 122.3591 29.515625 121.093475Q29.515625 119.89035 28.84375 119.20285Q28.171875 118.499725 27.078125 118.499725Q26.390625 118.499725 25.84375 118.812225Q25.296875 119.124725 24.984375 119.6091L23.671875 119.437225L24.78125 113.562225L30.46875 113.562225L30.46875 114.905975L25.90625 114.905975L25.28125 117.9841Q26.3125 117.26535 27.453125 117.26535Q28.953125 117.26535 29.984375 118.312225Q31.015625 119.343475 31.015625 120.968475Q31.015625 122.530975 30.109375 123.655975Q29.0 125.062225 27.09375 125.062225Q25.53125 125.062225 24.546875 124.187225Q23.5625 123.2966 23.421875 121.8591ZM33.171875 124.8591L33.171875 123.249725L34.78125 123.249725L34.78125 124.8591Q34.78125 125.749725 34.46875 126.280975Q34.15625 126.82785 33.46875 127.124725L33.078125 126.530975Q33.53125 126.32785 33.734375 125.95285Q33.953125 125.57785 33.96875 124.8591L33.171875 124.8591ZM36.421875 119.20285Q36.421875 117.1716 36.828125 115.937225Q37.25 114.70285 38.078125 114.030975Q38.90625 113.3591 40.15625 113.3591Q41.078125 113.3591 41.765625 113.7341Q42.46875 114.093475 42.921875 114.7966Q43.375 115.499725 43.625 116.499725Q43.890625 117.499725 43.890625 119.20285Q43.890625 121.218475 43.46875 122.468475Q43.0625 123.70285 42.234375 124.39035Q41.40625 125.062225 40.15625 125.062225Q38.5 125.062225 37.546875 123.8591Q36.421875 122.437225 36.421875 119.20285ZM37.859375 119.20285Q37.859375 122.030975 38.515625 122.968475Q39.1875 123.89035 40.15625 123.89035Q41.125 123.89035 41.78125 122.95285Q42.4375 122.01535 42.4375 119.20285Q42.4375 116.374725 41.78125 115.45285Q41.125 114.51535 40.140625 114.51535Q39.171875 114.51535 38.59375 115.343475Q37.859375 116.39035 37.859375 119.20285Z" fill-rule="nonzero"/><path fill="#000000" d="M21.8125 75.445175L21.8125 76.80455L14.234375 76.80455Q14.21875 76.288925 14.40625 75.820175Q14.6875 75.05455 15.328125 74.30455Q15.96875 73.55455 17.171875 72.570175Q19.03125 71.038925 19.6875 70.1483Q20.34375 69.24205 20.34375 68.445175Q20.34375 67.61705 19.75 67.038925Q19.15625 66.4608 18.1875 66.4608Q17.171875 66.4608 16.5625 67.070175Q15.953125 67.67955 15.953125 68.757675L14.5 68.61705Q14.65625 66.99205 15.625 66.1483Q16.59375 65.30455 18.21875 65.30455Q19.875 65.30455 20.828125 66.226425Q21.796875 67.132675 21.796875 68.476425Q21.796875 69.163925 21.515625 69.8358Q21.234375 70.49205 20.578125 71.226425Q19.921875 71.9608 18.40625 73.24205Q17.140625 74.30455 16.78125 74.695175Q16.421875 75.070175 16.1875 75.445175L21.8125 75.445175ZM23.421875 71.1483Q23.421875 69.11705 23.828125 67.882675Q24.25 66.6483 25.078125 65.976425Q25.90625 65.30455 27.15625 65.30455Q28.078125 65.30455 28.765625 65.67955Q29.46875 66.038925 29.921875 66.74205Q30.375 67.445175 30.625 68.445175Q30.890625 69.445175 30.890625 71.1483Q30.890625 73.163925 30.46875 74.413925Q30.0625 75.6483 29.234375 76.3358Q28.40625 77.007675 27.15625 77.007675Q25.5 77.007675 24.546875 75.80455Q23.421875 74.382675 23.421875 71.1483ZM24.859375 71.1483Q24.859375 73.976425 25.515625 74.913925Q26.1875 75.8358 27.15625 75.8358Q28.125 75.8358 28.78125 74.8983Q29.4375 73.9608 29.4375 71.1483Q29.4375 68.320175 28.78125 67.3983Q28.125 66.4608 27.140625 66.4608Q26.171875 66.4608 25.59375 67.288925Q24.859375 68.3358 24.859375 71.1483ZM33.171875 76.80455L33.171875 75.195175L34.78125 75.195175L34.78125 76.80455Q34.78125 77.695175 34.46875 78.226425Q34.15625 78.7733 33.46875 79.070175L33.078125 78.476425Q33.53125 78.2733 33.734375 77.8983Q33.953125 77.5233 33.96875 76.80455L33.171875 76.80455ZM36.421875 71.1483Q36.421875 69.11705 36.828125 67.882675Q37.25 66.6483 38.078125 65.976425Q38.90625 65.30455 40.15625 65.30455Q41.078125 65.30455 41.765625 65.67955Q42.46875 66.038925 42.921875 66.74205Q43.375 67.445175 43.625 68.445175Q43.890625 69.445175 43.890625 71.1483Q43.890625 73.163925 43.46875 74.413925Q43.0625 75.6483 42.234375 76.3358Q41.40625 77.007675 40.15625 77.007675Q38.5 77.007675 37.546875 75.80455Q36.421875 74.382675 36.421875 71.1483ZM37.859375 71.1483Q37.859375 73.976425 38.515625 74.913925Q39.1875 75.8358 40.15625 75.8358Q41.125 75.8358 41.78125 74.8983Q42.4375 73.9608 42.4375 71.1483Q42.4375 68.320175 41.78125 67.3983Q41.125 66.4608 40.140625 66.4608Q39.171875 66.4608 38.59375 67.288925Q37.859375 68.3358 37.859375 71.1483Z" fill-rule="nonzero"/><path fill="#000000" d="M21.8125 27.390625L21.8125 28.75L14.234375 28.75Q14.21875 28.234375 14.40625 27.765625Q14.6875 27.0 15.328125 26.25Q15.96875 25.5 17.171875 24.515625Q19.03125 22.984375 19.6875 22.09375Q20.34375 21.1875 20.34375 20.390625Q20.34375 19.5625 19.75 18.984375Q19.15625 18.40625 18.1875 18.40625Q17.171875 18.40625 16.5625 19.015625Q15.953125 19.625 15.953125 20.703125L14.5 20.5625Q14.65625 18.9375 15.625 18.09375Q16.59375 17.25 18.21875 17.25Q19.875 17.25 20.828125 18.171875Q21.796875 19.078125 21.796875 20.421875Q21.796875 21.109375 21.515625 21.78125Q21.234375 22.4375 20.578125 23.171875Q19.921875 23.90625 18.40625 25.1875Q17.140625 26.25 16.78125 26.640625Q16.421875 27.015625 16.1875 27.390625L21.8125 27.390625ZM23.421875 25.75L24.890625 25.625Q25.0625 26.703125 25.65625 27.25Q26.25 27.78125 27.09375 27.78125Q28.109375 27.78125 28.8125 27.015625Q29.515625 26.25 29.515625 24.984375Q29.515625 23.78125 28.84375 23.09375Q28.171875 22.390625 27.078125 22.390625Q26.390625 22.390625 25.84375 22.703125Q25.296875 23.015625 24.984375 23.5L23.671875 23.328125L24.78125 17.453125L30.46875 17.453125L30.46875 18.796875L25.90625 18.796875L25.28125 21.875Q26.3125 21.15625 27.453125 21.15625Q28.953125 21.15625 29.984375 22.203125Q31.015625 23.234375 31.015625 24.859375Q31.015625 26.421875 30.109375 27.546875Q29.0 28.953125 27.09375 28.953125Q25.53125 28.953125 24.546875 28.078125Q23.5625 27.1875 23.421875 25.75ZM33.171875 28.75L33.171875 27.140625L34.78125 27.140625L34.78125 28.75Q34.78125 29.640625 34.46875 30.171875Q34.15625 30.71875 33.46875 31.015625L33.078125 30.421875Q33.53125 30.21875 33.734375 29.84375Q33.953125 29.46875 33.96875 28.75L33.171875 28.75ZM36.421875 23.09375Q36.421875 21.0625 36.828125 19.828125Q37.25 18.59375 38.078125 17.921875Q38.90625 17.25 40.15625 17.25Q41.078125 17.25 41.765625 17.625Q42.46875 17.984375 42.921875 18.6875Q43.375 19.390625 43.625 20.390625Q43.890625 21.390625 43.890625 23.09375Q43.890625 25.109375 43.46875 26.359375Q43.0625 27.59375 42.234375 28.28125Q41.40625 28.953125 40.15625 28.953125Q38.5 28.953125 37.546875 27.75Q36.421875 26.328125 36.421875 23.09375ZM37.859375 23.09375Q37.859375 25.921875 38.515625 26.859375Q39.1875 27.78125 40.15625 27.78125Q41.125 27.78125 41.78125 26.84375Q42.4375 25.90625 42.4375 23.09375Q42.4375 20.265625 41.78125 19.34375Q41.125 18.40625 40.140625 18.40625Q39.171875 18.40625 38.59375 19.234375Q37.859375 20.28125 37.859375 23.09375Z" fill-rule="nonzero"/><path fill="#000000" d="M10.385486 308.77875Q9.369861 307.01965 9.104496 305.74753Q8.852663 304.4676 9.233903 303.47165Q9.615142 302.47574 10.697674 301.85074Q11.496041 301.3898 12.278934 301.37082Q13.067545 301.33047 13.811525 301.71283Q14.555506 302.09518 15.272012 302.8362Q16.00205 303.56943 16.853613 305.04437Q17.861425 306.78998 18.12107 308.08344Q18.386435 309.35556 18.013008 310.36502Q17.63177 311.36093 16.549236 311.98593Q15.114882 312.81406 13.687889 312.2487Q12.002673 311.5798 10.385486 308.77875ZM11.630397 308.06Q13.044459 310.50925 14.081538 310.993Q15.124337 311.45544 15.963299 310.97107Q16.802261 310.4867 16.90184 309.34668Q17.00142 308.20663 15.595169 305.77094Q14.181107 303.32172 13.15184 302.85147Q12.114761 302.3677 11.262267 302.8599Q10.4233055 303.34427 10.336697 304.3505Q10.224147 305.6243 11.630397 308.06ZM25.595068 306.52878L24.377218 307.2319L19.892843 299.46475Q19.688488 300.14203 19.213497 300.9756Q18.752039 301.8013 18.30871 302.34595L17.629023 301.16867Q18.362646 300.0956 18.729794 298.98154Q19.10266 297.8461 19.060232 297.0226L19.845068 296.5695L25.595068 306.52878ZM26.948002 301.77838L26.237064 300.547L29.971798 298.39075L30.682735 299.62213L26.948002 301.77838ZM38.852978 297.30466L39.532665 298.4819L32.969814 302.27097Q32.69847 301.83224 32.626476 301.33252Q32.487232 300.52887 32.66703 299.55902Q32.84683 298.5892 33.396576 297.13513Q34.24122 294.87936 34.364235 293.7799Q34.47944 292.66696 34.081 291.97684Q33.66694 291.25967 32.863674 291.05588Q32.06041 290.85208 31.221447 291.33646Q30.34189 291.84427 30.118843 292.6767Q29.895796 293.5091 30.434858 294.44278L29.106104 295.04758Q28.428919 293.56216 28.846006 292.34708Q29.263094 291.132 30.670385 290.3195Q32.10474 289.49136 33.391106 289.81317Q34.683193 290.11362 35.35507 291.27734Q35.69882 291.87274 35.791187 292.5952Q35.875744 293.30417 35.674603 294.26828Q35.47346 295.2324 34.801514 297.09982Q34.236702 298.65277 34.120785 299.17075Q33.99706 299.6752 33.981583 300.11716L38.852978 297.30466ZM38.098297 292.77875Q37.082672 291.01965 36.81731 289.74753Q36.565475 288.4676 36.946716 287.47165Q37.327953 286.47574 38.41049 285.85074Q39.208855 285.3898 39.991745 285.37082Q40.780357 285.33047 41.524338 285.71283Q42.26832 286.09518 42.984825 286.8362Q43.714863 287.56943 44.566425 289.04437Q45.574238 290.78998 45.833885 292.08344Q46.099247 293.35556 45.725822 294.36502Q45.34458 295.36093 44.26205 295.98593Q42.827694 296.81406 41.400703 296.2487Q39.715485 295.5798 38.098297 292.77875ZM39.34321 292.06Q40.75727 294.50925 41.79435 294.993Q42.83715 295.45544 43.676113 294.97107Q44.515076 294.4867 44.614655 293.34668Q44.714233 292.20663 43.307983 289.77094Q41.89392 287.32172 40.864655 286.85147Q39.827576 286.3677 38.97508 286.8599Q38.13612 287.34427 38.04951 288.3505Q37.93696 289.6243 39.34321 292.06ZM45.89253 288.27875Q44.876904 286.51965 44.611538 285.24753Q44.359703 283.9676 44.740944 282.97165Q45.122185 281.97574 46.204716 281.35074Q47.003082 280.8898 47.785976 280.87082Q48.57459 280.83047 49.318565 281.21283Q50.062546 281.59518 50.779053 282.3362Q51.50909 283.06943 52.360653 284.54437Q53.368465 286.28998 53.628113 287.58344Q53.89348 288.85556 53.52005 289.86502Q53.13881 290.86093 52.05628 291.48593Q50.621925 292.31406 49.19493 291.7487Q47.509716 291.0798 45.89253 288.27875ZM47.13744 287.56Q48.551502 290.00925 49.58858 290.493Q50.63138 290.95544 51.47034 290.47107Q52.309303 289.9867 52.408882 288.84668Q52.50846 287.70663 51.10221 285.27094Q49.68815 282.82172 48.658882 282.35147Q47.621803 281.8677 46.76931 282.3599Q45.930347 282.84427 45.84374 283.8505Q45.73119 285.1243 47.13744 287.56ZM51.619507 280.01068L50.93982 278.83344L57.35382 275.1303L57.900696 276.0775Q57.539417 277.63925 57.574486 279.85626Q57.61527 282.0519 58.11669 284.10788Q58.47009 285.56372 59.23474 287.1069L57.9763 287.83347Q57.323673 286.6406 56.803562 284.73972Q56.28917 282.81754 56.218254 280.8197Q56.15306 278.80054 56.477367 277.206L51.619507 280.01068Z" fill-rule="nonzero"/><path fill="#000000" d="M55.094658 308.77875Q54.079033 307.01965 53.813667 305.74753Q53.561832 304.4676 53.943073 303.47165Q54.324314 302.47574 55.406845 301.85074Q56.205208 301.3898 56.988102 301.37082Q57.776714 301.33047 58.520695 301.71283Q59.264675 302.09518 59.98118 302.8362Q60.71122 303.56943 61.562782 305.04437Q62.570595 306.78998 62.83024 308.08344Q63.095604 309.35556 62.722176 310.36502Q62.340935 311.36093 61.258408 311.98593Q59.824055 312.81406 58.39706 312.2487Q56.711845 311.5798 55.094658 308.77875ZM56.33957 308.06Q57.75363 310.50925 58.79071 310.993Q59.833508 311.45544 60.67247 310.97107Q61.51143 310.4867 61.611008 309.34668Q61.710587 308.20663 60.304337 305.77094Q58.890274 303.32172 57.861008 302.85147Q56.82393 302.3677 55.97144 302.8599Q55.132477 303.34427 55.045868 304.3505Q54.93332 305.6243 56.33957 308.06ZM70.30424 306.52878L69.08639 307.2319L64.60201 299.46475Q64.39765 300.14203 63.922665 300.9756Q63.46121 301.8013 63.01788 302.34595L62.338192 301.16867Q63.071815 300.0956 63.43896 298.98154Q63.81183 297.8461 63.7694 297.0226L64.55424 296.5695L70.30424 306.52878ZM71.657166 301.77838L70.94623 300.547L74.68097 298.39075L75.39191 299.62213L71.657166 301.77838ZM83.56214 297.30466L84.24183 298.4819L77.678986 302.27097Q77.40764 301.83224 77.33564 301.33255Q77.1964 300.52887 77.3762 299.55902Q77.55599 298.5892 78.10574 297.13513Q78.950386 294.87936 79.0734 293.7799Q79.18861 292.66696 78.79017 291.97684Q78.37611 291.25967 77.57284 291.05588Q76.76958 290.85208 75.93061 291.33646Q75.051056 291.84427 74.82801 292.6767Q74.604965 293.50912 75.14403 294.44278L73.81527 295.04758Q73.138084 293.56216 73.555176 292.34708Q73.97226 291.132 75.379555 290.3195Q76.8139 289.49136 78.10027 289.81317Q79.392365 290.11362 80.06424 291.27734Q80.40799 291.87274 80.50036 292.5952Q80.58491 293.30417 80.383766 294.26828Q80.182625 295.2324 79.51068 297.09982Q78.94587 298.65277 78.829956 299.17075Q78.70622 299.6752 78.69075 300.11716L83.56214 297.30466ZM82.807465 292.77875Q81.79184 291.01965 81.526474 289.74753Q81.27464 288.4676 81.65588 287.47165Q82.037125 286.47574 83.11965 285.85074Q83.91802 285.3898 84.70091 285.37082Q85.489525 285.33047 86.233505 285.71283Q86.977486 286.09518 87.69399 286.8362Q88.424034 287.56943 89.2756 289.04437Q90.28341 290.78998 90.54305 292.08344Q90.80842 293.35556 90.43499 294.36502Q90.05375 295.36093 88.971214 295.98593Q87.536865 296.81406 86.10987 296.2487Q84.42465 295.5798 82.807465 292.77875ZM84.052376 292.06Q85.46644 294.50925 86.50352 294.993Q87.54632 295.45544 88.38528 294.97107Q89.22424 294.4867 89.32382 293.34668Q89.4234 292.20663 88.01715 289.77094Q86.60309 287.32172 85.57382 286.85147Q84.53674 286.3677 83.68425 286.8599Q82.84528 287.34427 82.758675 288.3505Q82.646126 289.62433 84.052376 292.06ZM90.60169 288.27875Q89.58607 286.51965 89.3207 285.24753Q89.06887 283.9676 89.45011 282.97165Q89.83135 281.97574 90.91389 281.35074Q91.71225 280.8898 92.49514 280.87082Q93.28375 280.83047 94.02773 281.21283Q94.77171 281.59518 95.48822 282.3362Q96.21826 283.06943 97.069824 284.54437Q98.07764 286.28998 98.33728 287.58344Q98.602646 288.85556 98.22922 289.86502Q97.84798 290.86093 96.76545 291.48593Q95.33109 292.31406 93.9041 291.7487Q92.21888 291.0798 90.60169 288.27875ZM91.8466 287.56Q93.260666 290.00925 94.297745 290.493Q95.340546 290.95544 96.17951 290.47107Q97.01847 289.9867 97.11805 288.84668Q97.21763 287.70663 95.81138 285.27094Q94.397316 282.82172 93.36805 282.35147Q92.33097 281.8677 91.47848 282.3599Q90.63951 282.84427 90.55291 283.8505Q90.44035 285.12433 91.8466 287.56ZM99.98204 282.2135Q99.068016 282.38037 98.40579 282.0771Q97.74356 281.77383 97.3295 281.05664Q96.7045 279.97412 97.053925 278.7981Q97.40907 277.60074 98.708115 276.85074Q100.00715 276.10074 101.229485 276.4054Q102.45754 276.6887 103.08254 277.7712Q103.48098 278.46133 103.4125 279.18646Q103.34402 279.91162 102.76956 280.60413Q103.84805 280.3784 104.704475 280.768Q105.574425 281.14978 106.105675 282.06995Q106.84005 283.34192 106.441246 284.7449Q106.04816 286.12656 104.573204 286.97812Q103.111786 287.82187 101.70517 287.47928Q100.30427 287.11536 99.55427 285.8163Q98.99177 284.84204 99.103905 283.9113Q99.21604 282.9805 99.98204 282.2135ZM98.55097 280.2973Q98.95722 281.00095 99.661575 281.1897Q100.37946 281.3706 101.110176 280.94873Q101.81382 280.54248 102.002556 279.83813Q102.191284 279.13376 101.8241 278.49777Q101.43347 277.8212 100.71558 277.6403Q99.98988 277.44583 99.29977 277.84427Q98.59612 278.25052 98.39386 278.96268Q98.1916 279.67487 98.55097 280.2973ZM100.79918 285.09756Q101.10387 285.6253 101.628685 285.97183Q102.16704 286.31052 102.810425 286.2999Q103.446 286.27576 104.0008 285.95544Q104.880356 285.44763 105.12837 284.5647Q105.368576 283.66824 104.868576 282.80222Q104.36076 281.92267 103.43725 281.6981Q102.51945 281.45218 101.63989 281.96Q100.7874 282.45218 100.547195 283.34863Q100.30699 284.2451 100.79918 285.09756Z" fill-rule="nonzero"/><path fill="#000000" d="M99.926315 308.77875Q98.91069 307.01965 98.645325 305.74753Q98.39349 304.4676 98.774734 303.47165Q99.155975 302.47574 100.2385 301.85074Q101.03687 301.3898 101.81976 301.37082Q102.608376 301.33047 103.352356 301.71283Q104.09634 302.09518 104.81284 302.8362Q105.542885 303.56943 106.39445 305.04437Q107.40226 306.78998 107.6619 308.08344Q107.92727 309.35556 107.55384 310.36502Q107.1726 311.36093 106.090065 311.98593Q104.655716 312.81406 103.22872 312.2487Q101.5435 311.5798 99.926315 308.77875ZM101.17123 308.06Q102.58529 310.50925 103.62237 310.993Q104.66517 311.45544 105.50413 310.97107Q106.343094 310.4867 106.44267 309.34668Q106.54225 308.20663 105.136 305.77094Q103.72194 303.32172 102.69267 302.85147Q101.655594 302.3677 100.8031 302.8599Q99.964134 303.34427 99.877525 304.3505Q99.76498 305.6243 101.17123 308.06ZM115.1359 306.52878L113.91805 307.2319L109.43368 299.46472Q109.22932 300.14203 108.75433 300.9756Q108.29287 301.8013 107.84954 302.34595L107.16985 301.16867Q107.90348 300.0956 108.27062 298.98154Q108.64349 297.8461 108.60107 297.0226L109.3859 296.5695L115.1359 306.52878ZM116.48883 301.77838L115.77789 300.547L119.512634 298.39075L120.22357 299.62213L116.48883 301.77838ZM128.39381 297.30466L129.0735 298.4819L122.51065 302.27097Q122.2393 301.83224 122.167305 301.33252Q122.02807 300.52887 122.20786 299.55902Q122.38766 298.5892 122.93741 297.13513Q123.78205 294.87936 123.90507 293.7799Q124.02027 292.66696 123.62183 291.97684Q123.20777 291.25967 122.4045 291.05588Q121.60124 290.85208 120.762276 291.33646Q119.88272 291.84427 119.659676 292.6767Q119.43663 293.5091 119.97569 294.44278L118.646935 295.04758Q117.96975 293.56216 118.38684 292.34708Q118.803925 291.132 120.21122 290.3195Q121.64557 289.49136 122.93194 289.81317Q124.22403 290.11362 124.895905 291.27734Q125.239655 291.87274 125.332016 292.5952Q125.41657 293.30417 125.21543 294.26828Q125.01429 295.2324 124.34235 297.09982Q123.777534 298.65277 123.66162 299.17075Q123.53789 299.6752 123.522415 300.11716L128.39381 297.30466ZM127.63913 292.77875Q126.623505 291.01965 126.35814 289.74753Q126.10631 288.4676 126.48755 287.47165Q126.86879 286.47574 127.95132 285.85074Q128.74968 285.3898 129.53258 285.37082Q130.3212 285.33047 131.06517 285.71283Q131.80916 286.09518 132.52565 286.8362Q133.25569 287.56943 134.10725 289.04437Q135.11507 290.78998 135.37471 292.08344Q135.64008 293.35556 135.26665 294.36502Q134.8854 295.36093 133.80289 295.98593Q132.36853 296.81406 130.94153 296.2487Q129.25632 295.5798 127.63913 292.77875ZM128.88405 292.06Q130.29811 294.50925 131.33519 294.993Q132.37798 295.45544 133.21695 294.97107Q134.05591 294.4867 134.15549 293.34668Q134.25507 292.20663 132.84882 289.77094Q131.43475 287.32172 130.40549 286.85147Q129.36841 286.3677 128.51591 286.8599Q127.67695 287.34427 127.59034 288.3505Q127.47779 289.6243 128.88405 292.06ZM135.43336 288.27875Q134.41774 286.51965 134.15237 285.24753Q133.90054 283.9676 134.28177 282.97165Q134.66301 281.97574 135.74554 281.35074Q136.54391 280.8898 137.32681 280.87082Q138.11542 280.83047 138.8594 281.21283Q139.60338 281.59518 140.31989 282.3362Q141.04993 283.06943 141.90149 284.54437Q142.9093 286.28998 143.16895 287.58344Q143.43431 288.85556 143.06088 289.86502Q142.67964 290.86093 141.5971 291.48593Q140.16275 292.31406 138.73576 291.7487Q137.05055 291.0798 135.43336 288.27875ZM136.67827 287.56Q138.09233 290.00925 139.12941 290.493Q140.17221 290.95544 141.01117 290.47107Q141.85013 289.9867 141.9497 288.84668Q142.04929 287.70663 140.64304 285.27094Q139.22897 282.82172 138.1997 282.35147Q137.16263 281.8677 136.31013 282.3599Q135.47118 282.84427 135.38457 283.8505Q135.27202 285.1243 136.67827 287.56ZM144.9035 286.27527L146.01825 285.48734Q146.64366 286.22684 147.28189 286.36353Q147.91231 286.4867 148.56183 286.1117Q149.13016 285.78357 149.4012 285.28427Q149.67224 284.78497 149.7007 284.20926Q149.72133 283.62 149.47536 282.78772Q149.24294 281.94763 148.80544 281.18988Q148.75856 281.10867 148.66481 280.9463Q148.63539 281.7391 148.21034 282.47165Q147.77748 283.19064 147.04677 283.61252Q145.81538 284.32346 144.44727 283.92255Q143.07915 283.52167 142.2354 282.06024Q141.36821 280.55823 141.71652 279.13025Q142.07835 277.6945 143.418 276.92105Q144.39227 276.35855 145.49533 276.42535Q146.59056 276.4786 147.56474 277.19717Q148.53891 277.91574 149.5936 279.7425Q150.69516 281.65045 150.92412 283.01578Q151.1666 284.3733 150.68492 285.44522Q150.21677 286.50937 149.12071 287.14218Q147.95699 287.81406 146.83774 287.59424Q145.73204 287.36658 144.9035 286.27527ZM147.37325 279.02173Q146.76387 277.96628 145.84398 277.68546Q144.9298 277.38333 144.14496 277.83646Q143.33307 278.3052 143.10695 279.31982Q142.89438 280.32663 143.50375 281.38208Q144.05063 282.32928 144.9627 282.59656Q145.88832 282.85602 146.72728 282.37164Q147.56624 281.88727 147.76375 280.97937Q147.97481 280.06366 147.37325 279.02173Z" fill-rule="nonzero"/><path fill="#000000" d="M144.63548 308.77875Q143.61986 307.01965 143.35449 305.74753Q143.10266 304.4676 143.4839 303.47165Q143.86514 302.47574 144.94768 301.85074Q145.74605 301.3898 146.52893 301.37082Q147.31755 301.33047 148.06152 301.71283Q148.80551 302.09518 149.52202 302.8362Q150.25204 303.56943 151.1036 305.04437Q152.11142 306.78998 152.37106 308.08344Q152.63643 309.35556 152.263 310.36502Q151.88177 311.36093 150.79924 311.98593Q149.36488 312.81406 147.93788 312.2487Q146.25267 311.5798 144.63548 308.77875ZM145.8804 308.06Q147.29446 310.50925 148.33154 310.993Q149.37434 311.45544 150.2133 310.97107Q151.05226 310.4867 151.15184 309.34668Q151.25142 308.20663 149.84517 305.77094Q148.4311 303.32172 147.40184 302.85147Q146.36476 302.3677 145.51227 302.8599Q144.67331 303.34427 144.5867 304.3505Q144.47415 305.6243 145.8804 308.06ZM159.84506 306.52878L158.62721 307.2319L154.14284 299.46475Q153.93849 300.14203 153.4635 300.9756Q153.00204 301.8013 152.55872 302.34595L151.87903 301.16867Q152.61264 300.0956 152.9798 298.98154Q153.35266 297.8461 153.31023 297.0226L154.09506 296.5695L159.84506 306.52878ZM161.198 301.77838L160.48706 300.547L164.2218 298.39075L164.93274 299.62213L161.198 301.77838ZM173.10298 297.30466L173.78267 298.4819L167.21982 302.27097Q166.94847 301.83224 166.87648 301.33252Q166.73723 300.52887 166.91702 299.55902Q167.09683 298.5892 167.64658 297.13513Q168.49121 294.87936 168.61423 293.7799Q168.72945 292.66696 168.33101 291.97684Q167.91695 291.25967 167.11368 291.05588Q166.31041 290.85208 165.47145 291.33646Q164.59189 291.84427 164.36884 292.6767Q164.1458 293.5091 164.68486 294.44278L163.35611 295.04758Q162.67892 293.56216 163.09601 292.34708Q163.51309 291.132 164.92038 290.3195Q166.35474 289.49136 167.64111 289.81317Q168.9332 290.11362 169.60507 291.27734Q169.94882 291.87274 170.04118 292.5952Q170.12575 293.30417 169.9246 294.26828Q169.72346 295.2324 169.05151 297.09982Q168.4867 298.65277 168.37079 299.17075Q168.24706 299.6752 168.23158 300.11716L173.10298 297.30466ZM172.3483 292.77875Q171.33267 291.01965 171.0673 289.74753Q170.81548 288.4676 171.19672 287.47165Q171.57796 286.47574 172.66049 285.85074Q173.45885 285.3898 174.24174 285.37082Q175.03036 285.33047 175.77434 285.71283Q176.51833 286.09518 177.23482 286.8362Q177.96486 287.56943 178.81642 289.04437Q179.82423 290.78998 180.08388 292.08344Q180.34924 293.35556 179.97581 294.36502Q179.59457 295.36093 178.51205 295.98593Q177.0777 296.81406 175.6507 296.2487Q173.96548 295.5798 172.3483 292.77875ZM173.59322 292.06Q175.00728 294.50925 176.04436 294.993Q177.08714 295.45544 177.92612 294.97107Q178.76508 294.4867 178.86465 293.34668Q178.96423 292.20663 177.55798 289.77094Q176.14392 287.32172 175.11465 286.85147Q174.07758 286.3677 173.22508 286.8599Q172.38612 287.34427 172.29951 288.3505Q172.18697 289.6243 173.59322 292.06ZM187.55788 290.52878L186.34003 291.2319L181.85565 283.46475Q181.6513 284.14203 181.17632 284.9756Q180.71486 285.8013 180.27153 286.34595L179.59184 285.16867Q180.32545 284.0956 180.69261 282.98154Q181.06548 281.8461 181.02304 281.0226L181.80788 280.5695L187.55788 290.52878ZM187.93675 283.77875Q186.92113 282.01965 186.65576 280.74753Q186.40393 279.4676 186.78517 278.47165Q187.16641 277.47574 188.24895 276.85074Q189.04732 276.3898 189.8302 276.37082Q190.61882 276.33047 191.3628 276.71283Q192.10678 277.09518 192.82329 277.8362Q193.55331 278.56943 194.40488 280.04437Q195.41269 281.78998 195.67235 283.08344Q195.9377 284.35556 195.56429 285.36502Q195.18304 286.36093 194.10051 286.98593Q192.66615 287.81406 191.23917 287.2487Q189.55394 286.5798 187.93675 283.77875ZM189.18167 283.06Q190.59573 285.50925 191.63281 285.993Q192.67561 286.45544 193.51457 285.97107Q194.35353 285.4867 194.45311 284.34668Q194.55269 283.20663 193.14644 280.77094Q191.73238 278.32172 190.70311 277.85147Q189.66603 277.3677 188.81354 277.8599Q187.97458 278.34427 187.88797 279.3505Q187.77542 280.6243 189.18167 283.06Z" fill-rule="nonzero"/><path stroke="#000000" stroke-width="4.0" stroke-linecap="butt" d="M203.5 20.75L238.5 20.75" fill-rule="nonzero"/><path fill="#1a1a1a" d="M247.04688 21.984375L248.10938 21.890625Q248.1875 22.546875 248.46875 22.953125Q248.75 23.359375 249.32812 23.625Q249.92188 23.875 250.65625 23.875Q251.29688 23.875 251.79688 23.6875Q252.29688 23.484375 252.53125 23.15625Q252.78125 22.8125 252.78125 22.421875Q252.78125 22.015625 252.54688 21.71875Q252.3125 21.40625 251.78125 21.203125Q251.42188 21.0625 250.23438 20.78125Q249.0625 20.5 248.59375 20.25Q247.96875 19.921875 247.67188 19.453125Q247.375 18.96875 247.375 18.375Q247.375 17.734375 247.73438 17.171875Q248.10938 16.59375 248.8125 16.3125Q249.53125 16.015625 250.39062 16.015625Q251.34375 16.015625 252.07812 16.328125Q252.8125 16.625 253.20312 17.234375Q253.59375 17.828125 253.625 18.578125L252.53125 18.65625Q252.4375 17.84375 251.92188 17.4375Q251.42188 17.015625 250.4375 17.015625Q249.40625 17.015625 248.9375 17.390625Q248.46875 17.765625 248.46875 18.296875Q248.46875 18.765625 248.79688 19.0625Q249.125 19.359375 250.5 19.671875Q251.89062 19.984375 252.40625 20.21875Q253.15625 20.578125 253.51562 21.109375Q253.875 21.625 253.875 22.328125Q253.875 23.015625 253.48438 23.625Q253.09375 24.21875 252.35938 24.5625Q251.625 24.890625 250.70312 24.890625Q249.53125 24.890625 248.73438 24.5625Q247.95312 24.21875 247.5 23.53125Q247.0625 22.84375 247.04688 21.984375Z" fill-rule="nonzero"/><path fill="#1a1a1a" d="M247.0 34.515625Q247.0 32.984375 247.3125 32.0625Q247.625 31.125 248.23438 30.625Q248.85938 30.125 249.79688 30.125Q250.48438 30.125 251.0 30.40625Q251.53125 30.6875 251.875 31.21875Q252.21875 31.734375 252.40625 32.484375Q252.59375 33.234375 252.59375 34.515625Q252.59375 36.03125 252.28125 36.953125Q251.98438 37.875 251.35938 38.390625Q250.75 38.890625 249.79688 38.890625Q248.5625 38.890625 247.84375 38.0Q247.0 36.9375 247.0 34.515625ZM248.07812 34.515625Q248.07812 36.625 248.57812 37.328125Q249.07812 38.03125 249.79688 38.03125Q250.53125 38.03125 251.01562 37.328125Q251.51562 36.625 251.51562 34.515625Q251.51562 32.390625 251.01562 31.703125Q250.53125 31.0 249.78125 31.0Q249.0625 31.0 248.625 31.609375Q248.07812 32.390625 248.07812 34.515625Z" fill-rule="nonzero"/><path stroke="#000000" stroke-width="4.0" stroke-linecap="butt" stroke-dasharray="13.0,9.0,4.0,9.0" d="M203.5 58.75L238.5 58.75" fill-rule="nonzero"/><path fill="#1a1a1a" d="M247.04688 59.984375L248.10938 59.890625Q248.1875 60.546875 248.46875 60.953125Q248.75 61.359375 249.32812 61.625Q249.92188 61.875 250.65625 61.875Q251.29688 61.875 251.79688 61.6875Q252.29688 61.484375 252.53125 61.15625Q252.78125 60.8125 252.78125 60.421875Q252.78125 60.015625 252.54688 59.71875Q252.3125 59.40625 251.78125 59.203125Q251.42188 59.0625 250.23438 58.78125Q249.0625 58.5 248.59375 58.25Q247.96875 57.921875 247.67188 57.453125Q247.375 56.96875 247.375 56.375Q247.375 55.734375 247.73438 55.171875Q248.10938 54.59375 248.8125 54.3125Q249.53125 54.015625 250.39062 54.015625Q251.34375 54.015625 252.07812 54.328125Q252.8125 54.625 253.20312 55.234375Q253.59375 55.828125 253.625 56.578125L252.53125 56.65625Q252.4375 55.84375 251.92188 55.4375Q251.42188 55.015625 250.4375 55.015625Q249.40625 55.015625 248.9375 55.390625Q248.46875 55.765625 248.46875 56.296875Q248.46875 56.765625 248.79688 57.0625Q249.125 57.359375 250.5 57.671875Q251.89062 57.984375 252.40625 58.21875Q253.15625 58.578125 253.51562 59.109375Q253.875 59.625 253.875 60.328125Q253.875 61.015625 253.48438 61.625Q253.09375 62.21875 252.35938 62.5625Q251.625 62.890625 250.70312 62.890625Q249.53125 62.890625 248.73438 62.5625Q247.95312 62.21875 247.5 61.53125Q247.0625 60.84375 247.04688 59.984375Z" fill-rule="nonzero"/><path fill="#1a1a1a" d="M250.96875 76.75L249.92188 76.75L249.92188 70.03125Q249.53125 70.390625 248.90625 70.765625Q248.29688 71.125 247.8125 71.296875L247.8125 70.28125Q248.6875 69.859375 249.34375 69.28125Q250.01562 68.6875 250.29688 68.125L250.96875 68.125L250.96875 76.75Z" fill-rule="nonzero"/><path stroke="#000000" stroke-width="4.0" stroke-linecap="butt" stroke-dasharray="13.0,9.0" d="M203.5 96.75L238.5 96.75" fill-rule="nonzero"/><path fill="#1a1a1a" d="M247.04688 97.984375L248.10938 97.890625Q248.1875 98.546875 248.46875 98.953125Q248.75 99.359375 249.32812 99.625Q249.92188 99.875 250.65625 99.875Q251.29688 99.875 251.79688 99.6875Q252.29688 99.484375 252.53125 99.15625Q252.78125 98.8125 252.78125 98.421875Q252.78125 98.015625 252.54688 97.71875Q252.3125 97.40625 251.78125 97.203125Q251.42188 97.0625 250.23438 96.78125Q249.0625 96.5 248.59375 96.25Q247.96875 95.921875 247.67188 95.453125Q247.375 94.96875 247.375 94.375Q247.375 93.734375 247.73438 93.171875Q248.10938 92.59375 248.8125 92.3125Q249.53125 92.015625 250.39062 92.015625Q251.34375 92.015625 252.07812 92.328125Q252.8125 92.625 253.20312 93.234375Q253.59375 93.828125 253.625 94.578125L252.53125 94.65625Q252.4375 93.84375 251.92188 93.4375Q251.42188 93.015625 250.4375 93.015625Q249.40625 93.015625 248.9375 93.390625Q248.46875 93.765625 248.46875 94.296875Q248.46875 94.765625 248.79688 95.0625Q249.125 95.359375 250.5 95.671875Q251.89062 95.984375 252.40625 96.21875Q253.15625 96.578125 253.51562 97.109375Q253.875 97.625 253.875 98.328125Q253.875 99.015625 253.48438 99.625Q253.09375 100.21875 252.35938 100.5625Q251.625 100.890625 250.70312 100.890625Q249.53125 100.890625 248.73438 100.5625Q247.95312 100.21875 247.5 99.53125Q247.0625 98.84375 247.04688 97.984375Z" fill-rule="nonzero"/><path fill="#1a1a1a" d="M252.54688 113.734375L252.54688 114.75L246.85938 114.75Q246.85938 114.375 246.98438 114.015625Q247.20312 113.4375 247.67188 112.875Q248.15625 112.3125 249.0625 111.578125Q250.46875 110.421875 250.95312 109.75Q251.45312 109.078125 251.45312 108.484375Q251.45312 107.859375 251.0 107.4375Q250.54688 107.0 249.82812 107.0Q249.0625 107.0 248.60938 107.453125Q248.15625 107.90625 248.14062 108.71875L247.0625 108.609375Q247.17188 107.390625 247.89062 106.765625Q248.625 106.125 249.85938 106.125Q251.09375 106.125 251.8125 106.8125Q252.53125 107.5 252.53125 108.515625Q252.53125 109.03125 252.3125 109.53125Q252.10938 110.015625 251.60938 110.578125Q251.125 111.125 250.0 112.078125Q249.04688 112.875 248.76562 113.171875Q248.5 113.453125 248.32812 113.734375L252.54688 113.734375Z" fill-rule="nonzero"/></svg>