<?xml version="1.0" encoding="utf-8"?>
<svg xmlns="http://www.w3.org/2000/svg" xmlns:xlink="http://www.w3.org/1999/xlink" width="600" height="400" viewBox="0 0 2400 1600">
<defs>
  <clipPath id="clip130">
    <rect x="0" y="0" width="2400" height="1600"/>
  </clipPath>
</defs>
<path clip-path="url(#clip130)" d="M0 1600 L2400 1600 L2400 0 L0 0  Z" fill="#ffffff" fill-rule="evenodd" fill-opacity="1"/>
<defs>
  <clipPath id="clip131">
    <rect x="480" y="0" width="1681" height="1600"/>
  </clipPath>
</defs>
<path clip-path="url(#clip130)" d="M234.125 1423.18 L2352.76 1423.18 L2352.76 47.2441 L234.125 47.2441  Z" fill="#ffffff" fill-rule="evenodd" fill-opacity="1"/>
<defs>
  <clipPath id="clip132">
    <rect x="234" y="47" width="2120" height="1377"/>
  </clipPath>
</defs>
<polyline clip-path="url(#clip132)" style="stroke:#000000; stroke-linecap:round; stroke-linejoin:round; stroke-width:2; stroke-opacity:0.1; fill:none" points="273.481,1423.18 273.481,47.2441 "/>
<polyline clip-path="url(#clip132)" style="stroke:#000000; stroke-linecap:round; stroke-linejoin:round; stroke-width:2; stroke-opacity:0.1; fill:none" points="788.612,1423.18 788.612,47.2441 "/>
<polyline clip-path="url(#clip132)" style="stroke:#000000; stroke-linecap:round; stroke-linejoin:round; stroke-width:2; stroke-opacity:0.1; fill:none" points="1303.74,1423.18 1303.74,47.2441 "/>
<polyline clip-path="url(#clip132)" style="stroke:#000000; stroke-linecap:round; stroke-linejoin:round; stroke-width:2; stroke-opacity:0.1; fill:none" points="1818.87,1423.18 1818.87,47.2441 "/>
<polyline clip-path="url(#clip132)" style="stroke:#000000; stroke-linecap:round; stroke-linejoin:round; stroke-width:2; stroke-opacity:0.1; fill:none" points="2334.01,1423.18 2334.01,47.2441 "/>
<polyline clip-path="url(#clip130)" style="stroke:#000000; stroke-linecap:round; stroke-linejoin:round; stroke-width:4; stroke-opacity:1; fill:none" points="234.125,1423.18 2352.76,1423.18 "/>
<polyline clip-path="url(#clip130)" style="stroke:#000000; stroke-linecap:round; stroke-linejoin:round; stroke-width:4; stroke-opacity:1; fill:none" points="273.481,1423.18 273.481,1404.28 "/>
<polyline clip-path="url(#clip130)" style="stroke:#000000; stroke-linecap:round; stroke-linejoin:round; stroke-width:4; stroke-opacity:1; fill:none" points="788.612,1423.18 788.612,1404.28 "/>
<polyline clip-path="url(#clip130)" style="stroke:#000000; stroke-linecap:round; stroke-linejoin:round; stroke-width:4; stroke-opacity:1; fill:none" points="1303.74,1423.18 1303.74,1404.28 "/>
<polyline clip-path="url(#clip130)" style="stroke:#000000; stroke-linecap:round; stroke-linejoin:round; stroke-width:4; stroke-opacity:1; fill:none" points="1818.87,1423.18 1818.87,1404.28 "/>
<polyline clip-path="url(#clip130)" style="stroke:#000000; stroke-linecap:round; stroke-linejoin:round; stroke-width:4; stroke-opacity:1; fill:none" points="2334.01,1423.18 2334.01,1404.28 "/>
<path clip-path="url(#clip130)" d="M273.481 1454.1 Q269.87 1454.1 268.042 1457.66 Q266.236 1461.2 266.236 1468.33 Q266.236 1475.44 268.042 1479.01 Q269.87 1482.55 273.481 1482.55 Q277.116 1482.55 278.921 1479.01 Q280.75 1475.44 280.75 1468.33 Q280.75 1461.2 278.921 1457.66 Q277.116 1454.1 273.481 1454.1 M273.481 1450.39 Q279.292 1450.39 282.347 1455 Q285.426 1459.58 285.426 1468.33 Q285.426 1477.06 282.347 1481.67 Q279.292 1486.25 273.481 1486.25 Q267.671 1486.25 264.593 1481.67 Q261.537 1477.06 261.537 1468.33 Q261.537 1459.58 264.593 1455 Q267.671 1450.39 273.481 1450.39 Z" fill="#000000" fill-rule="nonzero" fill-opacity="1" /><path clip-path="url(#clip130)" d="M767.883 1481.64 L784.203 1481.64 L784.203 1485.58 L762.258 1485.58 L762.258 1481.64 Q764.92 1478.89 769.504 1474.26 Q774.11 1469.61 775.291 1468.27 Q777.536 1465.74 778.416 1464.01 Q779.318 1462.25 779.318 1460.56 Q779.318 1457.8 777.374 1456.07 Q775.453 1454.33 772.351 1454.33 Q770.152 1454.33 767.698 1455.09 Q765.268 1455.86 762.49 1457.41 L762.49 1452.69 Q765.314 1451.55 767.768 1450.97 Q770.221 1450.39 772.258 1450.39 Q777.629 1450.39 780.823 1453.08 Q784.017 1455.77 784.017 1460.26 Q784.017 1462.39 783.207 1464.31 Q782.42 1466.2 780.314 1468.8 Q779.735 1469.47 776.633 1472.69 Q773.531 1475.88 767.883 1481.64 Z" fill="#000000" fill-rule="nonzero" fill-opacity="1" /><path clip-path="url(#clip130)" d="M794.064 1451.02 L812.42 1451.02 L812.42 1454.96 L798.346 1454.96 L798.346 1463.43 Q799.365 1463.08 800.383 1462.92 Q801.402 1462.73 802.42 1462.73 Q808.207 1462.73 811.587 1465.9 Q814.966 1469.08 814.966 1474.49 Q814.966 1480.07 811.494 1483.17 Q808.022 1486.25 801.703 1486.25 Q799.527 1486.25 797.258 1485.88 Q795.013 1485.51 792.605 1484.77 L792.605 1480.07 Q794.689 1481.2 796.911 1481.76 Q799.133 1482.32 801.61 1482.32 Q805.615 1482.32 807.953 1480.21 Q810.29 1478.1 810.29 1474.49 Q810.29 1470.88 807.953 1468.77 Q805.615 1466.67 801.61 1466.67 Q799.735 1466.67 797.86 1467.08 Q796.008 1467.5 794.064 1468.38 L794.064 1451.02 Z" fill="#000000" fill-rule="nonzero" fill-opacity="1" /><path clip-path="url(#clip130)" d="M1278.44 1451.02 L1296.8 1451.02 L1296.8 1454.96 L1282.72 1454.96 L1282.72 1463.43 Q1283.74 1463.08 1284.76 1462.92 Q1285.78 1462.73 1286.8 1462.73 Q1292.59 1462.73 1295.97 1465.9 Q1299.35 1469.08 1299.35 1474.49 Q1299.35 1480.07 1295.87 1483.17 Q1292.4 1486.25 1286.08 1486.25 Q1283.91 1486.25 1281.64 1485.88 Q1279.39 1485.51 1276.98 1484.77 L1276.98 1480.07 Q1279.07 1481.2 1281.29 1481.76 Q1283.51 1482.32 1285.99 1482.32 Q1289.99 1482.32 1292.33 1480.21 Q1294.67 1478.1 1294.67 1474.49 Q1294.67 1470.88 1292.33 1468.77 Q1289.99 1466.67 1285.99 1466.67 Q1284.11 1466.67 1282.24 1467.08 Q1280.39 1467.5 1278.44 1468.38 L1278.44 1451.02 Z" fill="#000000" fill-rule="nonzero" fill-opacity="1" /><path clip-path="url(#clip130)" d="M1318.56 1454.1 Q1314.95 1454.1 1313.12 1457.66 Q1311.31 1461.2 1311.31 1468.33 Q1311.31 1475.44 1313.12 1479.01 Q1314.95 1482.55 1318.56 1482.55 Q1322.19 1482.55 1324 1479.01 Q1325.83 1475.44 1325.83 1468.33 Q1325.83 1461.2 1324 1457.66 Q1322.19 1454.1 1318.56 1454.1 M1318.56 1450.39 Q1324.37 1450.39 1327.42 1455 Q1330.5 1459.58 1330.5 1468.33 Q1330.5 1477.06 1327.42 1481.67 Q1324.37 1486.25 1318.56 1486.25 Q1312.75 1486.25 1309.67 1481.67 Q1306.61 1477.06 1306.61 1468.33 Q1306.61 1459.58 1309.67 1455 Q1312.75 1450.39 1318.56 1450.39 Z" fill="#000000" fill-rule="nonzero" fill-opacity="1" /><path clip-path="url(#clip130)" d="M1792.73 1451.02 L1814.95 1451.02 L1814.95 1453.01 L1802.4 1485.58 L1797.52 1485.58 L1809.33 1454.96 L1792.73 1454.96 L1792.73 1451.02 Z" fill="#000000" fill-rule="nonzero" fill-opacity="1" /><path clip-path="url(#clip130)" d="M1824.12 1451.02 L1842.47 1451.02 L1842.47 1454.96 L1828.4 1454.96 L1828.4 1463.43 Q1829.42 1463.08 1830.44 1462.92 Q1831.46 1462.73 1832.47 1462.73 Q1838.26 1462.73 1841.64 1465.9 Q1845.02 1469.08 1845.02 1474.49 Q1845.02 1480.07 1841.55 1483.17 Q1838.08 1486.25 1831.76 1486.25 Q1829.58 1486.25 1827.31 1485.88 Q1825.07 1485.51 1822.66 1484.77 L1822.66 1480.07 Q1824.74 1481.2 1826.96 1481.76 Q1829.19 1482.32 1831.66 1482.32 Q1835.67 1482.32 1838.01 1480.21 Q1840.34 1478.1 1840.34 1474.49 Q1840.34 1470.88 1838.01 1468.77 Q1835.67 1466.67 1831.66 1466.67 Q1829.79 1466.67 1827.91 1467.08 Q1826.06 1467.5 1824.12 1468.38 L1824.12 1451.02 Z" fill="#000000" fill-rule="nonzero" fill-opacity="1" /><path clip-path="url(#clip130)" d="M2293.61 1481.64 L2301.25 1481.64 L2301.25 1455.28 L2292.94 1456.95 L2292.94 1452.69 L2301.2 1451.02 L2305.88 1451.02 L2305.88 1481.64 L2313.52 1481.64 L2313.52 1485.58 L2293.61 1485.58 L2293.61 1481.64 Z" fill="#000000" fill-rule="nonzero" fill-opacity="1" /><path clip-path="url(#clip130)" d="M2332.96 1454.1 Q2329.35 1454.1 2327.52 1457.66 Q2325.72 1461.2 2325.72 1468.33 Q2325.72 1475.44 2327.52 1479.01 Q2329.35 1482.55 2332.96 1482.55 Q2336.6 1482.55 2338.4 1479.01 Q2340.23 1475.44 2340.23 1468.33 Q2340.23 1461.2 2338.4 1457.66 Q2336.6 1454.1 2332.96 1454.1 M2332.96 1450.39 Q2338.77 1450.39 2341.83 1455 Q2344.91 1459.58 2344.91 1468.33 Q2344.91 1477.06 2341.83 1481.67 Q2338.77 1486.25 2332.96 1486.25 Q2327.15 1486.25 2324.07 1481.67 Q2321.02 1477.06 2321.02 1468.33 Q2321.02 1459.58 2324.07 1455 Q2327.15 1450.39 2332.96 1450.39 Z" fill="#000000" fill-rule="nonzero" fill-opacity="1" /><path clip-path="url(#clip130)" d="M2363.13 1454.1 Q2359.51 1454.1 2357.69 1457.66 Q2355.88 1461.2 2355.88 1468.33 Q2355.88 1475.44 2357.69 1479.01 Q2359.51 1482.55 2363.13 1482.55 Q2366.76 1482.55 2368.57 1479.01 Q2370.39 1475.44 2370.39 1468.33 Q2370.39 1461.2 2368.57 1457.66 Q2366.76 1454.1 2363.13 1454.1 M2363.13 1450.39 Q2368.94 1450.39 2371.99 1455 Q2375.07 1459.58 2375.07 1468.33 Q2375.07 1477.06 2371.99 1481.67 Q2368.94 1486.25 2363.13 1486.25 Q2357.32 1486.25 2354.24 1481.67 Q2351.18 1477.06 2351.18 1468.33 Q2351.18 1459.58 2354.24 1455 Q2357.32 1450.39 2363.13 1450.39 Z" fill="#000000" fill-rule="nonzero" fill-opacity="1" /><path clip-path="url(#clip130)" d="M972.004 1520.52 L978.434 1520.52 L978.434 1544.01 L1001.41 1520.52 L1009.66 1520.52 L991.292 1539.3 L1010.61 1568.04 L1003.61 1568.04 L987.123 1543.57 L978.434 1552.45 L978.434 1568.04 L972.004 1568.04 L972.004 1520.52 Z" fill="#000000" fill-rule="nonzero" fill-opacity="1" /><path clip-path="url(#clip130)" d="M1031.84 1536.5 Q1027.13 1536.5 1024.39 1540.19 Q1021.66 1543.85 1021.66 1550.25 Q1021.66 1556.65 1024.36 1560.34 Q1027.1 1564 1031.84 1564 Q1036.52 1564 1039.26 1560.31 Q1042 1556.62 1042 1550.25 Q1042 1543.92 1039.26 1540.23 Q1036.52 1536.5 1031.84 1536.5 M1031.84 1531.54 Q1039.48 1531.54 1043.84 1536.5 Q1048.2 1541.47 1048.2 1550.25 Q1048.2 1559 1043.84 1564 Q1039.48 1568.97 1031.84 1568.97 Q1024.17 1568.97 1019.81 1564 Q1015.48 1559 1015.48 1550.25 Q1015.48 1541.47 1019.81 1536.5 Q1024.17 1531.54 1031.84 1531.54 Z" fill="#000000" fill-rule="nonzero" fill-opacity="1" /><path clip-path="url(#clip130)" d="M1054.19 1568.04 L1054.19 1563.17 Q1059.98 1562.28 1061.76 1558.27 Q1063.93 1552.64 1063.93 1538.22 L1063.93 1532.4 L1088.02 1532.4 L1088.02 1568.04 L1082.16 1568.04 L1082.16 1537.07 L1069.78 1537.07 L1069.78 1540.61 Q1069.78 1554.36 1066.98 1560.53 Q1063.99 1567.12 1054.19 1568.04 Z" fill="#000000" fill-rule="nonzero" fill-opacity="1" /><path clip-path="url(#clip130)" d="M1096.61 1547.58 L1113.77 1547.58 L1113.77 1552.8 L1096.61 1552.8 L1096.61 1547.58 Z" fill="#000000" fill-rule="nonzero" fill-opacity="1" /><path clip-path="url(#clip130)" d="M1128.73 1551.62 L1128.73 1563.37 L1137.07 1563.37 Q1141.08 1563.37 1143.18 1561.87 Q1145.28 1560.34 1145.28 1557.48 Q1145.28 1554.61 1143.18 1553.12 Q1141.08 1551.62 1137.07 1551.62 L1128.73 1551.62 M1128.73 1537.07 L1128.73 1546.94 L1136.43 1546.94 Q1139.74 1546.94 1141.84 1545.64 Q1143.94 1544.3 1143.94 1541.94 Q1143.94 1539.59 1141.84 1538.35 Q1139.74 1537.07 1136.43 1537.07 L1128.73 1537.07 M1122.87 1532.4 L1136.81 1532.4 Q1143.08 1532.4 1146.46 1534.69 Q1149.83 1536.98 1149.83 1541.21 Q1149.83 1544.49 1148.11 1546.43 Q1146.39 1548.34 1143.02 1548.82 Q1147.06 1549.58 1149.29 1552 Q1151.52 1554.42 1151.52 1558.05 Q1151.52 1562.82 1147.83 1565.43 Q1144.16 1568.04 1137.35 1568.04 L1122.87 1568.04 L1122.87 1532.4 Z" fill="#000000" fill-rule="nonzero" fill-opacity="1" /><path clip-path="url(#clip130)" d="M1175.32 1536.5 Q1170.61 1536.5 1167.88 1540.19 Q1165.14 1543.85 1165.14 1550.25 Q1165.14 1556.65 1167.85 1560.34 Q1170.58 1564 1175.32 1564 Q1180 1564 1182.74 1560.31 Q1185.48 1556.62 1185.48 1550.25 Q1185.48 1543.92 1182.74 1540.23 Q1180 1536.5 1175.32 1536.5 M1175.32 1531.54 Q1182.96 1531.54 1187.32 1536.5 Q1191.68 1541.47 1191.68 1550.25 Q1191.68 1559 1187.32 1564 Q1182.96 1568.97 1175.32 1568.97 Q1167.65 1568.97 1163.29 1564 Q1158.97 1559 1158.97 1550.25 Q1158.97 1541.47 1163.29 1536.5 Q1167.65 1531.54 1175.32 1531.54 Z" fill="#000000" fill-rule="nonzero" fill-opacity="1" /><path clip-path="url(#clip130)" d="M1252.41 1532.4 L1252.41 1568.04 L1246.59 1568.04 L1246.59 1539.43 L1229.4 1568.04 L1221.89 1568.04 L1221.89 1532.4 L1227.71 1532.4 L1227.71 1560.95 L1244.87 1532.4 L1252.41 1532.4 Z" fill="#000000" fill-rule="nonzero" fill-opacity="1" /><path clip-path="url(#clip130)" d="M1264.25 1532.4 L1270.14 1532.4 L1270.14 1546.94 L1289.14 1546.94 L1289.14 1532.4 L1295.03 1532.4 L1295.03 1568.04 L1289.14 1568.04 L1289.14 1551.62 L1270.14 1551.62 L1270.14 1568.04 L1264.25 1568.04 L1264.25 1532.4 Z" fill="#000000" fill-rule="nonzero" fill-opacity="1" /><path clip-path="url(#clip130)" d="M1302.86 1532.4 L1337.01 1532.4 L1337.01 1537.07 L1322.82 1537.07 L1322.82 1568.04 L1317.06 1568.04 L1317.06 1537.07 L1302.86 1537.07 L1302.86 1532.4 Z" fill="#000000" fill-rule="nonzero" fill-opacity="1" /><path clip-path="url(#clip130)" d="M1375.56 1548.76 L1375.56 1551.62 L1348.63 1551.62 Q1349.01 1557.67 1352.26 1560.85 Q1355.54 1564 1361.36 1564 Q1364.74 1564 1367.89 1563.17 Q1371.07 1562.35 1374.19 1560.69 L1374.19 1566.23 Q1371.04 1567.57 1367.73 1568.27 Q1364.42 1568.97 1361.01 1568.97 Q1352.48 1568.97 1347.49 1564 Q1342.52 1559.04 1342.52 1550.57 Q1342.52 1541.82 1347.23 1536.69 Q1351.97 1531.54 1359.99 1531.54 Q1367.19 1531.54 1371.36 1536.18 Q1375.56 1540.8 1375.56 1548.76 M1369.7 1547.04 Q1369.64 1542.23 1367 1539.37 Q1364.39 1536.5 1360.06 1536.5 Q1355.16 1536.5 1352.2 1539.27 Q1349.27 1542.04 1348.82 1547.07 L1369.7 1547.04 Z" fill="#000000" fill-rule="nonzero" fill-opacity="1" /><path clip-path="url(#clip130)" d="M1390.84 1562.7 L1390.84 1581.6 L1384.95 1581.6 L1384.95 1532.4 L1390.84 1532.4 L1390.84 1537.81 Q1392.68 1534.62 1395.48 1533.1 Q1398.32 1531.54 1402.23 1531.54 Q1408.72 1531.54 1412.77 1536.69 Q1416.84 1541.85 1416.84 1550.25 Q1416.84 1558.65 1412.77 1563.81 Q1408.72 1568.97 1402.23 1568.97 Q1398.32 1568.97 1395.48 1567.44 Q1392.68 1565.88 1390.84 1562.7 M1410.76 1550.25 Q1410.76 1543.79 1408.09 1540.13 Q1405.45 1536.44 1400.8 1536.44 Q1396.15 1536.44 1393.48 1540.13 Q1390.84 1543.79 1390.84 1550.25 Q1390.84 1556.71 1393.48 1560.4 Q1396.15 1564.07 1400.8 1564.07 Q1405.45 1564.07 1408.09 1560.4 Q1410.76 1556.71 1410.76 1550.25 Z" fill="#000000" fill-rule="nonzero" fill-opacity="1" /><path clip-path="url(#clip130)" d="M1432.18 1551.62 L1432.18 1563.37 L1440.52 1563.37 Q1444.53 1563.37 1446.63 1561.87 Q1448.73 1560.34 1448.73 1557.48 Q1448.73 1554.61 1446.63 1553.12 Q1444.53 1551.62 1440.52 1551.62 L1432.18 1551.62 M1432.18 1537.07 L1432.18 1546.94 L1439.88 1546.94 Q1443.19 1546.94 1445.29 1545.64 Q1447.4 1544.3 1447.4 1541.94 Q1447.4 1539.59 1445.29 1538.35 Q1443.19 1537.07 1439.88 1537.07 L1432.18 1537.07 M1426.32 1532.4 L1440.27 1532.4 Q1446.54 1532.4 1449.91 1534.69 Q1453.28 1536.98 1453.28 1541.21 Q1453.28 1544.49 1451.56 1546.43 Q1449.85 1548.34 1446.47 1548.82 Q1450.51 1549.58 1452.74 1552 Q1454.97 1554.42 1454.97 1558.05 Q1454.97 1562.82 1451.28 1565.43 Q1447.62 1568.04 1440.81 1568.04 L1426.32 1568.04 L1426.32 1532.4 Z" fill="#000000" fill-rule="nonzero" fill-opacity="1" /><path clip-path="url(#clip130)" d="M1481.17 1550.12 Q1474.07 1550.12 1471.33 1551.75 Q1468.59 1553.37 1468.59 1557.29 Q1468.59 1560.4 1470.63 1562.25 Q1472.7 1564.07 1476.23 1564.07 Q1481.1 1564.07 1484.03 1560.63 Q1486.99 1557.16 1486.99 1551.43 L1486.99 1550.12 L1481.17 1550.12 M1492.85 1547.71 L1492.85 1568.04 L1486.99 1568.04 L1486.99 1562.63 Q1484.98 1565.88 1481.99 1567.44 Q1479 1568.97 1474.67 1568.97 Q1469.2 1568.97 1465.95 1565.91 Q1462.74 1562.82 1462.74 1557.67 Q1462.74 1551.65 1466.75 1548.6 Q1470.79 1545.54 1478.78 1545.54 L1486.99 1545.54 L1486.99 1544.97 Q1486.99 1540.93 1484.32 1538.73 Q1481.67 1536.5 1476.87 1536.5 Q1473.81 1536.5 1470.92 1537.23 Q1468.02 1537.97 1465.35 1539.43 L1465.35 1534.02 Q1468.56 1532.78 1471.58 1532.17 Q1474.61 1531.54 1477.47 1531.54 Q1485.21 1531.54 1489.03 1535.55 Q1492.85 1539.56 1492.85 1547.71 Z" fill="#000000" fill-rule="nonzero" fill-opacity="1" /><path clip-path="url(#clip130)" d="M1501.19 1568.04 L1501.19 1563.17 Q1506.98 1562.28 1508.76 1558.27 Q1510.93 1552.64 1510.93 1538.22 L1510.93 1532.4 L1535.02 1532.4 L1535.02 1568.04 L1529.16 1568.04 L1529.16 1537.07 L1516.78 1537.07 L1516.78 1540.61 Q1516.78 1554.36 1513.98 1560.53 Q1510.99 1567.12 1501.19 1568.04 Z" fill="#000000" fill-rule="nonzero" fill-opacity="1" /><path clip-path="url(#clip130)" d="M1560.39 1536.5 Q1555.68 1536.5 1552.94 1540.19 Q1550.2 1543.85 1550.2 1550.25 Q1550.2 1556.65 1552.91 1560.34 Q1555.64 1564 1560.39 1564 Q1565.07 1564 1567.8 1560.31 Q1570.54 1556.62 1570.54 1550.25 Q1570.54 1543.92 1567.8 1540.23 Q1565.07 1536.5 1560.39 1536.5 M1560.39 1531.54 Q1568.03 1531.54 1572.39 1536.5 Q1576.75 1541.47 1576.75 1550.25 Q1576.75 1559 1572.39 1564 Q1568.03 1568.97 1560.39 1568.97 Q1552.72 1568.97 1548.36 1564 Q1544.03 1559 1544.03 1550.25 Q1544.03 1541.47 1548.36 1536.5 Q1552.72 1531.54 1560.39 1531.54 Z" fill="#000000" fill-rule="nonzero" fill-opacity="1" /><path clip-path="url(#clip130)" d="M1592.09 1551.62 L1592.09 1563.37 L1600.43 1563.37 Q1604.44 1563.37 1606.54 1561.87 Q1608.64 1560.34 1608.64 1557.48 Q1608.64 1554.61 1606.54 1553.12 Q1604.44 1551.62 1600.43 1551.62 L1592.09 1551.62 M1592.09 1537.07 L1592.09 1546.94 L1599.79 1546.94 Q1603.1 1546.94 1605.2 1545.64 Q1607.3 1544.3 1607.3 1541.94 Q1607.3 1539.59 1605.2 1538.35 Q1603.1 1537.07 1599.79 1537.07 L1592.09 1537.07 M1586.23 1532.4 L1600.17 1532.4 Q1606.44 1532.4 1609.82 1534.69 Q1613.19 1536.98 1613.19 1541.21 Q1613.19 1544.49 1611.47 1546.43 Q1609.75 1548.34 1606.38 1548.82 Q1610.42 1549.58 1612.65 1552 Q1614.88 1554.42 1614.88 1558.05 Q1614.88 1562.82 1611.18 1565.43 Q1607.52 1568.04 1600.71 1568.04 L1586.23 1568.04 L1586.23 1532.4 Z" fill="#000000" fill-rule="nonzero" fill-opacity="1" /><polyline clip-path="url(#clip132)" style="stroke:#000000; stroke-linecap:round; stroke-linejoin:round; stroke-width:2; stroke-opacity:0.1; fill:none" points="234.125,1384.69 2352.76,1384.69 "/>
<polyline clip-path="url(#clip132)" style="stroke:#000000; stroke-linecap:round; stroke-linejoin:round; stroke-width:2; stroke-opacity:0.1; fill:none" points="234.125,1081.78 2352.76,1081.78 "/>
<polyline clip-path="url(#clip132)" style="stroke:#000000; stroke-linecap:round; stroke-linejoin:round; stroke-width:2; stroke-opacity:0.1; fill:none" points="234.125,778.859 2352.76,778.859 "/>
<polyline clip-path="url(#clip132)" style="stroke:#000000; stroke-linecap:round; stroke-linejoin:round; stroke-width:2; stroke-opacity:0.1; fill:none" points="234.125,475.942 2352.76,475.942 "/>
<polyline clip-path="url(#clip132)" style="stroke:#000000; stroke-linecap:round; stroke-linejoin:round; stroke-width:2; stroke-opacity:0.1; fill:none" points="234.125,173.024 2352.76,173.024 "/>
<polyline clip-path="url(#clip130)" style="stroke:#000000; stroke-linecap:round; stroke-linejoin:round; stroke-width:4; stroke-opacity:1; fill:none" points="234.125,1423.18 234.125,47.2441 "/>
<polyline clip-path="url(#clip130)" style="stroke:#000000; stroke-linecap:round; stroke-linejoin:round; stroke-width:4; stroke-opacity:1; fill:none" points="234.125,1384.69 253.023,1384.69 "/>
<polyline clip-path="url(#clip130)" style="stroke:#000000; stroke-linecap:round; stroke-linejoin:round; stroke-width:4; stroke-opacity:1; fill:none" points="234.125,1081.78 253.023,1081.78 "/>
<polyline clip-path="url(#clip130)" style="stroke:#000000; stroke-linecap:round; stroke-linejoin:round; stroke-width:4; stroke-opacity:1; fill:none" points="234.125,778.859 253.023,778.859 "/>
<polyline clip-path="url(#clip130)" style="stroke:#000000; stroke-linecap:round; stroke-linejoin:round; stroke-width:4; stroke-opacity:1; fill:none" points="234.125,475.942 253.023,475.942 "/>
<polyline clip-path="url(#clip130)" style="stroke:#000000; stroke-linecap:round; stroke-linejoin:round; stroke-width:4; stroke-opacity:1; fill:none" points="234.125,173.024 253.023,173.024 "/>
<path clip-path="url(#clip130)" d="M186.181 1370.49 Q182.57 1370.49 180.741 1374.06 Q178.936 1377.6 178.936 1384.73 Q178.936 1391.84 180.741 1395.4 Q182.57 1398.94 186.181 1398.94 Q189.815 1398.94 191.621 1395.4 Q193.45 1391.84 193.45 1384.73 Q193.45 1377.6 191.621 1374.06 Q189.815 1370.49 186.181 1370.49 M186.181 1366.79 Q191.991 1366.79 195.047 1371.4 Q198.125 1375.98 198.125 1384.73 Q198.125 1393.46 195.047 1398.06 Q191.991 1402.65 186.181 1402.65 Q180.371 1402.65 177.292 1398.06 Q174.237 1393.46 174.237 1384.73 Q174.237 1375.98 177.292 1371.4 Q180.371 1366.79 186.181 1366.79 Z" fill="#000000" fill-rule="nonzero" fill-opacity="1" /><path clip-path="url(#clip130)" d="M146.066 1064.5 L164.422 1064.5 L164.422 1068.43 L150.348 1068.43 L150.348 1076.9 Q151.366 1076.56 152.385 1076.4 Q153.403 1076.21 154.422 1076.21 Q160.209 1076.21 163.589 1079.38 Q166.968 1082.55 166.968 1087.97 Q166.968 1093.55 163.496 1096.65 Q160.024 1099.73 153.704 1099.73 Q151.528 1099.73 149.26 1099.36 Q147.015 1098.99 144.607 1098.25 L144.607 1093.55 Q146.691 1094.68 148.913 1095.24 Q151.135 1095.79 153.612 1095.79 Q157.616 1095.79 159.954 1093.69 Q162.292 1091.58 162.292 1087.97 Q162.292 1084.36 159.954 1082.25 Q157.616 1080.15 153.612 1080.15 Q151.737 1080.15 149.862 1080.56 Q148.01 1080.98 146.066 1081.86 L146.066 1064.5 Z" fill="#000000" fill-rule="nonzero" fill-opacity="1" /><path clip-path="url(#clip130)" d="M186.181 1067.58 Q182.57 1067.58 180.741 1071.14 Q178.936 1074.68 178.936 1081.81 Q178.936 1088.92 180.741 1092.48 Q182.57 1096.02 186.181 1096.02 Q189.815 1096.02 191.621 1092.48 Q193.45 1088.92 193.45 1081.81 Q193.45 1074.68 191.621 1071.14 Q189.815 1067.58 186.181 1067.58 M186.181 1063.87 Q191.991 1063.87 195.047 1068.48 Q198.125 1073.06 198.125 1081.81 Q198.125 1090.54 195.047 1095.15 Q191.991 1099.73 186.181 1099.73 Q180.371 1099.73 177.292 1095.15 Q174.237 1090.54 174.237 1081.81 Q174.237 1073.06 177.292 1068.48 Q180.371 1063.87 186.181 1063.87 Z" fill="#000000" fill-rule="nonzero" fill-opacity="1" /><path clip-path="url(#clip130)" d="M116.668 792.204 L124.306 792.204 L124.306 765.839 L115.996 767.505 L115.996 763.246 L124.26 761.579 L128.936 761.579 L128.936 792.204 L136.575 792.204 L136.575 796.139 L116.668 796.139 L116.668 792.204 Z" fill="#000000" fill-rule="nonzero" fill-opacity="1" /><path clip-path="url(#clip130)" d="M156.019 764.658 Q152.408 764.658 150.579 768.223 Q148.774 771.765 148.774 778.894 Q148.774 786.001 150.579 789.565 Q152.408 793.107 156.019 793.107 Q159.653 793.107 161.459 789.565 Q163.288 786.001 163.288 778.894 Q163.288 771.765 161.459 768.223 Q159.653 764.658 156.019 764.658 M156.019 760.954 Q161.829 760.954 164.885 765.561 Q167.964 770.144 167.964 778.894 Q167.964 787.621 164.885 792.227 Q161.829 796.811 156.019 796.811 Q150.209 796.811 147.13 792.227 Q144.075 787.621 144.075 778.894 Q144.075 770.144 147.13 765.561 Q150.209 760.954 156.019 760.954 Z" fill="#000000" fill-rule="nonzero" fill-opacity="1" /><path clip-path="url(#clip130)" d="M186.181 764.658 Q182.57 764.658 180.741 768.223 Q178.936 771.765 178.936 778.894 Q178.936 786.001 180.741 789.565 Q182.57 793.107 186.181 793.107 Q189.815 793.107 191.621 789.565 Q193.45 786.001 193.45 778.894 Q193.45 771.765 191.621 768.223 Q189.815 764.658 186.181 764.658 M186.181 760.954 Q191.991 760.954 195.047 765.561 Q198.125 770.144 198.125 778.894 Q198.125 787.621 195.047 792.227 Q191.991 796.811 186.181 796.811 Q180.371 796.811 177.292 792.227 Q174.237 787.621 174.237 778.894 Q174.237 770.144 177.292 765.561 Q180.371 760.954 186.181 760.954 Z" fill="#000000" fill-rule="nonzero" fill-opacity="1" /><path clip-path="url(#clip130)" d="M116.668 489.287 L124.306 489.287 L124.306 462.921 L115.996 464.588 L115.996 460.329 L124.26 458.662 L128.936 458.662 L128.936 489.287 L136.575 489.287 L136.575 493.222 L116.668 493.222 L116.668 489.287 Z" fill="#000000" fill-rule="nonzero" fill-opacity="1" /><path clip-path="url(#clip130)" d="M146.066 458.662 L164.422 458.662 L164.422 462.597 L150.348 462.597 L150.348 471.069 Q151.366 470.722 152.385 470.56 Q153.403 470.375 154.422 470.375 Q160.209 470.375 163.589 473.546 Q166.968 476.717 166.968 482.134 Q166.968 487.713 163.496 490.814 Q160.024 493.893 153.704 493.893 Q151.528 493.893 149.26 493.523 Q147.015 493.152 144.607 492.412 L144.607 487.713 Q146.691 488.847 148.913 489.402 Q151.135 489.958 153.612 489.958 Q157.616 489.958 159.954 487.852 Q162.292 485.745 162.292 482.134 Q162.292 478.523 159.954 476.416 Q157.616 474.31 153.612 474.31 Q151.737 474.31 149.862 474.727 Q148.01 475.143 146.066 476.023 L146.066 458.662 Z" fill="#000000" fill-rule="nonzero" fill-opacity="1" /><path clip-path="url(#clip130)" d="M186.181 461.741 Q182.57 461.741 180.741 465.305 Q178.936 468.847 178.936 475.977 Q178.936 483.083 180.741 486.648 Q182.57 490.19 186.181 490.19 Q189.815 490.19 191.621 486.648 Q193.45 483.083 193.45 475.977 Q193.45 468.847 191.621 465.305 Q189.815 461.741 186.181 461.741 M186.181 458.037 Q191.991 458.037 195.047 462.643 Q198.125 467.227 198.125 475.977 Q198.125 484.703 195.047 489.31 Q191.991 493.893 186.181 493.893 Q180.371 493.893 177.292 489.31 Q174.237 484.703 174.237 475.977 Q174.237 467.227 177.292 462.643 Q180.371 458.037 186.181 458.037 Z" fill="#000000" fill-rule="nonzero" fill-opacity="1" /><path clip-path="url(#clip130)" d="M119.885 186.369 L136.204 186.369 L136.204 190.304 L114.26 190.304 L114.26 186.369 Q116.922 183.615 121.505 178.985 Q126.112 174.332 127.292 172.99 Q129.538 170.466 130.417 168.73 Q131.32 166.971 131.32 165.281 Q131.32 162.527 129.376 160.791 Q127.455 159.054 124.353 159.054 Q122.154 159.054 119.7 159.818 Q117.269 160.582 114.492 162.133 L114.492 157.411 Q117.316 156.277 119.769 155.698 Q122.223 155.119 124.26 155.119 Q129.63 155.119 132.825 157.804 Q136.019 160.49 136.019 164.98 Q136.019 167.11 135.209 169.031 Q134.422 170.929 132.316 173.522 Q131.737 174.193 128.635 177.411 Q125.533 180.605 119.885 186.369 Z" fill="#000000" fill-rule="nonzero" fill-opacity="1" /><path clip-path="url(#clip130)" d="M156.019 158.823 Q152.408 158.823 150.579 162.388 Q148.774 165.929 148.774 173.059 Q148.774 180.165 150.579 183.73 Q152.408 187.272 156.019 187.272 Q159.653 187.272 161.459 183.73 Q163.288 180.165 163.288 173.059 Q163.288 165.929 161.459 162.388 Q159.653 158.823 156.019 158.823 M156.019 155.119 Q161.829 155.119 164.885 159.726 Q167.964 164.309 167.964 173.059 Q167.964 181.786 164.885 186.392 Q161.829 190.976 156.019 190.976 Q150.209 190.976 147.13 186.392 Q144.075 181.786 144.075 173.059 Q144.075 164.309 147.13 159.726 Q150.209 155.119 156.019 155.119 Z" fill="#000000" fill-rule="nonzero" fill-opacity="1" /><path clip-path="url(#clip130)" d="M186.181 158.823 Q182.57 158.823 180.741 162.388 Q178.936 165.929 178.936 173.059 Q178.936 180.165 180.741 183.73 Q182.57 187.272 186.181 187.272 Q189.815 187.272 191.621 183.73 Q193.45 180.165 193.45 173.059 Q193.45 165.929 191.621 162.388 Q189.815 158.823 186.181 158.823 M186.181 155.119 Q191.991 155.119 195.047 159.726 Q198.125 164.309 198.125 173.059 Q198.125 181.786 195.047 186.392 Q191.991 190.976 186.181 190.976 Q180.371 190.976 177.292 186.392 Q174.237 181.786 174.237 173.059 Q174.237 164.309 177.292 159.726 Q180.371 155.119 186.181 155.119 Z" fill="#000000" fill-rule="nonzero" fill-opacity="1" /><path clip-path="url(#clip130)" d="M16.4842 799.331 L16.4842 789.75 L48.8219 777.623 L16.4842 765.433 L16.4842 755.853 L64.0042 755.853 L64.0042 762.123 L22.277 762.123 L54.8694 774.377 L54.8694 780.838 L22.277 793.092 L64.0042 793.092 L64.0042 799.331 L16.4842 799.331 Z" fill="#000000" fill-rule="nonzero" fill-opacity="1" /><path clip-path="url(#clip130)" d="M18.0438 714.603 L24.314 714.603 Q22.5634 718.263 21.704 721.51 Q20.8447 724.756 20.8447 727.78 Q20.8447 733.032 22.8817 735.896 Q24.9187 738.729 28.6745 738.729 Q31.8255 738.729 33.4488 736.851 Q35.0402 734.941 36.0269 729.658 L36.8226 725.775 Q38.1912 718.582 41.6605 715.176 Q45.098 711.738 50.8908 711.738 Q57.7976 711.738 61.3624 716.385 Q64.9272 721.001 64.9272 729.944 Q64.9272 733.318 64.1633 737.138 Q63.3994 740.925 61.9035 744.999 L55.2831 744.999 Q57.4793 741.084 58.5933 737.329 Q59.7073 733.573 59.7073 729.944 Q59.7073 724.438 57.543 721.446 Q55.3786 718.454 51.3682 718.454 Q47.8671 718.454 45.8937 720.619 Q43.9204 722.751 42.9337 727.653 L42.1698 731.568 Q40.7375 738.761 37.682 741.976 Q34.6264 745.19 29.1837 745.19 Q22.8817 745.19 19.2532 740.766 Q15.6248 736.31 15.6248 728.512 Q15.6248 725.17 16.2295 721.701 Q16.8343 718.231 18.0438 714.603 Z" fill="#000000" fill-rule="nonzero" fill-opacity="1" /><path clip-path="url(#clip130)" d="M16.4842 701.712 L16.4842 671.666 L21.895 671.666 L21.895 695.283 L35.9632 695.283 L35.9632 672.653 L41.3741 672.653 L41.3741 695.283 L58.5933 695.283 L58.5933 671.093 L64.0042 671.093 L64.0042 701.712 L16.4842 701.712 Z" fill="#000000" fill-rule="nonzero" fill-opacity="1" /><polyline clip-path="url(#clip132)" style="stroke:#009af9; stroke-linecap:round; stroke-linejoin:round; stroke-width:8; stroke-opacity:1; fill:none" points="294.087,86.1857 314.692,133.544 335.297,811.645 355.902,811.645 376.508,811.645 397.113,844.172 417.718,895.953 438.323,925.841 458.929,944.913 479.534,944.913 500.139,951.449 520.744,962.478 541.35,971.466 561.955,975.84 582.56,977.034 603.165,978.497 623.77,978.497 644.376,979.526 664.981,980.683 685.586,983.196 706.191,984.879 726.797,997.074 747.402,997.074 768.007,997.907 788.612,998.459 809.218,998.459 829.823,998.459 850.428,1001.06 871.033,1001.08 891.639,1001.08 912.244,1001.08 932.849,1051.55 953.454,1051.55 974.06,1057.13 994.665,1060.86 1015.27,1062.61 1035.88,1062.61 1056.48,1064.29 1077.09,1064.75 1097.69,1064.75 1118.3,1066.87 1138.9,1066.89 1159.51,1066.89 1180.11,1068.02 1200.72,1068.02 1221.32,1068.3 1241.93,1068.3 1262.53,1068.3 1283.14,1069.5 1303.74,1069.5 1324.35,1069.5 1344.95,1077.54 1365.56,1078.01 1386.16,1078.67 1406.77,1078.67 1427.37,1078.67 1447.98,1079.84 1468.59,1085.45 1489.19,1085.45 1509.8,1085.45 1530.4,1096.14 1551.01,1096.58 1571.61,1096.68 1592.22,1096.68 1612.82,1096.68 1633.43,1097.14 1654.03,1102.69 1674.64,1102.85 1695.24,1106.83 1715.85,1110.07 1736.45,1110.07 1757.06,1176.72 1777.66,1203.05 1798.27,1222.43 1818.87,1222.43 1839.48,1222.43 1860.08,1222.43 1880.69,1222.43 1901.3,1222.43 1921.9,1222.43 1942.51,1222.43 1963.11,1222.43 1983.72,1222.43 2004.32,1222.43 2024.93,1222.43 2045.53,1222.43 2066.14,1222.43 2086.74,1222.43 2107.35,1266 2127.95,1279.13 2148.56,1279.13 2169.16,1283.24 2189.77,1288.87 2210.37,1363.39 2230.98,1363.39 2251.58,1374.13 2272.19,1383.41 2292.79,1384.24 "/>
<circle clip-path="url(#clip132)" cx="335.297" cy="811.645" r="14.4" fill="#e26f46" fill-rule="evenodd" fill-opacity="1" stroke="#000000" stroke-opacity="1" stroke-width="3.2"/>
</svg>
