<?xml version="1.0" encoding="utf-8"?>
<svg xmlns="http://www.w3.org/2000/svg" xmlns:xlink="http://www.w3.org/1999/xlink" width="400" height="400" viewBox="0 0 1600 1600">
<defs>
  <clipPath id="clip400">
    <rect x="0" y="0" width="1600" height="1600"/>
  </clipPath>
</defs>
<path clip-path="url(#clip400)" d="M0 1600 L1600 1600 L1600 0 L0 0  Z" fill="#ffffff" fill-rule="evenodd" fill-opacity="1"/>
<defs>
  <clipPath id="clip401">
    <rect x="320" y="160" width="1121" height="1121"/>
  </clipPath>
</defs>
<path clip-path="url(#clip400)" d="M219.724 1381.21 L1552.76 1381.21 L1552.76 48.1758 L219.724 48.1758  Z" fill="#ffffff" fill-rule="evenodd" fill-opacity="1"/>
<defs>
  <clipPath id="clip402">
    <rect x="219" y="48" width="1334" height="1334"/>
  </clipPath>
</defs>
<polyline clip-path="url(#clip402)" style="stroke:#000000; stroke-linecap:round; stroke-linejoin:round; stroke-width:2; stroke-opacity:0.1; fill:none" points="219.724,1381.21 219.724,48.1758 "/>
<polyline clip-path="url(#clip402)" style="stroke:#000000; stroke-linecap:round; stroke-linejoin:round; stroke-width:2; stroke-opacity:0.1; fill:none" points="486.33,1381.21 486.33,48.1758 "/>
<polyline clip-path="url(#clip402)" style="stroke:#000000; stroke-linecap:round; stroke-linejoin:round; stroke-width:2; stroke-opacity:0.1; fill:none" points="752.937,1381.21 752.937,48.1758 "/>
<polyline clip-path="url(#clip402)" style="stroke:#000000; stroke-linecap:round; stroke-linejoin:round; stroke-width:2; stroke-opacity:0.1; fill:none" points="1019.54,1381.21 1019.54,48.1758 "/>
<polyline clip-path="url(#clip402)" style="stroke:#000000; stroke-linecap:round; stroke-linejoin:round; stroke-width:2; stroke-opacity:0.1; fill:none" points="1286.15,1381.21 1286.15,48.1758 "/>
<polyline clip-path="url(#clip402)" style="stroke:#000000; stroke-linecap:round; stroke-linejoin:round; stroke-width:2; stroke-opacity:0.1; fill:none" points="1552.76,1381.21 1552.76,48.1758 "/>
<polyline clip-path="url(#clip400)" style="stroke:#000000; stroke-linecap:round; stroke-linejoin:round; stroke-width:4; stroke-opacity:1; fill:none" points="219.724,1381.21 1552.76,1381.21 "/>
<polyline clip-path="url(#clip400)" style="stroke:#000000; stroke-linecap:round; stroke-linejoin:round; stroke-width:4; stroke-opacity:1; fill:none" points="219.724,1381.21 219.724,1362.34 "/>
<polyline clip-path="url(#clip400)" style="stroke:#000000; stroke-linecap:round; stroke-linejoin:round; stroke-width:4; stroke-opacity:1; fill:none" points="486.33,1381.21 486.33,1362.34 "/>
<polyline clip-path="url(#clip400)" style="stroke:#000000; stroke-linecap:round; stroke-linejoin:round; stroke-width:4; stroke-opacity:1; fill:none" points="752.937,1381.21 752.937,1362.34 "/>
<polyline clip-path="url(#clip400)" style="stroke:#000000; stroke-linecap:round; stroke-linejoin:round; stroke-width:4; stroke-opacity:1; fill:none" points="1019.54,1381.21 1019.54,1362.34 "/>
<polyline clip-path="url(#clip400)" style="stroke:#000000; stroke-linecap:round; stroke-linejoin:round; stroke-width:4; stroke-opacity:1; fill:none" points="1286.15,1381.21 1286.15,1362.34 "/>
<polyline clip-path="url(#clip400)" style="stroke:#000000; stroke-linecap:round; stroke-linejoin:round; stroke-width:4; stroke-opacity:1; fill:none" points="1552.76,1381.21 1552.76,1362.34 "/>
<path clip-path="url(#clip400)" d="M194.909 1433.27 L202.548 1433.27 L202.548 1406.91 L194.238 1408.57 L194.238 1404.31 L202.501 1402.65 L207.177 1402.65 L207.177 1433.27 L214.816 1433.27 L214.816 1437.21 L194.909 1437.21 L194.909 1433.27 Z" fill="#000000" fill-rule="nonzero" fill-opacity="1" /><path clip-path="url(#clip400)" d="M224.307 1402.65 L242.663 1402.65 L242.663 1406.58 L228.589 1406.58 L228.589 1415.06 Q229.608 1414.71 230.626 1414.55 Q231.645 1414.36 232.663 1414.36 Q238.45 1414.36 241.83 1417.53 Q245.21 1420.7 245.21 1426.12 Q245.21 1431.7 241.737 1434.8 Q238.265 1437.88 231.946 1437.88 Q229.77 1437.88 227.501 1437.51 Q225.256 1437.14 222.849 1436.4 L222.849 1431.7 Q224.932 1432.83 227.154 1433.39 Q229.376 1433.94 231.853 1433.94 Q235.858 1433.94 238.196 1431.84 Q240.534 1429.73 240.534 1426.12 Q240.534 1422.51 238.196 1420.4 Q235.858 1418.3 231.853 1418.3 Q229.978 1418.3 228.103 1418.71 Q226.251 1419.13 224.307 1420.01 L224.307 1402.65 Z" fill="#000000" fill-rule="nonzero" fill-opacity="1" /><path clip-path="url(#clip400)" d="M460.937 1433.27 L468.576 1433.27 L468.576 1406.91 L460.265 1408.57 L460.265 1404.31 L468.529 1402.65 L473.205 1402.65 L473.205 1433.27 L480.844 1433.27 L480.844 1437.21 L460.937 1437.21 L460.937 1433.27 Z" fill="#000000" fill-rule="nonzero" fill-opacity="1" /><path clip-path="url(#clip400)" d="M500.867 1418.06 Q497.719 1418.06 495.867 1420.22 Q494.038 1422.37 494.038 1426.12 Q494.038 1429.85 495.867 1432.02 Q497.719 1434.18 500.867 1434.18 Q504.015 1434.18 505.844 1432.02 Q507.696 1429.85 507.696 1426.12 Q507.696 1422.37 505.844 1420.22 Q504.015 1418.06 500.867 1418.06 M510.149 1403.41 L510.149 1407.67 Q508.39 1406.84 506.585 1406.4 Q504.802 1405.96 503.043 1405.96 Q498.413 1405.96 495.96 1409.08 Q493.529 1412.21 493.182 1418.53 Q494.548 1416.51 496.608 1415.45 Q498.668 1414.36 501.145 1414.36 Q506.353 1414.36 509.362 1417.53 Q512.395 1420.68 512.395 1426.12 Q512.395 1431.44 509.247 1434.66 Q506.098 1437.88 500.867 1437.88 Q494.872 1437.88 491.7 1433.3 Q488.529 1428.69 488.529 1419.96 Q488.529 1411.77 492.418 1406.91 Q496.307 1402.02 502.858 1402.02 Q504.617 1402.02 506.399 1402.37 Q508.205 1402.72 510.149 1403.41 Z" fill="#000000" fill-rule="nonzero" fill-opacity="1" /><path clip-path="url(#clip400)" d="M728.076 1433.27 L735.714 1433.27 L735.714 1406.91 L727.404 1408.57 L727.404 1404.31 L735.668 1402.65 L740.344 1402.65 L740.344 1433.27 L747.983 1433.27 L747.983 1437.21 L728.076 1437.21 L728.076 1433.27 Z" fill="#000000" fill-rule="nonzero" fill-opacity="1" /><path clip-path="url(#clip400)" d="M756.247 1402.65 L778.469 1402.65 L778.469 1404.64 L765.923 1437.21 L761.038 1437.21 L772.844 1406.58 L756.247 1406.58 L756.247 1402.65 Z" fill="#000000" fill-rule="nonzero" fill-opacity="1" /><path clip-path="url(#clip400)" d="M994.277 1433.27 L1001.92 1433.27 L1001.92 1406.91 L993.606 1408.57 L993.606 1404.31 L1001.87 1402.65 L1006.55 1402.65 L1006.55 1433.27 L1014.18 1433.27 L1014.18 1437.21 L994.277 1437.21 L994.277 1433.27 Z" fill="#000000" fill-rule="nonzero" fill-opacity="1" /><path clip-path="url(#clip400)" d="M1033.63 1420.8 Q1030.3 1420.8 1028.37 1422.58 Q1026.48 1424.36 1026.48 1427.49 Q1026.48 1430.61 1028.37 1432.39 Q1030.3 1434.18 1033.63 1434.18 Q1036.96 1434.18 1038.88 1432.39 Q1040.8 1430.59 1040.8 1427.49 Q1040.8 1424.36 1038.88 1422.58 Q1036.99 1420.8 1033.63 1420.8 M1028.95 1418.81 Q1025.94 1418.06 1024.25 1416 Q1022.59 1413.94 1022.59 1410.98 Q1022.59 1406.84 1025.53 1404.43 Q1028.49 1402.02 1033.63 1402.02 Q1038.79 1402.02 1041.73 1404.43 Q1044.67 1406.84 1044.67 1410.98 Q1044.67 1413.94 1042.98 1416 Q1041.31 1418.06 1038.33 1418.81 Q1041.71 1419.59 1043.58 1421.88 Q1045.48 1424.18 1045.48 1427.49 Q1045.48 1432.51 1042.4 1435.19 Q1039.35 1437.88 1033.63 1437.88 Q1027.91 1437.88 1024.83 1435.19 Q1021.78 1432.51 1021.78 1427.49 Q1021.78 1424.18 1023.67 1421.88 Q1025.57 1419.59 1028.95 1418.81 M1027.24 1411.42 Q1027.24 1414.11 1028.91 1415.61 Q1030.6 1417.12 1033.63 1417.12 Q1036.64 1417.12 1038.33 1415.61 Q1040.04 1414.11 1040.04 1411.42 Q1040.04 1408.74 1038.33 1407.23 Q1036.64 1405.73 1033.63 1405.73 Q1030.6 1405.73 1028.91 1407.23 Q1027.24 1408.74 1027.24 1411.42 Z" fill="#000000" fill-rule="nonzero" fill-opacity="1" /><path clip-path="url(#clip400)" d="M1260.93 1433.27 L1268.57 1433.27 L1268.57 1406.91 L1260.26 1408.57 L1260.26 1404.31 L1268.52 1402.65 L1273.2 1402.65 L1273.2 1433.27 L1280.84 1433.27 L1280.84 1437.21 L1260.93 1437.21 L1260.93 1433.27 Z" fill="#000000" fill-rule="nonzero" fill-opacity="1" /><path clip-path="url(#clip400)" d="M1290.42 1436.49 L1290.42 1432.23 Q1292.18 1433.06 1293.99 1433.5 Q1295.79 1433.94 1297.53 1433.94 Q1302.16 1433.94 1304.59 1430.84 Q1307.04 1427.72 1307.39 1421.37 Q1306.05 1423.37 1303.98 1424.43 Q1301.92 1425.5 1299.42 1425.5 Q1294.24 1425.5 1291.21 1422.37 Q1288.2 1419.22 1288.2 1413.78 Q1288.2 1408.46 1291.35 1405.24 Q1294.49 1402.02 1299.73 1402.02 Q1305.72 1402.02 1308.87 1406.63 Q1312.04 1411.21 1312.04 1419.96 Q1312.04 1428.13 1308.15 1433.02 Q1304.29 1437.88 1297.74 1437.88 Q1295.98 1437.88 1294.17 1437.53 Q1292.36 1437.18 1290.42 1436.49 M1299.73 1421.84 Q1302.87 1421.84 1304.7 1419.69 Q1306.55 1417.53 1306.55 1413.78 Q1306.55 1410.06 1304.7 1407.9 Q1302.87 1405.73 1299.73 1405.73 Q1296.58 1405.73 1294.73 1407.9 Q1292.9 1410.06 1292.9 1413.78 Q1292.9 1417.53 1294.73 1419.69 Q1296.58 1421.84 1299.73 1421.84 Z" fill="#000000" fill-rule="nonzero" fill-opacity="1" /><path clip-path="url(#clip400)" d="M1531.53 1433.27 L1547.85 1433.27 L1547.85 1437.21 L1525.9 1437.21 L1525.9 1433.27 Q1528.57 1430.52 1533.15 1425.89 Q1537.76 1421.24 1538.94 1419.89 Q1541.18 1417.37 1542.06 1415.63 Q1542.96 1413.87 1542.96 1412.19 Q1542.96 1409.43 1541.02 1407.69 Q1539.1 1405.96 1536 1405.96 Q1533.8 1405.96 1531.34 1406.72 Q1528.91 1407.49 1526.14 1409.04 L1526.14 1404.31 Q1528.96 1403.18 1531.41 1402.6 Q1533.87 1402.02 1535.9 1402.02 Q1541.27 1402.02 1544.47 1404.71 Q1547.66 1407.39 1547.66 1411.88 Q1547.66 1414.01 1546.85 1415.94 Q1546.07 1417.83 1543.96 1420.43 Q1543.38 1421.1 1540.28 1424.31 Q1537.18 1427.51 1531.53 1433.27 Z" fill="#000000" fill-rule="nonzero" fill-opacity="1" /><path clip-path="url(#clip400)" d="M1567.66 1405.73 Q1564.05 1405.73 1562.22 1409.29 Q1560.42 1412.83 1560.42 1419.96 Q1560.42 1427.07 1562.22 1430.63 Q1564.05 1434.18 1567.66 1434.18 Q1571.3 1434.18 1573.1 1430.63 Q1574.93 1427.07 1574.93 1419.96 Q1574.93 1412.83 1573.1 1409.29 Q1571.3 1405.73 1567.66 1405.73 M1567.66 1402.02 Q1573.47 1402.02 1576.53 1406.63 Q1579.61 1411.21 1579.61 1419.96 Q1579.61 1428.69 1576.53 1433.3 Q1573.47 1437.88 1567.66 1437.88 Q1561.85 1437.88 1558.77 1433.3 Q1555.72 1428.69 1555.72 1419.96 Q1555.72 1411.21 1558.77 1406.63 Q1561.85 1402.02 1567.66 1402.02 Z" fill="#000000" fill-rule="nonzero" fill-opacity="1" /><path clip-path="url(#clip400)" d="M823.426 1476.32 Q816.519 1476.96 812.859 1480.21 Q809.199 1483.45 809.199 1489.72 Q809.199 1495.99 812.859 1499.24 Q816.519 1502.45 823.426 1503.09 L823.426 1476.32 M829.887 1503.09 Q836.794 1502.45 840.423 1499.24 Q844.051 1495.99 844.051 1489.72 Q844.051 1483.45 840.423 1480.21 Q836.794 1476.96 829.887 1476.32 L829.887 1503.09 M823.426 1508.41 Q813.336 1507.67 807.862 1502.93 Q802.419 1498.16 802.419 1489.72 Q802.419 1481.29 807.862 1476.51 Q813.336 1471.71 823.426 1470.98 L823.426 1466.55 L829.887 1466.55 L829.887 1470.98 Q839.977 1471.71 845.388 1476.48 Q850.83 1481.23 850.83 1489.72 Q850.83 1498.16 845.388 1502.93 Q839.977 1507.67 829.887 1508.41 L829.887 1514.07 L823.426 1514.07 L823.426 1508.41 Z" fill="#000000" fill-rule="nonzero" fill-opacity="1" /><path clip-path="url(#clip400)" d="M877.025 1496.15 Q869.928 1496.15 867.19 1497.78 Q864.453 1499.4 864.453 1503.31 Q864.453 1506.43 866.49 1508.28 Q868.559 1510.09 872.092 1510.09 Q876.962 1510.09 879.89 1506.66 Q882.85 1503.19 882.85 1497.46 L882.85 1496.15 L877.025 1496.15 M888.706 1493.73 L888.706 1514.07 L882.85 1514.07 L882.85 1508.66 Q880.845 1511.91 877.853 1513.47 Q874.861 1515 870.532 1515 Q865.058 1515 861.811 1511.94 Q858.597 1508.85 858.597 1503.7 Q858.597 1497.68 862.607 1494.62 Q866.649 1491.57 874.638 1491.57 L882.85 1491.57 L882.85 1491 Q882.85 1486.95 880.176 1484.76 Q877.535 1482.53 872.729 1482.53 Q869.673 1482.53 866.777 1483.26 Q863.88 1483.99 861.207 1485.46 L861.207 1480.05 Q864.421 1478.81 867.445 1478.2 Q870.469 1477.56 873.333 1477.56 Q881.068 1477.56 884.887 1481.58 Q888.706 1485.59 888.706 1493.73 Z" fill="#000000" fill-rule="nonzero" fill-opacity="1" /><path clip-path="url(#clip400)" d="M900.547 1478.42 L906.371 1478.42 L906.371 1495.17 L922.89 1478.42 L930.084 1478.42 L916.461 1492.21 L931.834 1514.07 L925.277 1514.07 L912.642 1496.09 L906.371 1502.45 L906.371 1514.07 L900.547 1514.07 L900.547 1478.42 Z" fill="#000000" fill-rule="nonzero" fill-opacity="1" /><path clip-path="url(#clip400)" d="M935.908 1478.42 L970.06 1478.42 L970.06 1483.1 L955.865 1483.1 L955.865 1514.07 L950.104 1514.07 L950.104 1483.1 L935.908 1483.1 L935.908 1478.42 Z" fill="#000000" fill-rule="nonzero" fill-opacity="1" /><polyline clip-path="url(#clip402)" style="stroke:#000000; stroke-linecap:round; stroke-linejoin:round; stroke-width:2; stroke-opacity:0.1; fill:none" points="219.724,1381.21 1552.76,1381.21 "/>
<polyline clip-path="url(#clip402)" style="stroke:#000000; stroke-linecap:round; stroke-linejoin:round; stroke-width:2; stroke-opacity:0.1; fill:none" points="219.724,1114.6 1552.76,1114.6 "/>
<polyline clip-path="url(#clip402)" style="stroke:#000000; stroke-linecap:round; stroke-linejoin:round; stroke-width:2; stroke-opacity:0.1; fill:none" points="219.724,847.995 1552.76,847.995 "/>
<polyline clip-path="url(#clip402)" style="stroke:#000000; stroke-linecap:round; stroke-linejoin:round; stroke-width:2; stroke-opacity:0.1; fill:none" points="219.724,581.389 1552.76,581.389 "/>
<polyline clip-path="url(#clip402)" style="stroke:#000000; stroke-linecap:round; stroke-linejoin:round; stroke-width:2; stroke-opacity:0.1; fill:none" points="219.724,314.782 1552.76,314.782 "/>
<polyline clip-path="url(#clip402)" style="stroke:#000000; stroke-linecap:round; stroke-linejoin:round; stroke-width:2; stroke-opacity:0.1; fill:none" points="219.724,48.1758 1552.76,48.1758 "/>
<polyline clip-path="url(#clip400)" style="stroke:#000000; stroke-linecap:round; stroke-linejoin:round; stroke-width:4; stroke-opacity:1; fill:none" points="219.724,1381.21 219.724,48.1758 "/>
<polyline clip-path="url(#clip400)" style="stroke:#000000; stroke-linecap:round; stroke-linejoin:round; stroke-width:4; stroke-opacity:1; fill:none" points="219.724,1381.21 238.621,1381.21 "/>
<polyline clip-path="url(#clip400)" style="stroke:#000000; stroke-linecap:round; stroke-linejoin:round; stroke-width:4; stroke-opacity:1; fill:none" points="219.724,1114.6 238.621,1114.6 "/>
<polyline clip-path="url(#clip400)" style="stroke:#000000; stroke-linecap:round; stroke-linejoin:round; stroke-width:4; stroke-opacity:1; fill:none" points="219.724,847.995 238.621,847.995 "/>
<polyline clip-path="url(#clip400)" style="stroke:#000000; stroke-linecap:round; stroke-linejoin:round; stroke-width:4; stroke-opacity:1; fill:none" points="219.724,581.389 238.621,581.389 "/>
<polyline clip-path="url(#clip400)" style="stroke:#000000; stroke-linecap:round; stroke-linejoin:round; stroke-width:4; stroke-opacity:1; fill:none" points="219.724,314.782 238.621,314.782 "/>
<polyline clip-path="url(#clip400)" style="stroke:#000000; stroke-linecap:round; stroke-linejoin:round; stroke-width:4; stroke-opacity:1; fill:none" points="219.724,48.1758 238.621,48.1758 "/>
<path clip-path="url(#clip400)" d="M145.423 1394.55 L153.062 1394.55 L153.062 1368.19 L144.752 1369.85 L144.752 1365.59 L153.015 1363.93 L157.691 1363.93 L157.691 1394.55 L165.33 1394.55 L165.33 1398.49 L145.423 1398.49 L145.423 1394.55 Z" fill="#000000" fill-rule="nonzero" fill-opacity="1" /><path clip-path="url(#clip400)" d="M174.821 1363.93 L193.177 1363.93 L193.177 1367.86 L179.103 1367.86 L179.103 1376.34 Q180.122 1375.99 181.14 1375.83 Q182.159 1375.64 183.177 1375.64 Q188.964 1375.64 192.344 1378.81 Q195.724 1381.98 195.724 1387.4 Q195.724 1392.98 192.251 1396.08 Q188.779 1399.16 182.46 1399.16 Q180.284 1399.16 178.015 1398.79 Q175.77 1398.42 173.363 1397.68 L173.363 1392.98 Q175.446 1394.11 177.668 1394.67 Q179.89 1395.22 182.367 1395.22 Q186.372 1395.22 188.71 1393.12 Q191.048 1391.01 191.048 1387.4 Q191.048 1383.79 188.71 1381.68 Q186.372 1379.58 182.367 1379.58 Q180.492 1379.58 178.617 1379.99 Q176.765 1380.41 174.821 1381.29 L174.821 1363.93 Z" fill="#000000" fill-rule="nonzero" fill-opacity="1" /><path clip-path="url(#clip400)" d="M144.266 1127.95 L151.904 1127.95 L151.904 1101.58 L143.594 1103.25 L143.594 1098.99 L151.858 1097.32 L156.534 1097.32 L156.534 1127.95 L164.173 1127.95 L164.173 1131.88 L144.266 1131.88 L144.266 1127.95 Z" fill="#000000" fill-rule="nonzero" fill-opacity="1" /><path clip-path="url(#clip400)" d="M184.196 1112.74 Q181.048 1112.74 179.196 1114.89 Q177.367 1117.04 177.367 1120.79 Q177.367 1124.52 179.196 1126.7 Q181.048 1128.85 184.196 1128.85 Q187.344 1128.85 189.173 1126.7 Q191.025 1124.52 191.025 1120.79 Q191.025 1117.04 189.173 1114.89 Q187.344 1112.74 184.196 1112.74 M193.478 1098.09 L193.478 1102.34 Q191.719 1101.51 189.913 1101.07 Q188.131 1100.63 186.372 1100.63 Q181.742 1100.63 179.288 1103.76 Q176.858 1106.88 176.511 1113.2 Q177.876 1111.19 179.937 1110.12 Q181.997 1109.03 184.474 1109.03 Q189.682 1109.03 192.691 1112.21 Q195.724 1115.35 195.724 1120.79 Q195.724 1126.12 192.575 1129.34 Q189.427 1132.55 184.196 1132.55 Q178.201 1132.55 175.029 1127.97 Q171.858 1123.36 171.858 1114.64 Q171.858 1106.44 175.747 1101.58 Q179.636 1096.7 186.187 1096.7 Q187.946 1096.7 189.728 1097.04 Q191.534 1097.39 193.478 1098.09 Z" fill="#000000" fill-rule="nonzero" fill-opacity="1" /><path clip-path="url(#clip400)" d="M145.33 861.34 L152.969 861.34 L152.969 834.974 L144.659 836.641 L144.659 832.382 L152.923 830.715 L157.599 830.715 L157.599 861.34 L165.238 861.34 L165.238 865.275 L145.33 865.275 L145.33 861.34 Z" fill="#000000" fill-rule="nonzero" fill-opacity="1" /><path clip-path="url(#clip400)" d="M173.501 830.715 L195.724 830.715 L195.724 832.706 L183.177 865.275 L178.293 865.275 L190.099 834.65 L173.501 834.65 L173.501 830.715 Z" fill="#000000" fill-rule="nonzero" fill-opacity="1" /><path clip-path="url(#clip400)" d="M144.52 594.734 L152.159 594.734 L152.159 568.368 L143.849 570.035 L143.849 565.775 L152.113 564.109 L156.789 564.109 L156.789 594.734 L164.427 594.734 L164.427 598.669 L144.52 598.669 L144.52 594.734 Z" fill="#000000" fill-rule="nonzero" fill-opacity="1" /><path clip-path="url(#clip400)" d="M183.872 582.257 Q180.538 582.257 178.617 584.039 Q176.719 585.822 176.719 588.947 Q176.719 592.072 178.617 593.854 Q180.538 595.636 183.872 595.636 Q187.205 595.636 189.126 593.854 Q191.048 592.048 191.048 588.947 Q191.048 585.822 189.126 584.039 Q187.228 582.257 183.872 582.257 M179.196 580.266 Q176.187 579.525 174.497 577.465 Q172.83 575.405 172.83 572.442 Q172.83 568.299 175.77 565.891 Q178.733 563.484 183.872 563.484 Q189.034 563.484 191.974 565.891 Q194.913 568.299 194.913 572.442 Q194.913 575.405 193.224 577.465 Q191.557 579.525 188.571 580.266 Q191.95 581.053 193.825 583.345 Q195.724 585.636 195.724 588.947 Q195.724 593.97 192.645 596.655 Q189.589 599.34 183.872 599.34 Q178.154 599.34 175.076 596.655 Q172.02 593.97 172.02 588.947 Q172.02 585.636 173.918 583.345 Q175.816 581.053 179.196 580.266 M177.483 572.882 Q177.483 575.567 179.15 577.072 Q180.839 578.576 183.872 578.576 Q186.881 578.576 188.571 577.072 Q190.284 575.567 190.284 572.882 Q190.284 570.197 188.571 568.692 Q186.881 567.187 183.872 567.187 Q180.839 567.187 179.15 568.692 Q177.483 570.197 177.483 572.882 Z" fill="#000000" fill-rule="nonzero" fill-opacity="1" /><path clip-path="url(#clip400)" d="M144.613 328.127 L152.252 328.127 L152.252 301.762 L143.941 303.428 L143.941 299.169 L152.205 297.502 L156.881 297.502 L156.881 328.127 L164.52 328.127 L164.52 332.062 L144.613 332.062 L144.613 328.127 Z" fill="#000000" fill-rule="nonzero" fill-opacity="1" /><path clip-path="url(#clip400)" d="M174.103 331.345 L174.103 327.085 Q175.863 327.919 177.668 328.359 Q179.474 328.798 181.21 328.798 Q185.839 328.798 188.27 325.697 Q190.724 322.572 191.071 316.229 Q189.728 318.22 187.668 319.285 Q185.608 320.349 183.108 320.349 Q177.923 320.349 174.89 317.224 Q171.881 314.076 171.881 308.636 Q171.881 303.312 175.029 300.095 Q178.177 296.877 183.409 296.877 Q189.404 296.877 192.552 301.484 Q195.724 306.067 195.724 314.817 Q195.724 322.988 191.835 327.872 Q187.969 332.734 181.418 332.734 Q179.659 332.734 177.853 332.386 Q176.048 332.039 174.103 331.345 M183.409 316.692 Q186.557 316.692 188.386 314.539 Q190.237 312.386 190.237 308.636 Q190.237 304.91 188.386 302.757 Q186.557 300.581 183.409 300.581 Q180.261 300.581 178.409 302.757 Q176.58 304.91 176.58 308.636 Q176.58 312.386 178.409 314.539 Q180.261 316.692 183.409 316.692 Z" fill="#000000" fill-rule="nonzero" fill-opacity="1" /><path clip-path="url(#clip400)" d="M147.645 61.5206 L163.964 61.5206 L163.964 65.4558 L142.02 65.4558 L142.02 61.5206 Q144.682 58.766 149.265 54.1364 Q153.872 49.4837 155.052 48.1411 Q157.298 45.6179 158.177 43.8818 Q159.08 42.1226 159.08 40.4328 Q159.08 37.6782 157.136 35.9421 Q155.215 34.206 152.113 34.206 Q149.914 34.206 147.46 34.9699 Q145.029 35.7337 142.252 37.2847 L142.252 32.5625 Q145.076 31.4282 147.529 30.8495 Q149.983 30.2708 152.02 30.2708 Q157.39 30.2708 160.585 32.956 Q163.779 35.6411 163.779 40.1319 Q163.779 42.2615 162.969 44.1828 Q162.182 46.0809 160.076 48.6735 Q159.497 49.3448 156.395 52.5624 Q153.293 55.7568 147.645 61.5206 Z" fill="#000000" fill-rule="nonzero" fill-opacity="1" /><path clip-path="url(#clip400)" d="M183.779 33.9745 Q180.168 33.9745 178.339 37.5393 Q176.534 41.0809 176.534 48.2105 Q176.534 55.317 178.339 58.8818 Q180.168 62.4234 183.779 62.4234 Q187.413 62.4234 189.219 58.8818 Q191.048 55.317 191.048 48.2105 Q191.048 41.0809 189.219 37.5393 Q187.413 33.9745 183.779 33.9745 M183.779 30.2708 Q189.589 30.2708 192.645 34.8773 Q195.724 39.4606 195.724 48.2105 Q195.724 56.9373 192.645 61.5438 Q189.589 66.1271 183.779 66.1271 Q177.969 66.1271 174.89 61.5438 Q171.835 56.9373 171.835 48.2105 Q171.835 39.4606 174.89 34.8773 Q177.969 30.2708 183.779 30.2708 Z" fill="#000000" fill-rule="nonzero" fill-opacity="1" /><path clip-path="url(#clip400)" d="M61.5277 819.949 L79.3835 819.949 L79.3835 811.864 Q79.3835 807.377 77.06 804.926 Q74.7365 802.475 70.4397 802.475 Q66.1747 802.475 63.8512 804.926 Q61.5277 807.377 61.5277 811.864 L61.5277 819.949 M56.2442 826.378 L56.2442 811.864 Q56.2442 803.876 59.8726 799.801 Q63.4692 795.696 70.4397 795.696 Q77.4738 795.696 81.0704 799.801 Q84.667 803.876 84.667 811.864 L84.667 819.949 L103.764 819.949 L103.764 826.378 L56.2442 826.378 Z" fill="#000000" fill-rule="nonzero" fill-opacity="1" /><path clip-path="url(#clip400)" d="M85.8447 771.124 Q85.8447 778.222 87.4679 780.959 Q89.0912 783.696 93.0061 783.696 Q96.1253 783.696 97.9714 781.659 Q99.7856 779.59 99.7856 776.057 Q99.7856 771.188 96.3481 768.259 Q92.8788 765.299 87.1497 765.299 L85.8447 765.299 L85.8447 771.124 M83.4257 759.443 L103.764 759.443 L103.764 765.299 L98.3533 765.299 Q101.6 767.305 103.159 770.296 Q104.687 773.288 104.687 777.617 Q104.687 783.091 101.632 786.338 Q98.5443 789.553 93.3881 789.553 Q87.3725 789.553 84.3169 785.542 Q81.2614 781.5 81.2614 773.511 L81.2614 765.299 L80.6885 765.299 Q76.6462 765.299 74.4501 767.973 Q72.2221 770.615 72.2221 775.421 Q72.2221 778.476 72.9541 781.373 Q73.6862 784.269 75.1503 786.943 L69.7395 786.943 Q68.4981 783.728 67.8934 780.704 Q67.2568 777.681 67.2568 774.816 Q67.2568 767.082 71.2672 763.262 Q75.2776 759.443 83.4257 759.443 Z" fill="#000000" fill-rule="nonzero" fill-opacity="1" /><path clip-path="url(#clip400)" d="M69.4848 721.726 L74.9593 721.726 Q73.5907 724.209 72.9223 726.723 Q72.2221 729.206 72.2221 731.752 Q72.2221 737.449 75.8505 740.6 Q79.4472 743.751 85.972 743.751 Q92.4969 743.751 96.1253 740.6 Q99.7219 737.449 99.7219 731.752 Q99.7219 729.206 99.0535 726.723 Q98.3533 724.209 96.9847 721.726 L102.396 721.726 Q103.541 724.177 104.114 726.819 Q104.687 729.429 104.687 732.389 Q104.687 740.441 99.6264 745.184 Q94.5657 749.926 85.972 749.926 Q77.251 749.926 72.2539 745.152 Q67.2568 740.346 67.2568 732.007 Q67.2568 729.301 67.8297 726.723 Q68.3708 724.145 69.4848 721.726 Z" fill="#000000" fill-rule="nonzero" fill-opacity="1" /><path clip-path="url(#clip400)" d="M103.764 690.948 L88.7729 690.948 L88.7729 701.865 Q88.7729 706.735 85.7492 709.981 Q83.012 712.91 77.1555 712.91 L68.1162 712.91 L68.1162 707.053 L76.6144 707.053 Q80.3384 707.053 82.2162 705.398 Q84.0941 703.711 84.0941 700.401 L84.0941 690.948 L68.1162 690.948 L68.1162 685.091 L103.764 685.091 L103.764 690.948 Z" fill="#000000" fill-rule="nonzero" fill-opacity="1" /><path clip-path="url(#clip400)" d="M84.4761 642.537 L87.3406 642.537 L87.3406 669.464 Q93.3881 669.082 96.5709 665.835 Q99.7219 662.557 99.7219 656.732 Q99.7219 653.358 98.8944 650.207 Q98.0669 647.025 96.4118 643.905 L101.95 643.905 Q103.287 647.056 103.987 650.367 Q104.687 653.677 104.687 657.082 Q104.687 665.612 99.7219 670.609 Q94.7567 675.575 86.2903 675.575 Q77.5374 675.575 72.4131 670.864 Q67.2568 666.122 67.2568 658.101 Q67.2568 650.908 71.9038 646.738 Q76.5189 642.537 84.4761 642.537 M82.7573 648.393 Q77.9512 648.457 75.0866 651.099 Q72.2221 653.708 72.2221 658.037 Q72.2221 662.939 74.9912 665.899 Q77.7602 668.827 82.7892 669.273 L82.7573 648.393 M54.3663 655.109 L54.3663 648.648 L60.7956 648.648 L60.7956 655.109 L54.3663 655.109 M54.3663 667.554 L54.3663 661.093 L60.7956 661.093 L60.7956 667.554 L54.3663 667.554 Z" fill="#000000" fill-rule="nonzero" fill-opacity="1" /><path clip-path="url(#clip400)" d="M68.1162 637.158 L68.1162 603.006 L72.795 603.006 L72.795 617.201 L103.764 617.201 L103.764 622.962 L72.795 622.962 L72.795 637.158 L68.1162 637.158 Z" fill="#000000" fill-rule="nonzero" fill-opacity="1" /><circle clip-path="url(#clip402)" cx="943.059" cy="710.957" r="18" fill="#009af9" fill-rule="evenodd" fill-opacity="1" stroke="#000000" stroke-opacity="1" stroke-width="3.2"/>
<circle clip-path="url(#clip402)" cx="907.104" cy="757.749" r="18" fill="#009af9" fill-rule="evenodd" fill-opacity="1" stroke="#000000" stroke-opacity="1" stroke-width="3.2"/>
<circle clip-path="url(#clip402)" cx="792.793" cy="834.578" r="18" fill="#009af9" fill-rule="evenodd" fill-opacity="1" stroke="#000000" stroke-opacity="1" stroke-width="3.2"/>
<circle clip-path="url(#clip402)" cx="785.386" cy="829.585" r="18" fill="#009af9" fill-rule="evenodd" fill-opacity="1" stroke="#000000" stroke-opacity="1" stroke-width="3.2"/>
<circle clip-path="url(#clip402)" cx="935.439" cy="603.861" r="18" fill="#009af9" fill-rule="evenodd" fill-opacity="1" stroke="#000000" stroke-opacity="1" stroke-width="3.2"/>
<circle clip-path="url(#clip402)" cx="947.898" cy="617.161" r="18" fill="#009af9" fill-rule="evenodd" fill-opacity="1" stroke="#000000" stroke-opacity="1" stroke-width="3.2"/>
<circle clip-path="url(#clip402)" cx="654.274" cy="886.862" r="18" fill="#009af9" fill-rule="evenodd" fill-opacity="1" stroke="#000000" stroke-opacity="1" stroke-width="3.2"/>
<circle clip-path="url(#clip402)" cx="443.765" cy="1178.03" r="18" fill="#009af9" fill-rule="evenodd" fill-opacity="1" stroke="#000000" stroke-opacity="1" stroke-width="3.2"/>
<circle clip-path="url(#clip402)" cx="1188.61" cy="416.984" r="10.8" fill="#e26f46" fill-rule="evenodd" fill-opacity="0.5" stroke="#000000" stroke-opacity="0.5" stroke-width="3.2"/>
<circle clip-path="url(#clip402)" cx="592.042" cy="971.985" r="10.8" fill="#e26f46" fill-rule="evenodd" fill-opacity="0.5" stroke="#000000" stroke-opacity="0.5" stroke-width="3.2"/>
<circle clip-path="url(#clip402)" cx="1155.83" cy="404.075" r="10.8" fill="#e26f46" fill-rule="evenodd" fill-opacity="0.5" stroke="#000000" stroke-opacity="0.5" stroke-width="3.2"/>
<circle clip-path="url(#clip402)" cx="356.821" cy="1245.88" r="10.8" fill="#e26f46" fill-rule="evenodd" fill-opacity="0.5" stroke="#000000" stroke-opacity="0.5" stroke-width="3.2"/>
<circle clip-path="url(#clip402)" cx="997.696" cy="610.749" r="10.8" fill="#e26f46" fill-rule="evenodd" fill-opacity="0.5" stroke="#000000" stroke-opacity="0.5" stroke-width="3.2"/>
<circle clip-path="url(#clip402)" cx="967.088" cy="588.108" r="10.8" fill="#e26f46" fill-rule="evenodd" fill-opacity="0.5" stroke="#000000" stroke-opacity="0.5" stroke-width="3.2"/>
<circle clip-path="url(#clip402)" cx="1177.88" cy="409.133" r="10.8" fill="#e26f46" fill-rule="evenodd" fill-opacity="0.5" stroke="#000000" stroke-opacity="0.5" stroke-width="3.2"/>
<circle clip-path="url(#clip402)" cx="1065.13" cy="560.43" r="10.8" fill="#e26f46" fill-rule="evenodd" fill-opacity="0.5" stroke="#000000" stroke-opacity="0.5" stroke-width="3.2"/>
<circle clip-path="url(#clip402)" cx="1151.29" cy="416.449" r="10.8" fill="#e26f46" fill-rule="evenodd" fill-opacity="0.5" stroke="#000000" stroke-opacity="0.5" stroke-width="3.2"/>
<circle clip-path="url(#clip402)" cx="769.553" cy="840.213" r="10.8" fill="#e26f46" fill-rule="evenodd" fill-opacity="0.5" stroke="#000000" stroke-opacity="0.5" stroke-width="3.2"/>
<circle clip-path="url(#clip402)" cx="1102.38" cy="548.306" r="10.8" fill="#e26f46" fill-rule="evenodd" fill-opacity="0.5" stroke="#000000" stroke-opacity="0.5" stroke-width="3.2"/>
<circle clip-path="url(#clip402)" cx="1233.45" cy="392.186" r="10.8" fill="#e26f46" fill-rule="evenodd" fill-opacity="0.5" stroke="#000000" stroke-opacity="0.5" stroke-width="3.2"/>
<circle clip-path="url(#clip402)" cx="1232.14" cy="407.284" r="10.8" fill="#e26f46" fill-rule="evenodd" fill-opacity="0.5" stroke="#000000" stroke-opacity="0.5" stroke-width="3.2"/>
<circle clip-path="url(#clip402)" cx="1198.86" cy="410.502" r="10.8" fill="#e26f46" fill-rule="evenodd" fill-opacity="0.5" stroke="#000000" stroke-opacity="0.5" stroke-width="3.2"/>
<circle clip-path="url(#clip402)" cx="854.472" cy="793.262" r="10.8" fill="#e26f46" fill-rule="evenodd" fill-opacity="0.5" stroke="#000000" stroke-opacity="0.5" stroke-width="3.2"/>
<circle clip-path="url(#clip402)" cx="961.825" cy="622.24" r="10.8" fill="#e26f46" fill-rule="evenodd" fill-opacity="0.5" stroke="#000000" stroke-opacity="0.5" stroke-width="3.2"/>
<circle clip-path="url(#clip402)" cx="822.573" cy="810.881" r="10.8" fill="#e26f46" fill-rule="evenodd" fill-opacity="0.5" stroke="#000000" stroke-opacity="0.5" stroke-width="3.2"/>
<circle clip-path="url(#clip402)" cx="849.686" cy="799.702" r="10.8" fill="#e26f46" fill-rule="evenodd" fill-opacity="0.5" stroke="#000000" stroke-opacity="0.5" stroke-width="3.2"/>
<circle clip-path="url(#clip402)" cx="469.441" cy="1156.55" r="10.8" fill="#e26f46" fill-rule="evenodd" fill-opacity="0.5" stroke="#000000" stroke-opacity="0.5" stroke-width="3.2"/>
<circle clip-path="url(#clip402)" cx="1198.26" cy="403.759" r="10.8" fill="#e26f46" fill-rule="evenodd" fill-opacity="0.5" stroke="#000000" stroke-opacity="0.5" stroke-width="3.2"/>
<circle clip-path="url(#clip402)" cx="414.933" cy="1217.17" r="10.8" fill="#e26f46" fill-rule="evenodd" fill-opacity="0.5" stroke="#000000" stroke-opacity="0.5" stroke-width="3.2"/>
<circle clip-path="url(#clip402)" cx="1236.68" cy="400.834" r="10.8" fill="#e26f46" fill-rule="evenodd" fill-opacity="0.5" stroke="#000000" stroke-opacity="0.5" stroke-width="3.2"/>
<circle clip-path="url(#clip402)" cx="1023.94" cy="630.415" r="10.8" fill="#e26f46" fill-rule="evenodd" fill-opacity="0.5" stroke="#000000" stroke-opacity="0.5" stroke-width="3.2"/>
<circle clip-path="url(#clip402)" cx="1262.4" cy="391.37" r="10.8" fill="#e26f46" fill-rule="evenodd" fill-opacity="0.5" stroke="#000000" stroke-opacity="0.5" stroke-width="3.2"/>
<circle clip-path="url(#clip402)" cx="477.704" cy="1108.24" r="10.8" fill="#e26f46" fill-rule="evenodd" fill-opacity="0.5" stroke="#000000" stroke-opacity="0.5" stroke-width="3.2"/>
<circle clip-path="url(#clip402)" cx="963.424" cy="598.995" r="10.8" fill="#e26f46" fill-rule="evenodd" fill-opacity="0.5" stroke="#000000" stroke-opacity="0.5" stroke-width="3.2"/>
<circle clip-path="url(#clip402)" cx="395.543" cy="1181.45" r="10.8" fill="#e26f46" fill-rule="evenodd" fill-opacity="0.5" stroke="#000000" stroke-opacity="0.5" stroke-width="3.2"/>
<circle clip-path="url(#clip402)" cx="1192.99" cy="448.177" r="10.8" fill="#e26f46" fill-rule="evenodd" fill-opacity="0.5" stroke="#000000" stroke-opacity="0.5" stroke-width="3.2"/>
<circle clip-path="url(#clip402)" cx="1144.39" cy="494.296" r="10.8" fill="#e26f46" fill-rule="evenodd" fill-opacity="0.5" stroke="#000000" stroke-opacity="0.5" stroke-width="3.2"/>
<circle clip-path="url(#clip402)" cx="1120.02" cy="526.816" r="10.8" fill="#e26f46" fill-rule="evenodd" fill-opacity="0.5" stroke="#000000" stroke-opacity="0.5" stroke-width="3.2"/>
<circle clip-path="url(#clip402)" cx="1171.15" cy="433.144" r="10.8" fill="#e26f46" fill-rule="evenodd" fill-opacity="0.5" stroke="#000000" stroke-opacity="0.5" stroke-width="3.2"/>
<circle clip-path="url(#clip402)" cx="857.08" cy="792.811" r="10.8" fill="#e26f46" fill-rule="evenodd" fill-opacity="0.5" stroke="#000000" stroke-opacity="0.5" stroke-width="3.2"/>
<circle clip-path="url(#clip402)" cx="1097.35" cy="519.903" r="10.8" fill="#e26f46" fill-rule="evenodd" fill-opacity="0.5" stroke="#000000" stroke-opacity="0.5" stroke-width="3.2"/>
<circle clip-path="url(#clip402)" cx="1019.61" cy="650.173" r="10.8" fill="#e26f46" fill-rule="evenodd" fill-opacity="0.5" stroke="#000000" stroke-opacity="0.5" stroke-width="3.2"/>
<circle clip-path="url(#clip402)" cx="1217.96" cy="393.68" r="10.8" fill="#e26f46" fill-rule="evenodd" fill-opacity="0.5" stroke="#000000" stroke-opacity="0.5" stroke-width="3.2"/>
<circle clip-path="url(#clip402)" cx="1173.72" cy="412.339" r="10.8" fill="#e26f46" fill-rule="evenodd" fill-opacity="0.5" stroke="#000000" stroke-opacity="0.5" stroke-width="3.2"/>
<circle clip-path="url(#clip402)" cx="1049.33" cy="578.099" r="10.8" fill="#e26f46" fill-rule="evenodd" fill-opacity="0.5" stroke="#000000" stroke-opacity="0.5" stroke-width="3.2"/>
<circle clip-path="url(#clip402)" cx="1172.07" cy="463.716" r="10.8" fill="#e26f46" fill-rule="evenodd" fill-opacity="0.5" stroke="#000000" stroke-opacity="0.5" stroke-width="3.2"/>
<circle clip-path="url(#clip402)" cx="894.116" cy="760.19" r="10.8" fill="#e26f46" fill-rule="evenodd" fill-opacity="0.5" stroke="#000000" stroke-opacity="0.5" stroke-width="3.2"/>
<circle clip-path="url(#clip402)" cx="1266.28" cy="380.407" r="10.8" fill="#e26f46" fill-rule="evenodd" fill-opacity="0.5" stroke="#000000" stroke-opacity="0.5" stroke-width="3.2"/>
<circle clip-path="url(#clip402)" cx="326.368" cy="1290.02" r="10.8" fill="#e26f46" fill-rule="evenodd" fill-opacity="0.5" stroke="#000000" stroke-opacity="0.5" stroke-width="3.2"/>
<circle clip-path="url(#clip402)" cx="1166.81" cy="402.509" r="10.8" fill="#e26f46" fill-rule="evenodd" fill-opacity="0.5" stroke="#000000" stroke-opacity="0.5" stroke-width="3.2"/>
<circle clip-path="url(#clip402)" cx="1254.41" cy="385.289" r="10.8" fill="#e26f46" fill-rule="evenodd" fill-opacity="0.5" stroke="#000000" stroke-opacity="0.5" stroke-width="3.2"/>
<circle clip-path="url(#clip402)" cx="781.104" cy="832.815" r="10.8" fill="#e26f46" fill-rule="evenodd" fill-opacity="0.5" stroke="#000000" stroke-opacity="0.5" stroke-width="3.2"/>
<circle clip-path="url(#clip402)" cx="1223.43" cy="403.873" r="10.8" fill="#e26f46" fill-rule="evenodd" fill-opacity="0.5" stroke="#000000" stroke-opacity="0.5" stroke-width="3.2"/>
<circle clip-path="url(#clip402)" cx="895.122" cy="762.497" r="10.8" fill="#e26f46" fill-rule="evenodd" fill-opacity="0.5" stroke="#000000" stroke-opacity="0.5" stroke-width="3.2"/>
<circle clip-path="url(#clip402)" cx="1057.67" cy="706.907" r="10.8" fill="#e26f46" fill-rule="evenodd" fill-opacity="0.5" stroke="#000000" stroke-opacity="0.5" stroke-width="3.2"/>
<circle clip-path="url(#clip402)" cx="459.496" cy="1161.56" r="10.8" fill="#e26f46" fill-rule="evenodd" fill-opacity="0.5" stroke="#000000" stroke-opacity="0.5" stroke-width="3.2"/>
<circle clip-path="url(#clip402)" cx="923.479" cy="737.503" r="10.8" fill="#e26f46" fill-rule="evenodd" fill-opacity="0.5" stroke="#000000" stroke-opacity="0.5" stroke-width="3.2"/>
<circle clip-path="url(#clip402)" cx="492.581" cy="1130.15" r="10.8" fill="#e26f46" fill-rule="evenodd" fill-opacity="0.5" stroke="#000000" stroke-opacity="0.5" stroke-width="3.2"/>
<circle clip-path="url(#clip402)" cx="1060.6" cy="571.353" r="10.8" fill="#e26f46" fill-rule="evenodd" fill-opacity="0.5" stroke="#000000" stroke-opacity="0.5" stroke-width="3.2"/>
<circle clip-path="url(#clip402)" cx="426.459" cy="1201.73" r="10.8" fill="#e26f46" fill-rule="evenodd" fill-opacity="0.5" stroke="#000000" stroke-opacity="0.5" stroke-width="3.2"/>
<circle clip-path="url(#clip402)" cx="1113.95" cy="484.635" r="10.8" fill="#e26f46" fill-rule="evenodd" fill-opacity="0.5" stroke="#000000" stroke-opacity="0.5" stroke-width="3.2"/>
<circle clip-path="url(#clip402)" cx="911.873" cy="648.702" r="10.8" fill="#e26f46" fill-rule="evenodd" fill-opacity="0.5" stroke="#000000" stroke-opacity="0.5" stroke-width="3.2"/>
<circle clip-path="url(#clip402)" cx="1161.37" cy="443.575" r="10.8" fill="#e26f46" fill-rule="evenodd" fill-opacity="0.5" stroke="#000000" stroke-opacity="0.5" stroke-width="3.2"/>
<circle clip-path="url(#clip402)" cx="440.563" cy="1195.67" r="10.8" fill="#e26f46" fill-rule="evenodd" fill-opacity="0.5" stroke="#000000" stroke-opacity="0.5" stroke-width="3.2"/>
<circle clip-path="url(#clip402)" cx="905.648" cy="753.144" r="10.8" fill="#e26f46" fill-rule="evenodd" fill-opacity="0.5" stroke="#000000" stroke-opacity="0.5" stroke-width="3.2"/>
<circle clip-path="url(#clip402)" cx="888.563" cy="771.895" r="10.8" fill="#e26f46" fill-rule="evenodd" fill-opacity="0.5" stroke="#000000" stroke-opacity="0.5" stroke-width="3.2"/>
<circle clip-path="url(#clip402)" cx="1161.34" cy="451.129" r="10.8" fill="#e26f46" fill-rule="evenodd" fill-opacity="0.5" stroke="#000000" stroke-opacity="0.5" stroke-width="3.2"/>
<circle clip-path="url(#clip402)" cx="1241.34" cy="399.191" r="10.8" fill="#e26f46" fill-rule="evenodd" fill-opacity="0.5" stroke="#000000" stroke-opacity="0.5" stroke-width="3.2"/>
<circle clip-path="url(#clip402)" cx="1173.85" cy="424.764" r="10.8" fill="#e26f46" fill-rule="evenodd" fill-opacity="0.5" stroke="#000000" stroke-opacity="0.5" stroke-width="3.2"/>
<circle clip-path="url(#clip402)" cx="850.945" cy="792.501" r="10.8" fill="#e26f46" fill-rule="evenodd" fill-opacity="0.5" stroke="#000000" stroke-opacity="0.5" stroke-width="3.2"/>
<circle clip-path="url(#clip402)" cx="1007.53" cy="585.097" r="10.8" fill="#e26f46" fill-rule="evenodd" fill-opacity="0.5" stroke="#000000" stroke-opacity="0.5" stroke-width="3.2"/>
<circle clip-path="url(#clip402)" cx="989.445" cy="625.18" r="10.8" fill="#e26f46" fill-rule="evenodd" fill-opacity="0.5" stroke="#000000" stroke-opacity="0.5" stroke-width="3.2"/>
<circle clip-path="url(#clip402)" cx="426.205" cy="1217.97" r="10.8" fill="#e26f46" fill-rule="evenodd" fill-opacity="0.5" stroke="#000000" stroke-opacity="0.5" stroke-width="3.2"/>
<circle clip-path="url(#clip402)" cx="1252.26" cy="385.948" r="10.8" fill="#e26f46" fill-rule="evenodd" fill-opacity="0.5" stroke="#000000" stroke-opacity="0.5" stroke-width="3.2"/>
<circle clip-path="url(#clip402)" cx="1246.97" cy="398.674" r="10.8" fill="#e26f46" fill-rule="evenodd" fill-opacity="0.5" stroke="#000000" stroke-opacity="0.5" stroke-width="3.2"/>
<circle clip-path="url(#clip402)" cx="1020.62" cy="592.621" r="10.8" fill="#e26f46" fill-rule="evenodd" fill-opacity="0.5" stroke="#000000" stroke-opacity="0.5" stroke-width="3.2"/>
<circle clip-path="url(#clip402)" cx="1164.37" cy="382.161" r="10.8" fill="#e26f46" fill-rule="evenodd" fill-opacity="0.5" stroke="#000000" stroke-opacity="0.5" stroke-width="3.2"/>
<circle clip-path="url(#clip402)" cx="962.426" cy="595.047" r="10.8" fill="#e26f46" fill-rule="evenodd" fill-opacity="0.5" stroke="#000000" stroke-opacity="0.5" stroke-width="3.2"/>
<circle clip-path="url(#clip402)" cx="533.63" cy="1038.07" r="10.8" fill="#e26f46" fill-rule="evenodd" fill-opacity="0.5" stroke="#000000" stroke-opacity="0.5" stroke-width="3.2"/>
<circle clip-path="url(#clip402)" cx="871.613" cy="772.518" r="10.8" fill="#e26f46" fill-rule="evenodd" fill-opacity="0.5" stroke="#000000" stroke-opacity="0.5" stroke-width="3.2"/>
<circle clip-path="url(#clip402)" cx="1090.78" cy="536.754" r="10.8" fill="#e26f46" fill-rule="evenodd" fill-opacity="0.5" stroke="#000000" stroke-opacity="0.5" stroke-width="3.2"/>
<polyline clip-path="url(#clip402)" style="stroke:#808080; stroke-linecap:round; stroke-linejoin:round; stroke-width:4; stroke-opacity:1; fill:none" points="-3779.37,5380.31 1552.76,48.1758 "/>
<path clip-path="url(#clip400)" d="M264.158 248.192 L527.368 248.192 L527.368 92.6723 L264.158 92.6723  Z" fill="#ffffff" fill-rule="evenodd" fill-opacity="1"/>
<polyline clip-path="url(#clip400)" style="stroke:#000000; stroke-linecap:round; stroke-linejoin:round; stroke-width:4; stroke-opacity:1; fill:none" points="264.158,248.192 527.368,248.192 527.368,92.6723 264.158,92.6723 264.158,248.192 "/>
<circle clip-path="url(#clip400)" cx="323.404" cy="144.512" r="20.9455" fill="#009af9" fill-rule="evenodd" fill-opacity="1" stroke="#000000" stroke-opacity="1" stroke-width="3.72364"/>
<path clip-path="url(#clip400)" d="M398.668 130.404 Q393.576 130.404 390.566 134.2 Q387.58 137.996 387.58 144.547 Q387.58 151.075 390.566 154.871 Q393.576 158.667 398.668 158.667 Q403.761 158.667 406.724 154.871 Q409.71 151.075 409.71 144.547 Q409.71 137.996 406.724 134.2 Q403.761 130.404 398.668 130.404 M398.668 126.607 Q405.937 126.607 410.288 131.492 Q414.64 136.353 414.64 144.547 Q414.64 152.718 410.288 157.603 Q405.937 162.464 398.668 162.464 Q391.377 162.464 387.002 157.603 Q382.65 152.741 382.65 144.547 Q382.65 136.353 387.002 131.492 Q391.377 126.607 398.668 126.607 Z" fill="#000000" fill-rule="nonzero" fill-opacity="1" /><path clip-path="url(#clip400)" d="M432.048 135.242 Q437.603 135.242 440.774 138.853 Q443.946 142.464 443.946 148.853 Q443.946 155.218 440.774 158.853 Q437.603 162.464 432.048 162.464 Q426.469 162.464 423.39 158.945 Q420.312 155.427 420.15 148.853 L420.011 143.552 Q419.895 140.797 419.895 139.848 Q419.895 136.144 421.238 133.413 Q423.344 129.13 426.978 127.279 Q430.636 125.427 436.747 125.38 Q439.571 125.357 440.821 124.964 L442.001 128.343 Q440.867 128.806 439.825 128.83 L434.038 129.223 Q431.122 129.431 429.362 130.45 Q424.756 133.158 424.316 136.7 L424.154 137.996 Q427.163 135.242 432.048 135.242 M432.048 138.853 Q428.622 138.853 426.631 141.538 Q424.64 144.2 424.64 148.853 Q424.64 153.505 426.608 156.191 Q428.599 158.853 432.048 158.853 Q435.45 158.853 437.441 156.167 Q439.432 153.482 439.432 148.853 Q439.432 144.246 437.441 141.561 Q435.45 138.853 432.048 138.853 Z" fill="#000000" fill-rule="nonzero" fill-opacity="1" /><path clip-path="url(#clip400)" d="M461.793 164.2 Q459.987 168.829 458.274 170.241 Q456.561 171.653 453.691 171.653 L450.288 171.653 L450.288 168.089 L452.788 168.089 Q454.548 168.089 455.52 167.255 Q456.492 166.422 457.672 163.32 L458.436 161.376 L447.95 135.867 L452.464 135.867 L460.566 156.144 L468.668 135.867 L473.182 135.867 L461.793 164.2 Z" fill="#000000" fill-rule="nonzero" fill-opacity="1" /><path clip-path="url(#clip400)" d="M494.038 161.792 L494.038 150.89 L486.098 150.89 Q482.557 150.89 480.196 148.691 Q478.066 146.7 478.066 142.441 L478.066 135.867 L482.325 135.867 L482.325 142.047 Q482.325 144.755 483.529 146.121 Q484.756 147.487 487.163 147.487 L494.038 147.487 L494.038 135.867 L498.297 135.867 L498.297 161.792 L494.038 161.792 Z" fill="#000000" fill-rule="nonzero" fill-opacity="1" /><path clip-path="url(#clip400)" d="M507.672 155.913 L512.556 155.913 L512.556 161.792 L507.672 161.792 L507.672 155.913 Z" fill="#000000" fill-rule="nonzero" fill-opacity="1" /><circle clip-path="url(#clip400)" cx="323.404" cy="196.352" r="19.7486" fill="#e26f46" fill-rule="evenodd" fill-opacity="0.5" stroke="#000000" stroke-opacity="0.5" stroke-width="5.85143"/>
<path clip-path="url(#clip400)" d="M382.65 179.072 L411.886 179.072 L411.886 183.007 L399.617 183.007 L399.617 213.632 L394.918 213.632 L394.918 183.007 L382.65 183.007 L382.65 179.072 Z" fill="#000000" fill-rule="nonzero" fill-opacity="1" /><path clip-path="url(#clip400)" d="M438.39 199.605 L438.39 201.688 L418.807 201.688 Q419.085 206.086 421.446 208.401 Q423.83 210.693 428.066 210.693 Q430.52 210.693 432.812 210.091 Q435.126 209.489 437.395 208.285 L437.395 212.313 Q435.103 213.285 432.696 213.794 Q430.288 214.304 427.812 214.304 Q421.608 214.304 417.974 210.693 Q414.363 207.081 414.363 200.924 Q414.363 194.558 417.788 190.832 Q421.238 187.082 427.071 187.082 Q432.302 187.082 435.335 190.461 Q438.39 193.818 438.39 199.605 M434.131 198.355 Q434.085 194.859 432.163 192.776 Q430.265 190.693 427.117 190.693 Q423.552 190.693 421.4 192.707 Q419.27 194.72 418.946 198.378 L434.131 198.355 Z" fill="#000000" fill-rule="nonzero" fill-opacity="1" /><path clip-path="url(#clip400)" d="M464.038 188.702 L464.038 192.683 Q462.233 191.688 460.404 191.202 Q458.598 190.693 456.747 190.693 Q452.603 190.693 450.311 193.332 Q448.02 195.947 448.02 200.693 Q448.02 205.438 450.311 208.077 Q452.603 210.693 456.747 210.693 Q458.598 210.693 460.404 210.206 Q462.233 209.697 464.038 208.702 L464.038 212.637 Q462.256 213.47 460.335 213.887 Q458.436 214.304 456.284 214.304 Q450.427 214.304 446.978 210.623 Q443.529 206.943 443.529 200.693 Q443.529 194.35 447.001 190.716 Q450.497 187.082 456.561 187.082 Q458.529 187.082 460.404 187.498 Q462.279 187.892 464.038 188.702 Z" fill="#000000" fill-rule="nonzero" fill-opacity="1" /><path clip-path="url(#clip400)" d="M468.367 187.707 L493.205 187.707 L493.205 191.109 L482.881 191.109 L482.881 213.632 L478.691 213.632 L478.691 191.109 L468.367 191.109 L468.367 187.707 Z" fill="#000000" fill-rule="nonzero" fill-opacity="1" /></svg>
