<?xml version="1.0" encoding="utf-8"?>
<svg xmlns="http://www.w3.org/2000/svg" xmlns:xlink="http://www.w3.org/1999/xlink" width="400" height="400" viewBox="0 0 1600 1600">
<defs>
  <clipPath id="clip460">
    <rect x="0" y="0" width="1600" height="1600"/>
  </clipPath>
</defs>
<path clip-path="url(#clip460)" d="M0 1600 L1600 1600 L1600 0 L0 0  Z" fill="#ffffff" fill-rule="evenodd" fill-opacity="1"/>
<defs>
  <clipPath id="clip461">
    <rect x="320" y="160" width="1121" height="1121"/>
  </clipPath>
</defs>
<path clip-path="url(#clip460)" d="M219.724 1381.21 L1552.76 1381.21 L1552.76 48.1758 L219.724 48.1758  Z" fill="#ffffff" fill-rule="evenodd" fill-opacity="1"/>
<defs>
  <clipPath id="clip462">
    <rect x="219" y="48" width="1334" height="1334"/>
  </clipPath>
</defs>
<polyline clip-path="url(#clip462)" style="stroke:#000000; stroke-linecap:round; stroke-linejoin:round; stroke-width:2; stroke-opacity:0.1; fill:none" points="219.724,1381.21 219.724,48.1758 "/>
<polyline clip-path="url(#clip462)" style="stroke:#000000; stroke-linecap:round; stroke-linejoin:round; stroke-width:2; stroke-opacity:0.1; fill:none" points="664.068,1381.21 664.068,48.1758 "/>
<polyline clip-path="url(#clip462)" style="stroke:#000000; stroke-linecap:round; stroke-linejoin:round; stroke-width:2; stroke-opacity:0.1; fill:none" points="1108.41,1381.21 1108.41,48.1758 "/>
<polyline clip-path="url(#clip462)" style="stroke:#000000; stroke-linecap:round; stroke-linejoin:round; stroke-width:2; stroke-opacity:0.1; fill:none" points="1552.76,1381.21 1552.76,48.1758 "/>
<polyline clip-path="url(#clip460)" style="stroke:#000000; stroke-linecap:round; stroke-linejoin:round; stroke-width:4; stroke-opacity:1; fill:none" points="219.724,1381.21 1552.76,1381.21 "/>
<polyline clip-path="url(#clip460)" style="stroke:#000000; stroke-linecap:round; stroke-linejoin:round; stroke-width:4; stroke-opacity:1; fill:none" points="219.724,1381.21 219.724,1362.34 "/>
<polyline clip-path="url(#clip460)" style="stroke:#000000; stroke-linecap:round; stroke-linejoin:round; stroke-width:4; stroke-opacity:1; fill:none" points="664.068,1381.21 664.068,1362.34 "/>
<polyline clip-path="url(#clip460)" style="stroke:#000000; stroke-linecap:round; stroke-linejoin:round; stroke-width:4; stroke-opacity:1; fill:none" points="1108.41,1381.21 1108.41,1362.34 "/>
<polyline clip-path="url(#clip460)" style="stroke:#000000; stroke-linecap:round; stroke-linejoin:round; stroke-width:4; stroke-opacity:1; fill:none" points="1552.76,1381.21 1552.76,1362.34 "/>
<path clip-path="url(#clip460)" d="M210.001 1402.65 L228.358 1402.65 L228.358 1406.58 L214.284 1406.58 L214.284 1415.06 Q215.302 1414.71 216.321 1414.55 Q217.339 1414.36 218.358 1414.36 Q224.145 1414.36 227.524 1417.53 Q230.904 1420.7 230.904 1426.12 Q230.904 1431.7 227.432 1434.8 Q223.96 1437.88 217.64 1437.88 Q215.464 1437.88 213.196 1437.51 Q210.95 1437.14 208.543 1436.4 L208.543 1431.7 Q210.626 1432.83 212.849 1433.39 Q215.071 1433.94 217.548 1433.94 Q221.552 1433.94 223.89 1431.84 Q226.228 1429.73 226.228 1426.12 Q226.228 1422.51 223.89 1420.4 Q221.552 1418.3 217.548 1418.3 Q215.673 1418.3 213.798 1418.71 Q211.946 1419.13 210.001 1420.01 L210.001 1402.65 Z" fill="#000000" fill-rule="nonzero" fill-opacity="1" /><path clip-path="url(#clip460)" d="M638.755 1433.27 L646.394 1433.27 L646.394 1406.91 L638.084 1408.57 L638.084 1404.31 L646.348 1402.65 L651.024 1402.65 L651.024 1433.27 L658.663 1433.27 L658.663 1437.21 L638.755 1437.21 L638.755 1433.27 Z" fill="#000000" fill-rule="nonzero" fill-opacity="1" /><path clip-path="url(#clip460)" d="M678.107 1405.73 Q674.496 1405.73 672.667 1409.29 Q670.862 1412.83 670.862 1419.96 Q670.862 1427.07 672.667 1430.63 Q674.496 1434.18 678.107 1434.18 Q681.741 1434.18 683.547 1430.63 Q685.375 1427.07 685.375 1419.96 Q685.375 1412.83 683.547 1409.29 Q681.741 1405.73 678.107 1405.73 M678.107 1402.02 Q683.917 1402.02 686.973 1406.63 Q690.051 1411.21 690.051 1419.96 Q690.051 1428.69 686.973 1433.3 Q683.917 1437.88 678.107 1437.88 Q672.297 1437.88 669.218 1433.3 Q666.163 1428.69 666.163 1419.96 Q666.163 1411.21 669.218 1406.63 Q672.297 1402.02 678.107 1402.02 Z" fill="#000000" fill-rule="nonzero" fill-opacity="1" /><path clip-path="url(#clip460)" d="M1083.6 1433.27 L1091.24 1433.27 L1091.24 1406.91 L1082.93 1408.57 L1082.93 1404.31 L1091.19 1402.65 L1095.87 1402.65 L1095.87 1433.27 L1103.5 1433.27 L1103.5 1437.21 L1083.6 1437.21 L1083.6 1433.27 Z" fill="#000000" fill-rule="nonzero" fill-opacity="1" /><path clip-path="url(#clip460)" d="M1113 1402.65 L1131.35 1402.65 L1131.35 1406.58 L1117.28 1406.58 L1117.28 1415.06 Q1118.3 1414.71 1119.31 1414.55 Q1120.33 1414.36 1121.35 1414.36 Q1127.14 1414.36 1130.52 1417.53 Q1133.9 1420.7 1133.9 1426.12 Q1133.9 1431.7 1130.43 1434.8 Q1126.95 1437.88 1120.63 1437.88 Q1118.46 1437.88 1116.19 1437.51 Q1113.94 1437.14 1111.54 1436.4 L1111.54 1431.7 Q1113.62 1432.83 1115.84 1433.39 Q1118.06 1433.94 1120.54 1433.94 Q1124.55 1433.94 1126.88 1431.84 Q1129.22 1429.73 1129.22 1426.12 Q1129.22 1422.51 1126.88 1420.4 Q1124.55 1418.3 1120.54 1418.3 Q1118.67 1418.3 1116.79 1418.71 Q1114.94 1419.13 1113 1420.01 L1113 1402.65 Z" fill="#000000" fill-rule="nonzero" fill-opacity="1" /><path clip-path="url(#clip460)" d="M1531.53 1433.27 L1547.85 1433.27 L1547.85 1437.21 L1525.9 1437.21 L1525.9 1433.27 Q1528.57 1430.52 1533.15 1425.89 Q1537.76 1421.24 1538.94 1419.89 Q1541.18 1417.37 1542.06 1415.63 Q1542.96 1413.87 1542.96 1412.19 Q1542.96 1409.43 1541.02 1407.69 Q1539.1 1405.96 1536 1405.96 Q1533.8 1405.96 1531.34 1406.72 Q1528.91 1407.49 1526.14 1409.04 L1526.14 1404.31 Q1528.96 1403.18 1531.41 1402.6 Q1533.87 1402.02 1535.9 1402.02 Q1541.27 1402.02 1544.47 1404.71 Q1547.66 1407.39 1547.66 1411.88 Q1547.66 1414.01 1546.85 1415.94 Q1546.07 1417.83 1543.96 1420.43 Q1543.38 1421.1 1540.28 1424.31 Q1537.18 1427.51 1531.53 1433.27 Z" fill="#000000" fill-rule="nonzero" fill-opacity="1" /><path clip-path="url(#clip460)" d="M1567.66 1405.73 Q1564.05 1405.73 1562.22 1409.29 Q1560.42 1412.83 1560.42 1419.96 Q1560.42 1427.07 1562.22 1430.63 Q1564.05 1434.18 1567.66 1434.18 Q1571.3 1434.18 1573.1 1430.63 Q1574.93 1427.07 1574.93 1419.96 Q1574.93 1412.83 1573.1 1409.29 Q1571.3 1405.73 1567.66 1405.73 M1567.66 1402.02 Q1573.47 1402.02 1576.53 1406.63 Q1579.61 1411.21 1579.61 1419.96 Q1579.61 1428.69 1576.53 1433.3 Q1573.47 1437.88 1567.66 1437.88 Q1561.85 1437.88 1558.77 1433.3 Q1555.72 1428.69 1555.72 1419.96 Q1555.72 1411.21 1558.77 1406.63 Q1561.85 1402.02 1567.66 1402.02 Z" fill="#000000" fill-rule="nonzero" fill-opacity="1" /><path clip-path="url(#clip460)" d="M823.426 1476.32 Q816.519 1476.96 812.859 1480.21 Q809.199 1483.45 809.199 1489.72 Q809.199 1495.99 812.859 1499.24 Q816.519 1502.45 823.426 1503.09 L823.426 1476.32 M829.887 1503.09 Q836.794 1502.45 840.423 1499.24 Q844.051 1495.99 844.051 1489.72 Q844.051 1483.45 840.423 1480.21 Q836.794 1476.96 829.887 1476.32 L829.887 1503.09 M823.426 1508.41 Q813.336 1507.67 807.862 1502.93 Q802.419 1498.16 802.419 1489.72 Q802.419 1481.29 807.862 1476.51 Q813.336 1471.71 823.426 1470.98 L823.426 1466.55 L829.887 1466.55 L829.887 1470.98 Q839.977 1471.71 845.388 1476.48 Q850.83 1481.23 850.83 1489.72 Q850.83 1498.16 845.388 1502.93 Q839.977 1507.67 829.887 1508.41 L829.887 1514.07 L823.426 1514.07 L823.426 1508.41 Z" fill="#000000" fill-rule="nonzero" fill-opacity="1" /><path clip-path="url(#clip460)" d="M877.025 1496.15 Q869.928 1496.15 867.19 1497.78 Q864.453 1499.4 864.453 1503.31 Q864.453 1506.43 866.49 1508.28 Q868.559 1510.09 872.092 1510.09 Q876.962 1510.09 879.89 1506.66 Q882.85 1503.19 882.85 1497.46 L882.85 1496.15 L877.025 1496.15 M888.706 1493.73 L888.706 1514.07 L882.85 1514.07 L882.85 1508.66 Q880.845 1511.91 877.853 1513.47 Q874.861 1515 870.532 1515 Q865.058 1515 861.811 1511.94 Q858.597 1508.85 858.597 1503.7 Q858.597 1497.68 862.607 1494.62 Q866.649 1491.57 874.638 1491.57 L882.85 1491.57 L882.85 1491 Q882.85 1486.95 880.176 1484.76 Q877.535 1482.53 872.729 1482.53 Q869.673 1482.53 866.777 1483.26 Q863.88 1483.99 861.207 1485.46 L861.207 1480.05 Q864.421 1478.81 867.445 1478.2 Q870.469 1477.56 873.333 1477.56 Q881.068 1477.56 884.887 1481.58 Q888.706 1485.59 888.706 1493.73 Z" fill="#000000" fill-rule="nonzero" fill-opacity="1" /><path clip-path="url(#clip460)" d="M900.547 1478.42 L906.371 1478.42 L906.371 1495.17 L922.89 1478.42 L930.084 1478.42 L916.461 1492.21 L931.834 1514.07 L925.277 1514.07 L912.642 1496.09 L906.371 1502.45 L906.371 1514.07 L900.547 1514.07 L900.547 1478.42 Z" fill="#000000" fill-rule="nonzero" fill-opacity="1" /><path clip-path="url(#clip460)" d="M935.908 1478.42 L970.06 1478.42 L970.06 1483.1 L955.865 1483.1 L955.865 1514.07 L950.104 1514.07 L950.104 1483.1 L935.908 1483.1 L935.908 1478.42 Z" fill="#000000" fill-rule="nonzero" fill-opacity="1" /><polyline clip-path="url(#clip462)" style="stroke:#000000; stroke-linecap:round; stroke-linejoin:round; stroke-width:2; stroke-opacity:0.1; fill:none" points="219.724,1381.21 1552.76,1381.21 "/>
<polyline clip-path="url(#clip462)" style="stroke:#000000; stroke-linecap:round; stroke-linejoin:round; stroke-width:2; stroke-opacity:0.1; fill:none" points="219.724,936.864 1552.76,936.864 "/>
<polyline clip-path="url(#clip462)" style="stroke:#000000; stroke-linecap:round; stroke-linejoin:round; stroke-width:2; stroke-opacity:0.1; fill:none" points="219.724,492.52 1552.76,492.52 "/>
<polyline clip-path="url(#clip462)" style="stroke:#000000; stroke-linecap:round; stroke-linejoin:round; stroke-width:2; stroke-opacity:0.1; fill:none" points="219.724,48.1758 1552.76,48.1758 "/>
<polyline clip-path="url(#clip460)" style="stroke:#000000; stroke-linecap:round; stroke-linejoin:round; stroke-width:4; stroke-opacity:1; fill:none" points="219.724,1381.21 219.724,48.1758 "/>
<polyline clip-path="url(#clip460)" style="stroke:#000000; stroke-linecap:round; stroke-linejoin:round; stroke-width:4; stroke-opacity:1; fill:none" points="219.724,1381.21 238.621,1381.21 "/>
<polyline clip-path="url(#clip460)" style="stroke:#000000; stroke-linecap:round; stroke-linejoin:round; stroke-width:4; stroke-opacity:1; fill:none" points="219.724,936.864 238.621,936.864 "/>
<polyline clip-path="url(#clip460)" style="stroke:#000000; stroke-linecap:round; stroke-linejoin:round; stroke-width:4; stroke-opacity:1; fill:none" points="219.724,492.52 238.621,492.52 "/>
<polyline clip-path="url(#clip460)" style="stroke:#000000; stroke-linecap:round; stroke-linejoin:round; stroke-width:4; stroke-opacity:1; fill:none" points="219.724,48.1758 238.621,48.1758 "/>
<path clip-path="url(#clip460)" d="M174.821 1363.93 L193.177 1363.93 L193.177 1367.86 L179.103 1367.86 L179.103 1376.34 Q180.122 1375.99 181.14 1375.83 Q182.159 1375.64 183.177 1375.64 Q188.964 1375.64 192.344 1378.81 Q195.724 1381.98 195.724 1387.4 Q195.724 1392.98 192.251 1396.08 Q188.779 1399.16 182.46 1399.16 Q180.284 1399.16 178.015 1398.79 Q175.77 1398.42 173.363 1397.68 L173.363 1392.98 Q175.446 1394.11 177.668 1394.67 Q179.89 1395.22 182.367 1395.22 Q186.372 1395.22 188.71 1393.12 Q191.048 1391.01 191.048 1387.4 Q191.048 1383.79 188.71 1381.68 Q186.372 1379.58 182.367 1379.58 Q180.492 1379.58 178.617 1379.99 Q176.765 1380.41 174.821 1381.29 L174.821 1363.93 Z" fill="#000000" fill-rule="nonzero" fill-opacity="1" /><path clip-path="url(#clip460)" d="M144.428 950.209 L152.066 950.209 L152.066 923.843 L143.756 925.51 L143.756 921.251 L152.02 919.584 L156.696 919.584 L156.696 950.209 L164.335 950.209 L164.335 954.144 L144.428 954.144 L144.428 950.209 Z" fill="#000000" fill-rule="nonzero" fill-opacity="1" /><path clip-path="url(#clip460)" d="M183.779 922.663 Q180.168 922.663 178.339 926.228 Q176.534 929.769 176.534 936.899 Q176.534 944.005 178.339 947.57 Q180.168 951.112 183.779 951.112 Q187.413 951.112 189.219 947.57 Q191.048 944.005 191.048 936.899 Q191.048 929.769 189.219 926.228 Q187.413 922.663 183.779 922.663 M183.779 918.959 Q189.589 918.959 192.645 923.565 Q195.724 928.149 195.724 936.899 Q195.724 945.626 192.645 950.232 Q189.589 954.815 183.779 954.815 Q177.969 954.815 174.89 950.232 Q171.835 945.626 171.835 936.899 Q171.835 928.149 174.89 923.565 Q177.969 918.959 183.779 918.959 Z" fill="#000000" fill-rule="nonzero" fill-opacity="1" /><path clip-path="url(#clip460)" d="M145.423 505.865 L153.062 505.865 L153.062 479.499 L144.752 481.166 L144.752 476.907 L153.015 475.24 L157.691 475.24 L157.691 505.865 L165.33 505.865 L165.33 509.8 L145.423 509.8 L145.423 505.865 Z" fill="#000000" fill-rule="nonzero" fill-opacity="1" /><path clip-path="url(#clip460)" d="M174.821 475.24 L193.177 475.24 L193.177 479.175 L179.103 479.175 L179.103 487.647 Q180.122 487.3 181.14 487.138 Q182.159 486.953 183.177 486.953 Q188.964 486.953 192.344 490.124 Q195.724 493.295 195.724 498.712 Q195.724 504.291 192.251 507.393 Q188.779 510.471 182.46 510.471 Q180.284 510.471 178.015 510.101 Q175.77 509.73 173.363 508.99 L173.363 504.291 Q175.446 505.425 177.668 505.98 Q179.89 506.536 182.367 506.536 Q186.372 506.536 188.71 504.43 Q191.048 502.323 191.048 498.712 Q191.048 495.101 188.71 492.994 Q186.372 490.888 182.367 490.888 Q180.492 490.888 178.617 491.305 Q176.765 491.721 174.821 492.601 L174.821 475.24 Z" fill="#000000" fill-rule="nonzero" fill-opacity="1" /><path clip-path="url(#clip460)" d="M147.645 61.5206 L163.964 61.5206 L163.964 65.4558 L142.02 65.4558 L142.02 61.5206 Q144.682 58.766 149.265 54.1364 Q153.872 49.4837 155.052 48.1411 Q157.298 45.6179 158.177 43.8818 Q159.08 42.1226 159.08 40.4328 Q159.08 37.6782 157.136 35.9421 Q155.215 34.206 152.113 34.206 Q149.914 34.206 147.46 34.9699 Q145.029 35.7337 142.252 37.2847 L142.252 32.5625 Q145.076 31.4282 147.529 30.8495 Q149.983 30.2708 152.02 30.2708 Q157.39 30.2708 160.585 32.956 Q163.779 35.6411 163.779 40.1319 Q163.779 42.2615 162.969 44.1828 Q162.182 46.0809 160.076 48.6735 Q159.497 49.3448 156.395 52.5624 Q153.293 55.7568 147.645 61.5206 Z" fill="#000000" fill-rule="nonzero" fill-opacity="1" /><path clip-path="url(#clip460)" d="M183.779 33.9745 Q180.168 33.9745 178.339 37.5393 Q176.534 41.0809 176.534 48.2105 Q176.534 55.317 178.339 58.8818 Q180.168 62.4234 183.779 62.4234 Q187.413 62.4234 189.219 58.8818 Q191.048 55.317 191.048 48.2105 Q191.048 41.0809 189.219 37.5393 Q187.413 33.9745 183.779 33.9745 M183.779 30.2708 Q189.589 30.2708 192.645 34.8773 Q195.724 39.4606 195.724 48.2105 Q195.724 56.9373 192.645 61.5438 Q189.589 66.1271 183.779 66.1271 Q177.969 66.1271 174.89 61.5438 Q171.835 56.9373 171.835 48.2105 Q171.835 39.4606 174.89 34.8773 Q177.969 30.2708 183.779 30.2708 Z" fill="#000000" fill-rule="nonzero" fill-opacity="1" /><path clip-path="url(#clip460)" d="M61.5277 819.949 L79.3835 819.949 L79.3835 811.864 Q79.3835 807.377 77.06 804.926 Q74.7365 802.475 70.4397 802.475 Q66.1747 802.475 63.8512 804.926 Q61.5277 807.377 61.5277 811.864 L61.5277 819.949 M56.2442 826.378 L56.2442 811.864 Q56.2442 803.876 59.8726 799.801 Q63.4692 795.696 70.4397 795.696 Q77.4738 795.696 81.0704 799.801 Q84.667 803.876 84.667 811.864 L84.667 819.949 L103.764 819.949 L103.764 826.378 L56.2442 826.378 Z" fill="#000000" fill-rule="nonzero" fill-opacity="1" /><path clip-path="url(#clip460)" d="M85.8447 771.124 Q85.8447 778.222 87.4679 780.959 Q89.0912 783.696 93.0061 783.696 Q96.1253 783.696 97.9714 781.659 Q99.7856 779.59 99.7856 776.057 Q99.7856 771.188 96.3481 768.259 Q92.8788 765.299 87.1497 765.299 L85.8447 765.299 L85.8447 771.124 M83.4257 759.443 L103.764 759.443 L103.764 765.299 L98.3533 765.299 Q101.6 767.305 103.159 770.296 Q104.687 773.288 104.687 777.617 Q104.687 783.091 101.632 786.338 Q98.5443 789.553 93.3881 789.553 Q87.3725 789.553 84.3169 785.542 Q81.2614 781.5 81.2614 773.511 L81.2614 765.299 L80.6885 765.299 Q76.6462 765.299 74.4501 767.973 Q72.2221 770.615 72.2221 775.421 Q72.2221 778.476 72.9541 781.373 Q73.6862 784.269 75.1503 786.943 L69.7395 786.943 Q68.4981 783.728 67.8934 780.704 Q67.2568 777.681 67.2568 774.816 Q67.2568 767.082 71.2672 763.262 Q75.2776 759.443 83.4257 759.443 Z" fill="#000000" fill-rule="nonzero" fill-opacity="1" /><path clip-path="url(#clip460)" d="M69.4848 721.726 L74.9593 721.726 Q73.5907 724.209 72.9223 726.723 Q72.2221 729.206 72.2221 731.752 Q72.2221 737.449 75.8505 740.6 Q79.4472 743.751 85.972 743.751 Q92.4969 743.751 96.1253 740.6 Q99.7219 737.449 99.7219 731.752 Q99.7219 729.206 99.0535 726.723 Q98.3533 724.209 96.9847 721.726 L102.396 721.726 Q103.541 724.177 104.114 726.819 Q104.687 729.429 104.687 732.389 Q104.687 740.441 99.6264 745.184 Q94.5657 749.926 85.972 749.926 Q77.251 749.926 72.2539 745.152 Q67.2568 740.346 67.2568 732.007 Q67.2568 729.301 67.8297 726.723 Q68.3708 724.145 69.4848 721.726 Z" fill="#000000" fill-rule="nonzero" fill-opacity="1" /><path clip-path="url(#clip460)" d="M103.764 690.948 L88.7729 690.948 L88.7729 701.865 Q88.7729 706.735 85.7492 709.981 Q83.012 712.91 77.1555 712.91 L68.1162 712.91 L68.1162 707.053 L76.6144 707.053 Q80.3384 707.053 82.2162 705.398 Q84.0941 703.711 84.0941 700.401 L84.0941 690.948 L68.1162 690.948 L68.1162 685.091 L103.764 685.091 L103.764 690.948 Z" fill="#000000" fill-rule="nonzero" fill-opacity="1" /><path clip-path="url(#clip460)" d="M84.4761 642.537 L87.3406 642.537 L87.3406 669.464 Q93.3881 669.082 96.5709 665.835 Q99.7219 662.557 99.7219 656.732 Q99.7219 653.358 98.8944 650.207 Q98.0669 647.025 96.4118 643.905 L101.95 643.905 Q103.287 647.056 103.987 650.367 Q104.687 653.677 104.687 657.082 Q104.687 665.612 99.7219 670.609 Q94.7567 675.575 86.2903 675.575 Q77.5374 675.575 72.4131 670.864 Q67.2568 666.122 67.2568 658.101 Q67.2568 650.908 71.9038 646.738 Q76.5189 642.537 84.4761 642.537 M82.7573 648.393 Q77.9512 648.457 75.0866 651.099 Q72.2221 653.708 72.2221 658.037 Q72.2221 662.939 74.9912 665.899 Q77.7602 668.827 82.7892 669.273 L82.7573 648.393 M54.3663 655.109 L54.3663 648.648 L60.7956 648.648 L60.7956 655.109 L54.3663 655.109 M54.3663 667.554 L54.3663 661.093 L60.7956 661.093 L60.7956 667.554 L54.3663 667.554 Z" fill="#000000" fill-rule="nonzero" fill-opacity="1" /><path clip-path="url(#clip460)" d="M68.1162 637.158 L68.1162 603.006 L72.795 603.006 L72.795 617.201 L103.764 617.201 L103.764 622.962 L72.795 622.962 L72.795 637.158 L68.1162 637.158 Z" fill="#000000" fill-rule="nonzero" fill-opacity="1" /><circle clip-path="url(#clip462)" cx="371.899" cy="1213.29" r="14.4" fill="#009af9" fill-rule="evenodd" fill-opacity="1" stroke="#000000" stroke-opacity="1" stroke-width="3.2"/>
<circle clip-path="url(#clip462)" cx="1336.99" cy="242.051" r="14.4" fill="#009af9" fill-rule="evenodd" fill-opacity="1" stroke="#000000" stroke-opacity="1" stroke-width="3.2"/>
<circle clip-path="url(#clip462)" cx="379.024" cy="1217.36" r="14.4" fill="#009af9" fill-rule="evenodd" fill-opacity="1" stroke="#000000" stroke-opacity="1" stroke-width="3.2"/>
<circle clip-path="url(#clip462)" cx="1111.01" cy="480.155" r="14.4" fill="#009af9" fill-rule="evenodd" fill-opacity="1" stroke="#000000" stroke-opacity="1" stroke-width="3.2"/>
<circle clip-path="url(#clip462)" cx="590.48" cy="974.901" r="14.4" fill="#009af9" fill-rule="evenodd" fill-opacity="1" stroke="#000000" stroke-opacity="1" stroke-width="3.2"/>
<circle clip-path="url(#clip462)" cx="908.837" cy="675.56" r="14.4" fill="#009af9" fill-rule="evenodd" fill-opacity="1" stroke="#000000" stroke-opacity="1" stroke-width="3.2"/>
<circle clip-path="url(#clip462)" cx="1115.8" cy="469.219" r="14.4" fill="#009af9" fill-rule="evenodd" fill-opacity="1" stroke="#000000" stroke-opacity="1" stroke-width="3.2"/>
<circle clip-path="url(#clip462)" cx="1355.06" cy="276.038" r="14.4" fill="#009af9" fill-rule="evenodd" fill-opacity="1" stroke="#000000" stroke-opacity="1" stroke-width="3.2"/>
<circle clip-path="url(#clip462)" cx="395.334" cy="1223.67" r="14.4" fill="#009af9" fill-rule="evenodd" fill-opacity="1" stroke="#000000" stroke-opacity="1" stroke-width="3.2"/>
<circle clip-path="url(#clip462)" cx="1365.1" cy="267.753" r="14.4" fill="#009af9" fill-rule="evenodd" fill-opacity="1" stroke="#000000" stroke-opacity="1" stroke-width="3.2"/>
<circle clip-path="url(#clip462)" cx="1251.14" cy="347.99" r="14.4" fill="#009af9" fill-rule="evenodd" fill-opacity="1" stroke="#000000" stroke-opacity="1" stroke-width="3.2"/>
<circle clip-path="url(#clip462)" cx="513.306" cy="1103.04" r="14.4" fill="#009af9" fill-rule="evenodd" fill-opacity="1" stroke="#000000" stroke-opacity="1" stroke-width="3.2"/>
<circle clip-path="url(#clip462)" cx="1193.13" cy="397.135" r="14.4" fill="#009af9" fill-rule="evenodd" fill-opacity="1" stroke="#000000" stroke-opacity="1" stroke-width="3.2"/>
<circle clip-path="url(#clip462)" cx="1348.26" cy="282.473" r="14.4" fill="#009af9" fill-rule="evenodd" fill-opacity="1" stroke="#000000" stroke-opacity="1" stroke-width="3.2"/>
<circle clip-path="url(#clip462)" cx="518.375" cy="1122.91" r="14.4" fill="#009af9" fill-rule="evenodd" fill-opacity="1" stroke="#000000" stroke-opacity="1" stroke-width="3.2"/>
<circle clip-path="url(#clip462)" cx="450.675" cy="1163.7" r="14.4" fill="#009af9" fill-rule="evenodd" fill-opacity="1" stroke="#000000" stroke-opacity="1" stroke-width="3.2"/>
<circle clip-path="url(#clip462)" cx="905.519" cy="720.665" r="14.4" fill="#009af9" fill-rule="evenodd" fill-opacity="1" stroke="#000000" stroke-opacity="1" stroke-width="3.2"/>
<circle clip-path="url(#clip462)" cx="892.917" cy="737.877" r="14.4" fill="#009af9" fill-rule="evenodd" fill-opacity="1" stroke="#000000" stroke-opacity="1" stroke-width="3.2"/>
<circle clip-path="url(#clip462)" cx="313.153" cy="1277.54" r="14.4" fill="#009af9" fill-rule="evenodd" fill-opacity="1" stroke="#000000" stroke-opacity="1" stroke-width="3.2"/>
<circle clip-path="url(#clip462)" cx="1131.05" cy="469.88" r="14.4" fill="#009af9" fill-rule="evenodd" fill-opacity="1" stroke="#000000" stroke-opacity="1" stroke-width="3.2"/>
<circle clip-path="url(#clip462)" cx="566.159" cy="1005.3" r="14.4" fill="#009af9" fill-rule="evenodd" fill-opacity="1" stroke="#000000" stroke-opacity="1" stroke-width="3.2"/>
<circle clip-path="url(#clip462)" cx="1255.39" cy="316.623" r="14.4" fill="#009af9" fill-rule="evenodd" fill-opacity="1" stroke="#000000" stroke-opacity="1" stroke-width="3.2"/>
<circle clip-path="url(#clip462)" cx="328.796" cy="1266.87" r="14.4" fill="#009af9" fill-rule="evenodd" fill-opacity="1" stroke="#000000" stroke-opacity="1" stroke-width="3.2"/>
<circle clip-path="url(#clip462)" cx="855.382" cy="724.207" r="14.4" fill="#009af9" fill-rule="evenodd" fill-opacity="1" stroke="#000000" stroke-opacity="1" stroke-width="3.2"/>
<circle clip-path="url(#clip462)" cx="587.022" cy="1027.93" r="14.4" fill="#009af9" fill-rule="evenodd" fill-opacity="1" stroke="#000000" stroke-opacity="1" stroke-width="3.2"/>
<circle clip-path="url(#clip462)" cx="884.954" cy="708.803" r="14.4" fill="#009af9" fill-rule="evenodd" fill-opacity="1" stroke="#000000" stroke-opacity="1" stroke-width="3.2"/>
<circle clip-path="url(#clip462)" cx="333.668" cy="1252.71" r="14.4" fill="#009af9" fill-rule="evenodd" fill-opacity="1" stroke="#000000" stroke-opacity="1" stroke-width="3.2"/>
<circle clip-path="url(#clip462)" cx="1295.82" cy="337.656" r="14.4" fill="#009af9" fill-rule="evenodd" fill-opacity="1" stroke="#000000" stroke-opacity="1" stroke-width="3.2"/>
<circle clip-path="url(#clip462)" cx="1261.12" cy="329.682" r="14.4" fill="#009af9" fill-rule="evenodd" fill-opacity="1" stroke="#000000" stroke-opacity="1" stroke-width="3.2"/>
<circle clip-path="url(#clip462)" cx="412.034" cy="1167.69" r="14.4" fill="#009af9" fill-rule="evenodd" fill-opacity="1" stroke="#000000" stroke-opacity="1" stroke-width="3.2"/>
<circle clip-path="url(#clip462)" cx="355.975" cy="1245.46" r="14.4" fill="#009af9" fill-rule="evenodd" fill-opacity="1" stroke="#000000" stroke-opacity="1" stroke-width="3.2"/>
<circle clip-path="url(#clip462)" cx="1365.12" cy="255.265" r="14.4" fill="#009af9" fill-rule="evenodd" fill-opacity="1" stroke="#000000" stroke-opacity="1" stroke-width="3.2"/>
<circle clip-path="url(#clip462)" cx="355.055" cy="1271.39" r="14.4" fill="#009af9" fill-rule="evenodd" fill-opacity="1" stroke="#000000" stroke-opacity="1" stroke-width="3.2"/>
<circle clip-path="url(#clip462)" cx="568.413" cy="1018.62" r="14.4" fill="#009af9" fill-rule="evenodd" fill-opacity="1" stroke="#000000" stroke-opacity="1" stroke-width="3.2"/>
<circle clip-path="url(#clip462)" cx="1306.63" cy="281.036" r="14.4" fill="#009af9" fill-rule="evenodd" fill-opacity="1" stroke="#000000" stroke-opacity="1" stroke-width="3.2"/>
<circle clip-path="url(#clip462)" cx="1318.35" cy="275.483" r="14.4" fill="#009af9" fill-rule="evenodd" fill-opacity="1" stroke="#000000" stroke-opacity="1" stroke-width="3.2"/>
<circle clip-path="url(#clip462)" cx="1285.36" cy="284.734" r="14.4" fill="#009af9" fill-rule="evenodd" fill-opacity="1" stroke="#000000" stroke-opacity="1" stroke-width="3.2"/>
<circle clip-path="url(#clip462)" cx="1228.59" cy="353.622" r="14.4" fill="#009af9" fill-rule="evenodd" fill-opacity="1" stroke="#000000" stroke-opacity="1" stroke-width="3.2"/>
<circle clip-path="url(#clip462)" cx="1310.66" cy="260.468" r="14.4" fill="#009af9" fill-rule="evenodd" fill-opacity="1" stroke="#000000" stroke-opacity="1" stroke-width="3.2"/>
<circle clip-path="url(#clip462)" cx="1166.91" cy="452.325" r="14.4" fill="#009af9" fill-rule="evenodd" fill-opacity="1" stroke="#000000" stroke-opacity="1" stroke-width="3.2"/>
<circle clip-path="url(#clip462)" cx="1180.93" cy="444.158" r="14.4" fill="#009af9" fill-rule="evenodd" fill-opacity="1" stroke="#000000" stroke-opacity="1" stroke-width="3.2"/>
<circle clip-path="url(#clip462)" cx="963.16" cy="655.513" r="14.4" fill="#009af9" fill-rule="evenodd" fill-opacity="1" stroke="#000000" stroke-opacity="1" stroke-width="3.2"/>
<circle clip-path="url(#clip462)" cx="964.193" cy="640.704" r="14.4" fill="#009af9" fill-rule="evenodd" fill-opacity="1" stroke="#000000" stroke-opacity="1" stroke-width="3.2"/>
<circle clip-path="url(#clip462)" cx="305.315" cy="1285.77" r="14.4" fill="#009af9" fill-rule="evenodd" fill-opacity="1" stroke="#000000" stroke-opacity="1" stroke-width="3.2"/>
<circle clip-path="url(#clip462)" cx="888.186" cy="784.935" r="14.4" fill="#009af9" fill-rule="evenodd" fill-opacity="1" stroke="#000000" stroke-opacity="1" stroke-width="3.2"/>
<circle clip-path="url(#clip462)" cx="1337.47" cy="270.71" r="14.4" fill="#009af9" fill-rule="evenodd" fill-opacity="1" stroke="#000000" stroke-opacity="1" stroke-width="3.2"/>
<circle clip-path="url(#clip462)" cx="1338.56" cy="274.774" r="14.4" fill="#009af9" fill-rule="evenodd" fill-opacity="1" stroke="#000000" stroke-opacity="1" stroke-width="3.2"/>
<circle clip-path="url(#clip462)" cx="926.872" cy="653.979" r="14.4" fill="#009af9" fill-rule="evenodd" fill-opacity="1" stroke="#000000" stroke-opacity="1" stroke-width="3.2"/>
<circle clip-path="url(#clip462)" cx="345.041" cy="1230.53" r="14.4" fill="#009af9" fill-rule="evenodd" fill-opacity="1" stroke="#000000" stroke-opacity="1" stroke-width="3.2"/>
<circle clip-path="url(#clip462)" cx="534.061" cy="1100.48" r="14.4" fill="#009af9" fill-rule="evenodd" fill-opacity="1" stroke="#000000" stroke-opacity="1" stroke-width="3.2"/>
<circle clip-path="url(#clip462)" cx="969.556" cy="578.684" r="10.8" fill="#e26f46" fill-rule="evenodd" fill-opacity="0.7" stroke="#000000" stroke-opacity="0.7" stroke-width="3.2"/>
<circle clip-path="url(#clip462)" cx="1011.29" cy="581.848" r="10.8" fill="#e26f46" fill-rule="evenodd" fill-opacity="0.7" stroke="#000000" stroke-opacity="0.7" stroke-width="3.2"/>
<circle clip-path="url(#clip462)" cx="1012.25" cy="629.191" r="10.8" fill="#e26f46" fill-rule="evenodd" fill-opacity="0.7" stroke="#000000" stroke-opacity="0.7" stroke-width="3.2"/>
<circle clip-path="url(#clip462)" cx="912.335" cy="696.344" r="10.8" fill="#e26f46" fill-rule="evenodd" fill-opacity="0.7" stroke="#000000" stroke-opacity="0.7" stroke-width="3.2"/>
<circle clip-path="url(#clip462)" cx="888.806" cy="720.816" r="10.8" fill="#e26f46" fill-rule="evenodd" fill-opacity="0.7" stroke="#000000" stroke-opacity="0.7" stroke-width="3.2"/>
<circle clip-path="url(#clip462)" cx="858.102" cy="739.751" r="10.8" fill="#e26f46" fill-rule="evenodd" fill-opacity="0.7" stroke="#000000" stroke-opacity="0.7" stroke-width="3.2"/>
<circle clip-path="url(#clip462)" cx="952.116" cy="665.157" r="10.8" fill="#e26f46" fill-rule="evenodd" fill-opacity="0.7" stroke="#000000" stroke-opacity="0.7" stroke-width="3.2"/>
<circle clip-path="url(#clip462)" cx="962.402" cy="636.968" r="10.8" fill="#e26f46" fill-rule="evenodd" fill-opacity="0.7" stroke="#000000" stroke-opacity="0.7" stroke-width="3.2"/>
<circle clip-path="url(#clip462)" cx="1017.61" cy="585.103" r="10.8" fill="#e26f46" fill-rule="evenodd" fill-opacity="0.7" stroke="#000000" stroke-opacity="0.7" stroke-width="3.2"/>
<circle clip-path="url(#clip462)" cx="875.039" cy="693.009" r="10.8" fill="#e26f46" fill-rule="evenodd" fill-opacity="0.7" stroke="#000000" stroke-opacity="0.7" stroke-width="3.2"/>
<circle clip-path="url(#clip462)" cx="915.254" cy="687.382" r="10.8" fill="#e26f46" fill-rule="evenodd" fill-opacity="0.7" stroke="#000000" stroke-opacity="0.7" stroke-width="3.2"/>
<circle clip-path="url(#clip462)" cx="911.358" cy="713.968" r="10.8" fill="#e26f46" fill-rule="evenodd" fill-opacity="0.7" stroke="#000000" stroke-opacity="0.7" stroke-width="3.2"/>
<circle clip-path="url(#clip462)" cx="1153.64" cy="413.649" r="10.8" fill="#e26f46" fill-rule="evenodd" fill-opacity="0.7" stroke="#000000" stroke-opacity="0.7" stroke-width="3.2"/>
<circle clip-path="url(#clip462)" cx="1302.63" cy="298.287" r="10.8" fill="#e26f46" fill-rule="evenodd" fill-opacity="0.7" stroke="#000000" stroke-opacity="0.7" stroke-width="3.2"/>
<circle clip-path="url(#clip462)" cx="1184.08" cy="399.074" r="10.8" fill="#e26f46" fill-rule="evenodd" fill-opacity="0.7" stroke="#000000" stroke-opacity="0.7" stroke-width="3.2"/>
<circle clip-path="url(#clip462)" cx="1265.18" cy="356.483" r="10.8" fill="#e26f46" fill-rule="evenodd" fill-opacity="0.7" stroke="#000000" stroke-opacity="0.7" stroke-width="3.2"/>
<circle clip-path="url(#clip462)" cx="1273.09" cy="335.024" r="10.8" fill="#e26f46" fill-rule="evenodd" fill-opacity="0.7" stroke="#000000" stroke-opacity="0.7" stroke-width="3.2"/>
<circle clip-path="url(#clip462)" cx="1210.95" cy="389.983" r="10.8" fill="#e26f46" fill-rule="evenodd" fill-opacity="0.7" stroke="#000000" stroke-opacity="0.7" stroke-width="3.2"/>
<circle clip-path="url(#clip462)" cx="1350.12" cy="266.055" r="10.8" fill="#e26f46" fill-rule="evenodd" fill-opacity="0.7" stroke="#000000" stroke-opacity="0.7" stroke-width="3.2"/>
<circle clip-path="url(#clip462)" cx="1266.63" cy="353.166" r="10.8" fill="#e26f46" fill-rule="evenodd" fill-opacity="0.7" stroke="#000000" stroke-opacity="0.7" stroke-width="3.2"/>
<circle clip-path="url(#clip462)" cx="1278.68" cy="292.687" r="10.8" fill="#e26f46" fill-rule="evenodd" fill-opacity="0.7" stroke="#000000" stroke-opacity="0.7" stroke-width="3.2"/>
<circle clip-path="url(#clip462)" cx="1353.23" cy="283.009" r="10.8" fill="#e26f46" fill-rule="evenodd" fill-opacity="0.7" stroke="#000000" stroke-opacity="0.7" stroke-width="3.2"/>
<circle clip-path="url(#clip462)" cx="1314.06" cy="265.574" r="10.8" fill="#e26f46" fill-rule="evenodd" fill-opacity="0.7" stroke="#000000" stroke-opacity="0.7" stroke-width="3.2"/>
<circle clip-path="url(#clip462)" cx="1221.9" cy="361.743" r="10.8" fill="#e26f46" fill-rule="evenodd" fill-opacity="0.7" stroke="#000000" stroke-opacity="0.7" stroke-width="3.2"/>
<circle clip-path="url(#clip462)" cx="1236.48" cy="382.157" r="10.8" fill="#e26f46" fill-rule="evenodd" fill-opacity="0.7" stroke="#000000" stroke-opacity="0.7" stroke-width="3.2"/>
<circle clip-path="url(#clip462)" cx="1234.62" cy="366.303" r="10.8" fill="#e26f46" fill-rule="evenodd" fill-opacity="0.7" stroke="#000000" stroke-opacity="0.7" stroke-width="3.2"/>
<circle clip-path="url(#clip462)" cx="1244.69" cy="357.664" r="10.8" fill="#e26f46" fill-rule="evenodd" fill-opacity="0.7" stroke="#000000" stroke-opacity="0.7" stroke-width="3.2"/>
<circle clip-path="url(#clip462)" cx="1142.28" cy="438.992" r="10.8" fill="#e26f46" fill-rule="evenodd" fill-opacity="0.7" stroke="#000000" stroke-opacity="0.7" stroke-width="3.2"/>
<circle clip-path="url(#clip462)" cx="1226.19" cy="385.853" r="10.8" fill="#e26f46" fill-rule="evenodd" fill-opacity="0.7" stroke="#000000" stroke-opacity="0.7" stroke-width="3.2"/>
<circle clip-path="url(#clip462)" cx="1143" cy="490.351" r="10.8" fill="#e26f46" fill-rule="evenodd" fill-opacity="0.7" stroke="#000000" stroke-opacity="0.7" stroke-width="3.2"/>
<circle clip-path="url(#clip462)" cx="1097.29" cy="517.384" r="10.8" fill="#e26f46" fill-rule="evenodd" fill-opacity="0.7" stroke="#000000" stroke-opacity="0.7" stroke-width="3.2"/>
<circle clip-path="url(#clip462)" cx="1052.2" cy="513.406" r="10.8" fill="#e26f46" fill-rule="evenodd" fill-opacity="0.7" stroke="#000000" stroke-opacity="0.7" stroke-width="3.2"/>
<circle clip-path="url(#clip462)" cx="1164.17" cy="409.013" r="10.8" fill="#e26f46" fill-rule="evenodd" fill-opacity="0.7" stroke="#000000" stroke-opacity="0.7" stroke-width="3.2"/>
<circle clip-path="url(#clip462)" cx="1086.74" cy="493.355" r="10.8" fill="#e26f46" fill-rule="evenodd" fill-opacity="0.7" stroke="#000000" stroke-opacity="0.7" stroke-width="3.2"/>
<circle clip-path="url(#clip462)" cx="1073.51" cy="504.488" r="10.8" fill="#e26f46" fill-rule="evenodd" fill-opacity="0.7" stroke="#000000" stroke-opacity="0.7" stroke-width="3.2"/>
<circle clip-path="url(#clip462)" cx="660.111" cy="950.454" r="10.8" fill="#e26f46" fill-rule="evenodd" fill-opacity="0.7" stroke="#000000" stroke-opacity="0.7" stroke-width="3.2"/>
<circle clip-path="url(#clip462)" cx="520.681" cy="1091.1" r="10.8" fill="#e26f46" fill-rule="evenodd" fill-opacity="0.7" stroke="#000000" stroke-opacity="0.7" stroke-width="3.2"/>
<circle clip-path="url(#clip462)" cx="686.34" cy="961.859" r="10.8" fill="#e26f46" fill-rule="evenodd" fill-opacity="0.7" stroke="#000000" stroke-opacity="0.7" stroke-width="3.2"/>
<circle clip-path="url(#clip462)" cx="592.535" cy="972.903" r="10.8" fill="#e26f46" fill-rule="evenodd" fill-opacity="0.7" stroke="#000000" stroke-opacity="0.7" stroke-width="3.2"/>
<circle clip-path="url(#clip462)" cx="614.626" cy="1018.32" r="10.8" fill="#e26f46" fill-rule="evenodd" fill-opacity="0.7" stroke="#000000" stroke-opacity="0.7" stroke-width="3.2"/>
<circle clip-path="url(#clip462)" cx="682.427" cy="965.154" r="10.8" fill="#e26f46" fill-rule="evenodd" fill-opacity="0.7" stroke="#000000" stroke-opacity="0.7" stroke-width="3.2"/>
<circle clip-path="url(#clip462)" cx="621.153" cy="999.811" r="10.8" fill="#e26f46" fill-rule="evenodd" fill-opacity="0.7" stroke="#000000" stroke-opacity="0.7" stroke-width="3.2"/>
<circle clip-path="url(#clip462)" cx="617.984" cy="1013.2" r="10.8" fill="#e26f46" fill-rule="evenodd" fill-opacity="0.7" stroke="#000000" stroke-opacity="0.7" stroke-width="3.2"/>
<circle clip-path="url(#clip462)" cx="561.258" cy="1030.44" r="10.8" fill="#e26f46" fill-rule="evenodd" fill-opacity="0.7" stroke="#000000" stroke-opacity="0.7" stroke-width="3.2"/>
<circle clip-path="url(#clip462)" cx="488.276" cy="1128.8" r="10.8" fill="#e26f46" fill-rule="evenodd" fill-opacity="0.7" stroke="#000000" stroke-opacity="0.7" stroke-width="3.2"/>
<circle clip-path="url(#clip462)" cx="402.194" cy="1169.33" r="10.8" fill="#e26f46" fill-rule="evenodd" fill-opacity="0.7" stroke="#000000" stroke-opacity="0.7" stroke-width="3.2"/>
<circle clip-path="url(#clip462)" cx="360.057" cy="1233.08" r="10.8" fill="#e26f46" fill-rule="evenodd" fill-opacity="0.7" stroke="#000000" stroke-opacity="0.7" stroke-width="3.2"/>
<circle clip-path="url(#clip462)" cx="317.815" cy="1266.95" r="10.8" fill="#e26f46" fill-rule="evenodd" fill-opacity="0.7" stroke="#000000" stroke-opacity="0.7" stroke-width="3.2"/>
<circle clip-path="url(#clip462)" cx="300.006" cy="1276.98" r="10.8" fill="#e26f46" fill-rule="evenodd" fill-opacity="0.7" stroke="#000000" stroke-opacity="0.7" stroke-width="3.2"/>
<circle clip-path="url(#clip462)" cx="483.132" cy="1137.6" r="10.8" fill="#e26f46" fill-rule="evenodd" fill-opacity="0.7" stroke="#000000" stroke-opacity="0.7" stroke-width="3.2"/>
<polyline clip-path="url(#clip462)" style="stroke:#808080; stroke-linecap:round; stroke-linejoin:round; stroke-width:4; stroke-opacity:1; fill:none" points="-224.621,1825.55 1552.76,48.1758 "/>
<path clip-path="url(#clip460)" d="M264.158 248.192 L527.368 248.192 L527.368 92.6723 L264.158 92.6723  Z" fill="#ffffff" fill-rule="evenodd" fill-opacity="1"/>
<polyline clip-path="url(#clip460)" style="stroke:#000000; stroke-linecap:round; stroke-linejoin:round; stroke-width:4; stroke-opacity:1; fill:none" points="264.158,248.192 527.368,248.192 527.368,92.6723 264.158,92.6723 264.158,248.192 "/>
<circle clip-path="url(#clip460)" cx="323.404" cy="144.512" r="20.48" fill="#009af9" fill-rule="evenodd" fill-opacity="1" stroke="#000000" stroke-opacity="1" stroke-width="4.55111"/>
<path clip-path="url(#clip460)" d="M398.668 130.404 Q393.576 130.404 390.566 134.2 Q387.58 137.996 387.58 144.547 Q387.58 151.075 390.566 154.871 Q393.576 158.667 398.668 158.667 Q403.761 158.667 406.724 154.871 Q409.71 151.075 409.71 144.547 Q409.71 137.996 406.724 134.2 Q403.761 130.404 398.668 130.404 M398.668 126.607 Q405.937 126.607 410.288 131.492 Q414.64 136.353 414.64 144.547 Q414.64 152.718 410.288 157.603 Q405.937 162.464 398.668 162.464 Q391.377 162.464 387.002 157.603 Q382.65 152.741 382.65 144.547 Q382.65 136.353 387.002 131.492 Q391.377 126.607 398.668 126.607 Z" fill="#000000" fill-rule="nonzero" fill-opacity="1" /><path clip-path="url(#clip460)" d="M432.048 135.242 Q437.603 135.242 440.774 138.853 Q443.946 142.464 443.946 148.853 Q443.946 155.218 440.774 158.853 Q437.603 162.464 432.048 162.464 Q426.469 162.464 423.39 158.945 Q420.312 155.427 420.15 148.853 L420.011 143.552 Q419.895 140.797 419.895 139.848 Q419.895 136.144 421.238 133.413 Q423.344 129.13 426.978 127.279 Q430.636 125.427 436.747 125.38 Q439.571 125.357 440.821 124.964 L442.001 128.343 Q440.867 128.806 439.825 128.83 L434.038 129.223 Q431.122 129.431 429.362 130.45 Q424.756 133.158 424.316 136.7 L424.154 137.996 Q427.163 135.242 432.048 135.242 M432.048 138.853 Q428.622 138.853 426.631 141.538 Q424.64 144.2 424.64 148.853 Q424.64 153.505 426.608 156.191 Q428.599 158.853 432.048 158.853 Q435.45 158.853 437.441 156.167 Q439.432 153.482 439.432 148.853 Q439.432 144.246 437.441 141.561 Q435.45 138.853 432.048 138.853 Z" fill="#000000" fill-rule="nonzero" fill-opacity="1" /><path clip-path="url(#clip460)" d="M461.793 164.2 Q459.987 168.829 458.274 170.241 Q456.561 171.653 453.691 171.653 L450.288 171.653 L450.288 168.089 L452.788 168.089 Q454.548 168.089 455.52 167.255 Q456.492 166.422 457.672 163.32 L458.436 161.376 L447.95 135.867 L452.464 135.867 L460.566 156.144 L468.668 135.867 L473.182 135.867 L461.793 164.2 Z" fill="#000000" fill-rule="nonzero" fill-opacity="1" /><path clip-path="url(#clip460)" d="M494.038 161.792 L494.038 150.89 L486.098 150.89 Q482.557 150.89 480.196 148.691 Q478.066 146.7 478.066 142.441 L478.066 135.867 L482.325 135.867 L482.325 142.047 Q482.325 144.755 483.529 146.121 Q484.756 147.487 487.163 147.487 L494.038 147.487 L494.038 135.867 L498.297 135.867 L498.297 161.792 L494.038 161.792 Z" fill="#000000" fill-rule="nonzero" fill-opacity="1" /><path clip-path="url(#clip460)" d="M507.672 155.913 L512.556 155.913 L512.556 161.792 L507.672 161.792 L507.672 155.913 Z" fill="#000000" fill-rule="nonzero" fill-opacity="1" /><circle clip-path="url(#clip460)" cx="323.404" cy="196.352" r="19.7486" fill="#e26f46" fill-rule="evenodd" fill-opacity="0.7" stroke="#000000" stroke-opacity="0.7" stroke-width="5.85143"/>
<path clip-path="url(#clip460)" d="M382.65 179.072 L411.886 179.072 L411.886 183.007 L399.617 183.007 L399.617 213.632 L394.918 213.632 L394.918 183.007 L382.65 183.007 L382.65 179.072 Z" fill="#000000" fill-rule="nonzero" fill-opacity="1" /><path clip-path="url(#clip460)" d="M438.39 199.605 L438.39 201.688 L418.807 201.688 Q419.085 206.086 421.446 208.401 Q423.83 210.693 428.066 210.693 Q430.52 210.693 432.812 210.091 Q435.126 209.489 437.395 208.285 L437.395 212.313 Q435.103 213.285 432.696 213.794 Q430.288 214.304 427.812 214.304 Q421.608 214.304 417.974 210.693 Q414.363 207.081 414.363 200.924 Q414.363 194.558 417.788 190.832 Q421.238 187.082 427.071 187.082 Q432.302 187.082 435.335 190.461 Q438.39 193.818 438.39 199.605 M434.131 198.355 Q434.085 194.859 432.163 192.776 Q430.265 190.693 427.117 190.693 Q423.552 190.693 421.4 192.707 Q419.27 194.72 418.946 198.378 L434.131 198.355 Z" fill="#000000" fill-rule="nonzero" fill-opacity="1" /><path clip-path="url(#clip460)" d="M464.038 188.702 L464.038 192.683 Q462.233 191.688 460.404 191.202 Q458.598 190.693 456.747 190.693 Q452.603 190.693 450.311 193.332 Q448.02 195.947 448.02 200.693 Q448.02 205.438 450.311 208.077 Q452.603 210.693 456.747 210.693 Q458.598 210.693 460.404 210.206 Q462.233 209.697 464.038 208.702 L464.038 212.637 Q462.256 213.47 460.335 213.887 Q458.436 214.304 456.284 214.304 Q450.427 214.304 446.978 210.623 Q443.529 206.943 443.529 200.693 Q443.529 194.35 447.001 190.716 Q450.497 187.082 456.561 187.082 Q458.529 187.082 460.404 187.498 Q462.279 187.892 464.038 188.702 Z" fill="#000000" fill-rule="nonzero" fill-opacity="1" /><path clip-path="url(#clip460)" d="M468.367 187.707 L493.205 187.707 L493.205 191.109 L482.881 191.109 L482.881 213.632 L478.691 213.632 L478.691 191.109 L468.367 191.109 L468.367 187.707 Z" fill="#000000" fill-rule="nonzero" fill-opacity="1" /></svg>
