<?xml version="1.0" encoding="utf-8"?>
<svg xmlns="http://www.w3.org/2000/svg" xmlns:xlink="http://www.w3.org/1999/xlink" width="600" height="300" viewBox="0 0 2400 1200">
<defs>
  <clipPath id="clip180">
    <rect x="0" y="0" width="2400" height="1200"/>
  </clipPath>
</defs>
<path clip-path="url(#clip180)" d="M0 1200 L2400 1200 L2400 0 L0 0  Z" fill="#ffffff" fill-rule="evenodd" fill-opacity="1"/>
<defs>
  <clipPath id="clip181">
    <rect x="480" y="0" width="1681" height="1200"/>
  </clipPath>
</defs>
<path clip-path="url(#clip180)" d="M190.347 1047.7 L2352.76 1047.7 L2352.76 47.2441 L190.347 47.2441  Z" fill="#ffffff" fill-rule="evenodd" fill-opacity="1"/>
<defs>
  <clipPath id="clip182">
    <rect x="190" y="47" width="2163" height="1001"/>
  </clipPath>
</defs>
<polyline clip-path="url(#clip182)" style="stroke:#000000; stroke-linecap:round; stroke-linejoin:round; stroke-width:2; stroke-opacity:0.1; fill:none" points="241.245,1047.7 241.245,47.2441 "/>
<polyline clip-path="url(#clip182)" style="stroke:#000000; stroke-linecap:round; stroke-linejoin:round; stroke-width:2; stroke-opacity:0.1; fill:none" points="756.398,1047.7 756.398,47.2441 "/>
<polyline clip-path="url(#clip182)" style="stroke:#000000; stroke-linecap:round; stroke-linejoin:round; stroke-width:2; stroke-opacity:0.1; fill:none" points="1271.55,1047.7 1271.55,47.2441 "/>
<polyline clip-path="url(#clip182)" style="stroke:#000000; stroke-linecap:round; stroke-linejoin:round; stroke-width:2; stroke-opacity:0.1; fill:none" points="1786.71,1047.7 1786.71,47.2441 "/>
<polyline clip-path="url(#clip182)" style="stroke:#000000; stroke-linecap:round; stroke-linejoin:round; stroke-width:2; stroke-opacity:0.1; fill:none" points="2301.86,1047.7 2301.86,47.2441 "/>
<polyline clip-path="url(#clip180)" style="stroke:#000000; stroke-linecap:round; stroke-linejoin:round; stroke-width:4; stroke-opacity:1; fill:none" points="190.347,1047.7 2352.76,1047.7 "/>
<polyline clip-path="url(#clip180)" style="stroke:#000000; stroke-linecap:round; stroke-linejoin:round; stroke-width:4; stroke-opacity:1; fill:none" points="241.245,1047.7 241.245,1028.8 "/>
<polyline clip-path="url(#clip180)" style="stroke:#000000; stroke-linecap:round; stroke-linejoin:round; stroke-width:4; stroke-opacity:1; fill:none" points="756.398,1047.7 756.398,1028.8 "/>
<polyline clip-path="url(#clip180)" style="stroke:#000000; stroke-linecap:round; stroke-linejoin:round; stroke-width:4; stroke-opacity:1; fill:none" points="1271.55,1047.7 1271.55,1028.8 "/>
<polyline clip-path="url(#clip180)" style="stroke:#000000; stroke-linecap:round; stroke-linejoin:round; stroke-width:4; stroke-opacity:1; fill:none" points="1786.71,1047.7 1786.71,1028.8 "/>
<polyline clip-path="url(#clip180)" style="stroke:#000000; stroke-linecap:round; stroke-linejoin:round; stroke-width:4; stroke-opacity:1; fill:none" points="2301.86,1047.7 2301.86,1028.8 "/>
<path clip-path="url(#clip180)" d="M241.245 1078.62 Q237.634 1078.62 235.805 1082.18 Q233.999 1085.72 233.999 1092.85 Q233.999 1099.96 235.805 1103.53 Q237.634 1107.07 241.245 1107.07 Q244.879 1107.07 246.684 1103.53 Q248.513 1099.96 248.513 1092.85 Q248.513 1085.72 246.684 1082.18 Q244.879 1078.62 241.245 1078.62 M241.245 1074.91 Q247.055 1074.91 250.11 1079.52 Q253.189 1084.1 253.189 1092.85 Q253.189 1101.58 250.11 1106.19 Q247.055 1110.77 241.245 1110.77 Q235.434 1110.77 232.356 1106.19 Q229.3 1101.58 229.3 1092.85 Q229.3 1084.1 232.356 1079.52 Q235.434 1074.91 241.245 1074.91 Z" fill="#000000" fill-rule="nonzero" fill-opacity="1" /><path clip-path="url(#clip180)" d="M731.097 1075.54 L749.454 1075.54 L749.454 1079.48 L735.38 1079.48 L735.38 1087.95 Q736.398 1087.6 737.417 1087.44 Q738.435 1087.25 739.454 1087.25 Q745.241 1087.25 748.62 1090.42 Q752 1093.6 752 1099.01 Q752 1104.59 748.528 1107.69 Q745.056 1110.77 738.736 1110.77 Q736.56 1110.77 734.292 1110.4 Q732.046 1110.03 729.639 1109.29 L729.639 1104.59 Q731.722 1105.72 733.945 1106.28 Q736.167 1106.84 738.644 1106.84 Q742.648 1106.84 744.986 1104.73 Q747.324 1102.62 747.324 1099.01 Q747.324 1095.4 744.986 1093.29 Q742.648 1091.19 738.644 1091.19 Q736.769 1091.19 734.894 1091.6 Q733.042 1092.02 731.097 1092.9 L731.097 1075.54 Z" fill="#000000" fill-rule="nonzero" fill-opacity="1" /><path clip-path="url(#clip180)" d="M771.213 1078.62 Q767.602 1078.62 765.773 1082.18 Q763.968 1085.72 763.968 1092.85 Q763.968 1099.96 765.773 1103.53 Q767.602 1107.07 771.213 1107.07 Q774.847 1107.07 776.653 1103.53 Q778.481 1099.96 778.481 1092.85 Q778.481 1085.72 776.653 1082.18 Q774.847 1078.62 771.213 1078.62 M771.213 1074.91 Q777.023 1074.91 780.079 1079.52 Q783.157 1084.1 783.157 1092.85 Q783.157 1101.58 780.079 1106.19 Q777.023 1110.77 771.213 1110.77 Q765.403 1110.77 762.324 1106.19 Q759.269 1101.58 759.269 1092.85 Q759.269 1084.1 762.324 1079.52 Q765.403 1074.91 771.213 1074.91 Z" fill="#000000" fill-rule="nonzero" fill-opacity="1" /><path clip-path="url(#clip180)" d="M1231.16 1106.16 L1238.8 1106.16 L1238.8 1079.8 L1230.49 1081.47 L1230.49 1077.21 L1238.75 1075.54 L1243.43 1075.54 L1243.43 1106.16 L1251.07 1106.16 L1251.07 1110.1 L1231.16 1110.1 L1231.16 1106.16 Z" fill="#000000" fill-rule="nonzero" fill-opacity="1" /><path clip-path="url(#clip180)" d="M1270.51 1078.62 Q1266.9 1078.62 1265.07 1082.18 Q1263.26 1085.72 1263.26 1092.85 Q1263.26 1099.96 1265.07 1103.53 Q1266.9 1107.07 1270.51 1107.07 Q1274.14 1107.07 1275.95 1103.53 Q1277.78 1099.96 1277.78 1092.85 Q1277.78 1085.72 1275.95 1082.18 Q1274.14 1078.62 1270.51 1078.62 M1270.51 1074.91 Q1276.32 1074.91 1279.38 1079.52 Q1282.45 1084.1 1282.45 1092.85 Q1282.45 1101.58 1279.38 1106.19 Q1276.32 1110.77 1270.51 1110.77 Q1264.7 1110.77 1261.62 1106.19 Q1258.57 1101.58 1258.57 1092.85 Q1258.57 1084.1 1261.62 1079.52 Q1264.7 1074.91 1270.51 1074.91 Z" fill="#000000" fill-rule="nonzero" fill-opacity="1" /><path clip-path="url(#clip180)" d="M1300.67 1078.62 Q1297.06 1078.62 1295.23 1082.18 Q1293.43 1085.72 1293.43 1092.85 Q1293.43 1099.96 1295.23 1103.53 Q1297.06 1107.07 1300.67 1107.07 Q1304.31 1107.07 1306.11 1103.53 Q1307.94 1099.96 1307.94 1092.85 Q1307.94 1085.72 1306.11 1082.18 Q1304.31 1078.62 1300.67 1078.62 M1300.67 1074.91 Q1306.48 1074.91 1309.54 1079.52 Q1312.62 1084.1 1312.62 1092.85 Q1312.62 1101.58 1309.54 1106.19 Q1306.48 1110.77 1300.67 1110.77 Q1294.86 1110.77 1291.78 1106.19 Q1288.73 1101.58 1288.73 1092.85 Q1288.73 1084.1 1291.78 1079.52 Q1294.86 1074.91 1300.67 1074.91 Z" fill="#000000" fill-rule="nonzero" fill-opacity="1" /><path clip-path="url(#clip180)" d="M1746.31 1106.16 L1753.95 1106.16 L1753.95 1079.8 L1745.64 1081.47 L1745.64 1077.21 L1753.9 1075.54 L1758.58 1075.54 L1758.58 1106.16 L1766.22 1106.16 L1766.22 1110.1 L1746.31 1110.1 L1746.31 1106.16 Z" fill="#000000" fill-rule="nonzero" fill-opacity="1" /><path clip-path="url(#clip180)" d="M1775.71 1075.54 L1794.07 1075.54 L1794.07 1079.48 L1779.99 1079.48 L1779.99 1087.95 Q1781.01 1087.6 1782.03 1087.44 Q1783.05 1087.25 1784.07 1087.25 Q1789.85 1087.25 1793.23 1090.42 Q1796.61 1093.6 1796.61 1099.01 Q1796.61 1104.59 1793.14 1107.69 Q1789.67 1110.77 1783.35 1110.77 Q1781.17 1110.77 1778.9 1110.4 Q1776.66 1110.03 1774.25 1109.29 L1774.25 1104.59 Q1776.33 1105.72 1778.56 1106.28 Q1780.78 1106.84 1783.26 1106.84 Q1787.26 1106.84 1789.6 1104.73 Q1791.94 1102.62 1791.94 1099.01 Q1791.94 1095.4 1789.6 1093.29 Q1787.26 1091.19 1783.26 1091.19 Q1781.38 1091.19 1779.51 1091.6 Q1777.65 1092.02 1775.71 1092.9 L1775.71 1075.54 Z" fill="#000000" fill-rule="nonzero" fill-opacity="1" /><path clip-path="url(#clip180)" d="M1815.83 1078.62 Q1812.21 1078.62 1810.39 1082.18 Q1808.58 1085.72 1808.58 1092.85 Q1808.58 1099.96 1810.39 1103.53 Q1812.21 1107.07 1815.83 1107.07 Q1819.46 1107.07 1821.27 1103.53 Q1823.09 1099.96 1823.09 1092.85 Q1823.09 1085.72 1821.27 1082.18 Q1819.46 1078.62 1815.83 1078.62 M1815.83 1074.91 Q1821.64 1074.91 1824.69 1079.52 Q1827.77 1084.1 1827.77 1092.85 Q1827.77 1101.58 1824.69 1106.19 Q1821.64 1110.77 1815.83 1110.77 Q1810.02 1110.77 1806.94 1106.19 Q1803.88 1101.58 1803.88 1092.85 Q1803.88 1084.1 1806.94 1079.52 Q1810.02 1074.91 1815.83 1074.91 Z" fill="#000000" fill-rule="nonzero" fill-opacity="1" /><path clip-path="url(#clip180)" d="M2265.55 1106.16 L2281.87 1106.16 L2281.87 1110.1 L2259.93 1110.1 L2259.93 1106.16 Q2262.59 1103.41 2267.17 1098.78 Q2271.78 1094.13 2272.96 1092.79 Q2275.2 1090.26 2276.08 1088.53 Q2276.99 1086.77 2276.99 1085.08 Q2276.99 1082.32 2275.04 1080.59 Q2273.12 1078.85 2270.02 1078.85 Q2267.82 1078.85 2265.37 1079.61 Q2262.94 1080.38 2260.16 1081.93 L2260.16 1077.21 Q2262.98 1076.07 2265.44 1075.49 Q2267.89 1074.91 2269.93 1074.91 Q2275.3 1074.91 2278.49 1077.6 Q2281.69 1080.29 2281.69 1084.78 Q2281.69 1086.91 2280.88 1088.83 Q2280.09 1090.72 2277.98 1093.32 Q2277.4 1093.99 2274.3 1097.21 Q2271.2 1100.4 2265.55 1106.16 Z" fill="#000000" fill-rule="nonzero" fill-opacity="1" /><path clip-path="url(#clip180)" d="M2301.69 1078.62 Q2298.07 1078.62 2296.25 1082.18 Q2294.44 1085.72 2294.44 1092.85 Q2294.44 1099.96 2296.25 1103.53 Q2298.07 1107.07 2301.69 1107.07 Q2305.32 1107.07 2307.12 1103.53 Q2308.95 1099.96 2308.95 1092.85 Q2308.95 1085.72 2307.12 1082.18 Q2305.32 1078.62 2301.69 1078.62 M2301.69 1074.91 Q2307.5 1074.91 2310.55 1079.52 Q2313.63 1084.1 2313.63 1092.85 Q2313.63 1101.58 2310.55 1106.19 Q2307.5 1110.77 2301.69 1110.77 Q2295.87 1110.77 2292.8 1106.19 Q2289.74 1101.58 2289.74 1092.85 Q2289.74 1084.1 2292.8 1079.52 Q2295.87 1074.91 2301.69 1074.91 Z" fill="#000000" fill-rule="nonzero" fill-opacity="1" /><path clip-path="url(#clip180)" d="M2331.85 1078.62 Q2328.24 1078.62 2326.41 1082.18 Q2324.6 1085.72 2324.6 1092.85 Q2324.6 1099.96 2326.41 1103.53 Q2328.24 1107.07 2331.85 1107.07 Q2335.48 1107.07 2337.29 1103.53 Q2339.12 1099.96 2339.12 1092.85 Q2339.12 1085.72 2337.29 1082.18 Q2335.48 1078.62 2331.85 1078.62 M2331.85 1074.91 Q2337.66 1074.91 2340.71 1079.52 Q2343.79 1084.1 2343.79 1092.85 Q2343.79 1101.58 2340.71 1106.19 Q2337.66 1110.77 2331.85 1110.77 Q2326.04 1110.77 2322.96 1106.19 Q2319.9 1101.58 2319.9 1092.85 Q2319.9 1084.1 2322.96 1079.52 Q2326.04 1074.91 2331.85 1074.91 Z" fill="#000000" fill-rule="nonzero" fill-opacity="1" /><path clip-path="url(#clip180)" d="M1091.94 1145.04 L1091.94 1192.56 L1085.51 1192.56 L1085.51 1150.45 L1062.15 1150.45 L1062.15 1192.56 L1055.72 1192.56 L1055.72 1145.04 L1091.94 1145.04 Z" fill="#000000" fill-rule="nonzero" fill-opacity="1" /><path clip-path="url(#clip180)" d="M1134.98 1173.28 L1134.98 1176.14 L1108.05 1176.14 Q1108.43 1182.19 1111.68 1185.37 Q1114.96 1188.52 1120.78 1188.52 Q1124.15 1188.52 1127.3 1187.69 Q1130.49 1186.87 1133.61 1185.21 L1133.61 1190.75 Q1130.46 1192.09 1127.15 1192.79 Q1123.84 1193.49 1120.43 1193.49 Q1111.9 1193.49 1106.9 1188.52 Q1101.94 1183.56 1101.94 1175.09 Q1101.94 1166.34 1106.65 1161.21 Q1111.39 1156.06 1119.41 1156.06 Q1126.6 1156.06 1130.77 1160.7 Q1134.98 1165.32 1134.98 1173.28 M1129.12 1171.56 Q1129.06 1166.75 1126.41 1163.89 Q1123.8 1161.02 1119.47 1161.02 Q1114.57 1161.02 1111.61 1163.79 Q1108.69 1166.56 1108.24 1171.59 L1129.12 1171.56 Z" fill="#000000" fill-rule="nonzero" fill-opacity="1" /><path clip-path="url(#clip180)" d="M1150.25 1187.22 L1150.25 1206.12 L1144.36 1206.12 L1144.36 1156.92 L1150.25 1156.92 L1150.25 1162.33 Q1152.1 1159.14 1154.9 1157.62 Q1157.73 1156.06 1161.65 1156.06 Q1168.14 1156.06 1172.18 1161.21 Q1176.26 1166.37 1176.26 1174.77 Q1176.26 1183.17 1172.18 1188.33 Q1168.14 1193.49 1161.65 1193.49 Q1157.73 1193.49 1154.9 1191.96 Q1152.1 1190.4 1150.25 1187.22 M1170.18 1174.77 Q1170.18 1168.31 1167.5 1164.65 Q1164.86 1160.96 1160.22 1160.96 Q1155.57 1160.96 1152.89 1164.65 Q1150.25 1168.31 1150.25 1174.77 Q1150.25 1181.23 1152.89 1184.92 Q1155.57 1188.59 1160.22 1188.59 Q1164.86 1188.59 1167.5 1184.92 Q1170.18 1181.23 1170.18 1174.77 Z" fill="#000000" fill-rule="nonzero" fill-opacity="1" /><path clip-path="url(#clip180)" d="M1216.27 1156.92 L1216.27 1192.56 L1210.44 1192.56 L1210.44 1163.95 L1193.25 1192.56 L1185.74 1192.56 L1185.74 1156.92 L1191.57 1156.92 L1191.57 1185.47 L1208.72 1156.92 L1216.27 1156.92 Z" fill="#000000" fill-rule="nonzero" fill-opacity="1" /><path clip-path="url(#clip180)" d="M1242.14 1161.02 Q1237.43 1161.02 1234.69 1164.71 Q1231.96 1168.37 1231.96 1174.77 Q1231.96 1181.17 1234.66 1184.86 Q1237.4 1188.52 1242.14 1188.52 Q1246.82 1188.52 1249.56 1184.83 Q1252.3 1181.14 1252.3 1174.77 Q1252.3 1168.44 1249.56 1164.75 Q1246.82 1161.02 1242.14 1161.02 M1242.14 1156.06 Q1249.78 1156.06 1254.14 1161.02 Q1258.5 1165.99 1258.5 1174.77 Q1258.5 1183.52 1254.14 1188.52 Q1249.78 1193.49 1242.14 1193.49 Q1234.47 1193.49 1230.11 1188.52 Q1225.78 1183.52 1225.78 1174.77 Q1225.78 1165.99 1230.11 1161.02 Q1234.47 1156.06 1242.14 1156.06 Z" fill="#000000" fill-rule="nonzero" fill-opacity="1" /><path clip-path="url(#clip180)" d="M1276.17 1187.89 L1293.16 1187.89 L1293.16 1161.59 L1280.85 1161.59 L1280.85 1166.05 Q1280.85 1179.16 1277.09 1186.17 L1276.17 1187.89 M1267.67 1187.89 Q1270.57 1186.61 1271.84 1183.91 Q1274.96 1177.19 1274.96 1163.66 L1274.96 1156.92 L1299.05 1156.92 L1299.05 1187.89 L1303.73 1187.89 L1303.73 1201.57 L1299.05 1201.57 L1299.05 1192.56 L1270.15 1192.56 L1270.15 1201.57 L1265.47 1201.57 L1265.47 1187.89 L1267.67 1187.89 Z" fill="#000000" fill-rule="nonzero" fill-opacity="1" /><path clip-path="url(#clip180)" d="M1314.77 1184.48 L1321.49 1184.48 L1321.49 1189.95 L1316.27 1200.14 L1312.16 1200.14 L1314.77 1189.95 L1314.77 1184.48 Z" fill="#000000" fill-rule="nonzero" fill-opacity="1" /><path clip-path="url(#clip180)" d="M1354.5 1156.92 L1363.06 1156.92 L1373.18 1180.79 L1383.33 1156.92 L1391.83 1156.92 L1391.83 1192.56 L1385.94 1192.56 L1385.94 1162.52 L1376.11 1185.72 L1370.25 1185.72 L1360.39 1162.52 L1360.39 1192.56 L1354.5 1192.56 L1354.5 1156.92 Z" fill="#000000" fill-rule="nonzero" fill-opacity="1" /><path clip-path="url(#clip180)" d="M1434.39 1173.28 L1434.39 1176.14 L1407.46 1176.14 Q1407.84 1182.19 1411.09 1185.37 Q1414.37 1188.52 1420.19 1188.52 Q1423.56 1188.52 1426.72 1187.69 Q1429.9 1186.87 1433.02 1185.21 L1433.02 1190.75 Q1429.87 1192.09 1426.56 1192.79 Q1423.25 1193.49 1419.84 1193.49 Q1411.31 1193.49 1406.31 1188.52 Q1401.35 1183.56 1401.35 1175.09 Q1401.35 1166.34 1406.06 1161.21 Q1410.8 1156.06 1418.82 1156.06 Q1426.02 1156.06 1430.19 1160.7 Q1434.39 1165.32 1434.39 1173.28 M1428.53 1171.56 Q1428.47 1166.75 1425.82 1163.89 Q1423.21 1161.02 1418.89 1161.02 Q1413.98 1161.02 1411.02 1163.79 Q1408.1 1166.56 1407.65 1171.59 L1428.53 1171.56 Z" fill="#000000" fill-rule="nonzero" fill-opacity="1" /><path clip-path="url(#clip180)" d="M1469.65 1158.28 L1469.65 1163.76 Q1467.17 1162.39 1464.66 1161.72 Q1462.17 1161.02 1459.63 1161.02 Q1453.93 1161.02 1450.78 1164.65 Q1447.63 1168.25 1447.63 1174.77 Q1447.63 1181.3 1450.78 1184.92 Q1453.93 1188.52 1459.63 1188.52 Q1462.17 1188.52 1464.66 1187.85 Q1467.17 1187.15 1469.65 1185.78 L1469.65 1191.2 Q1467.2 1192.34 1464.56 1192.91 Q1461.95 1193.49 1458.99 1193.49 Q1450.94 1193.49 1446.19 1188.43 Q1441.45 1183.37 1441.45 1174.77 Q1441.45 1166.05 1446.23 1161.05 Q1451.03 1156.06 1459.37 1156.06 Q1462.08 1156.06 1464.66 1156.63 Q1467.23 1157.17 1469.65 1158.28 Z" fill="#000000" fill-rule="nonzero" fill-opacity="1" /><path clip-path="url(#clip180)" d="M1480.67 1184.48 L1487.38 1184.48 L1487.38 1192.56 L1480.67 1192.56 L1480.67 1184.48 Z" fill="#000000" fill-rule="nonzero" fill-opacity="1" /><polyline clip-path="url(#clip182)" style="stroke:#000000; stroke-linecap:round; stroke-linejoin:round; stroke-width:2; stroke-opacity:0.1; fill:none" points="190.347,879.559 2352.76,879.559 "/>
<polyline clip-path="url(#clip182)" style="stroke:#000000; stroke-linecap:round; stroke-linejoin:round; stroke-width:2; stroke-opacity:0.1; fill:none" points="190.347,704.776 2352.76,704.776 "/>
<polyline clip-path="url(#clip182)" style="stroke:#000000; stroke-linecap:round; stroke-linejoin:round; stroke-width:2; stroke-opacity:0.1; fill:none" points="190.347,529.994 2352.76,529.994 "/>
<polyline clip-path="url(#clip182)" style="stroke:#000000; stroke-linecap:round; stroke-linejoin:round; stroke-width:2; stroke-opacity:0.1; fill:none" points="190.347,355.211 2352.76,355.211 "/>
<polyline clip-path="url(#clip182)" style="stroke:#000000; stroke-linecap:round; stroke-linejoin:round; stroke-width:2; stroke-opacity:0.1; fill:none" points="190.347,180.428 2352.76,180.428 "/>
<polyline clip-path="url(#clip180)" style="stroke:#000000; stroke-linecap:round; stroke-linejoin:round; stroke-width:4; stroke-opacity:1; fill:none" points="190.347,1047.7 190.347,47.2441 "/>
<polyline clip-path="url(#clip180)" style="stroke:#000000; stroke-linecap:round; stroke-linejoin:round; stroke-width:4; stroke-opacity:1; fill:none" points="190.347,879.559 209.245,879.559 "/>
<polyline clip-path="url(#clip180)" style="stroke:#000000; stroke-linecap:round; stroke-linejoin:round; stroke-width:4; stroke-opacity:1; fill:none" points="190.347,704.776 209.245,704.776 "/>
<polyline clip-path="url(#clip180)" style="stroke:#000000; stroke-linecap:round; stroke-linejoin:round; stroke-width:4; stroke-opacity:1; fill:none" points="190.347,529.994 209.245,529.994 "/>
<polyline clip-path="url(#clip180)" style="stroke:#000000; stroke-linecap:round; stroke-linejoin:round; stroke-width:4; stroke-opacity:1; fill:none" points="190.347,355.211 209.245,355.211 "/>
<polyline clip-path="url(#clip180)" style="stroke:#000000; stroke-linecap:round; stroke-linejoin:round; stroke-width:4; stroke-opacity:1; fill:none" points="190.347,180.428 209.245,180.428 "/>
<path clip-path="url(#clip180)" d="M138.028 892.904 L154.347 892.904 L154.347 896.839 L132.403 896.839 L132.403 892.904 Q135.065 890.149 139.648 885.52 Q144.255 880.867 145.435 879.524 Q147.681 877.001 148.56 875.265 Q149.463 873.506 149.463 871.816 Q149.463 869.061 147.519 867.325 Q145.598 865.589 142.496 865.589 Q140.297 865.589 137.843 866.353 Q135.412 867.117 132.635 868.668 L132.635 863.946 Q135.459 862.811 137.912 862.233 Q140.366 861.654 142.403 861.654 Q147.773 861.654 150.968 864.339 Q154.162 867.024 154.162 871.515 Q154.162 873.645 153.352 875.566 Q152.565 877.464 150.459 880.057 Q149.88 880.728 146.778 883.946 Q143.676 887.14 138.028 892.904 Z" fill="#000000" fill-rule="nonzero" fill-opacity="1" /><path clip-path="url(#clip180)" d="M144.764 691.57 L132.959 710.019 L144.764 710.019 L144.764 691.57 M143.537 687.496 L149.417 687.496 L149.417 710.019 L154.347 710.019 L154.347 713.908 L149.417 713.908 L149.417 722.056 L144.764 722.056 L144.764 713.908 L129.162 713.908 L129.162 709.394 L143.537 687.496 Z" fill="#000000" fill-rule="nonzero" fill-opacity="1" /><path clip-path="url(#clip180)" d="M142.82 528.13 Q139.672 528.13 137.82 530.283 Q135.991 532.436 135.991 536.186 Q135.991 539.913 137.82 542.089 Q139.672 544.241 142.82 544.241 Q145.968 544.241 147.797 542.089 Q149.648 539.913 149.648 536.186 Q149.648 532.436 147.797 530.283 Q145.968 528.13 142.82 528.13 M152.102 513.478 L152.102 517.737 Q150.343 516.903 148.537 516.464 Q146.755 516.024 144.996 516.024 Q140.366 516.024 137.912 519.149 Q135.482 522.274 135.135 528.593 Q136.5 526.579 138.561 525.515 Q140.621 524.427 143.098 524.427 Q148.306 524.427 151.315 527.598 Q154.347 530.746 154.347 536.186 Q154.347 541.51 151.199 544.727 Q148.051 547.945 142.82 547.945 Q136.824 547.945 133.653 543.362 Q130.482 538.755 130.482 530.028 Q130.482 521.834 134.371 516.973 Q138.26 512.089 144.81 512.089 Q146.57 512.089 148.352 512.436 Q150.158 512.783 152.102 513.478 Z" fill="#000000" fill-rule="nonzero" fill-opacity="1" /><path clip-path="url(#clip180)" d="M142.496 356.079 Q139.162 356.079 137.241 357.862 Q135.343 359.644 135.343 362.769 Q135.343 365.894 137.241 367.676 Q139.162 369.459 142.496 369.459 Q145.829 369.459 147.75 367.676 Q149.672 365.871 149.672 362.769 Q149.672 359.644 147.75 357.862 Q145.852 356.079 142.496 356.079 M137.82 354.088 Q134.811 353.348 133.121 351.287 Q131.454 349.227 131.454 346.264 Q131.454 342.121 134.394 339.713 Q137.357 337.306 142.496 337.306 Q147.658 337.306 150.597 339.713 Q153.537 342.121 153.537 346.264 Q153.537 349.227 151.847 351.287 Q150.181 353.348 147.195 354.088 Q150.574 354.875 152.449 357.167 Q154.347 359.459 154.347 362.769 Q154.347 367.792 151.269 370.477 Q148.213 373.162 142.496 373.162 Q136.778 373.162 133.699 370.477 Q130.644 367.792 130.644 362.769 Q130.644 359.459 132.542 357.167 Q134.44 354.875 137.82 354.088 M136.107 346.704 Q136.107 349.389 137.773 350.894 Q139.463 352.399 142.496 352.399 Q145.505 352.399 147.195 350.894 Q148.908 349.389 148.908 346.704 Q148.908 344.019 147.195 342.514 Q145.505 341.01 142.496 341.01 Q139.463 341.01 137.773 342.514 Q136.107 344.019 136.107 346.704 Z" fill="#000000" fill-rule="nonzero" fill-opacity="1" /><path clip-path="url(#clip180)" d="M103.051 193.773 L110.69 193.773 L110.69 167.408 L102.38 169.074 L102.38 164.815 L110.644 163.148 L115.32 163.148 L115.32 193.773 L122.959 193.773 L122.959 197.708 L103.051 197.708 L103.051 193.773 Z" fill="#000000" fill-rule="nonzero" fill-opacity="1" /><path clip-path="url(#clip180)" d="M142.403 166.227 Q138.792 166.227 136.963 169.792 Q135.158 173.334 135.158 180.463 Q135.158 187.57 136.963 191.134 Q138.792 194.676 142.403 194.676 Q146.037 194.676 147.843 191.134 Q149.672 187.57 149.672 180.463 Q149.672 173.334 147.843 169.792 Q146.037 166.227 142.403 166.227 M142.403 162.523 Q148.213 162.523 151.269 167.13 Q154.347 171.713 154.347 180.463 Q154.347 189.19 151.269 193.796 Q148.213 198.38 142.403 198.38 Q136.593 198.38 133.514 193.796 Q130.459 189.19 130.459 180.463 Q130.459 171.713 133.514 167.13 Q136.593 162.523 142.403 162.523 Z" fill="#000000" fill-rule="nonzero" fill-opacity="1" /><path clip-path="url(#clip180)" d="M46.7133 792.647 L46.7133 771.64 L10.015 771.64 L10.015 787.077 L16.7627 787.077 Q32.6451 787.077 43.1803 790.642 Q45.3447 791.374 46.7133 792.647 M46.7133 802.037 Q44.7081 797.772 40.8887 796.562 Q31.0855 793.475 13.5798 793.475 L4.60416 793.475 L4.60416 765.211 L46.7133 765.211 L46.7133 759.8 L62.3411 759.8 L62.3411 765.211 L52.1242 765.211 L52.1242 798.886 L62.3411 798.886 L62.3411 804.296 L46.7133 804.296 L46.7133 802.037 Z" fill="#000000" fill-rule="nonzero" fill-opacity="1" /><path clip-path="url(#clip180)" d="M34.2047 734.242 Q34.2047 741.34 35.8279 744.077 Q37.4512 746.814 41.3661 746.814 Q44.4853 746.814 46.3314 744.777 Q48.1456 742.708 48.1456 739.175 Q48.1456 734.305 44.7081 731.377 Q41.2388 728.417 35.5097 728.417 L34.2047 728.417 L34.2047 734.242 M31.7857 722.561 L52.1242 722.561 L52.1242 728.417 L46.7133 728.417 Q49.9598 730.422 51.5194 733.414 Q53.0472 736.406 53.0472 740.735 Q53.0472 746.209 49.9916 749.456 Q46.9043 752.671 41.7481 752.671 Q35.7325 752.671 32.6769 748.66 Q29.6214 744.618 29.6214 736.629 L29.6214 728.417 L29.0485 728.417 Q25.0062 728.417 22.8101 731.091 Q20.5821 733.733 20.5821 738.539 Q20.5821 741.594 21.3141 744.491 Q22.0462 747.387 23.5103 750.061 L18.0995 750.061 Q16.8581 746.846 16.2534 743.822 Q15.6168 740.798 15.6168 737.934 Q15.6168 730.2 19.6272 726.38 Q23.6376 722.561 31.7857 722.561 Z" fill="#000000" fill-rule="nonzero" fill-opacity="1" /><path clip-path="url(#clip180)" d="M35.7006 704.864 L47.4454 704.864 L47.4454 696.525 Q47.4454 692.515 45.9494 690.414 Q44.4217 688.313 41.5571 688.313 Q38.6925 688.313 37.1966 690.414 Q35.7006 692.515 35.7006 696.525 L35.7006 704.864 M21.155 704.864 L31.0218 704.864 L31.0218 697.162 Q31.0218 693.851 29.7169 691.751 Q28.3801 689.65 26.0248 689.65 Q23.6694 689.65 22.4281 691.751 Q21.155 693.851 21.155 697.162 L21.155 704.864 M16.4762 710.721 L16.4762 696.78 Q16.4762 690.509 18.7679 687.136 Q21.0595 683.762 25.2927 683.762 Q28.571 683.762 30.5126 685.48 Q32.4223 687.199 32.8997 690.573 Q33.6636 686.531 36.0826 684.303 Q38.5015 682.075 42.13 682.075 Q46.9043 682.075 49.5142 685.767 Q52.1242 689.427 52.1242 696.239 L52.1242 710.721 L16.4762 710.721 Z" fill="#000000" fill-rule="nonzero" fill-opacity="1" /><path clip-path="url(#clip180)" d="M52.1242 675.805 L47.2544 675.805 Q46.3632 670.012 42.3528 668.229 Q36.7191 666.065 22.3008 666.065 L16.4762 666.065 L16.4762 641.971 L52.1242 641.971 L52.1242 647.827 L21.155 647.827 L21.155 660.209 L24.688 660.209 Q38.4379 660.209 44.6126 663.01 Q51.2011 666.001 52.1242 675.805 Z" fill="#000000" fill-rule="nonzero" fill-opacity="1" /><path clip-path="url(#clip180)" d="M32.8361 599.925 L35.7006 599.925 L35.7006 626.852 Q41.7481 626.47 44.9309 623.224 Q48.0819 619.946 48.0819 614.121 Q48.0819 610.747 47.2544 607.596 Q46.4269 604.413 44.7718 601.294 L50.3099 601.294 Q51.6467 604.445 52.347 607.755 Q53.0472 611.065 53.0472 614.471 Q53.0472 623.001 48.0819 627.998 Q43.1167 632.963 34.6503 632.963 Q25.8974 632.963 20.7731 628.253 Q15.6168 623.51 15.6168 615.49 Q15.6168 608.296 20.2638 604.127 Q24.8789 599.925 32.8361 599.925 M31.1173 605.782 Q26.3112 605.845 23.4466 608.487 Q20.5821 611.097 20.5821 615.426 Q20.5821 620.327 23.3512 623.288 Q26.1202 626.216 31.1492 626.661 L31.1173 605.782 Z" fill="#000000" fill-rule="nonzero" fill-opacity="1" /><path clip-path="url(#clip180)" d="M16.4762 590.536 L16.4762 584.648 L31.0218 584.648 L31.0218 565.646 L16.4762 565.646 L16.4762 559.758 L52.1242 559.758 L52.1242 565.646 L35.7006 565.646 L35.7006 584.648 L52.1242 584.648 L52.1242 590.536 L16.4762 590.536 Z" fill="#000000" fill-rule="nonzero" fill-opacity="1" /><path clip-path="url(#clip180)" d="M16.4762 517.394 L52.1242 517.394 L52.1242 523.219 L23.5103 523.219 L52.1242 540.406 L52.1242 547.918 L16.4762 547.918 L16.4762 542.093 L45.0264 542.093 L16.4762 524.937 L16.4762 517.394 Z" fill="#000000" fill-rule="nonzero" fill-opacity="1" /><path clip-path="url(#clip180)" d="M32.8361 474.839 L35.7006 474.839 L35.7006 501.766 Q41.7481 501.384 44.9309 498.138 Q48.0819 494.859 48.0819 489.035 Q48.0819 485.661 47.2544 482.51 Q46.4269 479.327 44.7718 476.208 L50.3099 476.208 Q51.6467 479.359 52.347 482.669 Q53.0472 485.979 53.0472 489.385 Q53.0472 497.915 48.0819 502.912 Q43.1167 507.877 34.6503 507.877 Q25.8974 507.877 20.7731 503.167 Q15.6168 498.424 15.6168 490.403 Q15.6168 483.21 20.2638 479.041 Q24.8789 474.839 32.8361 474.839 M31.1173 480.696 Q26.3112 480.759 23.4466 483.401 Q20.5821 486.011 20.5821 490.34 Q20.5821 495.241 23.3512 498.201 Q26.1202 501.13 31.1492 501.575 L31.1173 480.696 Z" fill="#000000" fill-rule="nonzero" fill-opacity="1" /><path clip-path="url(#clip180)" d="M44.0397 463.731 L44.0397 457.015 L49.5142 457.015 L59.6993 462.235 L59.6993 466.341 L49.5142 463.731 L44.0397 463.731 Z" fill="#000000" fill-rule="nonzero" fill-opacity="1" /><path clip-path="url(#clip180)" d="M4.60416 423.532 L4.60416 413.951 L36.9419 401.825 L4.60416 389.634 L4.60416 380.054 L52.1242 380.054 L52.1242 386.324 L10.397 386.324 L42.9894 398.578 L42.9894 405.039 L10.397 417.293 L52.1242 417.293 L52.1242 423.532 L4.60416 423.532 Z" fill="#000000" fill-rule="nonzero" fill-opacity="1" /><path clip-path="url(#clip180)" d="M4.60416 331.07 L52.1242 331.07 L52.1242 337.499 L10.015 337.499 L10.015 360.861 L52.1242 360.861 L52.1242 367.291 L4.60416 367.291 L4.60416 331.07 Z" fill="#000000" fill-rule="nonzero" fill-opacity="1" /><path clip-path="url(#clip180)" d="M34.2047 302.329 Q34.2047 309.426 35.8279 312.164 Q37.4512 314.901 41.3661 314.901 Q44.4853 314.901 46.3314 312.864 Q48.1456 310.795 48.1456 307.262 Q48.1456 302.392 44.7081 299.464 Q41.2388 296.504 35.5097 296.504 L34.2047 296.504 L34.2047 302.329 M31.7857 290.648 L52.1242 290.648 L52.1242 296.504 L46.7133 296.504 Q49.9598 298.509 51.5194 301.501 Q53.0472 304.493 53.0472 308.822 Q53.0472 314.296 49.9916 317.543 Q46.9043 320.757 41.7481 320.757 Q35.7325 320.757 32.6769 316.747 Q29.6214 312.705 29.6214 304.716 L29.6214 296.504 L29.0485 296.504 Q25.0062 296.504 22.8101 299.178 Q20.5821 301.819 20.5821 306.625 Q20.5821 309.681 21.3141 312.577 Q22.0462 315.474 23.5103 318.147 L18.0995 318.147 Q16.8581 314.933 16.2534 311.909 Q15.6168 308.885 15.6168 306.021 Q15.6168 298.286 19.6272 294.467 Q23.6376 290.648 31.7857 290.648 Z" fill="#000000" fill-rule="nonzero" fill-opacity="1" /><polyline clip-path="url(#clip182)" style="stroke:#009af9; stroke-linecap:round; stroke-linejoin:round; stroke-width:8; stroke-opacity:1; fill:none" points="251.548,100.385 261.851,100.385 272.154,100.385 282.457,100.385 292.76,100.385 303.063,100.385 313.366,100.385 323.669,100.385 333.972,100.385 344.275,100.385 354.578,100.385 364.881,100.385 375.185,100.385 385.488,100.385 395.791,100.385 406.094,100.385 416.397,100.385 426.7,100.385 437.003,100.385 447.306,100.385 457.609,100.385 467.912,100.385 478.215,100.385 488.518,100.385 498.821,100.385 509.124,100.385 519.428,100.385 529.731,100.385 540.034,100.385 550.337,100.385 560.64,100.385 570.943,100.385 581.246,100.385 591.549,100.385 601.852,100.385 612.155,100.385 622.458,100.385 632.761,100.385 643.064,100.385 653.367,100.385 663.671,100.385 673.974,100.385 684.277,100.385 694.58,100.385 704.883,100.385 715.186,100.385 725.489,100.385 735.792,100.385 746.095,100.385 756.398,100.385 766.701,100.385 777.004,100.385 787.307,100.385 797.61,100.385 807.914,100.385 818.217,100.385 828.52,100.385 838.823,100.385 849.126,100.385 859.429,100.389 869.732,100.4 880.035,100.417 890.338,100.441 900.641,100.471 910.944,100.519 921.247,100.662 931.55,100.977 941.853,101.461 952.157,102.098 962.46,102.882 972.763,103.792 983.066,104.809 993.369,105.936 1003.67,107.181 1013.97,108.544 1024.28,110.007 1034.58,111.543 1044.88,113.147 1055.19,114.827 1065.49,116.58 1075.79,118.401 1086.1,120.288 1096.4,122.237 1106.7,124.239 1117.01,126.296 1127.31,128.412 1137.61,130.603 1147.91,132.891 1158.22,135.252 1168.52,137.695 1178.82,140.3 1189.13,143.122 1199.43,146.177 1209.73,149.49 1220.04,152.989 1230.34,156.591 1240.64,160.318 1250.95,164.115 1261.25,167.92 1271.55,171.731 1281.85,175.516 1292.16,179.28 1302.46,183.11 1312.76,187.11 1323.07,201.754 1333.37,221.421 1343.67,236.845 1353.98,264.293 1364.28,292.123 1374.58,312.142 1384.89,331.939 1395.19,356.888 1405.49,381.303 1415.79,395.336 1426.1,411.447 1436.4,428.021 1446.7,441.683 1457.01,456.018 1467.31,469.005 1477.61,480.737 1487.92,493.219 1498.22,505.707 1508.52,519.379 1518.83,531.208 1529.13,544.092 1539.43,557.738 1549.73,570.442 1560.04,584.158 1570.34,597.043 1580.64,609.447 1590.95,620.362 1601.25,623.529 1611.55,634.082 1621.86,645.386 1632.16,655.281 1642.46,665.915 1652.77,676.163 1663.07,684.87 1673.37,693.293 1683.67,701.304 1693.98,709.063 1704.28,716.581 1714.58,722.795 1724.89,726.261 1735.19,734.399 1745.49,745.641 1755.8,756.1 1766.1,765.775 1776.4,774.355 1786.71,772.646 1797.01,777.406 1807.31,774.463 1817.61,771.456 1827.92,768.389 1838.22,765.264 1848.52,762.085 1858.83,758.868 1869.13,755.595 1879.43,755.322 1889.74,761.139 1900.04,758.138 1910.34,761.402 1920.65,765.243 1930.95,768.172 1941.25,771.899 1951.55,774.048 1961.86,774.206 1972.16,775.439 1982.46,777.895 1992.77,780.882 2003.07,786.482 2013.37,792.339 2023.68,797.08 2033.98,801.675 2044.28,808.384 2054.59,816.133 2064.89,819.594 2075.19,819.217 2085.49,821.62 2095.8,823.97 2106.1,825.507 2116.4,826.163 2126.71,826.364 2137.01,822.952 2147.31,823.626 2157.62,823.927 2167.92,823.936 2178.22,823.976 2188.52,824.194 2198.83,820.814 2209.13,819.782 2219.43,815.585 2229.74,813.98 2240.04,812.566 2250.34,807.932 2260.65,801.774 2270.95,795.469 2281.25,791.602 2291.56,790.498 "/>
<circle clip-path="url(#clip182)" cx="1343.67" cy="359.581" r="14.4" fill="#e26f46" fill-rule="evenodd" fill-opacity="1" stroke="#000000" stroke-opacity="1" stroke-width="2.4"/>
<circle clip-path="url(#clip182)" cx="1353.98" cy="556.211" r="14.4" fill="#e26f46" fill-rule="evenodd" fill-opacity="1" stroke="#000000" stroke-opacity="1" stroke-width="2.4"/>
<circle clip-path="url(#clip182)" cx="1621.86" cy="650.594" r="14.4" fill="#e26f46" fill-rule="evenodd" fill-opacity="1" stroke="#000000" stroke-opacity="1" stroke-width="2.4"/>
<circle clip-path="url(#clip182)" cx="1663.07" cy="255.585" r="14.4" fill="#e26f46" fill-rule="evenodd" fill-opacity="1" stroke="#000000" stroke-opacity="1" stroke-width="2.4"/>
<circle clip-path="url(#clip182)" cx="1724.89" cy="550.094" r="14.4" fill="#e26f46" fill-rule="evenodd" fill-opacity="1" stroke="#000000" stroke-opacity="1" stroke-width="2.4"/>
<circle clip-path="url(#clip182)" cx="1786.71" cy="783.429" r="14.4" fill="#e26f46" fill-rule="evenodd" fill-opacity="1" stroke="#000000" stroke-opacity="1" stroke-width="2.4"/>
<circle clip-path="url(#clip182)" cx="1827.92" cy="746.724" r="14.4" fill="#e26f46" fill-rule="evenodd" fill-opacity="1" stroke="#000000" stroke-opacity="1" stroke-width="2.4"/>
<circle clip-path="url(#clip182)" cx="1879.43" cy="748.472" r="14.4" fill="#e26f46" fill-rule="evenodd" fill-opacity="1" stroke="#000000" stroke-opacity="1" stroke-width="2.4"/>
<circle clip-path="url(#clip182)" cx="1910.34" cy="770.32" r="14.4" fill="#e26f46" fill-rule="evenodd" fill-opacity="1" stroke="#000000" stroke-opacity="1" stroke-width="2.4"/>
<circle clip-path="url(#clip182)" cx="1951.55" cy="779.059" r="14.4" fill="#e26f46" fill-rule="evenodd" fill-opacity="1" stroke="#000000" stroke-opacity="1" stroke-width="2.4"/>
<circle clip-path="url(#clip182)" cx="1961.86" cy="204.024" r="14.4" fill="#e26f46" fill-rule="evenodd" fill-opacity="1" stroke="#000000" stroke-opacity="1" stroke-width="2.4"/>
<circle clip-path="url(#clip182)" cx="2075.19" cy="84.298" r="14.4" fill="#e26f46" fill-rule="evenodd" fill-opacity="1" stroke="#000000" stroke-opacity="1" stroke-width="2.4"/>
<circle clip-path="url(#clip182)" cx="2137.01" cy="886.55" r="14.4" fill="#e26f46" fill-rule="evenodd" fill-opacity="1" stroke="#000000" stroke-opacity="1" stroke-width="2.4"/>
<circle clip-path="url(#clip182)" cx="2198.83" cy="810.52" r="14.4" fill="#e26f46" fill-rule="evenodd" fill-opacity="1" stroke="#000000" stroke-opacity="1" stroke-width="2.4"/>
<circle clip-path="url(#clip182)" cx="2219.43" cy="805.276" r="14.4" fill="#e26f46" fill-rule="evenodd" fill-opacity="1" stroke="#000000" stroke-opacity="1" stroke-width="2.4"/>
<circle clip-path="url(#clip182)" cx="2229.74" cy="773.815" r="14.4" fill="#e26f46" fill-rule="evenodd" fill-opacity="1" stroke="#000000" stroke-opacity="1" stroke-width="2.4"/>
<circle clip-path="url(#clip182)" cx="2250.34" cy="814.015" r="14.4" fill="#e26f46" fill-rule="evenodd" fill-opacity="1" stroke="#000000" stroke-opacity="1" stroke-width="2.4"/>
<circle clip-path="url(#clip182)" cx="2260.65" cy="814.889" r="14.4" fill="#e26f46" fill-rule="evenodd" fill-opacity="1" stroke="#000000" stroke-opacity="1" stroke-width="2.4"/>
<circle clip-path="url(#clip182)" cx="2270.95" cy="75.5589" r="14.4" fill="#e26f46" fill-rule="evenodd" fill-opacity="1" stroke="#000000" stroke-opacity="1" stroke-width="2.4"/>
<circle clip-path="url(#clip182)" cx="2281.25" cy="75.5589" r="14.4" fill="#e26f46" fill-rule="evenodd" fill-opacity="1" stroke="#000000" stroke-opacity="1" stroke-width="2.4"/>
<line clip-path="url(#clip182)" x1="1663.07" y1="255.585" x2="1639.07" y2="231.585" style="stroke:#000000; stroke-width:4.8; stroke-opacity:1"/>
<line clip-path="url(#clip182)" x1="1663.07" y1="255.585" x2="1639.07" y2="279.585" style="stroke:#000000; stroke-width:4.8; stroke-opacity:1"/>
<line clip-path="url(#clip182)" x1="1663.07" y1="255.585" x2="1687.07" y2="279.585" style="stroke:#000000; stroke-width:4.8; stroke-opacity:1"/>
<line clip-path="url(#clip182)" x1="1663.07" y1="255.585" x2="1687.07" y2="231.585" style="stroke:#000000; stroke-width:4.8; stroke-opacity:1"/>
<line clip-path="url(#clip182)" x1="1961.86" y1="204.024" x2="1937.86" y2="180.024" style="stroke:#000000; stroke-width:4.8; stroke-opacity:1"/>
<line clip-path="url(#clip182)" x1="1961.86" y1="204.024" x2="1937.86" y2="228.024" style="stroke:#000000; stroke-width:4.8; stroke-opacity:1"/>
<line clip-path="url(#clip182)" x1="1961.86" y1="204.024" x2="1985.86" y2="228.024" style="stroke:#000000; stroke-width:4.8; stroke-opacity:1"/>
<line clip-path="url(#clip182)" x1="1961.86" y1="204.024" x2="1985.86" y2="180.024" style="stroke:#000000; stroke-width:4.8; stroke-opacity:1"/>
<line clip-path="url(#clip182)" x1="2075.19" y1="84.298" x2="2051.19" y2="60.298" style="stroke:#000000; stroke-width:4.8; stroke-opacity:1"/>
<line clip-path="url(#clip182)" x1="2075.19" y1="84.298" x2="2051.19" y2="108.298" style="stroke:#000000; stroke-width:4.8; stroke-opacity:1"/>
<line clip-path="url(#clip182)" x1="2075.19" y1="84.298" x2="2099.19" y2="108.298" style="stroke:#000000; stroke-width:4.8; stroke-opacity:1"/>
<line clip-path="url(#clip182)" x1="2075.19" y1="84.298" x2="2099.19" y2="60.298" style="stroke:#000000; stroke-width:4.8; stroke-opacity:1"/>
<line clip-path="url(#clip182)" x1="2270.95" y1="75.5589" x2="2246.95" y2="51.5589" style="stroke:#000000; stroke-width:4.8; stroke-opacity:1"/>
<line clip-path="url(#clip182)" x1="2270.95" y1="75.5589" x2="2246.95" y2="99.5589" style="stroke:#000000; stroke-width:4.8; stroke-opacity:1"/>
<line clip-path="url(#clip182)" x1="2270.95" y1="75.5589" x2="2294.95" y2="99.5589" style="stroke:#000000; stroke-width:4.8; stroke-opacity:1"/>
<line clip-path="url(#clip182)" x1="2270.95" y1="75.5589" x2="2294.95" y2="51.5589" style="stroke:#000000; stroke-width:4.8; stroke-opacity:1"/>
<line clip-path="url(#clip182)" x1="2281.25" y1="75.5589" x2="2257.25" y2="51.5589" style="stroke:#000000; stroke-width:4.8; stroke-opacity:1"/>
<line clip-path="url(#clip182)" x1="2281.25" y1="75.5589" x2="2257.25" y2="99.5589" style="stroke:#000000; stroke-width:4.8; stroke-opacity:1"/>
<line clip-path="url(#clip182)" x1="2281.25" y1="75.5589" x2="2305.25" y2="99.5589" style="stroke:#000000; stroke-width:4.8; stroke-opacity:1"/>
<line clip-path="url(#clip182)" x1="2281.25" y1="75.5589" x2="2305.25" y2="51.5589" style="stroke:#000000; stroke-width:4.8; stroke-opacity:1"/>
<polyline clip-path="url(#clip182)" style="stroke:#c271d2; stroke-linecap:round; stroke-linejoin:round; stroke-width:8; stroke-opacity:1; fill:none" points="1323.07,425.124 1333.37,425.124 1333.37,559.399 1343.67,559.399 1343.67,493.698 1353.98,493.698 1353.98,506.398 1364.28,506.398 1364.28,722.253 1374.58,722.253 1374.58,827.673 1384.89,827.673 1384.89,932.866 1395.19,932.866 1395.19,559.505 1405.49,559.505 1405.49,579.656 1415.79,579.656 1415.79,594.002 1426.1,594.002 1426.1,577.378 1436.4,577.378 1436.4,561.92 1446.7,561.92 1446.7,544.418 1457.01,544.418 1457.01,577.639 1467.31,577.639 1467.31,574.037 1477.61,574.037 1477.61,569.257 1487.92,569.257 1487.92,593.69 1498.22,593.69 1498.22,604.319 1508.52,604.319 1508.52,627.141 1518.83,627.141 1518.83,632.33 1529.13,632.33 1529.13,648.136 1539.43,648.136 1539.43,670.569 1549.73,670.569 1549.73,676.6 1560.04,676.6 1560.04,702.078 1570.34,702.078 1570.34,710.403 1580.64,710.403 1580.64,719.135 1590.95,719.135 1590.95,733.568 1601.25,733.568 1601.25,706.915 1611.55,706.915 1611.55,729.831 1621.86,729.831 1621.86,755.576 1632.16,755.576 1632.16,751.367 1642.46,751.367 1642.46,767.22 1652.77,767.22 1652.77,775.549 1663.07,775.549 1663.07,778.261 1673.37,778.261 1673.37,780.308 1683.67,780.308 1683.67,788.517 1693.98,788.517 1693.98,791.038 1704.28,791.038 1704.28,799.249 1714.58,799.249 1714.58,793.91 1724.89,793.91 1724.89,785.692 1735.19,785.692 1735.19,854.034 1745.49,854.034 1745.49,869.067 1755.8,869.067 1755.8,874.589 1766.1,874.589 1766.1,877.169 1776.4,877.169 1776.4,880.971 1786.71,880.971 1786.71,878.643 1797.01,878.643 1797.01,1019.38 1858.83,1019.38 1858.83,923.007 1879.43,923.007 1879.43,848.531 1889.74,848.531 1889.74,868.487 1900.04,868.487 1900.04,907.862 1910.34,907.862 1910.34,862.89 1920.65,862.89 1920.65,855.408 1930.95,855.408 1930.95,847.39 1941.25,847.39 1941.25,862.404 1951.55,862.404 1951.55,861.886 1961.86,861.886 1961.86,869.8 1972.16,869.8 1972.16,869.522 1982.46,869.522 1982.46,858.674 1992.77,858.674 1992.77,867.194 2003.07,867.194 2003.07,901.914 2013.37,901.914 2013.37,911.544 2023.68,911.544 2023.68,904.643 2033.98,904.643 2033.98,909.128 2044.28,909.128 2044.28,940.546 2054.59,940.546 2054.59,966.712 2064.89,966.712 2064.89,919.312 2075.19,919.312 2075.19,932.546 2085.49,932.546 2085.49,911.965 2095.8,911.965 2095.8,910.238 2106.1,910.238 2106.1,903.475 2116.4,903.475 2116.4,893.008 2126.71,893.008 2126.71,888.903 2137.01,888.903 2137.01,883.076 2147.31,883.076 2147.31,890.84 2157.62,890.84 2157.62,888.323 2167.92,888.323 2167.92,886.499 2178.22,886.499 2178.22,888.902 2188.52,888.902 2188.52,832.933 2198.83,832.933 2198.83,888.437 2209.13,888.437 2209.13,891.417 2219.43,891.417 2219.43,898.068 2229.74,898.068 2229.74,887 2240.04,887 2240.04,878.683 2250.34,878.683 2250.34,870.394 2281.25,870.394 2281.25,865.817 2291.56,865.817 2291.56,863.89 "/>
<circle clip-path="url(#clip182)" cx="1323.07" cy="425.124" r="14.4" fill="#ac8d18" fill-rule="evenodd" fill-opacity="1" stroke="#000000" stroke-opacity="1" stroke-width="2.4"/>
<circle clip-path="url(#clip182)" cx="1333.37" cy="545.724" r="14.4" fill="#ac8d18" fill-rule="evenodd" fill-opacity="1" stroke="#000000" stroke-opacity="1" stroke-width="2.4"/>
<circle clip-path="url(#clip182)" cx="1343.67" cy="511.642" r="14.4" fill="#ac8d18" fill-rule="evenodd" fill-opacity="1" stroke="#000000" stroke-opacity="1" stroke-width="2.4"/>
<circle clip-path="url(#clip182)" cx="1353.98" cy="506.398" r="14.4" fill="#ac8d18" fill-rule="evenodd" fill-opacity="1" stroke="#000000" stroke-opacity="1" stroke-width="2.4"/>
<circle clip-path="url(#clip182)" cx="1364.28" cy="722.255" r="14.4" fill="#ac8d18" fill-rule="evenodd" fill-opacity="1" stroke="#000000" stroke-opacity="1" stroke-width="2.4"/>
<circle clip-path="url(#clip182)" cx="1384.89" cy="932.868" r="14.4" fill="#ac8d18" fill-rule="evenodd" fill-opacity="1" stroke="#000000" stroke-opacity="1" stroke-width="2.4"/>
<circle clip-path="url(#clip182)" cx="1549.73" cy="717.011" r="14.4" fill="#ac8d18" fill-rule="evenodd" fill-opacity="1" stroke="#000000" stroke-opacity="1" stroke-width="2.4"/>
<circle clip-path="url(#clip182)" cx="1570.34" cy="703.902" r="14.4" fill="#ac8d18" fill-rule="evenodd" fill-opacity="1" stroke="#000000" stroke-opacity="1" stroke-width="2.4"/>
<circle clip-path="url(#clip182)" cx="1590.95" cy="715.263" r="14.4" fill="#ac8d18" fill-rule="evenodd" fill-opacity="1" stroke="#000000" stroke-opacity="1" stroke-width="2.4"/>
<circle clip-path="url(#clip182)" cx="1611.55" cy="758.085" r="14.4" fill="#ac8d18" fill-rule="evenodd" fill-opacity="1" stroke="#000000" stroke-opacity="1" stroke-width="2.4"/>
<circle clip-path="url(#clip182)" cx="1642.46" cy="765.076" r="14.4" fill="#ac8d18" fill-rule="evenodd" fill-opacity="1" stroke="#000000" stroke-opacity="1" stroke-width="2.4"/>
<circle clip-path="url(#clip182)" cx="1663.07" cy="757.211" r="14.4" fill="#ac8d18" fill-rule="evenodd" fill-opacity="1" stroke="#000000" stroke-opacity="1" stroke-width="2.4"/>
<circle clip-path="url(#clip182)" cx="1673.37" cy="779.059" r="14.4" fill="#ac8d18" fill-rule="evenodd" fill-opacity="1" stroke="#000000" stroke-opacity="1" stroke-width="2.4"/>
<circle clip-path="url(#clip182)" cx="1693.98" cy="813.142" r="14.4" fill="#ac8d18" fill-rule="evenodd" fill-opacity="1" stroke="#000000" stroke-opacity="1" stroke-width="2.4"/>
<circle clip-path="url(#clip182)" cx="1724.89" cy="845.476" r="14.4" fill="#ac8d18" fill-rule="evenodd" fill-opacity="1" stroke="#000000" stroke-opacity="1" stroke-width="2.4"/>
<circle clip-path="url(#clip182)" cx="1755.8" cy="823.629" r="14.4" fill="#ac8d18" fill-rule="evenodd" fill-opacity="1" stroke="#000000" stroke-opacity="1" stroke-width="2.4"/>
<circle clip-path="url(#clip182)" cx="1776.4" cy="869.072" r="14.4" fill="#ac8d18" fill-rule="evenodd" fill-opacity="1" stroke="#000000" stroke-opacity="1" stroke-width="2.4"/>
<circle clip-path="url(#clip182)" cx="1797.01" cy="1019.39" r="14.4" fill="#ac8d18" fill-rule="evenodd" fill-opacity="1" stroke="#000000" stroke-opacity="1" stroke-width="2.4"/>
<circle clip-path="url(#clip182)" cx="1879.43" cy="775.563" r="14.4" fill="#ac8d18" fill-rule="evenodd" fill-opacity="1" stroke="#000000" stroke-opacity="1" stroke-width="2.4"/>
<circle clip-path="url(#clip182)" cx="1900.04" cy="938.111" r="14.4" fill="#ac8d18" fill-rule="evenodd" fill-opacity="1" stroke="#000000" stroke-opacity="1" stroke-width="2.4"/>
<circle clip-path="url(#clip182)" cx="1930.95" cy="927.624" r="14.4" fill="#ac8d18" fill-rule="evenodd" fill-opacity="1" stroke="#000000" stroke-opacity="1" stroke-width="2.4"/>
<circle clip-path="url(#clip182)" cx="1961.86" cy="938.985" r="14.4" fill="#ac8d18" fill-rule="evenodd" fill-opacity="1" stroke="#000000" stroke-opacity="1" stroke-width="2.4"/>
<circle clip-path="url(#clip182)" cx="1982.46" cy="862.081" r="14.4" fill="#ac8d18" fill-rule="evenodd" fill-opacity="1" stroke="#000000" stroke-opacity="1" stroke-width="2.4"/>
<circle clip-path="url(#clip182)" cx="1992.77" cy="834.115" r="14.4" fill="#ac8d18" fill-rule="evenodd" fill-opacity="1" stroke="#000000" stroke-opacity="1" stroke-width="2.4"/>
<circle clip-path="url(#clip182)" cx="2023.68" cy="925.002" r="14.4" fill="#ac8d18" fill-rule="evenodd" fill-opacity="1" stroke="#000000" stroke-opacity="1" stroke-width="2.4"/>
<circle clip-path="url(#clip182)" cx="2044.28" cy="918.885" r="14.4" fill="#ac8d18" fill-rule="evenodd" fill-opacity="1" stroke="#000000" stroke-opacity="1" stroke-width="2.4"/>
<circle clip-path="url(#clip182)" cx="2064.89" cy="915.389" r="14.4" fill="#ac8d18" fill-rule="evenodd" fill-opacity="1" stroke="#000000" stroke-opacity="1" stroke-width="2.4"/>
<circle clip-path="url(#clip182)" cx="2075.19" cy="889.172" r="14.4" fill="#ac8d18" fill-rule="evenodd" fill-opacity="1" stroke="#000000" stroke-opacity="1" stroke-width="2.4"/>
<circle clip-path="url(#clip182)" cx="2085.49" cy="862.955" r="14.4" fill="#ac8d18" fill-rule="evenodd" fill-opacity="1" stroke="#000000" stroke-opacity="1" stroke-width="2.4"/>
<circle clip-path="url(#clip182)" cx="2095.8" cy="886.55" r="14.4" fill="#ac8d18" fill-rule="evenodd" fill-opacity="1" stroke="#000000" stroke-opacity="1" stroke-width="2.4"/>
<circle clip-path="url(#clip182)" cx="2106.1" cy="869.946" r="14.4" fill="#ac8d18" fill-rule="evenodd" fill-opacity="1" stroke="#000000" stroke-opacity="1" stroke-width="2.4"/>
<circle clip-path="url(#clip182)" cx="2126.71" cy="913.642" r="14.4" fill="#ac8d18" fill-rule="evenodd" fill-opacity="1" stroke="#000000" stroke-opacity="1" stroke-width="2.4"/>
<circle clip-path="url(#clip182)" cx="2147.31" cy="883.055" r="14.4" fill="#ac8d18" fill-rule="evenodd" fill-opacity="1" stroke="#000000" stroke-opacity="1" stroke-width="2.4"/>
<circle clip-path="url(#clip182)" cx="2157.62" cy="932.868" r="14.4" fill="#ac8d18" fill-rule="evenodd" fill-opacity="1" stroke="#000000" stroke-opacity="1" stroke-width="2.4"/>
<circle clip-path="url(#clip182)" cx="2167.92" cy="821.007" r="14.4" fill="#ac8d18" fill-rule="evenodd" fill-opacity="1" stroke="#000000" stroke-opacity="1" stroke-width="2.4"/>
<circle clip-path="url(#clip182)" cx="2188.52" cy="737.985" r="14.4" fill="#ac8d18" fill-rule="evenodd" fill-opacity="1" stroke="#000000" stroke-opacity="1" stroke-width="2.4"/>
<circle clip-path="url(#clip182)" cx="2209.13" cy="872.568" r="14.4" fill="#ac8d18" fill-rule="evenodd" fill-opacity="1" stroke="#000000" stroke-opacity="1" stroke-width="2.4"/>
<circle clip-path="url(#clip182)" cx="2229.74" cy="802.655" r="14.4" fill="#ac8d18" fill-rule="evenodd" fill-opacity="1" stroke="#000000" stroke-opacity="1" stroke-width="2.4"/>
<circle clip-path="url(#clip182)" cx="2240.04" cy="865.576" r="14.4" fill="#ac8d18" fill-rule="evenodd" fill-opacity="1" stroke="#000000" stroke-opacity="1" stroke-width="2.4"/>
<circle clip-path="url(#clip182)" cx="2250.34" cy="876.063" r="14.4" fill="#ac8d18" fill-rule="evenodd" fill-opacity="1" stroke="#000000" stroke-opacity="1" stroke-width="2.4"/>
<circle clip-path="url(#clip182)" cx="2281.25" cy="884.802" r="14.4" fill="#ac8d18" fill-rule="evenodd" fill-opacity="1" stroke="#000000" stroke-opacity="1" stroke-width="2.4"/>
<circle clip-path="url(#clip182)" cx="2291.56" cy="869.946" r="14.4" fill="#ac8d18" fill-rule="evenodd" fill-opacity="1" stroke="#000000" stroke-opacity="1" stroke-width="2.4"/>
<path clip-path="url(#clip180)" d="M262.428 1014.35 L718.806 1014.35 L718.806 703.311 L262.428 703.311  Z" fill="#ffffff" fill-rule="evenodd" fill-opacity="1"/>
<polyline clip-path="url(#clip180)" style="stroke:#000000; stroke-linecap:round; stroke-linejoin:round; stroke-width:4; stroke-opacity:1; fill:none" points="262.428,1014.35 718.806,1014.35 718.806,703.311 262.428,703.311 262.428,1014.35 "/>
<polyline clip-path="url(#clip180)" style="stroke:#009af9; stroke-linecap:round; stroke-linejoin:round; stroke-width:8; stroke-opacity:1; fill:none" points="286.455,755.151 430.615,755.151 "/>
<path clip-path="url(#clip180)" d="M480.984 737.871 L480.984 772.431 L476.308 772.431 L476.308 741.806 L459.318 741.806 L459.318 772.431 L454.642 772.431 L454.642 737.871 L480.984 737.871 Z" fill="#000000" fill-rule="nonzero" fill-opacity="1" /><path clip-path="url(#clip180)" d="M487.396 772.431 L487.396 768.89 Q491.609 768.242 492.906 765.325 Q494.48 761.228 494.48 750.742 L494.48 746.506 L512.003 746.506 L512.003 772.431 L507.743 772.431 L507.743 749.908 L498.739 749.908 L498.739 752.478 Q498.739 762.478 496.702 766.968 Q494.526 771.76 487.396 772.431 Z" fill="#000000" fill-rule="nonzero" fill-opacity="1" /><path clip-path="url(#clip180)" d="M521.007 766.552 L525.891 766.552 L525.891 772.431 L521.007 772.431 L521.007 766.552 Z" fill="#000000" fill-rule="nonzero" fill-opacity="1" /><path clip-path="url(#clip180)" d="M554.664 768.542 L554.664 782.292 L550.382 782.292 L550.382 746.506 L554.664 746.506 L554.664 750.441 Q556.007 748.126 558.044 747.015 Q560.104 745.881 562.951 745.881 Q567.674 745.881 570.613 749.631 Q573.576 753.38 573.576 759.492 Q573.576 765.603 570.613 769.353 Q567.674 773.103 562.951 773.103 Q560.104 773.103 558.044 771.992 Q556.007 770.857 554.664 768.542 M569.155 759.492 Q569.155 754.793 567.211 752.131 Q565.289 749.445 561.91 749.445 Q558.53 749.445 556.586 752.131 Q554.664 754.793 554.664 759.492 Q554.664 764.191 556.586 766.876 Q558.53 769.538 561.91 769.538 Q565.289 769.538 567.211 766.876 Q569.155 764.191 569.155 759.492 Z" fill="#000000" fill-rule="nonzero" fill-opacity="1" /><path clip-path="url(#clip180)" d="M592.419 759.399 Q587.257 759.399 585.266 760.58 Q583.275 761.76 583.275 764.607 Q583.275 766.876 584.757 768.218 Q586.262 769.538 588.831 769.538 Q592.373 769.538 594.502 767.038 Q596.655 764.515 596.655 760.348 L596.655 759.399 L592.419 759.399 M600.914 757.64 L600.914 772.431 L596.655 772.431 L596.655 768.496 Q595.197 770.857 593.021 771.992 Q590.845 773.103 587.697 773.103 Q583.715 773.103 581.354 770.88 Q579.016 768.635 579.016 764.885 Q579.016 760.51 581.933 758.288 Q584.873 756.066 590.683 756.066 L596.655 756.066 L596.655 755.649 Q596.655 752.709 594.711 751.112 Q592.789 749.492 589.294 749.492 Q587.072 749.492 584.965 750.024 Q582.859 750.556 580.914 751.621 L580.914 747.686 Q583.252 746.783 585.451 746.343 Q587.65 745.881 589.734 745.881 Q595.359 745.881 598.136 748.797 Q600.914 751.714 600.914 757.64 Z" fill="#000000" fill-rule="nonzero" fill-opacity="1" /><path clip-path="url(#clip180)" d="M628.345 747.501 L628.345 751.482 Q626.539 750.487 624.71 750.001 Q622.905 749.492 621.053 749.492 Q616.909 749.492 614.618 752.131 Q612.326 754.746 612.326 759.492 Q612.326 764.237 614.618 766.876 Q616.909 769.492 621.053 769.492 Q622.905 769.492 624.71 769.005 Q626.539 768.496 628.345 767.501 L628.345 771.436 Q626.562 772.269 624.641 772.686 Q622.743 773.103 620.59 773.103 Q614.734 773.103 611.285 769.422 Q607.835 765.742 607.835 759.492 Q607.835 753.149 611.308 749.515 Q614.803 745.881 620.868 745.881 Q622.835 745.881 624.71 746.297 Q626.585 746.691 628.345 747.501 Z" fill="#000000" fill-rule="nonzero" fill-opacity="1" /><path clip-path="url(#clip180)" d="M636.354 766.552 L641.238 766.552 L641.238 772.431 L636.354 772.431 L636.354 766.552 Z" fill="#000000" fill-rule="nonzero" fill-opacity="1" /><circle clip-path="url(#clip180)" cx="358.535" cy="806.991" r="20.48" fill="#e26f46" fill-rule="evenodd" fill-opacity="1" stroke="#000000" stroke-opacity="1" stroke-width="3.41333"/>
<path clip-path="url(#clip180)" d="M480.984 789.711 L480.984 824.271 L476.308 824.271 L476.308 793.646 L459.318 793.646 L459.318 824.271 L454.642 824.271 L454.642 789.711 L480.984 789.711 Z" fill="#000000" fill-rule="nonzero" fill-opacity="1" /><path clip-path="url(#clip180)" d="M487.396 824.271 L487.396 820.73 Q491.609 820.082 492.906 817.165 Q494.48 813.068 494.48 802.582 L494.48 798.346 L512.003 798.346 L512.003 824.271 L507.743 824.271 L507.743 801.748 L498.739 801.748 L498.739 804.318 Q498.739 814.318 496.702 818.808 Q494.526 823.6 487.396 824.271 Z" fill="#000000" fill-rule="nonzero" fill-opacity="1" /><path clip-path="url(#clip180)" d="M521.007 818.392 L525.891 818.392 L525.891 824.271 L521.007 824.271 L521.007 818.392 Z" fill="#000000" fill-rule="nonzero" fill-opacity="1" /><path clip-path="url(#clip180)" d="M553.09 811.332 Q553.09 816.771 554.757 819.086 Q556.447 821.378 559.294 821.378 Q561.563 821.378 564.201 817.489 L564.201 805.174 Q561.563 801.285 559.294 801.285 Q556.447 801.285 554.757 803.6 Q553.09 805.892 553.09 811.332 M564.201 834.132 L564.201 820.961 Q562.882 823.137 561.354 824.04 Q559.85 824.943 557.928 824.943 Q554.063 824.943 551.354 821.378 Q548.669 817.79 548.669 811.424 Q548.669 805.058 551.354 801.401 Q554.063 797.721 557.928 797.721 Q559.85 797.721 561.354 798.6 Q562.882 799.48 564.201 801.656 L564.201 789.711 L568.484 789.711 L568.484 801.656 Q569.803 799.48 571.308 798.6 Q572.836 797.721 574.757 797.721 Q578.623 797.721 581.308 801.401 Q584.016 805.058 584.016 811.424 Q584.016 817.79 581.308 821.378 Q578.623 824.943 574.757 824.943 Q572.836 824.943 571.308 824.04 Q569.803 823.137 568.484 820.961 L568.484 834.132 L564.201 834.132 M579.595 811.332 Q579.595 805.892 577.905 803.6 Q576.238 801.285 573.391 801.285 Q571.123 801.285 568.484 805.174 L568.484 817.489 Q571.123 821.378 573.391 821.378 Q576.238 821.378 577.905 819.086 Q579.595 816.771 579.595 811.332 Z" fill="#000000" fill-rule="nonzero" fill-opacity="1" /><path clip-path="url(#clip180)" d="M602.859 811.239 Q597.697 811.239 595.706 812.42 Q593.715 813.6 593.715 816.447 Q593.715 818.716 595.197 820.058 Q596.701 821.378 599.271 821.378 Q602.812 821.378 604.942 818.878 Q607.095 816.355 607.095 812.188 L607.095 811.239 L602.859 811.239 M611.354 809.48 L611.354 824.271 L607.095 824.271 L607.095 820.336 Q605.636 822.697 603.46 823.832 Q601.285 824.943 598.136 824.943 Q594.155 824.943 591.794 822.72 Q589.456 820.475 589.456 816.725 Q589.456 812.35 592.373 810.128 Q595.312 807.906 601.123 807.906 L607.095 807.906 L607.095 807.489 Q607.095 804.549 605.15 802.952 Q603.229 801.332 599.734 801.332 Q597.511 801.332 595.405 801.864 Q593.299 802.396 591.354 803.461 L591.354 799.526 Q593.692 798.623 595.891 798.183 Q598.09 797.721 600.173 797.721 Q605.798 797.721 608.576 800.637 Q611.354 803.554 611.354 809.48 Z" fill="#000000" fill-rule="nonzero" fill-opacity="1" /><path clip-path="url(#clip180)" d="M619.965 798.346 L624.201 798.346 L624.201 810.521 L636.215 798.346 L641.446 798.346 L631.539 808.369 L642.72 824.271 L637.951 824.271 L628.761 811.193 L624.201 815.822 L624.201 824.271 L619.965 824.271 L619.965 798.346 Z" fill="#000000" fill-rule="nonzero" fill-opacity="1" /><path clip-path="url(#clip180)" d="M645.682 798.346 L670.52 798.346 L670.52 801.748 L660.196 801.748 L660.196 824.271 L656.006 824.271 L656.006 801.748 L645.682 801.748 L645.682 798.346 Z" fill="#000000" fill-rule="nonzero" fill-opacity="1" /><polyline clip-path="url(#clip180)" style="stroke:#c271d2; stroke-linecap:round; stroke-linejoin:round; stroke-width:8; stroke-opacity:1; fill:none" points="286.455,858.831 430.615,858.831 "/>
<path clip-path="url(#clip180)" d="M465.058 840.926 Q470.753 840.926 474.364 843.357 Q477.975 845.764 477.975 849.885 Q477.975 852.755 476.332 854.746 Q474.688 856.713 471.656 857.477 Q475.012 858.195 476.887 860.463 Q478.785 862.732 478.785 866.065 Q478.785 871.389 474.665 874.097 Q470.568 876.783 465.058 876.783 Q462.234 876.783 458.947 876.019 Q455.66 875.255 454.642 874.607 L454.642 869.792 Q458.183 871.852 460.128 872.361 Q462.095 872.847 464.966 872.847 Q469.318 872.847 471.725 871.181 Q474.132 869.514 474.132 866.065 Q474.132 863.01 471.98 861.297 Q469.85 859.56 465.336 859.56 L460.614 859.56 L460.614 855.718 L465.521 855.718 Q469.665 855.718 471.494 854.352 Q473.322 852.963 473.322 850.371 Q473.322 847.709 471.424 846.297 Q469.549 844.861 464.966 844.861 Q461.864 844.861 460.799 845.139 Q459.734 845.417 454.989 847.199 L454.989 842.639 Q457.605 841.713 460.336 841.32 Q463.068 840.926 465.058 840.926 Z" fill="#000000" fill-rule="nonzero" fill-opacity="1" /><path clip-path="url(#clip180)" d="M498.16 863.079 Q492.998 863.079 491.007 864.26 Q489.017 865.44 489.017 868.287 Q489.017 870.556 490.498 871.898 Q492.003 873.218 494.572 873.218 Q498.114 873.218 500.243 870.718 Q502.396 868.195 502.396 864.028 L502.396 863.079 L498.16 863.079 M506.655 861.32 L506.655 876.111 L502.396 876.111 L502.396 872.176 Q500.938 874.537 498.762 875.672 Q496.586 876.783 493.438 876.783 Q489.456 876.783 487.095 874.56 Q484.757 872.315 484.757 868.565 Q484.757 864.19 487.674 861.968 Q490.614 859.746 496.424 859.746 L502.396 859.746 L502.396 859.329 Q502.396 856.389 500.452 854.792 Q498.53 853.172 495.035 853.172 Q492.813 853.172 490.706 853.704 Q488.6 854.236 486.656 855.301 L486.656 851.366 Q488.994 850.463 491.193 850.023 Q493.392 849.561 495.475 849.561 Q501.1 849.561 503.878 852.477 Q506.655 855.394 506.655 861.32 Z" fill="#000000" fill-rule="nonzero" fill-opacity="1" /><path clip-path="url(#clip180)" d="M525.706 849.561 Q531.262 849.561 534.433 853.172 Q537.604 856.783 537.604 863.172 Q537.604 869.537 534.433 873.172 Q531.262 876.783 525.706 876.783 Q520.128 876.783 517.049 873.264 Q513.97 869.746 513.808 863.172 L513.669 857.871 Q513.554 855.116 513.554 854.167 Q513.554 850.463 514.896 847.732 Q517.003 843.449 520.637 841.598 Q524.294 839.746 530.405 839.699 Q533.229 839.676 534.479 839.283 L535.66 842.662 Q534.526 843.125 533.484 843.149 L527.697 843.542 Q524.78 843.75 523.021 844.769 Q518.415 847.477 517.975 851.019 L517.813 852.315 Q520.822 849.561 525.706 849.561 M525.706 853.172 Q522.28 853.172 520.29 855.857 Q518.299 858.519 518.299 863.172 Q518.299 867.824 520.266 870.509 Q522.257 873.172 525.706 873.172 Q529.109 873.172 531.1 870.486 Q533.09 867.801 533.09 863.172 Q533.09 858.565 531.1 855.88 Q529.109 853.172 525.706 853.172 Z" fill="#000000" fill-rule="nonzero" fill-opacity="1" /><path clip-path="url(#clip180)" d="M545.266 870.232 L550.151 870.232 L550.151 876.111 L545.266 876.111 L545.266 870.232 Z" fill="#000000" fill-rule="nonzero" fill-opacity="1" /><path clip-path="url(#clip180)" d="M578.924 872.222 L578.924 885.972 L574.641 885.972 L574.641 850.186 L578.924 850.186 L578.924 854.121 Q580.266 851.806 582.303 850.695 Q584.363 849.561 587.211 849.561 Q591.933 849.561 594.873 853.311 Q597.836 857.06 597.836 863.172 Q597.836 869.283 594.873 873.033 Q591.933 876.783 587.211 876.783 Q584.363 876.783 582.303 875.672 Q580.266 874.537 578.924 872.222 M593.414 863.172 Q593.414 858.473 591.47 855.811 Q589.549 853.125 586.169 853.125 Q582.789 853.125 580.845 855.811 Q578.924 858.473 578.924 863.172 Q578.924 867.871 580.845 870.556 Q582.789 873.218 586.169 873.218 Q589.549 873.218 591.47 870.556 Q593.414 867.871 593.414 863.172 Z" fill="#000000" fill-rule="nonzero" fill-opacity="1" /><path clip-path="url(#clip180)" d="M616.678 863.079 Q611.516 863.079 609.525 864.26 Q607.535 865.44 607.535 868.287 Q607.535 870.556 609.016 871.898 Q610.521 873.218 613.09 873.218 Q616.632 873.218 618.761 870.718 Q620.914 868.195 620.914 864.028 L620.914 863.079 L616.678 863.079 M625.173 861.32 L625.173 876.111 L620.914 876.111 L620.914 872.176 Q619.456 874.537 617.28 875.672 Q615.104 876.783 611.956 876.783 Q607.974 876.783 605.613 874.56 Q603.275 872.315 603.275 868.565 Q603.275 864.19 606.192 861.968 Q609.132 859.746 614.942 859.746 L620.914 859.746 L620.914 859.329 Q620.914 856.389 618.97 854.792 Q617.048 853.172 613.553 853.172 Q611.331 853.172 609.224 853.704 Q607.118 854.236 605.173 855.301 L605.173 851.366 Q607.511 850.463 609.71 850.023 Q611.91 849.561 613.993 849.561 Q619.618 849.561 622.396 852.477 Q625.173 855.394 625.173 861.32 Z" fill="#000000" fill-rule="nonzero" fill-opacity="1" /><path clip-path="url(#clip180)" d="M652.604 851.181 L652.604 855.162 Q650.798 854.167 648.969 853.681 Q647.164 853.172 645.312 853.172 Q641.169 853.172 638.877 855.811 Q636.585 858.426 636.585 863.172 Q636.585 867.917 638.877 870.556 Q641.169 873.172 645.312 873.172 Q647.164 873.172 648.969 872.685 Q650.798 872.176 652.604 871.181 L652.604 875.116 Q650.821 875.949 648.9 876.366 Q647.002 876.783 644.849 876.783 Q638.993 876.783 635.544 873.102 Q632.095 869.422 632.095 863.172 Q632.095 856.829 635.567 853.195 Q639.062 849.561 645.127 849.561 Q647.095 849.561 648.969 849.977 Q650.844 850.371 652.604 851.181 Z" fill="#000000" fill-rule="nonzero" fill-opacity="1" /><path clip-path="url(#clip180)" d="M660.613 870.232 L665.497 870.232 L665.497 876.111 L660.613 876.111 L660.613 870.232 Z" fill="#000000" fill-rule="nonzero" fill-opacity="1" /><circle clip-path="url(#clip180)" cx="358.535" cy="910.671" r="20.48" fill="#ac8d18" fill-rule="evenodd" fill-opacity="1" stroke="#000000" stroke-opacity="1" stroke-width="3.41333"/>
<path clip-path="url(#clip180)" d="M465.058 892.766 Q470.753 892.766 474.364 895.197 Q477.975 897.604 477.975 901.725 Q477.975 904.595 476.332 906.586 Q474.688 908.553 471.656 909.317 Q475.012 910.035 476.887 912.303 Q478.785 914.572 478.785 917.905 Q478.785 923.229 474.665 925.937 Q470.568 928.623 465.058 928.623 Q462.234 928.623 458.947 927.859 Q455.66 927.095 454.642 926.447 L454.642 921.632 Q458.183 923.692 460.128 924.201 Q462.095 924.687 464.966 924.687 Q469.318 924.687 471.725 923.021 Q474.132 921.354 474.132 917.905 Q474.132 914.85 471.98 913.137 Q469.85 911.4 465.336 911.4 L460.614 911.4 L460.614 907.558 L465.521 907.558 Q469.665 907.558 471.494 906.192 Q473.322 904.803 473.322 902.211 Q473.322 899.549 471.424 898.137 Q469.549 896.701 464.966 896.701 Q461.864 896.701 460.799 896.979 Q459.734 897.257 454.989 899.039 L454.989 894.479 Q457.605 893.553 460.336 893.16 Q463.068 892.766 465.058 892.766 Z" fill="#000000" fill-rule="nonzero" fill-opacity="1" /><path clip-path="url(#clip180)" d="M498.16 914.919 Q492.998 914.919 491.007 916.1 Q489.017 917.28 489.017 920.127 Q489.017 922.396 490.498 923.738 Q492.003 925.058 494.572 925.058 Q498.114 925.058 500.243 922.558 Q502.396 920.035 502.396 915.868 L502.396 914.919 L498.16 914.919 M506.655 913.16 L506.655 927.951 L502.396 927.951 L502.396 924.016 Q500.938 926.377 498.762 927.512 Q496.586 928.623 493.438 928.623 Q489.456 928.623 487.095 926.4 Q484.757 924.155 484.757 920.405 Q484.757 916.03 487.674 913.808 Q490.614 911.586 496.424 911.586 L502.396 911.586 L502.396 911.169 Q502.396 908.229 500.452 906.632 Q498.53 905.012 495.035 905.012 Q492.813 905.012 490.706 905.544 Q488.6 906.076 486.656 907.141 L486.656 903.206 Q488.994 902.303 491.193 901.863 Q493.392 901.401 495.475 901.401 Q501.1 901.401 503.878 904.317 Q506.655 907.234 506.655 913.16 Z" fill="#000000" fill-rule="nonzero" fill-opacity="1" /><path clip-path="url(#clip180)" d="M525.706 901.401 Q531.262 901.401 534.433 905.012 Q537.604 908.623 537.604 915.012 Q537.604 921.377 534.433 925.012 Q531.262 928.623 525.706 928.623 Q520.128 928.623 517.049 925.104 Q513.97 921.586 513.808 915.012 L513.669 909.711 Q513.554 906.956 513.554 906.007 Q513.554 902.303 514.896 899.572 Q517.003 895.289 520.637 893.438 Q524.294 891.586 530.405 891.539 Q533.229 891.516 534.479 891.123 L535.66 894.502 Q534.526 894.965 533.484 894.989 L527.697 895.382 Q524.78 895.59 523.021 896.609 Q518.415 899.317 517.975 902.859 L517.813 904.155 Q520.822 901.401 525.706 901.401 M525.706 905.012 Q522.28 905.012 520.29 907.697 Q518.299 910.359 518.299 915.012 Q518.299 919.664 520.266 922.349 Q522.257 925.012 525.706 925.012 Q529.109 925.012 531.1 922.326 Q533.09 919.641 533.09 915.012 Q533.09 910.405 531.1 907.72 Q529.109 905.012 525.706 905.012 Z" fill="#000000" fill-rule="nonzero" fill-opacity="1" /><path clip-path="url(#clip180)" d="M545.266 922.072 L550.151 922.072 L550.151 927.951 L545.266 927.951 L545.266 922.072 Z" fill="#000000" fill-rule="nonzero" fill-opacity="1" /><path clip-path="url(#clip180)" d="M577.35 915.012 Q577.35 920.451 579.016 922.766 Q580.706 925.058 583.553 925.058 Q585.822 925.058 588.461 921.169 L588.461 908.854 Q585.822 904.965 583.553 904.965 Q580.706 904.965 579.016 907.28 Q577.35 909.572 577.35 915.012 M588.461 937.812 L588.461 924.641 Q587.141 926.817 585.613 927.72 Q584.109 928.623 582.187 928.623 Q578.322 928.623 575.613 925.058 Q572.928 921.47 572.928 915.104 Q572.928 908.738 575.613 905.081 Q578.322 901.401 582.187 901.401 Q584.109 901.401 585.613 902.28 Q587.141 903.16 588.461 905.336 L588.461 893.391 L592.743 893.391 L592.743 905.336 Q594.062 903.16 595.567 902.28 Q597.095 901.401 599.016 901.401 Q602.882 901.401 605.567 905.081 Q608.275 908.738 608.275 915.104 Q608.275 921.47 605.567 925.058 Q602.882 928.623 599.016 928.623 Q597.095 928.623 595.567 927.72 Q594.062 926.817 592.743 924.641 L592.743 937.812 L588.461 937.812 M603.854 915.012 Q603.854 909.572 602.164 907.28 Q600.498 904.965 597.65 904.965 Q595.382 904.965 592.743 908.854 L592.743 921.169 Q595.382 925.058 597.65 925.058 Q600.498 925.058 602.164 922.766 Q603.854 920.451 603.854 915.012 Z" fill="#000000" fill-rule="nonzero" fill-opacity="1" /><path clip-path="url(#clip180)" d="M627.118 914.919 Q621.956 914.919 619.965 916.1 Q617.974 917.28 617.974 920.127 Q617.974 922.396 619.456 923.738 Q620.96 925.058 623.53 925.058 Q627.071 925.058 629.201 922.558 Q631.354 920.035 631.354 915.868 L631.354 914.919 L627.118 914.919 M635.613 913.16 L635.613 927.951 L631.354 927.951 L631.354 924.016 Q629.896 926.377 627.72 927.512 Q625.544 928.623 622.396 928.623 Q618.414 928.623 616.053 926.4 Q613.715 924.155 613.715 920.405 Q613.715 916.03 616.632 913.808 Q619.572 911.586 625.382 911.586 L631.354 911.586 L631.354 911.169 Q631.354 908.229 629.409 906.632 Q627.488 905.012 623.993 905.012 Q621.771 905.012 619.664 905.544 Q617.558 906.076 615.613 907.141 L615.613 903.206 Q617.951 902.303 620.15 901.863 Q622.349 901.401 624.433 901.401 Q630.058 901.401 632.835 904.317 Q635.613 907.234 635.613 913.16 Z" fill="#000000" fill-rule="nonzero" fill-opacity="1" /><path clip-path="url(#clip180)" d="M644.224 902.026 L648.46 902.026 L648.46 914.201 L660.474 902.026 L665.706 902.026 L655.798 912.049 L666.979 927.951 L662.21 927.951 L653.02 914.873 L648.46 919.502 L648.46 927.951 L644.224 927.951 L644.224 902.026 Z" fill="#000000" fill-rule="nonzero" fill-opacity="1" /><path clip-path="url(#clip180)" d="M669.942 902.026 L694.779 902.026 L694.779 905.428 L684.455 905.428 L684.455 927.951 L680.266 927.951 L680.266 905.428 L669.942 905.428 L669.942 902.026 Z" fill="#000000" fill-rule="nonzero" fill-opacity="1" /><line clip-path="url(#clip180)" x1="358.535" y1="962.511" x2="336.592" y2="940.568" style="stroke:#000000; stroke-width:4.38857; stroke-opacity:1"/>
<line clip-path="url(#clip180)" x1="358.535" y1="962.511" x2="336.592" y2="984.454" style="stroke:#000000; stroke-width:4.38857; stroke-opacity:1"/>
<line clip-path="url(#clip180)" x1="358.535" y1="962.511" x2="380.478" y2="984.454" style="stroke:#000000; stroke-width:4.38857; stroke-opacity:1"/>
<line clip-path="url(#clip180)" x1="358.535" y1="962.511" x2="380.478" y2="940.568" style="stroke:#000000; stroke-width:4.38857; stroke-opacity:1"/>
<path clip-path="url(#clip180)" d="M459.318 963.287 L459.318 975.949 L466.818 975.949 Q470.591 975.949 472.396 974.398 Q474.225 972.824 474.225 969.606 Q474.225 966.365 472.396 964.838 Q470.591 963.287 466.818 963.287 L459.318 963.287 M459.318 949.074 L459.318 959.491 L466.239 959.491 Q469.665 959.491 471.332 958.217 Q473.021 956.921 473.021 954.282 Q473.021 951.666 471.332 950.37 Q469.665 949.074 466.239 949.074 L459.318 949.074 M454.642 945.231 L466.586 945.231 Q471.933 945.231 474.827 947.454 Q477.72 949.676 477.72 953.773 Q477.72 956.944 476.239 958.819 Q474.757 960.694 471.887 961.157 Q475.336 961.898 477.234 964.259 Q479.156 966.597 479.156 970.115 Q479.156 974.745 476.007 977.268 Q472.859 979.791 467.049 979.791 L454.642 979.791 L454.642 945.231 Z" fill="#000000" fill-rule="nonzero" fill-opacity="1" /><path clip-path="url(#clip180)" d="M511.47 953.866 L515.729 953.866 L515.729 979.791 L511.47 979.791 L511.47 953.866 M513.6 953.241 L513.6 953.241 M503.114 972.106 Q503.114 970.023 501.586 968.935 Q500.081 967.847 497.165 967.847 L491.1 967.847 L491.1 976.389 L497.165 976.389 Q500.081 976.389 501.586 975.301 Q503.114 974.189 503.114 972.106 M486.818 953.866 L491.1 953.866 L491.1 964.444 L497.35 964.444 Q502.304 964.444 504.966 966.342 Q507.651 968.217 507.651 972.106 Q507.651 975.995 504.966 977.893 Q502.304 979.791 497.35 979.791 L486.818 979.791 L486.818 953.866 Z" fill="#000000" fill-rule="nonzero" fill-opacity="1" /><path clip-path="url(#clip180)" d="M534.688 953.241 Q540.243 953.241 543.415 956.852 Q546.586 960.463 546.586 966.852 Q546.586 973.217 543.415 976.852 Q540.243 980.463 534.688 980.463 Q529.109 980.463 526.03 976.944 Q522.952 973.426 522.79 966.852 L522.651 961.551 Q522.535 958.796 522.535 957.847 Q522.535 954.143 523.878 951.412 Q525.984 947.129 529.618 945.278 Q533.276 943.426 539.387 943.379 Q542.211 943.356 543.461 942.963 L544.641 946.342 Q543.507 946.805 542.465 946.829 L536.678 947.222 Q533.762 947.43 532.003 948.449 Q527.396 951.157 526.956 954.699 L526.794 955.995 Q529.803 953.241 534.688 953.241 M534.688 956.852 Q531.262 956.852 529.271 959.537 Q527.28 962.199 527.28 966.852 Q527.28 971.504 529.248 974.189 Q531.239 976.852 534.688 976.852 Q538.09 976.852 540.081 974.166 Q542.072 971.481 542.072 966.852 Q542.072 962.245 540.081 959.56 Q538.09 956.852 534.688 956.852 Z" fill="#000000" fill-rule="nonzero" fill-opacity="1" /><path clip-path="url(#clip180)" d="M554.248 973.912 L559.132 973.912 L559.132 979.791 L554.248 979.791 L554.248 973.912 Z" fill="#000000" fill-rule="nonzero" fill-opacity="1" /></svg>
