<?xml version="1.0" encoding="utf-8"?>
<svg xmlns="http://www.w3.org/2000/svg" xmlns:xlink="http://www.w3.org/1999/xlink" width="400" height="400" viewBox="0 0 1600 1600">
<defs>
  <clipPath id="clip650">
    <rect x="0" y="0" width="1600" height="1600"/>
  </clipPath>
</defs>
<path clip-path="url(#clip650)" d="M0 1600 L1600 1600 L1600 0 L0 0  Z" fill="#ffffff" fill-rule="evenodd" fill-opacity="1"/>
<defs>
  <clipPath id="clip651">
    <rect x="320" y="160" width="1121" height="1121"/>
  </clipPath>
</defs>
<path clip-path="url(#clip650)" d="M265.302 1382.14 L1552.76 1382.14 L1552.76 47.2441 L265.302 47.2441  Z" fill="#ffffff" fill-rule="evenodd" fill-opacity="1"/>
<defs>
  <clipPath id="clip652">
    <rect x="265" y="47" width="1288" height="1336"/>
  </clipPath>
</defs>
<polyline clip-path="url(#clip652)" style="stroke:#000000; stroke-linecap:round; stroke-linejoin:round; stroke-width:2; stroke-opacity:0.1; fill:none" points="450.697,1382.14 450.697,47.2441 "/>
<polyline clip-path="url(#clip652)" style="stroke:#000000; stroke-linecap:round; stroke-linejoin:round; stroke-width:2; stroke-opacity:0.1; fill:none" points="679.863,1382.14 679.863,47.2441 "/>
<polyline clip-path="url(#clip652)" style="stroke:#000000; stroke-linecap:round; stroke-linejoin:round; stroke-width:2; stroke-opacity:0.1; fill:none" points="909.029,1382.14 909.029,47.2441 "/>
<polyline clip-path="url(#clip652)" style="stroke:#000000; stroke-linecap:round; stroke-linejoin:round; stroke-width:2; stroke-opacity:0.1; fill:none" points="1138.19,1382.14 1138.19,47.2441 "/>
<polyline clip-path="url(#clip652)" style="stroke:#000000; stroke-linecap:round; stroke-linejoin:round; stroke-width:2; stroke-opacity:0.1; fill:none" points="1367.36,1382.14 1367.36,47.2441 "/>
<polyline clip-path="url(#clip650)" style="stroke:#000000; stroke-linecap:round; stroke-linejoin:round; stroke-width:4; stroke-opacity:1; fill:none" points="265.302,1382.14 1552.76,1382.14 "/>
<polyline clip-path="url(#clip650)" style="stroke:#000000; stroke-linecap:round; stroke-linejoin:round; stroke-width:4; stroke-opacity:1; fill:none" points="450.697,1382.14 450.697,1363.24 "/>
<polyline clip-path="url(#clip650)" style="stroke:#000000; stroke-linecap:round; stroke-linejoin:round; stroke-width:4; stroke-opacity:1; fill:none" points="679.863,1382.14 679.863,1363.24 "/>
<polyline clip-path="url(#clip650)" style="stroke:#000000; stroke-linecap:round; stroke-linejoin:round; stroke-width:4; stroke-opacity:1; fill:none" points="909.029,1382.14 909.029,1363.24 "/>
<polyline clip-path="url(#clip650)" style="stroke:#000000; stroke-linecap:round; stroke-linejoin:round; stroke-width:4; stroke-opacity:1; fill:none" points="1138.19,1382.14 1138.19,1363.24 "/>
<polyline clip-path="url(#clip650)" style="stroke:#000000; stroke-linecap:round; stroke-linejoin:round; stroke-width:4; stroke-opacity:1; fill:none" points="1367.36,1382.14 1367.36,1363.24 "/>
<path clip-path="url(#clip650)" d="M419.598 1421.31 L449.274 1421.31 L449.274 1425.25 L419.598 1425.25 L419.598 1421.31 Z" fill="#000000" fill-rule="nonzero" fill-opacity="1" /><path clip-path="url(#clip650)" d="M472.213 1407.65 L460.408 1426.1 L472.213 1426.1 L472.213 1407.65 M470.986 1403.58 L476.866 1403.58 L476.866 1426.1 L481.797 1426.1 L481.797 1429.99 L476.866 1429.99 L476.866 1438.14 L472.213 1438.14 L472.213 1429.99 L456.612 1429.99 L456.612 1425.48 L470.986 1403.58 Z" fill="#000000" fill-rule="nonzero" fill-opacity="1" /><path clip-path="url(#clip650)" d="M649.805 1421.31 L679.481 1421.31 L679.481 1425.25 L649.805 1425.25 L649.805 1421.31 Z" fill="#000000" fill-rule="nonzero" fill-opacity="1" /><path clip-path="url(#clip650)" d="M693.601 1434.2 L709.921 1434.2 L709.921 1438.14 L687.976 1438.14 L687.976 1434.2 Q690.639 1431.45 695.222 1426.82 Q699.828 1422.17 701.009 1420.83 Q703.254 1418.3 704.134 1416.57 Q705.037 1414.81 705.037 1413.12 Q705.037 1410.36 703.092 1408.63 Q701.171 1406.89 698.069 1406.89 Q695.87 1406.89 693.416 1407.65 Q690.986 1408.42 688.208 1409.97 L688.208 1405.25 Q691.032 1404.11 693.486 1403.53 Q695.939 1402.95 697.976 1402.95 Q703.347 1402.95 706.541 1405.64 Q709.736 1408.33 709.736 1412.82 Q709.736 1414.95 708.925 1416.87 Q708.138 1418.76 706.032 1421.36 Q705.453 1422.03 702.351 1425.25 Q699.25 1428.44 693.601 1434.2 Z" fill="#000000" fill-rule="nonzero" fill-opacity="1" /><path clip-path="url(#clip650)" d="M909.029 1406.66 Q905.418 1406.66 903.589 1410.22 Q901.784 1413.76 901.784 1420.89 Q901.784 1428 903.589 1431.57 Q905.418 1435.11 909.029 1435.11 Q912.663 1435.11 914.469 1431.57 Q916.297 1428 916.297 1420.89 Q916.297 1413.76 914.469 1410.22 Q912.663 1406.66 909.029 1406.66 M909.029 1402.95 Q914.839 1402.95 917.895 1407.56 Q920.973 1412.14 920.973 1420.89 Q920.973 1429.62 917.895 1434.23 Q914.839 1438.81 909.029 1438.81 Q903.219 1438.81 900.14 1434.23 Q897.085 1429.62 897.085 1420.89 Q897.085 1412.14 900.14 1407.56 Q903.219 1402.95 909.029 1402.95 Z" fill="#000000" fill-rule="nonzero" fill-opacity="1" /><path clip-path="url(#clip650)" d="M1132.85 1434.2 L1149.17 1434.2 L1149.17 1438.14 L1127.22 1438.14 L1127.22 1434.2 Q1129.88 1431.45 1134.47 1426.82 Q1139.07 1422.17 1140.26 1420.83 Q1142.5 1418.3 1143.38 1416.57 Q1144.28 1414.81 1144.28 1413.12 Q1144.28 1410.36 1142.34 1408.63 Q1140.42 1406.89 1137.32 1406.89 Q1135.12 1406.89 1132.66 1407.65 Q1130.23 1408.42 1127.45 1409.97 L1127.45 1405.25 Q1130.28 1404.11 1132.73 1403.53 Q1135.19 1402.95 1137.22 1402.95 Q1142.59 1402.95 1145.79 1405.64 Q1148.98 1408.33 1148.98 1412.82 Q1148.98 1414.95 1148.17 1416.87 Q1147.38 1418.76 1145.28 1421.36 Q1144.7 1422.03 1141.6 1425.25 Q1138.5 1428.44 1132.85 1434.2 Z" fill="#000000" fill-rule="nonzero" fill-opacity="1" /><path clip-path="url(#clip650)" d="M1370.37 1407.65 L1358.56 1426.1 L1370.37 1426.1 L1370.37 1407.65 M1369.14 1403.58 L1375.02 1403.58 L1375.02 1426.1 L1379.95 1426.1 L1379.95 1429.99 L1375.02 1429.99 L1375.02 1438.14 L1370.37 1438.14 L1370.37 1429.99 L1354.77 1429.99 L1354.77 1425.48 L1369.14 1403.58 Z" fill="#000000" fill-rule="nonzero" fill-opacity="1" /><path clip-path="url(#clip650)" d="M725.617 1471.84 Q718.615 1471.84 714.477 1477.06 Q710.371 1482.28 710.371 1491.29 Q710.371 1500.27 714.477 1505.49 Q718.615 1510.71 725.617 1510.71 Q732.619 1510.71 736.693 1505.49 Q740.799 1500.27 740.799 1491.29 Q740.799 1482.28 736.693 1477.06 Q732.619 1471.84 725.617 1471.84 M725.617 1466.62 Q735.611 1466.62 741.595 1473.34 Q747.579 1480.02 747.579 1491.29 Q747.579 1502.53 741.595 1509.24 Q735.611 1515.93 725.617 1515.93 Q715.591 1515.93 709.575 1509.24 Q703.592 1502.56 703.592 1491.29 Q703.592 1480.02 709.575 1473.34 Q715.591 1466.62 725.617 1466.62 Z" fill="#000000" fill-rule="nonzero" fill-opacity="1" /><path clip-path="url(#clip650)" d="M753.149 1479.36 L787.301 1479.36 L787.301 1484.03 L773.105 1484.03 L773.105 1515 L767.344 1515 L767.344 1484.03 L753.149 1484.03 L753.149 1479.36 Z" fill="#000000" fill-rule="nonzero" fill-opacity="1" /><path clip-path="url(#clip650)" d="M795.131 1479.36 L800.955 1479.36 L800.955 1496.1 L817.474 1479.36 L824.667 1479.36 L811.045 1493.14 L826.418 1515 L819.861 1515 L807.225 1497.02 L800.955 1503.39 L800.955 1515 L795.131 1515 L795.131 1479.36 Z" fill="#000000" fill-rule="nonzero" fill-opacity="1" /><path clip-path="url(#clip650)" d="M831.001 1515 L831.001 1510.13 Q836.794 1509.24 838.577 1505.23 Q840.741 1499.6 840.741 1485.18 L840.741 1479.36 L864.835 1479.36 L864.835 1515 L858.979 1515 L858.979 1484.03 L846.597 1484.03 L846.597 1487.57 Q846.597 1501.32 843.796 1507.49 Q840.805 1514.08 831.001 1515 Z" fill="#000000" fill-rule="nonzero" fill-opacity="1" /><path clip-path="url(#clip650)" d="M890.202 1483.46 Q885.492 1483.46 882.755 1487.15 Q880.017 1490.81 880.017 1497.21 Q880.017 1503.61 882.723 1507.3 Q885.46 1510.96 890.202 1510.96 Q894.881 1510.96 897.618 1507.27 Q900.356 1503.58 900.356 1497.21 Q900.356 1490.88 897.618 1487.19 Q894.881 1483.46 890.202 1483.46 M890.202 1478.5 Q897.841 1478.5 902.202 1483.46 Q906.562 1488.43 906.562 1497.21 Q906.562 1505.96 902.202 1510.96 Q897.841 1515.93 890.202 1515.93 Q882.532 1515.93 878.171 1510.96 Q873.843 1505.96 873.843 1497.21 Q873.843 1488.43 878.171 1483.46 Q882.532 1478.5 890.202 1478.5 Z" fill="#000000" fill-rule="nonzero" fill-opacity="1" /><path clip-path="url(#clip650)" d="M916.047 1479.36 L921.935 1479.36 L921.935 1493.9 L940.937 1493.9 L940.937 1479.36 L946.825 1479.36 L946.825 1515 L940.937 1515 L940.937 1498.58 L921.935 1498.58 L921.935 1515 L916.047 1515 L916.047 1479.36 Z" fill="#000000" fill-rule="nonzero" fill-opacity="1" /><path clip-path="url(#clip650)" d="M989.38 1495.72 L989.38 1498.58 L962.453 1498.58 Q962.835 1504.63 966.082 1507.81 Q969.36 1510.96 975.185 1510.96 Q978.558 1510.96 981.709 1510.13 Q984.892 1509.31 988.011 1507.65 L988.011 1513.19 Q984.86 1514.53 981.55 1515.23 Q978.24 1515.93 974.834 1515.93 Q966.304 1515.93 961.307 1510.96 Q956.342 1506 956.342 1497.53 Q956.342 1488.78 961.053 1483.65 Q965.795 1478.5 973.816 1478.5 Q981.009 1478.5 985.179 1483.14 Q989.38 1487.76 989.38 1495.72 M983.524 1494 Q983.46 1489.19 980.818 1486.33 Q978.208 1483.46 973.88 1483.46 Q968.978 1483.46 966.018 1486.23 Q963.09 1489 962.644 1494.03 L983.524 1494 Z" fill="#000000" fill-rule="nonzero" fill-opacity="1" /><path clip-path="url(#clip650)" d="M998.77 1479.36 L1004.66 1479.36 L1004.66 1493.9 L1023.66 1493.9 L1023.66 1479.36 L1029.55 1479.36 L1029.55 1515 L1023.66 1515 L1023.66 1498.58 L1004.66 1498.58 L1004.66 1515 L998.77 1515 L998.77 1479.36 Z" fill="#000000" fill-rule="nonzero" fill-opacity="1" /><path clip-path="url(#clip650)" d="M1071.91 1479.36 L1071.91 1515 L1066.09 1515 L1066.09 1486.39 L1048.9 1515 L1041.39 1515 L1041.39 1479.36 L1047.21 1479.36 L1047.21 1507.91 L1064.37 1479.36 L1071.91 1479.36 Z" fill="#000000" fill-rule="nonzero" fill-opacity="1" /><path clip-path="url(#clip650)" d="M1114.47 1495.72 L1114.47 1498.58 L1087.54 1498.58 Q1087.92 1504.63 1091.17 1507.81 Q1094.45 1510.96 1100.27 1510.96 Q1103.64 1510.96 1106.8 1510.13 Q1109.98 1509.31 1113.1 1507.65 L1113.1 1513.19 Q1109.95 1514.53 1106.64 1515.23 Q1103.33 1515.93 1099.92 1515.93 Q1091.39 1515.93 1086.39 1510.96 Q1081.43 1506 1081.43 1497.53 Q1081.43 1488.78 1086.14 1483.65 Q1090.88 1478.5 1098.9 1478.5 Q1106.1 1478.5 1110.26 1483.14 Q1114.47 1487.76 1114.47 1495.72 M1108.61 1494 Q1108.55 1489.19 1105.9 1486.33 Q1103.29 1483.46 1098.97 1483.46 Q1094.06 1483.46 1091.1 1486.23 Q1088.18 1489 1087.73 1494.03 L1108.61 1494 Z" fill="#000000" fill-rule="nonzero" fill-opacity="1" /><polyline clip-path="url(#clip652)" style="stroke:#000000; stroke-linecap:round; stroke-linejoin:round; stroke-width:2; stroke-opacity:0.1; fill:none" points="265.302,1382.14 1552.76,1382.14 "/>
<polyline clip-path="url(#clip652)" style="stroke:#000000; stroke-linecap:round; stroke-linejoin:round; stroke-width:2; stroke-opacity:0.1; fill:none" points="265.302,1048.42 1552.76,1048.42 "/>
<polyline clip-path="url(#clip652)" style="stroke:#000000; stroke-linecap:round; stroke-linejoin:round; stroke-width:2; stroke-opacity:0.1; fill:none" points="265.302,714.692 1552.76,714.692 "/>
<polyline clip-path="url(#clip652)" style="stroke:#000000; stroke-linecap:round; stroke-linejoin:round; stroke-width:2; stroke-opacity:0.1; fill:none" points="265.302,380.968 1552.76,380.968 "/>
<polyline clip-path="url(#clip650)" style="stroke:#000000; stroke-linecap:round; stroke-linejoin:round; stroke-width:4; stroke-opacity:1; fill:none" points="265.302,1382.14 265.302,47.2441 "/>
<polyline clip-path="url(#clip650)" style="stroke:#000000; stroke-linecap:round; stroke-linejoin:round; stroke-width:4; stroke-opacity:1; fill:none" points="265.302,1382.14 284.2,1382.14 "/>
<polyline clip-path="url(#clip650)" style="stroke:#000000; stroke-linecap:round; stroke-linejoin:round; stroke-width:4; stroke-opacity:1; fill:none" points="265.302,1048.42 284.2,1048.42 "/>
<polyline clip-path="url(#clip650)" style="stroke:#000000; stroke-linecap:round; stroke-linejoin:round; stroke-width:4; stroke-opacity:1; fill:none" points="265.302,714.692 284.2,714.692 "/>
<polyline clip-path="url(#clip650)" style="stroke:#000000; stroke-linecap:round; stroke-linejoin:round; stroke-width:4; stroke-opacity:1; fill:none" points="265.302,380.968 284.2,380.968 "/>
<path clip-path="url(#clip650)" d="M153.965 1367.94 Q150.353 1367.94 148.525 1371.5 Q146.719 1375.04 146.719 1382.17 Q146.719 1389.28 148.525 1392.85 Q150.353 1396.39 153.965 1396.39 Q157.599 1396.39 159.404 1392.85 Q161.233 1389.28 161.233 1382.17 Q161.233 1375.04 159.404 1371.5 Q157.599 1367.94 153.965 1367.94 M153.965 1364.23 Q159.775 1364.23 162.83 1368.84 Q165.909 1373.42 165.909 1382.17 Q165.909 1390.9 162.83 1395.51 Q159.775 1400.09 153.965 1400.09 Q148.154 1400.09 145.076 1395.51 Q142.02 1390.9 142.02 1382.17 Q142.02 1373.42 145.076 1368.84 Q148.154 1364.23 153.965 1364.23 Z" fill="#000000" fill-rule="nonzero" fill-opacity="1" /><path clip-path="url(#clip650)" d="M174.126 1393.54 L179.011 1393.54 L179.011 1399.42 L174.126 1399.42 L174.126 1393.54 Z" fill="#000000" fill-rule="nonzero" fill-opacity="1" /><path clip-path="url(#clip650)" d="M199.196 1367.94 Q195.585 1367.94 193.756 1371.5 Q191.95 1375.04 191.95 1382.17 Q191.95 1389.28 193.756 1392.85 Q195.585 1396.39 199.196 1396.39 Q202.83 1396.39 204.636 1392.85 Q206.464 1389.28 206.464 1382.17 Q206.464 1375.04 204.636 1371.5 Q202.83 1367.94 199.196 1367.94 M199.196 1364.23 Q205.006 1364.23 208.061 1368.84 Q211.14 1373.42 211.14 1382.17 Q211.14 1390.9 208.061 1395.51 Q205.006 1400.09 199.196 1400.09 Q193.386 1400.09 190.307 1395.51 Q187.251 1390.9 187.251 1382.17 Q187.251 1373.42 190.307 1368.84 Q193.386 1364.23 199.196 1364.23 Z" fill="#000000" fill-rule="nonzero" fill-opacity="1" /><path clip-path="url(#clip650)" d="M229.358 1367.94 Q225.747 1367.94 223.918 1371.5 Q222.112 1375.04 222.112 1382.17 Q222.112 1389.28 223.918 1392.85 Q225.747 1396.39 229.358 1396.39 Q232.992 1396.39 234.797 1392.85 Q236.626 1389.28 236.626 1382.17 Q236.626 1375.04 234.797 1371.5 Q232.992 1367.94 229.358 1367.94 M229.358 1364.23 Q235.168 1364.23 238.223 1368.84 Q241.302 1373.42 241.302 1382.17 Q241.302 1390.9 238.223 1395.51 Q235.168 1400.09 229.358 1400.09 Q223.547 1400.09 220.469 1395.51 Q217.413 1390.9 217.413 1382.17 Q217.413 1373.42 220.469 1368.84 Q223.547 1364.23 229.358 1364.23 Z" fill="#000000" fill-rule="nonzero" fill-opacity="1" /><path clip-path="url(#clip650)" d="M154.96 1034.21 Q151.349 1034.21 149.52 1037.78 Q147.715 1041.32 147.715 1048.45 Q147.715 1055.56 149.52 1059.12 Q151.349 1062.66 154.96 1062.66 Q158.594 1062.66 160.4 1059.12 Q162.228 1055.56 162.228 1048.45 Q162.228 1041.32 160.4 1037.78 Q158.594 1034.21 154.96 1034.21 M154.96 1030.51 Q160.77 1030.51 163.826 1035.12 Q166.904 1039.7 166.904 1048.45 Q166.904 1057.18 163.826 1061.78 Q160.77 1066.37 154.96 1066.37 Q149.15 1066.37 146.071 1061.78 Q143.016 1057.18 143.016 1048.45 Q143.016 1039.7 146.071 1035.12 Q149.15 1030.51 154.96 1030.51 Z" fill="#000000" fill-rule="nonzero" fill-opacity="1" /><path clip-path="url(#clip650)" d="M175.122 1059.82 L180.006 1059.82 L180.006 1065.7 L175.122 1065.7 L175.122 1059.82 Z" fill="#000000" fill-rule="nonzero" fill-opacity="1" /><path clip-path="url(#clip650)" d="M200.191 1034.21 Q196.58 1034.21 194.751 1037.78 Q192.946 1041.32 192.946 1048.45 Q192.946 1055.56 194.751 1059.12 Q196.58 1062.66 200.191 1062.66 Q203.825 1062.66 205.631 1059.12 Q207.46 1055.56 207.46 1048.45 Q207.46 1041.32 205.631 1037.78 Q203.825 1034.21 200.191 1034.21 M200.191 1030.51 Q206.001 1030.51 209.057 1035.12 Q212.136 1039.7 212.136 1048.45 Q212.136 1057.18 209.057 1061.78 Q206.001 1066.37 200.191 1066.37 Q194.381 1066.37 191.302 1061.78 Q188.247 1057.18 188.247 1048.45 Q188.247 1039.7 191.302 1035.12 Q194.381 1030.51 200.191 1030.51 Z" fill="#000000" fill-rule="nonzero" fill-opacity="1" /><path clip-path="url(#clip650)" d="M220.399 1031.14 L238.756 1031.14 L238.756 1035.07 L224.682 1035.07 L224.682 1043.54 Q225.7 1043.2 226.719 1043.03 Q227.737 1042.85 228.756 1042.85 Q234.543 1042.85 237.922 1046.02 Q241.302 1049.19 241.302 1054.61 Q241.302 1060.19 237.83 1063.29 Q234.358 1066.37 228.038 1066.37 Q225.862 1066.37 223.594 1066 Q221.348 1065.63 218.941 1064.89 L218.941 1060.19 Q221.024 1061.32 223.247 1061.88 Q225.469 1062.43 227.946 1062.43 Q231.95 1062.43 234.288 1060.33 Q236.626 1058.22 236.626 1054.61 Q236.626 1051 234.288 1048.89 Q231.95 1046.78 227.946 1046.78 Q226.071 1046.78 224.196 1047.2 Q222.344 1047.62 220.399 1048.5 L220.399 1031.14 Z" fill="#000000" fill-rule="nonzero" fill-opacity="1" /><path clip-path="url(#clip650)" d="M153.965 700.491 Q150.353 700.491 148.525 704.055 Q146.719 707.597 146.719 714.727 Q146.719 721.833 148.525 725.398 Q150.353 728.94 153.965 728.94 Q157.599 728.94 159.404 725.398 Q161.233 721.833 161.233 714.727 Q161.233 707.597 159.404 704.055 Q157.599 700.491 153.965 700.491 M153.965 696.787 Q159.775 696.787 162.83 701.393 Q165.909 705.977 165.909 714.727 Q165.909 723.453 162.83 728.06 Q159.775 732.643 153.965 732.643 Q148.154 732.643 145.076 728.06 Q142.02 723.453 142.02 714.727 Q142.02 705.977 145.076 701.393 Q148.154 696.787 153.965 696.787 Z" fill="#000000" fill-rule="nonzero" fill-opacity="1" /><path clip-path="url(#clip650)" d="M174.126 726.092 L179.011 726.092 L179.011 731.972 L174.126 731.972 L174.126 726.092 Z" fill="#000000" fill-rule="nonzero" fill-opacity="1" /><path clip-path="url(#clip650)" d="M190.006 728.037 L197.645 728.037 L197.645 701.671 L189.335 703.338 L189.335 699.079 L197.599 697.412 L202.274 697.412 L202.274 728.037 L209.913 728.037 L209.913 731.972 L190.006 731.972 L190.006 728.037 Z" fill="#000000" fill-rule="nonzero" fill-opacity="1" /><path clip-path="url(#clip650)" d="M229.358 700.491 Q225.747 700.491 223.918 704.055 Q222.112 707.597 222.112 714.727 Q222.112 721.833 223.918 725.398 Q225.747 728.94 229.358 728.94 Q232.992 728.94 234.797 725.398 Q236.626 721.833 236.626 714.727 Q236.626 707.597 234.797 704.055 Q232.992 700.491 229.358 700.491 M229.358 696.787 Q235.168 696.787 238.223 701.393 Q241.302 705.977 241.302 714.727 Q241.302 723.453 238.223 728.06 Q235.168 732.643 229.358 732.643 Q223.547 732.643 220.469 728.06 Q217.413 723.453 217.413 714.727 Q217.413 705.977 220.469 701.393 Q223.547 696.787 229.358 696.787 Z" fill="#000000" fill-rule="nonzero" fill-opacity="1" /><path clip-path="url(#clip650)" d="M154.96 366.767 Q151.349 366.767 149.52 370.332 Q147.715 373.873 147.715 381.003 Q147.715 388.109 149.52 391.674 Q151.349 395.216 154.96 395.216 Q158.594 395.216 160.4 391.674 Q162.228 388.109 162.228 381.003 Q162.228 373.873 160.4 370.332 Q158.594 366.767 154.96 366.767 M154.96 363.063 Q160.77 363.063 163.826 367.669 Q166.904 372.253 166.904 381.003 Q166.904 389.73 163.826 394.336 Q160.77 398.919 154.96 398.919 Q149.15 398.919 146.071 394.336 Q143.016 389.73 143.016 381.003 Q143.016 372.253 146.071 367.669 Q149.15 363.063 154.96 363.063 Z" fill="#000000" fill-rule="nonzero" fill-opacity="1" /><path clip-path="url(#clip650)" d="M175.122 392.368 L180.006 392.368 L180.006 398.248 L175.122 398.248 L175.122 392.368 Z" fill="#000000" fill-rule="nonzero" fill-opacity="1" /><path clip-path="url(#clip650)" d="M191.001 394.313 L198.64 394.313 L198.64 367.947 L190.33 369.614 L190.33 365.355 L198.594 363.688 L203.27 363.688 L203.27 394.313 L210.909 394.313 L210.909 398.248 L191.001 398.248 L191.001 394.313 Z" fill="#000000" fill-rule="nonzero" fill-opacity="1" /><path clip-path="url(#clip650)" d="M220.399 363.688 L238.756 363.688 L238.756 367.623 L224.682 367.623 L224.682 376.095 Q225.7 375.748 226.719 375.586 Q227.737 375.401 228.756 375.401 Q234.543 375.401 237.922 378.572 Q241.302 381.743 241.302 387.16 Q241.302 392.739 237.83 395.841 Q234.358 398.919 228.038 398.919 Q225.862 398.919 223.594 398.549 Q221.348 398.179 218.941 397.438 L218.941 392.739 Q221.024 393.873 223.247 394.429 Q225.469 394.984 227.946 394.984 Q231.95 394.984 234.288 392.878 Q236.626 390.771 236.626 387.16 Q236.626 383.549 234.288 381.443 Q231.95 379.336 227.946 379.336 Q226.071 379.336 224.196 379.753 Q222.344 380.169 220.399 381.049 L220.399 363.688 Z" fill="#000000" fill-rule="nonzero" fill-opacity="1" /><path clip-path="url(#clip650)" d="M98.3533 784.508 L98.3533 763.501 L61.655 763.501 L61.655 778.938 L68.4027 778.938 Q84.2851 778.938 94.8203 782.503 Q96.9847 783.235 98.3533 784.508 M98.3533 793.897 Q96.3481 789.632 92.5287 788.423 Q82.7255 785.335 65.2198 785.335 L56.2442 785.335 L56.2442 757.072 L98.3533 757.072 L98.3533 751.661 L113.981 751.661 L113.981 757.072 L103.764 757.072 L103.764 790.746 L113.981 790.746 L113.981 796.157 L98.3533 796.157 L98.3533 793.897 Z" fill="#000000" fill-rule="nonzero" fill-opacity="1" /><path clip-path="url(#clip650)" d="M72.2221 728.49 Q72.2221 733.2 75.9142 735.938 Q79.5745 738.675 85.972 738.675 Q92.3695 738.675 96.0617 735.969 Q99.7219 733.232 99.7219 728.49 Q99.7219 723.811 96.0298 721.074 Q92.3377 718.336 85.972 718.336 Q79.6381 718.336 75.946 721.074 Q72.2221 723.811 72.2221 728.49 M67.2568 728.49 Q67.2568 720.851 72.2221 716.49 Q77.1873 712.13 85.972 712.13 Q94.7249 712.13 99.7219 716.49 Q104.687 720.851 104.687 728.49 Q104.687 736.16 99.7219 740.521 Q94.7249 744.85 85.972 744.85 Q77.1873 744.85 72.2221 740.521 Q67.2568 736.16 67.2568 728.49 Z" fill="#000000" fill-rule="nonzero" fill-opacity="1" /><path clip-path="url(#clip650)" d="M103.764 706.146 L98.8944 706.146 Q98.0032 700.353 93.9928 698.571 Q88.3591 696.406 73.9408 696.406 L68.1162 696.406 L68.1162 672.312 L103.764 672.312 L103.764 678.169 L72.795 678.169 L72.795 690.55 L76.328 690.55 Q90.0779 690.55 96.2526 693.351 Q102.841 696.343 103.764 706.146 Z" fill="#000000" fill-rule="nonzero" fill-opacity="1" /><path clip-path="url(#clip650)" d="M78.3968 654.87 Q81.0386 654.87 82.5345 652.833 Q84.0305 650.796 84.0305 647.009 L84.0305 639.115 L72.795 639.115 L72.795 647.009 Q72.795 650.796 74.2591 652.833 Q75.7232 654.87 78.3968 654.87 M103.764 663.209 L88.1363 652.324 Q87.3088 656.016 85.1445 658.467 Q82.9483 660.918 78.3968 660.918 Q73.2406 660.918 70.6943 657.512 Q68.1162 654.075 68.1162 647.168 L68.1162 633.227 L103.764 633.227 L103.764 639.115 L88.7093 639.115 L88.7093 646.404 L103.764 656.907 L103.764 663.209 Z" fill="#000000" fill-rule="nonzero" fill-opacity="1" /><path clip-path="url(#clip652)" d="M336.114 1370.15 L336.114 1382.14 L359.031 1382.14 L359.031 1370.15 L336.114 1370.15 L336.114 1370.15  Z" fill="#009af9" fill-rule="evenodd" fill-opacity="1"/>
<polyline clip-path="url(#clip652)" style="stroke:#000000; stroke-linecap:round; stroke-linejoin:round; stroke-width:4; stroke-opacity:1; fill:none" points="336.114,1370.15 336.114,1382.14 359.031,1382.14 359.031,1370.15 336.114,1370.15 "/>
<path clip-path="url(#clip652)" d="M359.031 1358.15 L359.031 1382.14 L381.947 1382.14 L381.947 1358.15 L359.031 1358.15 L359.031 1358.15  Z" fill="#009af9" fill-rule="evenodd" fill-opacity="1"/>
<polyline clip-path="url(#clip652)" style="stroke:#000000; stroke-linecap:round; stroke-linejoin:round; stroke-width:4; stroke-opacity:1; fill:none" points="359.031,1358.15 359.031,1382.14 381.947,1382.14 381.947,1358.15 359.031,1358.15 "/>
<path clip-path="url(#clip652)" d="M381.947 1370.15 L381.947 1382.14 L404.864 1382.14 L404.864 1370.15 L381.947 1370.15 L381.947 1370.15  Z" fill="#009af9" fill-rule="evenodd" fill-opacity="1"/>
<polyline clip-path="url(#clip652)" style="stroke:#000000; stroke-linecap:round; stroke-linejoin:round; stroke-width:4; stroke-opacity:1; fill:none" points="381.947,1370.15 381.947,1382.14 404.864,1382.14 404.864,1370.15 381.947,1370.15 "/>
<path clip-path="url(#clip652)" d="M404.864 1370.15 L404.864 1382.14 L427.781 1382.14 L427.781 1370.15 L404.864 1370.15 L404.864 1370.15  Z" fill="#009af9" fill-rule="evenodd" fill-opacity="1"/>
<polyline clip-path="url(#clip652)" style="stroke:#000000; stroke-linecap:round; stroke-linejoin:round; stroke-width:4; stroke-opacity:1; fill:none" points="404.864,1370.15 404.864,1382.14 427.781,1382.14 427.781,1370.15 404.864,1370.15 "/>
<path clip-path="url(#clip652)" d="M427.781 1364.15 L427.781 1382.14 L450.697 1382.14 L450.697 1364.15 L427.781 1364.15 L427.781 1364.15  Z" fill="#009af9" fill-rule="evenodd" fill-opacity="1"/>
<polyline clip-path="url(#clip652)" style="stroke:#000000; stroke-linecap:round; stroke-linejoin:round; stroke-width:4; stroke-opacity:1; fill:none" points="427.781,1364.15 427.781,1382.14 450.697,1382.14 450.697,1364.15 427.781,1364.15 "/>
<path clip-path="url(#clip652)" d="M450.697 1370.15 L450.697 1382.14 L473.614 1382.14 L473.614 1370.15 L450.697 1370.15 L450.697 1370.15  Z" fill="#009af9" fill-rule="evenodd" fill-opacity="1"/>
<polyline clip-path="url(#clip652)" style="stroke:#000000; stroke-linecap:round; stroke-linejoin:round; stroke-width:4; stroke-opacity:1; fill:none" points="450.697,1370.15 450.697,1382.14 473.614,1382.14 473.614,1370.15 450.697,1370.15 "/>
<path clip-path="url(#clip652)" d="M473.614 1346.16 L473.614 1382.14 L496.53 1382.14 L496.53 1346.16 L473.614 1346.16 L473.614 1346.16  Z" fill="#009af9" fill-rule="evenodd" fill-opacity="1"/>
<polyline clip-path="url(#clip652)" style="stroke:#000000; stroke-linecap:round; stroke-linejoin:round; stroke-width:4; stroke-opacity:1; fill:none" points="473.614,1346.16 473.614,1382.14 496.53,1382.14 496.53,1346.16 473.614,1346.16 "/>
<path clip-path="url(#clip652)" d="M496.53 1370.15 L496.53 1382.14 L519.447 1382.14 L519.447 1370.15 L496.53 1370.15 L496.53 1370.15  Z" fill="#009af9" fill-rule="evenodd" fill-opacity="1"/>
<polyline clip-path="url(#clip652)" style="stroke:#000000; stroke-linecap:round; stroke-linejoin:round; stroke-width:4; stroke-opacity:1; fill:none" points="496.53,1370.15 496.53,1382.14 519.447,1382.14 519.447,1370.15 496.53,1370.15 "/>
<path clip-path="url(#clip652)" d="M519.447 1358.15 L519.447 1382.14 L542.364 1382.14 L542.364 1358.15 L519.447 1358.15 L519.447 1358.15  Z" fill="#009af9" fill-rule="evenodd" fill-opacity="1"/>
<polyline clip-path="url(#clip652)" style="stroke:#000000; stroke-linecap:round; stroke-linejoin:round; stroke-width:4; stroke-opacity:1; fill:none" points="519.447,1358.15 519.447,1382.14 542.364,1382.14 542.364,1358.15 519.447,1358.15 "/>
<path clip-path="url(#clip652)" d="M542.364 1328.17 L542.364 1382.14 L565.28 1382.14 L565.28 1328.17 L542.364 1328.17 L542.364 1328.17  Z" fill="#009af9" fill-rule="evenodd" fill-opacity="1"/>
<polyline clip-path="url(#clip652)" style="stroke:#000000; stroke-linecap:round; stroke-linejoin:round; stroke-width:4; stroke-opacity:1; fill:none" points="542.364,1328.17 542.364,1382.14 565.28,1382.14 565.28,1328.17 542.364,1328.17 "/>
<path clip-path="url(#clip652)" d="M565.28 1340.16 L565.28 1382.14 L588.197 1382.14 L588.197 1340.16 L565.28 1340.16 L565.28 1340.16  Z" fill="#009af9" fill-rule="evenodd" fill-opacity="1"/>
<polyline clip-path="url(#clip652)" style="stroke:#000000; stroke-linecap:round; stroke-linejoin:round; stroke-width:4; stroke-opacity:1; fill:none" points="565.28,1340.16 565.28,1382.14 588.197,1382.14 588.197,1340.16 565.28,1340.16 "/>
<path clip-path="url(#clip652)" d="M588.197 1322.17 L588.197 1382.14 L611.113 1382.14 L611.113 1322.17 L588.197 1322.17 L588.197 1322.17  Z" fill="#009af9" fill-rule="evenodd" fill-opacity="1"/>
<polyline clip-path="url(#clip652)" style="stroke:#000000; stroke-linecap:round; stroke-linejoin:round; stroke-width:4; stroke-opacity:1; fill:none" points="588.197,1322.17 588.197,1382.14 611.113,1382.14 611.113,1322.17 588.197,1322.17 "/>
<path clip-path="url(#clip652)" d="M611.113 1352.16 L611.113 1382.14 L634.03 1382.14 L634.03 1352.16 L611.113 1352.16 L611.113 1352.16  Z" fill="#009af9" fill-rule="evenodd" fill-opacity="1"/>
<polyline clip-path="url(#clip652)" style="stroke:#000000; stroke-linecap:round; stroke-linejoin:round; stroke-width:4; stroke-opacity:1; fill:none" points="611.113,1352.16 611.113,1382.14 634.03,1382.14 634.03,1352.16 611.113,1352.16 "/>
<path clip-path="url(#clip652)" d="M634.03 1310.18 L634.03 1382.14 L656.947 1382.14 L656.947 1310.18 L634.03 1310.18 L634.03 1310.18  Z" fill="#009af9" fill-rule="evenodd" fill-opacity="1"/>
<polyline clip-path="url(#clip652)" style="stroke:#000000; stroke-linecap:round; stroke-linejoin:round; stroke-width:4; stroke-opacity:1; fill:none" points="634.03,1310.18 634.03,1382.14 656.947,1382.14 656.947,1310.18 634.03,1310.18 "/>
<path clip-path="url(#clip652)" d="M656.947 1328.17 L656.947 1382.14 L679.863 1382.14 L679.863 1328.17 L656.947 1328.17 L656.947 1328.17  Z" fill="#009af9" fill-rule="evenodd" fill-opacity="1"/>
<polyline clip-path="url(#clip652)" style="stroke:#000000; stroke-linecap:round; stroke-linejoin:round; stroke-width:4; stroke-opacity:1; fill:none" points="656.947,1328.17 656.947,1382.14 679.863,1382.14 679.863,1328.17 656.947,1328.17 "/>
<path clip-path="url(#clip652)" d="M679.863 1346.16 L679.863 1382.14 L702.78 1382.14 L702.78 1346.16 L679.863 1346.16 L679.863 1346.16  Z" fill="#009af9" fill-rule="evenodd" fill-opacity="1"/>
<polyline clip-path="url(#clip652)" style="stroke:#000000; stroke-linecap:round; stroke-linejoin:round; stroke-width:4; stroke-opacity:1; fill:none" points="679.863,1346.16 679.863,1382.14 702.78,1382.14 702.78,1346.16 679.863,1346.16 "/>
<path clip-path="url(#clip652)" d="M702.78 1274.2 L702.78 1382.14 L725.696 1382.14 L725.696 1274.2 L702.78 1274.2 L702.78 1274.2  Z" fill="#009af9" fill-rule="evenodd" fill-opacity="1"/>
<polyline clip-path="url(#clip652)" style="stroke:#000000; stroke-linecap:round; stroke-linejoin:round; stroke-width:4; stroke-opacity:1; fill:none" points="702.78,1274.2 702.78,1382.14 725.696,1382.14 725.696,1274.2 702.78,1274.2 "/>
<path clip-path="url(#clip652)" d="M725.696 1238.22 L725.696 1382.14 L748.613 1382.14 L748.613 1238.22 L725.696 1238.22 L725.696 1238.22  Z" fill="#009af9" fill-rule="evenodd" fill-opacity="1"/>
<polyline clip-path="url(#clip652)" style="stroke:#000000; stroke-linecap:round; stroke-linejoin:round; stroke-width:4; stroke-opacity:1; fill:none" points="725.696,1238.22 725.696,1382.14 748.613,1382.14 748.613,1238.22 725.696,1238.22 "/>
<path clip-path="url(#clip652)" d="M748.613 1280.19 L748.613 1382.14 L771.529 1382.14 L771.529 1280.19 L748.613 1280.19 L748.613 1280.19  Z" fill="#009af9" fill-rule="evenodd" fill-opacity="1"/>
<polyline clip-path="url(#clip652)" style="stroke:#000000; stroke-linecap:round; stroke-linejoin:round; stroke-width:4; stroke-opacity:1; fill:none" points="748.613,1280.19 748.613,1382.14 771.529,1382.14 771.529,1280.19 748.613,1280.19 "/>
<path clip-path="url(#clip652)" d="M771.529 1274.2 L771.529 1382.14 L794.446 1382.14 L794.446 1274.2 L771.529 1274.2 L771.529 1274.2  Z" fill="#009af9" fill-rule="evenodd" fill-opacity="1"/>
<polyline clip-path="url(#clip652)" style="stroke:#000000; stroke-linecap:round; stroke-linejoin:round; stroke-width:4; stroke-opacity:1; fill:none" points="771.529,1274.2 771.529,1382.14 794.446,1382.14 794.446,1274.2 771.529,1274.2 "/>
<path clip-path="url(#clip652)" d="M794.446 1244.21 L794.446 1382.14 L817.363 1382.14 L817.363 1244.21 L794.446 1244.21 L794.446 1244.21  Z" fill="#009af9" fill-rule="evenodd" fill-opacity="1"/>
<polyline clip-path="url(#clip652)" style="stroke:#000000; stroke-linecap:round; stroke-linejoin:round; stroke-width:4; stroke-opacity:1; fill:none" points="794.446,1244.21 794.446,1382.14 817.363,1382.14 817.363,1244.21 794.446,1244.21 "/>
<path clip-path="url(#clip652)" d="M817.363 1100.29 L817.363 1382.14 L840.279 1382.14 L840.279 1100.29 L817.363 1100.29 L817.363 1100.29  Z" fill="#009af9" fill-rule="evenodd" fill-opacity="1"/>
<polyline clip-path="url(#clip652)" style="stroke:#000000; stroke-linecap:round; stroke-linejoin:round; stroke-width:4; stroke-opacity:1; fill:none" points="817.363,1100.29 817.363,1382.14 840.279,1382.14 840.279,1100.29 817.363,1100.29 "/>
<path clip-path="url(#clip652)" d="M840.279 1004.34 L840.279 1382.14 L863.196 1382.14 L863.196 1004.34 L840.279 1004.34 L840.279 1004.34  Z" fill="#009af9" fill-rule="evenodd" fill-opacity="1"/>
<polyline clip-path="url(#clip652)" style="stroke:#000000; stroke-linecap:round; stroke-linejoin:round; stroke-width:4; stroke-opacity:1; fill:none" points="840.279,1004.34 840.279,1382.14 863.196,1382.14 863.196,1004.34 840.279,1004.34 "/>
<path clip-path="url(#clip652)" d="M863.196 872.409 L863.196 1382.14 L886.112 1382.14 L886.112 872.409 L863.196 872.409 L863.196 872.409  Z" fill="#009af9" fill-rule="evenodd" fill-opacity="1"/>
<polyline clip-path="url(#clip652)" style="stroke:#000000; stroke-linecap:round; stroke-linejoin:round; stroke-width:4; stroke-opacity:1; fill:none" points="863.196,872.409 863.196,1382.14 886.112,1382.14 886.112,872.409 863.196,872.409 "/>
<path clip-path="url(#clip652)" d="M886.112 302.709 L886.112 1382.14 L909.029 1382.14 L909.029 302.709 L886.112 302.709 L886.112 302.709  Z" fill="#009af9" fill-rule="evenodd" fill-opacity="1"/>
<polyline clip-path="url(#clip652)" style="stroke:#000000; stroke-linecap:round; stroke-linejoin:round; stroke-width:4; stroke-opacity:1; fill:none" points="886.112,302.709 886.112,1382.14 909.029,1382.14 909.029,302.709 886.112,302.709 "/>
<path clip-path="url(#clip652)" d="M909.029 260.731 L909.029 1382.14 L931.946 1382.14 L931.946 260.731 L909.029 260.731 L909.029 260.731  Z" fill="#009af9" fill-rule="evenodd" fill-opacity="1"/>
<polyline clip-path="url(#clip652)" style="stroke:#000000; stroke-linecap:round; stroke-linejoin:round; stroke-width:4; stroke-opacity:1; fill:none" points="909.029,260.731 909.029,1382.14 931.946,1382.14 931.946,260.731 909.029,260.731 "/>
<path clip-path="url(#clip652)" d="M931.946 746.475 L931.946 1382.14 L954.862 1382.14 L954.862 746.475 L931.946 746.475 L931.946 746.475  Z" fill="#009af9" fill-rule="evenodd" fill-opacity="1"/>
<polyline clip-path="url(#clip652)" style="stroke:#000000; stroke-linecap:round; stroke-linejoin:round; stroke-width:4; stroke-opacity:1; fill:none" points="931.946,746.475 931.946,1382.14 954.862,1382.14 954.862,746.475 931.946,746.475 "/>
<path clip-path="url(#clip652)" d="M954.862 974.355 L954.862 1382.14 L977.779 1382.14 L977.779 974.355 L954.862 974.355 L954.862 974.355  Z" fill="#009af9" fill-rule="evenodd" fill-opacity="1"/>
<polyline clip-path="url(#clip652)" style="stroke:#000000; stroke-linecap:round; stroke-linejoin:round; stroke-width:4; stroke-opacity:1; fill:none" points="954.862,974.355 954.862,1382.14 977.779,1382.14 977.779,974.355 954.862,974.355 "/>
<path clip-path="url(#clip652)" d="M977.779 1100.29 L977.779 1382.14 L1000.7 1382.14 L1000.7 1100.29 L977.779 1100.29 L977.779 1100.29  Z" fill="#009af9" fill-rule="evenodd" fill-opacity="1"/>
<polyline clip-path="url(#clip652)" style="stroke:#000000; stroke-linecap:round; stroke-linejoin:round; stroke-width:4; stroke-opacity:1; fill:none" points="977.779,1100.29 977.779,1382.14 1000.7,1382.14 1000.7,1100.29 977.779,1100.29 "/>
<path clip-path="url(#clip652)" d="M1000.7 1250.21 L1000.7 1382.14 L1023.61 1382.14 L1023.61 1250.21 L1000.7 1250.21 L1000.7 1250.21  Z" fill="#009af9" fill-rule="evenodd" fill-opacity="1"/>
<polyline clip-path="url(#clip652)" style="stroke:#000000; stroke-linecap:round; stroke-linejoin:round; stroke-width:4; stroke-opacity:1; fill:none" points="1000.7,1250.21 1000.7,1382.14 1023.61,1382.14 1023.61,1250.21 1000.7,1250.21 "/>
<path clip-path="url(#clip652)" d="M1023.61 1244.21 L1023.61 1382.14 L1046.53 1382.14 L1046.53 1244.21 L1023.61 1244.21 L1023.61 1244.21  Z" fill="#009af9" fill-rule="evenodd" fill-opacity="1"/>
<polyline clip-path="url(#clip652)" style="stroke:#000000; stroke-linecap:round; stroke-linejoin:round; stroke-width:4; stroke-opacity:1; fill:none" points="1023.61,1244.21 1023.61,1382.14 1046.53,1382.14 1046.53,1244.21 1023.61,1244.21 "/>
<path clip-path="url(#clip652)" d="M1046.53 1238.22 L1046.53 1382.14 L1069.45 1382.14 L1069.45 1238.22 L1046.53 1238.22 L1046.53 1238.22  Z" fill="#009af9" fill-rule="evenodd" fill-opacity="1"/>
<polyline clip-path="url(#clip652)" style="stroke:#000000; stroke-linecap:round; stroke-linejoin:round; stroke-width:4; stroke-opacity:1; fill:none" points="1046.53,1238.22 1046.53,1382.14 1069.45,1382.14 1069.45,1238.22 1046.53,1238.22 "/>
<path clip-path="url(#clip652)" d="M1069.45 1298.18 L1069.45 1382.14 L1092.36 1382.14 L1092.36 1298.18 L1069.45 1298.18 L1069.45 1298.18  Z" fill="#009af9" fill-rule="evenodd" fill-opacity="1"/>
<polyline clip-path="url(#clip652)" style="stroke:#000000; stroke-linecap:round; stroke-linejoin:round; stroke-width:4; stroke-opacity:1; fill:none" points="1069.45,1298.18 1069.45,1382.14 1092.36,1382.14 1092.36,1298.18 1069.45,1298.18 "/>
<path clip-path="url(#clip652)" d="M1092.36 1322.17 L1092.36 1382.14 L1115.28 1382.14 L1115.28 1322.17 L1092.36 1322.17 L1092.36 1322.17  Z" fill="#009af9" fill-rule="evenodd" fill-opacity="1"/>
<polyline clip-path="url(#clip652)" style="stroke:#000000; stroke-linecap:round; stroke-linejoin:round; stroke-width:4; stroke-opacity:1; fill:none" points="1092.36,1322.17 1092.36,1382.14 1115.28,1382.14 1115.28,1322.17 1092.36,1322.17 "/>
<path clip-path="url(#clip652)" d="M1115.28 1328.17 L1115.28 1382.14 L1138.19 1382.14 L1138.19 1328.17 L1115.28 1328.17 L1115.28 1328.17  Z" fill="#009af9" fill-rule="evenodd" fill-opacity="1"/>
<polyline clip-path="url(#clip652)" style="stroke:#000000; stroke-linecap:round; stroke-linejoin:round; stroke-width:4; stroke-opacity:1; fill:none" points="1115.28,1328.17 1115.28,1382.14 1138.19,1382.14 1138.19,1328.17 1115.28,1328.17 "/>
<path clip-path="url(#clip652)" d="M1138.19 1346.16 L1138.19 1382.14 L1161.11 1382.14 L1161.11 1346.16 L1138.19 1346.16 L1138.19 1346.16  Z" fill="#009af9" fill-rule="evenodd" fill-opacity="1"/>
<polyline clip-path="url(#clip652)" style="stroke:#000000; stroke-linecap:round; stroke-linejoin:round; stroke-width:4; stroke-opacity:1; fill:none" points="1138.19,1346.16 1138.19,1382.14 1161.11,1382.14 1161.11,1346.16 1138.19,1346.16 "/>
<path clip-path="url(#clip652)" d="M1161.11 1346.16 L1161.11 1382.14 L1184.03 1382.14 L1184.03 1346.16 L1161.11 1346.16 L1161.11 1346.16  Z" fill="#009af9" fill-rule="evenodd" fill-opacity="1"/>
<polyline clip-path="url(#clip652)" style="stroke:#000000; stroke-linecap:round; stroke-linejoin:round; stroke-width:4; stroke-opacity:1; fill:none" points="1161.11,1346.16 1161.11,1382.14 1184.03,1382.14 1184.03,1346.16 1161.11,1346.16 "/>
<path clip-path="url(#clip652)" d="M1184.03 1340.16 L1184.03 1382.14 L1206.94 1382.14 L1206.94 1340.16 L1184.03 1340.16 L1184.03 1340.16  Z" fill="#009af9" fill-rule="evenodd" fill-opacity="1"/>
<polyline clip-path="url(#clip652)" style="stroke:#000000; stroke-linecap:round; stroke-linejoin:round; stroke-width:4; stroke-opacity:1; fill:none" points="1184.03,1340.16 1184.03,1382.14 1206.94,1382.14 1206.94,1340.16 1184.03,1340.16 "/>
<path clip-path="url(#clip652)" d="M1206.94 1358.15 L1206.94 1382.14 L1229.86 1382.14 L1229.86 1358.15 L1206.94 1358.15 L1206.94 1358.15  Z" fill="#009af9" fill-rule="evenodd" fill-opacity="1"/>
<polyline clip-path="url(#clip652)" style="stroke:#000000; stroke-linecap:round; stroke-linejoin:round; stroke-width:4; stroke-opacity:1; fill:none" points="1206.94,1358.15 1206.94,1382.14 1229.86,1382.14 1229.86,1358.15 1206.94,1358.15 "/>
<path clip-path="url(#clip652)" d="M1229.86 1352.16 L1229.86 1382.14 L1252.78 1382.14 L1252.78 1352.16 L1229.86 1352.16 L1229.86 1352.16  Z" fill="#009af9" fill-rule="evenodd" fill-opacity="1"/>
<polyline clip-path="url(#clip652)" style="stroke:#000000; stroke-linecap:round; stroke-linejoin:round; stroke-width:4; stroke-opacity:1; fill:none" points="1229.86,1352.16 1229.86,1382.14 1252.78,1382.14 1252.78,1352.16 1229.86,1352.16 "/>
<path clip-path="url(#clip652)" d="M1252.78 1358.15 L1252.78 1382.14 L1275.69 1382.14 L1275.69 1358.15 L1252.78 1358.15 L1252.78 1358.15  Z" fill="#009af9" fill-rule="evenodd" fill-opacity="1"/>
<polyline clip-path="url(#clip652)" style="stroke:#000000; stroke-linecap:round; stroke-linejoin:round; stroke-width:4; stroke-opacity:1; fill:none" points="1252.78,1358.15 1252.78,1382.14 1275.69,1382.14 1275.69,1358.15 1252.78,1358.15 "/>
<path clip-path="url(#clip652)" d="M1275.69 1364.15 L1275.69 1382.14 L1298.61 1382.14 L1298.61 1364.15 L1275.69 1364.15 L1275.69 1364.15  Z" fill="#009af9" fill-rule="evenodd" fill-opacity="1"/>
<polyline clip-path="url(#clip652)" style="stroke:#000000; stroke-linecap:round; stroke-linejoin:round; stroke-width:4; stroke-opacity:1; fill:none" points="1275.69,1364.15 1275.69,1382.14 1298.61,1382.14 1298.61,1364.15 1275.69,1364.15 "/>
<path clip-path="url(#clip652)" d="M1298.61 1376.14 L1298.61 1382.14 L1321.53 1382.14 L1321.53 1376.14 L1298.61 1376.14 L1298.61 1376.14  Z" fill="#009af9" fill-rule="evenodd" fill-opacity="1"/>
<polyline clip-path="url(#clip652)" style="stroke:#000000; stroke-linecap:round; stroke-linejoin:round; stroke-width:4; stroke-opacity:1; fill:none" points="1298.61,1376.14 1298.61,1382.14 1321.53,1382.14 1321.53,1376.14 1298.61,1376.14 "/>
<path clip-path="url(#clip652)" d="M1321.53 1370.15 L1321.53 1382.14 L1344.44 1382.14 L1344.44 1370.15 L1321.53 1370.15 L1321.53 1370.15  Z" fill="#009af9" fill-rule="evenodd" fill-opacity="1"/>
<polyline clip-path="url(#clip652)" style="stroke:#000000; stroke-linecap:round; stroke-linejoin:round; stroke-width:4; stroke-opacity:1; fill:none" points="1321.53,1370.15 1321.53,1382.14 1344.44,1382.14 1344.44,1370.15 1321.53,1370.15 "/>
<path clip-path="url(#clip652)" d="M1344.44 1382.14 L1344.44 1382.14 L1367.36 1382.14 L1367.36 1382.14 L1344.44 1382.14 L1344.44 1382.14  Z" fill="#009af9" fill-rule="evenodd" fill-opacity="1"/>
<polyline clip-path="url(#clip652)" style="stroke:#000000; stroke-linecap:round; stroke-linejoin:round; stroke-width:4; stroke-opacity:1; fill:none" points="1344.44,1382.14 1344.44,1382.14 1367.36,1382.14 1344.44,1382.14 "/>
<path clip-path="url(#clip652)" d="M1367.36 1364.15 L1367.36 1382.14 L1390.28 1382.14 L1390.28 1364.15 L1367.36 1364.15 L1367.36 1364.15  Z" fill="#009af9" fill-rule="evenodd" fill-opacity="1"/>
<polyline clip-path="url(#clip652)" style="stroke:#000000; stroke-linecap:round; stroke-linejoin:round; stroke-width:4; stroke-opacity:1; fill:none" points="1367.36,1364.15 1367.36,1382.14 1390.28,1382.14 1390.28,1364.15 1367.36,1364.15 "/>
<path clip-path="url(#clip652)" d="M1390.28 1376.14 L1390.28 1382.14 L1413.19 1382.14 L1413.19 1376.14 L1390.28 1376.14 L1390.28 1376.14  Z" fill="#009af9" fill-rule="evenodd" fill-opacity="1"/>
<polyline clip-path="url(#clip652)" style="stroke:#000000; stroke-linecap:round; stroke-linejoin:round; stroke-width:4; stroke-opacity:1; fill:none" points="1390.28,1376.14 1390.28,1382.14 1413.19,1382.14 1413.19,1376.14 1390.28,1376.14 "/>
<path clip-path="url(#clip652)" d="M1413.19 1382.14 L1413.19 1382.14 L1436.11 1382.14 L1436.11 1382.14 L1413.19 1382.14 L1413.19 1382.14  Z" fill="#009af9" fill-rule="evenodd" fill-opacity="1"/>
<polyline clip-path="url(#clip652)" style="stroke:#000000; stroke-linecap:round; stroke-linejoin:round; stroke-width:4; stroke-opacity:1; fill:none" points="1413.19,1382.14 1413.19,1382.14 1436.11,1382.14 1413.19,1382.14 "/>
<path clip-path="url(#clip652)" d="M1436.11 1382.14 L1436.11 1382.14 L1459.03 1382.14 L1459.03 1382.14 L1436.11 1382.14 L1436.11 1382.14  Z" fill="#009af9" fill-rule="evenodd" fill-opacity="1"/>
<polyline clip-path="url(#clip652)" style="stroke:#000000; stroke-linecap:round; stroke-linejoin:round; stroke-width:4; stroke-opacity:1; fill:none" points="1436.11,1382.14 1436.11,1382.14 1459.03,1382.14 1436.11,1382.14 "/>
<path clip-path="url(#clip652)" d="M1459.03 1376.14 L1459.03 1382.14 L1481.94 1382.14 L1481.94 1376.14 L1459.03 1376.14 L1459.03 1376.14  Z" fill="#009af9" fill-rule="evenodd" fill-opacity="1"/>
<polyline clip-path="url(#clip652)" style="stroke:#000000; stroke-linecap:round; stroke-linejoin:round; stroke-width:4; stroke-opacity:1; fill:none" points="1459.03,1376.14 1459.03,1382.14 1481.94,1382.14 1481.94,1376.14 1459.03,1376.14 "/>
<circle clip-path="url(#clip652)" style="fill:#009af9; stroke:none; fill-opacity:0" cx="347.573" cy="1370.15" r="2"/>
<circle clip-path="url(#clip652)" style="fill:#009af9; stroke:none; fill-opacity:0" cx="370.489" cy="1358.15" r="2"/>
<circle clip-path="url(#clip652)" style="fill:#009af9; stroke:none; fill-opacity:0" cx="393.406" cy="1370.15" r="2"/>
<circle clip-path="url(#clip652)" style="fill:#009af9; stroke:none; fill-opacity:0" cx="416.322" cy="1370.15" r="2"/>
<circle clip-path="url(#clip652)" style="fill:#009af9; stroke:none; fill-opacity:0" cx="439.239" cy="1364.15" r="2"/>
<circle clip-path="url(#clip652)" style="fill:#009af9; stroke:none; fill-opacity:0" cx="462.156" cy="1370.15" r="2"/>
<circle clip-path="url(#clip652)" style="fill:#009af9; stroke:none; fill-opacity:0" cx="485.072" cy="1346.16" r="2"/>
<circle clip-path="url(#clip652)" style="fill:#009af9; stroke:none; fill-opacity:0" cx="507.989" cy="1370.15" r="2"/>
<circle clip-path="url(#clip652)" style="fill:#009af9; stroke:none; fill-opacity:0" cx="530.905" cy="1358.15" r="2"/>
<circle clip-path="url(#clip652)" style="fill:#009af9; stroke:none; fill-opacity:0" cx="553.822" cy="1328.17" r="2"/>
<circle clip-path="url(#clip652)" style="fill:#009af9; stroke:none; fill-opacity:0" cx="576.738" cy="1340.16" r="2"/>
<circle clip-path="url(#clip652)" style="fill:#009af9; stroke:none; fill-opacity:0" cx="599.655" cy="1322.17" r="2"/>
<circle clip-path="url(#clip652)" style="fill:#009af9; stroke:none; fill-opacity:0" cx="622.572" cy="1352.16" r="2"/>
<circle clip-path="url(#clip652)" style="fill:#009af9; stroke:none; fill-opacity:0" cx="645.488" cy="1310.18" r="2"/>
<circle clip-path="url(#clip652)" style="fill:#009af9; stroke:none; fill-opacity:0" cx="668.405" cy="1328.17" r="2"/>
<circle clip-path="url(#clip652)" style="fill:#009af9; stroke:none; fill-opacity:0" cx="691.321" cy="1346.16" r="2"/>
<circle clip-path="url(#clip652)" style="fill:#009af9; stroke:none; fill-opacity:0" cx="714.238" cy="1274.2" r="2"/>
<circle clip-path="url(#clip652)" style="fill:#009af9; stroke:none; fill-opacity:0" cx="737.155" cy="1238.22" r="2"/>
<circle clip-path="url(#clip652)" style="fill:#009af9; stroke:none; fill-opacity:0" cx="760.071" cy="1280.19" r="2"/>
<circle clip-path="url(#clip652)" style="fill:#009af9; stroke:none; fill-opacity:0" cx="782.988" cy="1274.2" r="2"/>
<circle clip-path="url(#clip652)" style="fill:#009af9; stroke:none; fill-opacity:0" cx="805.904" cy="1244.21" r="2"/>
<circle clip-path="url(#clip652)" style="fill:#009af9; stroke:none; fill-opacity:0" cx="828.821" cy="1100.29" r="2"/>
<circle clip-path="url(#clip652)" style="fill:#009af9; stroke:none; fill-opacity:0" cx="851.738" cy="1004.34" r="2"/>
<circle clip-path="url(#clip652)" style="fill:#009af9; stroke:none; fill-opacity:0" cx="874.654" cy="872.409" r="2"/>
<circle clip-path="url(#clip652)" style="fill:#009af9; stroke:none; fill-opacity:0" cx="897.571" cy="302.709" r="2"/>
<circle clip-path="url(#clip652)" style="fill:#009af9; stroke:none; fill-opacity:0" cx="920.487" cy="260.731" r="2"/>
<circle clip-path="url(#clip652)" style="fill:#009af9; stroke:none; fill-opacity:0" cx="943.404" cy="746.475" r="2"/>
<circle clip-path="url(#clip652)" style="fill:#009af9; stroke:none; fill-opacity:0" cx="966.32" cy="974.355" r="2"/>
<circle clip-path="url(#clip652)" style="fill:#009af9; stroke:none; fill-opacity:0" cx="989.237" cy="1100.29" r="2"/>
<circle clip-path="url(#clip652)" style="fill:#009af9; stroke:none; fill-opacity:0" cx="1012.15" cy="1250.21" r="2"/>
<circle clip-path="url(#clip652)" style="fill:#009af9; stroke:none; fill-opacity:0" cx="1035.07" cy="1244.21" r="2"/>
<circle clip-path="url(#clip652)" style="fill:#009af9; stroke:none; fill-opacity:0" cx="1057.99" cy="1238.22" r="2"/>
<circle clip-path="url(#clip652)" style="fill:#009af9; stroke:none; fill-opacity:0" cx="1080.9" cy="1298.18" r="2"/>
<circle clip-path="url(#clip652)" style="fill:#009af9; stroke:none; fill-opacity:0" cx="1103.82" cy="1322.17" r="2"/>
<circle clip-path="url(#clip652)" style="fill:#009af9; stroke:none; fill-opacity:0" cx="1126.74" cy="1328.17" r="2"/>
<circle clip-path="url(#clip652)" style="fill:#009af9; stroke:none; fill-opacity:0" cx="1149.65" cy="1346.16" r="2"/>
<circle clip-path="url(#clip652)" style="fill:#009af9; stroke:none; fill-opacity:0" cx="1172.57" cy="1346.16" r="2"/>
<circle clip-path="url(#clip652)" style="fill:#009af9; stroke:none; fill-opacity:0" cx="1195.49" cy="1340.16" r="2"/>
<circle clip-path="url(#clip652)" style="fill:#009af9; stroke:none; fill-opacity:0" cx="1218.4" cy="1358.15" r="2"/>
<circle clip-path="url(#clip652)" style="fill:#009af9; stroke:none; fill-opacity:0" cx="1241.32" cy="1352.16" r="2"/>
<circle clip-path="url(#clip652)" style="fill:#009af9; stroke:none; fill-opacity:0" cx="1264.24" cy="1358.15" r="2"/>
<circle clip-path="url(#clip652)" style="fill:#009af9; stroke:none; fill-opacity:0" cx="1287.15" cy="1364.15" r="2"/>
<circle clip-path="url(#clip652)" style="fill:#009af9; stroke:none; fill-opacity:0" cx="1310.07" cy="1376.14" r="2"/>
<circle clip-path="url(#clip652)" style="fill:#009af9; stroke:none; fill-opacity:0" cx="1332.99" cy="1370.15" r="2"/>
<circle clip-path="url(#clip652)" style="fill:#009af9; stroke:none; fill-opacity:0" cx="1355.9" cy="1382.14" r="2"/>
<circle clip-path="url(#clip652)" style="fill:#009af9; stroke:none; fill-opacity:0" cx="1378.82" cy="1364.15" r="2"/>
<circle clip-path="url(#clip652)" style="fill:#009af9; stroke:none; fill-opacity:0" cx="1401.74" cy="1376.14" r="2"/>
<circle clip-path="url(#clip652)" style="fill:#009af9; stroke:none; fill-opacity:0" cx="1424.65" cy="1382.14" r="2"/>
<circle clip-path="url(#clip652)" style="fill:#009af9; stroke:none; fill-opacity:0" cx="1447.57" cy="1382.14" r="2"/>
<circle clip-path="url(#clip652)" style="fill:#009af9; stroke:none; fill-opacity:0" cx="1470.49" cy="1376.14" r="2"/>
<polyline clip-path="url(#clip652)" style="stroke:#808080; stroke-linecap:round; stroke-linejoin:round; stroke-width:8; stroke-opacity:0.5; fill:none" points="794.446,1382.14 794.446,47.2441 "/>
<polyline clip-path="url(#clip652)" style="stroke:#808080; stroke-linecap:round; stroke-linejoin:round; stroke-width:8; stroke-opacity:0.5; fill:none" points="1023.61,1382.14 1023.61,47.2441 "/>
<path clip-path="url(#clip650)" d="M1217.58 195.421 L1509.84 195.421 L1509.84 91.7406 L1217.58 91.7406  Z" fill="#ffffff" fill-rule="evenodd" fill-opacity="1"/>
<polyline clip-path="url(#clip650)" style="stroke:#000000; stroke-linecap:round; stroke-linejoin:round; stroke-width:4; stroke-opacity:1; fill:none" points="1217.58,195.421 1509.84,195.421 1509.84,91.7406 1217.58,91.7406 1217.58,195.421 "/>
<polyline clip-path="url(#clip650)" style="stroke:#808080; stroke-linecap:round; stroke-linejoin:round; stroke-width:8; stroke-opacity:0.5; fill:none" points="1231.88,143.581 1317.71,143.581 "/>
<path clip-path="url(#clip650)" d="M1347.85 130.907 L1338.36 156.972 L1357.37 156.972 L1347.85 130.907 M1332.02 160.861 L1345.21 126.301 L1350.51 126.301 L1363.68 160.861 L1332.02 160.861 Z" fill="#000000" fill-rule="nonzero" fill-opacity="1" /><path clip-path="url(#clip650)" d="M1369.96 156.925 L1377.6 156.925 L1377.6 130.56 L1369.29 132.227 L1369.29 127.967 L1377.55 126.301 L1382.23 126.301 L1382.23 156.925 L1389.87 156.925 L1389.87 160.861 L1369.96 160.861 L1369.96 156.925 Z" fill="#000000" fill-rule="nonzero" fill-opacity="1" /><path clip-path="url(#clip650)" d="M1398.89 126.301 L1405.86 126.301 L1414.68 149.819 L1423.55 126.301 L1430.51 126.301 L1430.51 160.861 L1425.95 160.861 L1425.95 130.514 L1417.04 154.217 L1412.34 154.217 L1403.43 130.514 L1403.43 160.861 L1398.89 160.861 L1398.89 126.301 Z" fill="#000000" fill-rule="nonzero" fill-opacity="1" /><path clip-path="url(#clip650)" d="M1466.14 126.301 L1466.14 160.861 L1461.46 160.861 L1461.46 130.236 L1444.47 130.236 L1444.47 160.861 L1439.8 160.861 L1439.8 126.301 L1466.14 126.301 Z" fill="#000000" fill-rule="nonzero" fill-opacity="1" /><path clip-path="url(#clip650)" d="M1487.04 147.828 Q1481.88 147.828 1479.89 149.009 Q1477.9 150.189 1477.9 153.037 Q1477.9 155.305 1479.38 156.648 Q1480.88 157.967 1483.45 157.967 Q1486.99 157.967 1489.12 155.467 Q1491.28 152.944 1491.28 148.777 L1491.28 147.828 L1487.04 147.828 M1495.54 146.069 L1495.54 160.861 L1491.28 160.861 L1491.28 156.925 Q1489.82 159.287 1487.64 160.421 Q1485.47 161.532 1482.32 161.532 Q1478.34 161.532 1475.98 159.31 Q1473.64 157.064 1473.64 153.314 Q1473.64 148.939 1476.55 146.717 Q1479.49 144.495 1485.3 144.495 L1491.28 144.495 L1491.28 144.078 Q1491.28 141.139 1489.33 139.541 Q1487.41 137.921 1483.92 137.921 Q1481.69 137.921 1479.59 138.453 Q1477.48 138.986 1475.54 140.051 L1475.54 136.115 Q1477.87 135.213 1480.07 134.773 Q1482.27 134.31 1484.36 134.31 Q1489.98 134.31 1492.76 137.226 Q1495.54 140.143 1495.54 146.069 Z" fill="#000000" fill-rule="nonzero" fill-opacity="1" /></svg>
