<?xml version="1.0" encoding="utf-8"?>
<svg xmlns="http://www.w3.org/2000/svg" xmlns:xlink="http://www.w3.org/1999/xlink" width="600" height="400" viewBox="0 0 2400 1600">
<defs>
  <clipPath id="clip190">
    <rect x="0" y="0" width="2400" height="1600"/>
  </clipPath>
</defs>
<path clip-path="url(#clip190)" d="M0 1600 L2400 1600 L2400 0 L0 0  Z" fill="#ffffff" fill-rule="evenodd" fill-opacity="1"/>
<defs>
  <clipPath id="clip191">
    <rect x="480" y="0" width="1681" height="1600"/>
  </clipPath>
</defs>
<path clip-path="url(#clip190)" d="M203.964 1423.18 L2352.76 1423.18 L2352.76 47.2441 L203.964 47.2441  Z" fill="#ffffff" fill-rule="evenodd" fill-opacity="1"/>
<defs>
  <clipPath id="clip192">
    <rect x="203" y="47" width="2150" height="1377"/>
  </clipPath>
</defs>
<polyline clip-path="url(#clip192)" style="stroke:#000000; stroke-linecap:round; stroke-linejoin:round; stroke-width:2; stroke-opacity:0.1; fill:none" points="322.151,1423.18 322.151,47.2441 "/>
<polyline clip-path="url(#clip192)" style="stroke:#000000; stroke-linecap:round; stroke-linejoin:round; stroke-width:2; stroke-opacity:0.1; fill:none" points="756.791,1423.18 756.791,47.2441 "/>
<polyline clip-path="url(#clip192)" style="stroke:#000000; stroke-linecap:round; stroke-linejoin:round; stroke-width:2; stroke-opacity:0.1; fill:none" points="1191.43,1423.18 1191.43,47.2441 "/>
<polyline clip-path="url(#clip192)" style="stroke:#000000; stroke-linecap:round; stroke-linejoin:round; stroke-width:2; stroke-opacity:0.1; fill:none" points="1626.07,1423.18 1626.07,47.2441 "/>
<polyline clip-path="url(#clip192)" style="stroke:#000000; stroke-linecap:round; stroke-linejoin:round; stroke-width:2; stroke-opacity:0.1; fill:none" points="2060.71,1423.18 2060.71,47.2441 "/>
<polyline clip-path="url(#clip190)" style="stroke:#000000; stroke-linecap:round; stroke-linejoin:round; stroke-width:4; stroke-opacity:1; fill:none" points="203.964,1423.18 2352.76,1423.18 "/>
<polyline clip-path="url(#clip190)" style="stroke:#000000; stroke-linecap:round; stroke-linejoin:round; stroke-width:4; stroke-opacity:1; fill:none" points="322.151,1423.18 322.151,1404.28 "/>
<polyline clip-path="url(#clip190)" style="stroke:#000000; stroke-linecap:round; stroke-linejoin:round; stroke-width:4; stroke-opacity:1; fill:none" points="756.791,1423.18 756.791,1404.28 "/>
<polyline clip-path="url(#clip190)" style="stroke:#000000; stroke-linecap:round; stroke-linejoin:round; stroke-width:4; stroke-opacity:1; fill:none" points="1191.43,1423.18 1191.43,1404.28 "/>
<polyline clip-path="url(#clip190)" style="stroke:#000000; stroke-linecap:round; stroke-linejoin:round; stroke-width:4; stroke-opacity:1; fill:none" points="1626.07,1423.18 1626.07,1404.28 "/>
<polyline clip-path="url(#clip190)" style="stroke:#000000; stroke-linecap:round; stroke-linejoin:round; stroke-width:4; stroke-opacity:1; fill:none" points="2060.71,1423.18 2060.71,1404.28 "/>
<path clip-path="url(#clip190)" d="M322.151 1454.1 Q318.54 1454.1 316.711 1457.66 Q314.906 1461.2 314.906 1468.33 Q314.906 1475.44 316.711 1479.01 Q318.54 1482.55 322.151 1482.55 Q325.785 1482.55 327.591 1479.01 Q329.419 1475.44 329.419 1468.33 Q329.419 1461.2 327.591 1457.66 Q325.785 1454.1 322.151 1454.1 M322.151 1450.39 Q327.961 1450.39 331.017 1455 Q334.095 1459.58 334.095 1468.33 Q334.095 1477.06 331.017 1481.67 Q327.961 1486.25 322.151 1486.25 Q316.341 1486.25 313.262 1481.67 Q310.207 1477.06 310.207 1468.33 Q310.207 1459.58 313.262 1455 Q316.341 1450.39 322.151 1450.39 Z" fill="#000000" fill-rule="nonzero" fill-opacity="1" /><path clip-path="url(#clip190)" d="M736.062 1481.64 L752.382 1481.64 L752.382 1485.58 L730.437 1485.58 L730.437 1481.64 Q733.099 1478.89 737.683 1474.26 Q742.289 1469.61 743.47 1468.27 Q745.715 1465.74 746.595 1464.01 Q747.497 1462.25 747.497 1460.56 Q747.497 1457.8 745.553 1456.07 Q743.632 1454.33 740.53 1454.33 Q738.331 1454.33 735.877 1455.09 Q733.447 1455.86 730.669 1457.41 L730.669 1452.69 Q733.493 1451.55 735.947 1450.97 Q738.4 1450.39 740.437 1450.39 Q745.808 1450.39 749.002 1453.08 Q752.196 1455.77 752.196 1460.26 Q752.196 1462.39 751.386 1464.31 Q750.599 1466.2 748.493 1468.8 Q747.914 1469.47 744.812 1472.69 Q741.71 1475.88 736.062 1481.64 Z" fill="#000000" fill-rule="nonzero" fill-opacity="1" /><path clip-path="url(#clip190)" d="M762.243 1451.02 L780.599 1451.02 L780.599 1454.96 L766.525 1454.96 L766.525 1463.43 Q767.544 1463.08 768.562 1462.92 Q769.581 1462.73 770.599 1462.73 Q776.386 1462.73 779.766 1465.9 Q783.145 1469.08 783.145 1474.49 Q783.145 1480.07 779.673 1483.17 Q776.201 1486.25 769.882 1486.25 Q767.706 1486.25 765.437 1485.88 Q763.192 1485.51 760.784 1484.77 L760.784 1480.07 Q762.868 1481.2 765.09 1481.76 Q767.312 1482.32 769.789 1482.32 Q773.794 1482.32 776.131 1480.21 Q778.469 1478.1 778.469 1474.49 Q778.469 1470.88 776.131 1468.77 Q773.794 1466.67 769.789 1466.67 Q767.914 1466.67 766.039 1467.08 Q764.187 1467.5 762.243 1468.38 L762.243 1451.02 Z" fill="#000000" fill-rule="nonzero" fill-opacity="1" /><path clip-path="url(#clip190)" d="M1166.13 1451.02 L1184.49 1451.02 L1184.49 1454.96 L1170.41 1454.96 L1170.41 1463.43 Q1171.43 1463.08 1172.45 1462.92 Q1173.47 1462.73 1174.49 1462.73 Q1180.27 1462.73 1183.65 1465.9 Q1187.03 1469.08 1187.03 1474.49 Q1187.03 1480.07 1183.56 1483.17 Q1180.09 1486.25 1173.77 1486.25 Q1171.59 1486.25 1169.33 1485.88 Q1167.08 1485.51 1164.67 1484.77 L1164.67 1480.07 Q1166.76 1481.2 1168.98 1481.76 Q1171.2 1482.32 1173.68 1482.32 Q1177.68 1482.32 1180.02 1480.21 Q1182.36 1478.1 1182.36 1474.49 Q1182.36 1470.88 1180.02 1468.77 Q1177.68 1466.67 1173.68 1466.67 Q1171.8 1466.67 1169.93 1467.08 Q1168.08 1467.5 1166.13 1468.38 L1166.13 1451.02 Z" fill="#000000" fill-rule="nonzero" fill-opacity="1" /><path clip-path="url(#clip190)" d="M1206.25 1454.1 Q1202.64 1454.1 1200.81 1457.66 Q1199 1461.2 1199 1468.33 Q1199 1475.44 1200.81 1479.01 Q1202.64 1482.55 1206.25 1482.55 Q1209.88 1482.55 1211.69 1479.01 Q1213.51 1475.44 1213.51 1468.33 Q1213.51 1461.2 1211.69 1457.66 Q1209.88 1454.1 1206.25 1454.1 M1206.25 1450.39 Q1212.06 1450.39 1215.11 1455 Q1218.19 1459.58 1218.19 1468.33 Q1218.19 1477.06 1215.11 1481.67 Q1212.06 1486.25 1206.25 1486.25 Q1200.44 1486.25 1197.36 1481.67 Q1194.3 1477.06 1194.3 1468.33 Q1194.3 1459.58 1197.36 1455 Q1200.44 1450.39 1206.25 1450.39 Z" fill="#000000" fill-rule="nonzero" fill-opacity="1" /><path clip-path="url(#clip190)" d="M1599.93 1451.02 L1622.15 1451.02 L1622.15 1453.01 L1609.6 1485.58 L1604.72 1485.58 L1616.52 1454.96 L1599.93 1454.96 L1599.93 1451.02 Z" fill="#000000" fill-rule="nonzero" fill-opacity="1" /><path clip-path="url(#clip190)" d="M1631.32 1451.02 L1649.67 1451.02 L1649.67 1454.96 L1635.6 1454.96 L1635.6 1463.43 Q1636.62 1463.08 1637.63 1462.92 Q1638.65 1462.73 1639.67 1462.73 Q1645.46 1462.73 1648.84 1465.9 Q1652.22 1469.08 1652.22 1474.49 Q1652.22 1480.07 1648.75 1483.17 Q1645.27 1486.25 1638.95 1486.25 Q1636.78 1486.25 1634.51 1485.88 Q1632.26 1485.51 1629.86 1484.77 L1629.86 1480.07 Q1631.94 1481.2 1634.16 1481.76 Q1636.38 1482.32 1638.86 1482.32 Q1642.87 1482.32 1645.2 1480.21 Q1647.54 1478.1 1647.54 1474.49 Q1647.54 1470.88 1645.2 1468.77 Q1642.87 1466.67 1638.86 1466.67 Q1636.99 1466.67 1635.11 1467.08 Q1633.26 1467.5 1631.32 1468.38 L1631.32 1451.02 Z" fill="#000000" fill-rule="nonzero" fill-opacity="1" /><path clip-path="url(#clip190)" d="M2020.32 1481.64 L2027.96 1481.64 L2027.96 1455.28 L2019.65 1456.95 L2019.65 1452.69 L2027.91 1451.02 L2032.59 1451.02 L2032.59 1481.64 L2040.23 1481.64 L2040.23 1485.58 L2020.32 1485.58 L2020.32 1481.64 Z" fill="#000000" fill-rule="nonzero" fill-opacity="1" /><path clip-path="url(#clip190)" d="M2059.67 1454.1 Q2056.06 1454.1 2054.23 1457.66 Q2052.43 1461.2 2052.43 1468.33 Q2052.43 1475.44 2054.23 1479.01 Q2056.06 1482.55 2059.67 1482.55 Q2063.3 1482.55 2065.11 1479.01 Q2066.94 1475.44 2066.94 1468.33 Q2066.94 1461.2 2065.11 1457.66 Q2063.3 1454.1 2059.67 1454.1 M2059.67 1450.39 Q2065.48 1450.39 2068.54 1455 Q2071.62 1459.58 2071.62 1468.33 Q2071.62 1477.06 2068.54 1481.67 Q2065.48 1486.25 2059.67 1486.25 Q2053.86 1486.25 2050.78 1481.67 Q2047.73 1477.06 2047.73 1468.33 Q2047.73 1459.58 2050.78 1455 Q2053.86 1450.39 2059.67 1450.39 Z" fill="#000000" fill-rule="nonzero" fill-opacity="1" /><path clip-path="url(#clip190)" d="M2089.83 1454.1 Q2086.22 1454.1 2084.39 1457.66 Q2082.59 1461.2 2082.59 1468.33 Q2082.59 1475.44 2084.39 1479.01 Q2086.22 1482.55 2089.83 1482.55 Q2093.47 1482.55 2095.27 1479.01 Q2097.1 1475.44 2097.1 1468.33 Q2097.1 1461.2 2095.27 1457.66 Q2093.47 1454.1 2089.83 1454.1 M2089.83 1450.39 Q2095.64 1450.39 2098.7 1455 Q2101.78 1459.58 2101.78 1468.33 Q2101.78 1477.06 2098.7 1481.67 Q2095.64 1486.25 2089.83 1486.25 Q2084.02 1486.25 2080.94 1481.67 Q2077.89 1477.06 2077.89 1468.33 Q2077.89 1459.58 2080.94 1455 Q2084.02 1450.39 2089.83 1450.39 Z" fill="#000000" fill-rule="nonzero" fill-opacity="1" /><path clip-path="url(#clip190)" d="M790.524 1524.88 Q783.522 1524.88 779.384 1530.1 Q775.278 1535.32 775.278 1544.33 Q775.278 1553.31 779.384 1558.53 Q783.522 1563.75 790.524 1563.75 Q797.526 1563.75 801.6 1558.53 Q805.706 1553.31 805.706 1544.33 Q805.706 1535.32 801.6 1530.1 Q797.526 1524.88 790.524 1524.88 M790.524 1519.66 Q800.518 1519.66 806.502 1526.38 Q812.485 1533.06 812.485 1544.33 Q812.485 1555.57 806.502 1562.28 Q800.518 1568.97 790.524 1568.97 Q780.498 1568.97 774.482 1562.28 Q768.498 1555.6 768.498 1544.33 Q768.498 1533.06 774.482 1526.38 Q780.498 1519.66 790.524 1519.66 Z" fill="#000000" fill-rule="nonzero" fill-opacity="1" /><path clip-path="url(#clip190)" d="M836.421 1531.54 Q844.059 1531.54 848.42 1536.5 Q852.78 1541.47 852.78 1550.25 Q852.78 1559 848.42 1564 Q844.059 1568.97 836.421 1568.97 Q828.75 1568.97 824.517 1564.13 Q820.283 1559.29 820.061 1550.25 L819.87 1542.96 Q819.711 1539.18 819.711 1537.87 Q819.711 1532.78 821.557 1529.02 Q824.453 1523.13 829.45 1520.59 Q834.479 1518.04 842.882 1517.98 Q846.765 1517.95 848.484 1517.4 L850.107 1522.05 Q848.547 1522.69 847.115 1522.72 L839.158 1523.26 Q835.147 1523.55 832.728 1524.95 Q826.395 1528.67 825.79 1533.54 L825.567 1535.32 Q829.705 1531.54 836.421 1531.54 M836.421 1536.5 Q831.71 1536.5 828.973 1540.19 Q826.235 1543.85 826.235 1550.25 Q826.235 1556.65 828.941 1560.34 Q831.678 1564 836.421 1564 Q841.099 1564 843.837 1560.31 Q846.574 1556.62 846.574 1550.25 Q846.574 1543.92 843.837 1540.23 Q841.099 1536.5 836.421 1536.5 Z" fill="#000000" fill-rule="nonzero" fill-opacity="1" /><path clip-path="url(#clip190)" d="M892.98 1548.76 L892.98 1551.62 L866.053 1551.62 Q866.435 1557.67 869.681 1560.85 Q872.96 1564 878.784 1564 Q882.158 1564 885.309 1563.17 Q888.492 1562.35 891.611 1560.69 L891.611 1566.23 Q888.46 1567.57 885.15 1568.27 Q881.84 1568.97 878.434 1568.97 Q869.904 1568.97 864.907 1564 Q859.942 1559.04 859.942 1550.57 Q859.942 1541.82 864.652 1536.69 Q869.395 1531.54 877.416 1531.54 Q884.609 1531.54 888.778 1536.18 Q892.98 1540.8 892.98 1548.76 M887.123 1547.04 Q887.06 1542.23 884.418 1539.37 Q881.808 1536.5 877.479 1536.5 Q872.578 1536.5 869.618 1539.27 Q866.689 1542.04 866.244 1547.07 L887.123 1547.04 Z" fill="#000000" fill-rule="nonzero" fill-opacity="1" /><path clip-path="url(#clip190)" d="M928.246 1533.76 L928.246 1539.24 Q925.763 1537.87 923.249 1537.2 Q920.766 1536.5 918.22 1536.5 Q912.523 1536.5 909.372 1540.13 Q906.221 1543.73 906.221 1550.25 Q906.221 1556.78 909.372 1560.4 Q912.523 1564 918.22 1564 Q920.766 1564 923.249 1563.33 Q925.763 1562.63 928.246 1561.26 L928.246 1566.68 Q925.795 1567.82 923.153 1568.39 Q920.543 1568.97 917.583 1568.97 Q909.531 1568.97 904.788 1563.91 Q900.046 1558.85 900.046 1550.25 Q900.046 1541.53 904.82 1536.53 Q909.626 1531.54 917.965 1531.54 Q920.671 1531.54 923.249 1532.11 Q925.827 1532.65 928.246 1533.76 Z" fill="#000000" fill-rule="nonzero" fill-opacity="1" /><path clip-path="url(#clip190)" d="M968.986 1532.4 L968.986 1568.04 L963.098 1568.04 L963.098 1537.07 L944.096 1537.07 L944.096 1568.04 L938.208 1568.04 L938.208 1532.4 L968.986 1532.4 Z" fill="#000000" fill-rule="nonzero" fill-opacity="1" /><path clip-path="url(#clip190)" d="M1011.54 1548.76 L1011.54 1551.62 L984.614 1551.62 Q984.996 1557.67 988.243 1560.85 Q991.521 1564 997.346 1564 Q1000.72 1564 1003.87 1563.17 Q1007.05 1562.35 1010.17 1560.69 L1010.17 1566.23 Q1007.02 1567.57 1003.71 1568.27 Q1000.4 1568.97 996.996 1568.97 Q988.465 1568.97 983.468 1564 Q978.503 1559.04 978.503 1550.57 Q978.503 1541.82 983.214 1536.69 Q987.956 1531.54 995.977 1531.54 Q1003.17 1531.54 1007.34 1536.18 Q1011.54 1540.8 1011.54 1548.76 M1005.68 1547.04 Q1005.62 1542.23 1002.98 1539.37 Q1000.37 1536.5 996.041 1536.5 Q991.139 1536.5 988.179 1539.27 Q985.251 1542.04 984.805 1547.07 L1005.68 1547.04 Z" fill="#000000" fill-rule="nonzero" fill-opacity="1" /><path clip-path="url(#clip190)" d="M1041.75 1568.04 L1041.75 1553.05 L1030.83 1553.05 Q1025.96 1553.05 1022.71 1550.03 Q1019.78 1547.29 1019.78 1541.44 L1019.78 1532.4 L1025.64 1532.4 L1025.64 1540.89 Q1025.64 1544.62 1027.3 1546.5 Q1028.98 1548.37 1032.29 1548.37 L1041.75 1548.37 L1041.75 1532.4 L1047.6 1532.4 L1047.6 1568.04 L1041.75 1568.04 Z" fill="#000000" fill-rule="nonzero" fill-opacity="1" /><path clip-path="url(#clip190)" d="M1090.16 1548.76 L1090.16 1551.62 L1063.23 1551.62 Q1063.61 1557.67 1066.86 1560.85 Q1070.14 1564 1075.96 1564 Q1079.34 1564 1082.49 1563.17 Q1085.67 1562.35 1088.79 1560.69 L1088.79 1566.23 Q1085.64 1567.57 1082.33 1568.27 Q1079.02 1568.97 1075.61 1568.97 Q1067.08 1568.97 1062.08 1564 Q1057.12 1559.04 1057.12 1550.57 Q1057.12 1541.82 1061.83 1536.69 Q1066.57 1531.54 1074.59 1531.54 Q1081.79 1531.54 1085.96 1536.18 Q1090.16 1540.8 1090.16 1548.76 M1084.3 1547.04 Q1084.24 1542.23 1081.6 1539.37 Q1078.99 1536.5 1074.66 1536.5 Q1069.76 1536.5 1066.8 1539.27 Q1063.87 1542.04 1063.42 1547.07 L1084.3 1547.04 Z" fill="#000000" fill-rule="nonzero" fill-opacity="1" /><path clip-path="url(#clip190)" d="M1099.55 1532.4 L1105.44 1532.4 L1105.44 1546.94 L1124.44 1546.94 L1124.44 1532.4 L1130.33 1532.4 L1130.33 1568.04 L1124.44 1568.04 L1124.44 1551.62 L1105.44 1551.62 L1105.44 1568.04 L1099.55 1568.04 L1099.55 1532.4 Z" fill="#000000" fill-rule="nonzero" fill-opacity="1" /><path clip-path="url(#clip190)" d="M1142.17 1532.4 L1148.05 1532.4 L1148.05 1546.94 L1167.06 1546.94 L1167.06 1532.4 L1172.94 1532.4 L1172.94 1568.04 L1167.06 1568.04 L1167.06 1551.62 L1148.05 1551.62 L1148.05 1568.04 L1142.17 1568.04 L1142.17 1532.4 Z" fill="#000000" fill-rule="nonzero" fill-opacity="1" /><path clip-path="url(#clip190)" d="M1198.82 1536.5 Q1194.11 1536.5 1191.37 1540.19 Q1188.64 1543.85 1188.64 1550.25 Q1188.64 1556.65 1191.34 1560.34 Q1194.08 1564 1198.82 1564 Q1203.5 1564 1206.24 1560.31 Q1208.97 1556.62 1208.97 1550.25 Q1208.97 1543.92 1206.24 1540.23 Q1203.5 1536.5 1198.82 1536.5 M1198.82 1531.54 Q1206.46 1531.54 1210.82 1536.5 Q1215.18 1541.47 1215.18 1550.25 Q1215.18 1559 1210.82 1564 Q1206.46 1568.97 1198.82 1568.97 Q1191.15 1568.97 1186.79 1564 Q1182.46 1559 1182.46 1550.25 Q1182.46 1541.47 1186.79 1536.5 Q1191.15 1531.54 1198.82 1531.54 Z" fill="#000000" fill-rule="nonzero" fill-opacity="1" /><path clip-path="url(#clip190)" d="M1250.54 1533.76 L1250.54 1539.24 Q1248.06 1537.87 1245.54 1537.2 Q1243.06 1536.5 1240.52 1536.5 Q1234.82 1536.5 1231.67 1540.13 Q1228.52 1543.73 1228.52 1550.25 Q1228.52 1556.78 1231.67 1560.4 Q1234.82 1564 1240.52 1564 Q1243.06 1564 1245.54 1563.33 Q1248.06 1562.63 1250.54 1561.26 L1250.54 1566.68 Q1248.09 1567.82 1245.45 1568.39 Q1242.84 1568.97 1239.88 1568.97 Q1231.83 1568.97 1227.08 1563.91 Q1222.34 1558.85 1222.34 1550.25 Q1222.34 1541.53 1227.12 1536.53 Q1231.92 1531.54 1240.26 1531.54 Q1242.97 1531.54 1245.54 1532.11 Q1248.12 1532.65 1250.54 1533.76 Z" fill="#000000" fill-rule="nonzero" fill-opacity="1" /><path clip-path="url(#clip190)" d="M1256.49 1532.4 L1290.65 1532.4 L1290.65 1537.07 L1276.45 1537.07 L1276.45 1568.04 L1270.69 1568.04 L1270.69 1537.07 L1256.49 1537.07 L1256.49 1532.4 Z" fill="#000000" fill-rule="nonzero" fill-opacity="1" /><path clip-path="url(#clip190)" d="M1320.88 1557.48 Q1320.88 1554.61 1318.78 1553.12 Q1316.71 1551.62 1312.7 1551.62 L1304.36 1551.62 L1304.36 1563.37 L1312.7 1563.37 Q1316.71 1563.37 1318.78 1561.87 Q1320.88 1560.34 1320.88 1557.48 M1298.48 1532.4 L1304.36 1532.4 L1304.36 1546.94 L1312.96 1546.94 Q1319.77 1546.94 1323.43 1549.55 Q1327.12 1552.13 1327.12 1557.48 Q1327.12 1562.82 1323.43 1565.43 Q1319.77 1568.04 1312.96 1568.04 L1298.48 1568.04 L1298.48 1532.4 Z" fill="#000000" fill-rule="nonzero" fill-opacity="1" /><path clip-path="url(#clip190)" d="M1374.16 1548.82 Q1378.11 1549.58 1380.31 1551.91 Q1382.5 1554.23 1382.5 1557.67 Q1382.5 1563.17 1378.4 1566.07 Q1374.29 1568.97 1366.72 1568.97 Q1364.17 1568.97 1361.46 1568.52 Q1358.79 1568.08 1355.93 1567.18 L1355.93 1561.74 Q1358.19 1562.92 1360.89 1563.52 Q1363.6 1564.1 1366.56 1564.1 Q1371.36 1564.1 1374.04 1562.31 Q1376.74 1560.53 1376.74 1557.67 Q1376.74 1554.87 1374.35 1553.18 Q1371.97 1551.46 1367.61 1551.46 L1362.9 1551.46 L1362.9 1546.62 L1367.83 1546.62 Q1371.52 1546.62 1373.65 1545.22 Q1375.82 1543.79 1375.82 1541.56 Q1375.82 1539.53 1373.59 1538.06 Q1371.39 1536.6 1367.61 1536.6 Q1365.35 1536.6 1362.77 1537.01 Q1360.22 1537.42 1357.14 1538.35 L1357.14 1533.03 Q1360.25 1532.27 1362.96 1531.89 Q1365.67 1531.5 1368.08 1531.5 Q1374.32 1531.5 1377.92 1534.02 Q1381.55 1536.5 1381.55 1540.99 Q1381.55 1543.95 1379.64 1546.02 Q1377.73 1548.06 1374.16 1548.82 Z" fill="#000000" fill-rule="nonzero" fill-opacity="1" /><path clip-path="url(#clip190)" d="M1408.7 1550.12 Q1401.6 1550.12 1398.86 1551.75 Q1396.13 1553.37 1396.13 1557.29 Q1396.13 1560.4 1398.16 1562.25 Q1400.23 1564.07 1403.76 1564.07 Q1408.63 1564.07 1411.56 1560.63 Q1414.52 1557.16 1414.52 1551.43 L1414.52 1550.12 L1408.7 1550.12 M1420.38 1547.71 L1420.38 1568.04 L1414.52 1568.04 L1414.52 1562.63 Q1412.52 1565.88 1409.53 1567.44 Q1406.53 1568.97 1402.2 1568.97 Q1396.73 1568.97 1393.48 1565.91 Q1390.27 1562.82 1390.27 1557.67 Q1390.27 1551.65 1394.28 1548.6 Q1398.32 1545.54 1406.31 1545.54 L1414.52 1545.54 L1414.52 1544.97 Q1414.52 1540.93 1411.85 1538.73 Q1409.21 1536.5 1404.4 1536.5 Q1401.35 1536.5 1398.45 1537.23 Q1395.55 1537.97 1392.88 1539.43 L1392.88 1534.02 Q1396.09 1532.78 1399.12 1532.17 Q1402.14 1531.54 1405.01 1531.54 Q1412.74 1531.54 1416.56 1535.55 Q1420.38 1539.56 1420.38 1547.71 Z" fill="#000000" fill-rule="nonzero" fill-opacity="1" /><path clip-path="url(#clip190)" d="M1432.22 1532.4 L1440.78 1532.4 L1450.9 1556.27 L1461.06 1532.4 L1469.55 1532.4 L1469.55 1568.04 L1463.67 1568.04 L1463.67 1538 L1453.83 1561.2 L1447.97 1561.2 L1438.11 1538 L1438.11 1568.04 L1432.22 1568.04 L1432.22 1532.4 Z" fill="#000000" fill-rule="nonzero" fill-opacity="1" /><path clip-path="url(#clip190)" d="M1512.11 1548.76 L1512.11 1551.62 L1485.18 1551.62 Q1485.56 1557.67 1488.81 1560.85 Q1492.09 1564 1497.91 1564 Q1501.29 1564 1504.44 1563.17 Q1507.62 1562.35 1510.74 1560.69 L1510.74 1566.23 Q1507.59 1567.57 1504.28 1568.27 Q1500.97 1568.97 1497.56 1568.97 Q1489.03 1568.97 1484.04 1564 Q1479.07 1559.04 1479.07 1550.57 Q1479.07 1541.82 1483.78 1536.69 Q1488.52 1531.54 1496.54 1531.54 Q1503.74 1531.54 1507.91 1536.18 Q1512.11 1540.8 1512.11 1548.76 M1506.25 1547.04 Q1506.19 1542.23 1503.55 1539.37 Q1500.94 1536.5 1496.61 1536.5 Q1491.71 1536.5 1488.75 1539.27 Q1485.82 1542.04 1485.37 1547.07 L1506.25 1547.04 Z" fill="#000000" fill-rule="nonzero" fill-opacity="1" /><path clip-path="url(#clip190)" d="M1527.39 1562.7 L1527.39 1581.6 L1521.5 1581.6 L1521.5 1532.4 L1527.39 1532.4 L1527.39 1537.81 Q1529.23 1534.62 1532.03 1533.1 Q1534.87 1531.54 1538.78 1531.54 Q1545.27 1531.54 1549.32 1536.69 Q1553.39 1541.85 1553.39 1550.25 Q1553.39 1558.65 1549.32 1563.81 Q1545.27 1568.97 1538.78 1568.97 Q1534.87 1568.97 1532.03 1567.44 Q1529.23 1565.88 1527.39 1562.7 M1547.31 1550.25 Q1547.31 1543.79 1544.64 1540.13 Q1542 1536.44 1537.35 1536.44 Q1532.7 1536.44 1530.03 1540.13 Q1527.39 1543.79 1527.39 1550.25 Q1527.39 1556.71 1530.03 1560.4 Q1532.7 1564.07 1537.35 1564.07 Q1542 1564.07 1544.64 1560.4 Q1547.31 1556.71 1547.31 1550.25 Z" fill="#000000" fill-rule="nonzero" fill-opacity="1" /><path clip-path="url(#clip190)" d="M1579.3 1550.12 Q1572.2 1550.12 1569.46 1551.75 Q1566.73 1553.37 1566.73 1557.29 Q1566.73 1560.4 1568.76 1562.25 Q1570.83 1564.07 1574.37 1564.07 Q1579.23 1564.07 1582.16 1560.63 Q1585.12 1557.16 1585.12 1551.43 L1585.12 1550.12 L1579.3 1550.12 M1590.98 1547.71 L1590.98 1568.04 L1585.12 1568.04 L1585.12 1562.63 Q1583.12 1565.88 1580.13 1567.44 Q1577.13 1568.97 1572.81 1568.97 Q1567.33 1568.97 1564.08 1565.91 Q1560.87 1562.82 1560.87 1557.67 Q1560.87 1551.65 1564.88 1548.6 Q1568.92 1545.54 1576.91 1545.54 L1585.12 1545.54 L1585.12 1544.97 Q1585.12 1540.93 1582.45 1538.73 Q1579.81 1536.5 1575 1536.5 Q1571.95 1536.5 1569.05 1537.23 Q1566.15 1537.97 1563.48 1539.43 L1563.48 1534.02 Q1566.69 1532.78 1569.72 1532.17 Q1572.74 1531.54 1575.61 1531.54 Q1583.34 1531.54 1587.16 1535.55 Q1590.98 1539.56 1590.98 1547.71 Z" fill="#000000" fill-rule="nonzero" fill-opacity="1" /><path clip-path="url(#clip190)" d="M1602.82 1532.4 L1611.38 1532.4 L1621.5 1556.27 L1631.66 1532.4 L1640.15 1532.4 L1640.15 1568.04 L1634.27 1568.04 L1634.27 1538 L1624.43 1561.2 L1618.57 1561.2 L1608.71 1538 L1608.71 1568.04 L1602.82 1568.04 L1602.82 1532.4 Z" fill="#000000" fill-rule="nonzero" fill-opacity="1" /><path clip-path="url(#clip190)" d="M1682.52 1532.4 L1682.52 1568.04 L1676.69 1568.04 L1676.69 1539.43 L1659.51 1568.04 L1651.99 1568.04 L1651.99 1532.4 L1657.82 1532.4 L1657.82 1560.95 L1674.98 1532.4 L1682.52 1532.4 Z" fill="#000000" fill-rule="nonzero" fill-opacity="1" /><path clip-path="url(#clip190)" d="M1696.08 1559.96 L1702.79 1559.96 L1702.79 1565.43 L1697.57 1575.62 L1693.47 1575.62 L1696.08 1565.43 L1696.08 1559.96 Z" fill="#000000" fill-rule="nonzero" fill-opacity="1" /><path clip-path="url(#clip190)" d="M1777.27 1547.13 Q1774.5 1547.13 1772.91 1549.49 Q1771.35 1551.84 1771.35 1556.04 Q1771.35 1560.18 1772.91 1562.57 Q1774.5 1564.92 1777.27 1564.92 Q1779.98 1564.92 1781.54 1562.57 Q1783.13 1560.18 1783.13 1556.04 Q1783.13 1551.87 1781.54 1549.52 Q1779.98 1547.13 1777.27 1547.13 M1777.27 1543.09 Q1782.3 1543.09 1785.26 1546.59 Q1788.22 1550.09 1788.22 1556.04 Q1788.22 1562 1785.23 1565.5 Q1782.27 1568.97 1777.27 1568.97 Q1772.18 1568.97 1769.22 1565.5 Q1766.26 1562 1766.26 1556.04 Q1766.26 1550.06 1769.22 1546.59 Q1772.21 1543.09 1777.27 1543.09 M1744.42 1523.71 Q1741.69 1523.71 1740.1 1526.09 Q1738.54 1528.45 1738.54 1532.59 Q1738.54 1536.79 1740.1 1539.14 Q1741.66 1541.5 1744.42 1541.5 Q1747.19 1541.5 1748.75 1539.14 Q1750.35 1536.79 1750.35 1532.59 Q1750.35 1528.48 1748.75 1526.09 Q1747.16 1523.71 1744.42 1523.71 M1773.17 1519.66 L1778.26 1519.66 L1748.53 1568.97 L1743.44 1568.97 L1773.17 1519.66 M1744.42 1519.66 Q1749.45 1519.66 1752.45 1523.17 Q1755.44 1526.63 1755.44 1532.59 Q1755.44 1538.6 1752.45 1542.07 Q1749.49 1545.54 1744.42 1545.54 Q1739.36 1545.54 1736.4 1542.07 Q1733.48 1538.57 1733.48 1532.59 Q1733.48 1526.67 1736.44 1523.17 Q1739.4 1519.66 1744.42 1519.66 Z" fill="#000000" fill-rule="nonzero" fill-opacity="1" /><polyline clip-path="url(#clip192)" style="stroke:#000000; stroke-linecap:round; stroke-linejoin:round; stroke-width:2; stroke-opacity:0.1; fill:none" points="203.964,1423.18 2352.76,1423.18 "/>
<polyline clip-path="url(#clip192)" style="stroke:#000000; stroke-linecap:round; stroke-linejoin:round; stroke-width:2; stroke-opacity:0.1; fill:none" points="203.964,1147.99 2352.76,1147.99 "/>
<polyline clip-path="url(#clip192)" style="stroke:#000000; stroke-linecap:round; stroke-linejoin:round; stroke-width:2; stroke-opacity:0.1; fill:none" points="203.964,872.806 2352.76,872.806 "/>
<polyline clip-path="url(#clip192)" style="stroke:#000000; stroke-linecap:round; stroke-linejoin:round; stroke-width:2; stroke-opacity:0.1; fill:none" points="203.964,597.618 2352.76,597.618 "/>
<polyline clip-path="url(#clip192)" style="stroke:#000000; stroke-linecap:round; stroke-linejoin:round; stroke-width:2; stroke-opacity:0.1; fill:none" points="203.964,322.431 2352.76,322.431 "/>
<polyline clip-path="url(#clip192)" style="stroke:#000000; stroke-linecap:round; stroke-linejoin:round; stroke-width:2; stroke-opacity:0.1; fill:none" points="203.964,47.2441 2352.76,47.2441 "/>
<polyline clip-path="url(#clip190)" style="stroke:#000000; stroke-linecap:round; stroke-linejoin:round; stroke-width:4; stroke-opacity:1; fill:none" points="203.964,1423.18 203.964,47.2441 "/>
<polyline clip-path="url(#clip190)" style="stroke:#000000; stroke-linecap:round; stroke-linejoin:round; stroke-width:4; stroke-opacity:1; fill:none" points="203.964,1423.18 222.861,1423.18 "/>
<polyline clip-path="url(#clip190)" style="stroke:#000000; stroke-linecap:round; stroke-linejoin:round; stroke-width:4; stroke-opacity:1; fill:none" points="203.964,1147.99 222.861,1147.99 "/>
<polyline clip-path="url(#clip190)" style="stroke:#000000; stroke-linecap:round; stroke-linejoin:round; stroke-width:4; stroke-opacity:1; fill:none" points="203.964,872.806 222.861,872.806 "/>
<polyline clip-path="url(#clip190)" style="stroke:#000000; stroke-linecap:round; stroke-linejoin:round; stroke-width:4; stroke-opacity:1; fill:none" points="203.964,597.618 222.861,597.618 "/>
<polyline clip-path="url(#clip190)" style="stroke:#000000; stroke-linecap:round; stroke-linejoin:round; stroke-width:4; stroke-opacity:1; fill:none" points="203.964,322.431 222.861,322.431 "/>
<polyline clip-path="url(#clip190)" style="stroke:#000000; stroke-linecap:round; stroke-linejoin:round; stroke-width:4; stroke-opacity:1; fill:none" points="203.964,47.2441 222.861,47.2441 "/>
<path clip-path="url(#clip190)" d="M156.019 1408.98 Q152.408 1408.98 150.579 1412.54 Q148.774 1416.08 148.774 1423.21 Q148.774 1430.32 150.579 1433.89 Q152.408 1437.43 156.019 1437.43 Q159.653 1437.43 161.459 1433.89 Q163.288 1430.32 163.288 1423.21 Q163.288 1416.08 161.459 1412.54 Q159.653 1408.98 156.019 1408.98 M156.019 1405.27 Q161.829 1405.27 164.885 1409.88 Q167.964 1414.46 167.964 1423.21 Q167.964 1431.94 164.885 1436.55 Q161.829 1441.13 156.019 1441.13 Q150.209 1441.13 147.13 1436.55 Q144.075 1431.94 144.075 1423.21 Q144.075 1414.46 147.13 1409.88 Q150.209 1405.27 156.019 1405.27 Z" fill="#000000" fill-rule="nonzero" fill-opacity="1" /><path clip-path="url(#clip190)" d="M147.061 1130.71 L165.417 1130.71 L165.417 1134.65 L151.343 1134.65 L151.343 1143.12 Q152.362 1142.77 153.38 1142.61 Q154.399 1142.43 155.417 1142.43 Q161.204 1142.43 164.584 1145.6 Q167.964 1148.77 167.964 1154.18 Q167.964 1159.76 164.491 1162.87 Q161.019 1165.94 154.7 1165.94 Q152.524 1165.94 150.255 1165.57 Q148.01 1165.2 145.603 1164.46 L145.603 1159.76 Q147.686 1160.9 149.908 1161.45 Q152.13 1162.01 154.607 1162.01 Q158.612 1162.01 160.95 1159.9 Q163.288 1157.8 163.288 1154.18 Q163.288 1150.57 160.95 1148.47 Q158.612 1146.36 154.607 1146.36 Q152.732 1146.36 150.857 1146.78 Q149.005 1147.19 147.061 1148.07 L147.061 1130.71 Z" fill="#000000" fill-rule="nonzero" fill-opacity="1" /><path clip-path="url(#clip190)" d="M116.668 886.15 L124.306 886.15 L124.306 859.785 L115.996 861.451 L115.996 857.192 L124.26 855.526 L128.936 855.526 L128.936 886.15 L136.575 886.15 L136.575 890.086 L116.668 890.086 L116.668 886.15 Z" fill="#000000" fill-rule="nonzero" fill-opacity="1" /><path clip-path="url(#clip190)" d="M156.019 858.604 Q152.408 858.604 150.579 862.169 Q148.774 865.711 148.774 872.84 Q148.774 879.947 150.579 883.512 Q152.408 887.053 156.019 887.053 Q159.653 887.053 161.459 883.512 Q163.288 879.947 163.288 872.84 Q163.288 865.711 161.459 862.169 Q159.653 858.604 156.019 858.604 M156.019 854.901 Q161.829 854.901 164.885 859.507 Q167.964 864.09 167.964 872.84 Q167.964 881.567 164.885 886.174 Q161.829 890.757 156.019 890.757 Q150.209 890.757 147.13 886.174 Q144.075 881.567 144.075 872.84 Q144.075 864.09 147.13 859.507 Q150.209 854.901 156.019 854.901 Z" fill="#000000" fill-rule="nonzero" fill-opacity="1" /><path clip-path="url(#clip190)" d="M117.663 610.963 L125.302 610.963 L125.302 584.598 L116.992 586.264 L116.992 582.005 L125.255 580.338 L129.931 580.338 L129.931 610.963 L137.57 610.963 L137.57 614.898 L117.663 614.898 L117.663 610.963 Z" fill="#000000" fill-rule="nonzero" fill-opacity="1" /><path clip-path="url(#clip190)" d="M147.061 580.338 L165.417 580.338 L165.417 584.274 L151.343 584.274 L151.343 592.746 Q152.362 592.399 153.38 592.236 Q154.399 592.051 155.417 592.051 Q161.204 592.051 164.584 595.223 Q167.964 598.394 167.964 603.81 Q167.964 609.389 164.491 612.491 Q161.019 615.57 154.7 615.57 Q152.524 615.57 150.255 615.199 Q148.01 614.829 145.603 614.088 L145.603 609.389 Q147.686 610.523 149.908 611.079 Q152.13 611.635 154.607 611.635 Q158.612 611.635 160.95 609.528 Q163.288 607.422 163.288 603.81 Q163.288 600.199 160.95 598.093 Q158.612 595.986 154.607 595.986 Q152.732 595.986 150.857 596.403 Q149.005 596.82 147.061 597.699 L147.061 580.338 Z" fill="#000000" fill-rule="nonzero" fill-opacity="1" /><path clip-path="url(#clip190)" d="M119.885 335.776 L136.204 335.776 L136.204 339.711 L114.26 339.711 L114.26 335.776 Q116.922 333.021 121.505 328.392 Q126.112 323.739 127.292 322.397 Q129.538 319.873 130.417 318.137 Q131.32 316.378 131.32 314.688 Q131.32 311.934 129.376 310.198 Q127.455 308.461 124.353 308.461 Q122.154 308.461 119.7 309.225 Q117.269 309.989 114.492 311.54 L114.492 306.818 Q117.316 305.684 119.769 305.105 Q122.223 304.526 124.26 304.526 Q129.63 304.526 132.825 307.211 Q136.019 309.897 136.019 314.387 Q136.019 316.517 135.209 318.438 Q134.422 320.336 132.316 322.929 Q131.737 323.6 128.635 326.818 Q125.533 330.012 119.885 335.776 Z" fill="#000000" fill-rule="nonzero" fill-opacity="1" /><path clip-path="url(#clip190)" d="M156.019 308.23 Q152.408 308.23 150.579 311.795 Q148.774 315.336 148.774 322.466 Q148.774 329.572 150.579 333.137 Q152.408 336.679 156.019 336.679 Q159.653 336.679 161.459 333.137 Q163.288 329.572 163.288 322.466 Q163.288 315.336 161.459 311.795 Q159.653 308.23 156.019 308.23 M156.019 304.526 Q161.829 304.526 164.885 309.133 Q167.964 313.716 167.964 322.466 Q167.964 331.193 164.885 335.799 Q161.829 340.383 156.019 340.383 Q150.209 340.383 147.13 335.799 Q144.075 331.193 144.075 322.466 Q144.075 313.716 147.13 309.133 Q150.209 304.526 156.019 304.526 Z" fill="#000000" fill-rule="nonzero" fill-opacity="1" /><path clip-path="url(#clip190)" d="M120.88 60.5889 L137.2 60.5889 L137.2 64.5241 L115.256 64.5241 L115.256 60.5889 Q117.918 57.8343 122.501 53.2047 Q127.107 48.552 128.288 47.2094 Q130.533 44.6862 131.413 42.9501 Q132.316 41.1909 132.316 39.5011 Q132.316 36.7465 130.371 35.0104 Q128.45 33.2743 125.348 33.2743 Q123.149 33.2743 120.695 34.0381 Q118.265 34.802 115.487 36.3529 L115.487 31.6308 Q118.311 30.4965 120.765 29.9178 Q123.218 29.3391 125.255 29.3391 Q130.626 29.3391 133.82 32.0243 Q137.015 34.7094 137.015 39.2002 Q137.015 41.3298 136.204 43.2511 Q135.417 45.1492 133.311 47.7418 Q132.732 48.4131 129.63 51.6306 Q126.529 54.8251 120.88 60.5889 Z" fill="#000000" fill-rule="nonzero" fill-opacity="1" /><path clip-path="url(#clip190)" d="M147.061 29.9641 L165.417 29.9641 L165.417 33.8993 L151.343 33.8993 L151.343 42.3714 Q152.362 42.0242 153.38 41.8622 Q154.399 41.677 155.417 41.677 Q161.204 41.677 164.584 44.8483 Q167.964 48.0196 167.964 53.4362 Q167.964 59.0149 164.491 62.1167 Q161.019 65.1954 154.7 65.1954 Q152.524 65.1954 150.255 64.825 Q148.01 64.4547 145.603 63.7139 L145.603 59.0149 Q147.686 60.1491 149.908 60.7047 Q152.13 61.2602 154.607 61.2602 Q158.612 61.2602 160.95 59.1538 Q163.288 57.0473 163.288 53.4362 Q163.288 49.8251 160.95 47.7186 Q158.612 45.6122 154.607 45.6122 Q152.732 45.6122 150.857 46.0288 Q149.005 46.4455 147.061 47.3251 L147.061 29.9641 Z" fill="#000000" fill-rule="nonzero" fill-opacity="1" /><path clip-path="url(#clip190)" d="M16.4842 1082.21 L16.4842 1075.78 L39.9736 1075.78 L16.4842 1052.8 L16.4842 1044.55 L35.263 1062.92 L64.0042 1043.6 L64.0042 1050.6 L39.528 1067.09 L48.4082 1075.78 L64.0042 1075.78 L64.0042 1082.21 L16.4842 1082.21 Z" fill="#000000" fill-rule="nonzero" fill-opacity="1" /><path clip-path="url(#clip190)" d="M32.4621 1022.37 Q32.4621 1027.08 36.1542 1029.82 Q39.8145 1032.55 46.212 1032.55 Q52.6095 1032.55 56.3017 1029.85 Q59.9619 1027.11 59.9619 1022.37 Q59.9619 1017.69 56.2698 1014.95 Q52.5777 1012.22 46.212 1012.22 Q39.8781 1012.22 36.186 1014.95 Q32.4621 1017.69 32.4621 1022.37 M27.4968 1022.37 Q27.4968 1014.73 32.4621 1010.37 Q37.4273 1006.01 46.212 1006.01 Q54.9649 1006.01 59.9619 1010.37 Q64.9272 1014.73 64.9272 1022.37 Q64.9272 1030.04 59.9619 1034.4 Q54.9649 1038.73 46.212 1038.73 Q37.4273 1038.73 32.4621 1034.4 Q27.4968 1030.04 27.4968 1022.37 Z" fill="#000000" fill-rule="nonzero" fill-opacity="1" /><path clip-path="url(#clip190)" d="M64.0042 1000.03 L59.1344 1000.03 Q58.2432 994.233 54.2328 992.45 Q48.5991 990.286 34.1808 990.286 L28.3562 990.286 L28.3562 966.192 L64.0042 966.192 L64.0042 972.048 L33.035 972.048 L33.035 984.429 L36.568 984.429 Q50.3179 984.429 56.4926 987.23 Q63.0811 990.222 64.0042 1000.03 Z" fill="#000000" fill-rule="nonzero" fill-opacity="1" /><path clip-path="url(#clip190)" d="M43.5384 957.598 L43.5384 940.442 L48.7583 940.442 L48.7583 957.598 L43.5384 957.598 Z" fill="#000000" fill-rule="nonzero" fill-opacity="1" /><path clip-path="url(#clip190)" d="M47.5806 925.483 L59.3254 925.483 L59.3254 917.144 Q59.3254 913.133 57.8294 911.033 Q56.3017 908.932 53.4371 908.932 Q50.5725 908.932 49.0766 911.033 Q47.5806 913.133 47.5806 917.144 L47.5806 925.483 M33.035 925.483 L42.9018 925.483 L42.9018 917.78 Q42.9018 914.47 41.5969 912.37 Q40.2601 910.269 37.9048 910.269 Q35.5494 910.269 34.3081 912.37 Q33.035 914.47 33.035 917.78 L33.035 925.483 M28.3562 931.339 L28.3562 917.398 Q28.3562 911.128 30.6479 907.754 Q32.9395 904.381 37.1727 904.381 Q40.451 904.381 42.3926 906.099 Q44.3023 907.818 44.7797 911.192 Q45.5436 907.15 47.9626 904.922 Q50.3815 902.694 54.01 902.694 Q58.7843 902.694 61.3942 906.386 Q64.0042 910.046 64.0042 916.857 L64.0042 931.339 L28.3562 931.339 Z" fill="#000000" fill-rule="nonzero" fill-opacity="1" /><path clip-path="url(#clip190)" d="M32.4621 878.886 Q32.4621 883.597 36.1542 886.334 Q39.8145 889.071 46.212 889.071 Q52.6095 889.071 56.3017 886.366 Q59.9619 883.628 59.9619 878.886 Q59.9619 874.207 56.2698 871.47 Q52.5777 868.733 46.212 868.733 Q39.8781 868.733 36.186 871.47 Q32.4621 874.207 32.4621 878.886 M27.4968 878.886 Q27.4968 871.247 32.4621 866.887 Q37.4273 862.526 46.212 862.526 Q54.9649 862.526 59.9619 866.887 Q64.9272 871.247 64.9272 878.886 Q64.9272 886.557 59.9619 890.917 Q54.9649 895.246 46.212 895.246 Q37.4273 895.246 32.4621 890.917 Q27.4968 886.557 27.4968 878.886 Z" fill="#000000" fill-rule="nonzero" fill-opacity="1" /><path clip-path="url(#clip190)" d="M29.7248 806.444 L35.1993 806.444 Q33.8307 808.927 33.1623 811.441 Q32.4621 813.924 32.4621 816.47 Q32.4621 822.168 36.0905 825.319 Q39.6872 828.47 46.212 828.47 Q52.7369 828.47 56.3653 825.319 Q59.9619 822.168 59.9619 816.47 Q59.9619 813.924 59.2935 811.441 Q58.5933 808.927 57.2247 806.444 L62.6355 806.444 Q63.7814 808.895 64.3543 811.537 Q64.9272 814.147 64.9272 817.107 Q64.9272 825.159 59.8664 829.902 Q54.8057 834.644 46.212 834.644 Q37.491 834.644 32.4939 829.87 Q27.4968 825.064 27.4968 816.725 Q27.4968 814.019 28.0697 811.441 Q28.6108 808.863 29.7248 806.444 Z" fill="#000000" fill-rule="nonzero" fill-opacity="1" /><path clip-path="url(#clip190)" d="M28.3562 796.482 L28.3562 790.657 L45.098 790.657 L28.3562 774.138 L28.3562 766.945 L42.138 780.568 L64.0042 765.194 L64.0042 771.751 L46.021 784.387 L52.3867 790.657 L64.0042 790.657 L64.0042 796.482 L28.3562 796.482 Z" fill="#000000" fill-rule="nonzero" fill-opacity="1" /><path clip-path="url(#clip190)" d="M47.5806 751.254 L59.3254 751.254 L59.3254 742.914 Q59.3254 738.904 57.8294 736.803 Q56.3017 734.703 53.4371 734.703 Q50.5725 734.703 49.0766 736.803 Q47.5806 738.904 47.5806 742.914 L47.5806 751.254 M33.035 751.254 L42.9018 751.254 L42.9018 743.551 Q42.9018 740.241 41.5969 738.14 Q40.2601 736.04 37.9048 736.04 Q35.5494 736.04 34.3081 738.14 Q33.035 740.241 33.035 743.551 L33.035 751.254 M28.3562 757.11 L28.3562 743.169 Q28.3562 736.899 30.6479 733.525 Q32.9395 730.151 37.1727 730.151 Q40.451 730.151 42.3926 731.87 Q44.3023 733.589 44.7797 736.963 Q45.5436 732.92 47.9626 730.692 Q50.3815 728.464 54.01 728.464 Q58.7843 728.464 61.3942 732.156 Q64.0042 735.817 64.0042 742.628 L64.0042 757.11 L28.3562 757.11 Z" fill="#000000" fill-rule="nonzero" fill-opacity="1" /><path clip-path="url(#clip190)" d="M46.0847 702.269 Q46.0847 709.367 47.7079 712.104 Q49.3312 714.842 53.2461 714.842 Q56.3653 714.842 58.2114 712.805 Q60.0256 710.736 60.0256 707.203 Q60.0256 702.333 56.5881 699.405 Q53.1188 696.445 47.3897 696.445 L46.0847 696.445 L46.0847 702.269 M43.6657 690.588 L64.0042 690.588 L64.0042 696.445 L58.5933 696.445 Q61.8398 698.45 63.3994 701.442 Q64.9272 704.434 64.9272 708.762 Q64.9272 714.237 61.8716 717.483 Q58.7843 720.698 53.6281 720.698 Q47.6125 720.698 44.5569 716.688 Q41.5014 712.646 41.5014 704.657 L41.5014 696.445 L40.9285 696.445 Q36.8862 696.445 34.6901 699.118 Q32.4621 701.76 32.4621 706.566 Q32.4621 709.622 33.1941 712.518 Q33.9262 715.415 35.3903 718.088 L29.9795 718.088 Q28.7381 714.874 28.1334 711.85 Q27.4968 708.826 27.4968 705.962 Q27.4968 698.227 31.5072 694.408 Q35.5176 690.588 43.6657 690.588 Z" fill="#000000" fill-rule="nonzero" fill-opacity="1" /><path clip-path="url(#clip190)" d="M28.3562 658.219 L28.3562 652.394 L45.098 652.394 L28.3562 636.83 L28.3562 630.019 L42.0743 642.814 L64.0042 628.173 L64.0042 634.443 L45.9892 646.442 L52.3867 652.394 L64.0042 652.394 L64.0042 658.219 L52.3867 658.219 L45.9892 664.171 L64.0042 676.17 L64.0042 682.44 L42.0743 667.799 L28.3562 680.594 L28.3562 673.783 L45.098 658.219 L28.3562 658.219 Z" fill="#000000" fill-rule="nonzero" fill-opacity="1" /><path clip-path="url(#clip190)" d="M28.3562 589.501 L64.0042 589.501 L64.0042 595.326 L35.3903 595.326 L64.0042 612.513 L64.0042 620.025 L28.3562 620.025 L28.3562 614.2 L56.9064 614.2 L28.3562 597.044 L28.3562 589.501 Z" fill="#000000" fill-rule="nonzero" fill-opacity="1" /><path clip-path="url(#clip190)" d="M28.3562 577.661 L28.3562 571.772 L42.9018 571.772 L42.9018 552.771 L28.3562 552.771 L28.3562 546.883 L64.0042 546.883 L64.0042 552.771 L47.5806 552.771 L47.5806 571.772 L64.0042 571.772 L64.0042 577.661 L28.3562 577.661 Z" fill="#000000" fill-rule="nonzero" fill-opacity="1" /><path clip-path="url(#clip190)" d="M55.9197 533.324 L55.9197 526.608 L61.3942 526.608 L71.5793 531.828 L71.5793 535.934 L61.3942 533.324 L55.9197 533.324 Z" fill="#000000" fill-rule="nonzero" fill-opacity="1" /><path clip-path="url(#clip190)" d="M59.3254 466.77 L59.3254 451.683 L28.3562 451.683 L28.3562 445.795 L64.0042 445.795 L64.0042 493.602 L28.3562 493.602 L28.3562 487.713 L59.3254 487.713 L59.3254 472.658 L28.3562 472.658 L28.3562 466.77 L59.3254 466.77 Z" fill="#000000" fill-rule="nonzero" fill-opacity="1" /><path clip-path="url(#clip190)" d="M28.3562 437.965 L28.3562 403.813 L33.035 403.813 L33.035 418.009 L64.0042 418.009 L64.0042 423.77 L33.035 423.77 L33.035 437.965 L28.3562 437.965 Z" fill="#000000" fill-rule="nonzero" fill-opacity="1" /><path clip-path="url(#clip190)" d="M55.9197 394.933 L55.9197 388.217 L64.0042 388.217 L64.0042 394.933 L55.9197 394.933 Z" fill="#000000" fill-rule="nonzero" fill-opacity="1" /><path clip-path="url(#clip192)" d="M322.151 1368.14 L322.151 1423.18 L496.007 1423.18 L496.007 1368.14 L322.151 1368.14 L322.151 1368.14  Z" fill="#009af9" fill-rule="evenodd" fill-opacity="1"/>
<polyline clip-path="url(#clip192)" style="stroke:#000000; stroke-linecap:round; stroke-linejoin:round; stroke-width:4; stroke-opacity:1; fill:none" points="322.151,1368.14 322.151,1423.18 496.007,1423.18 496.007,1368.14 322.151,1368.14 "/>
<path clip-path="url(#clip192)" d="M496.007 1368.14 L496.007 1423.18 L669.863 1423.18 L669.863 1368.14 L496.007 1368.14 L496.007 1368.14  Z" fill="#009af9" fill-rule="evenodd" fill-opacity="1"/>
<polyline clip-path="url(#clip192)" style="stroke:#000000; stroke-linecap:round; stroke-linejoin:round; stroke-width:4; stroke-opacity:1; fill:none" points="496.007,1368.14 496.007,1423.18 669.863,1423.18 669.863,1368.14 496.007,1368.14 "/>
<path clip-path="url(#clip192)" d="M669.863 1423.18 L669.863 1423.18 L843.719 1423.18 L843.719 1423.18 L669.863 1423.18 L669.863 1423.18  Z" fill="#009af9" fill-rule="evenodd" fill-opacity="1"/>
<polyline clip-path="url(#clip192)" style="stroke:#000000; stroke-linecap:round; stroke-linejoin:round; stroke-width:4; stroke-opacity:1; fill:none" points="669.863,1423.18 669.863,1423.18 843.719,1423.18 669.863,1423.18 "/>
<path clip-path="url(#clip192)" d="M843.719 1313.1 L843.719 1423.18 L1017.58 1423.18 L1017.58 1313.1 L843.719 1313.1 L843.719 1313.1  Z" fill="#009af9" fill-rule="evenodd" fill-opacity="1"/>
<polyline clip-path="url(#clip192)" style="stroke:#000000; stroke-linecap:round; stroke-linejoin:round; stroke-width:4; stroke-opacity:1; fill:none" points="843.719,1313.1 843.719,1423.18 1017.58,1423.18 1017.58,1313.1 843.719,1313.1 "/>
<path clip-path="url(#clip192)" d="M1017.58 817.768 L1017.58 1423.18 L1191.43 1423.18 L1191.43 817.768 L1017.58 817.768 L1017.58 817.768  Z" fill="#009af9" fill-rule="evenodd" fill-opacity="1"/>
<polyline clip-path="url(#clip192)" style="stroke:#000000; stroke-linecap:round; stroke-linejoin:round; stroke-width:4; stroke-opacity:1; fill:none" points="1017.58,817.768 1017.58,1423.18 1191.43,1423.18 1191.43,817.768 1017.58,817.768 "/>
<path clip-path="url(#clip192)" d="M1191.43 47.2441 L1191.43 1423.18 L1365.29 1423.18 L1365.29 47.2441 L1191.43 47.2441 L1191.43 47.2441  Z" fill="#009af9" fill-rule="evenodd" fill-opacity="1"/>
<polyline clip-path="url(#clip192)" style="stroke:#000000; stroke-linecap:round; stroke-linejoin:round; stroke-width:4; stroke-opacity:1; fill:none" points="1191.43,47.2441 1191.43,1423.18 1365.29,1423.18 1365.29,47.2441 1191.43,47.2441 "/>
<path clip-path="url(#clip192)" d="M1365.29 707.693 L1365.29 1423.18 L1539.14 1423.18 L1539.14 707.693 L1365.29 707.693 L1365.29 707.693  Z" fill="#009af9" fill-rule="evenodd" fill-opacity="1"/>
<polyline clip-path="url(#clip192)" style="stroke:#000000; stroke-linecap:round; stroke-linejoin:round; stroke-width:4; stroke-opacity:1; fill:none" points="1365.29,707.693 1365.29,1423.18 1539.14,1423.18 1539.14,707.693 1365.29,707.693 "/>
<path clip-path="url(#clip192)" d="M1539.14 1037.92 L1539.14 1423.18 L1713 1423.18 L1713 1037.92 L1539.14 1037.92 L1539.14 1037.92  Z" fill="#009af9" fill-rule="evenodd" fill-opacity="1"/>
<polyline clip-path="url(#clip192)" style="stroke:#000000; stroke-linecap:round; stroke-linejoin:round; stroke-width:4; stroke-opacity:1; fill:none" points="1539.14,1037.92 1539.14,1423.18 1713,1423.18 1713,1037.92 1539.14,1037.92 "/>
<path clip-path="url(#clip192)" d="M1713 1147.99 L1713 1423.18 L1886.86 1423.18 L1886.86 1147.99 L1713 1147.99 L1713 1147.99  Z" fill="#009af9" fill-rule="evenodd" fill-opacity="1"/>
<polyline clip-path="url(#clip192)" style="stroke:#000000; stroke-linecap:round; stroke-linejoin:round; stroke-width:4; stroke-opacity:1; fill:none" points="1713,1147.99 1713,1423.18 1886.86,1423.18 1886.86,1147.99 1713,1147.99 "/>
<path clip-path="url(#clip192)" d="M1886.86 1258.07 L1886.86 1423.18 L2060.71 1423.18 L2060.71 1258.07 L1886.86 1258.07 L1886.86 1258.07  Z" fill="#009af9" fill-rule="evenodd" fill-opacity="1"/>
<polyline clip-path="url(#clip192)" style="stroke:#000000; stroke-linecap:round; stroke-linejoin:round; stroke-width:4; stroke-opacity:1; fill:none" points="1886.86,1258.07 1886.86,1423.18 2060.71,1423.18 2060.71,1258.07 1886.86,1258.07 "/>
<path clip-path="url(#clip192)" d="M2060.71 1313.1 L2060.71 1423.18 L2234.57 1423.18 L2234.57 1313.1 L2060.71 1313.1 L2060.71 1313.1  Z" fill="#009af9" fill-rule="evenodd" fill-opacity="1"/>
<polyline clip-path="url(#clip192)" style="stroke:#000000; stroke-linecap:round; stroke-linejoin:round; stroke-width:4; stroke-opacity:1; fill:none" points="2060.71,1313.1 2060.71,1423.18 2234.57,1423.18 2234.57,1313.1 2060.71,1313.1 "/>
<circle clip-path="url(#clip192)" style="fill:#009af9; stroke:none; fill-opacity:0" cx="409.079" cy="1368.14" r="2"/>
<circle clip-path="url(#clip192)" style="fill:#009af9; stroke:none; fill-opacity:0" cx="582.935" cy="1368.14" r="2"/>
<circle clip-path="url(#clip192)" style="fill:#009af9; stroke:none; fill-opacity:0" cx="756.791" cy="1423.18" r="2"/>
<circle clip-path="url(#clip192)" style="fill:#009af9; stroke:none; fill-opacity:0" cx="930.647" cy="1313.1" r="2"/>
<circle clip-path="url(#clip192)" style="fill:#009af9; stroke:none; fill-opacity:0" cx="1104.5" cy="817.768" r="2"/>
<circle clip-path="url(#clip192)" style="fill:#009af9; stroke:none; fill-opacity:0" cx="1278.36" cy="47.2441" r="2"/>
<circle clip-path="url(#clip192)" style="fill:#009af9; stroke:none; fill-opacity:0" cx="1452.22" cy="707.693" r="2"/>
<circle clip-path="url(#clip192)" style="fill:#009af9; stroke:none; fill-opacity:0" cx="1626.07" cy="1037.92" r="2"/>
<circle clip-path="url(#clip192)" style="fill:#009af9; stroke:none; fill-opacity:0" cx="1799.93" cy="1147.99" r="2"/>
<circle clip-path="url(#clip192)" style="fill:#009af9; stroke:none; fill-opacity:0" cx="1973.78" cy="1258.07" r="2"/>
<circle clip-path="url(#clip192)" style="fill:#009af9; stroke:none; fill-opacity:0" cx="2147.64" cy="1313.1" r="2"/>
<path clip-path="url(#clip190)" d="M1970.74 196.789 L2281.13 196.789 L2281.13 93.1086 L1970.74 93.1086  Z" fill="#ffffff" fill-rule="evenodd" fill-opacity="1"/>
<polyline clip-path="url(#clip190)" style="stroke:#000000; stroke-linecap:round; stroke-linejoin:round; stroke-width:4; stroke-opacity:1; fill:none" points="1970.74,196.789 2281.13,196.789 2281.13,93.1086 1970.74,93.1086 1970.74,196.789 "/>
<path clip-path="url(#clip190)" d="M1994.62 165.685 L2137.87 165.685 L2137.87 124.213 L1994.62 124.213 L1994.62 165.685  Z" fill="#009af9" fill-rule="evenodd" fill-opacity="1"/>
<polyline clip-path="url(#clip190)" style="stroke:#000000; stroke-linecap:round; stroke-linejoin:round; stroke-width:4; stroke-opacity:1; fill:none" points="1994.62,165.685 2137.87,165.685 2137.87,124.213 1994.62,124.213 1994.62,165.685 "/>
<path clip-path="url(#clip190)" d="M2172.16 127.044 Q2177.86 127.044 2181.47 129.474 Q2185.08 131.882 2185.08 136.002 Q2185.08 138.872 2183.43 140.863 Q2181.79 142.831 2178.76 143.594 Q2182.12 144.312 2183.99 146.581 Q2185.89 148.849 2185.89 152.182 Q2185.89 157.506 2181.77 160.215 Q2177.67 162.9 2172.16 162.9 Q2169.34 162.9 2166.05 162.136 Q2162.76 161.372 2161.75 160.724 L2161.75 155.909 Q2165.29 157.969 2167.23 158.479 Q2169.2 158.965 2172.07 158.965 Q2176.42 158.965 2178.83 157.298 Q2181.24 155.631 2181.24 152.182 Q2181.24 149.127 2179.08 147.414 Q2176.95 145.678 2172.44 145.678 L2167.72 145.678 L2167.72 141.835 L2172.62 141.835 Q2176.77 141.835 2178.6 140.469 Q2180.43 139.081 2180.43 136.488 Q2180.43 133.826 2178.53 132.414 Q2176.65 130.979 2172.07 130.979 Q2168.97 130.979 2167.9 131.257 Q2166.84 131.534 2162.09 133.317 L2162.09 128.757 Q2164.71 127.831 2167.44 127.437 Q2170.17 127.044 2172.16 127.044 Z" fill="#000000" fill-rule="nonzero" fill-opacity="1" /><path clip-path="url(#clip190)" d="M2205.26 149.196 Q2200.1 149.196 2198.11 150.377 Q2196.12 151.557 2196.12 154.405 Q2196.12 156.673 2197.6 158.016 Q2199.11 159.335 2201.68 159.335 Q2205.22 159.335 2207.35 156.835 Q2209.5 154.312 2209.5 150.145 L2209.5 149.196 L2205.26 149.196 M2213.76 147.437 L2213.76 162.229 L2209.5 162.229 L2209.5 158.293 Q2208.04 160.655 2205.87 161.789 Q2203.69 162.9 2200.54 162.9 Q2196.56 162.9 2194.2 160.678 Q2191.86 158.432 2191.86 154.682 Q2191.86 150.307 2194.78 148.085 Q2197.72 145.863 2203.53 145.863 L2209.5 145.863 L2209.5 145.446 Q2209.5 142.507 2207.56 140.909 Q2205.63 139.289 2202.14 139.289 Q2199.92 139.289 2197.81 139.821 Q2195.7 140.354 2193.76 141.419 L2193.76 137.483 Q2196.1 136.581 2198.3 136.141 Q2200.5 135.678 2202.58 135.678 Q2208.2 135.678 2210.98 138.594 Q2213.76 141.511 2213.76 147.437 Z" fill="#000000" fill-rule="nonzero" fill-opacity="1" /><path clip-path="url(#clip190)" d="M2232.81 135.678 Q2238.37 135.678 2241.54 139.289 Q2244.71 142.9 2244.71 149.289 Q2244.71 155.655 2241.54 159.289 Q2238.37 162.9 2232.81 162.9 Q2227.23 162.9 2224.15 159.381 Q2221.07 155.863 2220.91 149.289 L2220.77 143.988 Q2220.66 141.233 2220.66 140.284 Q2220.66 136.581 2222 133.849 Q2224.11 129.567 2227.74 127.715 Q2231.4 125.863 2237.51 125.817 Q2240.33 125.794 2241.58 125.4 L2242.76 128.78 Q2241.63 129.243 2240.59 129.266 L2234.8 129.659 Q2231.88 129.868 2230.12 130.886 Q2225.52 133.595 2225.08 137.136 L2224.92 138.432 Q2227.93 135.678 2232.81 135.678 M2232.81 139.289 Q2229.38 139.289 2227.39 141.974 Q2225.4 144.636 2225.4 149.289 Q2225.4 153.942 2227.37 156.627 Q2229.36 159.289 2232.81 159.289 Q2236.21 159.289 2238.2 156.604 Q2240.19 153.918 2240.19 149.289 Q2240.19 144.682 2238.2 141.997 Q2236.21 139.289 2232.81 139.289 Z" fill="#000000" fill-rule="nonzero" fill-opacity="1" /><path clip-path="url(#clip190)" d="M2252.37 156.349 L2257.25 156.349 L2257.25 162.229 L2252.37 162.229 L2252.37 156.349 Z" fill="#000000" fill-rule="nonzero" fill-opacity="1" /></svg>
