<?xml version="1.0" encoding="utf-8"?>
<svg xmlns="http://www.w3.org/2000/svg" xmlns:xlink="http://www.w3.org/1999/xlink" width="600" height="400" viewBox="0 0 2400 1600">
<defs>
  <clipPath id="clip550">
    <rect x="0" y="0" width="2400" height="1600"/>
  </clipPath>
</defs>
<path clip-path="url(#clip550)" d="M0 1600 L2400 1600 L2400 0 L0 0  Z" fill="#ffffff" fill-rule="evenodd" fill-opacity="1"/>
<defs>
  <clipPath id="clip551">
    <rect x="480" y="0" width="1681" height="1600"/>
  </clipPath>
</defs>
<path clip-path="url(#clip550)" d="M203.964 1423.18 L2352.76 1423.18 L2352.76 47.2441 L203.964 47.2441  Z" fill="#ffffff" fill-rule="evenodd" fill-opacity="1"/>
<defs>
  <clipPath id="clip552">
    <rect x="203" y="47" width="2150" height="1377"/>
  </clipPath>
</defs>
<polyline clip-path="url(#clip552)" style="stroke:#000000; stroke-linecap:round; stroke-linejoin:round; stroke-width:2; stroke-opacity:0.1; fill:none" points="322.151,1423.18 322.151,47.2441 "/>
<polyline clip-path="url(#clip552)" style="stroke:#000000; stroke-linecap:round; stroke-linejoin:round; stroke-width:2; stroke-opacity:0.1; fill:none" points="747.133,1423.18 747.133,47.2441 "/>
<polyline clip-path="url(#clip552)" style="stroke:#000000; stroke-linecap:round; stroke-linejoin:round; stroke-width:2; stroke-opacity:0.1; fill:none" points="1172.11,1423.18 1172.11,47.2441 "/>
<polyline clip-path="url(#clip552)" style="stroke:#000000; stroke-linecap:round; stroke-linejoin:round; stroke-width:2; stroke-opacity:0.1; fill:none" points="1597.1,1423.18 1597.1,47.2441 "/>
<polyline clip-path="url(#clip552)" style="stroke:#000000; stroke-linecap:round; stroke-linejoin:round; stroke-width:2; stroke-opacity:0.1; fill:none" points="2022.08,1423.18 2022.08,47.2441 "/>
<polyline clip-path="url(#clip550)" style="stroke:#000000; stroke-linecap:round; stroke-linejoin:round; stroke-width:4; stroke-opacity:1; fill:none" points="203.964,1423.18 2352.76,1423.18 "/>
<polyline clip-path="url(#clip550)" style="stroke:#000000; stroke-linecap:round; stroke-linejoin:round; stroke-width:4; stroke-opacity:1; fill:none" points="322.151,1423.18 322.151,1404.28 "/>
<polyline clip-path="url(#clip550)" style="stroke:#000000; stroke-linecap:round; stroke-linejoin:round; stroke-width:4; stroke-opacity:1; fill:none" points="747.133,1423.18 747.133,1404.28 "/>
<polyline clip-path="url(#clip550)" style="stroke:#000000; stroke-linecap:round; stroke-linejoin:round; stroke-width:4; stroke-opacity:1; fill:none" points="1172.11,1423.18 1172.11,1404.28 "/>
<polyline clip-path="url(#clip550)" style="stroke:#000000; stroke-linecap:round; stroke-linejoin:round; stroke-width:4; stroke-opacity:1; fill:none" points="1597.1,1423.18 1597.1,1404.28 "/>
<polyline clip-path="url(#clip550)" style="stroke:#000000; stroke-linecap:round; stroke-linejoin:round; stroke-width:4; stroke-opacity:1; fill:none" points="2022.08,1423.18 2022.08,1404.28 "/>
<path clip-path="url(#clip550)" d="M322.151 1454.1 Q318.54 1454.1 316.711 1457.66 Q314.906 1461.2 314.906 1468.33 Q314.906 1475.44 316.711 1479.01 Q318.54 1482.55 322.151 1482.55 Q325.785 1482.55 327.591 1479.01 Q329.419 1475.44 329.419 1468.33 Q329.419 1461.2 327.591 1457.66 Q325.785 1454.1 322.151 1454.1 M322.151 1450.39 Q327.961 1450.39 331.017 1455 Q334.095 1459.58 334.095 1468.33 Q334.095 1477.06 331.017 1481.67 Q327.961 1486.25 322.151 1486.25 Q316.341 1486.25 313.262 1481.67 Q310.207 1477.06 310.207 1468.33 Q310.207 1459.58 313.262 1455 Q316.341 1450.39 322.151 1450.39 Z" fill="#000000" fill-rule="nonzero" fill-opacity="1" /><path clip-path="url(#clip550)" d="M721.82 1481.64 L729.459 1481.64 L729.459 1455.28 L721.149 1456.95 L721.149 1452.69 L729.413 1451.02 L734.089 1451.02 L734.089 1481.64 L741.728 1481.64 L741.728 1485.58 L721.82 1485.58 L721.82 1481.64 Z" fill="#000000" fill-rule="nonzero" fill-opacity="1" /><path clip-path="url(#clip550)" d="M761.172 1454.1 Q757.561 1454.1 755.732 1457.66 Q753.927 1461.2 753.927 1468.33 Q753.927 1475.44 755.732 1479.01 Q757.561 1482.55 761.172 1482.55 Q764.806 1482.55 766.612 1479.01 Q768.44 1475.44 768.44 1468.33 Q768.44 1461.2 766.612 1457.66 Q764.806 1454.1 761.172 1454.1 M761.172 1450.39 Q766.982 1450.39 770.038 1455 Q773.116 1459.58 773.116 1468.33 Q773.116 1477.06 770.038 1481.67 Q766.982 1486.25 761.172 1486.25 Q755.362 1486.25 752.283 1481.67 Q749.228 1477.06 749.228 1468.33 Q749.228 1459.58 752.283 1455 Q755.362 1450.39 761.172 1450.39 Z" fill="#000000" fill-rule="nonzero" fill-opacity="1" /><path clip-path="url(#clip550)" d="M1150.89 1481.64 L1167.21 1481.64 L1167.21 1485.58 L1145.26 1485.58 L1145.26 1481.64 Q1147.92 1478.89 1152.51 1474.26 Q1157.11 1469.61 1158.29 1468.27 Q1160.54 1465.74 1161.42 1464.01 Q1162.32 1462.25 1162.32 1460.56 Q1162.32 1457.8 1160.38 1456.07 Q1158.46 1454.33 1155.36 1454.33 Q1153.16 1454.33 1150.7 1455.09 Q1148.27 1455.86 1145.49 1457.41 L1145.49 1452.69 Q1148.32 1451.55 1150.77 1450.97 Q1153.23 1450.39 1155.26 1450.39 Q1160.63 1450.39 1163.83 1453.08 Q1167.02 1455.77 1167.02 1460.26 Q1167.02 1462.39 1166.21 1464.31 Q1165.42 1466.2 1163.32 1468.8 Q1162.74 1469.47 1159.64 1472.69 Q1156.54 1475.88 1150.89 1481.64 Z" fill="#000000" fill-rule="nonzero" fill-opacity="1" /><path clip-path="url(#clip550)" d="M1187.02 1454.1 Q1183.41 1454.1 1181.58 1457.66 Q1179.78 1461.2 1179.78 1468.33 Q1179.78 1475.44 1181.58 1479.01 Q1183.41 1482.55 1187.02 1482.55 Q1190.66 1482.55 1192.46 1479.01 Q1194.29 1475.44 1194.29 1468.33 Q1194.29 1461.2 1192.46 1457.66 Q1190.66 1454.1 1187.02 1454.1 M1187.02 1450.39 Q1192.83 1450.39 1195.89 1455 Q1198.97 1459.58 1198.97 1468.33 Q1198.97 1477.06 1195.89 1481.67 Q1192.83 1486.25 1187.02 1486.25 Q1181.21 1486.25 1178.13 1481.67 Q1175.08 1477.06 1175.08 1468.33 Q1175.08 1459.58 1178.13 1455 Q1181.21 1450.39 1187.02 1450.39 Z" fill="#000000" fill-rule="nonzero" fill-opacity="1" /><path clip-path="url(#clip550)" d="M1585.94 1466.95 Q1589.3 1467.66 1591.17 1469.93 Q1593.07 1472.2 1593.07 1475.53 Q1593.07 1480.65 1589.55 1483.45 Q1586.03 1486.25 1579.55 1486.25 Q1577.37 1486.25 1575.06 1485.81 Q1572.77 1485.39 1570.31 1484.54 L1570.31 1480.02 Q1572.26 1481.16 1574.57 1481.74 Q1576.89 1482.32 1579.41 1482.32 Q1583.81 1482.32 1586.1 1480.58 Q1588.42 1478.84 1588.42 1475.53 Q1588.42 1472.48 1586.26 1470.77 Q1584.13 1469.03 1580.31 1469.03 L1576.29 1469.03 L1576.29 1465.19 L1580.5 1465.19 Q1583.95 1465.19 1585.78 1463.82 Q1587.61 1462.43 1587.61 1459.84 Q1587.61 1457.18 1585.71 1455.77 Q1583.83 1454.33 1580.31 1454.33 Q1578.39 1454.33 1576.19 1454.75 Q1573.99 1455.16 1571.36 1456.04 L1571.36 1451.88 Q1574.02 1451.14 1576.33 1450.77 Q1578.67 1450.39 1580.73 1450.39 Q1586.05 1450.39 1589.16 1452.83 Q1592.26 1455.23 1592.26 1459.35 Q1592.26 1462.22 1590.61 1464.21 Q1588.97 1466.18 1585.94 1466.95 Z" fill="#000000" fill-rule="nonzero" fill-opacity="1" /><path clip-path="url(#clip550)" d="M1611.93 1454.1 Q1608.32 1454.1 1606.49 1457.66 Q1604.69 1461.2 1604.69 1468.33 Q1604.69 1475.44 1606.49 1479.01 Q1608.32 1482.55 1611.93 1482.55 Q1615.57 1482.55 1617.37 1479.01 Q1619.2 1475.44 1619.2 1468.33 Q1619.2 1461.2 1617.37 1457.66 Q1615.57 1454.1 1611.93 1454.1 M1611.93 1450.39 Q1617.74 1450.39 1620.8 1455 Q1623.88 1459.58 1623.88 1468.33 Q1623.88 1477.06 1620.8 1481.67 Q1617.74 1486.25 1611.93 1486.25 Q1606.12 1486.25 1603.05 1481.67 Q1599.99 1477.06 1599.99 1468.33 Q1599.99 1459.58 1603.05 1455 Q1606.12 1450.39 1611.93 1450.39 Z" fill="#000000" fill-rule="nonzero" fill-opacity="1" /><path clip-path="url(#clip550)" d="M2010.25 1455.09 L1998.44 1473.54 L2010.25 1473.54 L2010.25 1455.09 M2009.02 1451.02 L2014.9 1451.02 L2014.9 1473.54 L2019.83 1473.54 L2019.83 1477.43 L2014.9 1477.43 L2014.9 1485.58 L2010.25 1485.58 L2010.25 1477.43 L1994.65 1477.43 L1994.65 1472.92 L2009.02 1451.02 Z" fill="#000000" fill-rule="nonzero" fill-opacity="1" /><path clip-path="url(#clip550)" d="M2037.56 1454.1 Q2033.95 1454.1 2032.12 1457.66 Q2030.32 1461.2 2030.32 1468.33 Q2030.32 1475.44 2032.12 1479.01 Q2033.95 1482.55 2037.56 1482.55 Q2041.2 1482.55 2043 1479.01 Q2044.83 1475.44 2044.83 1468.33 Q2044.83 1461.2 2043 1457.66 Q2041.2 1454.1 2037.56 1454.1 M2037.56 1450.39 Q2043.37 1450.39 2046.43 1455 Q2049.51 1459.58 2049.51 1468.33 Q2049.51 1477.06 2046.43 1481.67 Q2043.37 1486.25 2037.56 1486.25 Q2031.75 1486.25 2028.67 1481.67 Q2025.62 1477.06 2025.62 1468.33 Q2025.62 1459.58 2028.67 1455 Q2031.75 1450.39 2037.56 1450.39 Z" fill="#000000" fill-rule="nonzero" fill-opacity="1" /><path clip-path="url(#clip550)" d="M790.524 1524.88 Q783.522 1524.88 779.384 1530.1 Q775.278 1535.32 775.278 1544.33 Q775.278 1553.31 779.384 1558.53 Q783.522 1563.75 790.524 1563.75 Q797.526 1563.75 801.6 1558.53 Q805.706 1553.31 805.706 1544.33 Q805.706 1535.32 801.6 1530.1 Q797.526 1524.88 790.524 1524.88 M790.524 1519.66 Q800.518 1519.66 806.502 1526.38 Q812.485 1533.06 812.485 1544.33 Q812.485 1555.57 806.502 1562.28 Q800.518 1568.97 790.524 1568.97 Q780.498 1568.97 774.482 1562.28 Q768.498 1555.6 768.498 1544.33 Q768.498 1533.06 774.482 1526.38 Q780.498 1519.66 790.524 1519.66 Z" fill="#000000" fill-rule="nonzero" fill-opacity="1" /><path clip-path="url(#clip550)" d="M836.421 1531.54 Q844.059 1531.54 848.42 1536.5 Q852.78 1541.47 852.78 1550.25 Q852.78 1559 848.42 1564 Q844.059 1568.97 836.421 1568.97 Q828.75 1568.97 824.517 1564.13 Q820.283 1559.29 820.061 1550.25 L819.87 1542.96 Q819.711 1539.18 819.711 1537.87 Q819.711 1532.78 821.557 1529.02 Q824.453 1523.13 829.45 1520.59 Q834.479 1518.04 842.882 1517.98 Q846.765 1517.95 848.484 1517.4 L850.107 1522.05 Q848.547 1522.69 847.115 1522.72 L839.158 1523.26 Q835.147 1523.55 832.728 1524.95 Q826.395 1528.67 825.79 1533.54 L825.567 1535.32 Q829.705 1531.54 836.421 1531.54 M836.421 1536.5 Q831.71 1536.5 828.973 1540.19 Q826.235 1543.85 826.235 1550.25 Q826.235 1556.65 828.941 1560.34 Q831.678 1564 836.421 1564 Q841.099 1564 843.837 1560.31 Q846.574 1556.62 846.574 1550.25 Q846.574 1543.92 843.837 1540.23 Q841.099 1536.5 836.421 1536.5 Z" fill="#000000" fill-rule="nonzero" fill-opacity="1" /><path clip-path="url(#clip550)" d="M892.98 1548.76 L892.98 1551.62 L866.053 1551.62 Q866.435 1557.67 869.681 1560.85 Q872.96 1564 878.784 1564 Q882.158 1564 885.309 1563.17 Q888.492 1562.35 891.611 1560.69 L891.611 1566.23 Q888.46 1567.57 885.15 1568.27 Q881.84 1568.97 878.434 1568.97 Q869.904 1568.97 864.907 1564 Q859.942 1559.04 859.942 1550.57 Q859.942 1541.82 864.652 1536.69 Q869.395 1531.54 877.416 1531.54 Q884.609 1531.54 888.778 1536.18 Q892.98 1540.8 892.98 1548.76 M887.123 1547.04 Q887.06 1542.23 884.418 1539.37 Q881.808 1536.5 877.479 1536.5 Q872.578 1536.5 869.618 1539.27 Q866.689 1542.04 866.244 1547.07 L887.123 1547.04 Z" fill="#000000" fill-rule="nonzero" fill-opacity="1" /><path clip-path="url(#clip550)" d="M928.246 1533.76 L928.246 1539.24 Q925.763 1537.87 923.249 1537.2 Q920.766 1536.5 918.22 1536.5 Q912.523 1536.5 909.372 1540.13 Q906.221 1543.73 906.221 1550.25 Q906.221 1556.78 909.372 1560.4 Q912.523 1564 918.22 1564 Q920.766 1564 923.249 1563.33 Q925.763 1562.63 928.246 1561.26 L928.246 1566.68 Q925.795 1567.82 923.153 1568.39 Q920.543 1568.97 917.583 1568.97 Q909.531 1568.97 904.788 1563.91 Q900.046 1558.85 900.046 1550.25 Q900.046 1541.53 904.82 1536.53 Q909.626 1531.54 917.965 1531.54 Q920.671 1531.54 923.249 1532.11 Q925.827 1532.65 928.246 1533.76 Z" fill="#000000" fill-rule="nonzero" fill-opacity="1" /><path clip-path="url(#clip550)" d="M968.986 1532.4 L968.986 1568.04 L963.098 1568.04 L963.098 1537.07 L944.096 1537.07 L944.096 1568.04 L938.208 1568.04 L938.208 1532.4 L968.986 1532.4 Z" fill="#000000" fill-rule="nonzero" fill-opacity="1" /><path clip-path="url(#clip550)" d="M1011.54 1548.76 L1011.54 1551.62 L984.614 1551.62 Q984.996 1557.67 988.243 1560.85 Q991.521 1564 997.346 1564 Q1000.72 1564 1003.87 1563.17 Q1007.05 1562.35 1010.17 1560.69 L1010.17 1566.23 Q1007.02 1567.57 1003.71 1568.27 Q1000.4 1568.97 996.996 1568.97 Q988.465 1568.97 983.468 1564 Q978.503 1559.04 978.503 1550.57 Q978.503 1541.82 983.214 1536.69 Q987.956 1531.54 995.977 1531.54 Q1003.17 1531.54 1007.34 1536.18 Q1011.54 1540.8 1011.54 1548.76 M1005.68 1547.04 Q1005.62 1542.23 1002.98 1539.37 Q1000.37 1536.5 996.041 1536.5 Q991.139 1536.5 988.179 1539.27 Q985.251 1542.04 984.805 1547.07 L1005.68 1547.04 Z" fill="#000000" fill-rule="nonzero" fill-opacity="1" /><path clip-path="url(#clip550)" d="M1041.75 1568.04 L1041.75 1553.05 L1030.83 1553.05 Q1025.96 1553.05 1022.71 1550.03 Q1019.78 1547.29 1019.78 1541.44 L1019.78 1532.4 L1025.64 1532.4 L1025.64 1540.89 Q1025.64 1544.62 1027.3 1546.5 Q1028.98 1548.37 1032.29 1548.37 L1041.75 1548.37 L1041.75 1532.4 L1047.6 1532.4 L1047.6 1568.04 L1041.75 1568.04 Z" fill="#000000" fill-rule="nonzero" fill-opacity="1" /><path clip-path="url(#clip550)" d="M1090.16 1548.76 L1090.16 1551.62 L1063.23 1551.62 Q1063.61 1557.67 1066.86 1560.85 Q1070.14 1564 1075.96 1564 Q1079.34 1564 1082.49 1563.17 Q1085.67 1562.35 1088.79 1560.69 L1088.79 1566.23 Q1085.64 1567.57 1082.33 1568.27 Q1079.02 1568.97 1075.61 1568.97 Q1067.08 1568.97 1062.08 1564 Q1057.12 1559.04 1057.12 1550.57 Q1057.12 1541.82 1061.83 1536.69 Q1066.57 1531.54 1074.59 1531.54 Q1081.79 1531.54 1085.96 1536.18 Q1090.16 1540.8 1090.16 1548.76 M1084.3 1547.04 Q1084.24 1542.23 1081.6 1539.37 Q1078.99 1536.5 1074.66 1536.5 Q1069.76 1536.5 1066.8 1539.27 Q1063.87 1542.04 1063.42 1547.07 L1084.3 1547.04 Z" fill="#000000" fill-rule="nonzero" fill-opacity="1" /><path clip-path="url(#clip550)" d="M1099.55 1532.4 L1105.44 1532.4 L1105.44 1546.94 L1124.44 1546.94 L1124.44 1532.4 L1130.33 1532.4 L1130.33 1568.04 L1124.44 1568.04 L1124.44 1551.62 L1105.44 1551.62 L1105.44 1568.04 L1099.55 1568.04 L1099.55 1532.4 Z" fill="#000000" fill-rule="nonzero" fill-opacity="1" /><path clip-path="url(#clip550)" d="M1142.17 1532.4 L1148.05 1532.4 L1148.05 1546.94 L1167.06 1546.94 L1167.06 1532.4 L1172.94 1532.4 L1172.94 1568.04 L1167.06 1568.04 L1167.06 1551.62 L1148.05 1551.62 L1148.05 1568.04 L1142.17 1568.04 L1142.17 1532.4 Z" fill="#000000" fill-rule="nonzero" fill-opacity="1" /><path clip-path="url(#clip550)" d="M1198.82 1536.5 Q1194.11 1536.5 1191.37 1540.19 Q1188.64 1543.85 1188.64 1550.25 Q1188.64 1556.65 1191.34 1560.34 Q1194.08 1564 1198.82 1564 Q1203.5 1564 1206.24 1560.31 Q1208.97 1556.62 1208.97 1550.25 Q1208.97 1543.92 1206.24 1540.23 Q1203.5 1536.5 1198.82 1536.5 M1198.82 1531.54 Q1206.46 1531.54 1210.82 1536.5 Q1215.18 1541.47 1215.18 1550.25 Q1215.18 1559 1210.82 1564 Q1206.46 1568.97 1198.82 1568.97 Q1191.15 1568.97 1186.79 1564 Q1182.46 1559 1182.46 1550.25 Q1182.46 1541.47 1186.79 1536.5 Q1191.15 1531.54 1198.82 1531.54 Z" fill="#000000" fill-rule="nonzero" fill-opacity="1" /><path clip-path="url(#clip550)" d="M1250.54 1533.76 L1250.54 1539.24 Q1248.06 1537.87 1245.54 1537.2 Q1243.06 1536.5 1240.52 1536.5 Q1234.82 1536.5 1231.67 1540.13 Q1228.52 1543.73 1228.52 1550.25 Q1228.52 1556.78 1231.67 1560.4 Q1234.82 1564 1240.52 1564 Q1243.06 1564 1245.54 1563.33 Q1248.06 1562.63 1250.54 1561.26 L1250.54 1566.68 Q1248.09 1567.82 1245.45 1568.39 Q1242.84 1568.97 1239.88 1568.97 Q1231.83 1568.97 1227.08 1563.91 Q1222.34 1558.85 1222.34 1550.25 Q1222.34 1541.53 1227.12 1536.53 Q1231.92 1531.54 1240.26 1531.54 Q1242.97 1531.54 1245.54 1532.11 Q1248.12 1532.65 1250.54 1533.76 Z" fill="#000000" fill-rule="nonzero" fill-opacity="1" /><path clip-path="url(#clip550)" d="M1256.49 1532.4 L1290.65 1532.4 L1290.65 1537.07 L1276.45 1537.07 L1276.45 1568.04 L1270.69 1568.04 L1270.69 1537.07 L1256.49 1537.07 L1256.49 1532.4 Z" fill="#000000" fill-rule="nonzero" fill-opacity="1" /><path clip-path="url(#clip550)" d="M1320.88 1557.48 Q1320.88 1554.61 1318.78 1553.12 Q1316.71 1551.62 1312.7 1551.62 L1304.36 1551.62 L1304.36 1563.37 L1312.7 1563.37 Q1316.71 1563.37 1318.78 1561.87 Q1320.88 1560.34 1320.88 1557.48 M1298.48 1532.4 L1304.36 1532.4 L1304.36 1546.94 L1312.96 1546.94 Q1319.77 1546.94 1323.43 1549.55 Q1327.12 1552.13 1327.12 1557.48 Q1327.12 1562.82 1323.43 1565.43 Q1319.77 1568.04 1312.96 1568.04 L1298.48 1568.04 L1298.48 1532.4 Z" fill="#000000" fill-rule="nonzero" fill-opacity="1" /><path clip-path="url(#clip550)" d="M1374.16 1548.82 Q1378.11 1549.58 1380.31 1551.91 Q1382.5 1554.23 1382.5 1557.67 Q1382.5 1563.17 1378.4 1566.07 Q1374.29 1568.97 1366.72 1568.97 Q1364.17 1568.97 1361.46 1568.52 Q1358.79 1568.08 1355.93 1567.18 L1355.93 1561.74 Q1358.19 1562.92 1360.89 1563.52 Q1363.6 1564.1 1366.56 1564.1 Q1371.36 1564.1 1374.04 1562.31 Q1376.74 1560.53 1376.74 1557.67 Q1376.74 1554.87 1374.35 1553.18 Q1371.97 1551.46 1367.61 1551.46 L1362.9 1551.46 L1362.9 1546.62 L1367.83 1546.62 Q1371.52 1546.62 1373.65 1545.22 Q1375.82 1543.79 1375.82 1541.56 Q1375.82 1539.53 1373.59 1538.06 Q1371.39 1536.6 1367.61 1536.6 Q1365.35 1536.6 1362.77 1537.01 Q1360.22 1537.42 1357.14 1538.35 L1357.14 1533.03 Q1360.25 1532.27 1362.96 1531.89 Q1365.67 1531.5 1368.08 1531.5 Q1374.32 1531.5 1377.92 1534.02 Q1381.55 1536.5 1381.55 1540.99 Q1381.55 1543.95 1379.64 1546.02 Q1377.73 1548.06 1374.16 1548.82 Z" fill="#000000" fill-rule="nonzero" fill-opacity="1" /><path clip-path="url(#clip550)" d="M1408.7 1550.12 Q1401.6 1550.12 1398.86 1551.75 Q1396.13 1553.37 1396.13 1557.29 Q1396.13 1560.4 1398.16 1562.25 Q1400.23 1564.07 1403.76 1564.07 Q1408.63 1564.07 1411.56 1560.63 Q1414.52 1557.16 1414.52 1551.43 L1414.52 1550.12 L1408.7 1550.12 M1420.38 1547.71 L1420.38 1568.04 L1414.52 1568.04 L1414.52 1562.63 Q1412.52 1565.88 1409.53 1567.44 Q1406.53 1568.97 1402.2 1568.97 Q1396.73 1568.97 1393.48 1565.91 Q1390.27 1562.82 1390.27 1557.67 Q1390.27 1551.65 1394.28 1548.6 Q1398.32 1545.54 1406.31 1545.54 L1414.52 1545.54 L1414.52 1544.97 Q1414.52 1540.93 1411.85 1538.73 Q1409.21 1536.5 1404.4 1536.5 Q1401.35 1536.5 1398.45 1537.23 Q1395.55 1537.97 1392.88 1539.43 L1392.88 1534.02 Q1396.09 1532.78 1399.12 1532.17 Q1402.14 1531.54 1405.01 1531.54 Q1412.74 1531.54 1416.56 1535.55 Q1420.38 1539.56 1420.38 1547.71 Z" fill="#000000" fill-rule="nonzero" fill-opacity="1" /><path clip-path="url(#clip550)" d="M1432.22 1532.4 L1440.78 1532.4 L1450.9 1556.27 L1461.06 1532.4 L1469.55 1532.4 L1469.55 1568.04 L1463.67 1568.04 L1463.67 1538 L1453.83 1561.2 L1447.97 1561.2 L1438.11 1538 L1438.11 1568.04 L1432.22 1568.04 L1432.22 1532.4 Z" fill="#000000" fill-rule="nonzero" fill-opacity="1" /><path clip-path="url(#clip550)" d="M1512.11 1548.76 L1512.11 1551.62 L1485.18 1551.62 Q1485.56 1557.67 1488.81 1560.85 Q1492.09 1564 1497.91 1564 Q1501.29 1564 1504.44 1563.17 Q1507.62 1562.35 1510.74 1560.69 L1510.74 1566.23 Q1507.59 1567.57 1504.28 1568.27 Q1500.97 1568.97 1497.56 1568.97 Q1489.03 1568.97 1484.04 1564 Q1479.07 1559.04 1479.07 1550.57 Q1479.07 1541.82 1483.78 1536.69 Q1488.52 1531.54 1496.54 1531.54 Q1503.74 1531.54 1507.91 1536.18 Q1512.11 1540.8 1512.11 1548.76 M1506.25 1547.04 Q1506.19 1542.23 1503.55 1539.37 Q1500.94 1536.5 1496.61 1536.5 Q1491.71 1536.5 1488.75 1539.27 Q1485.82 1542.04 1485.37 1547.07 L1506.25 1547.04 Z" fill="#000000" fill-rule="nonzero" fill-opacity="1" /><path clip-path="url(#clip550)" d="M1527.39 1562.7 L1527.39 1581.6 L1521.5 1581.6 L1521.5 1532.4 L1527.39 1532.4 L1527.39 1537.81 Q1529.23 1534.62 1532.03 1533.1 Q1534.87 1531.54 1538.78 1531.54 Q1545.27 1531.54 1549.32 1536.69 Q1553.39 1541.85 1553.39 1550.25 Q1553.39 1558.65 1549.32 1563.81 Q1545.27 1568.97 1538.78 1568.97 Q1534.87 1568.97 1532.03 1567.44 Q1529.23 1565.88 1527.39 1562.7 M1547.31 1550.25 Q1547.31 1543.79 1544.64 1540.13 Q1542 1536.44 1537.35 1536.44 Q1532.7 1536.44 1530.03 1540.13 Q1527.39 1543.79 1527.39 1550.25 Q1527.39 1556.71 1530.03 1560.4 Q1532.7 1564.07 1537.35 1564.07 Q1542 1564.07 1544.64 1560.4 Q1547.31 1556.71 1547.31 1550.25 Z" fill="#000000" fill-rule="nonzero" fill-opacity="1" /><path clip-path="url(#clip550)" d="M1579.3 1550.12 Q1572.2 1550.12 1569.46 1551.75 Q1566.73 1553.37 1566.73 1557.29 Q1566.73 1560.4 1568.76 1562.25 Q1570.83 1564.07 1574.37 1564.07 Q1579.23 1564.07 1582.16 1560.63 Q1585.12 1557.16 1585.12 1551.43 L1585.12 1550.12 L1579.3 1550.12 M1590.98 1547.71 L1590.98 1568.04 L1585.12 1568.04 L1585.12 1562.63 Q1583.12 1565.88 1580.13 1567.44 Q1577.13 1568.97 1572.81 1568.97 Q1567.33 1568.97 1564.08 1565.91 Q1560.87 1562.82 1560.87 1557.67 Q1560.87 1551.65 1564.88 1548.6 Q1568.92 1545.54 1576.91 1545.54 L1585.12 1545.54 L1585.12 1544.97 Q1585.12 1540.93 1582.45 1538.73 Q1579.81 1536.5 1575 1536.5 Q1571.95 1536.5 1569.05 1537.23 Q1566.15 1537.97 1563.48 1539.43 L1563.48 1534.02 Q1566.69 1532.78 1569.72 1532.17 Q1572.74 1531.54 1575.61 1531.54 Q1583.34 1531.54 1587.16 1535.55 Q1590.98 1539.56 1590.98 1547.71 Z" fill="#000000" fill-rule="nonzero" fill-opacity="1" /><path clip-path="url(#clip550)" d="M1602.82 1532.4 L1611.38 1532.4 L1621.5 1556.27 L1631.66 1532.4 L1640.15 1532.4 L1640.15 1568.04 L1634.27 1568.04 L1634.27 1538 L1624.43 1561.2 L1618.57 1561.2 L1608.71 1538 L1608.71 1568.04 L1602.82 1568.04 L1602.82 1532.4 Z" fill="#000000" fill-rule="nonzero" fill-opacity="1" /><path clip-path="url(#clip550)" d="M1682.52 1532.4 L1682.52 1568.04 L1676.69 1568.04 L1676.69 1539.43 L1659.51 1568.04 L1651.99 1568.04 L1651.99 1532.4 L1657.82 1532.4 L1657.82 1560.95 L1674.98 1532.4 L1682.52 1532.4 Z" fill="#000000" fill-rule="nonzero" fill-opacity="1" /><path clip-path="url(#clip550)" d="M1696.08 1559.96 L1702.79 1559.96 L1702.79 1565.43 L1697.57 1575.62 L1693.47 1575.62 L1696.08 1565.43 L1696.08 1559.96 Z" fill="#000000" fill-rule="nonzero" fill-opacity="1" /><path clip-path="url(#clip550)" d="M1777.27 1547.13 Q1774.5 1547.13 1772.91 1549.49 Q1771.35 1551.84 1771.35 1556.04 Q1771.35 1560.18 1772.91 1562.57 Q1774.5 1564.92 1777.27 1564.92 Q1779.98 1564.92 1781.54 1562.57 Q1783.13 1560.18 1783.13 1556.04 Q1783.13 1551.87 1781.54 1549.52 Q1779.98 1547.13 1777.27 1547.13 M1777.27 1543.09 Q1782.3 1543.09 1785.26 1546.59 Q1788.22 1550.09 1788.22 1556.04 Q1788.22 1562 1785.23 1565.5 Q1782.27 1568.97 1777.27 1568.97 Q1772.18 1568.97 1769.22 1565.5 Q1766.26 1562 1766.26 1556.04 Q1766.26 1550.06 1769.22 1546.59 Q1772.21 1543.09 1777.27 1543.09 M1744.42 1523.71 Q1741.69 1523.71 1740.1 1526.09 Q1738.54 1528.45 1738.54 1532.59 Q1738.54 1536.79 1740.1 1539.14 Q1741.66 1541.5 1744.42 1541.5 Q1747.19 1541.5 1748.75 1539.14 Q1750.35 1536.79 1750.35 1532.59 Q1750.35 1528.48 1748.75 1526.09 Q1747.16 1523.71 1744.42 1523.71 M1773.17 1519.66 L1778.26 1519.66 L1748.53 1568.97 L1743.44 1568.97 L1773.17 1519.66 M1744.42 1519.66 Q1749.45 1519.66 1752.45 1523.17 Q1755.44 1526.63 1755.44 1532.59 Q1755.44 1538.6 1752.45 1542.07 Q1749.49 1545.54 1744.42 1545.54 Q1739.36 1545.54 1736.4 1542.07 Q1733.48 1538.57 1733.48 1532.59 Q1733.48 1526.67 1736.44 1523.17 Q1739.4 1519.66 1744.42 1519.66 Z" fill="#000000" fill-rule="nonzero" fill-opacity="1" /><polyline clip-path="url(#clip552)" style="stroke:#000000; stroke-linecap:round; stroke-linejoin:round; stroke-width:2; stroke-opacity:0.1; fill:none" points="203.964,1423.18 2352.76,1423.18 "/>
<polyline clip-path="url(#clip552)" style="stroke:#000000; stroke-linecap:round; stroke-linejoin:round; stroke-width:2; stroke-opacity:0.1; fill:none" points="203.964,1110.47 2352.76,1110.47 "/>
<polyline clip-path="url(#clip552)" style="stroke:#000000; stroke-linecap:round; stroke-linejoin:round; stroke-width:2; stroke-opacity:0.1; fill:none" points="203.964,797.755 2352.76,797.755 "/>
<polyline clip-path="url(#clip552)" style="stroke:#000000; stroke-linecap:round; stroke-linejoin:round; stroke-width:2; stroke-opacity:0.1; fill:none" points="203.964,485.042 2352.76,485.042 "/>
<polyline clip-path="url(#clip552)" style="stroke:#000000; stroke-linecap:round; stroke-linejoin:round; stroke-width:2; stroke-opacity:0.1; fill:none" points="203.964,172.329 2352.76,172.329 "/>
<polyline clip-path="url(#clip550)" style="stroke:#000000; stroke-linecap:round; stroke-linejoin:round; stroke-width:4; stroke-opacity:1; fill:none" points="203.964,1423.18 203.964,47.2441 "/>
<polyline clip-path="url(#clip550)" style="stroke:#000000; stroke-linecap:round; stroke-linejoin:round; stroke-width:4; stroke-opacity:1; fill:none" points="203.964,1423.18 222.861,1423.18 "/>
<polyline clip-path="url(#clip550)" style="stroke:#000000; stroke-linecap:round; stroke-linejoin:round; stroke-width:4; stroke-opacity:1; fill:none" points="203.964,1110.47 222.861,1110.47 "/>
<polyline clip-path="url(#clip550)" style="stroke:#000000; stroke-linecap:round; stroke-linejoin:round; stroke-width:4; stroke-opacity:1; fill:none" points="203.964,797.755 222.861,797.755 "/>
<polyline clip-path="url(#clip550)" style="stroke:#000000; stroke-linecap:round; stroke-linejoin:round; stroke-width:4; stroke-opacity:1; fill:none" points="203.964,485.042 222.861,485.042 "/>
<polyline clip-path="url(#clip550)" style="stroke:#000000; stroke-linecap:round; stroke-linejoin:round; stroke-width:4; stroke-opacity:1; fill:none" points="203.964,172.329 222.861,172.329 "/>
<path clip-path="url(#clip550)" d="M156.019 1408.98 Q152.408 1408.98 150.579 1412.54 Q148.774 1416.08 148.774 1423.21 Q148.774 1430.32 150.579 1433.89 Q152.408 1437.43 156.019 1437.43 Q159.653 1437.43 161.459 1433.89 Q163.288 1430.32 163.288 1423.21 Q163.288 1416.08 161.459 1412.54 Q159.653 1408.98 156.019 1408.98 M156.019 1405.27 Q161.829 1405.27 164.885 1409.88 Q167.964 1414.46 167.964 1423.21 Q167.964 1431.94 164.885 1436.55 Q161.829 1441.13 156.019 1441.13 Q150.209 1441.13 147.13 1436.55 Q144.075 1431.94 144.075 1423.21 Q144.075 1414.46 147.13 1409.88 Q150.209 1405.27 156.019 1405.27 Z" fill="#000000" fill-rule="nonzero" fill-opacity="1" /><path clip-path="url(#clip550)" d="M147.061 1093.19 L165.417 1093.19 L165.417 1097.12 L151.343 1097.12 L151.343 1105.59 Q152.362 1105.25 153.38 1105.09 Q154.399 1104.9 155.417 1104.9 Q161.204 1104.9 164.584 1108.07 Q167.964 1111.24 167.964 1116.66 Q167.964 1122.24 164.491 1125.34 Q161.019 1128.42 154.7 1128.42 Q152.524 1128.42 150.255 1128.05 Q148.01 1127.68 145.603 1126.94 L145.603 1122.24 Q147.686 1123.37 149.908 1123.93 Q152.13 1124.48 154.607 1124.48 Q158.612 1124.48 160.95 1122.38 Q163.288 1120.27 163.288 1116.66 Q163.288 1113.05 160.95 1110.94 Q158.612 1108.84 154.607 1108.84 Q152.732 1108.84 150.857 1109.25 Q149.005 1109.67 147.061 1110.55 L147.061 1093.19 Z" fill="#000000" fill-rule="nonzero" fill-opacity="1" /><path clip-path="url(#clip550)" d="M116.668 811.099 L124.306 811.099 L124.306 784.734 L115.996 786.4 L115.996 782.141 L124.26 780.475 L128.936 780.475 L128.936 811.099 L136.575 811.099 L136.575 815.035 L116.668 815.035 L116.668 811.099 Z" fill="#000000" fill-rule="nonzero" fill-opacity="1" /><path clip-path="url(#clip550)" d="M156.019 783.553 Q152.408 783.553 150.579 787.118 Q148.774 790.66 148.774 797.789 Q148.774 804.896 150.579 808.46 Q152.408 812.002 156.019 812.002 Q159.653 812.002 161.459 808.46 Q163.288 804.896 163.288 797.789 Q163.288 790.66 161.459 787.118 Q159.653 783.553 156.019 783.553 M156.019 779.85 Q161.829 779.85 164.885 784.456 Q167.964 789.039 167.964 797.789 Q167.964 806.516 164.885 811.122 Q161.829 815.706 156.019 815.706 Q150.209 815.706 147.13 811.122 Q144.075 806.516 144.075 797.789 Q144.075 789.039 147.13 784.456 Q150.209 779.85 156.019 779.85 Z" fill="#000000" fill-rule="nonzero" fill-opacity="1" /><path clip-path="url(#clip550)" d="M117.663 498.387 L125.302 498.387 L125.302 472.021 L116.992 473.688 L116.992 469.428 L125.255 467.762 L129.931 467.762 L129.931 498.387 L137.57 498.387 L137.57 502.322 L117.663 502.322 L117.663 498.387 Z" fill="#000000" fill-rule="nonzero" fill-opacity="1" /><path clip-path="url(#clip550)" d="M147.061 467.762 L165.417 467.762 L165.417 471.697 L151.343 471.697 L151.343 480.169 Q152.362 479.822 153.38 479.66 Q154.399 479.475 155.417 479.475 Q161.204 479.475 164.584 482.646 Q167.964 485.817 167.964 491.234 Q167.964 496.813 164.491 499.914 Q161.019 502.993 154.7 502.993 Q152.524 502.993 150.255 502.623 Q148.01 502.252 145.603 501.512 L145.603 496.813 Q147.686 497.947 149.908 498.502 Q152.13 499.058 154.607 499.058 Q158.612 499.058 160.95 496.951 Q163.288 494.845 163.288 491.234 Q163.288 487.623 160.95 485.516 Q158.612 483.41 154.607 483.41 Q152.732 483.41 150.857 483.827 Q149.005 484.243 147.061 485.123 L147.061 467.762 Z" fill="#000000" fill-rule="nonzero" fill-opacity="1" /><path clip-path="url(#clip550)" d="M119.885 185.674 L136.204 185.674 L136.204 189.609 L114.26 189.609 L114.26 185.674 Q116.922 182.919 121.505 178.29 Q126.112 173.637 127.292 172.294 Q129.538 169.771 130.417 168.035 Q131.32 166.276 131.32 164.586 Q131.32 161.832 129.376 160.095 Q127.455 158.359 124.353 158.359 Q122.154 158.359 119.7 159.123 Q117.269 159.887 114.492 161.438 L114.492 156.716 Q117.316 155.582 119.769 155.003 Q122.223 154.424 124.26 154.424 Q129.63 154.424 132.825 157.109 Q136.019 159.795 136.019 164.285 Q136.019 166.415 135.209 168.336 Q134.422 170.234 132.316 172.827 Q131.737 173.498 128.635 176.716 Q125.533 179.91 119.885 185.674 Z" fill="#000000" fill-rule="nonzero" fill-opacity="1" /><path clip-path="url(#clip550)" d="M156.019 158.128 Q152.408 158.128 150.579 161.693 Q148.774 165.234 148.774 172.364 Q148.774 179.47 150.579 183.035 Q152.408 186.577 156.019 186.577 Q159.653 186.577 161.459 183.035 Q163.288 179.47 163.288 172.364 Q163.288 165.234 161.459 161.693 Q159.653 158.128 156.019 158.128 M156.019 154.424 Q161.829 154.424 164.885 159.031 Q167.964 163.614 167.964 172.364 Q167.964 181.091 164.885 185.697 Q161.829 190.28 156.019 190.28 Q150.209 190.28 147.13 185.697 Q144.075 181.091 144.075 172.364 Q144.075 163.614 147.13 159.031 Q150.209 154.424 156.019 154.424 Z" fill="#000000" fill-rule="nonzero" fill-opacity="1" /><path clip-path="url(#clip550)" d="M16.4842 1082.21 L16.4842 1075.78 L39.9736 1075.78 L16.4842 1052.8 L16.4842 1044.55 L35.263 1062.92 L64.0042 1043.6 L64.0042 1050.6 L39.528 1067.09 L48.4082 1075.78 L64.0042 1075.78 L64.0042 1082.21 L16.4842 1082.21 Z" fill="#000000" fill-rule="nonzero" fill-opacity="1" /><path clip-path="url(#clip550)" d="M32.4621 1022.37 Q32.4621 1027.08 36.1542 1029.82 Q39.8145 1032.55 46.212 1032.55 Q52.6095 1032.55 56.3017 1029.85 Q59.9619 1027.11 59.9619 1022.37 Q59.9619 1017.69 56.2698 1014.95 Q52.5777 1012.22 46.212 1012.22 Q39.8781 1012.22 36.186 1014.95 Q32.4621 1017.69 32.4621 1022.37 M27.4968 1022.37 Q27.4968 1014.73 32.4621 1010.37 Q37.4273 1006.01 46.212 1006.01 Q54.9649 1006.01 59.9619 1010.37 Q64.9272 1014.73 64.9272 1022.37 Q64.9272 1030.04 59.9619 1034.4 Q54.9649 1038.73 46.212 1038.73 Q37.4273 1038.73 32.4621 1034.4 Q27.4968 1030.04 27.4968 1022.37 Z" fill="#000000" fill-rule="nonzero" fill-opacity="1" /><path clip-path="url(#clip550)" d="M64.0042 1000.03 L59.1344 1000.03 Q58.2432 994.233 54.2328 992.45 Q48.5991 990.286 34.1808 990.286 L28.3562 990.286 L28.3562 966.192 L64.0042 966.192 L64.0042 972.048 L33.035 972.048 L33.035 984.429 L36.568 984.429 Q50.3179 984.429 56.4926 987.23 Q63.0811 990.222 64.0042 1000.03 Z" fill="#000000" fill-rule="nonzero" fill-opacity="1" /><path clip-path="url(#clip550)" d="M43.5384 957.598 L43.5384 940.442 L48.7583 940.442 L48.7583 957.598 L43.5384 957.598 Z" fill="#000000" fill-rule="nonzero" fill-opacity="1" /><path clip-path="url(#clip550)" d="M47.5806 925.483 L59.3254 925.483 L59.3254 917.144 Q59.3254 913.133 57.8294 911.033 Q56.3017 908.932 53.4371 908.932 Q50.5725 908.932 49.0766 911.033 Q47.5806 913.133 47.5806 917.144 L47.5806 925.483 M33.035 925.483 L42.9018 925.483 L42.9018 917.78 Q42.9018 914.47 41.5969 912.37 Q40.2601 910.269 37.9048 910.269 Q35.5494 910.269 34.3081 912.37 Q33.035 914.47 33.035 917.78 L33.035 925.483 M28.3562 931.339 L28.3562 917.398 Q28.3562 911.128 30.6479 907.754 Q32.9395 904.381 37.1727 904.381 Q40.451 904.381 42.3926 906.099 Q44.3023 907.818 44.7797 911.192 Q45.5436 907.15 47.9626 904.922 Q50.3815 902.694 54.01 902.694 Q58.7843 902.694 61.3942 906.386 Q64.0042 910.046 64.0042 916.857 L64.0042 931.339 L28.3562 931.339 Z" fill="#000000" fill-rule="nonzero" fill-opacity="1" /><path clip-path="url(#clip550)" d="M32.4621 878.886 Q32.4621 883.597 36.1542 886.334 Q39.8145 889.071 46.212 889.071 Q52.6095 889.071 56.3017 886.366 Q59.9619 883.628 59.9619 878.886 Q59.9619 874.207 56.2698 871.47 Q52.5777 868.733 46.212 868.733 Q39.8781 868.733 36.186 871.47 Q32.4621 874.207 32.4621 878.886 M27.4968 878.886 Q27.4968 871.247 32.4621 866.887 Q37.4273 862.526 46.212 862.526 Q54.9649 862.526 59.9619 866.887 Q64.9272 871.247 64.9272 878.886 Q64.9272 886.557 59.9619 890.917 Q54.9649 895.246 46.212 895.246 Q37.4273 895.246 32.4621 890.917 Q27.4968 886.557 27.4968 878.886 Z" fill="#000000" fill-rule="nonzero" fill-opacity="1" /><path clip-path="url(#clip550)" d="M29.7248 806.444 L35.1993 806.444 Q33.8307 808.927 33.1623 811.441 Q32.4621 813.924 32.4621 816.47 Q32.4621 822.168 36.0905 825.319 Q39.6872 828.47 46.212 828.47 Q52.7369 828.47 56.3653 825.319 Q59.9619 822.168 59.9619 816.47 Q59.9619 813.924 59.2935 811.441 Q58.5933 808.927 57.2247 806.444 L62.6355 806.444 Q63.7814 808.895 64.3543 811.537 Q64.9272 814.147 64.9272 817.107 Q64.9272 825.159 59.8664 829.902 Q54.8057 834.644 46.212 834.644 Q37.491 834.644 32.4939 829.87 Q27.4968 825.064 27.4968 816.725 Q27.4968 814.019 28.0697 811.441 Q28.6108 808.863 29.7248 806.444 Z" fill="#000000" fill-rule="nonzero" fill-opacity="1" /><path clip-path="url(#clip550)" d="M28.3562 796.482 L28.3562 790.657 L45.098 790.657 L28.3562 774.138 L28.3562 766.945 L42.138 780.568 L64.0042 765.194 L64.0042 771.751 L46.021 784.387 L52.3867 790.657 L64.0042 790.657 L64.0042 796.482 L28.3562 796.482 Z" fill="#000000" fill-rule="nonzero" fill-opacity="1" /><path clip-path="url(#clip550)" d="M47.5806 751.254 L59.3254 751.254 L59.3254 742.914 Q59.3254 738.904 57.8294 736.803 Q56.3017 734.703 53.4371 734.703 Q50.5725 734.703 49.0766 736.803 Q47.5806 738.904 47.5806 742.914 L47.5806 751.254 M33.035 751.254 L42.9018 751.254 L42.9018 743.551 Q42.9018 740.241 41.5969 738.14 Q40.2601 736.04 37.9048 736.04 Q35.5494 736.04 34.3081 738.14 Q33.035 740.241 33.035 743.551 L33.035 751.254 M28.3562 757.11 L28.3562 743.169 Q28.3562 736.899 30.6479 733.525 Q32.9395 730.151 37.1727 730.151 Q40.451 730.151 42.3926 731.87 Q44.3023 733.589 44.7797 736.963 Q45.5436 732.92 47.9626 730.692 Q50.3815 728.464 54.01 728.464 Q58.7843 728.464 61.3942 732.156 Q64.0042 735.817 64.0042 742.628 L64.0042 757.11 L28.3562 757.11 Z" fill="#000000" fill-rule="nonzero" fill-opacity="1" /><path clip-path="url(#clip550)" d="M46.0847 702.269 Q46.0847 709.367 47.7079 712.104 Q49.3312 714.842 53.2461 714.842 Q56.3653 714.842 58.2114 712.805 Q60.0256 710.736 60.0256 707.203 Q60.0256 702.333 56.5881 699.405 Q53.1188 696.445 47.3897 696.445 L46.0847 696.445 L46.0847 702.269 M43.6657 690.588 L64.0042 690.588 L64.0042 696.445 L58.5933 696.445 Q61.8398 698.45 63.3994 701.442 Q64.9272 704.434 64.9272 708.762 Q64.9272 714.237 61.8716 717.483 Q58.7843 720.698 53.6281 720.698 Q47.6125 720.698 44.5569 716.688 Q41.5014 712.646 41.5014 704.657 L41.5014 696.445 L40.9285 696.445 Q36.8862 696.445 34.6901 699.118 Q32.4621 701.76 32.4621 706.566 Q32.4621 709.622 33.1941 712.518 Q33.9262 715.415 35.3903 718.088 L29.9795 718.088 Q28.7381 714.874 28.1334 711.85 Q27.4968 708.826 27.4968 705.962 Q27.4968 698.227 31.5072 694.408 Q35.5176 690.588 43.6657 690.588 Z" fill="#000000" fill-rule="nonzero" fill-opacity="1" /><path clip-path="url(#clip550)" d="M28.3562 658.219 L28.3562 652.394 L45.098 652.394 L28.3562 636.83 L28.3562 630.019 L42.0743 642.814 L64.0042 628.173 L64.0042 634.443 L45.9892 646.442 L52.3867 652.394 L64.0042 652.394 L64.0042 658.219 L52.3867 658.219 L45.9892 664.171 L64.0042 676.17 L64.0042 682.44 L42.0743 667.799 L28.3562 680.594 L28.3562 673.783 L45.098 658.219 L28.3562 658.219 Z" fill="#000000" fill-rule="nonzero" fill-opacity="1" /><path clip-path="url(#clip550)" d="M28.3562 589.501 L64.0042 589.501 L64.0042 595.326 L35.3903 595.326 L64.0042 612.513 L64.0042 620.025 L28.3562 620.025 L28.3562 614.2 L56.9064 614.2 L28.3562 597.044 L28.3562 589.501 Z" fill="#000000" fill-rule="nonzero" fill-opacity="1" /><path clip-path="url(#clip550)" d="M28.3562 577.661 L28.3562 571.772 L42.9018 571.772 L42.9018 552.771 L28.3562 552.771 L28.3562 546.883 L64.0042 546.883 L64.0042 552.771 L47.5806 552.771 L47.5806 571.772 L64.0042 571.772 L64.0042 577.661 L28.3562 577.661 Z" fill="#000000" fill-rule="nonzero" fill-opacity="1" /><path clip-path="url(#clip550)" d="M55.9197 533.324 L55.9197 526.608 L61.3942 526.608 L71.5793 531.828 L71.5793 535.934 L61.3942 533.324 L55.9197 533.324 Z" fill="#000000" fill-rule="nonzero" fill-opacity="1" /><path clip-path="url(#clip550)" d="M59.3254 466.77 L59.3254 451.683 L28.3562 451.683 L28.3562 445.795 L64.0042 445.795 L64.0042 493.602 L28.3562 493.602 L28.3562 487.713 L59.3254 487.713 L59.3254 472.658 L28.3562 472.658 L28.3562 466.77 L59.3254 466.77 Z" fill="#000000" fill-rule="nonzero" fill-opacity="1" /><path clip-path="url(#clip550)" d="M28.3562 437.965 L28.3562 403.813 L33.035 403.813 L33.035 418.009 L64.0042 418.009 L64.0042 423.77 L33.035 423.77 L33.035 437.965 L28.3562 437.965 Z" fill="#000000" fill-rule="nonzero" fill-opacity="1" /><path clip-path="url(#clip550)" d="M55.9197 394.933 L55.9197 388.217 L64.0042 388.217 L64.0042 394.933 L55.9197 394.933 Z" fill="#000000" fill-rule="nonzero" fill-opacity="1" /><path clip-path="url(#clip552)" d="M322.151 1298.09 L322.151 1423.18 L534.642 1423.18 L534.642 1298.09 L322.151 1298.09 L322.151 1298.09  Z" fill="#009af9" fill-rule="evenodd" fill-opacity="1"/>
<polyline clip-path="url(#clip552)" style="stroke:#000000; stroke-linecap:round; stroke-linejoin:round; stroke-width:4; stroke-opacity:1; fill:none" points="322.151,1298.09 322.151,1423.18 534.642,1423.18 534.642,1298.09 322.151,1298.09 "/>
<path clip-path="url(#clip552)" d="M534.642 1298.09 L534.642 1423.18 L747.133 1423.18 L747.133 1298.09 L534.642 1298.09 L534.642 1298.09  Z" fill="#009af9" fill-rule="evenodd" fill-opacity="1"/>
<polyline clip-path="url(#clip552)" style="stroke:#000000; stroke-linecap:round; stroke-linejoin:round; stroke-width:4; stroke-opacity:1; fill:none" points="534.642,1298.09 534.642,1423.18 747.133,1423.18 747.133,1298.09 534.642,1298.09 "/>
<path clip-path="url(#clip552)" d="M747.133 735.212 L747.133 1423.18 L959.623 1423.18 L959.623 735.212 L747.133 735.212 L747.133 735.212  Z" fill="#009af9" fill-rule="evenodd" fill-opacity="1"/>
<polyline clip-path="url(#clip552)" style="stroke:#000000; stroke-linecap:round; stroke-linejoin:round; stroke-width:4; stroke-opacity:1; fill:none" points="747.133,735.212 747.133,1423.18 959.623,1423.18 959.623,735.212 747.133,735.212 "/>
<path clip-path="url(#clip552)" d="M959.623 47.2441 L959.623 1423.18 L1172.11 1423.18 L1172.11 47.2441 L959.623 47.2441 L959.623 47.2441  Z" fill="#009af9" fill-rule="evenodd" fill-opacity="1"/>
<polyline clip-path="url(#clip552)" style="stroke:#000000; stroke-linecap:round; stroke-linejoin:round; stroke-width:4; stroke-opacity:1; fill:none" points="959.623,47.2441 959.623,1423.18 1172.11,1423.18 1172.11,47.2441 959.623,47.2441 "/>
<path clip-path="url(#clip552)" d="M1172.11 234.872 L1172.11 1423.18 L1384.61 1423.18 L1384.61 234.872 L1172.11 234.872 L1172.11 234.872  Z" fill="#009af9" fill-rule="evenodd" fill-opacity="1"/>
<polyline clip-path="url(#clip552)" style="stroke:#000000; stroke-linecap:round; stroke-linejoin:round; stroke-width:4; stroke-opacity:1; fill:none" points="1172.11,234.872 1172.11,1423.18 1384.61,1423.18 1384.61,234.872 1172.11,234.872 "/>
<path clip-path="url(#clip552)" d="M1384.61 797.755 L1384.61 1423.18 L1597.1 1423.18 L1597.1 797.755 L1384.61 797.755 L1384.61 797.755  Z" fill="#009af9" fill-rule="evenodd" fill-opacity="1"/>
<polyline clip-path="url(#clip552)" style="stroke:#000000; stroke-linecap:round; stroke-linejoin:round; stroke-width:4; stroke-opacity:1; fill:none" points="1384.61,797.755 1384.61,1423.18 1597.1,1423.18 1597.1,797.755 1384.61,797.755 "/>
<path clip-path="url(#clip552)" d="M1597.1 1360.64 L1597.1 1423.18 L1809.59 1423.18 L1809.59 1360.64 L1597.1 1360.64 L1597.1 1360.64  Z" fill="#009af9" fill-rule="evenodd" fill-opacity="1"/>
<polyline clip-path="url(#clip552)" style="stroke:#000000; stroke-linecap:round; stroke-linejoin:round; stroke-width:4; stroke-opacity:1; fill:none" points="1597.1,1360.64 1597.1,1423.18 1809.59,1423.18 1809.59,1360.64 1597.1,1360.64 "/>
<path clip-path="url(#clip552)" d="M1809.59 1360.64 L1809.59 1423.18 L2022.08 1423.18 L2022.08 1360.64 L1809.59 1360.64 L1809.59 1360.64  Z" fill="#009af9" fill-rule="evenodd" fill-opacity="1"/>
<polyline clip-path="url(#clip552)" style="stroke:#000000; stroke-linecap:round; stroke-linejoin:round; stroke-width:4; stroke-opacity:1; fill:none" points="1809.59,1360.64 1809.59,1423.18 2022.08,1423.18 2022.08,1360.64 1809.59,1360.64 "/>
<path clip-path="url(#clip552)" d="M2022.08 1298.09 L2022.08 1423.18 L2234.57 1423.18 L2234.57 1298.09 L2022.08 1298.09 L2022.08 1298.09  Z" fill="#009af9" fill-rule="evenodd" fill-opacity="1"/>
<polyline clip-path="url(#clip552)" style="stroke:#000000; stroke-linecap:round; stroke-linejoin:round; stroke-width:4; stroke-opacity:1; fill:none" points="2022.08,1298.09 2022.08,1423.18 2234.57,1423.18 2234.57,1298.09 2022.08,1298.09 "/>
<circle clip-path="url(#clip552)" style="fill:#009af9; stroke:none; fill-opacity:0" cx="428.396" cy="1298.09" r="2"/>
<circle clip-path="url(#clip552)" style="fill:#009af9; stroke:none; fill-opacity:0" cx="640.887" cy="1298.09" r="2"/>
<circle clip-path="url(#clip552)" style="fill:#009af9; stroke:none; fill-opacity:0" cx="853.378" cy="735.212" r="2"/>
<circle clip-path="url(#clip552)" style="fill:#009af9; stroke:none; fill-opacity:0" cx="1065.87" cy="47.2441" r="2"/>
<circle clip-path="url(#clip552)" style="fill:#009af9; stroke:none; fill-opacity:0" cx="1278.36" cy="234.872" r="2"/>
<circle clip-path="url(#clip552)" style="fill:#009af9; stroke:none; fill-opacity:0" cx="1490.85" cy="797.755" r="2"/>
<circle clip-path="url(#clip552)" style="fill:#009af9; stroke:none; fill-opacity:0" cx="1703.34" cy="1360.64" r="2"/>
<circle clip-path="url(#clip552)" style="fill:#009af9; stroke:none; fill-opacity:0" cx="1915.83" cy="1360.64" r="2"/>
<circle clip-path="url(#clip552)" style="fill:#009af9; stroke:none; fill-opacity:0" cx="2128.32" cy="1298.09" r="2"/>
<path clip-path="url(#clip550)" d="M1995 196.789 L2281.13 196.789 L2281.13 93.1086 L1995 93.1086  Z" fill="#ffffff" fill-rule="evenodd" fill-opacity="1"/>
<polyline clip-path="url(#clip550)" style="stroke:#000000; stroke-linecap:round; stroke-linejoin:round; stroke-width:4; stroke-opacity:1; fill:none" points="1995,196.789 2281.13,196.789 2281.13,93.1086 1995,93.1086 1995,196.789 "/>
<path clip-path="url(#clip550)" d="M2018.88 165.685 L2162.13 165.685 L2162.13 124.213 L2018.88 124.213 L2018.88 165.685  Z" fill="#009af9" fill-rule="evenodd" fill-opacity="1"/>
<polyline clip-path="url(#clip550)" style="stroke:#000000; stroke-linecap:round; stroke-linejoin:round; stroke-width:4; stroke-opacity:1; fill:none" points="2018.88,165.685 2162.13,165.685 2162.13,124.213 2018.88,124.213 2018.88,165.685 "/>
<path clip-path="url(#clip550)" d="M2212.35 127.669 L2212.35 162.229 L2207.67 162.229 L2207.67 131.604 L2190.68 131.604 L2190.68 162.229 L2186 162.229 L2186 127.669 L2212.35 127.669 Z" fill="#000000" fill-rule="nonzero" fill-opacity="1" /><path clip-path="url(#clip550)" d="M2218.76 162.229 L2218.76 158.687 Q2222.97 158.039 2224.27 155.122 Q2225.84 151.025 2225.84 140.539 L2225.84 136.303 L2243.37 136.303 L2243.37 162.229 L2239.11 162.229 L2239.11 139.706 L2230.1 139.706 L2230.1 142.275 Q2230.1 152.275 2228.06 156.766 Q2225.89 161.557 2218.76 162.229 Z" fill="#000000" fill-rule="nonzero" fill-opacity="1" /><path clip-path="url(#clip550)" d="M2252.37 156.349 L2257.25 156.349 L2257.25 162.229 L2252.37 162.229 L2252.37 156.349 Z" fill="#000000" fill-rule="nonzero" fill-opacity="1" /></svg>
