<?xml version="1.0" encoding="utf-8"?>
<svg xmlns="http://www.w3.org/2000/svg" xmlns:xlink="http://www.w3.org/1999/xlink" width="600" height="300" viewBox="0 0 2400 1200">
<defs>
  <clipPath id="clip290">
    <rect x="0" y="0" width="2400" height="1200"/>
  </clipPath>
</defs>
<path clip-path="url(#clip290)" d="M0 1200 L2400 1200 L2400 0 L0 0  Z" fill="#ffffff" fill-rule="evenodd" fill-opacity="1"/>
<defs>
  <clipPath id="clip291">
    <rect x="480" y="0" width="1681" height="1200"/>
  </clipPath>
</defs>
<path clip-path="url(#clip290)" d="M192.084 1047.7 L2352.76 1047.7 L2352.76 47.2441 L192.084 47.2441  Z" fill="#ffffff" fill-rule="evenodd" fill-opacity="1"/>
<defs>
  <clipPath id="clip292">
    <rect x="192" y="47" width="2162" height="1001"/>
  </clipPath>
</defs>
<polyline clip-path="url(#clip292)" style="stroke:#000000; stroke-linecap:round; stroke-linejoin:round; stroke-width:2; stroke-opacity:0.1; fill:none" points="232.645,1047.7 232.645,47.2441 "/>
<polyline clip-path="url(#clip292)" style="stroke:#000000; stroke-linecap:round; stroke-linejoin:round; stroke-width:2; stroke-opacity:0.1; fill:none" points="747.385,1047.7 747.385,47.2441 "/>
<polyline clip-path="url(#clip292)" style="stroke:#000000; stroke-linecap:round; stroke-linejoin:round; stroke-width:2; stroke-opacity:0.1; fill:none" points="1262.12,1047.7 1262.12,47.2441 "/>
<polyline clip-path="url(#clip292)" style="stroke:#000000; stroke-linecap:round; stroke-linejoin:round; stroke-width:2; stroke-opacity:0.1; fill:none" points="1776.86,1047.7 1776.86,47.2441 "/>
<polyline clip-path="url(#clip292)" style="stroke:#000000; stroke-linecap:round; stroke-linejoin:round; stroke-width:2; stroke-opacity:0.1; fill:none" points="2291.6,1047.7 2291.6,47.2441 "/>
<polyline clip-path="url(#clip290)" style="stroke:#000000; stroke-linecap:round; stroke-linejoin:round; stroke-width:4; stroke-opacity:1; fill:none" points="192.084,1047.7 2352.76,1047.7 "/>
<polyline clip-path="url(#clip290)" style="stroke:#000000; stroke-linecap:round; stroke-linejoin:round; stroke-width:4; stroke-opacity:1; fill:none" points="232.645,1047.7 232.645,1028.8 "/>
<polyline clip-path="url(#clip290)" style="stroke:#000000; stroke-linecap:round; stroke-linejoin:round; stroke-width:4; stroke-opacity:1; fill:none" points="747.385,1047.7 747.385,1028.8 "/>
<polyline clip-path="url(#clip290)" style="stroke:#000000; stroke-linecap:round; stroke-linejoin:round; stroke-width:4; stroke-opacity:1; fill:none" points="1262.12,1047.7 1262.12,1028.8 "/>
<polyline clip-path="url(#clip290)" style="stroke:#000000; stroke-linecap:round; stroke-linejoin:round; stroke-width:4; stroke-opacity:1; fill:none" points="1776.86,1047.7 1776.86,1028.8 "/>
<polyline clip-path="url(#clip290)" style="stroke:#000000; stroke-linecap:round; stroke-linejoin:round; stroke-width:4; stroke-opacity:1; fill:none" points="2291.6,1047.7 2291.6,1028.8 "/>
<path clip-path="url(#clip290)" d="M232.645 1078.62 Q229.034 1078.62 227.205 1082.18 Q225.4 1085.72 225.4 1092.85 Q225.4 1099.96 227.205 1103.53 Q229.034 1107.07 232.645 1107.07 Q236.279 1107.07 238.085 1103.53 Q239.914 1099.96 239.914 1092.85 Q239.914 1085.72 238.085 1082.18 Q236.279 1078.62 232.645 1078.62 M232.645 1074.91 Q238.455 1074.91 241.511 1079.52 Q244.589 1084.1 244.589 1092.85 Q244.589 1101.58 241.511 1106.19 Q238.455 1110.77 232.645 1110.77 Q226.835 1110.77 223.756 1106.19 Q220.701 1101.58 220.701 1092.85 Q220.701 1084.1 223.756 1079.52 Q226.835 1074.91 232.645 1074.91 Z" fill="#000000" fill-rule="nonzero" fill-opacity="1" /><path clip-path="url(#clip290)" d="M726.656 1106.16 L742.975 1106.16 L742.975 1110.1 L721.031 1110.1 L721.031 1106.16 Q723.693 1103.41 728.276 1098.78 Q732.883 1094.13 734.063 1092.79 Q736.309 1090.26 737.188 1088.53 Q738.091 1086.77 738.091 1085.08 Q738.091 1082.32 736.147 1080.59 Q734.225 1078.85 731.124 1078.85 Q728.924 1078.85 726.471 1079.61 Q724.04 1080.38 721.262 1081.93 L721.262 1077.21 Q724.087 1076.07 726.54 1075.49 Q728.994 1074.91 731.031 1074.91 Q736.401 1074.91 739.596 1077.6 Q742.79 1080.29 742.79 1084.78 Q742.79 1086.91 741.98 1088.83 Q741.193 1090.72 739.086 1093.32 Q738.508 1093.99 735.406 1097.21 Q732.304 1100.4 726.656 1106.16 Z" fill="#000000" fill-rule="nonzero" fill-opacity="1" /><path clip-path="url(#clip290)" d="M752.836 1075.54 L771.193 1075.54 L771.193 1079.48 L757.119 1079.48 L757.119 1087.95 Q758.137 1087.6 759.156 1087.44 Q760.174 1087.25 761.193 1087.25 Q766.98 1087.25 770.359 1090.42 Q773.739 1093.6 773.739 1099.01 Q773.739 1104.59 770.267 1107.69 Q766.795 1110.77 760.475 1110.77 Q758.299 1110.77 756.031 1110.4 Q753.785 1110.03 751.378 1109.29 L751.378 1104.59 Q753.461 1105.72 755.684 1106.28 Q757.906 1106.84 760.383 1106.84 Q764.387 1106.84 766.725 1104.73 Q769.063 1102.62 769.063 1099.01 Q769.063 1095.4 766.725 1093.29 Q764.387 1091.19 760.383 1091.19 Q758.508 1091.19 756.633 1091.6 Q754.781 1092.02 752.836 1092.9 L752.836 1075.54 Z" fill="#000000" fill-rule="nonzero" fill-opacity="1" /><path clip-path="url(#clip290)" d="M1236.82 1075.54 L1255.18 1075.54 L1255.18 1079.48 L1241.11 1079.48 L1241.11 1087.95 Q1242.13 1087.6 1243.14 1087.44 Q1244.16 1087.25 1245.18 1087.25 Q1250.97 1087.25 1254.35 1090.42 Q1257.73 1093.6 1257.73 1099.01 Q1257.73 1104.59 1254.25 1107.69 Q1250.78 1110.77 1244.46 1110.77 Q1242.29 1110.77 1240.02 1110.4 Q1237.77 1110.03 1235.37 1109.29 L1235.37 1104.59 Q1237.45 1105.72 1239.67 1106.28 Q1241.89 1106.84 1244.37 1106.84 Q1248.38 1106.84 1250.71 1104.73 Q1253.05 1102.62 1253.05 1099.01 Q1253.05 1095.4 1250.71 1093.29 Q1248.38 1091.19 1244.37 1091.19 Q1242.5 1091.19 1240.62 1091.6 Q1238.77 1092.02 1236.82 1092.9 L1236.82 1075.54 Z" fill="#000000" fill-rule="nonzero" fill-opacity="1" /><path clip-path="url(#clip290)" d="M1276.94 1078.62 Q1273.33 1078.62 1271.5 1082.18 Q1269.69 1085.72 1269.69 1092.85 Q1269.69 1099.96 1271.5 1103.53 Q1273.33 1107.07 1276.94 1107.07 Q1280.57 1107.07 1282.38 1103.53 Q1284.21 1099.96 1284.21 1092.85 Q1284.21 1085.72 1282.38 1082.18 Q1280.57 1078.62 1276.94 1078.62 M1276.94 1074.91 Q1282.75 1074.91 1285.81 1079.52 Q1288.88 1084.1 1288.88 1092.85 Q1288.88 1101.58 1285.81 1106.19 Q1282.75 1110.77 1276.94 1110.77 Q1271.13 1110.77 1268.05 1106.19 Q1265 1101.58 1265 1092.85 Q1265 1084.1 1268.05 1079.52 Q1271.13 1074.91 1276.94 1074.91 Z" fill="#000000" fill-rule="nonzero" fill-opacity="1" /><path clip-path="url(#clip290)" d="M1750.72 1075.54 L1772.94 1075.54 L1772.94 1077.53 L1760.4 1110.1 L1755.51 1110.1 L1767.32 1079.48 L1750.72 1079.48 L1750.72 1075.54 Z" fill="#000000" fill-rule="nonzero" fill-opacity="1" /><path clip-path="url(#clip290)" d="M1782.11 1075.54 L1800.46 1075.54 L1800.46 1079.48 L1786.39 1079.48 L1786.39 1087.95 Q1787.41 1087.6 1788.43 1087.44 Q1789.45 1087.25 1790.46 1087.25 Q1796.25 1087.25 1799.63 1090.42 Q1803.01 1093.6 1803.01 1099.01 Q1803.01 1104.59 1799.54 1107.69 Q1796.07 1110.77 1789.75 1110.77 Q1787.57 1110.77 1785.3 1110.4 Q1783.06 1110.03 1780.65 1109.29 L1780.65 1104.59 Q1782.73 1105.72 1784.96 1106.28 Q1787.18 1106.84 1789.65 1106.84 Q1793.66 1106.84 1796 1104.73 Q1798.33 1102.62 1798.33 1099.01 Q1798.33 1095.4 1796 1093.29 Q1793.66 1091.19 1789.65 1091.19 Q1787.78 1091.19 1785.9 1091.6 Q1784.05 1092.02 1782.11 1092.9 L1782.11 1075.54 Z" fill="#000000" fill-rule="nonzero" fill-opacity="1" /><path clip-path="url(#clip290)" d="M2251.21 1106.16 L2258.85 1106.16 L2258.85 1079.8 L2250.54 1081.47 L2250.54 1077.21 L2258.8 1075.54 L2263.48 1075.54 L2263.48 1106.16 L2271.12 1106.16 L2271.12 1110.1 L2251.21 1110.1 L2251.21 1106.16 Z" fill="#000000" fill-rule="nonzero" fill-opacity="1" /><path clip-path="url(#clip290)" d="M2290.56 1078.62 Q2286.95 1078.62 2285.12 1082.18 Q2283.32 1085.72 2283.32 1092.85 Q2283.32 1099.96 2285.12 1103.53 Q2286.95 1107.07 2290.56 1107.07 Q2294.2 1107.07 2296 1103.53 Q2297.83 1099.96 2297.83 1092.85 Q2297.83 1085.72 2296 1082.18 Q2294.2 1078.62 2290.56 1078.62 M2290.56 1074.91 Q2296.37 1074.91 2299.43 1079.52 Q2302.51 1084.1 2302.51 1092.85 Q2302.51 1101.58 2299.43 1106.19 Q2296.37 1110.77 2290.56 1110.77 Q2284.75 1110.77 2281.67 1106.19 Q2278.62 1101.58 2278.62 1092.85 Q2278.62 1084.1 2281.67 1079.52 Q2284.75 1074.91 2290.56 1074.91 Z" fill="#000000" fill-rule="nonzero" fill-opacity="1" /><path clip-path="url(#clip290)" d="M2320.73 1078.62 Q2317.11 1078.62 2315.29 1082.18 Q2313.48 1085.72 2313.48 1092.85 Q2313.48 1099.96 2315.29 1103.53 Q2317.11 1107.07 2320.73 1107.07 Q2324.36 1107.07 2326.16 1103.53 Q2327.99 1099.96 2327.99 1092.85 Q2327.99 1085.72 2326.16 1082.18 Q2324.36 1078.62 2320.73 1078.62 M2320.73 1074.91 Q2326.54 1074.91 2329.59 1079.52 Q2332.67 1084.1 2332.67 1092.85 Q2332.67 1101.58 2329.59 1106.19 Q2326.54 1110.77 2320.73 1110.77 Q2314.91 1110.77 2311.84 1106.19 Q2308.78 1101.58 2308.78 1092.85 Q2308.78 1084.1 2311.84 1079.52 Q2314.91 1074.91 2320.73 1074.91 Z" fill="#000000" fill-rule="nonzero" fill-opacity="1" /><path clip-path="url(#clip290)" d="M1092.81 1145.04 L1092.81 1192.56 L1086.38 1192.56 L1086.38 1150.45 L1063.02 1150.45 L1063.02 1192.56 L1056.59 1192.56 L1056.59 1145.04 L1092.81 1145.04 Z" fill="#000000" fill-rule="nonzero" fill-opacity="1" /><path clip-path="url(#clip290)" d="M1135.84 1173.28 L1135.84 1176.14 L1108.92 1176.14 Q1109.3 1182.19 1112.55 1185.37 Q1115.82 1188.52 1121.65 1188.52 Q1125.02 1188.52 1128.17 1187.69 Q1131.36 1186.87 1134.47 1185.21 L1134.47 1190.75 Q1131.32 1192.09 1128.01 1192.79 Q1124.7 1193.49 1121.3 1193.49 Q1112.77 1193.49 1107.77 1188.52 Q1102.81 1183.56 1102.81 1175.09 Q1102.81 1166.34 1107.52 1161.21 Q1112.26 1156.06 1120.28 1156.06 Q1127.47 1156.06 1131.64 1160.7 Q1135.84 1165.32 1135.84 1173.28 M1129.99 1171.56 Q1129.92 1166.75 1127.28 1163.89 Q1124.67 1161.02 1120.34 1161.02 Q1115.44 1161.02 1112.48 1163.79 Q1109.55 1166.56 1109.11 1171.59 L1129.99 1171.56 Z" fill="#000000" fill-rule="nonzero" fill-opacity="1" /><path clip-path="url(#clip290)" d="M1151.12 1187.22 L1151.12 1206.12 L1145.23 1206.12 L1145.23 1156.92 L1151.12 1156.92 L1151.12 1162.33 Q1152.97 1159.14 1155.77 1157.62 Q1158.6 1156.06 1162.52 1156.06 Q1169.01 1156.06 1173.05 1161.21 Q1177.13 1166.37 1177.13 1174.77 Q1177.13 1183.17 1173.05 1188.33 Q1169.01 1193.49 1162.52 1193.49 Q1158.6 1193.49 1155.77 1191.96 Q1152.97 1190.4 1151.12 1187.22 M1171.05 1174.77 Q1171.05 1168.31 1168.37 1164.65 Q1165.73 1160.96 1161.08 1160.96 Q1156.44 1160.96 1153.76 1164.65 Q1151.12 1168.31 1151.12 1174.77 Q1151.12 1181.23 1153.76 1184.92 Q1156.44 1188.59 1161.08 1188.59 Q1165.73 1188.59 1168.37 1184.92 Q1171.05 1181.23 1171.05 1174.77 Z" fill="#000000" fill-rule="nonzero" fill-opacity="1" /><path clip-path="url(#clip290)" d="M1217.13 1156.92 L1217.13 1192.56 L1211.31 1192.56 L1211.31 1163.95 L1194.12 1192.56 L1186.61 1192.56 L1186.61 1156.92 L1192.43 1156.92 L1192.43 1185.47 L1209.59 1156.92 L1217.13 1156.92 Z" fill="#000000" fill-rule="nonzero" fill-opacity="1" /><path clip-path="url(#clip290)" d="M1243.01 1161.02 Q1238.3 1161.02 1235.56 1164.71 Q1232.83 1168.37 1232.83 1174.77 Q1232.83 1181.17 1235.53 1184.86 Q1238.27 1188.52 1243.01 1188.52 Q1247.69 1188.52 1250.43 1184.83 Q1253.16 1181.14 1253.16 1174.77 Q1253.16 1168.44 1250.43 1164.75 Q1247.69 1161.02 1243.01 1161.02 M1243.01 1156.06 Q1250.65 1156.06 1255.01 1161.02 Q1259.37 1165.99 1259.37 1174.77 Q1259.37 1183.52 1255.01 1188.52 Q1250.65 1193.49 1243.01 1193.49 Q1235.34 1193.49 1230.98 1188.52 Q1226.65 1183.52 1226.65 1174.77 Q1226.65 1165.99 1230.98 1161.02 Q1235.34 1156.06 1243.01 1156.06 Z" fill="#000000" fill-rule="nonzero" fill-opacity="1" /><path clip-path="url(#clip290)" d="M1277.03 1187.89 L1294.03 1187.89 L1294.03 1161.59 L1281.71 1161.59 L1281.71 1166.05 Q1281.71 1179.16 1277.96 1186.17 L1277.03 1187.89 M1268.54 1187.89 Q1271.43 1186.61 1272.71 1183.91 Q1275.83 1177.19 1275.83 1163.66 L1275.83 1156.92 L1299.92 1156.92 L1299.92 1187.89 L1304.6 1187.89 L1304.6 1201.57 L1299.92 1201.57 L1299.92 1192.56 L1271.02 1192.56 L1271.02 1201.57 L1266.34 1201.57 L1266.34 1187.89 L1268.54 1187.89 Z" fill="#000000" fill-rule="nonzero" fill-opacity="1" /><path clip-path="url(#clip290)" d="M1315.64 1184.48 L1322.36 1184.48 L1322.36 1189.95 L1317.14 1200.14 L1313.03 1200.14 L1315.64 1189.95 L1315.64 1184.48 Z" fill="#000000" fill-rule="nonzero" fill-opacity="1" /><path clip-path="url(#clip290)" d="M1355.36 1156.92 L1363.93 1156.92 L1374.05 1180.79 L1384.2 1156.92 L1392.7 1156.92 L1392.7 1192.56 L1386.81 1192.56 L1386.81 1162.52 L1376.98 1185.72 L1371.12 1185.72 L1361.25 1162.52 L1361.25 1192.56 L1355.36 1192.56 L1355.36 1156.92 Z" fill="#000000" fill-rule="nonzero" fill-opacity="1" /><path clip-path="url(#clip290)" d="M1435.25 1173.28 L1435.25 1176.14 L1408.33 1176.14 Q1408.71 1182.19 1411.96 1185.37 Q1415.23 1188.52 1421.06 1188.52 Q1424.43 1188.52 1427.58 1187.69 Q1430.77 1186.87 1433.89 1185.21 L1433.89 1190.75 Q1430.73 1192.09 1427.42 1192.79 Q1424.11 1193.49 1420.71 1193.49 Q1412.18 1193.49 1407.18 1188.52 Q1402.22 1183.56 1402.22 1175.09 Q1402.22 1166.34 1406.93 1161.21 Q1411.67 1156.06 1419.69 1156.06 Q1426.88 1156.06 1431.05 1160.7 Q1435.25 1165.32 1435.25 1173.28 M1429.4 1171.56 Q1429.33 1166.75 1426.69 1163.89 Q1424.08 1161.02 1419.75 1161.02 Q1414.85 1161.02 1411.89 1163.79 Q1408.96 1166.56 1408.52 1171.59 L1429.4 1171.56 Z" fill="#000000" fill-rule="nonzero" fill-opacity="1" /><path clip-path="url(#clip290)" d="M1470.52 1158.28 L1470.52 1163.76 Q1468.04 1162.39 1465.52 1161.72 Q1463.04 1161.02 1460.49 1161.02 Q1454.8 1161.02 1451.65 1164.65 Q1448.5 1168.25 1448.5 1174.77 Q1448.5 1181.3 1451.65 1184.92 Q1454.8 1188.52 1460.49 1188.52 Q1463.04 1188.52 1465.52 1187.85 Q1468.04 1187.15 1470.52 1185.78 L1470.52 1191.2 Q1468.07 1192.34 1465.43 1192.91 Q1462.82 1193.49 1459.86 1193.49 Q1451.81 1193.49 1447.06 1188.43 Q1442.32 1183.37 1442.32 1174.77 Q1442.32 1166.05 1447.09 1161.05 Q1451.9 1156.06 1460.24 1156.06 Q1462.95 1156.06 1465.52 1156.63 Q1468.1 1157.17 1470.52 1158.28 Z" fill="#000000" fill-rule="nonzero" fill-opacity="1" /><path clip-path="url(#clip290)" d="M1481.53 1184.48 L1488.25 1184.48 L1488.25 1192.56 L1481.53 1192.56 L1481.53 1184.48 Z" fill="#000000" fill-rule="nonzero" fill-opacity="1" /><polyline clip-path="url(#clip292)" style="stroke:#000000; stroke-linecap:round; stroke-linejoin:round; stroke-width:2; stroke-opacity:0.1; fill:none" points="192.084,1047.7 2352.76,1047.7 "/>
<polyline clip-path="url(#clip292)" style="stroke:#000000; stroke-linecap:round; stroke-linejoin:round; stroke-width:2; stroke-opacity:0.1; fill:none" points="192.084,714.215 2352.76,714.215 "/>
<polyline clip-path="url(#clip292)" style="stroke:#000000; stroke-linecap:round; stroke-linejoin:round; stroke-width:2; stroke-opacity:0.1; fill:none" points="192.084,380.729 2352.76,380.729 "/>
<polyline clip-path="url(#clip292)" style="stroke:#000000; stroke-linecap:round; stroke-linejoin:round; stroke-width:2; stroke-opacity:0.1; fill:none" points="192.084,47.2441 2352.76,47.2441 "/>
<polyline clip-path="url(#clip290)" style="stroke:#000000; stroke-linecap:round; stroke-linejoin:round; stroke-width:4; stroke-opacity:1; fill:none" points="192.084,1047.7 192.084,47.2441 "/>
<polyline clip-path="url(#clip290)" style="stroke:#000000; stroke-linecap:round; stroke-linejoin:round; stroke-width:4; stroke-opacity:1; fill:none" points="192.084,1047.7 210.981,1047.7 "/>
<polyline clip-path="url(#clip290)" style="stroke:#000000; stroke-linecap:round; stroke-linejoin:round; stroke-width:4; stroke-opacity:1; fill:none" points="192.084,714.215 210.981,714.215 "/>
<polyline clip-path="url(#clip290)" style="stroke:#000000; stroke-linecap:round; stroke-linejoin:round; stroke-width:4; stroke-opacity:1; fill:none" points="192.084,380.729 210.981,380.729 "/>
<polyline clip-path="url(#clip290)" style="stroke:#000000; stroke-linecap:round; stroke-linejoin:round; stroke-width:4; stroke-opacity:1; fill:none" points="192.084,47.2441 210.981,47.2441 "/>
<path clip-path="url(#clip290)" d="M135.181 1030.42 L153.537 1030.42 L153.537 1034.36 L139.463 1034.36 L139.463 1042.83 Q140.482 1042.48 141.5 1042.32 Q142.519 1042.13 143.537 1042.13 Q149.324 1042.13 152.704 1045.3 Q156.084 1048.48 156.084 1053.89 Q156.084 1059.47 152.611 1062.57 Q149.139 1065.65 142.82 1065.65 Q140.644 1065.65 138.375 1065.28 Q136.13 1064.91 133.723 1064.17 L133.723 1059.47 Q135.806 1060.6 138.028 1061.16 Q140.25 1061.72 142.727 1061.72 Q146.732 1061.72 149.07 1059.61 Q151.408 1057.5 151.408 1053.89 Q151.408 1050.28 149.07 1048.17 Q146.732 1046.07 142.727 1046.07 Q140.852 1046.07 138.977 1046.48 Q137.125 1046.9 135.181 1047.78 L135.181 1030.42 Z" fill="#000000" fill-rule="nonzero" fill-opacity="1" /><path clip-path="url(#clip290)" d="M104.788 727.559 L112.426 727.559 L112.426 701.194 L104.116 702.86 L104.116 698.601 L112.38 696.935 L117.056 696.935 L117.056 727.559 L124.695 727.559 L124.695 731.495 L104.788 731.495 L104.788 727.559 Z" fill="#000000" fill-rule="nonzero" fill-opacity="1" /><path clip-path="url(#clip290)" d="M144.139 700.013 Q140.528 700.013 138.699 703.578 Q136.894 707.12 136.894 714.249 Q136.894 721.356 138.699 724.921 Q140.528 728.462 144.139 728.462 Q147.773 728.462 149.579 724.921 Q151.408 721.356 151.408 714.249 Q151.408 707.12 149.579 703.578 Q147.773 700.013 144.139 700.013 M144.139 696.31 Q149.949 696.31 153.005 700.916 Q156.084 705.499 156.084 714.249 Q156.084 722.976 153.005 727.583 Q149.949 732.166 144.139 732.166 Q138.329 732.166 135.25 727.583 Q132.195 722.976 132.195 714.249 Q132.195 705.499 135.25 700.916 Q138.329 696.31 144.139 696.31 Z" fill="#000000" fill-rule="nonzero" fill-opacity="1" /><path clip-path="url(#clip290)" d="M105.783 394.074 L113.422 394.074 L113.422 367.709 L105.112 369.375 L105.112 365.116 L113.375 363.449 L118.051 363.449 L118.051 394.074 L125.69 394.074 L125.69 398.009 L105.783 398.009 L105.783 394.074 Z" fill="#000000" fill-rule="nonzero" fill-opacity="1" /><path clip-path="url(#clip290)" d="M135.181 363.449 L153.537 363.449 L153.537 367.385 L139.463 367.385 L139.463 375.857 Q140.482 375.509 141.5 375.347 Q142.519 375.162 143.537 375.162 Q149.324 375.162 152.704 378.334 Q156.084 381.505 156.084 386.921 Q156.084 392.5 152.611 395.602 Q149.139 398.681 142.82 398.681 Q140.644 398.681 138.375 398.31 Q136.13 397.94 133.723 397.199 L133.723 392.5 Q135.806 393.634 138.028 394.19 Q140.25 394.745 142.727 394.745 Q146.732 394.745 149.07 392.639 Q151.408 390.533 151.408 386.921 Q151.408 383.31 149.07 381.204 Q146.732 379.097 142.727 379.097 Q140.852 379.097 138.977 379.514 Q137.125 379.931 135.181 380.81 L135.181 363.449 Z" fill="#000000" fill-rule="nonzero" fill-opacity="1" /><path clip-path="url(#clip290)" d="M108.005 60.5889 L124.324 60.5889 L124.324 64.5241 L102.38 64.5241 L102.38 60.5889 Q105.042 57.8343 109.625 53.2047 Q114.232 48.552 115.412 47.2094 Q117.658 44.6862 118.537 42.9501 Q119.44 41.1909 119.44 39.5011 Q119.44 36.7465 117.496 35.0104 Q115.575 33.2743 112.473 33.2743 Q110.274 33.2743 107.82 34.0381 Q105.389 34.802 102.612 36.3529 L102.612 31.6308 Q105.436 30.4965 107.889 29.9178 Q110.343 29.3391 112.38 29.3391 Q117.75 29.3391 120.945 32.0243 Q124.139 34.7094 124.139 39.2002 Q124.139 41.3298 123.329 43.2511 Q122.542 45.1492 120.436 47.7418 Q119.857 48.4131 116.755 51.6306 Q113.653 54.8251 108.005 60.5889 Z" fill="#000000" fill-rule="nonzero" fill-opacity="1" /><path clip-path="url(#clip290)" d="M144.139 33.0428 Q140.528 33.0428 138.699 36.6076 Q136.894 40.1492 136.894 47.2788 Q136.894 54.3853 138.699 57.9501 Q140.528 61.4917 144.139 61.4917 Q147.773 61.4917 149.579 57.9501 Q151.408 54.3853 151.408 47.2788 Q151.408 40.1492 149.579 36.6076 Q147.773 33.0428 144.139 33.0428 M144.139 29.3391 Q149.949 29.3391 153.005 33.9456 Q156.084 38.5289 156.084 47.2788 Q156.084 56.0056 153.005 60.6121 Q149.949 65.1954 144.139 65.1954 Q138.329 65.1954 135.25 60.6121 Q132.195 56.0056 132.195 47.2788 Q132.195 38.5289 135.25 33.9456 Q138.329 29.3391 144.139 29.3391 Z" fill="#000000" fill-rule="nonzero" fill-opacity="1" /><path clip-path="url(#clip290)" d="M46.7133 792.647 L46.7133 771.64 L10.015 771.64 L10.015 787.077 L16.7627 787.077 Q32.6451 787.077 43.1803 790.642 Q45.3447 791.374 46.7133 792.647 M46.7133 802.037 Q44.7081 797.772 40.8887 796.562 Q31.0855 793.475 13.5798 793.475 L4.60416 793.475 L4.60416 765.211 L46.7133 765.211 L46.7133 759.8 L62.3411 759.8 L62.3411 765.211 L52.1242 765.211 L52.1242 798.886 L62.3411 798.886 L62.3411 804.296 L46.7133 804.296 L46.7133 802.037 Z" fill="#000000" fill-rule="nonzero" fill-opacity="1" /><path clip-path="url(#clip290)" d="M34.2047 734.242 Q34.2047 741.34 35.8279 744.077 Q37.4512 746.814 41.3661 746.814 Q44.4853 746.814 46.3314 744.777 Q48.1456 742.708 48.1456 739.175 Q48.1456 734.305 44.7081 731.377 Q41.2388 728.417 35.5097 728.417 L34.2047 728.417 L34.2047 734.242 M31.7857 722.561 L52.1242 722.561 L52.1242 728.417 L46.7133 728.417 Q49.9598 730.422 51.5194 733.414 Q53.0472 736.406 53.0472 740.735 Q53.0472 746.209 49.9916 749.456 Q46.9043 752.671 41.7481 752.671 Q35.7325 752.671 32.6769 748.66 Q29.6214 744.618 29.6214 736.629 L29.6214 728.417 L29.0485 728.417 Q25.0062 728.417 22.8101 731.091 Q20.5821 733.733 20.5821 738.539 Q20.5821 741.594 21.3141 744.491 Q22.0462 747.387 23.5103 750.061 L18.0995 750.061 Q16.8581 746.846 16.2534 743.822 Q15.6168 740.798 15.6168 737.934 Q15.6168 730.2 19.6272 726.38 Q23.6376 722.561 31.7857 722.561 Z" fill="#000000" fill-rule="nonzero" fill-opacity="1" /><path clip-path="url(#clip290)" d="M35.7006 704.864 L47.4454 704.864 L47.4454 696.525 Q47.4454 692.515 45.9494 690.414 Q44.4217 688.313 41.5571 688.313 Q38.6925 688.313 37.1966 690.414 Q35.7006 692.515 35.7006 696.525 L35.7006 704.864 M21.155 704.864 L31.0218 704.864 L31.0218 697.162 Q31.0218 693.851 29.7169 691.751 Q28.3801 689.65 26.0248 689.65 Q23.6694 689.65 22.4281 691.751 Q21.155 693.851 21.155 697.162 L21.155 704.864 M16.4762 710.721 L16.4762 696.78 Q16.4762 690.509 18.7679 687.136 Q21.0595 683.762 25.2927 683.762 Q28.571 683.762 30.5126 685.48 Q32.4223 687.199 32.8997 690.573 Q33.6636 686.531 36.0826 684.303 Q38.5015 682.075 42.13 682.075 Q46.9043 682.075 49.5142 685.767 Q52.1242 689.427 52.1242 696.239 L52.1242 710.721 L16.4762 710.721 Z" fill="#000000" fill-rule="nonzero" fill-opacity="1" /><path clip-path="url(#clip290)" d="M52.1242 675.805 L47.2544 675.805 Q46.3632 670.012 42.3528 668.229 Q36.7191 666.065 22.3008 666.065 L16.4762 666.065 L16.4762 641.971 L52.1242 641.971 L52.1242 647.827 L21.155 647.827 L21.155 660.209 L24.688 660.209 Q38.4379 660.209 44.6126 663.01 Q51.2011 666.001 52.1242 675.805 Z" fill="#000000" fill-rule="nonzero" fill-opacity="1" /><path clip-path="url(#clip290)" d="M32.8361 599.925 L35.7006 599.925 L35.7006 626.852 Q41.7481 626.47 44.9309 623.224 Q48.0819 619.946 48.0819 614.121 Q48.0819 610.747 47.2544 607.596 Q46.4269 604.413 44.7718 601.294 L50.3099 601.294 Q51.6467 604.445 52.347 607.755 Q53.0472 611.065 53.0472 614.471 Q53.0472 623.001 48.0819 627.998 Q43.1167 632.963 34.6503 632.963 Q25.8974 632.963 20.7731 628.253 Q15.6168 623.51 15.6168 615.49 Q15.6168 608.296 20.2638 604.127 Q24.8789 599.925 32.8361 599.925 M31.1173 605.782 Q26.3112 605.845 23.4466 608.487 Q20.5821 611.097 20.5821 615.426 Q20.5821 620.327 23.3512 623.288 Q26.1202 626.216 31.1492 626.661 L31.1173 605.782 Z" fill="#000000" fill-rule="nonzero" fill-opacity="1" /><path clip-path="url(#clip290)" d="M16.4762 590.536 L16.4762 584.648 L31.0218 584.648 L31.0218 565.646 L16.4762 565.646 L16.4762 559.758 L52.1242 559.758 L52.1242 565.646 L35.7006 565.646 L35.7006 584.648 L52.1242 584.648 L52.1242 590.536 L16.4762 590.536 Z" fill="#000000" fill-rule="nonzero" fill-opacity="1" /><path clip-path="url(#clip290)" d="M16.4762 517.394 L52.1242 517.394 L52.1242 523.219 L23.5103 523.219 L52.1242 540.406 L52.1242 547.918 L16.4762 547.918 L16.4762 542.093 L45.0264 542.093 L16.4762 524.937 L16.4762 517.394 Z" fill="#000000" fill-rule="nonzero" fill-opacity="1" /><path clip-path="url(#clip290)" d="M32.8361 474.839 L35.7006 474.839 L35.7006 501.766 Q41.7481 501.384 44.9309 498.138 Q48.0819 494.859 48.0819 489.035 Q48.0819 485.661 47.2544 482.51 Q46.4269 479.327 44.7718 476.208 L50.3099 476.208 Q51.6467 479.359 52.347 482.669 Q53.0472 485.979 53.0472 489.385 Q53.0472 497.915 48.0819 502.912 Q43.1167 507.877 34.6503 507.877 Q25.8974 507.877 20.7731 503.167 Q15.6168 498.424 15.6168 490.403 Q15.6168 483.21 20.2638 479.041 Q24.8789 474.839 32.8361 474.839 M31.1173 480.696 Q26.3112 480.759 23.4466 483.401 Q20.5821 486.011 20.5821 490.34 Q20.5821 495.241 23.3512 498.201 Q26.1202 501.13 31.1492 501.575 L31.1173 480.696 Z" fill="#000000" fill-rule="nonzero" fill-opacity="1" /><path clip-path="url(#clip290)" d="M44.0397 463.731 L44.0397 457.015 L49.5142 457.015 L59.6993 462.235 L59.6993 466.341 L49.5142 463.731 L44.0397 463.731 Z" fill="#000000" fill-rule="nonzero" fill-opacity="1" /><path clip-path="url(#clip290)" d="M4.60416 423.532 L4.60416 413.951 L36.9419 401.825 L4.60416 389.634 L4.60416 380.054 L52.1242 380.054 L52.1242 386.324 L10.397 386.324 L42.9894 398.578 L42.9894 405.039 L10.397 417.293 L52.1242 417.293 L52.1242 423.532 L4.60416 423.532 Z" fill="#000000" fill-rule="nonzero" fill-opacity="1" /><path clip-path="url(#clip290)" d="M4.60416 331.07 L52.1242 331.07 L52.1242 337.499 L10.015 337.499 L10.015 360.861 L52.1242 360.861 L52.1242 367.291 L4.60416 367.291 L4.60416 331.07 Z" fill="#000000" fill-rule="nonzero" fill-opacity="1" /><path clip-path="url(#clip290)" d="M34.2047 302.329 Q34.2047 309.426 35.8279 312.164 Q37.4512 314.901 41.3661 314.901 Q44.4853 314.901 46.3314 312.864 Q48.1456 310.795 48.1456 307.262 Q48.1456 302.392 44.7081 299.464 Q41.2388 296.504 35.5097 296.504 L34.2047 296.504 L34.2047 302.329 M31.7857 290.648 L52.1242 290.648 L52.1242 296.504 L46.7133 296.504 Q49.9598 298.509 51.5194 301.501 Q53.0472 304.493 53.0472 308.822 Q53.0472 314.296 49.9916 317.543 Q46.9043 320.757 41.7481 320.757 Q35.7325 320.757 32.6769 316.747 Q29.6214 312.705 29.6214 304.716 L29.6214 296.504 L29.0485 296.504 Q25.0062 296.504 22.8101 299.178 Q20.5821 301.819 20.5821 306.625 Q20.5821 309.681 21.3141 312.577 Q22.0462 315.474 23.5103 318.147 L18.0995 318.147 Q16.8581 314.933 16.2534 311.909 Q15.6168 308.885 15.6168 306.021 Q15.6168 298.286 19.6272 294.467 Q23.6376 290.648 31.7857 290.648 Z" fill="#000000" fill-rule="nonzero" fill-opacity="1" /><polyline clip-path="url(#clip292)" style="stroke:#009af9; stroke-linecap:round; stroke-linejoin:round; stroke-width:8; stroke-opacity:1; fill:none" points="253.235,99.6866 273.824,111.287 294.414,111.791 315.003,109.482 335.593,117.678 356.183,112.047 376.772,102.356 397.362,99.6818 417.951,99.7878 438.541,95.1593 459.131,97.2739 479.72,104.166 500.31,111.081 520.899,103.241 541.489,99.6681 562.079,98.2642 582.668,101.395 603.258,106.751 623.847,104.509 644.437,112.138 665.027,83.8248 685.616,80.067 706.206,76.422 726.795,75.2842 747.385,122.102 767.975,95.9385 788.564,92.8392 809.154,91.8349 829.743,86.1885 850.333,82.821 870.923,82.355 891.512,81.5759 912.102,77.3967 932.691,75.8703 953.281,79.2719 973.871,80.1255 994.46,85.1035 1015.05,85.0512 1035.64,83.5652 1056.23,82.7504 1076.82,81.876 1097.41,81.8835 1118,82.0497 1138.59,79.1457 1159.18,76.7959 1179.77,78.322 1200.36,78.8635 1220.95,75.2377 1241.54,76.1731 1262.12,80.803 1282.71,91.6409 1303.3,97.1735 1323.89,93.4784 1344.48,94.9053 1365.07,96.1478 1385.66,96.2707 1406.25,97.6287 1426.84,97.8629 1447.43,102.528 1468.02,97.1434 1488.61,98.8912 1509.2,97.2552 1529.79,103.439 1550.38,108.097 1570.97,106.865 1591.56,158.864 1612.15,155.435 1632.74,158.93 1653.33,167.905 1673.92,89.3303 1694.51,154.379 1715.1,179.815 1735.69,190.839 1756.28,186.166 1776.86,196.543 1797.45,205 1818.04,191.493 1838.63,194.344 1859.22,200.9 1879.81,203.975 1900.4,203.048 1920.99,206.755 1941.58,203.922 1962.17,210.882 1982.76,218.071 2003.35,195.26 2023.94,187.48 2044.53,183.934 2065.12,194.182 2085.71,185.973 2106.3,186.325 2126.89,175.776 2147.48,182.981 2168.07,181.016 2188.66,183.783 2209.25,187.151 2229.84,175.675 2250.43,181.633 2271.02,179.281 2291.6,186.443 "/>
<circle clip-path="url(#clip292)" cx="767.975" cy="95.9385" r="14.4" fill="#e26f46" fill-rule="evenodd" fill-opacity="1" stroke="#000000" stroke-opacity="1" stroke-width="2.4"/>
<circle clip-path="url(#clip292)" cx="912.102" cy="77.3967" r="14.4" fill="#e26f46" fill-rule="evenodd" fill-opacity="1" stroke="#000000" stroke-opacity="1" stroke-width="2.4"/>
<circle clip-path="url(#clip292)" cx="1179.77" cy="78.322" r="14.4" fill="#e26f46" fill-rule="evenodd" fill-opacity="1" stroke="#000000" stroke-opacity="1" stroke-width="2.4"/>
<circle clip-path="url(#clip292)" cx="1200.36" cy="78.8635" r="14.4" fill="#e26f46" fill-rule="evenodd" fill-opacity="1" stroke="#000000" stroke-opacity="1" stroke-width="2.4"/>
<circle clip-path="url(#clip292)" cx="1406.25" cy="97.6287" r="14.4" fill="#e26f46" fill-rule="evenodd" fill-opacity="1" stroke="#000000" stroke-opacity="1" stroke-width="2.4"/>
<circle clip-path="url(#clip292)" cx="1468.02" cy="97.1434" r="14.4" fill="#e26f46" fill-rule="evenodd" fill-opacity="1" stroke="#000000" stroke-opacity="1" stroke-width="2.4"/>
<circle clip-path="url(#clip292)" cx="1570.97" cy="106.865" r="14.4" fill="#e26f46" fill-rule="evenodd" fill-opacity="1" stroke="#000000" stroke-opacity="1" stroke-width="2.4"/>
<circle clip-path="url(#clip292)" cx="1797.45" cy="205" r="14.4" fill="#e26f46" fill-rule="evenodd" fill-opacity="1" stroke="#000000" stroke-opacity="1" stroke-width="2.4"/>
<circle clip-path="url(#clip292)" cx="1879.81" cy="203.975" r="14.4" fill="#e26f46" fill-rule="evenodd" fill-opacity="1" stroke="#000000" stroke-opacity="1" stroke-width="2.4"/>
<circle clip-path="url(#clip292)" cx="2106.3" cy="186.325" r="14.4" fill="#e26f46" fill-rule="evenodd" fill-opacity="1" stroke="#000000" stroke-opacity="1" stroke-width="2.4"/>
<polyline clip-path="url(#clip292)" style="stroke:#3da44d; stroke-linecap:round; stroke-linejoin:round; stroke-width:8; stroke-opacity:1; fill:none" points="253.235,62.4181 273.824,75.8214 294.414,85.2276 315.003,92.0558 335.593,99.7348 356.183,103.648 376.772,105.758 397.362,108.167 417.951,111.104 438.541,111.62 459.131,112.506 479.72,113.949 500.31,115.558 520.899,114.825 541.489,114.501 562.079,114.87 582.668,116.474 603.258,118.677 623.847,119.293 644.437,120.684 665.027,113.156 685.616,108.058 706.206,103.842 726.795,100.77 747.385,111.229 767.975,107.253 788.564,103.622 809.154,100.492 829.743,98.2066 850.333,96.1834 870.923,94.8671 891.512,93.8454 912.102,92.0105 932.691,90.439 953.281,89.8831 973.871,88.8127 994.46,88.9399 1015.05,88.7682 1035.64,88.1649 1056.23,87.6904 1076.82,87.426 1097.41,87.3864 1118,87.4455 1138.59,87.2017 1159.18,86.6898 1179.77,86.8467 1200.36,87.1237 1220.95,86.4875 1241.54,86.3993 1262.12,87.0272 1282.71,89.977 1303.3,93.064 1323.89,94.0876 1344.48,95.8357 1365.07,97.7976 1385.66,98.7963 1406.25,99.6823 1426.84,100.263 1447.43,101.97 1468.02,102.348 1488.61,104.003 1509.2,104.671 1529.79,105.586 1550.38,107.101 1570.97,107.627 1591.56,123.233 1612.15,132.922 1632.74,142.262 1653.33,151.326 1673.92,135.538 1694.51,145.928 1715.1,156.258 1735.69,164.68 1756.28,168.079 1776.86,173.652 1797.45,179.951 1818.04,181.608 1838.63,185.078 1859.22,190.05 1879.81,194.672 1900.4,197.739 1920.99,200.718 1941.58,201.583 1962.17,204.145 1982.76,207.512 2003.35,205.368 2023.94,203.239 2044.53,201.083 2065.12,202.55 2085.71,200.54 2106.3,200.432 2126.89,198.022 2147.48,198.984 2168.07,199.068 2188.66,200.026 2209.25,200.143 2229.84,196.118 2250.43,195.059 2271.02,193.319 2291.6,194.142 "/>
<polyline clip-path="url(#clip292)" style="stroke:#c271d2; stroke-linecap:round; stroke-linejoin:round; stroke-width:8; stroke-opacity:1; fill:none" points="253.235,210.684 273.824,210.684 273.824,225.173 294.414,225.173 294.414,218.987 315.003,218.987 315.003,214.435 335.593,214.435 335.593,243.057 356.183,243.057 356.183,221.627 376.772,221.627 376.772,205.065 397.362,205.065 397.362,209.121 417.951,209.121 417.951,218.358 438.541,218.358 438.541,200.183 459.131,200.183 459.131,206.807 479.72,206.807 479.72,220.575 500.31,220.575 500.31,232.146 520.899,232.146 520.899,208.492 541.489,208.492 541.489,202.577 562.079,202.577 562.079,201.151 582.668,201.151 582.668,213.368 603.258,213.368 603.258,225.637 623.847,225.637 623.847,214.374 644.437,214.374 644.437,228.643 665.027,228.643 665.027,129.032 685.616,129.032 685.616,128.573 706.206,128.573 706.206,120.369 726.795,120.369 726.795,119.201 747.385,119.201 747.385,269.541 767.975,269.541 767.975,146.606 788.564,146.606 788.564,139.488 809.154,139.488 809.154,136.632 829.743,136.632 829.743,132.715 850.333,132.715 850.333,129.145 870.923,129.145 870.923,132.229 891.512,132.229 891.512,131.437 912.102,131.437 912.102,119.076 932.691,119.076 932.691,116.599 953.281,116.599 953.281,125.457 973.871,125.457 973.871,120.847 994.46,120.847 994.46,133.059 1015.05,133.059 1015.05,130.322 1035.64,130.322 1035.64,125.196 1056.23,125.196 1056.23,125.305 1076.82,125.305 1076.82,126.268 1097.41,126.268 1097.41,128.098 1118,128.098 1118,129.18 1138.59,129.18 1138.59,124.486 1159.18,124.486 1159.18,120.308 1179.77,120.308 1179.77,127.269 1200.36,127.269 1200.36,128.74 1220.95,128.74 1220.95,116.946 1241.54,116.946 1241.54,120.575 1262.12,120.575 1262.12,130.608 1282.71,130.608 1282.71,160.987 1303.3,160.987 1303.3,172.064 1323.89,172.064 1323.89,156.147 1344.48,156.147 1344.48,162.968 1365.07,162.968 1365.07,166.951 1385.66,166.951 1385.66,161.666 1406.25,161.666 1406.25,163.026 1426.84,163.026 1426.84,161.909 1447.43,161.909 1447.43,176.109 1468.02,176.109 1468.02,162.563 1488.61,162.563 1488.61,173.782 1509.2,173.782 1509.2,165.304 1529.79,165.304 1529.79,172.853 1550.38,172.853 1550.38,181.711 1570.97,181.711 1570.97,173.728 1591.56,173.728 1591.56,347.728 1612.15,347.728 1612.15,323.164 1632.74,323.164 1632.74,337.542 1653.33,337.542 1653.33,357.591 1673.92,357.591 1673.92,90.3724 1694.51,90.3724 1694.51,332.614 1715.1,332.614 1715.1,373.258 1735.69,373.258 1735.69,384.338 1756.28,384.338 1756.28,350.524 1776.86,350.524 1776.86,378.911 1797.45,378.911 1797.45,398.34 1818.04,398.34 1818.04,355.869 1838.63,355.869 1838.63,373.12 1859.22,373.12 1859.22,394.256 1879.81,394.256 1879.81,401.033 1900.4,401.033 1900.4,396.044 1920.99,396.044 1920.99,407.909 1941.58,407.909 1941.58,396.941 1962.17,396.941 1962.17,420.214 1982.76,420.214 1982.76,439.736 2003.35,439.736 2003.35,379.959 2023.94,379.959 2023.94,371.91 2044.53,371.91 2044.53,368.309 2065.12,368.309 2065.12,407.221 2085.71,407.221 2085.71,378.738 2106.3,378.738 2106.3,395.301 2126.89,395.301 2126.89,368.418 2147.48,368.418 2147.48,400.046 2168.07,400.046 2168.07,394.111 2188.66,394.111 2188.66,405.044 2209.25,405.044 2209.25,404.421 2229.84,404.421 2229.84,360.291 2250.43,360.291 2250.43,382.469 2271.02,382.469 2271.02,372.016 2291.6,372.016 2291.6,395.494 "/>
<circle clip-path="url(#clip292)" cx="829.743" cy="132.715" r="14.4" fill="#ac8d18" fill-rule="evenodd" fill-opacity="1" stroke="#000000" stroke-opacity="1" stroke-width="2.4"/>
<circle clip-path="url(#clip292)" cx="2126.89" cy="317.779" r="14.4" fill="#ac8d18" fill-rule="evenodd" fill-opacity="1" stroke="#000000" stroke-opacity="1" stroke-width="2.4"/>
<circle clip-path="url(#clip292)" cx="2106.3" cy="355.865" r="14.4" fill="#ac8d18" fill-rule="evenodd" fill-opacity="1" stroke="#000000" stroke-opacity="1" stroke-width="2.4"/>
<circle clip-path="url(#clip292)" cx="1406.25" cy="223.934" r="14.4" fill="#ac8d18" fill-rule="evenodd" fill-opacity="1" stroke="#000000" stroke-opacity="1" stroke-width="2.4"/>
<circle clip-path="url(#clip292)" cx="1570.97" cy="149.579" r="14.4" fill="#ac8d18" fill-rule="evenodd" fill-opacity="1" stroke="#000000" stroke-opacity="1" stroke-width="2.4"/>
<circle clip-path="url(#clip292)" cx="891.512" cy="68.9498" r="14.4" fill="#ac8d18" fill-rule="evenodd" fill-opacity="1" stroke="#000000" stroke-opacity="1" stroke-width="2.4"/>
<circle clip-path="url(#clip292)" cx="665.027" cy="166.596" r="14.4" fill="#ac8d18" fill-rule="evenodd" fill-opacity="1" stroke="#000000" stroke-opacity="1" stroke-width="2.4"/>
<circle clip-path="url(#clip292)" cx="2291.6" cy="375.78" r="14.4" fill="#ac8d18" fill-rule="evenodd" fill-opacity="1" stroke="#000000" stroke-opacity="1" stroke-width="2.4"/>
<circle clip-path="url(#clip292)" cx="912.102" cy="93.8339" r="14.4" fill="#ac8d18" fill-rule="evenodd" fill-opacity="1" stroke="#000000" stroke-opacity="1" stroke-width="2.4"/>
<circle clip-path="url(#clip292)" cx="253.235" cy="175.569" r="14.4" fill="#ac8d18" fill-rule="evenodd" fill-opacity="1" stroke="#000000" stroke-opacity="1" stroke-width="2.4"/>
<circle clip-path="url(#clip292)" cx="706.206" cy="95.1531" r="14.4" fill="#ac8d18" fill-rule="evenodd" fill-opacity="1" stroke="#000000" stroke-opacity="1" stroke-width="2.4"/>
<circle clip-path="url(#clip292)" cx="644.437" cy="251.693" r="14.4" fill="#ac8d18" fill-rule="evenodd" fill-opacity="1" stroke="#000000" stroke-opacity="1" stroke-width="2.4"/>
<circle clip-path="url(#clip292)" cx="417.951" cy="253.243" r="14.4" fill="#ac8d18" fill-rule="evenodd" fill-opacity="1" stroke="#000000" stroke-opacity="1" stroke-width="2.4"/>
<circle clip-path="url(#clip292)" cx="1612.15" cy="323.164" r="14.4" fill="#ac8d18" fill-rule="evenodd" fill-opacity="1" stroke="#000000" stroke-opacity="1" stroke-width="2.4"/>
<circle clip-path="url(#clip292)" cx="994.46" cy="120.577" r="14.4" fill="#ac8d18" fill-rule="evenodd" fill-opacity="1" stroke="#000000" stroke-opacity="1" stroke-width="2.4"/>
<circle clip-path="url(#clip292)" cx="1941.58" cy="436.311" r="14.4" fill="#ac8d18" fill-rule="evenodd" fill-opacity="1" stroke="#000000" stroke-opacity="1" stroke-width="2.4"/>
<circle clip-path="url(#clip292)" cx="2085.71" cy="338.64" r="14.4" fill="#ac8d18" fill-rule="evenodd" fill-opacity="1" stroke="#000000" stroke-opacity="1" stroke-width="2.4"/>
<circle clip-path="url(#clip292)" cx="2168.07" cy="403.982" r="14.4" fill="#ac8d18" fill-rule="evenodd" fill-opacity="1" stroke="#000000" stroke-opacity="1" stroke-width="2.4"/>
<circle clip-path="url(#clip292)" cx="1385.66" cy="137.275" r="14.4" fill="#ac8d18" fill-rule="evenodd" fill-opacity="1" stroke="#000000" stroke-opacity="1" stroke-width="2.4"/>
<circle clip-path="url(#clip292)" cx="294.414" cy="207.365" r="14.4" fill="#ac8d18" fill-rule="evenodd" fill-opacity="1" stroke="#000000" stroke-opacity="1" stroke-width="2.4"/>
<circle clip-path="url(#clip292)" cx="2271.02" cy="392.199" r="14.4" fill="#ac8d18" fill-rule="evenodd" fill-opacity="1" stroke="#000000" stroke-opacity="1" stroke-width="2.4"/>
<circle clip-path="url(#clip292)" cx="850.333" cy="166.706" r="14.4" fill="#ac8d18" fill-rule="evenodd" fill-opacity="1" stroke="#000000" stroke-opacity="1" stroke-width="2.4"/>
<circle clip-path="url(#clip292)" cx="1797.45" cy="368.854" r="14.4" fill="#ac8d18" fill-rule="evenodd" fill-opacity="1" stroke="#000000" stroke-opacity="1" stroke-width="2.4"/>
<circle clip-path="url(#clip292)" cx="1426.84" cy="186.295" r="14.4" fill="#ac8d18" fill-rule="evenodd" fill-opacity="1" stroke="#000000" stroke-opacity="1" stroke-width="2.4"/>
<circle clip-path="url(#clip292)" cx="1179.77" cy="189.964" r="14.4" fill="#ac8d18" fill-rule="evenodd" fill-opacity="1" stroke="#000000" stroke-opacity="1" stroke-width="2.4"/>
<circle clip-path="url(#clip292)" cx="1776.86" cy="429.025" r="14.4" fill="#ac8d18" fill-rule="evenodd" fill-opacity="1" stroke="#000000" stroke-opacity="1" stroke-width="2.4"/>
<circle clip-path="url(#clip292)" cx="520.899" cy="231.946" r="14.4" fill="#ac8d18" fill-rule="evenodd" fill-opacity="1" stroke="#000000" stroke-opacity="1" stroke-width="2.4"/>
<circle clip-path="url(#clip292)" cx="973.871" cy="146.054" r="14.4" fill="#ac8d18" fill-rule="evenodd" fill-opacity="1" stroke="#000000" stroke-opacity="1" stroke-width="2.4"/>
<circle clip-path="url(#clip292)" cx="2003.35" cy="389.971" r="14.4" fill="#ac8d18" fill-rule="evenodd" fill-opacity="1" stroke="#000000" stroke-opacity="1" stroke-width="2.4"/>
<circle clip-path="url(#clip292)" cx="1900.4" cy="356.638" r="14.4" fill="#ac8d18" fill-rule="evenodd" fill-opacity="1" stroke="#000000" stroke-opacity="1" stroke-width="2.4"/>
<circle clip-path="url(#clip292)" cx="1241.54" cy="120.575" r="14.4" fill="#ac8d18" fill-rule="evenodd" fill-opacity="1" stroke="#000000" stroke-opacity="1" stroke-width="2.4"/>
<circle clip-path="url(#clip292)" cx="685.616" cy="178.677" r="14.4" fill="#ac8d18" fill-rule="evenodd" fill-opacity="1" stroke="#000000" stroke-opacity="1" stroke-width="2.4"/>
<circle clip-path="url(#clip292)" cx="932.691" cy="116.599" r="14.4" fill="#ac8d18" fill-rule="evenodd" fill-opacity="1" stroke="#000000" stroke-opacity="1" stroke-width="2.4"/>
<circle clip-path="url(#clip292)" cx="582.668" cy="225.046" r="14.4" fill="#ac8d18" fill-rule="evenodd" fill-opacity="1" stroke="#000000" stroke-opacity="1" stroke-width="2.4"/>
<circle clip-path="url(#clip292)" cx="273.824" cy="178.932" r="14.4" fill="#ac8d18" fill-rule="evenodd" fill-opacity="1" stroke="#000000" stroke-opacity="1" stroke-width="2.4"/>
<circle clip-path="url(#clip292)" cx="623.847" cy="167.702" r="14.4" fill="#ac8d18" fill-rule="evenodd" fill-opacity="1" stroke="#000000" stroke-opacity="1" stroke-width="2.4"/>
<circle clip-path="url(#clip292)" cx="2065.12" cy="387.742" r="14.4" fill="#ac8d18" fill-rule="evenodd" fill-opacity="1" stroke="#000000" stroke-opacity="1" stroke-width="2.4"/>
<circle clip-path="url(#clip292)" cx="747.385" cy="314.007" r="14.4" fill="#ac8d18" fill-rule="evenodd" fill-opacity="1" stroke="#000000" stroke-opacity="1" stroke-width="2.4"/>
<circle clip-path="url(#clip292)" cx="1509.2" cy="213.939" r="14.4" fill="#ac8d18" fill-rule="evenodd" fill-opacity="1" stroke="#000000" stroke-opacity="1" stroke-width="2.4"/>
<circle clip-path="url(#clip292)" cx="2023.94" cy="382.003" r="14.4" fill="#ac8d18" fill-rule="evenodd" fill-opacity="1" stroke="#000000" stroke-opacity="1" stroke-width="2.4"/>
<circle clip-path="url(#clip292)" cx="1118" cy="116.659" r="14.4" fill="#ac8d18" fill-rule="evenodd" fill-opacity="1" stroke="#000000" stroke-opacity="1" stroke-width="2.4"/>
<circle clip-path="url(#clip292)" cx="1550.38" cy="157.722" r="14.4" fill="#ac8d18" fill-rule="evenodd" fill-opacity="1" stroke="#000000" stroke-opacity="1" stroke-width="2.4"/>
<circle clip-path="url(#clip292)" cx="1735.69" cy="424.212" r="14.4" fill="#ac8d18" fill-rule="evenodd" fill-opacity="1" stroke="#000000" stroke-opacity="1" stroke-width="2.4"/>
<circle clip-path="url(#clip292)" cx="500.31" cy="220.656" r="14.4" fill="#ac8d18" fill-rule="evenodd" fill-opacity="1" stroke="#000000" stroke-opacity="1" stroke-width="2.4"/>
<circle clip-path="url(#clip292)" cx="1344.48" cy="162.968" r="14.4" fill="#ac8d18" fill-rule="evenodd" fill-opacity="1" stroke="#000000" stroke-opacity="1" stroke-width="2.4"/>
<circle clip-path="url(#clip292)" cx="562.079" cy="236.552" r="14.4" fill="#ac8d18" fill-rule="evenodd" fill-opacity="1" stroke="#000000" stroke-opacity="1" stroke-width="2.4"/>
<circle clip-path="url(#clip292)" cx="438.541" cy="188.373" r="14.4" fill="#ac8d18" fill-rule="evenodd" fill-opacity="1" stroke="#000000" stroke-opacity="1" stroke-width="2.4"/>
<circle clip-path="url(#clip292)" cx="1365.07" cy="154.809" r="14.4" fill="#ac8d18" fill-rule="evenodd" fill-opacity="1" stroke="#000000" stroke-opacity="1" stroke-width="2.4"/>
<circle clip-path="url(#clip292)" cx="2250.43" cy="362.495" r="14.4" fill="#ac8d18" fill-rule="evenodd" fill-opacity="1" stroke="#000000" stroke-opacity="1" stroke-width="2.4"/>
<circle clip-path="url(#clip292)" cx="788.564" cy="114.654" r="14.4" fill="#ac8d18" fill-rule="evenodd" fill-opacity="1" stroke="#000000" stroke-opacity="1" stroke-width="2.4"/>
<polyline clip-path="url(#clip292)" style="stroke:#808080; stroke-linecap:round; stroke-linejoin:round; stroke-width:8; stroke-opacity:1; fill:none" points="253.235,335.718 273.824,335.718 273.824,262.406 294.414,262.406 294.414,343.672 315.003,343.672 315.003,405.93 335.593,405.93 335.593,388.905 356.183,388.905 356.183,332.986 376.772,332.986 376.772,331.009 397.362,331.009 397.362,356.044 417.951,356.044 417.951,327.052 438.541,327.052 438.541,385.935 459.131,385.935 459.131,314.837 479.72,314.837 479.72,410.457 500.31,410.457 500.31,433.991 520.899,433.991 520.899,349.257 541.489,349.257 541.489,410.234 562.079,410.234 562.079,374.269 582.668,374.269 582.668,379.748 603.258,379.748 603.258,376.082 623.847,376.082 623.847,386.736 644.437,386.736 644.437,447.96 665.027,447.96 665.027,274.525 685.616,274.525 685.616,246.284 706.206,246.284 706.206,239.767 726.795,239.767 726.795,281.493 747.385,281.493 747.385,405.411 767.975,405.411 767.975,262.7 788.564,262.7 788.564,260.915 809.154,260.915 809.154,278.686 829.743,278.686 829.743,272.945 850.333,272.945 850.333,231.595 870.923,231.595 870.923,261.439 891.512,261.439 891.512,262.972 912.102,262.972 912.102,187.029 932.691,187.029 932.691,198.005 953.281,198.005 953.281,281.007 973.871,281.007 973.871,210.238 994.46,210.238 994.46,199.743 1015.05,199.743 1015.05,198.426 1035.64,198.426 1035.64,247.693 1056.23,247.693 1056.23,266.873 1076.82,266.873 1076.82,273.119 1097.41,273.119 1097.41,164.377 1118,164.377 1118,234.529 1138.59,234.529 1138.59,240.791 1159.18,240.791 1159.18,248.115 1179.77,248.115 1179.77,253.433 1200.36,253.433 1200.36,204.019 1220.95,204.019 1220.95,263.941 1241.54,263.941 1241.54,214.307 1262.12,214.307 1262.12,224.936 1282.71,224.936 1282.71,286.701 1303.3,286.701 1303.3,237.874 1323.89,237.874 1323.89,247.603 1344.48,247.603 1344.48,288.384 1365.07,288.384 1365.07,299.748 1385.66,299.748 1385.66,304.69 1406.25,304.69 1406.25,271.014 1426.84,271.014 1426.84,263.548 1447.43,263.548 1447.43,271.399 1468.02,271.399 1468.02,311.449 1488.61,311.449 1488.61,321.996 1509.2,321.996 1509.2,286.779 1529.79,286.779 1529.79,280.715 1550.38,280.715 1550.38,229.889 1570.97,229.889 1570.97,331.025 1591.56,331.025 1591.56,514.039 1612.15,514.039 1612.15,499.451 1632.74,499.451 1632.74,635.303 1653.33,635.303 1653.33,571.308 1673.92,571.308 1673.92,175.332 1694.51,175.332 1694.51,550.545 1715.1,550.545 1715.1,545.566 1735.69,545.566 1735.69,637.938 1756.28,637.938 1756.28,655.493 1776.86,655.493 1776.86,624.825 1797.45,624.825 1797.45,614.178 1818.04,614.178 1818.04,609.575 1838.63,609.575 1838.63,591.084 1859.22,591.084 1859.22,563.513 1879.81,563.513 1879.81,650.252 1900.4,650.252 1900.4,711.895 1920.99,711.895 1920.99,661.498 1941.58,661.498 1941.58,652.224 1962.17,652.224 1962.17,685.78 1982.76,685.78 1982.76,657.201 2003.35,657.201 2003.35,694.438 2023.94,694.438 2023.94,663.431 2044.53,663.431 2044.53,770.627 2065.12,770.627 2065.12,681.952 2085.71,681.952 2085.71,670.644 2106.3,670.644 2106.3,734.748 2126.89,734.748 2126.89,655.309 2147.48,655.309 2147.48,688.834 2168.07,688.834 2168.07,680.547 2188.66,680.547 2188.66,701.329 2209.25,701.329 2209.25,731.074 2229.84,731.074 2229.84,674.97 2250.43,674.97 2250.43,750.369 2271.02,750.369 2271.02,745.454 2291.6,745.454 2291.6,688.882 "/>
<path clip-path="url(#clip290)" d="M264.106 1014.35 L848.458 1014.35 L848.458 651.471 L264.106 651.471  Z" fill="#ffffff" fill-rule="evenodd" fill-opacity="1"/>
<polyline clip-path="url(#clip290)" style="stroke:#000000; stroke-linecap:round; stroke-linejoin:round; stroke-width:4; stroke-opacity:1; fill:none" points="264.106,1014.35 848.458,1014.35 848.458,651.471 264.106,651.471 264.106,1014.35 "/>
<polyline clip-path="url(#clip290)" style="stroke:#009af9; stroke-linecap:round; stroke-linejoin:round; stroke-width:8; stroke-opacity:1; fill:none" points="288.113,703.311 432.158,703.311 "/>
<path clip-path="url(#clip290)" d="M471.443 693.138 Q466.42 693.601 463.758 695.962 Q461.096 698.323 461.096 702.883 Q461.096 707.443 463.758 709.804 Q466.42 712.142 471.443 712.605 L471.443 693.138 M476.142 712.605 Q481.166 712.142 483.804 709.804 Q486.443 707.443 486.443 702.883 Q486.443 698.323 483.804 695.962 Q481.166 693.601 476.142 693.138 L476.142 712.605 M471.443 716.471 Q464.106 715.939 460.124 712.49 Q456.166 709.017 456.166 702.883 Q456.166 696.749 460.124 693.277 Q464.106 689.781 471.443 689.249 L471.443 686.031 L476.142 686.031 L476.142 689.249 Q483.48 689.781 487.416 693.254 Q491.374 696.703 491.374 702.883 Q491.374 709.017 487.416 712.49 Q483.48 715.939 476.142 716.471 L476.142 720.591 L471.443 720.591 L471.443 716.471 Z" fill="#000000" fill-rule="nonzero" fill-opacity="1" /><path clip-path="url(#clip290)" d="M510.425 707.559 Q505.263 707.559 503.272 708.74 Q501.281 709.92 501.281 712.767 Q501.281 715.036 502.763 716.378 Q504.267 717.698 506.837 717.698 Q510.378 717.698 512.508 715.198 Q514.661 712.675 514.661 708.508 L514.661 707.559 L510.425 707.559 M518.92 705.8 L518.92 720.591 L514.661 720.591 L514.661 716.656 Q513.202 719.017 511.027 720.152 Q508.851 721.263 505.703 721.263 Q501.721 721.263 499.36 719.04 Q497.022 716.795 497.022 713.045 Q497.022 708.67 499.939 706.448 Q502.878 704.226 508.689 704.226 L514.661 704.226 L514.661 703.809 Q514.661 700.869 512.716 699.272 Q510.795 697.652 507.3 697.652 Q505.078 697.652 502.971 698.184 Q500.865 698.716 498.92 699.781 L498.92 695.846 Q501.258 694.943 503.457 694.503 Q505.656 694.041 507.74 694.041 Q513.365 694.041 516.142 696.957 Q518.92 699.874 518.92 705.8 Z" fill="#000000" fill-rule="nonzero" fill-opacity="1" /><path clip-path="url(#clip290)" d="M527.531 694.666 L531.767 694.666 L531.767 706.841 L543.781 694.666 L549.012 694.666 L539.105 704.689 L550.286 720.591 L545.517 720.591 L536.327 707.513 L531.767 712.142 L531.767 720.591 L527.531 720.591 L527.531 694.666 Z" fill="#000000" fill-rule="nonzero" fill-opacity="1" /><path clip-path="url(#clip290)" d="M553.249 694.666 L578.086 694.666 L578.086 698.068 L567.762 698.068 L567.762 720.591 L563.573 720.591 L563.573 698.068 L553.249 698.068 L553.249 694.666 Z" fill="#000000" fill-rule="nonzero" fill-opacity="1" /><path clip-path="url(#clip290)" d="M621.234 694.666 L621.234 720.591 L616.952 720.591 L616.952 698.068 L603.133 698.068 L603.133 720.591 L598.85 720.591 L598.85 694.666 L621.234 694.666 Z" fill="#000000" fill-rule="nonzero" fill-opacity="1" /><path clip-path="url(#clip290)" d="M627.299 720.591 L627.299 717.05 Q631.512 716.402 632.808 713.485 Q634.382 709.388 634.382 698.902 L634.382 694.666 L651.905 694.666 L651.905 720.591 L647.646 720.591 L647.646 698.068 L638.642 698.068 L638.642 700.638 Q638.642 710.638 636.605 715.128 Q634.429 719.92 627.299 720.591 Z" fill="#000000" fill-rule="nonzero" fill-opacity="1" /><path clip-path="url(#clip290)" d="M660.91 714.712 L665.794 714.712 L665.794 720.591 L660.91 720.591 L660.91 714.712 Z" fill="#000000" fill-rule="nonzero" fill-opacity="1" /><circle clip-path="url(#clip290)" cx="360.136" cy="755.151" r="20.48" fill="#e26f46" fill-rule="evenodd" fill-opacity="1" stroke="#000000" stroke-opacity="1" stroke-width="3.41333"/>
<path clip-path="url(#clip290)" d="M472.184 741.043 Q467.092 741.043 464.082 744.839 Q461.096 748.635 461.096 755.186 Q461.096 761.714 464.082 765.51 Q467.092 769.306 472.184 769.306 Q477.277 769.306 480.24 765.51 Q483.226 761.714 483.226 755.186 Q483.226 748.635 480.24 744.839 Q477.277 741.043 472.184 741.043 M472.184 737.246 Q479.453 737.246 483.804 742.131 Q488.156 746.992 488.156 755.186 Q488.156 763.357 483.804 768.242 Q479.453 773.103 472.184 773.103 Q464.893 773.103 460.518 768.242 Q456.166 763.38 456.166 755.186 Q456.166 746.992 460.518 742.131 Q464.893 737.246 472.184 737.246 Z" fill="#000000" fill-rule="nonzero" fill-opacity="1" /><path clip-path="url(#clip290)" d="M505.564 745.881 Q511.119 745.881 514.29 749.492 Q517.462 753.103 517.462 759.492 Q517.462 765.857 514.29 769.492 Q511.119 773.103 505.564 773.103 Q499.985 773.103 496.906 769.584 Q493.828 766.066 493.666 759.492 L493.527 754.191 Q493.411 751.436 493.411 750.487 Q493.411 746.783 494.754 744.052 Q496.86 739.769 500.494 737.918 Q504.152 736.066 510.263 736.019 Q513.087 735.996 514.337 735.603 L515.517 738.982 Q514.383 739.445 513.341 739.469 L507.554 739.862 Q504.638 740.07 502.878 741.089 Q498.272 743.797 497.832 747.339 L497.67 748.635 Q500.679 745.881 505.564 745.881 M505.564 749.492 Q502.138 749.492 500.147 752.177 Q498.156 754.839 498.156 759.492 Q498.156 764.144 500.124 766.829 Q502.115 769.492 505.564 769.492 Q508.966 769.492 510.957 766.806 Q512.948 764.121 512.948 759.492 Q512.948 754.885 510.957 752.2 Q508.966 749.492 505.564 749.492 Z" fill="#000000" fill-rule="nonzero" fill-opacity="1" /><path clip-path="url(#clip290)" d="M535.309 774.839 Q533.503 779.468 531.79 780.88 Q530.077 782.292 527.207 782.292 L523.804 782.292 L523.804 778.728 L526.304 778.728 Q528.064 778.728 529.036 777.894 Q530.008 777.061 531.188 773.959 L531.952 772.015 L521.466 746.506 L525.98 746.506 L534.082 766.783 L542.184 746.506 L546.698 746.506 L535.309 774.839 Z" fill="#000000" fill-rule="nonzero" fill-opacity="1" /><path clip-path="url(#clip290)" d="M567.554 772.431 L567.554 761.529 L559.614 761.529 Q556.073 761.529 553.712 759.33 Q551.582 757.339 551.582 753.08 L551.582 746.506 L555.841 746.506 L555.841 752.686 Q555.841 755.394 557.045 756.76 Q558.272 758.126 560.679 758.126 L567.554 758.126 L567.554 746.506 L571.813 746.506 L571.813 772.431 L567.554 772.431 Z" fill="#000000" fill-rule="nonzero" fill-opacity="1" /><path clip-path="url(#clip290)" d="M581.188 766.552 L586.072 766.552 L586.072 772.431 L581.188 772.431 L581.188 766.552 Z" fill="#000000" fill-rule="nonzero" fill-opacity="1" /><path clip-path="url(#clip290)" d="M614.822 760.487 L614.822 769.029 L620.887 769.029 Q623.804 769.029 625.332 767.941 Q626.859 766.829 626.859 764.746 Q626.859 762.663 625.332 761.575 Q623.804 760.487 620.887 760.487 L614.822 760.487 M614.822 749.908 L614.822 757.084 L620.424 757.084 Q622.832 757.084 624.359 756.135 Q625.887 755.163 625.887 753.45 Q625.887 751.737 624.359 750.834 Q622.832 749.908 620.424 749.908 L614.822 749.908 M610.563 746.506 L620.702 746.506 Q625.262 746.506 627.716 748.172 Q630.169 749.839 630.169 752.918 Q630.169 755.302 628.919 756.714 Q627.669 758.103 625.216 758.45 Q628.156 759.005 629.776 760.765 Q631.396 762.524 631.396 765.163 Q631.396 768.635 628.711 770.533 Q626.049 772.431 621.095 772.431 L610.563 772.431 L610.563 746.506 Z" fill="#000000" fill-rule="nonzero" fill-opacity="1" /><path clip-path="url(#clip290)" d="M663.155 746.506 L667.415 746.506 L667.415 772.431 L663.155 772.431 L663.155 746.506 M665.285 745.881 L665.285 745.881 M654.799 764.746 Q654.799 762.663 653.271 761.575 Q651.767 760.487 648.85 760.487 L642.785 760.487 L642.785 769.029 L648.85 769.029 Q651.767 769.029 653.271 767.941 Q654.799 766.829 654.799 764.746 M638.503 746.506 L642.785 746.506 L642.785 757.084 L649.035 757.084 Q653.989 757.084 656.651 758.982 Q659.336 760.857 659.336 764.746 Q659.336 768.635 656.651 770.533 Q653.989 772.431 649.035 772.431 L638.503 772.431 L638.503 746.506 Z" fill="#000000" fill-rule="nonzero" fill-opacity="1" /><path clip-path="url(#clip290)" d="M686.373 745.881 Q691.928 745.881 695.1 749.492 Q698.271 753.103 698.271 759.492 Q698.271 765.857 695.1 769.492 Q691.928 773.103 686.373 773.103 Q680.794 773.103 677.715 769.584 Q674.637 766.066 674.475 759.492 L674.336 754.191 Q674.22 751.436 674.22 750.487 Q674.22 746.783 675.563 744.052 Q677.669 739.769 681.303 737.918 Q684.961 736.066 691.072 736.019 Q693.896 735.996 695.146 735.603 L696.326 738.982 Q695.192 739.445 694.151 739.469 L688.364 739.862 Q685.447 740.07 683.688 741.089 Q679.081 743.797 678.641 747.339 L678.479 748.635 Q681.489 745.881 686.373 745.881 M686.373 749.492 Q682.947 749.492 680.956 752.177 Q678.965 754.839 678.965 759.492 Q678.965 764.144 680.933 766.829 Q682.924 769.492 686.373 769.492 Q689.776 769.492 691.766 766.806 Q693.757 764.121 693.757 759.492 Q693.757 754.885 691.766 752.2 Q689.776 749.492 686.373 749.492 Z" fill="#000000" fill-rule="nonzero" fill-opacity="1" /><path clip-path="url(#clip290)" d="M705.933 766.552 L710.817 766.552 L710.817 772.431 L705.933 772.431 L705.933 766.552 Z" fill="#000000" fill-rule="nonzero" fill-opacity="1" /><path clip-path="url(#clip290)" d="M757.692 746.506 L757.692 772.431 L753.41 772.431 L753.41 749.908 L739.59 749.908 L739.59 772.431 L735.308 772.431 L735.308 746.506 L757.692 746.506 Z" fill="#000000" fill-rule="nonzero" fill-opacity="1" /><path clip-path="url(#clip290)" d="M763.757 772.431 L763.757 768.89 Q767.97 768.242 769.266 765.325 Q770.84 761.228 770.84 750.742 L770.84 746.506 L788.363 746.506 L788.363 772.431 L784.104 772.431 L784.104 749.908 L775.099 749.908 L775.099 752.478 Q775.099 762.478 773.062 766.968 Q770.886 771.76 763.757 772.431 Z" fill="#000000" fill-rule="nonzero" fill-opacity="1" /><path clip-path="url(#clip290)" d="M797.368 766.552 L802.252 766.552 L802.252 772.431 L797.368 772.431 L797.368 766.552 Z" fill="#000000" fill-rule="nonzero" fill-opacity="1" /><polyline clip-path="url(#clip290)" style="stroke:#3da44d; stroke-linecap:round; stroke-linejoin:round; stroke-width:8; stroke-opacity:1; fill:none" points="288.113,806.991 432.158,806.991 "/>
<path clip-path="url(#clip290)" d="M460.842 807.767 L460.842 820.429 L468.342 820.429 Q472.115 820.429 473.92 818.878 Q475.749 817.304 475.749 814.086 Q475.749 810.845 473.92 809.318 Q472.115 807.767 468.342 807.767 L460.842 807.767 M460.842 793.554 L460.842 803.971 L467.763 803.971 Q471.189 803.971 472.855 802.697 Q474.545 801.401 474.545 798.762 Q474.545 796.146 472.855 794.85 Q471.189 793.554 467.763 793.554 L460.842 793.554 M456.166 789.711 L468.11 789.711 Q473.457 789.711 476.351 791.934 Q479.244 794.156 479.244 798.253 Q479.244 801.424 477.763 803.299 Q476.281 805.174 473.411 805.637 Q476.86 806.378 478.758 808.739 Q480.68 811.077 480.68 814.595 Q480.68 819.225 477.531 821.748 Q474.383 824.271 468.573 824.271 L456.166 824.271 L456.166 789.711 Z" fill="#000000" fill-rule="nonzero" fill-opacity="1" /><path clip-path="url(#clip290)" d="M498.55 801.332 Q495.124 801.332 493.133 804.017 Q491.142 806.679 491.142 811.332 Q491.142 815.984 493.11 818.669 Q495.101 821.332 498.55 821.332 Q501.953 821.332 503.943 818.646 Q505.934 815.961 505.934 811.332 Q505.934 806.725 503.943 804.04 Q501.953 801.332 498.55 801.332 M498.55 797.721 Q504.105 797.721 507.277 801.332 Q510.448 804.943 510.448 811.332 Q510.448 817.697 507.277 821.332 Q504.105 824.943 498.55 824.943 Q492.971 824.943 489.8 821.332 Q486.652 817.697 486.652 811.332 Q486.652 804.943 489.8 801.332 Q492.971 797.721 498.55 797.721 Z" fill="#000000" fill-rule="nonzero" fill-opacity="1" /><path clip-path="url(#clip290)" d="M536.165 799.341 L536.165 803.322 Q534.36 802.327 532.531 801.841 Q530.726 801.332 528.874 801.332 Q524.73 801.332 522.439 803.971 Q520.147 806.586 520.147 811.332 Q520.147 816.077 522.439 818.716 Q524.73 821.332 528.874 821.332 Q530.726 821.332 532.531 820.845 Q534.36 820.336 536.165 819.341 L536.165 823.276 Q534.383 824.109 532.462 824.526 Q530.563 824.943 528.411 824.943 Q522.554 824.943 519.105 821.262 Q515.656 817.582 515.656 811.332 Q515.656 804.989 519.128 801.355 Q522.624 797.721 528.689 797.721 Q530.656 797.721 532.531 798.137 Q534.406 798.531 536.165 799.341 Z" fill="#000000" fill-rule="nonzero" fill-opacity="1" /><path clip-path="url(#clip290)" d="M540.494 798.346 L565.332 798.346 L565.332 801.748 L555.008 801.748 L555.008 824.271 L550.818 824.271 L550.818 801.748 L540.494 801.748 L540.494 798.346 Z" fill="#000000" fill-rule="nonzero" fill-opacity="1" /><path clip-path="url(#clip290)" d="M571.79 818.392 L576.674 818.392 L576.674 824.271 L571.79 824.271 L571.79 818.392 Z" fill="#000000" fill-rule="nonzero" fill-opacity="1" /><path clip-path="url(#clip290)" d="M623.549 798.346 L623.549 824.271 L619.267 824.271 L619.267 801.748 L605.447 801.748 L605.447 824.271 L601.165 824.271 L601.165 798.346 L623.549 798.346 Z" fill="#000000" fill-rule="nonzero" fill-opacity="1" /><path clip-path="url(#clip290)" d="M629.614 824.271 L629.614 820.73 Q633.827 820.082 635.123 817.165 Q636.697 813.068 636.697 802.582 L636.697 798.346 L654.22 798.346 L654.22 824.271 L649.961 824.271 L649.961 801.748 L640.956 801.748 L640.956 804.318 Q640.956 814.318 638.919 818.808 Q636.743 823.6 629.614 824.271 Z" fill="#000000" fill-rule="nonzero" fill-opacity="1" /><path clip-path="url(#clip290)" d="M663.225 818.392 L668.109 818.392 L668.109 824.271 L663.225 824.271 L663.225 818.392 Z" fill="#000000" fill-rule="nonzero" fill-opacity="1" /><polyline clip-path="url(#clip290)" style="stroke:#c271d2; stroke-linecap:round; stroke-linejoin:round; stroke-width:8; stroke-opacity:1; fill:none" points="288.113,858.831 432.158,858.831 "/>
<path clip-path="url(#clip290)" d="M471.443 848.658 Q466.42 849.121 463.758 851.482 Q461.096 853.843 461.096 858.403 Q461.096 862.963 463.758 865.324 Q466.42 867.662 471.443 868.125 L471.443 848.658 M476.142 868.125 Q481.166 867.662 483.804 865.324 Q486.443 862.963 486.443 858.403 Q486.443 853.843 483.804 851.482 Q481.166 849.121 476.142 848.658 L476.142 868.125 M471.443 871.991 Q464.106 871.459 460.124 868.01 Q456.166 864.537 456.166 858.403 Q456.166 852.269 460.124 848.797 Q464.106 845.301 471.443 844.769 L471.443 841.551 L476.142 841.551 L476.142 844.769 Q483.48 845.301 487.416 848.774 Q491.374 852.223 491.374 858.403 Q491.374 864.537 487.416 868.01 Q483.48 871.459 476.142 871.991 L476.142 876.111 L471.443 876.111 L471.443 871.991 Z" fill="#000000" fill-rule="nonzero" fill-opacity="1" /><path clip-path="url(#clip290)" d="M510.425 863.079 Q505.263 863.079 503.272 864.26 Q501.281 865.44 501.281 868.287 Q501.281 870.556 502.763 871.898 Q504.267 873.218 506.837 873.218 Q510.378 873.218 512.508 870.718 Q514.661 868.195 514.661 864.028 L514.661 863.079 L510.425 863.079 M518.92 861.32 L518.92 876.111 L514.661 876.111 L514.661 872.176 Q513.202 874.537 511.027 875.672 Q508.851 876.783 505.703 876.783 Q501.721 876.783 499.36 874.56 Q497.022 872.315 497.022 868.565 Q497.022 864.19 499.939 861.968 Q502.878 859.746 508.689 859.746 L514.661 859.746 L514.661 859.329 Q514.661 856.389 512.716 854.792 Q510.795 853.172 507.3 853.172 Q505.078 853.172 502.971 853.704 Q500.865 854.236 498.92 855.301 L498.92 851.366 Q501.258 850.463 503.457 850.023 Q505.656 849.561 507.74 849.561 Q513.365 849.561 516.142 852.477 Q518.92 855.394 518.92 861.32 Z" fill="#000000" fill-rule="nonzero" fill-opacity="1" /><path clip-path="url(#clip290)" d="M527.531 850.186 L531.767 850.186 L531.767 862.361 L543.781 850.186 L549.012 850.186 L539.105 860.209 L550.286 876.111 L545.517 876.111 L536.327 863.033 L531.767 867.662 L531.767 876.111 L527.531 876.111 L527.531 850.186 Z" fill="#000000" fill-rule="nonzero" fill-opacity="1" /><path clip-path="url(#clip290)" d="M553.249 850.186 L578.086 850.186 L578.086 853.588 L567.762 853.588 L567.762 876.111 L563.573 876.111 L563.573 853.588 L553.249 853.588 L553.249 850.186 Z" fill="#000000" fill-rule="nonzero" fill-opacity="1" /><path clip-path="url(#clip290)" d="M610.887 862.13 Q613.757 862.685 615.355 864.375 Q616.952 866.065 616.952 868.565 Q616.952 872.57 613.966 874.676 Q610.98 876.783 605.471 876.783 Q603.619 876.783 601.651 876.459 Q599.707 876.134 597.623 875.486 L597.623 871.528 Q599.267 872.384 601.234 872.824 Q603.202 873.241 605.355 873.241 Q608.85 873.241 610.795 871.945 Q612.762 870.648 612.762 868.565 Q612.762 866.528 611.026 865.301 Q609.29 864.051 606.119 864.051 L602.693 864.051 L602.693 860.533 L606.281 860.533 Q608.966 860.533 610.517 859.514 Q612.091 858.473 612.091 856.852 Q612.091 855.371 610.47 854.306 Q608.873 853.241 606.119 853.241 Q604.475 853.241 602.6 853.542 Q600.748 853.843 598.503 854.514 L598.503 850.648 Q600.771 850.093 602.739 849.815 Q604.707 849.537 606.466 849.537 Q611.003 849.537 613.619 851.366 Q616.257 853.172 616.257 856.435 Q616.257 858.588 614.869 860.093 Q613.48 861.574 610.887 862.13 Z" fill="#000000" fill-rule="nonzero" fill-opacity="1" /><path clip-path="url(#clip290)" d="M636.003 863.079 Q630.841 863.079 628.85 864.26 Q626.859 865.44 626.859 868.287 Q626.859 870.556 628.341 871.898 Q629.845 873.218 632.415 873.218 Q635.956 873.218 638.086 870.718 Q640.239 868.195 640.239 864.028 L640.239 863.079 L636.003 863.079 M644.498 861.32 L644.498 876.111 L640.239 876.111 L640.239 872.176 Q638.781 874.537 636.605 875.672 Q634.429 876.783 631.281 876.783 Q627.299 876.783 624.938 874.56 Q622.6 872.315 622.6 868.565 Q622.6 864.19 625.517 861.968 Q628.456 859.746 634.267 859.746 L640.239 859.746 L640.239 859.329 Q640.239 856.389 638.294 854.792 Q636.373 853.172 632.878 853.172 Q630.656 853.172 628.549 853.704 Q626.443 854.236 624.498 855.301 L624.498 851.366 Q626.836 850.463 629.035 850.023 Q631.234 849.561 633.318 849.561 Q638.943 849.561 641.72 852.477 Q644.498 855.394 644.498 861.32 Z" fill="#000000" fill-rule="nonzero" fill-opacity="1" /><path clip-path="url(#clip290)" d="M663.549 849.561 Q669.104 849.561 672.276 853.172 Q675.447 856.783 675.447 863.172 Q675.447 869.537 672.276 873.172 Q669.104 876.783 663.549 876.783 Q657.97 876.783 654.892 873.264 Q651.813 869.746 651.651 863.172 L651.512 857.871 Q651.396 855.116 651.396 854.167 Q651.396 850.463 652.739 847.732 Q654.845 843.449 658.479 841.598 Q662.137 839.746 668.248 839.699 Q671.072 839.676 672.322 839.283 L673.503 842.662 Q672.368 843.125 671.327 843.149 L665.54 843.542 Q662.623 843.75 660.864 844.769 Q656.257 847.477 655.817 851.019 L655.655 852.315 Q658.665 849.561 663.549 849.561 M663.549 853.172 Q660.123 853.172 658.132 855.857 Q656.142 858.519 656.142 863.172 Q656.142 867.824 658.109 870.509 Q660.1 873.172 663.549 873.172 Q666.952 873.172 668.942 870.486 Q670.933 867.801 670.933 863.172 Q670.933 858.565 668.942 855.88 Q666.952 853.172 663.549 853.172 Z" fill="#000000" fill-rule="nonzero" fill-opacity="1" /><path clip-path="url(#clip290)" d="M683.109 870.232 L687.993 870.232 L687.993 876.111 L683.109 876.111 L683.109 870.232 Z" fill="#000000" fill-rule="nonzero" fill-opacity="1" /><circle clip-path="url(#clip290)" cx="360.136" cy="910.671" r="20.48" fill="#ac8d18" fill-rule="evenodd" fill-opacity="1" stroke="#000000" stroke-opacity="1" stroke-width="3.41333"/>
<path clip-path="url(#clip290)" d="M472.184 896.563 Q467.092 896.563 464.082 900.359 Q461.096 904.155 461.096 910.706 Q461.096 917.234 464.082 921.03 Q467.092 924.826 472.184 924.826 Q477.277 924.826 480.24 921.03 Q483.226 917.234 483.226 910.706 Q483.226 904.155 480.24 900.359 Q477.277 896.563 472.184 896.563 M472.184 892.766 Q479.453 892.766 483.804 897.651 Q488.156 902.512 488.156 910.706 Q488.156 918.877 483.804 923.762 Q479.453 928.623 472.184 928.623 Q464.893 928.623 460.518 923.762 Q456.166 918.9 456.166 910.706 Q456.166 902.512 460.518 897.651 Q464.893 892.766 472.184 892.766 Z" fill="#000000" fill-rule="nonzero" fill-opacity="1" /><path clip-path="url(#clip290)" d="M505.564 901.401 Q511.119 901.401 514.29 905.012 Q517.462 908.623 517.462 915.012 Q517.462 921.377 514.29 925.012 Q511.119 928.623 505.564 928.623 Q499.985 928.623 496.906 925.104 Q493.828 921.586 493.666 915.012 L493.527 909.711 Q493.411 906.956 493.411 906.007 Q493.411 902.303 494.754 899.572 Q496.86 895.289 500.494 893.438 Q504.152 891.586 510.263 891.539 Q513.087 891.516 514.337 891.123 L515.517 894.502 Q514.383 894.965 513.341 894.989 L507.554 895.382 Q504.638 895.59 502.878 896.609 Q498.272 899.317 497.832 902.859 L497.67 904.155 Q500.679 901.401 505.564 901.401 M505.564 905.012 Q502.138 905.012 500.147 907.697 Q498.156 910.359 498.156 915.012 Q498.156 919.664 500.124 922.349 Q502.115 925.012 505.564 925.012 Q508.966 925.012 510.957 922.326 Q512.948 919.641 512.948 915.012 Q512.948 910.405 510.957 907.72 Q508.966 905.012 505.564 905.012 Z" fill="#000000" fill-rule="nonzero" fill-opacity="1" /><path clip-path="url(#clip290)" d="M535.309 930.359 Q533.503 934.988 531.79 936.4 Q530.077 937.812 527.207 937.812 L523.804 937.812 L523.804 934.248 L526.304 934.248 Q528.064 934.248 529.036 933.414 Q530.008 932.581 531.188 929.479 L531.952 927.535 L521.466 902.026 L525.98 902.026 L534.082 922.303 L542.184 902.026 L546.698 902.026 L535.309 930.359 Z" fill="#000000" fill-rule="nonzero" fill-opacity="1" /><path clip-path="url(#clip290)" d="M567.554 927.951 L567.554 917.049 L559.614 917.049 Q556.073 917.049 553.712 914.85 Q551.582 912.859 551.582 908.6 L551.582 902.026 L555.841 902.026 L555.841 908.206 Q555.841 910.914 557.045 912.28 Q558.272 913.646 560.679 913.646 L567.554 913.646 L567.554 902.026 L571.813 902.026 L571.813 927.951 L567.554 927.951 Z" fill="#000000" fill-rule="nonzero" fill-opacity="1" /><path clip-path="url(#clip290)" d="M581.188 922.072 L586.072 922.072 L586.072 927.951 L581.188 927.951 L581.188 922.072 Z" fill="#000000" fill-rule="nonzero" fill-opacity="1" /><path clip-path="url(#clip290)" d="M614.822 916.007 L614.822 924.549 L620.887 924.549 Q623.804 924.549 625.332 923.461 Q626.859 922.349 626.859 920.266 Q626.859 918.183 625.332 917.095 Q623.804 916.007 620.887 916.007 L614.822 916.007 M614.822 905.428 L614.822 912.604 L620.424 912.604 Q622.832 912.604 624.359 911.655 Q625.887 910.683 625.887 908.97 Q625.887 907.257 624.359 906.354 Q622.832 905.428 620.424 905.428 L614.822 905.428 M610.563 902.026 L620.702 902.026 Q625.262 902.026 627.716 903.692 Q630.169 905.359 630.169 908.438 Q630.169 910.822 628.919 912.234 Q627.669 913.623 625.216 913.97 Q628.156 914.525 629.776 916.285 Q631.396 918.044 631.396 920.683 Q631.396 924.155 628.711 926.053 Q626.049 927.951 621.095 927.951 L610.563 927.951 L610.563 902.026 Z" fill="#000000" fill-rule="nonzero" fill-opacity="1" /><path clip-path="url(#clip290)" d="M663.155 902.026 L667.415 902.026 L667.415 927.951 L663.155 927.951 L663.155 902.026 M665.285 901.401 L665.285 901.401 M654.799 920.266 Q654.799 918.183 653.271 917.095 Q651.767 916.007 648.85 916.007 L642.785 916.007 L642.785 924.549 L648.85 924.549 Q651.767 924.549 653.271 923.461 Q654.799 922.349 654.799 920.266 M638.503 902.026 L642.785 902.026 L642.785 912.604 L649.035 912.604 Q653.989 912.604 656.651 914.502 Q659.336 916.377 659.336 920.266 Q659.336 924.155 656.651 926.053 Q653.989 927.951 649.035 927.951 L638.503 927.951 L638.503 902.026 Z" fill="#000000" fill-rule="nonzero" fill-opacity="1" /><path clip-path="url(#clip290)" d="M686.373 901.401 Q691.928 901.401 695.1 905.012 Q698.271 908.623 698.271 915.012 Q698.271 921.377 695.1 925.012 Q691.928 928.623 686.373 928.623 Q680.794 928.623 677.715 925.104 Q674.637 921.586 674.475 915.012 L674.336 909.711 Q674.22 906.956 674.22 906.007 Q674.22 902.303 675.563 899.572 Q677.669 895.289 681.303 893.438 Q684.961 891.586 691.072 891.539 Q693.896 891.516 695.146 891.123 L696.326 894.502 Q695.192 894.965 694.151 894.989 L688.364 895.382 Q685.447 895.59 683.688 896.609 Q679.081 899.317 678.641 902.859 L678.479 904.155 Q681.489 901.401 686.373 901.401 M686.373 905.012 Q682.947 905.012 680.956 907.697 Q678.965 910.359 678.965 915.012 Q678.965 919.664 680.933 922.349 Q682.924 925.012 686.373 925.012 Q689.776 925.012 691.766 922.326 Q693.757 919.641 693.757 915.012 Q693.757 910.405 691.766 907.72 Q689.776 905.012 686.373 905.012 Z" fill="#000000" fill-rule="nonzero" fill-opacity="1" /><path clip-path="url(#clip290)" d="M705.933 922.072 L710.817 922.072 L710.817 927.951 L705.933 927.951 L705.933 922.072 Z" fill="#000000" fill-rule="nonzero" fill-opacity="1" /><path clip-path="url(#clip290)" d="M747.345 913.97 Q750.215 914.525 751.812 916.215 Q753.41 917.905 753.41 920.405 Q753.41 924.41 750.423 926.516 Q747.437 928.623 741.928 928.623 Q740.076 928.623 738.109 928.299 Q736.164 927.974 734.081 927.326 L734.081 923.368 Q735.724 924.224 737.692 924.664 Q739.66 925.081 741.812 925.081 Q745.308 925.081 747.252 923.785 Q749.22 922.488 749.22 920.405 Q749.22 918.368 747.484 917.141 Q745.748 915.891 742.576 915.891 L739.15 915.891 L739.15 912.373 L742.738 912.373 Q745.423 912.373 746.974 911.354 Q748.548 910.313 748.548 908.692 Q748.548 907.211 746.928 906.146 Q745.331 905.081 742.576 905.081 Q740.933 905.081 739.058 905.382 Q737.206 905.683 734.961 906.354 L734.961 902.488 Q737.229 901.933 739.197 901.655 Q741.164 901.377 742.923 901.377 Q747.46 901.377 750.076 903.206 Q752.715 905.012 752.715 908.275 Q752.715 910.428 751.326 911.933 Q749.937 913.414 747.345 913.97 Z" fill="#000000" fill-rule="nonzero" fill-opacity="1" /><path clip-path="url(#clip290)" d="M772.46 914.919 Q767.298 914.919 765.308 916.1 Q763.317 917.28 763.317 920.127 Q763.317 922.396 764.798 923.738 Q766.303 925.058 768.872 925.058 Q772.414 925.058 774.544 922.558 Q776.696 920.035 776.696 915.868 L776.696 914.919 L772.46 914.919 M780.956 913.16 L780.956 927.951 L776.696 927.951 L776.696 924.016 Q775.238 926.377 773.062 927.512 Q770.886 928.623 767.738 928.623 Q763.757 928.623 761.396 926.4 Q759.058 924.155 759.058 920.405 Q759.058 916.03 761.974 913.808 Q764.914 911.586 770.724 911.586 L776.696 911.586 L776.696 911.169 Q776.696 908.229 774.752 906.632 Q772.831 905.012 769.335 905.012 Q767.113 905.012 765.007 905.544 Q762.9 906.076 760.956 907.141 L760.956 903.206 Q763.294 902.303 765.493 901.863 Q767.692 901.401 769.775 901.401 Q775.4 901.401 778.178 904.317 Q780.956 907.234 780.956 913.16 Z" fill="#000000" fill-rule="nonzero" fill-opacity="1" /><path clip-path="url(#clip290)" d="M800.006 901.401 Q805.562 901.401 808.733 905.012 Q811.905 908.623 811.905 915.012 Q811.905 921.377 808.733 925.012 Q805.562 928.623 800.006 928.623 Q794.428 928.623 791.349 925.104 Q788.27 921.586 788.108 915.012 L787.97 909.711 Q787.854 906.956 787.854 906.007 Q787.854 902.303 789.196 899.572 Q791.303 895.289 794.937 893.438 Q798.594 891.586 804.706 891.539 Q807.53 891.516 808.78 891.123 L809.96 894.502 Q808.826 894.965 807.784 894.989 L801.997 895.382 Q799.081 895.59 797.321 896.609 Q792.715 899.317 792.275 902.859 L792.113 904.155 Q795.122 901.401 800.006 901.401 M800.006 905.012 Q796.581 905.012 794.59 907.697 Q792.599 910.359 792.599 915.012 Q792.599 919.664 794.567 922.349 Q796.557 925.012 800.006 925.012 Q803.409 925.012 805.4 922.326 Q807.391 919.641 807.391 915.012 Q807.391 910.405 805.4 907.72 Q803.409 905.012 800.006 905.012 Z" fill="#000000" fill-rule="nonzero" fill-opacity="1" /><path clip-path="url(#clip290)" d="M819.567 922.072 L824.451 922.072 L824.451 927.951 L819.567 927.951 L819.567 922.072 Z" fill="#000000" fill-rule="nonzero" fill-opacity="1" /><polyline clip-path="url(#clip290)" style="stroke:#808080; stroke-linecap:round; stroke-linejoin:round; stroke-width:8; stroke-opacity:1; fill:none" points="288.113,962.511 432.158,962.511 "/>
<path clip-path="url(#clip290)" d="M460.842 963.287 L460.842 975.949 L468.342 975.949 Q472.115 975.949 473.92 974.398 Q475.749 972.824 475.749 969.606 Q475.749 966.365 473.92 964.838 Q472.115 963.287 468.342 963.287 L460.842 963.287 M460.842 949.074 L460.842 959.491 L467.763 959.491 Q471.189 959.491 472.855 958.217 Q474.545 956.921 474.545 954.282 Q474.545 951.666 472.855 950.37 Q471.189 949.074 467.763 949.074 L460.842 949.074 M456.166 945.231 L468.11 945.231 Q473.457 945.231 476.351 947.454 Q479.244 949.676 479.244 953.773 Q479.244 956.944 477.763 958.819 Q476.281 960.694 473.411 961.157 Q476.86 961.898 478.758 964.259 Q480.68 966.597 480.68 970.115 Q480.68 974.745 477.531 977.268 Q474.383 979.791 468.573 979.791 L456.166 979.791 L456.166 945.231 Z" fill="#000000" fill-rule="nonzero" fill-opacity="1" /><path clip-path="url(#clip290)" d="M498.55 956.852 Q495.124 956.852 493.133 959.537 Q491.142 962.199 491.142 966.852 Q491.142 971.504 493.11 974.189 Q495.101 976.852 498.55 976.852 Q501.953 976.852 503.943 974.166 Q505.934 971.481 505.934 966.852 Q505.934 962.245 503.943 959.56 Q501.953 956.852 498.55 956.852 M498.55 953.241 Q504.105 953.241 507.277 956.852 Q510.448 960.463 510.448 966.852 Q510.448 973.217 507.277 976.852 Q504.105 980.463 498.55 980.463 Q492.971 980.463 489.8 976.852 Q486.652 973.217 486.652 966.852 Q486.652 960.463 489.8 956.852 Q492.971 953.241 498.55 953.241 Z" fill="#000000" fill-rule="nonzero" fill-opacity="1" /><path clip-path="url(#clip290)" d="M536.165 954.861 L536.165 958.842 Q534.36 957.847 532.531 957.361 Q530.726 956.852 528.874 956.852 Q524.73 956.852 522.439 959.491 Q520.147 962.106 520.147 966.852 Q520.147 971.597 522.439 974.236 Q524.73 976.852 528.874 976.852 Q530.726 976.852 532.531 976.365 Q534.36 975.856 536.165 974.861 L536.165 978.796 Q534.383 979.629 532.462 980.046 Q530.563 980.463 528.411 980.463 Q522.554 980.463 519.105 976.782 Q515.656 973.102 515.656 966.852 Q515.656 960.509 519.128 956.875 Q522.624 953.241 528.689 953.241 Q530.656 953.241 532.531 953.657 Q534.406 954.051 536.165 954.861 Z" fill="#000000" fill-rule="nonzero" fill-opacity="1" /><path clip-path="url(#clip290)" d="M540.494 953.866 L565.332 953.866 L565.332 957.268 L555.008 957.268 L555.008 979.791 L550.818 979.791 L550.818 957.268 L540.494 957.268 L540.494 953.866 Z" fill="#000000" fill-rule="nonzero" fill-opacity="1" /><path clip-path="url(#clip290)" d="M571.79 973.912 L576.674 973.912 L576.674 979.791 L571.79 979.791 L571.79 973.912 Z" fill="#000000" fill-rule="nonzero" fill-opacity="1" /><path clip-path="url(#clip290)" d="M613.202 965.81 Q616.072 966.365 617.67 968.055 Q619.267 969.745 619.267 972.245 Q619.267 976.25 616.281 978.356 Q613.295 980.463 607.785 980.463 Q605.933 980.463 603.966 980.139 Q602.021 979.814 599.938 979.166 L599.938 975.208 Q601.582 976.064 603.549 976.504 Q605.517 976.921 607.67 976.921 Q611.165 976.921 613.109 975.625 Q615.077 974.328 615.077 972.245 Q615.077 970.208 613.341 968.981 Q611.605 967.731 608.433 967.731 L605.008 967.731 L605.008 964.213 L608.595 964.213 Q611.281 964.213 612.832 963.194 Q614.406 962.153 614.406 960.532 Q614.406 959.051 612.785 957.986 Q611.188 956.921 608.433 956.921 Q606.79 956.921 604.915 957.222 Q603.063 957.523 600.818 958.194 L600.818 954.328 Q603.086 953.773 605.054 953.495 Q607.021 953.217 608.781 953.217 Q613.318 953.217 615.933 955.046 Q618.572 956.852 618.572 960.115 Q618.572 962.268 617.183 963.773 Q615.795 965.254 613.202 965.81 Z" fill="#000000" fill-rule="nonzero" fill-opacity="1" /><path clip-path="url(#clip290)" d="M638.318 966.759 Q633.156 966.759 631.165 967.94 Q629.174 969.12 629.174 971.967 Q629.174 974.236 630.656 975.578 Q632.16 976.898 634.73 976.898 Q638.271 976.898 640.401 974.398 Q642.554 971.875 642.554 967.708 L642.554 966.759 L638.318 966.759 M646.813 965 L646.813 979.791 L642.554 979.791 L642.554 975.856 Q641.095 978.217 638.919 979.352 Q636.743 980.463 633.595 980.463 Q629.614 980.463 627.253 978.24 Q624.915 975.995 624.915 972.245 Q624.915 967.87 627.831 965.648 Q630.771 963.426 636.581 963.426 L642.554 963.426 L642.554 963.009 Q642.554 960.069 640.609 958.472 Q638.688 956.852 635.193 956.852 Q632.97 956.852 630.864 957.384 Q628.757 957.916 626.813 958.981 L626.813 955.046 Q629.151 954.143 631.35 953.703 Q633.549 953.241 635.632 953.241 Q641.257 953.241 644.035 956.157 Q646.813 959.074 646.813 965 Z" fill="#000000" fill-rule="nonzero" fill-opacity="1" /><path clip-path="url(#clip290)" d="M665.864 953.241 Q671.419 953.241 674.591 956.852 Q677.762 960.463 677.762 966.852 Q677.762 973.217 674.591 976.852 Q671.419 980.463 665.864 980.463 Q660.285 980.463 657.206 976.944 Q654.128 973.426 653.966 966.852 L653.827 961.551 Q653.711 958.796 653.711 957.847 Q653.711 954.143 655.054 951.412 Q657.16 947.129 660.794 945.278 Q664.452 943.426 670.563 943.379 Q673.387 943.356 674.637 942.963 L675.817 946.342 Q674.683 946.805 673.641 946.829 L667.854 947.222 Q664.938 947.43 663.179 948.449 Q658.572 951.157 658.132 954.699 L657.97 955.995 Q660.979 953.241 665.864 953.241 M665.864 956.852 Q662.438 956.852 660.447 959.537 Q658.456 962.199 658.456 966.852 Q658.456 971.504 660.424 974.189 Q662.415 976.852 665.864 976.852 Q669.266 976.852 671.257 974.166 Q673.248 971.481 673.248 966.852 Q673.248 962.245 671.257 959.56 Q669.266 956.852 665.864 956.852 Z" fill="#000000" fill-rule="nonzero" fill-opacity="1" /><path clip-path="url(#clip290)" d="M685.424 973.912 L690.308 973.912 L690.308 979.791 L685.424 979.791 L685.424 973.912 Z" fill="#000000" fill-rule="nonzero" fill-opacity="1" /></svg>
