<?xml version="1.0" encoding="utf-8"?>
<svg xmlns="http://www.w3.org/2000/svg" xmlns:xlink="http://www.w3.org/1999/xlink" width="400" height="600" viewBox="0 0 1600 2400">
<defs>
  <clipPath id="clip490">
    <rect x="0" y="0" width="1600" height="2400"/>
  </clipPath>
</defs>
<path clip-path="url(#clip490)" d="M0 2400 L1600 2400 L1600 0 L0 0  Z" fill="#ffffff" fill-rule="evenodd" fill-opacity="1"/>
<defs>
  <clipPath id="clip491">
    <rect x="480" y="240" width="1600" height="1681"/>
  </clipPath>
</defs>
<path clip-path="url(#clip490)" d="M202.594 2174.14 L1552.76 2174.14 L1552.76 47.2441 L202.594 47.2441  Z" fill="#ffffff" fill-rule="evenodd" fill-opacity="1"/>
<defs>
  <clipPath id="clip492">
    <rect x="202" y="47" width="1351" height="2128"/>
  </clipPath>
</defs>
<polyline clip-path="url(#clip492)" style="stroke:#000000; stroke-linecap:round; stroke-linejoin:round; stroke-width:2; stroke-opacity:0.1; fill:none" points="202.594,2174.14 202.594,47.2441 "/>
<polyline clip-path="url(#clip492)" style="stroke:#000000; stroke-linecap:round; stroke-linejoin:round; stroke-width:2; stroke-opacity:0.1; fill:none" points="472.626,2174.14 472.626,47.2441 "/>
<polyline clip-path="url(#clip492)" style="stroke:#000000; stroke-linecap:round; stroke-linejoin:round; stroke-width:2; stroke-opacity:0.1; fill:none" points="742.659,2174.14 742.659,47.2441 "/>
<polyline clip-path="url(#clip492)" style="stroke:#000000; stroke-linecap:round; stroke-linejoin:round; stroke-width:2; stroke-opacity:0.1; fill:none" points="1012.69,2174.14 1012.69,47.2441 "/>
<polyline clip-path="url(#clip492)" style="stroke:#000000; stroke-linecap:round; stroke-linejoin:round; stroke-width:2; stroke-opacity:0.1; fill:none" points="1282.72,2174.14 1282.72,47.2441 "/>
<polyline clip-path="url(#clip492)" style="stroke:#000000; stroke-linecap:round; stroke-linejoin:round; stroke-width:2; stroke-opacity:0.1; fill:none" points="1552.76,2174.14 1552.76,47.2441 "/>
<polyline clip-path="url(#clip490)" style="stroke:#000000; stroke-linecap:round; stroke-linejoin:round; stroke-width:4; stroke-opacity:1; fill:none" points="202.594,2174.14 1552.76,2174.14 "/>
<polyline clip-path="url(#clip490)" style="stroke:#000000; stroke-linecap:round; stroke-linejoin:round; stroke-width:4; stroke-opacity:1; fill:none" points="202.594,2174.14 202.594,2155.24 "/>
<polyline clip-path="url(#clip490)" style="stroke:#000000; stroke-linecap:round; stroke-linejoin:round; stroke-width:4; stroke-opacity:1; fill:none" points="472.626,2174.14 472.626,2155.24 "/>
<polyline clip-path="url(#clip490)" style="stroke:#000000; stroke-linecap:round; stroke-linejoin:round; stroke-width:4; stroke-opacity:1; fill:none" points="742.659,2174.14 742.659,2155.24 "/>
<polyline clip-path="url(#clip490)" style="stroke:#000000; stroke-linecap:round; stroke-linejoin:round; stroke-width:4; stroke-opacity:1; fill:none" points="1012.69,2174.14 1012.69,2155.24 "/>
<polyline clip-path="url(#clip490)" style="stroke:#000000; stroke-linecap:round; stroke-linejoin:round; stroke-width:4; stroke-opacity:1; fill:none" points="1282.72,2174.14 1282.72,2155.24 "/>
<polyline clip-path="url(#clip490)" style="stroke:#000000; stroke-linecap:round; stroke-linejoin:round; stroke-width:4; stroke-opacity:1; fill:none" points="1552.76,2174.14 1552.76,2155.24 "/>
<path clip-path="url(#clip490)" d="M202.594 2205.06 Q198.983 2205.06 197.154 2208.62 Q195.349 2212.16 195.349 2219.29 Q195.349 2226.4 197.154 2229.97 Q198.983 2233.51 202.594 2233.51 Q206.228 2233.51 208.034 2229.97 Q209.863 2226.4 209.863 2219.29 Q209.863 2212.16 208.034 2208.62 Q206.228 2205.06 202.594 2205.06 M202.594 2201.35 Q208.404 2201.35 211.46 2205.96 Q214.538 2210.54 214.538 2219.29 Q214.538 2228.02 211.46 2232.63 Q208.404 2237.21 202.594 2237.21 Q196.784 2237.21 193.705 2232.63 Q190.65 2228.02 190.65 2219.29 Q190.65 2210.54 193.705 2205.96 Q196.784 2201.35 202.594 2201.35 Z" fill="#000000" fill-rule="nonzero" fill-opacity="1" /><path clip-path="url(#clip490)" d="M451.4 2232.6 L467.719 2232.6 L467.719 2236.54 L445.775 2236.54 L445.775 2232.6 Q448.437 2229.85 453.02 2225.22 Q457.626 2220.57 458.807 2219.23 Q461.052 2216.7 461.932 2214.97 Q462.835 2213.21 462.835 2211.52 Q462.835 2208.76 460.89 2207.03 Q458.969 2205.29 455.867 2205.29 Q453.668 2205.29 451.214 2206.05 Q448.784 2206.82 446.006 2208.37 L446.006 2203.65 Q448.83 2202.51 451.284 2201.93 Q453.738 2201.35 455.775 2201.35 Q461.145 2201.35 464.339 2204.04 Q467.534 2206.73 467.534 2211.22 Q467.534 2213.35 466.724 2215.27 Q465.937 2217.16 463.83 2219.76 Q463.251 2220.43 460.15 2223.65 Q457.048 2226.84 451.4 2232.6 Z" fill="#000000" fill-rule="nonzero" fill-opacity="1" /><path clip-path="url(#clip490)" d="M487.534 2205.06 Q483.923 2205.06 482.094 2208.62 Q480.288 2212.16 480.288 2219.29 Q480.288 2226.4 482.094 2229.97 Q483.923 2233.51 487.534 2233.51 Q491.168 2233.51 492.974 2229.97 Q494.802 2226.4 494.802 2219.29 Q494.802 2212.16 492.974 2208.62 Q491.168 2205.06 487.534 2205.06 M487.534 2201.35 Q493.344 2201.35 496.399 2205.96 Q499.478 2210.54 499.478 2219.29 Q499.478 2228.02 496.399 2232.63 Q493.344 2237.21 487.534 2237.21 Q481.724 2237.21 478.645 2232.63 Q475.589 2228.02 475.589 2219.29 Q475.589 2210.54 478.645 2205.96 Q481.724 2201.35 487.534 2201.35 Z" fill="#000000" fill-rule="nonzero" fill-opacity="1" /><path clip-path="url(#clip490)" d="M730.83 2206.05 L719.025 2224.5 L730.83 2224.5 L730.83 2206.05 M729.603 2201.98 L735.483 2201.98 L735.483 2224.5 L740.413 2224.5 L740.413 2228.39 L735.483 2228.39 L735.483 2236.54 L730.83 2236.54 L730.83 2228.39 L715.228 2228.39 L715.228 2223.88 L729.603 2201.98 Z" fill="#000000" fill-rule="nonzero" fill-opacity="1" /><path clip-path="url(#clip490)" d="M758.145 2205.06 Q754.534 2205.06 752.705 2208.62 Q750.899 2212.16 750.899 2219.29 Q750.899 2226.4 752.705 2229.97 Q754.534 2233.51 758.145 2233.51 Q761.779 2233.51 763.585 2229.97 Q765.413 2226.4 765.413 2219.29 Q765.413 2212.16 763.585 2208.62 Q761.779 2205.06 758.145 2205.06 M758.145 2201.35 Q763.955 2201.35 767.011 2205.96 Q770.089 2210.54 770.089 2219.29 Q770.089 2228.02 767.011 2232.63 Q763.955 2237.21 758.145 2237.21 Q752.335 2237.21 749.256 2232.63 Q746.2 2228.02 746.2 2219.29 Q746.2 2210.54 749.256 2205.96 Q752.335 2201.35 758.145 2201.35 Z" fill="#000000" fill-rule="nonzero" fill-opacity="1" /><path clip-path="url(#clip490)" d="M998.096 2217.4 Q994.948 2217.4 993.096 2219.55 Q991.268 2221.7 991.268 2225.45 Q991.268 2229.18 993.096 2231.35 Q994.948 2233.51 998.096 2233.51 Q1001.24 2233.51 1003.07 2231.35 Q1004.92 2229.18 1004.92 2225.45 Q1004.92 2221.7 1003.07 2219.55 Q1001.24 2217.4 998.096 2217.4 M1007.38 2202.74 L1007.38 2207 Q1005.62 2206.17 1003.81 2205.73 Q1002.03 2205.29 1000.27 2205.29 Q995.643 2205.29 993.189 2208.41 Q990.758 2211.54 990.411 2217.86 Q991.777 2215.85 993.837 2214.78 Q995.897 2213.69 998.374 2213.69 Q1003.58 2213.69 1006.59 2216.86 Q1009.62 2220.01 1009.62 2225.45 Q1009.62 2230.78 1006.48 2233.99 Q1003.33 2237.21 998.096 2237.21 Q992.101 2237.21 988.93 2232.63 Q985.758 2228.02 985.758 2219.29 Q985.758 2211.1 989.647 2206.24 Q993.536 2201.35 1000.09 2201.35 Q1001.85 2201.35 1003.63 2201.7 Q1005.43 2202.05 1007.38 2202.74 Z" fill="#000000" fill-rule="nonzero" fill-opacity="1" /><path clip-path="url(#clip490)" d="M1027.68 2205.06 Q1024.07 2205.06 1022.24 2208.62 Q1020.43 2212.16 1020.43 2219.29 Q1020.43 2226.4 1022.24 2229.97 Q1024.07 2233.51 1027.68 2233.51 Q1031.31 2233.51 1033.12 2229.97 Q1034.95 2226.4 1034.95 2219.29 Q1034.95 2212.16 1033.12 2208.62 Q1031.31 2205.06 1027.68 2205.06 M1027.68 2201.35 Q1033.49 2201.35 1036.55 2205.96 Q1039.62 2210.54 1039.62 2219.29 Q1039.62 2228.02 1036.55 2232.63 Q1033.49 2237.21 1027.68 2237.21 Q1021.87 2237.21 1018.79 2232.63 Q1015.74 2228.02 1015.74 2219.29 Q1015.74 2210.54 1018.79 2205.96 Q1021.87 2201.35 1027.68 2201.35 Z" fill="#000000" fill-rule="nonzero" fill-opacity="1" /><path clip-path="url(#clip490)" d="M1267.6 2220.13 Q1264.26 2220.13 1262.34 2221.91 Q1260.44 2223.69 1260.44 2226.82 Q1260.44 2229.94 1262.34 2231.73 Q1264.26 2233.51 1267.6 2233.51 Q1270.93 2233.51 1272.85 2231.73 Q1274.77 2229.92 1274.77 2226.82 Q1274.77 2223.69 1272.85 2221.91 Q1270.95 2220.13 1267.6 2220.13 M1262.92 2218.14 Q1259.91 2217.4 1258.22 2215.34 Q1256.55 2213.28 1256.55 2210.31 Q1256.55 2206.17 1259.49 2203.76 Q1262.46 2201.35 1267.6 2201.35 Q1272.76 2201.35 1275.7 2203.76 Q1278.64 2206.17 1278.64 2210.31 Q1278.64 2213.28 1276.95 2215.34 Q1275.28 2217.4 1272.3 2218.14 Q1275.67 2218.92 1277.55 2221.22 Q1279.45 2223.51 1279.45 2226.82 Q1279.45 2231.84 1276.37 2234.53 Q1273.31 2237.21 1267.6 2237.21 Q1261.88 2237.21 1258.8 2234.53 Q1255.74 2231.84 1255.74 2226.82 Q1255.74 2223.51 1257.64 2221.22 Q1259.54 2218.92 1262.92 2218.14 M1261.21 2210.75 Q1261.21 2213.44 1262.87 2214.94 Q1264.56 2216.45 1267.6 2216.45 Q1270.61 2216.45 1272.3 2214.94 Q1274.01 2213.44 1274.01 2210.75 Q1274.01 2208.07 1272.3 2206.56 Q1270.61 2205.06 1267.6 2205.06 Q1264.56 2205.06 1262.87 2206.56 Q1261.21 2208.07 1261.21 2210.75 Z" fill="#000000" fill-rule="nonzero" fill-opacity="1" /><path clip-path="url(#clip490)" d="M1297.76 2205.06 Q1294.15 2205.06 1292.32 2208.62 Q1290.51 2212.16 1290.51 2219.29 Q1290.51 2226.4 1292.32 2229.97 Q1294.15 2233.51 1297.76 2233.51 Q1301.39 2233.51 1303.2 2229.97 Q1305.03 2226.4 1305.03 2219.29 Q1305.03 2212.16 1303.2 2208.62 Q1301.39 2205.06 1297.76 2205.06 M1297.76 2201.35 Q1303.57 2201.35 1306.62 2205.96 Q1309.7 2210.54 1309.7 2219.29 Q1309.7 2228.02 1306.62 2232.63 Q1303.57 2237.21 1297.76 2237.21 Q1291.95 2237.21 1288.87 2232.63 Q1285.81 2228.02 1285.81 2219.29 Q1285.81 2210.54 1288.87 2205.96 Q1291.95 2201.35 1297.76 2201.35 Z" fill="#000000" fill-rule="nonzero" fill-opacity="1" /><path clip-path="url(#clip490)" d="M1512.36 2232.6 L1520 2232.6 L1520 2206.24 L1511.69 2207.91 L1511.69 2203.65 L1519.96 2201.98 L1524.63 2201.98 L1524.63 2232.6 L1532.27 2232.6 L1532.27 2236.54 L1512.36 2236.54 L1512.36 2232.6 Z" fill="#000000" fill-rule="nonzero" fill-opacity="1" /><path clip-path="url(#clip490)" d="M1551.71 2205.06 Q1548.1 2205.06 1546.27 2208.62 Q1544.47 2212.16 1544.47 2219.29 Q1544.47 2226.4 1546.27 2229.97 Q1548.1 2233.51 1551.71 2233.51 Q1555.35 2233.51 1557.15 2229.97 Q1558.98 2226.4 1558.98 2219.29 Q1558.98 2212.16 1557.15 2208.62 Q1555.35 2205.06 1551.71 2205.06 M1551.71 2201.35 Q1557.52 2201.35 1560.58 2205.96 Q1563.66 2210.54 1563.66 2219.29 Q1563.66 2228.02 1560.58 2232.63 Q1557.52 2237.21 1551.71 2237.21 Q1545.9 2237.21 1542.83 2232.63 Q1539.77 2228.02 1539.77 2219.29 Q1539.77 2210.54 1542.83 2205.96 Q1545.9 2201.35 1551.71 2201.35 Z" fill="#000000" fill-rule="nonzero" fill-opacity="1" /><path clip-path="url(#clip490)" d="M1581.88 2205.06 Q1578.27 2205.06 1576.44 2208.62 Q1574.63 2212.16 1574.63 2219.29 Q1574.63 2226.4 1576.44 2229.97 Q1578.27 2233.51 1581.88 2233.51 Q1585.51 2233.51 1587.32 2229.97 Q1589.14 2226.4 1589.14 2219.29 Q1589.14 2212.16 1587.32 2208.62 Q1585.51 2205.06 1581.88 2205.06 M1581.88 2201.35 Q1587.69 2201.35 1590.74 2205.96 Q1593.82 2210.54 1593.82 2219.29 Q1593.82 2228.02 1590.74 2232.63 Q1587.69 2237.21 1581.88 2237.21 Q1576.07 2237.21 1572.99 2232.63 Q1569.93 2228.02 1569.93 2219.29 Q1569.93 2210.54 1572.99 2205.96 Q1576.07 2201.35 1581.88 2201.35 Z" fill="#000000" fill-rule="nonzero" fill-opacity="1" /><path clip-path="url(#clip490)" d="M740.319 2271.48 L749.899 2271.48 L762.026 2303.82 L774.216 2271.48 L783.797 2271.48 L783.797 2319 L777.526 2319 L777.526 2277.28 L765.273 2309.87 L758.811 2309.87 L746.557 2277.28 L746.557 2319 L740.319 2319 L740.319 2271.48 Z" fill="#000000" fill-rule="nonzero" fill-opacity="1" /><path clip-path="url(#clip490)" d="M812.442 2277.82 L803.721 2301.47 L821.195 2301.47 L812.442 2277.82 M808.814 2271.48 L816.103 2271.48 L834.213 2319 L827.529 2319 L823.2 2306.81 L801.78 2306.81 L797.451 2319 L790.672 2319 L808.814 2271.48 Z" fill="#000000" fill-rule="nonzero" fill-opacity="1" /><path clip-path="url(#clip490)" d="M847.581 2276.77 L847.581 2294.62 L855.666 2294.62 Q860.153 2294.62 862.604 2292.3 Q865.055 2289.98 865.055 2285.68 Q865.055 2281.41 862.604 2279.09 Q860.153 2276.77 855.666 2276.77 L847.581 2276.77 M841.152 2271.48 L855.666 2271.48 Q863.655 2271.48 867.729 2275.11 Q871.834 2278.71 871.834 2285.68 Q871.834 2292.71 867.729 2296.31 Q863.655 2299.91 855.666 2299.91 L847.581 2299.91 L847.581 2319 L841.152 2319 L841.152 2271.48 Z" fill="#000000" fill-rule="nonzero" fill-opacity="1" /><path clip-path="url(#clip490)" d="M880.46 2271.48 L910.506 2271.48 L910.506 2276.89 L886.889 2276.89 L886.889 2290.96 L909.519 2290.96 L909.519 2296.37 L886.889 2296.37 L886.889 2313.59 L911.079 2313.59 L911.079 2319 L880.46 2319 L880.46 2271.48 Z" fill="#000000" fill-rule="nonzero" fill-opacity="1" /><path clip-path="url(#clip490)" d="M922.887 2310.92 L929.603 2310.92 L929.603 2316.39 L924.383 2326.58 L920.277 2326.58 L922.887 2316.39 L922.887 2310.92 Z" fill="#000000" fill-rule="nonzero" fill-opacity="1" /><path clip-path="url(#clip490)" d="M1004.08 2298.09 Q1001.31 2298.09 999.721 2300.45 Q998.162 2302.8 998.162 2307 Q998.162 2311.14 999.721 2313.53 Q1001.31 2315.88 1004.08 2315.88 Q1006.79 2315.88 1008.35 2313.53 Q1009.94 2311.14 1009.94 2307 Q1009.94 2302.83 1008.35 2300.48 Q1006.79 2298.09 1004.08 2298.09 M1004.08 2294.05 Q1009.11 2294.05 1012.07 2297.55 Q1015.03 2301.05 1015.03 2307 Q1015.03 2312.96 1012.04 2316.46 Q1009.08 2319.93 1004.08 2319.93 Q998.989 2319.93 996.029 2316.46 Q993.069 2312.96 993.069 2307 Q993.069 2301.02 996.029 2297.55 Q999.021 2294.05 1004.08 2294.05 M971.235 2274.67 Q968.498 2274.67 966.906 2277.05 Q965.347 2279.41 965.347 2283.55 Q965.347 2287.75 966.906 2290.1 Q968.466 2292.46 971.235 2292.46 Q974.004 2292.46 975.564 2290.1 Q977.155 2287.75 977.155 2283.55 Q977.155 2279.44 975.564 2277.05 Q973.972 2274.67 971.235 2274.67 M999.976 2270.62 L1005.07 2270.62 L975.341 2319.93 L970.248 2319.93 L999.976 2270.62 M971.235 2270.62 Q976.264 2270.62 979.256 2274.13 Q982.248 2277.59 982.248 2283.55 Q982.248 2289.56 979.256 2293.03 Q976.296 2296.5 971.235 2296.5 Q966.174 2296.5 963.214 2293.03 Q960.286 2289.53 960.286 2283.55 Q960.286 2277.63 963.246 2274.13 Q966.206 2270.62 971.235 2270.62 Z" fill="#000000" fill-rule="nonzero" fill-opacity="1" /><polyline clip-path="url(#clip492)" style="stroke:#000000; stroke-linecap:round; stroke-linejoin:round; stroke-width:2; stroke-opacity:0.1; fill:none" points="202.594,1892.64 1552.76,1892.64 "/>
<polyline clip-path="url(#clip492)" style="stroke:#000000; stroke-linecap:round; stroke-linejoin:round; stroke-width:2; stroke-opacity:0.1; fill:none" points="202.594,1579.86 1552.76,1579.86 "/>
<polyline clip-path="url(#clip492)" style="stroke:#000000; stroke-linecap:round; stroke-linejoin:round; stroke-width:2; stroke-opacity:0.1; fill:none" points="202.594,1267.08 1552.76,1267.08 "/>
<polyline clip-path="url(#clip492)" style="stroke:#000000; stroke-linecap:round; stroke-linejoin:round; stroke-width:2; stroke-opacity:0.1; fill:none" points="202.594,954.303 1552.76,954.303 "/>
<polyline clip-path="url(#clip492)" style="stroke:#000000; stroke-linecap:round; stroke-linejoin:round; stroke-width:2; stroke-opacity:0.1; fill:none" points="202.594,641.524 1552.76,641.524 "/>
<polyline clip-path="url(#clip492)" style="stroke:#000000; stroke-linecap:round; stroke-linejoin:round; stroke-width:2; stroke-opacity:0.1; fill:none" points="202.594,328.745 1552.76,328.745 "/>
<polyline clip-path="url(#clip490)" style="stroke:#000000; stroke-linecap:round; stroke-linejoin:round; stroke-width:4; stroke-opacity:1; fill:none" points="202.594,2174.14 202.594,47.2441 "/>
<polyline clip-path="url(#clip490)" style="stroke:#000000; stroke-linecap:round; stroke-linejoin:round; stroke-width:4; stroke-opacity:1; fill:none" points="202.594,1892.64 221.492,1892.64 "/>
<polyline clip-path="url(#clip490)" style="stroke:#000000; stroke-linecap:round; stroke-linejoin:round; stroke-width:4; stroke-opacity:1; fill:none" points="202.594,1579.86 221.492,1579.86 "/>
<polyline clip-path="url(#clip490)" style="stroke:#000000; stroke-linecap:round; stroke-linejoin:round; stroke-width:4; stroke-opacity:1; fill:none" points="202.594,1267.08 221.492,1267.08 "/>
<polyline clip-path="url(#clip490)" style="stroke:#000000; stroke-linecap:round; stroke-linejoin:round; stroke-width:4; stroke-opacity:1; fill:none" points="202.594,954.303 221.492,954.303 "/>
<polyline clip-path="url(#clip490)" style="stroke:#000000; stroke-linecap:round; stroke-linejoin:round; stroke-width:4; stroke-opacity:1; fill:none" points="202.594,641.524 221.492,641.524 "/>
<polyline clip-path="url(#clip490)" style="stroke:#000000; stroke-linecap:round; stroke-linejoin:round; stroke-width:4; stroke-opacity:1; fill:none" points="202.594,328.745 221.492,328.745 "/>
<path clip-path="url(#clip490)" d="M115.298 1905.98 L122.937 1905.98 L122.937 1879.62 L114.627 1881.28 L114.627 1877.03 L122.891 1875.36 L127.566 1875.36 L127.566 1905.98 L135.205 1905.98 L135.205 1909.92 L115.298 1909.92 L115.298 1905.98 Z" fill="#000000" fill-rule="nonzero" fill-opacity="1" /><path clip-path="url(#clip490)" d="M154.65 1878.44 Q151.039 1878.44 149.21 1882 Q147.404 1885.54 147.404 1892.67 Q147.404 1899.78 149.21 1903.34 Q151.039 1906.89 154.65 1906.89 Q158.284 1906.89 160.089 1903.34 Q161.918 1899.78 161.918 1892.67 Q161.918 1885.54 160.089 1882 Q158.284 1878.44 154.65 1878.44 M154.65 1874.73 Q160.46 1874.73 163.515 1879.34 Q166.594 1883.92 166.594 1892.67 Q166.594 1901.4 163.515 1906.01 Q160.46 1910.59 154.65 1910.59 Q148.84 1910.59 145.761 1906.01 Q142.705 1901.4 142.705 1892.67 Q142.705 1883.92 145.761 1879.34 Q148.84 1874.73 154.65 1874.73 Z" fill="#000000" fill-rule="nonzero" fill-opacity="1" /><path clip-path="url(#clip490)" d="M118.516 1593.2 L134.835 1593.2 L134.835 1597.14 L112.891 1597.14 L112.891 1593.2 Q115.553 1590.45 120.136 1585.82 Q124.742 1581.17 125.923 1579.83 Q128.168 1577.3 129.048 1575.57 Q129.951 1573.81 129.951 1572.12 Q129.951 1569.36 128.006 1567.63 Q126.085 1565.89 122.983 1565.89 Q120.784 1565.89 118.33 1566.65 Q115.9 1567.42 113.122 1568.97 L113.122 1564.25 Q115.946 1563.11 118.4 1562.53 Q120.854 1561.96 122.891 1561.96 Q128.261 1561.96 131.455 1564.64 Q134.65 1567.33 134.65 1571.82 Q134.65 1573.95 133.84 1575.87 Q133.053 1577.77 130.946 1580.36 Q130.367 1581.03 127.266 1584.25 Q124.164 1587.44 118.516 1593.2 Z" fill="#000000" fill-rule="nonzero" fill-opacity="1" /><path clip-path="url(#clip490)" d="M154.65 1565.66 Q151.039 1565.66 149.21 1569.22 Q147.404 1572.77 147.404 1579.89 Q147.404 1587 149.21 1590.57 Q151.039 1594.11 154.65 1594.11 Q158.284 1594.11 160.089 1590.57 Q161.918 1587 161.918 1579.89 Q161.918 1572.77 160.089 1569.22 Q158.284 1565.66 154.65 1565.66 M154.65 1561.96 Q160.46 1561.96 163.515 1566.56 Q166.594 1571.14 166.594 1579.89 Q166.594 1588.62 163.515 1593.23 Q160.46 1597.81 154.65 1597.81 Q148.84 1597.81 145.761 1593.23 Q142.705 1588.62 142.705 1579.89 Q142.705 1571.14 145.761 1566.56 Q148.84 1561.96 154.65 1561.96 Z" fill="#000000" fill-rule="nonzero" fill-opacity="1" /><path clip-path="url(#clip490)" d="M128.654 1265.73 Q132.011 1266.44 133.886 1268.71 Q135.784 1270.98 135.784 1274.32 Q135.784 1279.43 132.266 1282.23 Q128.747 1285.03 122.266 1285.03 Q120.09 1285.03 117.775 1284.59 Q115.483 1284.18 113.03 1283.32 L113.03 1278.81 Q114.974 1279.94 117.289 1280.52 Q119.604 1281.1 122.127 1281.1 Q126.525 1281.1 128.816 1279.36 Q131.131 1277.63 131.131 1274.32 Q131.131 1271.26 128.978 1269.55 Q126.849 1267.81 123.029 1267.81 L119.002 1267.81 L119.002 1263.97 L123.215 1263.97 Q126.664 1263.97 128.492 1262.6 Q130.321 1261.21 130.321 1258.62 Q130.321 1255.96 128.423 1254.55 Q126.548 1253.11 123.029 1253.11 Q121.108 1253.11 118.909 1253.53 Q116.71 1253.94 114.071 1254.82 L114.071 1250.66 Q116.733 1249.92 119.048 1249.55 Q121.386 1249.18 123.446 1249.18 Q128.77 1249.18 131.872 1251.61 Q134.974 1254.01 134.974 1258.13 Q134.974 1261.01 133.33 1263 Q131.687 1264.96 128.654 1265.73 Z" fill="#000000" fill-rule="nonzero" fill-opacity="1" /><path clip-path="url(#clip490)" d="M154.65 1252.88 Q151.039 1252.88 149.21 1256.44 Q147.404 1259.99 147.404 1267.12 Q147.404 1274.22 149.21 1277.79 Q151.039 1281.33 154.65 1281.33 Q158.284 1281.33 160.089 1277.79 Q161.918 1274.22 161.918 1267.12 Q161.918 1259.99 160.089 1256.44 Q158.284 1252.88 154.65 1252.88 M154.65 1249.18 Q160.46 1249.18 163.515 1253.78 Q166.594 1258.37 166.594 1267.12 Q166.594 1275.84 163.515 1280.45 Q160.46 1285.03 154.65 1285.03 Q148.84 1285.03 145.761 1280.45 Q142.705 1275.84 142.705 1267.12 Q142.705 1258.37 145.761 1253.78 Q148.84 1249.18 154.65 1249.18 Z" fill="#000000" fill-rule="nonzero" fill-opacity="1" /><path clip-path="url(#clip490)" d="M127.335 941.097 L115.529 959.546 L127.335 959.546 L127.335 941.097 M126.108 937.023 L131.988 937.023 L131.988 959.546 L136.918 959.546 L136.918 963.434 L131.988 963.434 L131.988 971.583 L127.335 971.583 L127.335 963.434 L111.733 963.434 L111.733 958.921 L126.108 937.023 Z" fill="#000000" fill-rule="nonzero" fill-opacity="1" /><path clip-path="url(#clip490)" d="M154.65 940.101 Q151.039 940.101 149.21 943.666 Q147.404 947.208 147.404 954.337 Q147.404 961.444 149.21 965.009 Q151.039 968.55 154.65 968.55 Q158.284 968.55 160.089 965.009 Q161.918 961.444 161.918 954.337 Q161.918 947.208 160.089 943.666 Q158.284 940.101 154.65 940.101 M154.65 936.398 Q160.46 936.398 163.515 941.004 Q166.594 945.587 166.594 954.337 Q166.594 963.064 163.515 967.671 Q160.46 972.254 154.65 972.254 Q148.84 972.254 145.761 967.671 Q142.705 963.064 142.705 954.337 Q142.705 945.587 145.761 941.004 Q148.84 936.398 154.65 936.398 Z" fill="#000000" fill-rule="nonzero" fill-opacity="1" /><path clip-path="url(#clip490)" d="M114.534 624.244 L132.891 624.244 L132.891 628.179 L118.817 628.179 L118.817 636.651 Q119.835 636.304 120.854 636.142 Q121.872 635.957 122.891 635.957 Q128.678 635.957 132.057 639.128 Q135.437 642.299 135.437 647.716 Q135.437 653.295 131.965 656.396 Q128.492 659.475 122.173 659.475 Q119.997 659.475 117.729 659.105 Q115.483 658.734 113.076 657.994 L113.076 653.295 Q115.159 654.429 117.381 654.984 Q119.604 655.54 122.08 655.54 Q126.085 655.54 128.423 653.433 Q130.761 651.327 130.761 647.716 Q130.761 644.105 128.423 641.998 Q126.085 639.892 122.08 639.892 Q120.205 639.892 118.33 640.309 Q116.479 640.725 114.534 641.605 L114.534 624.244 Z" fill="#000000" fill-rule="nonzero" fill-opacity="1" /><path clip-path="url(#clip490)" d="M154.65 627.322 Q151.039 627.322 149.21 630.887 Q147.404 634.429 147.404 641.559 Q147.404 648.665 149.21 652.23 Q151.039 655.771 154.65 655.771 Q158.284 655.771 160.089 652.23 Q161.918 648.665 161.918 641.559 Q161.918 634.429 160.089 630.887 Q158.284 627.322 154.65 627.322 M154.65 623.619 Q160.46 623.619 163.515 628.225 Q166.594 632.809 166.594 641.559 Q166.594 650.285 163.515 654.892 Q160.46 659.475 154.65 659.475 Q148.84 659.475 145.761 654.892 Q142.705 650.285 142.705 641.559 Q142.705 632.809 145.761 628.225 Q148.84 623.619 154.65 623.619 Z" fill="#000000" fill-rule="nonzero" fill-opacity="1" /><path clip-path="url(#clip490)" d="M125.066 326.882 Q121.918 326.882 120.067 329.034 Q118.238 331.187 118.238 334.937 Q118.238 338.664 120.067 340.84 Q121.918 342.993 125.066 342.993 Q128.215 342.993 130.043 340.84 Q131.895 338.664 131.895 334.937 Q131.895 331.187 130.043 329.034 Q128.215 326.882 125.066 326.882 M134.349 312.229 L134.349 316.488 Q132.59 315.655 130.784 315.215 Q129.002 314.775 127.242 314.775 Q122.613 314.775 120.159 317.9 Q117.729 321.025 117.381 327.345 Q118.747 325.331 120.807 324.266 Q122.867 323.178 125.344 323.178 Q130.553 323.178 133.562 326.349 Q136.594 329.497 136.594 334.937 Q136.594 340.261 133.446 343.479 Q130.298 346.696 125.066 346.696 Q119.071 346.696 115.9 342.113 Q112.729 337.507 112.729 328.78 Q112.729 320.585 116.617 315.724 Q120.506 310.84 127.057 310.84 Q128.816 310.84 130.599 311.187 Q132.404 311.534 134.349 312.229 Z" fill="#000000" fill-rule="nonzero" fill-opacity="1" /><path clip-path="url(#clip490)" d="M154.65 314.544 Q151.039 314.544 149.21 318.108 Q147.404 321.65 147.404 328.78 Q147.404 335.886 149.21 339.451 Q151.039 342.993 154.65 342.993 Q158.284 342.993 160.089 339.451 Q161.918 335.886 161.918 328.78 Q161.918 321.65 160.089 318.108 Q158.284 314.544 154.65 314.544 M154.65 310.84 Q160.46 310.84 163.515 315.446 Q166.594 320.03 166.594 328.78 Q166.594 337.507 163.515 342.113 Q160.46 346.696 154.65 346.696 Q148.84 346.696 145.761 342.113 Q142.705 337.507 142.705 328.78 Q142.705 320.03 145.761 315.446 Q148.84 310.84 154.65 310.84 Z" fill="#000000" fill-rule="nonzero" fill-opacity="1" /><path clip-path="url(#clip490)" d="M17.6175 1184.5 L24.397 1184.5 Q21.3733 1187.75 19.8773 1191.44 Q18.3814 1195.1 18.3814 1199.24 Q18.3814 1207.39 23.3785 1211.72 Q28.3437 1216.04 37.765 1216.04 Q47.1544 1216.04 52.1515 1211.72 Q57.1167 1207.39 57.1167 1199.24 Q57.1167 1195.1 55.6208 1191.44 Q54.1248 1187.75 51.1011 1184.5 L57.8169 1184.5 Q60.1086 1187.88 61.2544 1191.66 Q62.4002 1195.42 62.4002 1199.62 Q62.4002 1210.41 55.8117 1216.62 Q49.1914 1222.82 37.765 1222.82 Q26.3067 1222.82 19.7182 1216.62 Q13.0978 1210.41 13.0978 1199.62 Q13.0978 1195.36 14.2437 1191.6 Q15.3577 1187.81 17.6175 1184.5 Z" fill="#000000" fill-rule="nonzero" fill-opacity="1" /><path clip-path="url(#clip490)" d="M25.8293 1175.05 L25.8293 1169.22 L42.5711 1169.22 L25.8293 1152.71 L25.8293 1145.51 L39.611 1159.13 L61.4772 1143.76 L61.4772 1150.32 L43.4941 1162.95 L49.8598 1169.22 L61.4772 1169.22 L61.4772 1175.05 L25.8293 1175.05 Z" fill="#000000" fill-rule="nonzero" fill-opacity="1" /><path clip-path="url(#clip490)" d="M45.0537 1129.82 L56.7984 1129.82 L56.7984 1121.48 Q56.7984 1117.47 55.3025 1115.37 Q53.7747 1113.27 50.9101 1113.27 Q48.0456 1113.27 46.5496 1115.37 Q45.0537 1117.47 45.0537 1121.48 L45.0537 1129.82 M30.5081 1129.82 L40.3749 1129.82 L40.3749 1122.12 Q40.3749 1118.81 39.0699 1116.71 Q37.7331 1114.61 35.3778 1114.61 Q33.0225 1114.61 31.7812 1116.71 Q30.5081 1118.81 30.5081 1122.12 L30.5081 1129.82 M25.8293 1135.68 L25.8293 1121.74 Q25.8293 1115.47 28.1209 1112.09 Q30.4126 1108.72 34.6458 1108.72 Q37.9241 1108.72 39.8656 1110.44 Q41.7754 1112.16 42.2528 1115.53 Q43.0167 1111.49 45.4356 1109.26 Q47.8546 1107.03 51.4831 1107.03 Q56.2573 1107.03 58.8673 1110.72 Q61.4772 1114.38 61.4772 1121.2 L61.4772 1135.68 L25.8293 1135.68 Z" fill="#000000" fill-rule="nonzero" fill-opacity="1" /><path clip-path="url(#clip490)" d="M53.3928 1096.21 L53.3928 1089.49 L61.4772 1089.49 L61.4772 1096.21 L53.3928 1096.21 Z" fill="#000000" fill-rule="nonzero" fill-opacity="1" /><path clip-path="url(#clip490)" d="M61.4772 1060.02 L56.0664 1060.02 Q56.0664 1055.34 52.6607 1055.34 L13.9572 1055.34 L13.9572 1046.68 L53.7111 1025.61 L22.7737 1025.61 Q18.6997 1025.61 16.3444 1023.13 Q13.9572 1020.62 13.9572 1014.7 L19.3681 1014.7 Q19.3681 1019.38 22.7737 1019.38 L61.4772 1019.38 L61.4772 1028.03 L21.7234 1049.1 L52.6607 1049.1 Q56.7348 1049.1 59.1219 1051.62 Q61.4772 1054.1 61.4772 1060.02 M41.6799 1014.28 Q37.2875 1014.28 34.2638 1011.99 Q31.2083 1009.7 31.2083 1006.42 Q31.2083 1003.14 34.2638 1000.85 Q37.2875 998.56 41.6799 998.56 Q46.0722 998.56 49.1277 1000.85 Q52.1515 1003.14 52.1515 1006.42 Q52.1515 1009.7 49.1277 1011.99 Q46.0722 1014.28 41.6799 1014.28 M41.6799 1009.83 Q44.1625 1009.83 45.8176 1008.94 Q47.4408 1008.01 47.4408 1006.42 Q47.4408 1004.83 45.8176 1003.94 Q44.1625 1003.02 41.6799 1003.02 Q39.1972 1003.02 37.574 1003.94 Q35.9189 1004.83 35.9189 1006.42 Q35.9189 1008.01 37.574 1008.94 Q39.1972 1009.83 41.6799 1009.83 M61.4772 1014.28 L57.5623 1014.28 L57.5623 998.56 L61.4772 998.56 L61.4772 1014.28 Z" fill="#000000" fill-rule="nonzero" fill-opacity="1" /><path clip-path="url(#clip492)" d="M202.594 2186.65 L202.594 2186.65 L202.594 2161.63 L202.594 2161.63 L202.594 2186.65 L202.594 2186.65  Z" fill="#009af9" fill-rule="evenodd" fill-opacity="1"/>
<polyline clip-path="url(#clip492)" style="stroke:#000000; stroke-linecap:round; stroke-linejoin:round; stroke-width:4; stroke-opacity:1; fill:none" points="202.594,2186.65 202.594,2186.65 202.594,2161.63 202.594,2161.63 202.594,2186.65 "/>
<path clip-path="url(#clip492)" d="M202.596 2155.37 L202.594 2155.37 L202.594 2130.35 L202.596 2130.35 L202.596 2155.37 L202.596 2155.37  Z" fill="#009af9" fill-rule="evenodd" fill-opacity="1"/>
<polyline clip-path="url(#clip492)" style="stroke:#000000; stroke-linecap:round; stroke-linejoin:round; stroke-width:4; stroke-opacity:1; fill:none" points="202.596,2155.37 202.594,2155.37 202.594,2130.35 202.596,2130.35 202.596,2155.37 "/>
<path clip-path="url(#clip492)" d="M202.598 2124.1 L202.594 2124.1 L202.594 2099.07 L202.598 2099.07 L202.598 2124.1 L202.598 2124.1  Z" fill="#009af9" fill-rule="evenodd" fill-opacity="1"/>
<polyline clip-path="url(#clip492)" style="stroke:#000000; stroke-linecap:round; stroke-linejoin:round; stroke-width:4; stroke-opacity:1; fill:none" points="202.598,2124.1 202.594,2124.1 202.594,2099.07 202.598,2099.07 202.598,2124.1 "/>
<path clip-path="url(#clip492)" d="M203.161 2092.82 L202.594 2092.82 L202.594 2067.8 L203.161 2067.8 L203.161 2092.82 L203.161 2092.82  Z" fill="#009af9" fill-rule="evenodd" fill-opacity="1"/>
<polyline clip-path="url(#clip492)" style="stroke:#000000; stroke-linecap:round; stroke-linejoin:round; stroke-width:4; stroke-opacity:1; fill:none" points="203.161,2092.82 202.594,2092.82 202.594,2067.8 203.161,2067.8 203.161,2092.82 "/>
<path clip-path="url(#clip492)" d="M211.518 2061.54 L202.594 2061.54 L202.594 2036.52 L211.518 2036.52 L211.518 2061.54 L211.518 2061.54  Z" fill="#009af9" fill-rule="evenodd" fill-opacity="1"/>
<polyline clip-path="url(#clip492)" style="stroke:#000000; stroke-linecap:round; stroke-linejoin:round; stroke-width:4; stroke-opacity:1; fill:none" points="211.518,2061.54 202.594,2061.54 202.594,2036.52 211.518,2036.52 211.518,2061.54 "/>
<path clip-path="url(#clip492)" d="M213.876 2030.26 L202.594 2030.26 L202.594 2005.24 L213.876 2005.24 L213.876 2030.26 L213.876 2030.26  Z" fill="#009af9" fill-rule="evenodd" fill-opacity="1"/>
<polyline clip-path="url(#clip492)" style="stroke:#000000; stroke-linecap:round; stroke-linejoin:round; stroke-width:4; stroke-opacity:1; fill:none" points="213.876,2030.26 202.594,2030.26 202.594,2005.24 213.876,2005.24 213.876,2030.26 "/>
<path clip-path="url(#clip492)" d="M214.181 1998.98 L202.594 1998.98 L202.594 1973.96 L214.181 1973.96 L214.181 1998.98 L214.181 1998.98  Z" fill="#009af9" fill-rule="evenodd" fill-opacity="1"/>
<polyline clip-path="url(#clip492)" style="stroke:#000000; stroke-linecap:round; stroke-linejoin:round; stroke-width:4; stroke-opacity:1; fill:none" points="214.181,1998.98 202.594,1998.98 202.594,1973.96 214.181,1973.96 214.181,1998.98 "/>
<path clip-path="url(#clip492)" d="M218.968 1967.71 L202.594 1967.71 L202.594 1942.68 L218.968 1942.68 L218.968 1967.71 L218.968 1967.71  Z" fill="#009af9" fill-rule="evenodd" fill-opacity="1"/>
<polyline clip-path="url(#clip492)" style="stroke:#000000; stroke-linecap:round; stroke-linejoin:round; stroke-width:4; stroke-opacity:1; fill:none" points="218.968,1967.71 202.594,1967.71 202.594,1942.68 218.968,1942.68 218.968,1967.71 "/>
<path clip-path="url(#clip492)" d="M229.629 1936.43 L202.594 1936.43 L202.594 1911.41 L229.629 1911.41 L229.629 1936.43 L229.629 1936.43  Z" fill="#009af9" fill-rule="evenodd" fill-opacity="1"/>
<polyline clip-path="url(#clip492)" style="stroke:#000000; stroke-linecap:round; stroke-linejoin:round; stroke-width:4; stroke-opacity:1; fill:none" points="229.629,1936.43 202.594,1936.43 202.594,1911.41 229.629,1911.41 229.629,1936.43 "/>
<path clip-path="url(#clip492)" d="M230.049 1905.15 L202.594 1905.15 L202.594 1880.13 L230.049 1880.13 L230.049 1905.15 L230.049 1905.15  Z" fill="#009af9" fill-rule="evenodd" fill-opacity="1"/>
<polyline clip-path="url(#clip492)" style="stroke:#000000; stroke-linecap:round; stroke-linejoin:round; stroke-width:4; stroke-opacity:1; fill:none" points="230.049,1905.15 202.594,1905.15 202.594,1880.13 230.049,1880.13 230.049,1905.15 "/>
<path clip-path="url(#clip492)" d="M232.472 1873.87 L202.594 1873.87 L202.594 1848.85 L232.472 1848.85 L232.472 1873.87 L232.472 1873.87  Z" fill="#009af9" fill-rule="evenodd" fill-opacity="1"/>
<polyline clip-path="url(#clip492)" style="stroke:#000000; stroke-linecap:round; stroke-linejoin:round; stroke-width:4; stroke-opacity:1; fill:none" points="232.472,1873.87 202.594,1873.87 202.594,1848.85 232.472,1848.85 232.472,1873.87 "/>
<path clip-path="url(#clip492)" d="M240.517 1842.59 L202.594 1842.59 L202.594 1817.57 L240.517 1817.57 L240.517 1842.59 L240.517 1842.59  Z" fill="#009af9" fill-rule="evenodd" fill-opacity="1"/>
<polyline clip-path="url(#clip492)" style="stroke:#000000; stroke-linecap:round; stroke-linejoin:round; stroke-width:4; stroke-opacity:1; fill:none" points="240.517,1842.59 202.594,1842.59 202.594,1817.57 240.517,1817.57 240.517,1842.59 "/>
<path clip-path="url(#clip492)" d="M264.9 1811.32 L202.594 1811.32 L202.594 1786.29 L264.9 1786.29 L264.9 1811.32 L264.9 1811.32  Z" fill="#009af9" fill-rule="evenodd" fill-opacity="1"/>
<polyline clip-path="url(#clip492)" style="stroke:#000000; stroke-linecap:round; stroke-linejoin:round; stroke-width:4; stroke-opacity:1; fill:none" points="264.9,1811.32 202.594,1811.32 202.594,1786.29 264.9,1786.29 264.9,1811.32 "/>
<path clip-path="url(#clip492)" d="M268.798 1780.04 L202.594 1780.04 L202.594 1755.02 L268.798 1755.02 L268.798 1780.04 L268.798 1780.04  Z" fill="#009af9" fill-rule="evenodd" fill-opacity="1"/>
<polyline clip-path="url(#clip492)" style="stroke:#000000; stroke-linecap:round; stroke-linejoin:round; stroke-width:4; stroke-opacity:1; fill:none" points="268.798,1780.04 202.594,1780.04 202.594,1755.02 268.798,1755.02 268.798,1780.04 "/>
<path clip-path="url(#clip492)" d="M276.424 1748.76 L202.594 1748.76 L202.594 1723.74 L276.424 1723.74 L276.424 1748.76 L276.424 1748.76  Z" fill="#009af9" fill-rule="evenodd" fill-opacity="1"/>
<polyline clip-path="url(#clip492)" style="stroke:#000000; stroke-linecap:round; stroke-linejoin:round; stroke-width:4; stroke-opacity:1; fill:none" points="276.424,1748.76 202.594,1748.76 202.594,1723.74 276.424,1723.74 276.424,1748.76 "/>
<path clip-path="url(#clip492)" d="M276.964 1717.48 L202.594 1717.48 L202.594 1692.46 L276.964 1692.46 L276.964 1717.48 L276.964 1717.48  Z" fill="#009af9" fill-rule="evenodd" fill-opacity="1"/>
<polyline clip-path="url(#clip492)" style="stroke:#000000; stroke-linecap:round; stroke-linejoin:round; stroke-width:4; stroke-opacity:1; fill:none" points="276.964,1717.48 202.594,1717.48 202.594,1692.46 276.964,1692.46 276.964,1717.48 "/>
<path clip-path="url(#clip492)" d="M279.242 1686.2 L202.594 1686.2 L202.594 1661.18 L279.242 1661.18 L279.242 1686.2 L279.242 1686.2  Z" fill="#009af9" fill-rule="evenodd" fill-opacity="1"/>
<polyline clip-path="url(#clip492)" style="stroke:#000000; stroke-linecap:round; stroke-linejoin:round; stroke-width:4; stroke-opacity:1; fill:none" points="279.242,1686.2 202.594,1686.2 202.594,1661.18 279.242,1661.18 279.242,1686.2 "/>
<path clip-path="url(#clip492)" d="M283.001 1654.93 L202.594 1654.93 L202.594 1629.9 L283.001 1629.9 L283.001 1654.93 L283.001 1654.93  Z" fill="#009af9" fill-rule="evenodd" fill-opacity="1"/>
<polyline clip-path="url(#clip492)" style="stroke:#000000; stroke-linecap:round; stroke-linejoin:round; stroke-width:4; stroke-opacity:1; fill:none" points="283.001,1654.93 202.594,1654.93 202.594,1629.9 283.001,1629.9 283.001,1654.93 "/>
<path clip-path="url(#clip492)" d="M290.015 1623.65 L202.594 1623.65 L202.594 1598.63 L290.015 1598.63 L290.015 1623.65 L290.015 1623.65  Z" fill="#009af9" fill-rule="evenodd" fill-opacity="1"/>
<polyline clip-path="url(#clip492)" style="stroke:#000000; stroke-linecap:round; stroke-linejoin:round; stroke-width:4; stroke-opacity:1; fill:none" points="290.015,1623.65 202.594,1623.65 202.594,1598.63 290.015,1598.63 290.015,1623.65 "/>
<path clip-path="url(#clip492)" d="M330.677 1592.37 L202.594 1592.37 L202.594 1567.35 L330.677 1567.35 L330.677 1592.37 L330.677 1592.37  Z" fill="#009af9" fill-rule="evenodd" fill-opacity="1"/>
<polyline clip-path="url(#clip492)" style="stroke:#000000; stroke-linecap:round; stroke-linejoin:round; stroke-width:4; stroke-opacity:1; fill:none" points="330.677,1592.37 202.594,1592.37 202.594,1567.35 330.677,1567.35 330.677,1592.37 "/>
<path clip-path="url(#clip492)" d="M357.293 1561.09 L202.594 1561.09 L202.594 1536.07 L357.293 1536.07 L357.293 1561.09 L357.293 1561.09  Z" fill="#009af9" fill-rule="evenodd" fill-opacity="1"/>
<polyline clip-path="url(#clip492)" style="stroke:#000000; stroke-linecap:round; stroke-linejoin:round; stroke-width:4; stroke-opacity:1; fill:none" points="357.293,1561.09 202.594,1561.09 202.594,1536.07 357.293,1536.07 357.293,1561.09 "/>
<path clip-path="url(#clip492)" d="M358.939 1529.82 L202.594 1529.82 L202.594 1504.79 L358.939 1504.79 L358.939 1529.82 L358.939 1529.82  Z" fill="#009af9" fill-rule="evenodd" fill-opacity="1"/>
<polyline clip-path="url(#clip492)" style="stroke:#000000; stroke-linecap:round; stroke-linejoin:round; stroke-width:4; stroke-opacity:1; fill:none" points="358.939,1529.82 202.594,1529.82 202.594,1504.79 358.939,1504.79 358.939,1529.82 "/>
<path clip-path="url(#clip492)" d="M367.166 1498.54 L202.594 1498.54 L202.594 1473.52 L367.166 1473.52 L367.166 1498.54 L367.166 1498.54  Z" fill="#009af9" fill-rule="evenodd" fill-opacity="1"/>
<polyline clip-path="url(#clip492)" style="stroke:#000000; stroke-linecap:round; stroke-linejoin:round; stroke-width:4; stroke-opacity:1; fill:none" points="367.166,1498.54 202.594,1498.54 202.594,1473.52 367.166,1473.52 367.166,1498.54 "/>
<path clip-path="url(#clip492)" d="M368.294 1467.26 L202.594 1467.26 L202.594 1442.24 L368.294 1442.24 L368.294 1467.26 L368.294 1467.26  Z" fill="#009af9" fill-rule="evenodd" fill-opacity="1"/>
<polyline clip-path="url(#clip492)" style="stroke:#000000; stroke-linecap:round; stroke-linejoin:round; stroke-width:4; stroke-opacity:1; fill:none" points="368.294,1467.26 202.594,1467.26 202.594,1442.24 368.294,1442.24 368.294,1467.26 "/>
<path clip-path="url(#clip492)" d="M375.026 1435.98 L202.594 1435.98 L202.594 1410.96 L375.026 1410.96 L375.026 1435.98 L375.026 1435.98  Z" fill="#009af9" fill-rule="evenodd" fill-opacity="1"/>
<polyline clip-path="url(#clip492)" style="stroke:#000000; stroke-linecap:round; stroke-linejoin:round; stroke-width:4; stroke-opacity:1; fill:none" points="375.026,1435.98 202.594,1435.98 202.594,1410.96 375.026,1410.96 375.026,1435.98 "/>
<path clip-path="url(#clip492)" d="M377.011 1404.7 L202.594 1404.7 L202.594 1379.68 L377.011 1379.68 L377.011 1404.7 L377.011 1404.7  Z" fill="#009af9" fill-rule="evenodd" fill-opacity="1"/>
<polyline clip-path="url(#clip492)" style="stroke:#000000; stroke-linecap:round; stroke-linejoin:round; stroke-width:4; stroke-opacity:1; fill:none" points="377.011,1404.7 202.594,1404.7 202.594,1379.68 377.011,1379.68 377.011,1404.7 "/>
<path clip-path="url(#clip492)" d="M379.361 1373.43 L202.594 1373.43 L202.594 1348.4 L379.361 1348.4 L379.361 1373.43 L379.361 1373.43  Z" fill="#009af9" fill-rule="evenodd" fill-opacity="1"/>
<polyline clip-path="url(#clip492)" style="stroke:#000000; stroke-linecap:round; stroke-linejoin:round; stroke-width:4; stroke-opacity:1; fill:none" points="379.361,1373.43 202.594,1373.43 202.594,1348.4 379.361,1348.4 379.361,1373.43 "/>
<path clip-path="url(#clip492)" d="M381.842 1342.15 L202.594 1342.15 L202.594 1317.13 L381.842 1317.13 L381.842 1342.15 L381.842 1342.15  Z" fill="#009af9" fill-rule="evenodd" fill-opacity="1"/>
<polyline clip-path="url(#clip492)" style="stroke:#000000; stroke-linecap:round; stroke-linejoin:round; stroke-width:4; stroke-opacity:1; fill:none" points="381.842,1342.15 202.594,1342.15 202.594,1317.13 381.842,1317.13 381.842,1342.15 "/>
<path clip-path="url(#clip492)" d="M389.371 1310.87 L202.594 1310.87 L202.594 1285.85 L389.371 1285.85 L389.371 1310.87 L389.371 1310.87  Z" fill="#009af9" fill-rule="evenodd" fill-opacity="1"/>
<polyline clip-path="url(#clip492)" style="stroke:#000000; stroke-linecap:round; stroke-linejoin:round; stroke-width:4; stroke-opacity:1; fill:none" points="389.371,1310.87 202.594,1310.87 202.594,1285.85 389.371,1285.85 389.371,1310.87 "/>
<path clip-path="url(#clip492)" d="M391.925 1279.59 L202.594 1279.59 L202.594 1254.57 L391.925 1254.57 L391.925 1279.59 L391.925 1279.59  Z" fill="#009af9" fill-rule="evenodd" fill-opacity="1"/>
<polyline clip-path="url(#clip492)" style="stroke:#000000; stroke-linecap:round; stroke-linejoin:round; stroke-width:4; stroke-opacity:1; fill:none" points="391.925,1279.59 202.594,1279.59 202.594,1254.57 391.925,1254.57 391.925,1279.59 "/>
<path clip-path="url(#clip492)" d="M402.371 1248.31 L202.594 1248.31 L202.594 1223.29 L402.371 1223.29 L402.371 1248.31 L402.371 1248.31  Z" fill="#009af9" fill-rule="evenodd" fill-opacity="1"/>
<polyline clip-path="url(#clip492)" style="stroke:#000000; stroke-linecap:round; stroke-linejoin:round; stroke-width:4; stroke-opacity:1; fill:none" points="402.371,1248.31 202.594,1248.31 202.594,1223.29 402.371,1223.29 402.371,1248.31 "/>
<path clip-path="url(#clip492)" d="M402.46 1217.04 L202.594 1217.04 L202.594 1192.01 L402.46 1192.01 L402.46 1217.04 L402.46 1217.04  Z" fill="#009af9" fill-rule="evenodd" fill-opacity="1"/>
<polyline clip-path="url(#clip492)" style="stroke:#000000; stroke-linecap:round; stroke-linejoin:round; stroke-width:4; stroke-opacity:1; fill:none" points="402.46,1217.04 202.594,1217.04 202.594,1192.01 402.46,1192.01 402.46,1217.04 "/>
<path clip-path="url(#clip492)" d="M404.341 1185.76 L202.594 1185.76 L202.594 1160.74 L404.341 1160.74 L404.341 1185.76 L404.341 1185.76  Z" fill="#009af9" fill-rule="evenodd" fill-opacity="1"/>
<polyline clip-path="url(#clip492)" style="stroke:#000000; stroke-linecap:round; stroke-linejoin:round; stroke-width:4; stroke-opacity:1; fill:none" points="404.341,1185.76 202.594,1185.76 202.594,1160.74 404.341,1160.74 404.341,1185.76 "/>
<path clip-path="url(#clip492)" d="M407.931 1154.48 L202.594 1154.48 L202.594 1129.46 L407.931 1129.46 L407.931 1154.48 L407.931 1154.48  Z" fill="#009af9" fill-rule="evenodd" fill-opacity="1"/>
<polyline clip-path="url(#clip492)" style="stroke:#000000; stroke-linecap:round; stroke-linejoin:round; stroke-width:4; stroke-opacity:1; fill:none" points="407.931,1154.48 202.594,1154.48 202.594,1129.46 407.931,1129.46 407.931,1154.48 "/>
<path clip-path="url(#clip492)" d="M409.322 1123.2 L202.594 1123.2 L202.594 1098.18 L409.322 1098.18 L409.322 1123.2 L409.322 1123.2  Z" fill="#009af9" fill-rule="evenodd" fill-opacity="1"/>
<polyline clip-path="url(#clip492)" style="stroke:#000000; stroke-linecap:round; stroke-linejoin:round; stroke-width:4; stroke-opacity:1; fill:none" points="409.322,1123.2 202.594,1123.2 202.594,1098.18 409.322,1098.18 409.322,1123.2 "/>
<path clip-path="url(#clip492)" d="M421.007 1091.93 L202.594 1091.93 L202.594 1066.9 L421.007 1066.9 L421.007 1091.93 L421.007 1091.93  Z" fill="#009af9" fill-rule="evenodd" fill-opacity="1"/>
<polyline clip-path="url(#clip492)" style="stroke:#000000; stroke-linecap:round; stroke-linejoin:round; stroke-width:4; stroke-opacity:1; fill:none" points="421.007,1091.93 202.594,1091.93 202.594,1066.9 421.007,1066.9 421.007,1091.93 "/>
<path clip-path="url(#clip492)" d="M422.23 1060.65 L202.594 1060.65 L202.594 1035.63 L422.23 1035.63 L422.23 1060.65 L422.23 1060.65  Z" fill="#009af9" fill-rule="evenodd" fill-opacity="1"/>
<polyline clip-path="url(#clip492)" style="stroke:#000000; stroke-linecap:round; stroke-linejoin:round; stroke-width:4; stroke-opacity:1; fill:none" points="422.23,1060.65 202.594,1060.65 202.594,1035.63 422.23,1035.63 422.23,1060.65 "/>
<path clip-path="url(#clip492)" d="M428.252 1029.37 L202.594 1029.37 L202.594 1004.35 L428.252 1004.35 L428.252 1029.37 L428.252 1029.37  Z" fill="#009af9" fill-rule="evenodd" fill-opacity="1"/>
<polyline clip-path="url(#clip492)" style="stroke:#000000; stroke-linecap:round; stroke-linejoin:round; stroke-width:4; stroke-opacity:1; fill:none" points="428.252,1029.37 202.594,1029.37 202.594,1004.35 428.252,1004.35 428.252,1029.37 "/>
<path clip-path="url(#clip492)" d="M431.445 998.092 L202.594 998.092 L202.594 973.069 L431.445 973.069 L431.445 998.092 L431.445 998.092  Z" fill="#009af9" fill-rule="evenodd" fill-opacity="1"/>
<polyline clip-path="url(#clip492)" style="stroke:#000000; stroke-linecap:round; stroke-linejoin:round; stroke-width:4; stroke-opacity:1; fill:none" points="431.445,998.092 202.594,998.092 202.594,973.069 431.445,973.069 431.445,998.092 "/>
<path clip-path="url(#clip492)" d="M435.828 966.814 L202.594 966.814 L202.594 941.791 L435.828 941.791 L435.828 966.814 L435.828 966.814  Z" fill="#009af9" fill-rule="evenodd" fill-opacity="1"/>
<polyline clip-path="url(#clip492)" style="stroke:#000000; stroke-linecap:round; stroke-linejoin:round; stroke-width:4; stroke-opacity:1; fill:none" points="435.828,966.814 202.594,966.814 202.594,941.791 435.828,941.791 435.828,966.814 "/>
<path clip-path="url(#clip492)" d="M438.398 935.536 L202.594 935.536 L202.594 910.514 L438.398 910.514 L438.398 935.536 L438.398 935.536  Z" fill="#009af9" fill-rule="evenodd" fill-opacity="1"/>
<polyline clip-path="url(#clip492)" style="stroke:#000000; stroke-linecap:round; stroke-linejoin:round; stroke-width:4; stroke-opacity:1; fill:none" points="438.398,935.536 202.594,935.536 202.594,910.514 438.398,910.514 438.398,935.536 "/>
<path clip-path="url(#clip492)" d="M443.558 904.258 L202.594 904.258 L202.594 879.236 L443.558 879.236 L443.558 904.258 L443.558 904.258  Z" fill="#009af9" fill-rule="evenodd" fill-opacity="1"/>
<polyline clip-path="url(#clip492)" style="stroke:#000000; stroke-linecap:round; stroke-linejoin:round; stroke-width:4; stroke-opacity:1; fill:none" points="443.558,904.258 202.594,904.258 202.594,879.236 443.558,879.236 443.558,904.258 "/>
<path clip-path="url(#clip492)" d="M446.887 872.98 L202.594 872.98 L202.594 847.958 L446.887 847.958 L446.887 872.98 L446.887 872.98  Z" fill="#009af9" fill-rule="evenodd" fill-opacity="1"/>
<polyline clip-path="url(#clip492)" style="stroke:#000000; stroke-linecap:round; stroke-linejoin:round; stroke-width:4; stroke-opacity:1; fill:none" points="446.887,872.98 202.594,872.98 202.594,847.958 446.887,847.958 446.887,872.98 "/>
<path clip-path="url(#clip492)" d="M448.789 841.702 L202.594 841.702 L202.594 816.68 L448.789 816.68 L448.789 841.702 L448.789 841.702  Z" fill="#009af9" fill-rule="evenodd" fill-opacity="1"/>
<polyline clip-path="url(#clip492)" style="stroke:#000000; stroke-linecap:round; stroke-linejoin:round; stroke-width:4; stroke-opacity:1; fill:none" points="448.789,841.702 202.594,841.702 202.594,816.68 448.789,816.68 448.789,841.702 "/>
<path clip-path="url(#clip492)" d="M451.448 810.424 L202.594 810.424 L202.594 785.402 L451.448 785.402 L451.448 810.424 L451.448 810.424  Z" fill="#009af9" fill-rule="evenodd" fill-opacity="1"/>
<polyline clip-path="url(#clip492)" style="stroke:#000000; stroke-linecap:round; stroke-linejoin:round; stroke-width:4; stroke-opacity:1; fill:none" points="451.448,810.424 202.594,810.424 202.594,785.402 451.448,785.402 451.448,810.424 "/>
<path clip-path="url(#clip492)" d="M456.853 779.146 L202.594 779.146 L202.594 754.124 L456.853 754.124 L456.853 779.146 L456.853 779.146  Z" fill="#009af9" fill-rule="evenodd" fill-opacity="1"/>
<polyline clip-path="url(#clip492)" style="stroke:#000000; stroke-linecap:round; stroke-linejoin:round; stroke-width:4; stroke-opacity:1; fill:none" points="456.853,779.146 202.594,779.146 202.594,754.124 456.853,754.124 456.853,779.146 "/>
<path clip-path="url(#clip492)" d="M480.209 747.869 L202.594 747.869 L202.594 722.846 L480.209 722.846 L480.209 747.869 L480.209 747.869  Z" fill="#009af9" fill-rule="evenodd" fill-opacity="1"/>
<polyline clip-path="url(#clip492)" style="stroke:#000000; stroke-linecap:round; stroke-linejoin:round; stroke-width:4; stroke-opacity:1; fill:none" points="480.209,747.869 202.594,747.869 202.594,722.846 480.209,722.846 480.209,747.869 "/>
<path clip-path="url(#clip492)" d="M490.453 716.591 L202.594 716.591 L202.594 691.568 L490.453 691.568 L490.453 716.591 L490.453 716.591  Z" fill="#009af9" fill-rule="evenodd" fill-opacity="1"/>
<polyline clip-path="url(#clip492)" style="stroke:#000000; stroke-linecap:round; stroke-linejoin:round; stroke-width:4; stroke-opacity:1; fill:none" points="490.453,716.591 202.594,716.591 202.594,691.568 490.453,691.568 490.453,716.591 "/>
<path clip-path="url(#clip492)" d="M523.762 685.313 L202.594 685.313 L202.594 660.291 L523.762 660.291 L523.762 685.313 L523.762 685.313  Z" fill="#009af9" fill-rule="evenodd" fill-opacity="1"/>
<polyline clip-path="url(#clip492)" style="stroke:#000000; stroke-linecap:round; stroke-linejoin:round; stroke-width:4; stroke-opacity:1; fill:none" points="523.762,685.313 202.594,685.313 202.594,660.291 523.762,660.291 523.762,685.313 "/>
<path clip-path="url(#clip492)" d="M524.515 654.035 L202.594 654.035 L202.594 629.013 L524.515 629.013 L524.515 654.035 L524.515 654.035  Z" fill="#009af9" fill-rule="evenodd" fill-opacity="1"/>
<polyline clip-path="url(#clip492)" style="stroke:#000000; stroke-linecap:round; stroke-linejoin:round; stroke-width:4; stroke-opacity:1; fill:none" points="524.515,654.035 202.594,654.035 202.594,629.013 524.515,629.013 524.515,654.035 "/>
<path clip-path="url(#clip492)" d="M525.799 622.757 L202.594 622.757 L202.594 597.735 L525.799 597.735 L525.799 622.757 L525.799 622.757  Z" fill="#009af9" fill-rule="evenodd" fill-opacity="1"/>
<polyline clip-path="url(#clip492)" style="stroke:#000000; stroke-linecap:round; stroke-linejoin:round; stroke-width:4; stroke-opacity:1; fill:none" points="525.799,622.757 202.594,622.757 202.594,597.735 525.799,597.735 525.799,622.757 "/>
<path clip-path="url(#clip492)" d="M531.986 591.479 L202.594 591.479 L202.594 566.457 L531.986 566.457 L531.986 591.479 L531.986 591.479  Z" fill="#009af9" fill-rule="evenodd" fill-opacity="1"/>
<polyline clip-path="url(#clip492)" style="stroke:#000000; stroke-linecap:round; stroke-linejoin:round; stroke-width:4; stroke-opacity:1; fill:none" points="531.986,591.479 202.594,591.479 202.594,566.457 531.986,566.457 531.986,591.479 "/>
<path clip-path="url(#clip492)" d="M533.424 560.201 L202.594 560.201 L202.594 535.179 L533.424 535.179 L533.424 560.201 L533.424 560.201  Z" fill="#009af9" fill-rule="evenodd" fill-opacity="1"/>
<polyline clip-path="url(#clip492)" style="stroke:#000000; stroke-linecap:round; stroke-linejoin:round; stroke-width:4; stroke-opacity:1; fill:none" points="533.424,560.201 202.594,560.201 202.594,535.179 533.424,535.179 533.424,560.201 "/>
<path clip-path="url(#clip492)" d="M543.429 528.923 L202.594 528.923 L202.594 503.901 L543.429 503.901 L543.429 528.923 L543.429 528.923  Z" fill="#009af9" fill-rule="evenodd" fill-opacity="1"/>
<polyline clip-path="url(#clip492)" style="stroke:#000000; stroke-linecap:round; stroke-linejoin:round; stroke-width:4; stroke-opacity:1; fill:none" points="543.429,528.923 202.594,528.923 202.594,503.901 543.429,503.901 543.429,528.923 "/>
<path clip-path="url(#clip492)" d="M547.795 497.646 L202.594 497.646 L202.594 472.623 L547.795 472.623 L547.795 497.646 L547.795 497.646  Z" fill="#009af9" fill-rule="evenodd" fill-opacity="1"/>
<polyline clip-path="url(#clip492)" style="stroke:#000000; stroke-linecap:round; stroke-linejoin:round; stroke-width:4; stroke-opacity:1; fill:none" points="547.795,497.646 202.594,497.646 202.594,472.623 547.795,472.623 547.795,497.646 "/>
<path clip-path="url(#clip492)" d="M579.038 466.368 L202.594 466.368 L202.594 441.345 L579.038 441.345 L579.038 466.368 L579.038 466.368  Z" fill="#009af9" fill-rule="evenodd" fill-opacity="1"/>
<polyline clip-path="url(#clip492)" style="stroke:#000000; stroke-linecap:round; stroke-linejoin:round; stroke-width:4; stroke-opacity:1; fill:none" points="579.038,466.368 202.594,466.368 202.594,441.345 579.038,441.345 579.038,466.368 "/>
<path clip-path="url(#clip492)" d="M615.362 435.09 L202.594 435.09 L202.594 410.067 L615.362 410.067 L615.362 435.09 L615.362 435.09  Z" fill="#009af9" fill-rule="evenodd" fill-opacity="1"/>
<polyline clip-path="url(#clip492)" style="stroke:#000000; stroke-linecap:round; stroke-linejoin:round; stroke-width:4; stroke-opacity:1; fill:none" points="615.362,435.09 202.594,435.09 202.594,410.067 615.362,410.067 615.362,435.09 "/>
<path clip-path="url(#clip492)" d="M651.28 403.812 L202.594 403.812 L202.594 378.79 L651.28 378.79 L651.28 403.812 L651.28 403.812  Z" fill="#009af9" fill-rule="evenodd" fill-opacity="1"/>
<polyline clip-path="url(#clip492)" style="stroke:#000000; stroke-linecap:round; stroke-linejoin:round; stroke-width:4; stroke-opacity:1; fill:none" points="651.28,403.812 202.594,403.812 202.594,378.79 651.28,378.79 651.28,403.812 "/>
<path clip-path="url(#clip492)" d="M687.079 372.534 L202.594 372.534 L202.594 347.512 L687.079 347.512 L687.079 372.534 L687.079 372.534  Z" fill="#009af9" fill-rule="evenodd" fill-opacity="1"/>
<polyline clip-path="url(#clip492)" style="stroke:#000000; stroke-linecap:round; stroke-linejoin:round; stroke-width:4; stroke-opacity:1; fill:none" points="687.079,372.534 202.594,372.534 202.594,347.512 687.079,347.512 687.079,372.534 "/>
<path clip-path="url(#clip492)" d="M730.843 341.256 L202.594 341.256 L202.594 316.234 L730.843 316.234 L730.843 341.256 L730.843 341.256  Z" fill="#009af9" fill-rule="evenodd" fill-opacity="1"/>
<polyline clip-path="url(#clip492)" style="stroke:#000000; stroke-linecap:round; stroke-linejoin:round; stroke-width:4; stroke-opacity:1; fill:none" points="730.843,341.256 202.594,341.256 202.594,316.234 730.843,316.234 730.843,341.256 "/>
<path clip-path="url(#clip492)" d="M759.565 309.978 L202.594 309.978 L202.594 284.956 L759.565 284.956 L759.565 309.978 L759.565 309.978  Z" fill="#009af9" fill-rule="evenodd" fill-opacity="1"/>
<polyline clip-path="url(#clip492)" style="stroke:#000000; stroke-linecap:round; stroke-linejoin:round; stroke-width:4; stroke-opacity:1; fill:none" points="759.565,309.978 202.594,309.978 202.594,284.956 759.565,284.956 759.565,309.978 "/>
<path clip-path="url(#clip492)" d="M766.13 278.7 L202.594 278.7 L202.594 253.678 L766.13 253.678 L766.13 278.7 L766.13 278.7  Z" fill="#009af9" fill-rule="evenodd" fill-opacity="1"/>
<polyline clip-path="url(#clip492)" style="stroke:#000000; stroke-linecap:round; stroke-linejoin:round; stroke-width:4; stroke-opacity:1; fill:none" points="766.13,278.7 202.594,278.7 202.594,253.678 766.13,253.678 766.13,278.7 "/>
<path clip-path="url(#clip492)" d="M778.236 247.423 L202.594 247.423 L202.594 222.4 L778.236 222.4 L778.236 247.423 L778.236 247.423  Z" fill="#009af9" fill-rule="evenodd" fill-opacity="1"/>
<polyline clip-path="url(#clip492)" style="stroke:#000000; stroke-linecap:round; stroke-linejoin:round; stroke-width:4; stroke-opacity:1; fill:none" points="778.236,247.423 202.594,247.423 202.594,222.4 778.236,222.4 778.236,247.423 "/>
<path clip-path="url(#clip492)" d="M842.116 216.145 L202.594 216.145 L202.594 191.122 L842.116 191.122 L842.116 216.145 L842.116 216.145  Z" fill="#009af9" fill-rule="evenodd" fill-opacity="1"/>
<polyline clip-path="url(#clip492)" style="stroke:#000000; stroke-linecap:round; stroke-linejoin:round; stroke-width:4; stroke-opacity:1; fill:none" points="842.116,216.145 202.594,216.145 202.594,191.122 842.116,191.122 842.116,216.145 "/>
<path clip-path="url(#clip492)" d="M980.752 184.867 L202.594 184.867 L202.594 159.844 L980.752 159.844 L980.752 184.867 L980.752 184.867  Z" fill="#009af9" fill-rule="evenodd" fill-opacity="1"/>
<polyline clip-path="url(#clip492)" style="stroke:#000000; stroke-linecap:round; stroke-linejoin:round; stroke-width:4; stroke-opacity:1; fill:none" points="980.752,184.867 202.594,184.867 202.594,159.844 980.752,159.844 980.752,184.867 "/>
<path clip-path="url(#clip492)" d="M1230.45 153.589 L202.594 153.589 L202.594 128.567 L1230.45 128.567 L1230.45 153.589 L1230.45 153.589  Z" fill="#009af9" fill-rule="evenodd" fill-opacity="1"/>
<polyline clip-path="url(#clip492)" style="stroke:#000000; stroke-linecap:round; stroke-linejoin:round; stroke-width:4; stroke-opacity:1; fill:none" points="1230.45,153.589 202.594,153.589 202.594,128.567 1230.45,128.567 1230.45,153.589 "/>
<path clip-path="url(#clip492)" d="M1552.76 122.311 L202.594 122.311 L202.594 97.2887 L1552.76 97.2887 L1552.76 122.311 L1552.76 122.311  Z" fill="#009af9" fill-rule="evenodd" fill-opacity="1"/>
<polyline clip-path="url(#clip492)" style="stroke:#000000; stroke-linecap:round; stroke-linejoin:round; stroke-width:4; stroke-opacity:1; fill:none" points="1552.76,122.311 202.594,122.311 202.594,97.2887 1552.76,97.2887 1552.76,122.311 "/>
<path clip-path="url(#clip492)" d="M1552.76 91.0331 L202.594 91.0331 L202.594 66.0108 L1552.76 66.0108 L1552.76 91.0331 L1552.76 91.0331  Z" fill="#009af9" fill-rule="evenodd" fill-opacity="1"/>
<polyline clip-path="url(#clip492)" style="stroke:#000000; stroke-linecap:round; stroke-linejoin:round; stroke-width:4; stroke-opacity:1; fill:none" points="1552.76,91.0331 202.594,91.0331 202.594,66.0108 1552.76,66.0108 1552.76,91.0331 "/>
<path clip-path="url(#clip492)" d="M1552.76 59.7552 L202.594 59.7552 L202.594 34.7329 L1552.76 34.7329 L1552.76 59.7552 L1552.76 59.7552  Z" fill="#009af9" fill-rule="evenodd" fill-opacity="1"/>
<polyline clip-path="url(#clip492)" style="stroke:#000000; stroke-linecap:round; stroke-linejoin:round; stroke-width:4; stroke-opacity:1; fill:none" points="1552.76,59.7552 202.594,59.7552 202.594,34.7329 1552.76,34.7329 1552.76,59.7552 "/>
<circle clip-path="url(#clip492)" style="fill:#009af9; stroke:none; fill-opacity:0" cx="310.607" cy="2167.49" r="2"/>
<circle clip-path="url(#clip492)" style="fill:#009af9; stroke:none; fill-opacity:0" cx="324.109" cy="2142.79" r="2"/>
<circle clip-path="url(#clip492)" style="fill:#009af9; stroke:none; fill-opacity:0" cx="337.61" cy="2141.82" r="2"/>
<circle clip-path="url(#clip492)" style="fill:#009af9; stroke:none; fill-opacity:0" cx="351.112" cy="2136.2" r="2"/>
<circle clip-path="url(#clip492)" style="fill:#009af9; stroke:none; fill-opacity:0" cx="364.613" cy="2117.57" r="2"/>
<circle clip-path="url(#clip492)" style="fill:#009af9; stroke:none; fill-opacity:0" cx="378.115" cy="2061.08" r="2"/>
<circle clip-path="url(#clip492)" style="fill:#009af9; stroke:none; fill-opacity:0" cx="391.617" cy="2052.05" r="2"/>
<circle clip-path="url(#clip492)" style="fill:#009af9; stroke:none; fill-opacity:0" cx="405.118" cy="2034.38" r="2"/>
<circle clip-path="url(#clip492)" style="fill:#009af9; stroke:none; fill-opacity:0" cx="418.62" cy="2033.13" r="2"/>
<circle clip-path="url(#clip492)" style="fill:#009af9; stroke:none; fill-opacity:0" cx="432.122" cy="2027.86" r="2"/>
<circle clip-path="url(#clip492)" style="fill:#009af9; stroke:none; fill-opacity:0" cx="445.623" cy="2019.15" r="2"/>
<circle clip-path="url(#clip492)" style="fill:#009af9; stroke:none; fill-opacity:0" cx="459.125" cy="2002.9" r="2"/>
<circle clip-path="url(#clip492)" style="fill:#009af9; stroke:none; fill-opacity:0" cx="472.626" cy="1908.7" r="2"/>
<circle clip-path="url(#clip492)" style="fill:#009af9; stroke:none; fill-opacity:0" cx="486.128" cy="1847.04" r="2"/>
<circle clip-path="url(#clip492)" style="fill:#009af9; stroke:none; fill-opacity:0" cx="499.63" cy="1843.23" r="2"/>
<circle clip-path="url(#clip492)" style="fill:#009af9; stroke:none; fill-opacity:0" cx="513.131" cy="1824.17" r="2"/>
<circle clip-path="url(#clip492)" style="fill:#009af9; stroke:none; fill-opacity:0" cx="526.633" cy="1821.56" r="2"/>
<circle clip-path="url(#clip492)" style="fill:#009af9; stroke:none; fill-opacity:0" cx="540.135" cy="1805.96" r="2"/>
<circle clip-path="url(#clip492)" style="fill:#009af9; stroke:none; fill-opacity:0" cx="553.636" cy="1801.36" r="2"/>
<circle clip-path="url(#clip492)" style="fill:#009af9; stroke:none; fill-opacity:0" cx="567.138" cy="1795.92" r="2"/>
<circle clip-path="url(#clip492)" style="fill:#009af9; stroke:none; fill-opacity:0" cx="580.639" cy="1790.17" r="2"/>
<circle clip-path="url(#clip492)" style="fill:#009af9; stroke:none; fill-opacity:0" cx="594.141" cy="1772.73" r="2"/>
<circle clip-path="url(#clip492)" style="fill:#009af9; stroke:none; fill-opacity:0" cx="607.643" cy="1766.81" r="2"/>
<circle clip-path="url(#clip492)" style="fill:#009af9; stroke:none; fill-opacity:0" cx="621.144" cy="1742.61" r="2"/>
<circle clip-path="url(#clip492)" style="fill:#009af9; stroke:none; fill-opacity:0" cx="634.646" cy="1742.41" r="2"/>
<circle clip-path="url(#clip492)" style="fill:#009af9; stroke:none; fill-opacity:0" cx="648.147" cy="1738.05" r="2"/>
<circle clip-path="url(#clip492)" style="fill:#009af9; stroke:none; fill-opacity:0" cx="661.649" cy="1729.73" r="2"/>
<circle clip-path="url(#clip492)" style="fill:#009af9; stroke:none; fill-opacity:0" cx="675.151" cy="1726.51" r="2"/>
<circle clip-path="url(#clip492)" style="fill:#009af9; stroke:none; fill-opacity:0" cx="688.652" cy="1699.44" r="2"/>
<circle clip-path="url(#clip492)" style="fill:#009af9; stroke:none; fill-opacity:0" cx="702.154" cy="1696.61" r="2"/>
<circle clip-path="url(#clip492)" style="fill:#009af9; stroke:none; fill-opacity:0" cx="715.656" cy="1682.66" r="2"/>
<circle clip-path="url(#clip492)" style="fill:#009af9; stroke:none; fill-opacity:0" cx="729.157" cy="1675.26" r="2"/>
<circle clip-path="url(#clip492)" style="fill:#009af9; stroke:none; fill-opacity:0" cx="742.659" cy="1665.11" r="2"/>
<circle clip-path="url(#clip492)" style="fill:#009af9; stroke:none; fill-opacity:0" cx="756.16" cy="1659.15" r="2"/>
<circle clip-path="url(#clip492)" style="fill:#009af9; stroke:none; fill-opacity:0" cx="769.662" cy="1647.2" r="2"/>
<circle clip-path="url(#clip492)" style="fill:#009af9; stroke:none; fill-opacity:0" cx="783.164" cy="1639.49" r="2"/>
<circle clip-path="url(#clip492)" style="fill:#009af9; stroke:none; fill-opacity:0" cx="796.665" cy="1635.08" r="2"/>
<circle clip-path="url(#clip492)" style="fill:#009af9; stroke:none; fill-opacity:0" cx="810.167" cy="1628.92" r="2"/>
<circle clip-path="url(#clip492)" style="fill:#009af9; stroke:none; fill-opacity:0" cx="823.668" cy="1616.4" r="2"/>
<circle clip-path="url(#clip492)" style="fill:#009af9; stroke:none; fill-opacity:0" cx="837.17" cy="1562.3" r="2"/>
<circle clip-path="url(#clip492)" style="fill:#009af9; stroke:none; fill-opacity:0" cx="850.672" cy="1538.56" r="2"/>
<circle clip-path="url(#clip492)" style="fill:#009af9; stroke:none; fill-opacity:0" cx="864.173" cy="1461.4" r="2"/>
<circle clip-path="url(#clip492)" style="fill:#009af9; stroke:none; fill-opacity:0" cx="877.675" cy="1459.65" r="2"/>
<circle clip-path="url(#clip492)" style="fill:#009af9; stroke:none; fill-opacity:0" cx="891.177" cy="1456.68" r="2"/>
<circle clip-path="url(#clip492)" style="fill:#009af9; stroke:none; fill-opacity:0" cx="904.678" cy="1442.35" r="2"/>
<circle clip-path="url(#clip492)" style="fill:#009af9; stroke:none; fill-opacity:0" cx="918.18" cy="1439.02" r="2"/>
<circle clip-path="url(#clip492)" style="fill:#009af9; stroke:none; fill-opacity:0" cx="931.681" cy="1415.84" r="2"/>
<circle clip-path="url(#clip492)" style="fill:#009af9; stroke:none; fill-opacity:0" cx="945.183" cy="1405.73" r="2"/>
<circle clip-path="url(#clip492)" style="fill:#009af9; stroke:none; fill-opacity:0" cx="958.685" cy="1333.35" r="2"/>
<circle clip-path="url(#clip492)" style="fill:#009af9; stroke:none; fill-opacity:0" cx="972.186" cy="1249.2" r="2"/>
<circle clip-path="url(#clip492)" style="fill:#009af9; stroke:none; fill-opacity:0" cx="985.688" cy="1165.99" r="2"/>
<circle clip-path="url(#clip492)" style="fill:#009af9; stroke:none; fill-opacity:0" cx="999.19" cy="1083.06" r="2"/>
<circle clip-path="url(#clip492)" style="fill:#009af9; stroke:none; fill-opacity:0" cx="1012.69" cy="981.674" r="2"/>
<circle clip-path="url(#clip492)" style="fill:#009af9; stroke:none; fill-opacity:0" cx="1026.19" cy="915.138" r="2"/>
<circle clip-path="url(#clip492)" style="fill:#009af9; stroke:none; fill-opacity:0" cx="1039.69" cy="899.928" r="2"/>
<circle clip-path="url(#clip492)" style="fill:#009af9; stroke:none; fill-opacity:0" cx="1053.2" cy="871.884" r="2"/>
<circle clip-path="url(#clip492)" style="fill:#009af9; stroke:none; fill-opacity:0" cx="1066.7" cy="723.899" r="2"/>
<circle clip-path="url(#clip492)" style="fill:#009af9; stroke:none; fill-opacity:0" cx="1080.2" cy="402.735" r="2"/>
</svg>
