<?xml version="1.0" encoding="utf-8"?>
<svg xmlns="http://www.w3.org/2000/svg" xmlns:xlink="http://www.w3.org/1999/xlink" width="400" height="600" viewBox="0 0 1600 2400">
<defs>
  <clipPath id="clip260">
    <rect x="0" y="0" width="1600" height="2400"/>
  </clipPath>
</defs>
<path clip-path="url(#clip260)" d="M0 2400 L1600 2400 L1600 0 L0 0  Z" fill="#ffffff" fill-rule="evenodd" fill-opacity="1"/>
<defs>
  <clipPath id="clip261">
    <rect x="480" y="240" width="1600" height="1681"/>
  </clipPath>
</defs>
<path clip-path="url(#clip260)" d="M202.594 2174.14 L1552.76 2174.14 L1552.76 47.2441 L202.594 47.2441  Z" fill="#ffffff" fill-rule="evenodd" fill-opacity="1"/>
<defs>
  <clipPath id="clip262">
    <rect x="202" y="47" width="1351" height="2128"/>
  </clipPath>
</defs>
<polyline clip-path="url(#clip262)" style="stroke:#000000; stroke-linecap:round; stroke-linejoin:round; stroke-width:2; stroke-opacity:0.1; fill:none" points="202.594,2174.14 202.594,47.2441 "/>
<polyline clip-path="url(#clip262)" style="stroke:#000000; stroke-linecap:round; stroke-linejoin:round; stroke-width:2; stroke-opacity:0.1; fill:none" points="427.621,2174.14 427.621,47.2441 "/>
<polyline clip-path="url(#clip262)" style="stroke:#000000; stroke-linecap:round; stroke-linejoin:round; stroke-width:2; stroke-opacity:0.1; fill:none" points="652.648,2174.14 652.648,47.2441 "/>
<polyline clip-path="url(#clip262)" style="stroke:#000000; stroke-linecap:round; stroke-linejoin:round; stroke-width:2; stroke-opacity:0.1; fill:none" points="877.675,2174.14 877.675,47.2441 "/>
<polyline clip-path="url(#clip262)" style="stroke:#000000; stroke-linecap:round; stroke-linejoin:round; stroke-width:2; stroke-opacity:0.1; fill:none" points="1102.7,2174.14 1102.7,47.2441 "/>
<polyline clip-path="url(#clip262)" style="stroke:#000000; stroke-linecap:round; stroke-linejoin:round; stroke-width:2; stroke-opacity:0.1; fill:none" points="1327.73,2174.14 1327.73,47.2441 "/>
<polyline clip-path="url(#clip262)" style="stroke:#000000; stroke-linecap:round; stroke-linejoin:round; stroke-width:2; stroke-opacity:0.1; fill:none" points="1552.76,2174.14 1552.76,47.2441 "/>
<polyline clip-path="url(#clip260)" style="stroke:#000000; stroke-linecap:round; stroke-linejoin:round; stroke-width:4; stroke-opacity:1; fill:none" points="202.594,2174.14 1552.76,2174.14 "/>
<polyline clip-path="url(#clip260)" style="stroke:#000000; stroke-linecap:round; stroke-linejoin:round; stroke-width:4; stroke-opacity:1; fill:none" points="202.594,2174.14 202.594,2155.24 "/>
<polyline clip-path="url(#clip260)" style="stroke:#000000; stroke-linecap:round; stroke-linejoin:round; stroke-width:4; stroke-opacity:1; fill:none" points="427.621,2174.14 427.621,2155.24 "/>
<polyline clip-path="url(#clip260)" style="stroke:#000000; stroke-linecap:round; stroke-linejoin:round; stroke-width:4; stroke-opacity:1; fill:none" points="652.648,2174.14 652.648,2155.24 "/>
<polyline clip-path="url(#clip260)" style="stroke:#000000; stroke-linecap:round; stroke-linejoin:round; stroke-width:4; stroke-opacity:1; fill:none" points="877.675,2174.14 877.675,2155.24 "/>
<polyline clip-path="url(#clip260)" style="stroke:#000000; stroke-linecap:round; stroke-linejoin:round; stroke-width:4; stroke-opacity:1; fill:none" points="1102.7,2174.14 1102.7,2155.24 "/>
<polyline clip-path="url(#clip260)" style="stroke:#000000; stroke-linecap:round; stroke-linejoin:round; stroke-width:4; stroke-opacity:1; fill:none" points="1327.73,2174.14 1327.73,2155.24 "/>
<polyline clip-path="url(#clip260)" style="stroke:#000000; stroke-linecap:round; stroke-linejoin:round; stroke-width:4; stroke-opacity:1; fill:none" points="1552.76,2174.14 1552.76,2155.24 "/>
<path clip-path="url(#clip260)" d="M202.594 2205.06 Q198.983 2205.06 197.154 2208.62 Q195.349 2212.16 195.349 2219.29 Q195.349 2226.4 197.154 2229.97 Q198.983 2233.51 202.594 2233.51 Q206.228 2233.51 208.034 2229.97 Q209.863 2226.4 209.863 2219.29 Q209.863 2212.16 208.034 2208.62 Q206.228 2205.06 202.594 2205.06 M202.594 2201.35 Q208.404 2201.35 211.46 2205.96 Q214.538 2210.54 214.538 2219.29 Q214.538 2228.02 211.46 2232.63 Q208.404 2237.21 202.594 2237.21 Q196.784 2237.21 193.705 2232.63 Q190.65 2228.02 190.65 2219.29 Q190.65 2210.54 193.705 2205.96 Q196.784 2201.35 202.594 2201.35 Z" fill="#000000" fill-rule="nonzero" fill-opacity="1" /><path clip-path="url(#clip260)" d="M402.309 2232.6 L409.947 2232.6 L409.947 2206.24 L401.637 2207.91 L401.637 2203.65 L409.901 2201.98 L414.577 2201.98 L414.577 2232.6 L422.216 2232.6 L422.216 2236.54 L402.309 2236.54 L402.309 2232.6 Z" fill="#000000" fill-rule="nonzero" fill-opacity="1" /><path clip-path="url(#clip260)" d="M441.66 2205.06 Q438.049 2205.06 436.221 2208.62 Q434.415 2212.16 434.415 2219.29 Q434.415 2226.4 436.221 2229.97 Q438.049 2233.51 441.66 2233.51 Q445.295 2233.51 447.1 2229.97 Q448.929 2226.4 448.929 2219.29 Q448.929 2212.16 447.1 2208.62 Q445.295 2205.06 441.66 2205.06 M441.66 2201.35 Q447.47 2201.35 450.526 2205.96 Q453.605 2210.54 453.605 2219.29 Q453.605 2228.02 450.526 2232.63 Q447.47 2237.21 441.66 2237.21 Q435.85 2237.21 432.771 2232.63 Q429.716 2228.02 429.716 2219.29 Q429.716 2210.54 432.771 2205.96 Q435.85 2201.35 441.66 2201.35 Z" fill="#000000" fill-rule="nonzero" fill-opacity="1" /><path clip-path="url(#clip260)" d="M631.421 2232.6 L647.741 2232.6 L647.741 2236.54 L625.796 2236.54 L625.796 2232.6 Q628.458 2229.85 633.042 2225.22 Q637.648 2220.57 638.829 2219.23 Q641.074 2216.7 641.954 2214.97 Q642.856 2213.21 642.856 2211.52 Q642.856 2208.76 640.912 2207.03 Q638.991 2205.29 635.889 2205.29 Q633.69 2205.29 631.236 2206.05 Q628.806 2206.82 626.028 2208.37 L626.028 2203.65 Q628.852 2202.51 631.306 2201.93 Q633.759 2201.35 635.796 2201.35 Q641.167 2201.35 644.361 2204.04 Q647.555 2206.73 647.555 2211.22 Q647.555 2213.35 646.745 2215.27 Q645.958 2217.16 643.852 2219.76 Q643.273 2220.43 640.171 2223.65 Q637.069 2226.84 631.421 2232.6 Z" fill="#000000" fill-rule="nonzero" fill-opacity="1" /><path clip-path="url(#clip260)" d="M667.555 2205.06 Q663.944 2205.06 662.116 2208.62 Q660.31 2212.16 660.31 2219.29 Q660.31 2226.4 662.116 2229.97 Q663.944 2233.51 667.555 2233.51 Q671.19 2233.51 672.995 2229.97 Q674.824 2226.4 674.824 2219.29 Q674.824 2212.16 672.995 2208.62 Q671.19 2205.06 667.555 2205.06 M667.555 2201.35 Q673.365 2201.35 676.421 2205.96 Q679.5 2210.54 679.5 2219.29 Q679.5 2228.02 676.421 2232.63 Q673.365 2237.21 667.555 2237.21 Q661.745 2237.21 658.666 2232.63 Q655.611 2228.02 655.611 2219.29 Q655.611 2210.54 658.666 2205.96 Q661.745 2201.35 667.555 2201.35 Z" fill="#000000" fill-rule="nonzero" fill-opacity="1" /><path clip-path="url(#clip260)" d="M866.518 2217.91 Q869.874 2218.62 871.749 2220.89 Q873.647 2223.16 873.647 2226.49 Q873.647 2231.61 870.129 2234.41 Q866.61 2237.21 860.129 2237.21 Q857.953 2237.21 855.638 2236.77 Q853.346 2236.35 850.893 2235.5 L850.893 2230.98 Q852.837 2232.12 855.152 2232.7 Q857.467 2233.28 859.99 2233.28 Q864.388 2233.28 866.68 2231.54 Q868.994 2229.8 868.994 2226.49 Q868.994 2223.44 866.842 2221.73 Q864.712 2219.99 860.893 2219.99 L856.865 2219.99 L856.865 2216.15 L861.078 2216.15 Q864.527 2216.15 866.356 2214.78 Q868.184 2213.39 868.184 2210.8 Q868.184 2208.14 866.286 2206.73 Q864.411 2205.29 860.893 2205.29 Q858.971 2205.29 856.772 2205.71 Q854.573 2206.12 851.934 2207 L851.934 2202.84 Q854.596 2202.1 856.911 2201.73 Q859.249 2201.35 861.309 2201.35 Q866.633 2201.35 869.735 2203.79 Q872.837 2206.19 872.837 2210.31 Q872.837 2213.18 871.194 2215.17 Q869.55 2217.14 866.518 2217.91 Z" fill="#000000" fill-rule="nonzero" fill-opacity="1" /><path clip-path="url(#clip260)" d="M892.513 2205.06 Q888.902 2205.06 887.073 2208.62 Q885.268 2212.16 885.268 2219.29 Q885.268 2226.4 887.073 2229.97 Q888.902 2233.51 892.513 2233.51 Q896.147 2233.51 897.953 2229.97 Q899.781 2226.4 899.781 2219.29 Q899.781 2212.16 897.953 2208.62 Q896.147 2205.06 892.513 2205.06 M892.513 2201.35 Q898.323 2201.35 901.379 2205.96 Q904.457 2210.54 904.457 2219.29 Q904.457 2228.02 901.379 2232.63 Q898.323 2237.21 892.513 2237.21 Q886.703 2237.21 883.624 2232.63 Q880.568 2228.02 880.568 2219.29 Q880.568 2210.54 883.624 2205.96 Q886.703 2201.35 892.513 2201.35 Z" fill="#000000" fill-rule="nonzero" fill-opacity="1" /><path clip-path="url(#clip260)" d="M1090.87 2206.05 L1079.07 2224.5 L1090.87 2224.5 L1090.87 2206.05 M1089.65 2201.98 L1095.53 2201.98 L1095.53 2224.5 L1100.46 2224.5 L1100.46 2228.39 L1095.53 2228.39 L1095.53 2236.54 L1090.87 2236.54 L1090.87 2228.39 L1075.27 2228.39 L1075.27 2223.88 L1089.65 2201.98 Z" fill="#000000" fill-rule="nonzero" fill-opacity="1" /><path clip-path="url(#clip260)" d="M1118.19 2205.06 Q1114.58 2205.06 1112.75 2208.62 Q1110.94 2212.16 1110.94 2219.29 Q1110.94 2226.4 1112.75 2229.97 Q1114.58 2233.51 1118.19 2233.51 Q1121.82 2233.51 1123.63 2229.97 Q1125.46 2226.4 1125.46 2219.29 Q1125.46 2212.16 1123.63 2208.62 Q1121.82 2205.06 1118.19 2205.06 M1118.19 2201.35 Q1124 2201.35 1127.05 2205.96 Q1130.13 2210.54 1130.13 2219.29 Q1130.13 2228.02 1127.05 2232.63 Q1124 2237.21 1118.19 2237.21 Q1112.38 2237.21 1109.3 2232.63 Q1106.24 2228.02 1106.24 2219.29 Q1106.24 2210.54 1109.3 2205.96 Q1112.38 2201.35 1118.19 2201.35 Z" fill="#000000" fill-rule="nonzero" fill-opacity="1" /><path clip-path="url(#clip260)" d="M1302.43 2201.98 L1320.78 2201.98 L1320.78 2205.92 L1306.71 2205.92 L1306.71 2214.39 Q1307.73 2214.04 1308.75 2213.88 Q1309.77 2213.69 1310.78 2213.69 Q1316.57 2213.69 1319.95 2216.86 Q1323.33 2220.04 1323.33 2225.45 Q1323.33 2231.03 1319.86 2234.13 Q1316.39 2237.21 1310.07 2237.21 Q1307.89 2237.21 1305.62 2236.84 Q1303.38 2236.47 1300.97 2235.73 L1300.97 2231.03 Q1303.05 2232.16 1305.28 2232.72 Q1307.5 2233.28 1309.97 2233.28 Q1313.98 2233.28 1316.32 2231.17 Q1318.65 2229.06 1318.65 2225.45 Q1318.65 2221.84 1316.32 2219.73 Q1313.98 2217.63 1309.97 2217.63 Q1308.1 2217.63 1306.22 2218.04 Q1304.37 2218.46 1302.43 2219.34 L1302.43 2201.98 Z" fill="#000000" fill-rule="nonzero" fill-opacity="1" /><path clip-path="url(#clip260)" d="M1342.54 2205.06 Q1338.93 2205.06 1337.1 2208.62 Q1335.3 2212.16 1335.3 2219.29 Q1335.3 2226.4 1337.1 2229.97 Q1338.93 2233.51 1342.54 2233.51 Q1346.18 2233.51 1347.98 2229.97 Q1349.81 2226.4 1349.81 2219.29 Q1349.81 2212.16 1347.98 2208.62 Q1346.18 2205.06 1342.54 2205.06 M1342.54 2201.35 Q1348.35 2201.35 1351.41 2205.96 Q1354.49 2210.54 1354.49 2219.29 Q1354.49 2228.02 1351.41 2232.63 Q1348.35 2237.21 1342.54 2237.21 Q1336.73 2237.21 1333.65 2232.63 Q1330.6 2228.02 1330.6 2219.29 Q1330.6 2210.54 1333.65 2205.96 Q1336.73 2201.35 1342.54 2201.35 Z" fill="#000000" fill-rule="nonzero" fill-opacity="1" /><path clip-path="url(#clip260)" d="M1538.16 2217.4 Q1535.01 2217.4 1533.16 2219.55 Q1531.33 2221.7 1531.33 2225.45 Q1531.33 2229.18 1533.16 2231.35 Q1535.01 2233.51 1538.16 2233.51 Q1541.31 2233.51 1543.14 2231.35 Q1544.99 2229.18 1544.99 2225.45 Q1544.99 2221.7 1543.14 2219.55 Q1541.31 2217.4 1538.16 2217.4 M1547.44 2202.74 L1547.44 2207 Q1545.68 2206.17 1543.88 2205.73 Q1542.1 2205.29 1540.34 2205.29 Q1535.71 2205.29 1533.25 2208.41 Q1530.82 2211.54 1530.48 2217.86 Q1531.84 2215.85 1533.9 2214.78 Q1535.96 2213.69 1538.44 2213.69 Q1543.65 2213.69 1546.66 2216.86 Q1549.69 2220.01 1549.69 2225.45 Q1549.69 2230.78 1546.54 2233.99 Q1543.39 2237.21 1538.16 2237.21 Q1532.17 2237.21 1528.99 2232.63 Q1525.82 2228.02 1525.82 2219.29 Q1525.82 2211.1 1529.71 2206.24 Q1533.6 2201.35 1540.15 2201.35 Q1541.91 2201.35 1543.69 2201.7 Q1545.5 2202.05 1547.44 2202.74 Z" fill="#000000" fill-rule="nonzero" fill-opacity="1" /><path clip-path="url(#clip260)" d="M1567.74 2205.06 Q1564.13 2205.06 1562.3 2208.62 Q1560.5 2212.16 1560.5 2219.29 Q1560.5 2226.4 1562.3 2229.97 Q1564.13 2233.51 1567.74 2233.51 Q1571.38 2233.51 1573.18 2229.97 Q1575.01 2226.4 1575.01 2219.29 Q1575.01 2212.16 1573.18 2208.62 Q1571.38 2205.06 1567.74 2205.06 M1567.74 2201.35 Q1573.55 2201.35 1576.61 2205.96 Q1579.69 2210.54 1579.69 2219.29 Q1579.69 2228.02 1576.61 2232.63 Q1573.55 2237.21 1567.74 2237.21 Q1561.93 2237.21 1558.86 2232.63 Q1555.8 2228.02 1555.8 2219.29 Q1555.8 2210.54 1558.86 2205.96 Q1561.93 2201.35 1567.74 2201.35 Z" fill="#000000" fill-rule="nonzero" fill-opacity="1" /><path clip-path="url(#clip260)" d="M740.319 2271.48 L749.899 2271.48 L762.026 2303.82 L774.216 2271.48 L783.797 2271.48 L783.797 2319 L777.526 2319 L777.526 2277.28 L765.273 2309.87 L758.811 2309.87 L746.557 2277.28 L746.557 2319 L740.319 2319 L740.319 2271.48 Z" fill="#000000" fill-rule="nonzero" fill-opacity="1" /><path clip-path="url(#clip260)" d="M812.442 2277.82 L803.721 2301.47 L821.195 2301.47 L812.442 2277.82 M808.814 2271.48 L816.103 2271.48 L834.213 2319 L827.529 2319 L823.2 2306.81 L801.78 2306.81 L797.451 2319 L790.672 2319 L808.814 2271.48 Z" fill="#000000" fill-rule="nonzero" fill-opacity="1" /><path clip-path="url(#clip260)" d="M847.581 2276.77 L847.581 2294.62 L855.666 2294.62 Q860.153 2294.62 862.604 2292.3 Q865.055 2289.98 865.055 2285.68 Q865.055 2281.41 862.604 2279.09 Q860.153 2276.77 855.666 2276.77 L847.581 2276.77 M841.152 2271.48 L855.666 2271.48 Q863.655 2271.48 867.729 2275.11 Q871.834 2278.71 871.834 2285.68 Q871.834 2292.71 867.729 2296.31 Q863.655 2299.91 855.666 2299.91 L847.581 2299.91 L847.581 2319 L841.152 2319 L841.152 2271.48 Z" fill="#000000" fill-rule="nonzero" fill-opacity="1" /><path clip-path="url(#clip260)" d="M880.46 2271.48 L910.506 2271.48 L910.506 2276.89 L886.889 2276.89 L886.889 2290.96 L909.519 2290.96 L909.519 2296.37 L886.889 2296.37 L886.889 2313.59 L911.079 2313.59 L911.079 2319 L880.46 2319 L880.46 2271.48 Z" fill="#000000" fill-rule="nonzero" fill-opacity="1" /><path clip-path="url(#clip260)" d="M922.887 2310.92 L929.603 2310.92 L929.603 2316.39 L924.383 2326.58 L920.277 2326.58 L922.887 2316.39 L922.887 2310.92 Z" fill="#000000" fill-rule="nonzero" fill-opacity="1" /><path clip-path="url(#clip260)" d="M1004.08 2298.09 Q1001.31 2298.09 999.721 2300.45 Q998.162 2302.8 998.162 2307 Q998.162 2311.14 999.721 2313.53 Q1001.31 2315.88 1004.08 2315.88 Q1006.79 2315.88 1008.35 2313.53 Q1009.94 2311.14 1009.94 2307 Q1009.94 2302.83 1008.35 2300.48 Q1006.79 2298.09 1004.08 2298.09 M1004.08 2294.05 Q1009.11 2294.05 1012.07 2297.55 Q1015.03 2301.05 1015.03 2307 Q1015.03 2312.96 1012.04 2316.46 Q1009.08 2319.93 1004.08 2319.93 Q998.989 2319.93 996.029 2316.46 Q993.069 2312.96 993.069 2307 Q993.069 2301.02 996.029 2297.55 Q999.021 2294.05 1004.08 2294.05 M971.235 2274.67 Q968.498 2274.67 966.906 2277.05 Q965.347 2279.41 965.347 2283.55 Q965.347 2287.75 966.906 2290.1 Q968.466 2292.46 971.235 2292.46 Q974.004 2292.46 975.564 2290.1 Q977.155 2287.75 977.155 2283.55 Q977.155 2279.44 975.564 2277.05 Q973.972 2274.67 971.235 2274.67 M999.976 2270.62 L1005.07 2270.62 L975.341 2319.93 L970.248 2319.93 L999.976 2270.62 M971.235 2270.62 Q976.264 2270.62 979.256 2274.13 Q982.248 2277.59 982.248 2283.55 Q982.248 2289.56 979.256 2293.03 Q976.296 2296.5 971.235 2296.5 Q966.174 2296.5 963.214 2293.03 Q960.286 2289.53 960.286 2283.55 Q960.286 2277.63 963.246 2274.13 Q966.206 2270.62 971.235 2270.62 Z" fill="#000000" fill-rule="nonzero" fill-opacity="1" /><polyline clip-path="url(#clip262)" style="stroke:#000000; stroke-linecap:round; stroke-linejoin:round; stroke-width:2; stroke-opacity:0.1; fill:none" points="202.594,1892.64 1552.76,1892.64 "/>
<polyline clip-path="url(#clip262)" style="stroke:#000000; stroke-linecap:round; stroke-linejoin:round; stroke-width:2; stroke-opacity:0.1; fill:none" points="202.594,1579.86 1552.76,1579.86 "/>
<polyline clip-path="url(#clip262)" style="stroke:#000000; stroke-linecap:round; stroke-linejoin:round; stroke-width:2; stroke-opacity:0.1; fill:none" points="202.594,1267.08 1552.76,1267.08 "/>
<polyline clip-path="url(#clip262)" style="stroke:#000000; stroke-linecap:round; stroke-linejoin:round; stroke-width:2; stroke-opacity:0.1; fill:none" points="202.594,954.303 1552.76,954.303 "/>
<polyline clip-path="url(#clip262)" style="stroke:#000000; stroke-linecap:round; stroke-linejoin:round; stroke-width:2; stroke-opacity:0.1; fill:none" points="202.594,641.524 1552.76,641.524 "/>
<polyline clip-path="url(#clip262)" style="stroke:#000000; stroke-linecap:round; stroke-linejoin:round; stroke-width:2; stroke-opacity:0.1; fill:none" points="202.594,328.745 1552.76,328.745 "/>
<polyline clip-path="url(#clip260)" style="stroke:#000000; stroke-linecap:round; stroke-linejoin:round; stroke-width:4; stroke-opacity:1; fill:none" points="202.594,2174.14 202.594,47.2441 "/>
<polyline clip-path="url(#clip260)" style="stroke:#000000; stroke-linecap:round; stroke-linejoin:round; stroke-width:4; stroke-opacity:1; fill:none" points="202.594,1892.64 221.492,1892.64 "/>
<polyline clip-path="url(#clip260)" style="stroke:#000000; stroke-linecap:round; stroke-linejoin:round; stroke-width:4; stroke-opacity:1; fill:none" points="202.594,1579.86 221.492,1579.86 "/>
<polyline clip-path="url(#clip260)" style="stroke:#000000; stroke-linecap:round; stroke-linejoin:round; stroke-width:4; stroke-opacity:1; fill:none" points="202.594,1267.08 221.492,1267.08 "/>
<polyline clip-path="url(#clip260)" style="stroke:#000000; stroke-linecap:round; stroke-linejoin:round; stroke-width:4; stroke-opacity:1; fill:none" points="202.594,954.303 221.492,954.303 "/>
<polyline clip-path="url(#clip260)" style="stroke:#000000; stroke-linecap:round; stroke-linejoin:round; stroke-width:4; stroke-opacity:1; fill:none" points="202.594,641.524 221.492,641.524 "/>
<polyline clip-path="url(#clip260)" style="stroke:#000000; stroke-linecap:round; stroke-linejoin:round; stroke-width:4; stroke-opacity:1; fill:none" points="202.594,328.745 221.492,328.745 "/>
<path clip-path="url(#clip260)" d="M115.298 1905.98 L122.937 1905.98 L122.937 1879.62 L114.627 1881.28 L114.627 1877.03 L122.891 1875.36 L127.566 1875.36 L127.566 1905.98 L135.205 1905.98 L135.205 1909.92 L115.298 1909.92 L115.298 1905.98 Z" fill="#000000" fill-rule="nonzero" fill-opacity="1" /><path clip-path="url(#clip260)" d="M154.65 1878.44 Q151.039 1878.44 149.21 1882 Q147.404 1885.54 147.404 1892.67 Q147.404 1899.78 149.21 1903.34 Q151.039 1906.89 154.65 1906.89 Q158.284 1906.89 160.089 1903.34 Q161.918 1899.78 161.918 1892.67 Q161.918 1885.54 160.089 1882 Q158.284 1878.44 154.65 1878.44 M154.65 1874.73 Q160.46 1874.73 163.515 1879.34 Q166.594 1883.92 166.594 1892.67 Q166.594 1901.4 163.515 1906.01 Q160.46 1910.59 154.65 1910.59 Q148.84 1910.59 145.761 1906.01 Q142.705 1901.4 142.705 1892.67 Q142.705 1883.92 145.761 1879.34 Q148.84 1874.73 154.65 1874.73 Z" fill="#000000" fill-rule="nonzero" fill-opacity="1" /><path clip-path="url(#clip260)" d="M118.516 1593.2 L134.835 1593.2 L134.835 1597.14 L112.891 1597.14 L112.891 1593.2 Q115.553 1590.45 120.136 1585.82 Q124.742 1581.17 125.923 1579.83 Q128.168 1577.3 129.048 1575.57 Q129.951 1573.81 129.951 1572.12 Q129.951 1569.36 128.006 1567.63 Q126.085 1565.89 122.983 1565.89 Q120.784 1565.89 118.33 1566.65 Q115.9 1567.42 113.122 1568.97 L113.122 1564.25 Q115.946 1563.11 118.4 1562.53 Q120.854 1561.96 122.891 1561.96 Q128.261 1561.96 131.455 1564.64 Q134.65 1567.33 134.65 1571.82 Q134.65 1573.95 133.84 1575.87 Q133.053 1577.77 130.946 1580.36 Q130.367 1581.03 127.266 1584.25 Q124.164 1587.44 118.516 1593.2 Z" fill="#000000" fill-rule="nonzero" fill-opacity="1" /><path clip-path="url(#clip260)" d="M154.65 1565.66 Q151.039 1565.66 149.21 1569.22 Q147.404 1572.77 147.404 1579.89 Q147.404 1587 149.21 1590.57 Q151.039 1594.11 154.65 1594.11 Q158.284 1594.11 160.089 1590.57 Q161.918 1587 161.918 1579.89 Q161.918 1572.77 160.089 1569.22 Q158.284 1565.66 154.65 1565.66 M154.65 1561.96 Q160.46 1561.96 163.515 1566.56 Q166.594 1571.14 166.594 1579.89 Q166.594 1588.62 163.515 1593.23 Q160.46 1597.81 154.65 1597.81 Q148.84 1597.81 145.761 1593.23 Q142.705 1588.62 142.705 1579.89 Q142.705 1571.14 145.761 1566.56 Q148.84 1561.96 154.65 1561.96 Z" fill="#000000" fill-rule="nonzero" fill-opacity="1" /><path clip-path="url(#clip260)" d="M128.654 1265.73 Q132.011 1266.44 133.886 1268.71 Q135.784 1270.98 135.784 1274.32 Q135.784 1279.43 132.266 1282.23 Q128.747 1285.03 122.266 1285.03 Q120.09 1285.03 117.775 1284.59 Q115.483 1284.18 113.03 1283.32 L113.03 1278.81 Q114.974 1279.94 117.289 1280.52 Q119.604 1281.1 122.127 1281.1 Q126.525 1281.1 128.816 1279.36 Q131.131 1277.63 131.131 1274.32 Q131.131 1271.26 128.978 1269.55 Q126.849 1267.81 123.029 1267.81 L119.002 1267.81 L119.002 1263.97 L123.215 1263.97 Q126.664 1263.97 128.492 1262.6 Q130.321 1261.21 130.321 1258.62 Q130.321 1255.96 128.423 1254.55 Q126.548 1253.11 123.029 1253.11 Q121.108 1253.11 118.909 1253.53 Q116.71 1253.94 114.071 1254.82 L114.071 1250.66 Q116.733 1249.92 119.048 1249.55 Q121.386 1249.18 123.446 1249.18 Q128.77 1249.18 131.872 1251.61 Q134.974 1254.01 134.974 1258.13 Q134.974 1261.01 133.33 1263 Q131.687 1264.96 128.654 1265.73 Z" fill="#000000" fill-rule="nonzero" fill-opacity="1" /><path clip-path="url(#clip260)" d="M154.65 1252.88 Q151.039 1252.88 149.21 1256.44 Q147.404 1259.99 147.404 1267.12 Q147.404 1274.22 149.21 1277.79 Q151.039 1281.33 154.65 1281.33 Q158.284 1281.33 160.089 1277.79 Q161.918 1274.22 161.918 1267.12 Q161.918 1259.99 160.089 1256.44 Q158.284 1252.88 154.65 1252.88 M154.65 1249.18 Q160.46 1249.18 163.515 1253.78 Q166.594 1258.37 166.594 1267.12 Q166.594 1275.84 163.515 1280.45 Q160.46 1285.03 154.65 1285.03 Q148.84 1285.03 145.761 1280.45 Q142.705 1275.84 142.705 1267.12 Q142.705 1258.37 145.761 1253.78 Q148.84 1249.18 154.65 1249.18 Z" fill="#000000" fill-rule="nonzero" fill-opacity="1" /><path clip-path="url(#clip260)" d="M127.335 941.097 L115.529 959.546 L127.335 959.546 L127.335 941.097 M126.108 937.023 L131.988 937.023 L131.988 959.546 L136.918 959.546 L136.918 963.434 L131.988 963.434 L131.988 971.583 L127.335 971.583 L127.335 963.434 L111.733 963.434 L111.733 958.921 L126.108 937.023 Z" fill="#000000" fill-rule="nonzero" fill-opacity="1" /><path clip-path="url(#clip260)" d="M154.65 940.101 Q151.039 940.101 149.21 943.666 Q147.404 947.208 147.404 954.337 Q147.404 961.444 149.21 965.009 Q151.039 968.55 154.65 968.55 Q158.284 968.55 160.089 965.009 Q161.918 961.444 161.918 954.337 Q161.918 947.208 160.089 943.666 Q158.284 940.101 154.65 940.101 M154.65 936.398 Q160.46 936.398 163.515 941.004 Q166.594 945.587 166.594 954.337 Q166.594 963.064 163.515 967.671 Q160.46 972.254 154.65 972.254 Q148.84 972.254 145.761 967.671 Q142.705 963.064 142.705 954.337 Q142.705 945.587 145.761 941.004 Q148.84 936.398 154.65 936.398 Z" fill="#000000" fill-rule="nonzero" fill-opacity="1" /><path clip-path="url(#clip260)" d="M114.534 624.244 L132.891 624.244 L132.891 628.179 L118.817 628.179 L118.817 636.651 Q119.835 636.304 120.854 636.142 Q121.872 635.957 122.891 635.957 Q128.678 635.957 132.057 639.128 Q135.437 642.299 135.437 647.716 Q135.437 653.295 131.965 656.396 Q128.492 659.475 122.173 659.475 Q119.997 659.475 117.729 659.105 Q115.483 658.734 113.076 657.994 L113.076 653.295 Q115.159 654.429 117.381 654.984 Q119.604 655.54 122.08 655.54 Q126.085 655.54 128.423 653.433 Q130.761 651.327 130.761 647.716 Q130.761 644.105 128.423 641.998 Q126.085 639.892 122.08 639.892 Q120.205 639.892 118.33 640.309 Q116.479 640.725 114.534 641.605 L114.534 624.244 Z" fill="#000000" fill-rule="nonzero" fill-opacity="1" /><path clip-path="url(#clip260)" d="M154.65 627.322 Q151.039 627.322 149.21 630.887 Q147.404 634.429 147.404 641.559 Q147.404 648.665 149.21 652.23 Q151.039 655.771 154.65 655.771 Q158.284 655.771 160.089 652.23 Q161.918 648.665 161.918 641.559 Q161.918 634.429 160.089 630.887 Q158.284 627.322 154.65 627.322 M154.65 623.619 Q160.46 623.619 163.515 628.225 Q166.594 632.809 166.594 641.559 Q166.594 650.285 163.515 654.892 Q160.46 659.475 154.65 659.475 Q148.84 659.475 145.761 654.892 Q142.705 650.285 142.705 641.559 Q142.705 632.809 145.761 628.225 Q148.84 623.619 154.65 623.619 Z" fill="#000000" fill-rule="nonzero" fill-opacity="1" /><path clip-path="url(#clip260)" d="M125.066 326.882 Q121.918 326.882 120.067 329.034 Q118.238 331.187 118.238 334.937 Q118.238 338.664 120.067 340.84 Q121.918 342.993 125.066 342.993 Q128.215 342.993 130.043 340.84 Q131.895 338.664 131.895 334.937 Q131.895 331.187 130.043 329.034 Q128.215 326.882 125.066 326.882 M134.349 312.229 L134.349 316.488 Q132.59 315.655 130.784 315.215 Q129.002 314.775 127.242 314.775 Q122.613 314.775 120.159 317.9 Q117.729 321.025 117.381 327.345 Q118.747 325.331 120.807 324.266 Q122.867 323.178 125.344 323.178 Q130.553 323.178 133.562 326.349 Q136.594 329.497 136.594 334.937 Q136.594 340.261 133.446 343.479 Q130.298 346.696 125.066 346.696 Q119.071 346.696 115.9 342.113 Q112.729 337.507 112.729 328.78 Q112.729 320.585 116.617 315.724 Q120.506 310.84 127.057 310.84 Q128.816 310.84 130.599 311.187 Q132.404 311.534 134.349 312.229 Z" fill="#000000" fill-rule="nonzero" fill-opacity="1" /><path clip-path="url(#clip260)" d="M154.65 314.544 Q151.039 314.544 149.21 318.108 Q147.404 321.65 147.404 328.78 Q147.404 335.886 149.21 339.451 Q151.039 342.993 154.65 342.993 Q158.284 342.993 160.089 339.451 Q161.918 335.886 161.918 328.78 Q161.918 321.65 160.089 318.108 Q158.284 314.544 154.65 314.544 M154.65 310.84 Q160.46 310.84 163.515 315.446 Q166.594 320.03 166.594 328.78 Q166.594 337.507 163.515 342.113 Q160.46 346.696 154.65 346.696 Q148.84 346.696 145.761 342.113 Q142.705 337.507 142.705 328.78 Q142.705 320.03 145.761 315.446 Q148.84 310.84 154.65 310.84 Z" fill="#000000" fill-rule="nonzero" fill-opacity="1" /><path clip-path="url(#clip260)" d="M17.6175 1184.5 L24.397 1184.5 Q21.3733 1187.75 19.8773 1191.44 Q18.3814 1195.1 18.3814 1199.24 Q18.3814 1207.39 23.3785 1211.72 Q28.3437 1216.04 37.765 1216.04 Q47.1544 1216.04 52.1515 1211.72 Q57.1167 1207.39 57.1167 1199.24 Q57.1167 1195.1 55.6208 1191.44 Q54.1248 1187.75 51.1011 1184.5 L57.8169 1184.5 Q60.1086 1187.88 61.2544 1191.66 Q62.4002 1195.42 62.4002 1199.62 Q62.4002 1210.41 55.8117 1216.62 Q49.1914 1222.82 37.765 1222.82 Q26.3067 1222.82 19.7182 1216.62 Q13.0978 1210.41 13.0978 1199.62 Q13.0978 1195.36 14.2437 1191.6 Q15.3577 1187.81 17.6175 1184.5 Z" fill="#000000" fill-rule="nonzero" fill-opacity="1" /><path clip-path="url(#clip260)" d="M25.8293 1175.05 L25.8293 1169.22 L42.5711 1169.22 L25.8293 1152.71 L25.8293 1145.51 L39.611 1159.13 L61.4772 1143.76 L61.4772 1150.32 L43.4941 1162.95 L49.8598 1169.22 L61.4772 1169.22 L61.4772 1175.05 L25.8293 1175.05 Z" fill="#000000" fill-rule="nonzero" fill-opacity="1" /><path clip-path="url(#clip260)" d="M45.0537 1129.82 L56.7984 1129.82 L56.7984 1121.48 Q56.7984 1117.47 55.3025 1115.37 Q53.7747 1113.27 50.9101 1113.27 Q48.0456 1113.27 46.5496 1115.37 Q45.0537 1117.47 45.0537 1121.48 L45.0537 1129.82 M30.5081 1129.82 L40.3749 1129.82 L40.3749 1122.12 Q40.3749 1118.81 39.0699 1116.71 Q37.7331 1114.61 35.3778 1114.61 Q33.0225 1114.61 31.7812 1116.71 Q30.5081 1118.81 30.5081 1122.12 L30.5081 1129.82 M25.8293 1135.68 L25.8293 1121.74 Q25.8293 1115.47 28.1209 1112.09 Q30.4126 1108.72 34.6458 1108.72 Q37.9241 1108.72 39.8656 1110.44 Q41.7754 1112.16 42.2528 1115.53 Q43.0167 1111.49 45.4356 1109.26 Q47.8546 1107.03 51.4831 1107.03 Q56.2573 1107.03 58.8673 1110.72 Q61.4772 1114.38 61.4772 1121.2 L61.4772 1135.68 L25.8293 1135.68 Z" fill="#000000" fill-rule="nonzero" fill-opacity="1" /><path clip-path="url(#clip260)" d="M53.3928 1096.21 L53.3928 1089.49 L61.4772 1089.49 L61.4772 1096.21 L53.3928 1096.21 Z" fill="#000000" fill-rule="nonzero" fill-opacity="1" /><path clip-path="url(#clip260)" d="M61.4772 1060.02 L56.0664 1060.02 Q56.0664 1055.34 52.6607 1055.34 L13.9572 1055.34 L13.9572 1046.68 L53.7111 1025.61 L22.7737 1025.61 Q18.6997 1025.61 16.3444 1023.13 Q13.9572 1020.62 13.9572 1014.7 L19.3681 1014.7 Q19.3681 1019.38 22.7737 1019.38 L61.4772 1019.38 L61.4772 1028.03 L21.7234 1049.1 L52.6607 1049.1 Q56.7348 1049.1 59.1219 1051.62 Q61.4772 1054.1 61.4772 1060.02 M41.6799 1014.28 Q37.2875 1014.28 34.2638 1011.99 Q31.2083 1009.7 31.2083 1006.42 Q31.2083 1003.14 34.2638 1000.85 Q37.2875 998.56 41.6799 998.56 Q46.0722 998.56 49.1277 1000.85 Q52.1515 1003.14 52.1515 1006.42 Q52.1515 1009.7 49.1277 1011.99 Q46.0722 1014.28 41.6799 1014.28 M41.6799 1009.83 Q44.1625 1009.83 45.8176 1008.94 Q47.4408 1008.01 47.4408 1006.42 Q47.4408 1004.83 45.8176 1003.94 Q44.1625 1003.02 41.6799 1003.02 Q39.1972 1003.02 37.574 1003.94 Q35.9189 1004.83 35.9189 1006.42 Q35.9189 1008.01 37.574 1008.94 Q39.1972 1009.83 41.6799 1009.83 M61.4772 1014.28 L57.5623 1014.28 L57.5623 998.56 L61.4772 998.56 L61.4772 1014.28 Z" fill="#000000" fill-rule="nonzero" fill-opacity="1" /><path clip-path="url(#clip262)" d="M202.594 2186.65 L202.594 2186.65 L202.594 2161.63 L202.594 2161.63 L202.594 2186.65 L202.594 2186.65  Z" fill="#009af9" fill-rule="evenodd" fill-opacity="1"/>
<polyline clip-path="url(#clip262)" style="stroke:#000000; stroke-linecap:round; stroke-linejoin:round; stroke-width:4; stroke-opacity:1; fill:none" points="202.594,2186.65 202.594,2186.65 202.594,2161.63 202.594,2186.65 "/>
<path clip-path="url(#clip262)" d="M202.594 2155.37 L202.594 2155.37 L202.594 2130.35 L202.594 2130.35 L202.594 2155.37 L202.594 2155.37  Z" fill="#009af9" fill-rule="evenodd" fill-opacity="1"/>
<polyline clip-path="url(#clip262)" style="stroke:#000000; stroke-linecap:round; stroke-linejoin:round; stroke-width:4; stroke-opacity:1; fill:none" points="202.594,2155.37 202.594,2155.37 202.594,2130.35 202.594,2155.37 "/>
<path clip-path="url(#clip262)" d="M204.014 2124.1 L202.594 2124.1 L202.594 2099.07 L204.014 2099.07 L204.014 2124.1 L204.014 2124.1  Z" fill="#009af9" fill-rule="evenodd" fill-opacity="1"/>
<polyline clip-path="url(#clip262)" style="stroke:#000000; stroke-linecap:round; stroke-linejoin:round; stroke-width:4; stroke-opacity:1; fill:none" points="204.014,2124.1 202.594,2124.1 202.594,2099.07 204.014,2099.07 204.014,2124.1 "/>
<path clip-path="url(#clip262)" d="M210.196 2092.82 L202.594 2092.82 L202.594 2067.8 L210.196 2067.8 L210.196 2092.82 L210.196 2092.82  Z" fill="#009af9" fill-rule="evenodd" fill-opacity="1"/>
<polyline clip-path="url(#clip262)" style="stroke:#000000; stroke-linecap:round; stroke-linejoin:round; stroke-width:4; stroke-opacity:1; fill:none" points="210.196,2092.82 202.594,2092.82 202.594,2067.8 210.196,2067.8 210.196,2092.82 "/>
<path clip-path="url(#clip262)" d="M211.005 2061.54 L202.594 2061.54 L202.594 2036.52 L211.005 2036.52 L211.005 2061.54 L211.005 2061.54  Z" fill="#009af9" fill-rule="evenodd" fill-opacity="1"/>
<polyline clip-path="url(#clip262)" style="stroke:#000000; stroke-linecap:round; stroke-linejoin:round; stroke-width:4; stroke-opacity:1; fill:none" points="211.005,2061.54 202.594,2061.54 202.594,2036.52 211.005,2036.52 211.005,2061.54 "/>
<path clip-path="url(#clip262)" d="M232.204 2030.26 L202.594 2030.26 L202.594 2005.24 L232.204 2005.24 L232.204 2030.26 L232.204 2030.26  Z" fill="#009af9" fill-rule="evenodd" fill-opacity="1"/>
<polyline clip-path="url(#clip262)" style="stroke:#000000; stroke-linecap:round; stroke-linejoin:round; stroke-width:4; stroke-opacity:1; fill:none" points="232.204,2030.26 202.594,2030.26 202.594,2005.24 232.204,2005.24 232.204,2030.26 "/>
<path clip-path="url(#clip262)" d="M236.377 1998.98 L202.594 1998.98 L202.594 1973.96 L236.377 1973.96 L236.377 1998.98 L236.377 1998.98  Z" fill="#009af9" fill-rule="evenodd" fill-opacity="1"/>
<polyline clip-path="url(#clip262)" style="stroke:#000000; stroke-linecap:round; stroke-linejoin:round; stroke-width:4; stroke-opacity:1; fill:none" points="236.377,1998.98 202.594,1998.98 202.594,1973.96 236.377,1973.96 236.377,1998.98 "/>
<path clip-path="url(#clip262)" d="M238.114 1967.71 L202.594 1967.71 L202.594 1942.68 L238.114 1942.68 L238.114 1967.71 L238.114 1967.71  Z" fill="#009af9" fill-rule="evenodd" fill-opacity="1"/>
<polyline clip-path="url(#clip262)" style="stroke:#000000; stroke-linecap:round; stroke-linejoin:round; stroke-width:4; stroke-opacity:1; fill:none" points="238.114,1967.71 202.594,1967.71 202.594,1942.68 238.114,1942.68 238.114,1967.71 "/>
<path clip-path="url(#clip262)" d="M240.591 1936.43 L202.594 1936.43 L202.594 1911.41 L240.591 1911.41 L240.591 1936.43 L240.591 1936.43  Z" fill="#009af9" fill-rule="evenodd" fill-opacity="1"/>
<polyline clip-path="url(#clip262)" style="stroke:#000000; stroke-linecap:round; stroke-linejoin:round; stroke-width:4; stroke-opacity:1; fill:none" points="240.591,1936.43 202.594,1936.43 202.594,1911.41 240.591,1911.41 240.591,1936.43 "/>
<path clip-path="url(#clip262)" d="M264.169 1905.15 L202.594 1905.15 L202.594 1880.13 L264.169 1880.13 L264.169 1905.15 L264.169 1905.15  Z" fill="#009af9" fill-rule="evenodd" fill-opacity="1"/>
<polyline clip-path="url(#clip262)" style="stroke:#000000; stroke-linecap:round; stroke-linejoin:round; stroke-width:4; stroke-opacity:1; fill:none" points="264.169,1905.15 202.594,1905.15 202.594,1880.13 264.169,1880.13 264.169,1905.15 "/>
<path clip-path="url(#clip262)" d="M280.096 1873.87 L202.594 1873.87 L202.594 1848.85 L280.096 1848.85 L280.096 1873.87 L280.096 1873.87  Z" fill="#009af9" fill-rule="evenodd" fill-opacity="1"/>
<polyline clip-path="url(#clip262)" style="stroke:#000000; stroke-linecap:round; stroke-linejoin:round; stroke-width:4; stroke-opacity:1; fill:none" points="280.096,1873.87 202.594,1873.87 202.594,1848.85 280.096,1848.85 280.096,1873.87 "/>
<path clip-path="url(#clip262)" d="M280.703 1842.59 L202.594 1842.59 L202.594 1817.57 L280.703 1817.57 L280.703 1842.59 L280.703 1842.59  Z" fill="#009af9" fill-rule="evenodd" fill-opacity="1"/>
<polyline clip-path="url(#clip262)" style="stroke:#000000; stroke-linecap:round; stroke-linejoin:round; stroke-width:4; stroke-opacity:1; fill:none" points="280.703,1842.59 202.594,1842.59 202.594,1817.57 280.703,1817.57 280.703,1842.59 "/>
<path clip-path="url(#clip262)" d="M283.839 1811.32 L202.594 1811.32 L202.594 1786.29 L283.839 1786.29 L283.839 1811.32 L283.839 1811.32  Z" fill="#009af9" fill-rule="evenodd" fill-opacity="1"/>
<polyline clip-path="url(#clip262)" style="stroke:#000000; stroke-linecap:round; stroke-linejoin:round; stroke-width:4; stroke-opacity:1; fill:none" points="283.839,1811.32 202.594,1811.32 202.594,1786.29 283.839,1786.29 283.839,1811.32 "/>
<path clip-path="url(#clip262)" d="M298.32 1780.04 L202.594 1780.04 L202.594 1755.02 L298.32 1755.02 L298.32 1780.04 L298.32 1780.04  Z" fill="#009af9" fill-rule="evenodd" fill-opacity="1"/>
<polyline clip-path="url(#clip262)" style="stroke:#000000; stroke-linecap:round; stroke-linejoin:round; stroke-width:4; stroke-opacity:1; fill:none" points="298.32,1780.04 202.594,1780.04 202.594,1755.02 298.32,1755.02 298.32,1780.04 "/>
<path clip-path="url(#clip262)" d="M298.971 1748.76 L202.594 1748.76 L202.594 1723.74 L298.971 1723.74 L298.971 1748.76 L298.971 1748.76  Z" fill="#009af9" fill-rule="evenodd" fill-opacity="1"/>
<polyline clip-path="url(#clip262)" style="stroke:#000000; stroke-linecap:round; stroke-linejoin:round; stroke-width:4; stroke-opacity:1; fill:none" points="298.971,1748.76 202.594,1748.76 202.594,1723.74 298.971,1723.74 298.971,1748.76 "/>
<path clip-path="url(#clip262)" d="M317.288 1717.48 L202.594 1717.48 L202.594 1692.46 L317.288 1692.46 L317.288 1717.48 L317.288 1717.48  Z" fill="#009af9" fill-rule="evenodd" fill-opacity="1"/>
<polyline clip-path="url(#clip262)" style="stroke:#000000; stroke-linecap:round; stroke-linejoin:round; stroke-width:4; stroke-opacity:1; fill:none" points="317.288,1717.48 202.594,1717.48 202.594,1692.46 317.288,1692.46 317.288,1717.48 "/>
<path clip-path="url(#clip262)" d="M336.138 1686.2 L202.594 1686.2 L202.594 1661.18 L336.138 1661.18 L336.138 1686.2 L336.138 1686.2  Z" fill="#009af9" fill-rule="evenodd" fill-opacity="1"/>
<polyline clip-path="url(#clip262)" style="stroke:#000000; stroke-linecap:round; stroke-linejoin:round; stroke-width:4; stroke-opacity:1; fill:none" points="336.138,1686.2 202.594,1686.2 202.594,1661.18 336.138,1661.18 336.138,1686.2 "/>
<path clip-path="url(#clip262)" d="M341.203 1654.93 L202.594 1654.93 L202.594 1629.9 L341.203 1629.9 L341.203 1654.93 L341.203 1654.93  Z" fill="#009af9" fill-rule="evenodd" fill-opacity="1"/>
<polyline clip-path="url(#clip262)" style="stroke:#000000; stroke-linecap:round; stroke-linejoin:round; stroke-width:4; stroke-opacity:1; fill:none" points="341.203,1654.93 202.594,1654.93 202.594,1629.9 341.203,1629.9 341.203,1654.93 "/>
<path clip-path="url(#clip262)" d="M341.765 1623.65 L202.594 1623.65 L202.594 1598.63 L341.765 1598.63 L341.765 1623.65 L341.765 1623.65  Z" fill="#009af9" fill-rule="evenodd" fill-opacity="1"/>
<polyline clip-path="url(#clip262)" style="stroke:#000000; stroke-linecap:round; stroke-linejoin:round; stroke-width:4; stroke-opacity:1; fill:none" points="341.765,1623.65 202.594,1623.65 202.594,1598.63 341.765,1598.63 341.765,1623.65 "/>
<path clip-path="url(#clip262)" d="M345.961 1592.37 L202.594 1592.37 L202.594 1567.35 L345.961 1567.35 L345.961 1592.37 L345.961 1592.37  Z" fill="#009af9" fill-rule="evenodd" fill-opacity="1"/>
<polyline clip-path="url(#clip262)" style="stroke:#000000; stroke-linecap:round; stroke-linejoin:round; stroke-width:4; stroke-opacity:1; fill:none" points="345.961,1592.37 202.594,1592.37 202.594,1567.35 345.961,1567.35 345.961,1592.37 "/>
<path clip-path="url(#clip262)" d="M360.983 1561.09 L202.594 1561.09 L202.594 1536.07 L360.983 1536.07 L360.983 1561.09 L360.983 1561.09  Z" fill="#009af9" fill-rule="evenodd" fill-opacity="1"/>
<polyline clip-path="url(#clip262)" style="stroke:#000000; stroke-linecap:round; stroke-linejoin:round; stroke-width:4; stroke-opacity:1; fill:none" points="360.983,1561.09 202.594,1561.09 202.594,1536.07 360.983,1536.07 360.983,1561.09 "/>
<path clip-path="url(#clip262)" d="M373.402 1529.82 L202.594 1529.82 L202.594 1504.79 L373.402 1504.79 L373.402 1529.82 L373.402 1529.82  Z" fill="#009af9" fill-rule="evenodd" fill-opacity="1"/>
<polyline clip-path="url(#clip262)" style="stroke:#000000; stroke-linecap:round; stroke-linejoin:round; stroke-width:4; stroke-opacity:1; fill:none" points="373.402,1529.82 202.594,1529.82 202.594,1504.79 373.402,1504.79 373.402,1529.82 "/>
<path clip-path="url(#clip262)" d="M388.712 1498.54 L202.594 1498.54 L202.594 1473.52 L388.712 1473.52 L388.712 1498.54 L388.712 1498.54  Z" fill="#009af9" fill-rule="evenodd" fill-opacity="1"/>
<polyline clip-path="url(#clip262)" style="stroke:#000000; stroke-linecap:round; stroke-linejoin:round; stroke-width:4; stroke-opacity:1; fill:none" points="388.712,1498.54 202.594,1498.54 202.594,1473.52 388.712,1473.52 388.712,1498.54 "/>
<path clip-path="url(#clip262)" d="M396.965 1467.26 L202.594 1467.26 L202.594 1442.24 L396.965 1442.24 L396.965 1467.26 L396.965 1467.26  Z" fill="#009af9" fill-rule="evenodd" fill-opacity="1"/>
<polyline clip-path="url(#clip262)" style="stroke:#000000; stroke-linecap:round; stroke-linejoin:round; stroke-width:4; stroke-opacity:1; fill:none" points="396.965,1467.26 202.594,1467.26 202.594,1442.24 396.965,1442.24 396.965,1467.26 "/>
<path clip-path="url(#clip262)" d="M397.714 1435.98 L202.594 1435.98 L202.594 1410.96 L397.714 1410.96 L397.714 1435.98 L397.714 1435.98  Z" fill="#009af9" fill-rule="evenodd" fill-opacity="1"/>
<polyline clip-path="url(#clip262)" style="stroke:#000000; stroke-linecap:round; stroke-linejoin:round; stroke-width:4; stroke-opacity:1; fill:none" points="397.714,1435.98 202.594,1435.98 202.594,1410.96 397.714,1410.96 397.714,1435.98 "/>
<path clip-path="url(#clip262)" d="M398.273 1404.7 L202.594 1404.7 L202.594 1379.68 L398.273 1379.68 L398.273 1404.7 L398.273 1404.7  Z" fill="#009af9" fill-rule="evenodd" fill-opacity="1"/>
<polyline clip-path="url(#clip262)" style="stroke:#000000; stroke-linecap:round; stroke-linejoin:round; stroke-width:4; stroke-opacity:1; fill:none" points="398.273,1404.7 202.594,1404.7 202.594,1379.68 398.273,1379.68 398.273,1404.7 "/>
<path clip-path="url(#clip262)" d="M418.565 1373.43 L202.594 1373.43 L202.594 1348.4 L418.565 1348.4 L418.565 1373.43 L418.565 1373.43  Z" fill="#009af9" fill-rule="evenodd" fill-opacity="1"/>
<polyline clip-path="url(#clip262)" style="stroke:#000000; stroke-linecap:round; stroke-linejoin:round; stroke-width:4; stroke-opacity:1; fill:none" points="418.565,1373.43 202.594,1373.43 202.594,1348.4 418.565,1348.4 418.565,1373.43 "/>
<path clip-path="url(#clip262)" d="M419.686 1342.15 L202.594 1342.15 L202.594 1317.13 L419.686 1317.13 L419.686 1342.15 L419.686 1342.15  Z" fill="#009af9" fill-rule="evenodd" fill-opacity="1"/>
<polyline clip-path="url(#clip262)" style="stroke:#000000; stroke-linecap:round; stroke-linejoin:round; stroke-width:4; stroke-opacity:1; fill:none" points="419.686,1342.15 202.594,1342.15 202.594,1317.13 419.686,1317.13 419.686,1342.15 "/>
<path clip-path="url(#clip262)" d="M425.839 1310.87 L202.594 1310.87 L202.594 1285.85 L425.839 1285.85 L425.839 1310.87 L425.839 1310.87  Z" fill="#009af9" fill-rule="evenodd" fill-opacity="1"/>
<polyline clip-path="url(#clip262)" style="stroke:#000000; stroke-linecap:round; stroke-linejoin:round; stroke-width:4; stroke-opacity:1; fill:none" points="425.839,1310.87 202.594,1310.87 202.594,1285.85 425.839,1285.85 425.839,1310.87 "/>
<path clip-path="url(#clip262)" d="M427.641 1279.59 L202.594 1279.59 L202.594 1254.57 L427.641 1254.57 L427.641 1279.59 L427.641 1279.59  Z" fill="#009af9" fill-rule="evenodd" fill-opacity="1"/>
<polyline clip-path="url(#clip262)" style="stroke:#000000; stroke-linecap:round; stroke-linejoin:round; stroke-width:4; stroke-opacity:1; fill:none" points="427.641,1279.59 202.594,1279.59 202.594,1254.57 427.641,1254.57 427.641,1279.59 "/>
<path clip-path="url(#clip262)" d="M438.556 1248.31 L202.594 1248.31 L202.594 1223.29 L438.556 1223.29 L438.556 1248.31 L438.556 1248.31  Z" fill="#009af9" fill-rule="evenodd" fill-opacity="1"/>
<polyline clip-path="url(#clip262)" style="stroke:#000000; stroke-linecap:round; stroke-linejoin:round; stroke-width:4; stroke-opacity:1; fill:none" points="438.556,1248.31 202.594,1248.31 202.594,1223.29 438.556,1223.29 438.556,1248.31 "/>
<path clip-path="url(#clip262)" d="M444.377 1217.04 L202.594 1217.04 L202.594 1192.01 L444.377 1192.01 L444.377 1217.04 L444.377 1217.04  Z" fill="#009af9" fill-rule="evenodd" fill-opacity="1"/>
<polyline clip-path="url(#clip262)" style="stroke:#000000; stroke-linecap:round; stroke-linejoin:round; stroke-width:4; stroke-opacity:1; fill:none" points="444.377,1217.04 202.594,1217.04 202.594,1192.01 444.377,1192.01 444.377,1217.04 "/>
<path clip-path="url(#clip262)" d="M462.062 1185.76 L202.594 1185.76 L202.594 1160.74 L462.062 1160.74 L462.062 1185.76 L462.062 1185.76  Z" fill="#009af9" fill-rule="evenodd" fill-opacity="1"/>
<polyline clip-path="url(#clip262)" style="stroke:#000000; stroke-linecap:round; stroke-linejoin:round; stroke-width:4; stroke-opacity:1; fill:none" points="462.062,1185.76 202.594,1185.76 202.594,1160.74 462.062,1160.74 462.062,1185.76 "/>
<path clip-path="url(#clip262)" d="M473.33 1154.48 L202.594 1154.48 L202.594 1129.46 L473.33 1129.46 L473.33 1154.48 L473.33 1154.48  Z" fill="#009af9" fill-rule="evenodd" fill-opacity="1"/>
<polyline clip-path="url(#clip262)" style="stroke:#000000; stroke-linecap:round; stroke-linejoin:round; stroke-width:4; stroke-opacity:1; fill:none" points="473.33,1154.48 202.594,1154.48 202.594,1129.46 473.33,1129.46 473.33,1154.48 "/>
<path clip-path="url(#clip262)" d="M486.203 1123.2 L202.594 1123.2 L202.594 1098.18 L486.203 1098.18 L486.203 1123.2 L486.203 1123.2  Z" fill="#009af9" fill-rule="evenodd" fill-opacity="1"/>
<polyline clip-path="url(#clip262)" style="stroke:#000000; stroke-linecap:round; stroke-linejoin:round; stroke-width:4; stroke-opacity:1; fill:none" points="486.203,1123.2 202.594,1123.2 202.594,1098.18 486.203,1098.18 486.203,1123.2 "/>
<path clip-path="url(#clip262)" d="M492.608 1091.93 L202.594 1091.93 L202.594 1066.9 L492.608 1066.9 L492.608 1091.93 L492.608 1091.93  Z" fill="#009af9" fill-rule="evenodd" fill-opacity="1"/>
<polyline clip-path="url(#clip262)" style="stroke:#000000; stroke-linecap:round; stroke-linejoin:round; stroke-width:4; stroke-opacity:1; fill:none" points="492.608,1091.93 202.594,1091.93 202.594,1066.9 492.608,1066.9 492.608,1091.93 "/>
<path clip-path="url(#clip262)" d="M499.69 1060.65 L202.594 1060.65 L202.594 1035.63 L499.69 1035.63 L499.69 1060.65 L499.69 1060.65  Z" fill="#009af9" fill-rule="evenodd" fill-opacity="1"/>
<polyline clip-path="url(#clip262)" style="stroke:#000000; stroke-linecap:round; stroke-linejoin:round; stroke-width:4; stroke-opacity:1; fill:none" points="499.69,1060.65 202.594,1060.65 202.594,1035.63 499.69,1035.63 499.69,1060.65 "/>
<path clip-path="url(#clip262)" d="M500.87 1029.37 L202.594 1029.37 L202.594 1004.35 L500.87 1004.35 L500.87 1029.37 L500.87 1029.37  Z" fill="#009af9" fill-rule="evenodd" fill-opacity="1"/>
<polyline clip-path="url(#clip262)" style="stroke:#000000; stroke-linecap:round; stroke-linejoin:round; stroke-width:4; stroke-opacity:1; fill:none" points="500.87,1029.37 202.594,1029.37 202.594,1004.35 500.87,1004.35 500.87,1029.37 "/>
<path clip-path="url(#clip262)" d="M529.19 998.092 L202.594 998.092 L202.594 973.069 L529.19 973.069 L529.19 998.092 L529.19 998.092  Z" fill="#009af9" fill-rule="evenodd" fill-opacity="1"/>
<polyline clip-path="url(#clip262)" style="stroke:#000000; stroke-linecap:round; stroke-linejoin:round; stroke-width:4; stroke-opacity:1; fill:none" points="529.19,998.092 202.594,998.092 202.594,973.069 529.19,973.069 529.19,998.092 "/>
<path clip-path="url(#clip262)" d="M538.553 966.814 L202.594 966.814 L202.594 941.791 L538.553 941.791 L538.553 966.814 L538.553 966.814  Z" fill="#009af9" fill-rule="evenodd" fill-opacity="1"/>
<polyline clip-path="url(#clip262)" style="stroke:#000000; stroke-linecap:round; stroke-linejoin:round; stroke-width:4; stroke-opacity:1; fill:none" points="538.553,966.814 202.594,966.814 202.594,941.791 538.553,941.791 538.553,966.814 "/>
<path clip-path="url(#clip262)" d="M546.698 935.536 L202.594 935.536 L202.594 910.514 L546.698 910.514 L546.698 935.536 L546.698 935.536  Z" fill="#009af9" fill-rule="evenodd" fill-opacity="1"/>
<polyline clip-path="url(#clip262)" style="stroke:#000000; stroke-linecap:round; stroke-linejoin:round; stroke-width:4; stroke-opacity:1; fill:none" points="546.698,935.536 202.594,935.536 202.594,910.514 546.698,910.514 546.698,935.536 "/>
<path clip-path="url(#clip262)" d="M560.129 904.258 L202.594 904.258 L202.594 879.236 L560.129 879.236 L560.129 904.258 L560.129 904.258  Z" fill="#009af9" fill-rule="evenodd" fill-opacity="1"/>
<polyline clip-path="url(#clip262)" style="stroke:#000000; stroke-linecap:round; stroke-linejoin:round; stroke-width:4; stroke-opacity:1; fill:none" points="560.129,904.258 202.594,904.258 202.594,879.236 560.129,879.236 560.129,904.258 "/>
<path clip-path="url(#clip262)" d="M572.388 872.98 L202.594 872.98 L202.594 847.958 L572.388 847.958 L572.388 872.98 L572.388 872.98  Z" fill="#009af9" fill-rule="evenodd" fill-opacity="1"/>
<polyline clip-path="url(#clip262)" style="stroke:#000000; stroke-linecap:round; stroke-linejoin:round; stroke-width:4; stroke-opacity:1; fill:none" points="572.388,872.98 202.594,872.98 202.594,847.958 572.388,847.958 572.388,872.98 "/>
<path clip-path="url(#clip262)" d="M583.506 841.702 L202.594 841.702 L202.594 816.68 L583.506 816.68 L583.506 841.702 L583.506 841.702  Z" fill="#009af9" fill-rule="evenodd" fill-opacity="1"/>
<polyline clip-path="url(#clip262)" style="stroke:#000000; stroke-linecap:round; stroke-linejoin:round; stroke-width:4; stroke-opacity:1; fill:none" points="583.506,841.702 202.594,841.702 202.594,816.68 583.506,816.68 583.506,841.702 "/>
<path clip-path="url(#clip262)" d="M585.425 810.424 L202.594 810.424 L202.594 785.402 L585.425 785.402 L585.425 810.424 L585.425 810.424  Z" fill="#009af9" fill-rule="evenodd" fill-opacity="1"/>
<polyline clip-path="url(#clip262)" style="stroke:#000000; stroke-linecap:round; stroke-linejoin:round; stroke-width:4; stroke-opacity:1; fill:none" points="585.425,810.424 202.594,810.424 202.594,785.402 585.425,785.402 585.425,810.424 "/>
<path clip-path="url(#clip262)" d="M600.152 779.146 L202.594 779.146 L202.594 754.124 L600.152 754.124 L600.152 779.146 L600.152 779.146  Z" fill="#009af9" fill-rule="evenodd" fill-opacity="1"/>
<polyline clip-path="url(#clip262)" style="stroke:#000000; stroke-linecap:round; stroke-linejoin:round; stroke-width:4; stroke-opacity:1; fill:none" points="600.152,779.146 202.594,779.146 202.594,754.124 600.152,754.124 600.152,779.146 "/>
<path clip-path="url(#clip262)" d="M604.448 747.869 L202.594 747.869 L202.594 722.846 L604.448 722.846 L604.448 747.869 L604.448 747.869  Z" fill="#009af9" fill-rule="evenodd" fill-opacity="1"/>
<polyline clip-path="url(#clip262)" style="stroke:#000000; stroke-linecap:round; stroke-linejoin:round; stroke-width:4; stroke-opacity:1; fill:none" points="604.448,747.869 202.594,747.869 202.594,722.846 604.448,722.846 604.448,747.869 "/>
<path clip-path="url(#clip262)" d="M621.259 716.591 L202.594 716.591 L202.594 691.568 L621.259 691.568 L621.259 716.591 L621.259 716.591  Z" fill="#009af9" fill-rule="evenodd" fill-opacity="1"/>
<polyline clip-path="url(#clip262)" style="stroke:#000000; stroke-linecap:round; stroke-linejoin:round; stroke-width:4; stroke-opacity:1; fill:none" points="621.259,716.591 202.594,716.591 202.594,691.568 621.259,691.568 621.259,716.591 "/>
<path clip-path="url(#clip262)" d="M626.543 685.313 L202.594 685.313 L202.594 660.291 L626.543 660.291 L626.543 685.313 L626.543 685.313  Z" fill="#009af9" fill-rule="evenodd" fill-opacity="1"/>
<polyline clip-path="url(#clip262)" style="stroke:#000000; stroke-linecap:round; stroke-linejoin:round; stroke-width:4; stroke-opacity:1; fill:none" points="626.543,685.313 202.594,685.313 202.594,660.291 626.543,660.291 626.543,685.313 "/>
<path clip-path="url(#clip262)" d="M626.544 654.035 L202.594 654.035 L202.594 629.013 L626.544 629.013 L626.544 654.035 L626.544 654.035  Z" fill="#009af9" fill-rule="evenodd" fill-opacity="1"/>
<polyline clip-path="url(#clip262)" style="stroke:#000000; stroke-linecap:round; stroke-linejoin:round; stroke-width:4; stroke-opacity:1; fill:none" points="626.544,654.035 202.594,654.035 202.594,629.013 626.544,629.013 626.544,654.035 "/>
<path clip-path="url(#clip262)" d="M628.467 622.757 L202.594 622.757 L202.594 597.735 L628.467 597.735 L628.467 622.757 L628.467 622.757  Z" fill="#009af9" fill-rule="evenodd" fill-opacity="1"/>
<polyline clip-path="url(#clip262)" style="stroke:#000000; stroke-linecap:round; stroke-linejoin:round; stroke-width:4; stroke-opacity:1; fill:none" points="628.467,622.757 202.594,622.757 202.594,597.735 628.467,597.735 628.467,622.757 "/>
<path clip-path="url(#clip262)" d="M661.231 591.479 L202.594 591.479 L202.594 566.457 L661.231 566.457 L661.231 591.479 L661.231 591.479  Z" fill="#009af9" fill-rule="evenodd" fill-opacity="1"/>
<polyline clip-path="url(#clip262)" style="stroke:#000000; stroke-linecap:round; stroke-linejoin:round; stroke-width:4; stroke-opacity:1; fill:none" points="661.231,591.479 202.594,591.479 202.594,566.457 661.231,566.457 661.231,591.479 "/>
<path clip-path="url(#clip262)" d="M663.706 560.201 L202.594 560.201 L202.594 535.179 L663.706 535.179 L663.706 560.201 L663.706 560.201  Z" fill="#009af9" fill-rule="evenodd" fill-opacity="1"/>
<polyline clip-path="url(#clip262)" style="stroke:#000000; stroke-linecap:round; stroke-linejoin:round; stroke-width:4; stroke-opacity:1; fill:none" points="663.706,560.201 202.594,560.201 202.594,535.179 663.706,535.179 663.706,560.201 "/>
<path clip-path="url(#clip262)" d="M687.174 528.923 L202.594 528.923 L202.594 503.901 L687.174 503.901 L687.174 528.923 L687.174 528.923  Z" fill="#009af9" fill-rule="evenodd" fill-opacity="1"/>
<polyline clip-path="url(#clip262)" style="stroke:#000000; stroke-linecap:round; stroke-linejoin:round; stroke-width:4; stroke-opacity:1; fill:none" points="687.174,528.923 202.594,528.923 202.594,503.901 687.174,503.901 687.174,528.923 "/>
<path clip-path="url(#clip262)" d="M688.677 497.646 L202.594 497.646 L202.594 472.623 L688.677 472.623 L688.677 497.646 L688.677 497.646  Z" fill="#009af9" fill-rule="evenodd" fill-opacity="1"/>
<polyline clip-path="url(#clip262)" style="stroke:#000000; stroke-linecap:round; stroke-linejoin:round; stroke-width:4; stroke-opacity:1; fill:none" points="688.677,497.646 202.594,497.646 202.594,472.623 688.677,472.623 688.677,497.646 "/>
<path clip-path="url(#clip262)" d="M693.502 466.368 L202.594 466.368 L202.594 441.345 L693.502 441.345 L693.502 466.368 L693.502 466.368  Z" fill="#009af9" fill-rule="evenodd" fill-opacity="1"/>
<polyline clip-path="url(#clip262)" style="stroke:#000000; stroke-linecap:round; stroke-linejoin:round; stroke-width:4; stroke-opacity:1; fill:none" points="693.502,466.368 202.594,466.368 202.594,441.345 693.502,441.345 693.502,466.368 "/>
<path clip-path="url(#clip262)" d="M720.302 435.09 L202.594 435.09 L202.594 410.067 L720.302 410.067 L720.302 435.09 L720.302 435.09  Z" fill="#009af9" fill-rule="evenodd" fill-opacity="1"/>
<polyline clip-path="url(#clip262)" style="stroke:#000000; stroke-linecap:round; stroke-linejoin:round; stroke-width:4; stroke-opacity:1; fill:none" points="720.302,435.09 202.594,435.09 202.594,410.067 720.302,410.067 720.302,435.09 "/>
<path clip-path="url(#clip262)" d="M723.471 403.812 L202.594 403.812 L202.594 378.79 L723.471 378.79 L723.471 403.812 L723.471 403.812  Z" fill="#009af9" fill-rule="evenodd" fill-opacity="1"/>
<polyline clip-path="url(#clip262)" style="stroke:#000000; stroke-linecap:round; stroke-linejoin:round; stroke-width:4; stroke-opacity:1; fill:none" points="723.471,403.812 202.594,403.812 202.594,378.79 723.471,378.79 723.471,403.812 "/>
<path clip-path="url(#clip262)" d="M735.59 372.534 L202.594 372.534 L202.594 347.512 L735.59 347.512 L735.59 372.534 L735.59 372.534  Z" fill="#009af9" fill-rule="evenodd" fill-opacity="1"/>
<polyline clip-path="url(#clip262)" style="stroke:#000000; stroke-linecap:round; stroke-linejoin:round; stroke-width:4; stroke-opacity:1; fill:none" points="735.59,372.534 202.594,372.534 202.594,347.512 735.59,347.512 735.59,372.534 "/>
<path clip-path="url(#clip262)" d="M810.572 341.256 L202.594 341.256 L202.594 316.234 L810.572 316.234 L810.572 341.256 L810.572 341.256  Z" fill="#009af9" fill-rule="evenodd" fill-opacity="1"/>
<polyline clip-path="url(#clip262)" style="stroke:#000000; stroke-linecap:round; stroke-linejoin:round; stroke-width:4; stroke-opacity:1; fill:none" points="810.572,341.256 202.594,341.256 202.594,316.234 810.572,316.234 810.572,341.256 "/>
<path clip-path="url(#clip262)" d="M868.416 309.978 L202.594 309.978 L202.594 284.956 L868.416 284.956 L868.416 309.978 L868.416 309.978  Z" fill="#009af9" fill-rule="evenodd" fill-opacity="1"/>
<polyline clip-path="url(#clip262)" style="stroke:#000000; stroke-linecap:round; stroke-linejoin:round; stroke-width:4; stroke-opacity:1; fill:none" points="868.416,309.978 202.594,309.978 202.594,284.956 868.416,284.956 868.416,309.978 "/>
<path clip-path="url(#clip262)" d="M907.336 278.7 L202.594 278.7 L202.594 253.678 L907.336 253.678 L907.336 278.7 L907.336 278.7  Z" fill="#009af9" fill-rule="evenodd" fill-opacity="1"/>
<polyline clip-path="url(#clip262)" style="stroke:#000000; stroke-linecap:round; stroke-linejoin:round; stroke-width:4; stroke-opacity:1; fill:none" points="907.336,278.7 202.594,278.7 202.594,253.678 907.336,253.678 907.336,278.7 "/>
<path clip-path="url(#clip262)" d="M908.194 247.423 L202.594 247.423 L202.594 222.4 L908.194 222.4 L908.194 247.423 L908.194 247.423  Z" fill="#009af9" fill-rule="evenodd" fill-opacity="1"/>
<polyline clip-path="url(#clip262)" style="stroke:#000000; stroke-linecap:round; stroke-linejoin:round; stroke-width:4; stroke-opacity:1; fill:none" points="908.194,247.423 202.594,247.423 202.594,222.4 908.194,222.4 908.194,247.423 "/>
<path clip-path="url(#clip262)" d="M1015.05 216.145 L202.594 216.145 L202.594 191.122 L1015.05 191.122 L1015.05 216.145 L1015.05 216.145  Z" fill="#009af9" fill-rule="evenodd" fill-opacity="1"/>
<polyline clip-path="url(#clip262)" style="stroke:#000000; stroke-linecap:round; stroke-linejoin:round; stroke-width:4; stroke-opacity:1; fill:none" points="1015.05,216.145 202.594,216.145 202.594,191.122 1015.05,191.122 1015.05,216.145 "/>
<path clip-path="url(#clip262)" d="M1059.92 184.867 L202.594 184.867 L202.594 159.844 L1059.92 159.844 L1059.92 184.867 L1059.92 184.867  Z" fill="#009af9" fill-rule="evenodd" fill-opacity="1"/>
<polyline clip-path="url(#clip262)" style="stroke:#000000; stroke-linecap:round; stroke-linejoin:round; stroke-width:4; stroke-opacity:1; fill:none" points="1059.92,184.867 202.594,184.867 202.594,159.844 1059.92,159.844 1059.92,184.867 "/>
<path clip-path="url(#clip262)" d="M1061.81 153.589 L202.594 153.589 L202.594 128.567 L1061.81 128.567 L1061.81 153.589 L1061.81 153.589  Z" fill="#009af9" fill-rule="evenodd" fill-opacity="1"/>
<polyline clip-path="url(#clip262)" style="stroke:#000000; stroke-linecap:round; stroke-linejoin:round; stroke-width:4; stroke-opacity:1; fill:none" points="1061.81,153.589 202.594,153.589 202.594,128.567 1061.81,128.567 1061.81,153.589 "/>
<path clip-path="url(#clip262)" d="M1196.18 122.311 L202.594 122.311 L202.594 97.2887 L1196.18 97.2887 L1196.18 122.311 L1196.18 122.311  Z" fill="#009af9" fill-rule="evenodd" fill-opacity="1"/>
<polyline clip-path="url(#clip262)" style="stroke:#000000; stroke-linecap:round; stroke-linejoin:round; stroke-width:4; stroke-opacity:1; fill:none" points="1196.18,122.311 202.594,122.311 202.594,97.2887 1196.18,97.2887 1196.18,122.311 "/>
<path clip-path="url(#clip262)" d="M1222.03 91.0331 L202.594 91.0331 L202.594 66.0108 L1222.03 66.0108 L1222.03 91.0331 L1222.03 91.0331  Z" fill="#009af9" fill-rule="evenodd" fill-opacity="1"/>
<polyline clip-path="url(#clip262)" style="stroke:#000000; stroke-linecap:round; stroke-linejoin:round; stroke-width:4; stroke-opacity:1; fill:none" points="1222.03,91.0331 202.594,91.0331 202.594,66.0108 1222.03,66.0108 1222.03,91.0331 "/>
<path clip-path="url(#clip262)" d="M1448.54 59.7552 L202.594 59.7552 L202.594 34.7329 L1448.54 34.7329 L1448.54 59.7552 L1448.54 59.7552  Z" fill="#009af9" fill-rule="evenodd" fill-opacity="1"/>
<polyline clip-path="url(#clip262)" style="stroke:#000000; stroke-linecap:round; stroke-linejoin:round; stroke-width:4; stroke-opacity:1; fill:none" points="1448.54,59.7552 202.594,59.7552 202.594,34.7329 1448.54,34.7329 1448.54,59.7552 "/>
<circle clip-path="url(#clip262)" style="fill:#009af9; stroke:none; fill-opacity:0" cx="337.61" cy="2164.26" r="2"/>
<circle clip-path="url(#clip262)" style="fill:#009af9; stroke:none; fill-opacity:0" cx="360.113" cy="2158.46" r="2"/>
<circle clip-path="url(#clip262)" style="fill:#009af9; stroke:none; fill-opacity:0" cx="382.616" cy="2156.05" r="2"/>
<circle clip-path="url(#clip262)" style="fill:#009af9; stroke:none; fill-opacity:0" cx="405.118" cy="2152.6" r="2"/>
<circle clip-path="url(#clip262)" style="fill:#009af9; stroke:none; fill-opacity:0" cx="427.621" cy="2119.83" r="2"/>
<circle clip-path="url(#clip262)" style="fill:#009af9; stroke:none; fill-opacity:0" cx="450.124" cy="2097.69" r="2"/>
<circle clip-path="url(#clip262)" style="fill:#009af9; stroke:none; fill-opacity:0" cx="472.626" cy="2096.85" r="2"/>
<circle clip-path="url(#clip262)" style="fill:#009af9; stroke:none; fill-opacity:0" cx="495.129" cy="2092.49" r="2"/>
<circle clip-path="url(#clip262)" style="fill:#009af9; stroke:none; fill-opacity:0" cx="517.632" cy="2072.36" r="2"/>
<circle clip-path="url(#clip262)" style="fill:#009af9; stroke:none; fill-opacity:0" cx="540.135" cy="2071.46" r="2"/>
<circle clip-path="url(#clip262)" style="fill:#009af9; stroke:none; fill-opacity:0" cx="562.637" cy="2046" r="2"/>
<circle clip-path="url(#clip262)" style="fill:#009af9; stroke:none; fill-opacity:0" cx="585.14" cy="2019.8" r="2"/>
<circle clip-path="url(#clip262)" style="fill:#009af9; stroke:none; fill-opacity:0" cx="607.643" cy="2012.76" r="2"/>
<circle clip-path="url(#clip262)" style="fill:#009af9; stroke:none; fill-opacity:0" cx="630.145" cy="2011.97" r="2"/>
<circle clip-path="url(#clip262)" style="fill:#009af9; stroke:none; fill-opacity:0" cx="652.648" cy="2006.14" r="2"/>
<circle clip-path="url(#clip262)" style="fill:#009af9; stroke:none; fill-opacity:0" cx="675.151" cy="1985.26" r="2"/>
<circle clip-path="url(#clip262)" style="fill:#009af9; stroke:none; fill-opacity:0" cx="697.653" cy="1968" r="2"/>
<circle clip-path="url(#clip262)" style="fill:#009af9; stroke:none; fill-opacity:0" cx="720.156" cy="1946.72" r="2"/>
<circle clip-path="url(#clip262)" style="fill:#009af9; stroke:none; fill-opacity:0" cx="742.659" cy="1935.25" r="2"/>
<circle clip-path="url(#clip262)" style="fill:#009af9; stroke:none; fill-opacity:0" cx="765.161" cy="1934.21" r="2"/>
<circle clip-path="url(#clip262)" style="fill:#009af9; stroke:none; fill-opacity:0" cx="787.664" cy="1933.43" r="2"/>
<circle clip-path="url(#clip262)" style="fill:#009af9; stroke:none; fill-opacity:0" cx="810.167" cy="1905.23" r="2"/>
<circle clip-path="url(#clip262)" style="fill:#009af9; stroke:none; fill-opacity:0" cx="832.67" cy="1903.67" r="2"/>
<circle clip-path="url(#clip262)" style="fill:#009af9; stroke:none; fill-opacity:0" cx="855.172" cy="1895.12" r="2"/>
<circle clip-path="url(#clip262)" style="fill:#009af9; stroke:none; fill-opacity:0" cx="877.675" cy="1892.61" r="2"/>
<circle clip-path="url(#clip262)" style="fill:#009af9; stroke:none; fill-opacity:0" cx="900.178" cy="1877.44" r="2"/>
<circle clip-path="url(#clip262)" style="fill:#009af9; stroke:none; fill-opacity:0" cx="922.68" cy="1869.35" r="2"/>
<circle clip-path="url(#clip262)" style="fill:#009af9; stroke:none; fill-opacity:0" cx="945.183" cy="1844.77" r="2"/>
<circle clip-path="url(#clip262)" style="fill:#009af9; stroke:none; fill-opacity:0" cx="967.686" cy="1829.11" r="2"/>
<circle clip-path="url(#clip262)" style="fill:#009af9; stroke:none; fill-opacity:0" cx="990.188" cy="1811.21" r="2"/>
<circle clip-path="url(#clip262)" style="fill:#009af9; stroke:none; fill-opacity:0" cx="1012.69" cy="1802.31" r="2"/>
<circle clip-path="url(#clip262)" style="fill:#009af9; stroke:none; fill-opacity:0" cx="1035.19" cy="1792.47" r="2"/>
<circle clip-path="url(#clip262)" style="fill:#009af9; stroke:none; fill-opacity:0" cx="1057.7" cy="1790.83" r="2"/>
<circle clip-path="url(#clip262)" style="fill:#009af9; stroke:none; fill-opacity:0" cx="1080.2" cy="1751.46" r="2"/>
<circle clip-path="url(#clip262)" style="fill:#009af9; stroke:none; fill-opacity:0" cx="1102.7" cy="1738.45" r="2"/>
<circle clip-path="url(#clip262)" style="fill:#009af9; stroke:none; fill-opacity:0" cx="1125.2" cy="1727.13" r="2"/>
<circle clip-path="url(#clip262)" style="fill:#009af9; stroke:none; fill-opacity:0" cx="1147.71" cy="1708.46" r="2"/>
<circle clip-path="url(#clip262)" style="fill:#009af9; stroke:none; fill-opacity:0" cx="1170.21" cy="1691.42" r="2"/>
<circle clip-path="url(#clip262)" style="fill:#009af9; stroke:none; fill-opacity:0" cx="1192.71" cy="1675.97" r="2"/>
<circle clip-path="url(#clip262)" style="fill:#009af9; stroke:none; fill-opacity:0" cx="1215.22" cy="1673.3" r="2"/>
<circle clip-path="url(#clip262)" style="fill:#009af9; stroke:none; fill-opacity:0" cx="1237.72" cy="1652.83" r="2"/>
<circle clip-path="url(#clip262)" style="fill:#009af9; stroke:none; fill-opacity:0" cx="1260.22" cy="1646.86" r="2"/>
<circle clip-path="url(#clip262)" style="fill:#009af9; stroke:none; fill-opacity:0" cx="1282.72" cy="1623.49" r="2"/>
<circle clip-path="url(#clip262)" style="fill:#009af9; stroke:none; fill-opacity:0" cx="1305.23" cy="1616.15" r="2"/>
<circle clip-path="url(#clip262)" style="fill:#009af9; stroke:none; fill-opacity:0" cx="1327.73" cy="1616.14" r="2"/>
<circle clip-path="url(#clip262)" style="fill:#009af9; stroke:none; fill-opacity:0" cx="1350.23" cy="1613.47" r="2"/>
<circle clip-path="url(#clip262)" style="fill:#009af9; stroke:none; fill-opacity:0" cx="1372.73" cy="1567.93" r="2"/>
<circle clip-path="url(#clip262)" style="fill:#009af9; stroke:none; fill-opacity:0" cx="1395.24" cy="1564.49" r="2"/>
<circle clip-path="url(#clip262)" style="fill:#009af9; stroke:none; fill-opacity:0" cx="1417.74" cy="1531.87" r="2"/>
<circle clip-path="url(#clip262)" style="fill:#009af9; stroke:none; fill-opacity:0" cx="1440.24" cy="1529.78" r="2"/>
<circle clip-path="url(#clip262)" style="fill:#009af9; stroke:none; fill-opacity:0" cx="1462.75" cy="1523.08" r="2"/>
<circle clip-path="url(#clip262)" style="fill:#009af9; stroke:none; fill-opacity:0" cx="1485.25" cy="1485.82" r="2"/>
<circle clip-path="url(#clip262)" style="fill:#009af9; stroke:none; fill-opacity:0" cx="1507.75" cy="1481.42" r="2"/>
<circle clip-path="url(#clip262)" style="fill:#009af9; stroke:none; fill-opacity:0" cx="1530.25" cy="1464.57" r="2"/>
<circle clip-path="url(#clip262)" style="fill:#009af9; stroke:none; fill-opacity:0" cx="1552.76" cy="1360.35" r="2"/>
</svg>
