<?xml version="1.0" encoding="utf-8"?>
<svg xmlns="http://www.w3.org/2000/svg" xmlns:xlink="http://www.w3.org/1999/xlink" width="600" height="400" viewBox="0 0 2400 1600">
<defs>
  <clipPath id="clip200">
    <rect x="0" y="0" width="2400" height="1600"/>
  </clipPath>
</defs>
<path clip-path="url(#clip200)" d="M0 1600 L2400 1600 L2400 0 L0 0  Z" fill="#ffffff" fill-rule="evenodd" fill-opacity="1"/>
<defs>
  <clipPath id="clip201">
    <rect x="480" y="0" width="1681" height="1600"/>
  </clipPath>
</defs>
<path clip-path="url(#clip200)" d="M205.121 1423.18 L2135.71 1423.18 L2135.71 47.2441 L205.121 47.2441  Z" fill="#ffffff" fill-rule="evenodd" fill-opacity="1"/>
<defs>
  <clipPath id="clip202">
    <rect x="205" y="47" width="1932" height="1377"/>
  </clipPath>
</defs>
<polyline clip-path="url(#clip202)" style="stroke:#000000; stroke-linecap:round; stroke-linejoin:round; stroke-width:2; stroke-opacity:0.1; fill:none" points="241.363,1423.18 241.363,47.2441 "/>
<polyline clip-path="url(#clip202)" style="stroke:#000000; stroke-linecap:round; stroke-linejoin:round; stroke-width:2; stroke-opacity:0.1; fill:none" points="701.291,1423.18 701.291,47.2441 "/>
<polyline clip-path="url(#clip202)" style="stroke:#000000; stroke-linecap:round; stroke-linejoin:round; stroke-width:2; stroke-opacity:0.1; fill:none" points="1161.22,1423.18 1161.22,47.2441 "/>
<polyline clip-path="url(#clip202)" style="stroke:#000000; stroke-linecap:round; stroke-linejoin:round; stroke-width:2; stroke-opacity:0.1; fill:none" points="1621.15,1423.18 1621.15,47.2441 "/>
<polyline clip-path="url(#clip202)" style="stroke:#000000; stroke-linecap:round; stroke-linejoin:round; stroke-width:2; stroke-opacity:0.1; fill:none" points="2081.07,1423.18 2081.07,47.2441 "/>
<polyline clip-path="url(#clip200)" style="stroke:#000000; stroke-linecap:round; stroke-linejoin:round; stroke-width:4; stroke-opacity:1; fill:none" points="205.121,1423.18 2135.71,1423.18 "/>
<polyline clip-path="url(#clip200)" style="stroke:#000000; stroke-linecap:round; stroke-linejoin:round; stroke-width:4; stroke-opacity:1; fill:none" points="241.363,1423.18 241.363,1404.28 "/>
<polyline clip-path="url(#clip200)" style="stroke:#000000; stroke-linecap:round; stroke-linejoin:round; stroke-width:4; stroke-opacity:1; fill:none" points="701.291,1423.18 701.291,1404.28 "/>
<polyline clip-path="url(#clip200)" style="stroke:#000000; stroke-linecap:round; stroke-linejoin:round; stroke-width:4; stroke-opacity:1; fill:none" points="1161.22,1423.18 1161.22,1404.28 "/>
<polyline clip-path="url(#clip200)" style="stroke:#000000; stroke-linecap:round; stroke-linejoin:round; stroke-width:4; stroke-opacity:1; fill:none" points="1621.15,1423.18 1621.15,1404.28 "/>
<polyline clip-path="url(#clip200)" style="stroke:#000000; stroke-linecap:round; stroke-linejoin:round; stroke-width:4; stroke-opacity:1; fill:none" points="2081.07,1423.18 2081.07,1404.28 "/>
<path clip-path="url(#clip200)" d="M241.363 1454.1 Q237.752 1454.1 235.923 1457.66 Q234.118 1461.2 234.118 1468.33 Q234.118 1475.44 235.923 1479.01 Q237.752 1482.55 241.363 1482.55 Q244.998 1482.55 246.803 1479.01 Q248.632 1475.44 248.632 1468.33 Q248.632 1461.2 246.803 1457.66 Q244.998 1454.1 241.363 1454.1 M241.363 1450.39 Q247.173 1450.39 250.229 1455 Q253.308 1459.58 253.308 1468.33 Q253.308 1477.06 250.229 1481.67 Q247.173 1486.25 241.363 1486.25 Q235.553 1486.25 232.474 1481.67 Q229.419 1477.06 229.419 1468.33 Q229.419 1459.58 232.474 1455 Q235.553 1450.39 241.363 1450.39 Z" fill="#000000" fill-rule="nonzero" fill-opacity="1" /><path clip-path="url(#clip200)" d="M680.562 1481.64 L696.881 1481.64 L696.881 1485.58 L674.937 1485.58 L674.937 1481.64 Q677.599 1478.89 682.182 1474.26 Q686.789 1469.61 687.969 1468.27 Q690.214 1465.74 691.094 1464.01 Q691.997 1462.25 691.997 1460.56 Q691.997 1457.8 690.052 1456.07 Q688.131 1454.33 685.029 1454.33 Q682.83 1454.33 680.377 1455.09 Q677.946 1455.86 675.168 1457.41 L675.168 1452.69 Q677.992 1451.55 680.446 1450.97 Q682.9 1450.39 684.937 1450.39 Q690.307 1450.39 693.501 1453.08 Q696.696 1455.77 696.696 1460.26 Q696.696 1462.39 695.886 1464.31 Q695.099 1466.2 692.992 1468.8 Q692.414 1469.47 689.312 1472.69 Q686.21 1475.88 680.562 1481.64 Z" fill="#000000" fill-rule="nonzero" fill-opacity="1" /><path clip-path="url(#clip200)" d="M706.742 1451.02 L725.099 1451.02 L725.099 1454.96 L711.025 1454.96 L711.025 1463.43 Q712.043 1463.08 713.062 1462.92 Q714.08 1462.73 715.099 1462.73 Q720.886 1462.73 724.265 1465.9 Q727.645 1469.08 727.645 1474.49 Q727.645 1480.07 724.173 1483.17 Q720.7 1486.25 714.381 1486.25 Q712.205 1486.25 709.937 1485.88 Q707.691 1485.51 705.284 1484.77 L705.284 1480.07 Q707.367 1481.2 709.589 1481.76 Q711.812 1482.32 714.288 1482.32 Q718.293 1482.32 720.631 1480.21 Q722.969 1478.1 722.969 1474.49 Q722.969 1470.88 720.631 1468.77 Q718.293 1466.67 714.288 1466.67 Q712.413 1466.67 710.538 1467.08 Q708.687 1467.5 706.742 1468.38 L706.742 1451.02 Z" fill="#000000" fill-rule="nonzero" fill-opacity="1" /><path clip-path="url(#clip200)" d="M1135.92 1451.02 L1154.27 1451.02 L1154.27 1454.96 L1140.2 1454.96 L1140.2 1463.43 Q1141.22 1463.08 1142.24 1462.92 Q1143.26 1462.73 1144.27 1462.73 Q1150.06 1462.73 1153.44 1465.9 Q1156.82 1469.08 1156.82 1474.49 Q1156.82 1480.07 1153.35 1483.17 Q1149.88 1486.25 1143.56 1486.25 Q1141.38 1486.25 1139.11 1485.88 Q1136.87 1485.51 1134.46 1484.77 L1134.46 1480.07 Q1136.54 1481.2 1138.76 1481.76 Q1140.99 1482.32 1143.46 1482.32 Q1147.47 1482.32 1149.81 1480.21 Q1152.14 1478.1 1152.14 1474.49 Q1152.14 1470.88 1149.81 1468.77 Q1147.47 1466.67 1143.46 1466.67 Q1141.59 1466.67 1139.71 1467.08 Q1137.86 1467.5 1135.92 1468.38 L1135.92 1451.02 Z" fill="#000000" fill-rule="nonzero" fill-opacity="1" /><path clip-path="url(#clip200)" d="M1176.03 1454.1 Q1172.42 1454.1 1170.59 1457.66 Q1168.79 1461.2 1168.79 1468.33 Q1168.79 1475.44 1170.59 1479.01 Q1172.42 1482.55 1176.03 1482.55 Q1179.67 1482.55 1181.47 1479.01 Q1183.3 1475.44 1183.3 1468.33 Q1183.3 1461.2 1181.47 1457.66 Q1179.67 1454.1 1176.03 1454.1 M1176.03 1450.39 Q1181.84 1450.39 1184.9 1455 Q1187.98 1459.58 1187.98 1468.33 Q1187.98 1477.06 1184.9 1481.67 Q1181.84 1486.25 1176.03 1486.25 Q1170.22 1486.25 1167.14 1481.67 Q1164.09 1477.06 1164.09 1468.33 Q1164.09 1459.58 1167.14 1455 Q1170.22 1450.39 1176.03 1450.39 Z" fill="#000000" fill-rule="nonzero" fill-opacity="1" /><path clip-path="url(#clip200)" d="M1595 1451.02 L1617.22 1451.02 L1617.22 1453.01 L1604.68 1485.58 L1599.79 1485.58 L1611.6 1454.96 L1595 1454.96 L1595 1451.02 Z" fill="#000000" fill-rule="nonzero" fill-opacity="1" /><path clip-path="url(#clip200)" d="M1626.39 1451.02 L1644.75 1451.02 L1644.75 1454.96 L1630.67 1454.96 L1630.67 1463.43 Q1631.69 1463.08 1632.71 1462.92 Q1633.73 1462.73 1634.75 1462.73 Q1640.53 1462.73 1643.91 1465.9 Q1647.29 1469.08 1647.29 1474.49 Q1647.29 1480.07 1643.82 1483.17 Q1640.35 1486.25 1634.03 1486.25 Q1631.85 1486.25 1629.58 1485.88 Q1627.34 1485.51 1624.93 1484.77 L1624.93 1480.07 Q1627.01 1481.2 1629.24 1481.76 Q1631.46 1482.32 1633.94 1482.32 Q1637.94 1482.32 1640.28 1480.21 Q1642.62 1478.1 1642.62 1474.49 Q1642.62 1470.88 1640.28 1468.77 Q1637.94 1466.67 1633.94 1466.67 Q1632.06 1466.67 1630.19 1467.08 Q1628.33 1467.5 1626.39 1468.38 L1626.39 1451.02 Z" fill="#000000" fill-rule="nonzero" fill-opacity="1" /><path clip-path="url(#clip200)" d="M2040.68 1481.64 L2048.32 1481.64 L2048.32 1455.28 L2040.01 1456.95 L2040.01 1452.69 L2048.27 1451.02 L2052.95 1451.02 L2052.95 1481.64 L2060.59 1481.64 L2060.59 1485.58 L2040.68 1485.58 L2040.68 1481.64 Z" fill="#000000" fill-rule="nonzero" fill-opacity="1" /><path clip-path="url(#clip200)" d="M2080.03 1454.1 Q2076.42 1454.1 2074.59 1457.66 Q2072.79 1461.2 2072.79 1468.33 Q2072.79 1475.44 2074.59 1479.01 Q2076.42 1482.55 2080.03 1482.55 Q2083.67 1482.55 2085.47 1479.01 Q2087.3 1475.44 2087.3 1468.33 Q2087.3 1461.2 2085.47 1457.66 Q2083.67 1454.1 2080.03 1454.1 M2080.03 1450.39 Q2085.84 1450.39 2088.9 1455 Q2091.98 1459.58 2091.98 1468.33 Q2091.98 1477.06 2088.9 1481.67 Q2085.84 1486.25 2080.03 1486.25 Q2074.22 1486.25 2071.14 1481.67 Q2068.09 1477.06 2068.09 1468.33 Q2068.09 1459.58 2071.14 1455 Q2074.22 1450.39 2080.03 1450.39 Z" fill="#000000" fill-rule="nonzero" fill-opacity="1" /><path clip-path="url(#clip200)" d="M2110.19 1454.1 Q2106.58 1454.1 2104.75 1457.66 Q2102.95 1461.2 2102.95 1468.33 Q2102.95 1475.44 2104.75 1479.01 Q2106.58 1482.55 2110.19 1482.55 Q2113.83 1482.55 2115.63 1479.01 Q2117.46 1475.44 2117.46 1468.33 Q2117.46 1461.2 2115.63 1457.66 Q2113.83 1454.1 2110.19 1454.1 M2110.19 1450.39 Q2116 1450.39 2119.06 1455 Q2122.14 1459.58 2122.14 1468.33 Q2122.14 1477.06 2119.06 1481.67 Q2116 1486.25 2110.19 1486.25 Q2104.38 1486.25 2101.3 1481.67 Q2098.25 1477.06 2098.25 1468.33 Q2098.25 1459.58 2101.3 1455 Q2104.38 1450.39 2110.19 1450.39 Z" fill="#000000" fill-rule="nonzero" fill-opacity="1" /><path clip-path="url(#clip200)" d="M1169.48 1522.27 L1169.48 1532.4 L1181.54 1532.4 L1181.54 1536.95 L1169.48 1536.95 L1169.48 1556.3 Q1169.48 1560.66 1170.66 1561.9 Q1171.87 1563.14 1175.53 1563.14 L1181.54 1563.14 L1181.54 1568.04 L1175.53 1568.04 Q1168.75 1568.04 1166.17 1565.53 Q1163.59 1562.98 1163.59 1556.3 L1163.59 1536.95 L1159.29 1536.95 L1159.29 1532.4 L1163.59 1532.4 L1163.59 1522.27 L1169.48 1522.27 Z" fill="#000000" fill-rule="nonzero" fill-opacity="1" /><polyline clip-path="url(#clip200)" style="stroke:#000000; stroke-linecap:round; stroke-linejoin:round; stroke-width:4; stroke-opacity:1; fill:none" points="205.121,1423.18 205.121,47.2441 "/>
<polyline clip-path="url(#clip200)" style="stroke:#000000; stroke-linecap:round; stroke-linejoin:round; stroke-width:4; stroke-opacity:1; fill:none" points="205.121,1384.24 224.019,1384.24 "/>
<polyline clip-path="url(#clip200)" style="stroke:#000000; stroke-linecap:round; stroke-linejoin:round; stroke-width:4; stroke-opacity:1; fill:none" points="205.121,1122.01 224.019,1122.01 "/>
<polyline clip-path="url(#clip200)" style="stroke:#000000; stroke-linecap:round; stroke-linejoin:round; stroke-width:4; stroke-opacity:1; fill:none" points="205.121,859.773 224.019,859.773 "/>
<polyline clip-path="url(#clip200)" style="stroke:#000000; stroke-linecap:round; stroke-linejoin:round; stroke-width:4; stroke-opacity:1; fill:none" points="205.121,597.54 224.019,597.54 "/>
<polyline clip-path="url(#clip200)" style="stroke:#000000; stroke-linecap:round; stroke-linejoin:round; stroke-width:4; stroke-opacity:1; fill:none" points="205.121,335.307 224.019,335.307 "/>
<polyline clip-path="url(#clip200)" style="stroke:#000000; stroke-linecap:round; stroke-linejoin:round; stroke-width:4; stroke-opacity:1; fill:none" points="205.121,73.074 224.019,73.074 "/>
<path clip-path="url(#clip200)" d="M157.177 1370.04 Q153.566 1370.04 151.737 1373.6 Q149.931 1377.14 149.931 1384.27 Q149.931 1391.38 151.737 1394.94 Q153.566 1398.49 157.177 1398.49 Q160.811 1398.49 162.616 1394.94 Q164.445 1391.38 164.445 1384.27 Q164.445 1377.14 162.616 1373.6 Q160.811 1370.04 157.177 1370.04 M157.177 1366.33 Q162.987 1366.33 166.042 1370.94 Q169.121 1375.52 169.121 1384.27 Q169.121 1393 166.042 1397.61 Q162.987 1402.19 157.177 1402.19 Q151.366 1402.19 148.288 1397.61 Q145.232 1393 145.232 1384.27 Q145.232 1375.52 148.288 1370.94 Q151.366 1366.33 157.177 1366.33 Z" fill="#000000" fill-rule="nonzero" fill-opacity="1" /><path clip-path="url(#clip200)" d="M117.825 1135.35 L125.464 1135.35 L125.464 1108.98 L117.154 1110.65 L117.154 1106.39 L125.418 1104.73 L130.093 1104.73 L130.093 1135.35 L137.732 1135.35 L137.732 1139.29 L117.825 1139.29 L117.825 1135.35 Z" fill="#000000" fill-rule="nonzero" fill-opacity="1" /><path clip-path="url(#clip200)" d="M157.177 1107.8 Q153.566 1107.8 151.737 1111.37 Q149.931 1114.91 149.931 1122.04 Q149.931 1129.15 151.737 1132.71 Q153.566 1136.25 157.177 1136.25 Q160.811 1136.25 162.616 1132.71 Q164.445 1129.15 164.445 1122.04 Q164.445 1114.91 162.616 1111.37 Q160.811 1107.8 157.177 1107.8 M157.177 1104.1 Q162.987 1104.1 166.042 1108.71 Q169.121 1113.29 169.121 1122.04 Q169.121 1130.77 166.042 1135.37 Q162.987 1139.96 157.177 1139.96 Q151.366 1139.96 148.288 1135.37 Q145.232 1130.77 145.232 1122.04 Q145.232 1113.29 148.288 1108.71 Q151.366 1104.1 157.177 1104.1 Z" fill="#000000" fill-rule="nonzero" fill-opacity="1" /><path clip-path="url(#clip200)" d="M121.043 873.117 L137.362 873.117 L137.362 877.053 L115.418 877.053 L115.418 873.117 Q118.08 870.363 122.663 865.733 Q127.269 861.08 128.45 859.738 Q130.695 857.215 131.575 855.479 Q132.478 853.719 132.478 852.03 Q132.478 849.275 130.533 847.539 Q128.612 845.803 125.51 845.803 Q123.311 845.803 120.857 846.567 Q118.427 847.331 115.649 848.881 L115.649 844.159 Q118.473 843.025 120.927 842.446 Q123.38 841.868 125.418 841.868 Q130.788 841.868 133.982 844.553 Q137.177 847.238 137.177 851.729 Q137.177 853.858 136.367 855.78 Q135.579 857.678 133.473 860.27 Q132.894 860.942 129.792 864.159 Q126.691 867.354 121.043 873.117 Z" fill="#000000" fill-rule="nonzero" fill-opacity="1" /><path clip-path="url(#clip200)" d="M157.177 845.571 Q153.566 845.571 151.737 849.136 Q149.931 852.678 149.931 859.807 Q149.931 866.914 151.737 870.479 Q153.566 874.02 157.177 874.02 Q160.811 874.02 162.616 870.479 Q164.445 866.914 164.445 859.807 Q164.445 852.678 162.616 849.136 Q160.811 845.571 157.177 845.571 M157.177 841.868 Q162.987 841.868 166.042 846.474 Q169.121 851.057 169.121 859.807 Q169.121 868.534 166.042 873.141 Q162.987 877.724 157.177 877.724 Q151.366 877.724 148.288 873.141 Q145.232 868.534 145.232 859.807 Q145.232 851.057 148.288 846.474 Q151.366 841.868 157.177 841.868 Z" fill="#000000" fill-rule="nonzero" fill-opacity="1" /><path clip-path="url(#clip200)" d="M131.181 596.186 Q134.538 596.903 136.413 599.172 Q138.311 601.44 138.311 604.773 Q138.311 609.889 134.792 612.69 Q131.274 615.491 124.793 615.491 Q122.617 615.491 120.302 615.051 Q118.01 614.635 115.556 613.778 L115.556 609.264 Q117.501 610.398 119.816 610.977 Q122.13 611.556 124.654 611.556 Q129.052 611.556 131.343 609.82 Q133.658 608.084 133.658 604.773 Q133.658 601.718 131.505 600.005 Q129.376 598.269 125.556 598.269 L121.529 598.269 L121.529 594.426 L125.742 594.426 Q129.191 594.426 131.019 593.061 Q132.848 591.672 132.848 589.079 Q132.848 586.417 130.95 585.005 Q129.075 583.57 125.556 583.57 Q123.635 583.57 121.436 583.987 Q119.237 584.403 116.598 585.283 L116.598 581.116 Q119.26 580.375 121.575 580.005 Q123.913 579.635 125.973 579.635 Q131.297 579.635 134.399 582.065 Q137.501 584.473 137.501 588.593 Q137.501 591.463 135.857 593.454 Q134.214 595.422 131.181 596.186 Z" fill="#000000" fill-rule="nonzero" fill-opacity="1" /><path clip-path="url(#clip200)" d="M157.177 583.338 Q153.566 583.338 151.737 586.903 Q149.931 590.445 149.931 597.574 Q149.931 604.681 151.737 608.246 Q153.566 611.787 157.177 611.787 Q160.811 611.787 162.616 608.246 Q164.445 604.681 164.445 597.574 Q164.445 590.445 162.616 586.903 Q160.811 583.338 157.177 583.338 M157.177 579.635 Q162.987 579.635 166.042 584.241 Q169.121 588.824 169.121 597.574 Q169.121 606.301 166.042 610.908 Q162.987 615.491 157.177 615.491 Q151.366 615.491 148.288 610.908 Q145.232 606.301 145.232 597.574 Q145.232 588.824 148.288 584.241 Q151.366 579.635 157.177 579.635 Z" fill="#000000" fill-rule="nonzero" fill-opacity="1" /><path clip-path="url(#clip200)" d="M129.862 322.101 L118.056 340.55 L129.862 340.55 L129.862 322.101 M128.635 318.027 L134.515 318.027 L134.515 340.55 L139.445 340.55 L139.445 344.439 L134.515 344.439 L134.515 352.587 L129.862 352.587 L129.862 344.439 L114.26 344.439 L114.26 339.925 L128.635 318.027 Z" fill="#000000" fill-rule="nonzero" fill-opacity="1" /><path clip-path="url(#clip200)" d="M157.177 321.106 Q153.566 321.106 151.737 324.67 Q149.931 328.212 149.931 335.342 Q149.931 342.448 151.737 346.013 Q153.566 349.554 157.177 349.554 Q160.811 349.554 162.616 346.013 Q164.445 342.448 164.445 335.342 Q164.445 328.212 162.616 324.67 Q160.811 321.106 157.177 321.106 M157.177 317.402 Q162.987 317.402 166.042 322.008 Q169.121 326.592 169.121 335.342 Q169.121 344.068 166.042 348.675 Q162.987 353.258 157.177 353.258 Q151.366 353.258 148.288 348.675 Q145.232 344.068 145.232 335.342 Q145.232 326.592 148.288 322.008 Q151.366 317.402 157.177 317.402 Z" fill="#000000" fill-rule="nonzero" fill-opacity="1" /><path clip-path="url(#clip200)" d="M117.061 55.794 L135.417 55.794 L135.417 59.7292 L121.343 59.7292 L121.343 68.2014 Q122.362 67.8542 123.38 67.6921 Q124.399 67.5069 125.418 67.5069 Q131.205 67.5069 134.584 70.6782 Q137.964 73.8495 137.964 79.2661 Q137.964 84.8448 134.492 87.9466 Q131.019 91.0253 124.7 91.0253 Q122.524 91.0253 120.255 90.655 Q118.01 90.2846 115.603 89.5438 L115.603 84.8448 Q117.686 85.9791 119.908 86.5346 Q122.13 87.0902 124.607 87.0902 Q128.612 87.0902 130.95 84.9837 Q133.288 82.8772 133.288 79.2661 Q133.288 75.655 130.95 73.5486 Q128.612 71.4421 124.607 71.4421 Q122.732 71.4421 120.857 71.8588 Q119.006 72.2754 117.061 73.155 L117.061 55.794 Z" fill="#000000" fill-rule="nonzero" fill-opacity="1" /><path clip-path="url(#clip200)" d="M157.177 58.8727 Q153.566 58.8727 151.737 62.4375 Q149.931 65.9792 149.931 73.1088 Q149.931 80.2152 151.737 83.78 Q153.566 87.3216 157.177 87.3216 Q160.811 87.3216 162.616 83.78 Q164.445 80.2152 164.445 73.1088 Q164.445 65.9792 162.616 62.4375 Q160.811 58.8727 157.177 58.8727 M157.177 55.169 Q162.987 55.169 166.042 59.7755 Q169.121 64.3588 169.121 73.1088 Q169.121 81.8356 166.042 86.442 Q162.987 91.0253 157.177 91.0253 Q151.366 91.0253 148.288 86.442 Q145.232 81.8356 145.232 73.1088 Q145.232 64.3588 148.288 59.7755 Q151.366 55.169 157.177 55.169 Z" fill="#000000" fill-rule="nonzero" fill-opacity="1" /><path clip-path="url(#clip200)" d="M21.7677 977.157 L39.6235 977.157 L39.6235 969.072 Q39.6235 964.584 37.3 962.133 Q34.9765 959.683 30.6797 959.683 Q26.4147 959.683 24.0912 962.133 Q21.7677 964.584 21.7677 969.072 L21.7677 977.157 M16.4842 983.586 L16.4842 969.072 Q16.4842 961.083 20.1126 957.009 Q23.7092 952.903 30.6797 952.903 Q37.7138 952.903 41.3104 957.009 Q44.907 961.083 44.907 969.072 L44.907 977.157 L64.0042 977.157 L64.0042 983.586 L16.4842 983.586 Z" fill="#000000" fill-rule="nonzero" fill-opacity="1" /><path clip-path="url(#clip200)" d="M46.0847 928.332 Q46.0847 935.429 47.7079 938.167 Q49.3312 940.904 53.2461 940.904 Q56.3653 940.904 58.2114 938.867 Q60.0256 936.798 60.0256 933.265 Q60.0256 928.395 56.5881 925.467 Q53.1188 922.507 47.3897 922.507 L46.0847 922.507 L46.0847 928.332 M43.6657 916.651 L64.0042 916.651 L64.0042 922.507 L58.5933 922.507 Q61.8398 924.512 63.3994 927.504 Q64.9272 930.496 64.9272 934.825 Q64.9272 940.299 61.8716 943.546 Q58.7843 946.76 53.6281 946.76 Q47.6125 946.76 44.5569 942.75 Q41.5014 938.708 41.5014 930.719 L41.5014 922.507 L40.9285 922.507 Q36.8862 922.507 34.6901 925.181 Q32.4621 927.822 32.4621 932.628 Q32.4621 935.684 33.1941 938.58 Q33.9262 941.477 35.3903 944.15 L29.9795 944.15 Q28.7381 940.936 28.1334 937.912 Q27.4968 934.888 27.4968 932.024 Q27.4968 924.289 31.5072 920.47 Q35.5176 916.651 43.6657 916.651 Z" fill="#000000" fill-rule="nonzero" fill-opacity="1" /><path clip-path="url(#clip200)" d="M29.7248 878.934 L35.1993 878.934 Q33.8307 881.416 33.1623 883.931 Q32.4621 886.413 32.4621 888.96 Q32.4621 894.657 36.0905 897.808 Q39.6872 900.959 46.212 900.959 Q52.7369 900.959 56.3653 897.808 Q59.9619 894.657 59.9619 888.96 Q59.9619 886.413 59.2935 883.931 Q58.5933 881.416 57.2247 878.934 L62.6355 878.934 Q63.7814 881.385 64.3543 884.026 Q64.9272 886.636 64.9272 889.596 Q64.9272 897.649 59.8664 902.391 Q54.8057 907.134 46.212 907.134 Q37.491 907.134 32.4939 902.36 Q27.4968 897.553 27.4968 889.214 Q27.4968 886.509 28.0697 883.931 Q28.6108 881.353 29.7248 878.934 Z" fill="#000000" fill-rule="nonzero" fill-opacity="1" /><path clip-path="url(#clip200)" d="M28.3562 839.116 L45.7028 852.007 L64.0042 838.448 L64.0042 845.355 L49.9996 855.731 L64.0042 866.107 L64.0042 873.014 L45.3526 859.168 L28.3562 871.836 L28.3562 864.929 L41.0558 855.476 L28.3562 846.023 L28.3562 839.116 Z" fill="#000000" fill-rule="nonzero" fill-opacity="1" /><path clip-path="url(#clip200)" d="M32.4621 816.359 Q32.4621 821.069 36.1542 823.807 Q39.8145 826.544 46.212 826.544 Q52.6095 826.544 56.3017 823.839 Q59.9619 821.101 59.9619 816.359 Q59.9619 811.68 56.2698 808.943 Q52.5777 806.206 46.212 806.206 Q39.8781 806.206 36.186 808.943 Q32.4621 811.68 32.4621 816.359 M27.4968 816.359 Q27.4968 808.72 32.4621 804.359 Q37.4273 799.999 46.212 799.999 Q54.9649 799.999 59.9619 804.359 Q64.9272 808.72 64.9272 816.359 Q64.9272 824.029 59.9619 828.39 Q54.9649 832.719 46.212 832.719 Q37.4273 832.719 32.4621 828.39 Q27.4968 824.029 27.4968 816.359 Z" fill="#000000" fill-rule="nonzero" fill-opacity="1" /><path clip-path="url(#clip200)" d="M59.3254 782.334 L59.3254 765.338 L33.035 765.338 L33.035 777.655 L37.491 777.655 Q50.6043 777.655 57.6066 781.411 L59.3254 782.334 M59.3254 790.832 Q58.0522 787.936 55.3468 786.663 Q48.631 783.544 35.1038 783.544 L28.3562 783.544 L28.3562 759.449 L59.3254 759.449 L59.3254 754.771 L73.0116 754.771 L73.0116 759.449 L64.0042 759.449 L64.0042 788.35 L73.0116 788.35 L73.0116 793.028 L59.3254 793.028 L59.3254 790.832 Z" fill="#000000" fill-rule="nonzero" fill-opacity="1" /><path clip-path="url(#clip200)" d="M55.9197 743.726 L55.9197 737.01 L61.3942 737.01 L71.5793 742.23 L71.5793 746.336 L61.3942 743.726 L55.9197 743.726 Z" fill="#000000" fill-rule="nonzero" fill-opacity="1" /><path clip-path="url(#clip200)" d="M28.3562 704.004 L28.3562 695.442 L52.2276 685.321 L28.3562 675.167 L28.3562 666.669 L64.0042 666.669 L64.0042 672.558 L33.958 672.558 L57.161 682.393 L57.161 688.249 L33.958 698.116 L64.0042 698.116 L64.0042 704.004 L28.3562 704.004 Z" fill="#000000" fill-rule="nonzero" fill-opacity="1" /><path clip-path="url(#clip200)" d="M38.3822 634.3 Q39.3689 629.684 42.4881 627.106 Q45.6073 624.496 50.1906 624.496 Q57.2247 624.496 61.0759 629.334 Q64.9272 634.172 64.9272 643.084 Q64.9272 646.076 64.3224 649.259 Q63.7495 652.41 62.5719 655.784 L56.3653 655.784 Q57.9249 653.11 58.7206 649.927 Q59.5163 646.745 59.5163 643.275 Q59.5163 637.228 57.1292 634.077 Q54.7421 630.894 50.1906 630.894 Q45.9892 630.894 43.6339 633.854 Q41.2468 636.782 41.2468 642.034 L41.2468 647.572 L35.9632 647.572 L35.9632 641.779 Q35.9632 637.037 34.0853 634.522 Q32.1756 632.008 28.6108 632.008 Q24.9505 632.008 23.009 634.618 Q21.0356 637.196 21.0356 642.034 Q21.0356 644.676 21.6086 647.699 Q22.1815 650.723 23.3909 654.352 L17.6618 654.352 Q16.6433 650.691 16.134 647.508 Q15.6248 644.294 15.6248 641.461 Q15.6248 634.14 18.9668 629.875 Q22.277 625.61 27.9424 625.61 Q31.8892 625.61 34.6264 627.87 Q37.3318 630.13 38.3822 634.3 Z" fill="#000000" fill-rule="nonzero" fill-opacity="1" /><path clip-path="url(#clip200)" d="M16.4842 602.726 L16.4842 597.315 L70.0516 613.866 L70.0516 619.277 L16.4842 602.726 Z" fill="#000000" fill-rule="nonzero" fill-opacity="1" /><path clip-path="url(#clip200)" d="M29.7248 565.518 L35.1993 565.518 Q33.8307 568.001 33.1623 570.515 Q32.4621 572.998 32.4621 575.544 Q32.4621 581.241 36.0905 584.392 Q39.6872 587.543 46.212 587.543 Q52.7369 587.543 56.3653 584.392 Q59.9619 581.241 59.9619 575.544 Q59.9619 572.998 59.2935 570.515 Q58.5933 568.001 57.2247 565.518 L62.6355 565.518 Q63.7814 567.969 64.3543 570.611 Q64.9272 573.221 64.9272 576.181 Q64.9272 584.233 59.8664 588.976 Q54.8057 593.718 46.212 593.718 Q37.491 593.718 32.4939 588.944 Q27.4968 584.138 27.4968 575.799 Q27.4968 573.093 28.0697 570.515 Q28.6108 567.937 29.7248 565.518 Z" fill="#000000" fill-rule="nonzero" fill-opacity="1" /><path clip-path="url(#clip200)" d="M67.3143 540.501 Q73.68 542.984 75.6216 545.339 Q77.5631 547.694 77.5631 551.641 L77.5631 556.32 L72.6615 556.32 L72.6615 552.882 Q72.6615 550.463 71.5157 549.126 Q70.3699 547.79 66.1048 546.166 L63.4312 545.116 L28.3562 559.534 L28.3562 553.328 L56.238 542.188 L28.3562 531.048 L28.3562 524.841 L67.3143 540.501 Z" fill="#000000" fill-rule="nonzero" fill-opacity="1" /><path clip-path="url(#clip200)" d="M28.3562 520.99 L28.3562 486.838 L33.035 486.838 L33.035 501.034 L64.0042 501.034 L64.0042 506.795 L33.035 506.795 L33.035 520.99 L28.3562 520.99 Z" fill="#000000" fill-rule="nonzero" fill-opacity="1" /><polyline clip-path="url(#clip202)" style="stroke:#009af9; stroke-linecap:round; stroke-linejoin:round; stroke-width:8; stroke-opacity:1; fill:none" points="259.76,702.433 278.157,702.433 278.157,781.103 296.555,781.103 296.555,754.879 314.952,754.879 314.952,689.321 333.349,689.321 333.349,676.21 351.746,676.21 351.746,663.098 370.143,663.098 370.143,781.103 388.54,781.103 388.54,794.214 406.937,794.214 406.937,702.433 425.334,702.433 425.334,767.991 443.731,767.991 443.731,781.103 462.128,781.103 462.128,689.321 480.526,689.321 480.526,781.103 498.923,781.103 498.923,715.545 517.32,715.545 517.32,728.656 535.717,728.656 535.717,663.098 554.114,663.098 554.114,754.879 572.511,754.879 572.511,689.321 590.908,689.321 590.908,702.433 609.305,702.433 609.305,689.321 627.702,689.321 627.702,1106.27 646.099,1106.27 646.099,1111.52 664.497,1111.52 682.894,1111.52 682.894,1148.23 701.291,1148.23 701.291,660.476 719.688,660.476 719.688,1142.98 738.085,1142.98 756.482,1142.98 756.482,1101.03 774.879,1101.03 774.879,1106.27 793.276,1106.27 793.276,1122.01 811.673,1122.01 811.673,1127.25 830.07,1127.25 830.07,1142.98 848.468,1142.98 848.468,1116.76 866.865,1116.76 866.865,1142.98 885.262,1142.98 885.262,1127.25 903.659,1127.25 903.659,1106.27 922.056,1106.27 940.453,1106.27 940.453,1116.76 958.85,1116.76 958.85,1095.78 977.247,1095.78 977.247,1111.52 995.644,1111.52 995.644,1137.74 1014.04,1137.74 1014.04,1106.27 1032.44,1106.27 1032.44,1116.76 1050.84,1116.76 1050.84,1095.78 1069.23,1095.78 1069.23,1137.74 1087.63,1137.74 1087.63,1111.52 1106.03,1111.52 1106.03,1142.98 1124.42,1142.98 1124.42,1132.49 1142.82,1132.49 1142.82,1116.76 1161.22,1116.76 1161.22,1106.27 1179.62,1106.27 1179.62,983.022 1198.01,983.022 1198.01,990.889 1216.41,990.889 1216.41,951.554 1234.81,951.554 1234.81,983.022 1253.2,983.022 1253.2,990.889 1271.6,990.889 1271.6,975.155 1290,975.155 1290,1014.49 1308.4,1014.49 1308.4,983.022 1326.79,983.022 1326.79,1030.22 1345.19,1030.22 1345.19,990.889 1363.59,990.889 1363.59,1030.22 1381.98,1030.22 1381.98,975.155 1400.38,975.155 1400.38,990.889 1418.78,990.889 1418.78,1022.36 1437.17,1022.36 1437.17,975.155 1455.57,975.155 1455.57,419.221 1473.97,419.221 1473.97,377.264 1492.37,377.264 1492.37,230.414 1510.76,230.414 1510.76,440.2 1529.16,440.2 1529.16,1384.24 1547.56,1384.24 1547.56,314.328 1565.95,314.328 1584.35,314.328 1584.35,419.221 1602.75,419.221 1602.75,377.264 1621.15,377.264 1639.54,377.264 1639.54,251.392 1657.94,251.392 1657.94,440.2 1676.34,440.2 1676.34,377.264 1694.73,377.264 1694.73,356.286 1713.13,356.286 1713.13,377.264 1731.53,377.264 1731.53,227.791 1749.93,227.791 1749.93,86.1857 1768.32,86.1857 1768.32,133.388 1786.72,133.388 1786.72,227.791 1805.12,227.791 1805.12,109.787 1823.51,109.787 1823.51,298.594 1841.91,298.594 1841.91,133.388 1860.31,133.388 1860.31,156.989 1878.71,156.989 1878.71,86.1857 1897.1,86.1857 1897.1,109.787 1915.5,109.787 1915.5,86.1857 1933.9,86.1857 1933.9,109.787 1952.29,109.787 1952.29,251.392 1970.69,251.392 1970.69,86.1857 1989.09,86.1857 1989.09,251.392 2007.48,251.392 2007.48,274.993 2025.88,274.993 2025.88,156.989 2044.28,156.989 2044.28,322.195 2062.68,322.195 2062.68,86.1857 2081.07,86.1857 2081.07,180.589 "/>
<path clip-path="url(#clip200)" d="M269.474 196.789 L628.944 196.789 L628.944 93.1086 L269.474 93.1086  Z" fill="#ffffff" fill-rule="evenodd" fill-opacity="1"/>
<polyline clip-path="url(#clip200)" style="stroke:#000000; stroke-linecap:round; stroke-linejoin:round; stroke-width:4; stroke-opacity:1; fill:none" points="269.474,196.789 628.944,196.789 628.944,93.1086 269.474,93.1086 269.474,196.789 "/>
<polyline clip-path="url(#clip200)" style="stroke:#009af9; stroke-linecap:round; stroke-linejoin:round; stroke-width:8; stroke-opacity:1; fill:none" points="290.925,144.949 419.631,144.949 "/>
<path clip-path="url(#clip200)" d="M445.758 131.511 L445.758 144.497 L451.638 144.497 Q454.902 144.497 456.684 142.807 Q458.466 141.118 458.466 137.993 Q458.466 134.891 456.684 133.201 Q454.902 131.511 451.638 131.511 L445.758 131.511 M441.082 127.669 L451.638 127.669 Q457.448 127.669 460.411 130.307 Q463.397 132.923 463.397 137.993 Q463.397 143.108 460.411 145.724 Q457.448 148.34 451.638 148.34 L445.758 148.34 L445.758 162.229 L441.082 162.229 L441.082 127.669 Z" fill="#000000" fill-rule="nonzero" fill-opacity="1" /><path clip-path="url(#clip200)" d="M481.267 149.196 Q476.105 149.196 474.114 150.377 Q472.124 151.557 472.124 154.405 Q472.124 156.673 473.605 158.016 Q475.11 159.335 477.679 159.335 Q481.221 159.335 483.35 156.835 Q485.503 154.312 485.503 150.145 L485.503 149.196 L481.267 149.196 M489.762 147.437 L489.762 162.229 L485.503 162.229 L485.503 158.293 Q484.045 160.655 481.869 161.789 Q479.693 162.9 476.545 162.9 Q472.563 162.9 470.202 160.678 Q467.864 158.432 467.864 154.682 Q467.864 150.307 470.781 148.085 Q473.721 145.863 479.531 145.863 L485.503 145.863 L485.503 145.446 Q485.503 142.507 483.559 140.909 Q481.638 139.289 478.142 139.289 Q475.92 139.289 473.813 139.821 Q471.707 140.354 469.763 141.419 L469.763 137.483 Q472.101 136.581 474.3 136.141 Q476.499 135.678 478.582 135.678 Q484.207 135.678 486.985 138.594 Q489.762 141.511 489.762 147.437 Z" fill="#000000" fill-rule="nonzero" fill-opacity="1" /><path clip-path="url(#clip200)" d="M517.193 137.298 L517.193 141.28 Q515.387 140.284 513.559 139.798 Q511.753 139.289 509.901 139.289 Q505.758 139.289 503.466 141.928 Q501.174 144.544 501.174 149.289 Q501.174 154.034 503.466 156.673 Q505.758 159.289 509.901 159.289 Q511.753 159.289 513.559 158.803 Q515.387 158.293 517.193 157.298 L517.193 161.233 Q515.41 162.067 513.489 162.483 Q511.591 162.9 509.438 162.9 Q503.582 162.9 500.133 159.219 Q496.684 155.539 496.684 149.289 Q496.684 142.946 500.156 139.312 Q503.651 135.678 509.716 135.678 Q511.684 135.678 513.559 136.095 Q515.434 136.488 517.193 137.298 Z" fill="#000000" fill-rule="nonzero" fill-opacity="1" /><path clip-path="url(#clip200)" d="M546.151 136.303 L536.776 148.919 L546.637 162.229 L541.614 162.229 L534.068 152.043 L526.522 162.229 L521.498 162.229 L531.568 148.664 L522.355 136.303 L527.378 136.303 L534.253 145.539 L541.128 136.303 L546.151 136.303 Z" fill="#000000" fill-rule="nonzero" fill-opacity="1" /><path clip-path="url(#clip200)" d="M562.702 139.289 Q559.276 139.289 557.285 141.974 Q555.295 144.636 555.295 149.289 Q555.295 153.942 557.262 156.627 Q559.253 159.289 562.702 159.289 Q566.105 159.289 568.095 156.604 Q570.086 153.918 570.086 149.289 Q570.086 144.682 568.095 141.997 Q566.105 139.289 562.702 139.289 M562.702 135.678 Q568.257 135.678 571.429 139.289 Q574.6 142.9 574.6 149.289 Q574.6 155.655 571.429 159.289 Q568.257 162.9 562.702 162.9 Q557.123 162.9 553.952 159.289 Q550.804 155.655 550.804 149.289 Q550.804 142.9 553.952 139.289 Q557.123 135.678 562.702 135.678 Z" fill="#000000" fill-rule="nonzero" fill-opacity="1" /><path clip-path="url(#clip200)" d="M587.447 158.826 L599.808 158.826 L599.808 139.706 L590.85 139.706 L590.85 142.946 Q590.85 152.483 588.118 157.576 L587.447 158.826 M581.267 158.826 Q583.373 157.9 584.299 155.932 Q586.568 151.048 586.568 141.21 L586.568 136.303 L604.091 136.303 L604.091 158.826 L607.493 158.826 L607.493 168.78 L604.091 168.78 L604.091 162.229 L583.072 162.229 L583.072 168.78 L579.669 168.78 L579.669 158.826 L581.267 158.826 Z" fill="#000000" fill-rule="nonzero" fill-opacity="1" /><polyline clip-path="url(#clip200)" style="stroke:#000000; stroke-linecap:round; stroke-linejoin:round; stroke-width:4; stroke-opacity:1; fill:none" points="2135.71,1423.18 2135.71,47.2441 "/>
<polyline clip-path="url(#clip200)" style="stroke:#000000; stroke-linecap:round; stroke-linejoin:round; stroke-width:4; stroke-opacity:1; fill:none" points="2135.71,1397.78 2116.82,1397.78 "/>
<polyline clip-path="url(#clip200)" style="stroke:#000000; stroke-linecap:round; stroke-linejoin:round; stroke-width:4; stroke-opacity:1; fill:none" points="2135.71,1137.4 2116.82,1137.4 "/>
<polyline clip-path="url(#clip200)" style="stroke:#000000; stroke-linecap:round; stroke-linejoin:round; stroke-width:4; stroke-opacity:1; fill:none" points="2135.71,877.016 2116.82,877.016 "/>
<polyline clip-path="url(#clip200)" style="stroke:#000000; stroke-linecap:round; stroke-linejoin:round; stroke-width:4; stroke-opacity:1; fill:none" points="2135.71,616.634 2116.82,616.634 "/>
<polyline clip-path="url(#clip200)" style="stroke:#000000; stroke-linecap:round; stroke-linejoin:round; stroke-width:4; stroke-opacity:1; fill:none" points="2135.71,356.253 2116.82,356.253 "/>
<polyline clip-path="url(#clip200)" style="stroke:#000000; stroke-linecap:round; stroke-linejoin:round; stroke-width:4; stroke-opacity:1; fill:none" points="2135.71,95.8719 2116.82,95.8719 "/>
<path clip-path="url(#clip200)" d="M2183.66 1383.58 Q2180.05 1383.58 2178.22 1387.14 Q2176.41 1390.68 2176.41 1397.81 Q2176.41 1404.92 2178.22 1408.48 Q2180.05 1412.03 2183.66 1412.03 Q2187.29 1412.03 2189.1 1408.48 Q2190.93 1404.92 2190.93 1397.81 Q2190.93 1390.68 2189.1 1387.14 Q2187.29 1383.58 2183.66 1383.58 M2183.66 1379.87 Q2189.47 1379.87 2192.52 1384.48 Q2195.6 1389.06 2195.6 1397.81 Q2195.6 1406.54 2192.52 1411.15 Q2189.47 1415.73 2183.66 1415.73 Q2177.85 1415.73 2174.77 1411.15 Q2171.71 1406.54 2171.71 1397.81 Q2171.71 1389.06 2174.77 1384.48 Q2177.85 1379.87 2183.66 1379.87 Z" fill="#000000" fill-rule="nonzero" fill-opacity="1" /><path clip-path="url(#clip200)" d="M2173.17 1120.12 L2191.53 1120.12 L2191.53 1124.05 L2177.45 1124.05 L2177.45 1132.52 Q2178.47 1132.18 2179.49 1132.01 Q2180.51 1131.83 2181.53 1131.83 Q2187.31 1131.83 2190.69 1135 Q2194.07 1138.17 2194.07 1143.59 Q2194.07 1149.17 2190.6 1152.27 Q2187.13 1155.35 2180.81 1155.35 Q2178.63 1155.35 2176.37 1154.98 Q2174.12 1154.61 2171.71 1153.87 L2171.71 1149.17 Q2173.8 1150.3 2176.02 1150.86 Q2178.24 1151.41 2180.72 1151.41 Q2184.72 1151.41 2187.06 1149.31 Q2189.4 1147.2 2189.4 1143.59 Q2189.4 1139.98 2187.06 1137.87 Q2184.72 1135.76 2180.72 1135.76 Q2178.84 1135.76 2176.97 1136.18 Q2175.12 1136.6 2173.17 1137.48 L2173.17 1120.12 Z" fill="#000000" fill-rule="nonzero" fill-opacity="1" /><path clip-path="url(#clip200)" d="M2213.29 1123.2 Q2209.68 1123.2 2207.85 1126.76 Q2206.04 1130.3 2206.04 1137.43 Q2206.04 1144.54 2207.85 1148.1 Q2209.68 1151.64 2213.29 1151.64 Q2216.92 1151.64 2218.73 1148.1 Q2220.56 1144.54 2220.56 1137.43 Q2220.56 1130.3 2218.73 1126.76 Q2216.92 1123.2 2213.29 1123.2 M2213.29 1119.49 Q2219.1 1119.49 2222.15 1124.1 Q2225.23 1128.68 2225.23 1137.43 Q2225.23 1146.16 2222.15 1150.76 Q2219.1 1155.35 2213.29 1155.35 Q2207.48 1155.35 2204.4 1150.76 Q2201.34 1146.16 2201.34 1137.43 Q2201.34 1128.68 2204.4 1124.1 Q2207.48 1119.49 2213.29 1119.49 Z" fill="#000000" fill-rule="nonzero" fill-opacity="1" /><path clip-path="url(#clip200)" d="M2243.45 1123.2 Q2239.84 1123.2 2238.01 1126.76 Q2236.2 1130.3 2236.2 1137.43 Q2236.2 1144.54 2238.01 1148.1 Q2239.84 1151.64 2243.45 1151.64 Q2247.08 1151.64 2248.89 1148.1 Q2250.72 1144.54 2250.72 1137.43 Q2250.72 1130.3 2248.89 1126.76 Q2247.08 1123.2 2243.45 1123.2 M2243.45 1119.49 Q2249.26 1119.49 2252.31 1124.1 Q2255.39 1128.68 2255.39 1137.43 Q2255.39 1146.16 2252.31 1150.76 Q2249.26 1155.35 2243.45 1155.35 Q2237.64 1155.35 2234.56 1150.76 Q2231.5 1146.16 2231.5 1137.43 Q2231.5 1128.68 2234.56 1124.1 Q2237.64 1119.49 2243.45 1119.49 Z" fill="#000000" fill-rule="nonzero" fill-opacity="1" /><path clip-path="url(#clip200)" d="M2172.38 890.36 L2180.02 890.36 L2180.02 863.995 L2171.71 865.661 L2171.71 861.402 L2179.98 859.736 L2184.65 859.736 L2184.65 890.36 L2192.29 890.36 L2192.29 894.296 L2172.38 894.296 L2172.38 890.36 Z" fill="#000000" fill-rule="nonzero" fill-opacity="1" /><path clip-path="url(#clip200)" d="M2211.74 862.814 Q2208.12 862.814 2206.3 866.379 Q2204.49 869.921 2204.49 877.05 Q2204.49 884.157 2206.3 887.722 Q2208.12 891.263 2211.74 891.263 Q2215.37 891.263 2217.18 887.722 Q2219 884.157 2219 877.05 Q2219 869.921 2217.18 866.379 Q2215.37 862.814 2211.74 862.814 M2211.74 859.111 Q2217.55 859.111 2220.6 863.717 Q2223.68 868.3 2223.68 877.05 Q2223.68 885.777 2220.6 890.384 Q2217.55 894.967 2211.74 894.967 Q2205.93 894.967 2202.85 890.384 Q2199.79 885.777 2199.79 877.05 Q2199.79 868.3 2202.85 863.717 Q2205.93 859.111 2211.74 859.111 Z" fill="#000000" fill-rule="nonzero" fill-opacity="1" /><path clip-path="url(#clip200)" d="M2241.9 862.814 Q2238.29 862.814 2236.46 866.379 Q2234.65 869.921 2234.65 877.05 Q2234.65 884.157 2236.46 887.722 Q2238.29 891.263 2241.9 891.263 Q2245.53 891.263 2247.34 887.722 Q2249.17 884.157 2249.17 877.05 Q2249.17 869.921 2247.34 866.379 Q2245.53 862.814 2241.9 862.814 M2241.9 859.111 Q2247.71 859.111 2250.76 863.717 Q2253.84 868.3 2253.84 877.05 Q2253.84 885.777 2250.76 890.384 Q2247.71 894.967 2241.9 894.967 Q2236.09 894.967 2233.01 890.384 Q2229.95 885.777 2229.95 877.05 Q2229.95 868.3 2233.01 863.717 Q2236.09 859.111 2241.9 859.111 Z" fill="#000000" fill-rule="nonzero" fill-opacity="1" /><path clip-path="url(#clip200)" d="M2272.06 862.814 Q2268.45 862.814 2266.62 866.379 Q2264.81 869.921 2264.81 877.05 Q2264.81 884.157 2266.62 887.722 Q2268.45 891.263 2272.06 891.263 Q2275.69 891.263 2277.5 887.722 Q2279.33 884.157 2279.33 877.05 Q2279.33 869.921 2277.5 866.379 Q2275.69 862.814 2272.06 862.814 M2272.06 859.111 Q2277.87 859.111 2280.93 863.717 Q2284 868.3 2284 877.05 Q2284 885.777 2280.93 890.384 Q2277.87 894.967 2272.06 894.967 Q2266.25 894.967 2263.17 890.384 Q2260.11 885.777 2260.11 877.05 Q2260.11 868.3 2263.17 863.717 Q2266.25 859.111 2272.06 859.111 Z" fill="#000000" fill-rule="nonzero" fill-opacity="1" /><path clip-path="url(#clip200)" d="M2172.38 629.979 L2180.02 629.979 L2180.02 603.614 L2171.71 605.28 L2171.71 601.021 L2179.98 599.354 L2184.65 599.354 L2184.65 629.979 L2192.29 629.979 L2192.29 633.914 L2172.38 633.914 L2172.38 629.979 Z" fill="#000000" fill-rule="nonzero" fill-opacity="1" /><path clip-path="url(#clip200)" d="M2201.78 599.354 L2220.14 599.354 L2220.14 603.29 L2206.06 603.29 L2206.06 611.762 Q2207.08 611.414 2208.1 611.252 Q2209.12 611.067 2210.14 611.067 Q2215.93 611.067 2219.31 614.239 Q2222.68 617.41 2222.68 622.826 Q2222.68 628.405 2219.21 631.507 Q2215.74 634.586 2209.42 634.586 Q2207.24 634.586 2204.98 634.215 Q2202.73 633.845 2200.32 633.104 L2200.32 628.405 Q2202.41 629.539 2204.63 630.095 Q2206.85 630.65 2209.33 630.65 Q2213.33 630.65 2215.67 628.544 Q2218.01 626.438 2218.01 622.826 Q2218.01 619.215 2215.67 617.109 Q2213.33 615.002 2209.33 615.002 Q2207.45 615.002 2205.58 615.419 Q2203.73 615.836 2201.78 616.715 L2201.78 599.354 Z" fill="#000000" fill-rule="nonzero" fill-opacity="1" /><path clip-path="url(#clip200)" d="M2241.9 602.433 Q2238.29 602.433 2236.46 605.998 Q2234.65 609.539 2234.65 616.669 Q2234.65 623.776 2236.46 627.34 Q2238.29 630.882 2241.9 630.882 Q2245.53 630.882 2247.34 627.34 Q2249.17 623.776 2249.17 616.669 Q2249.17 609.539 2247.34 605.998 Q2245.53 602.433 2241.9 602.433 M2241.9 598.729 Q2247.71 598.729 2250.76 603.336 Q2253.84 607.919 2253.84 616.669 Q2253.84 625.396 2250.76 630.002 Q2247.71 634.586 2241.9 634.586 Q2236.09 634.586 2233.01 630.002 Q2229.95 625.396 2229.95 616.669 Q2229.95 607.919 2233.01 603.336 Q2236.09 598.729 2241.9 598.729 Z" fill="#000000" fill-rule="nonzero" fill-opacity="1" /><path clip-path="url(#clip200)" d="M2272.06 602.433 Q2268.45 602.433 2266.62 605.998 Q2264.81 609.539 2264.81 616.669 Q2264.81 623.776 2266.62 627.34 Q2268.45 630.882 2272.06 630.882 Q2275.69 630.882 2277.5 627.34 Q2279.33 623.776 2279.33 616.669 Q2279.33 609.539 2277.5 605.998 Q2275.69 602.433 2272.06 602.433 M2272.06 598.729 Q2277.87 598.729 2280.93 603.336 Q2284 607.919 2284 616.669 Q2284 625.396 2280.93 630.002 Q2277.87 634.586 2272.06 634.586 Q2266.25 634.586 2263.17 630.002 Q2260.11 625.396 2260.11 616.669 Q2260.11 607.919 2263.17 603.336 Q2266.25 598.729 2272.06 598.729 Z" fill="#000000" fill-rule="nonzero" fill-opacity="1" /><path clip-path="url(#clip200)" d="M2177.34 369.598 L2193.66 369.598 L2193.66 373.533 L2171.71 373.533 L2171.71 369.598 Q2174.37 366.843 2178.96 362.214 Q2183.56 357.561 2184.75 356.218 Q2186.99 353.695 2187.87 351.959 Q2188.77 350.2 2188.77 348.51 Q2188.77 345.755 2186.83 344.019 Q2184.91 342.283 2181.81 342.283 Q2179.61 342.283 2177.15 343.047 Q2174.72 343.811 2171.94 345.362 L2171.94 340.64 Q2174.77 339.506 2177.22 338.927 Q2179.68 338.348 2181.71 338.348 Q2187.08 338.348 2190.28 341.033 Q2193.47 343.718 2193.47 348.209 Q2193.47 350.339 2192.66 352.26 Q2191.87 354.158 2189.77 356.751 Q2189.19 357.422 2186.09 360.64 Q2182.99 363.834 2177.34 369.598 Z" fill="#000000" fill-rule="nonzero" fill-opacity="1" /><path clip-path="url(#clip200)" d="M2213.47 342.052 Q2209.86 342.052 2208.03 345.617 Q2206.23 349.158 2206.23 356.288 Q2206.23 363.394 2208.03 366.959 Q2209.86 370.501 2213.47 370.501 Q2217.11 370.501 2218.91 366.959 Q2220.74 363.394 2220.74 356.288 Q2220.74 349.158 2218.91 345.617 Q2217.11 342.052 2213.47 342.052 M2213.47 338.348 Q2219.28 338.348 2222.34 342.955 Q2225.42 347.538 2225.42 356.288 Q2225.42 365.015 2222.34 369.621 Q2219.28 374.204 2213.47 374.204 Q2207.66 374.204 2204.58 369.621 Q2201.53 365.015 2201.53 356.288 Q2201.53 347.538 2204.58 342.955 Q2207.66 338.348 2213.47 338.348 Z" fill="#000000" fill-rule="nonzero" fill-opacity="1" /><path clip-path="url(#clip200)" d="M2243.63 342.052 Q2240.02 342.052 2238.19 345.617 Q2236.39 349.158 2236.39 356.288 Q2236.39 363.394 2238.19 366.959 Q2240.02 370.501 2243.63 370.501 Q2247.27 370.501 2249.07 366.959 Q2250.9 363.394 2250.9 356.288 Q2250.9 349.158 2249.07 345.617 Q2247.27 342.052 2243.63 342.052 M2243.63 338.348 Q2249.44 338.348 2252.5 342.955 Q2255.58 347.538 2255.58 356.288 Q2255.58 365.015 2252.5 369.621 Q2249.44 374.204 2243.63 374.204 Q2237.82 374.204 2234.74 369.621 Q2231.69 365.015 2231.69 356.288 Q2231.69 347.538 2234.74 342.955 Q2237.82 338.348 2243.63 338.348 Z" fill="#000000" fill-rule="nonzero" fill-opacity="1" /><path clip-path="url(#clip200)" d="M2273.8 342.052 Q2270.18 342.052 2268.36 345.617 Q2266.55 349.158 2266.55 356.288 Q2266.55 363.394 2268.36 366.959 Q2270.18 370.501 2273.8 370.501 Q2277.43 370.501 2279.24 366.959 Q2281.06 363.394 2281.06 356.288 Q2281.06 349.158 2279.24 345.617 Q2277.43 342.052 2273.8 342.052 M2273.8 338.348 Q2279.61 338.348 2282.66 342.955 Q2285.74 347.538 2285.74 356.288 Q2285.74 365.015 2282.66 369.621 Q2279.61 374.204 2273.8 374.204 Q2267.99 374.204 2264.91 369.621 Q2261.85 365.015 2261.85 356.288 Q2261.85 347.538 2264.91 342.955 Q2267.99 338.348 2273.8 338.348 Z" fill="#000000" fill-rule="nonzero" fill-opacity="1" /><path clip-path="url(#clip200)" d="M2177.34 109.217 L2193.66 109.217 L2193.66 113.152 L2171.71 113.152 L2171.71 109.217 Q2174.37 106.462 2178.96 101.832 Q2183.56 97.1797 2184.75 95.8371 Q2186.99 93.314 2187.87 91.5779 Q2188.77 89.8186 2188.77 88.1288 Q2188.77 85.3742 2186.83 83.6381 Q2184.91 81.902 2181.81 81.902 Q2179.61 81.902 2177.15 82.6659 Q2174.72 83.4298 2171.94 84.9807 L2171.94 80.2585 Q2174.77 79.1243 2177.22 78.5456 Q2179.68 77.9669 2181.71 77.9669 Q2187.08 77.9669 2190.28 80.652 Q2193.47 83.3372 2193.47 87.8279 Q2193.47 89.9575 2192.66 91.8788 Q2191.87 93.777 2189.77 96.3695 Q2189.19 97.0408 2186.09 100.258 Q2182.99 103.453 2177.34 109.217 Z" fill="#000000" fill-rule="nonzero" fill-opacity="1" /><path clip-path="url(#clip200)" d="M2203.52 78.5919 L2221.87 78.5919 L2221.87 82.527 L2207.8 82.527 L2207.8 90.9992 Q2208.82 90.652 2209.84 90.4899 Q2210.86 90.3048 2211.87 90.3048 Q2217.66 90.3048 2221.04 93.476 Q2224.42 96.6473 2224.42 102.064 Q2224.42 107.643 2220.95 110.744 Q2217.48 113.823 2211.16 113.823 Q2208.98 113.823 2206.71 113.453 Q2204.47 113.082 2202.06 112.342 L2202.06 107.643 Q2204.14 108.777 2206.37 109.332 Q2208.59 109.888 2211.06 109.888 Q2215.07 109.888 2217.41 107.782 Q2219.74 105.675 2219.74 102.064 Q2219.74 98.4529 2217.41 96.3464 Q2215.07 94.2399 2211.06 94.2399 Q2209.19 94.2399 2207.31 94.6566 Q2205.46 95.0732 2203.52 95.9529 L2203.52 78.5919 Z" fill="#000000" fill-rule="nonzero" fill-opacity="1" /><path clip-path="url(#clip200)" d="M2243.63 81.6705 Q2240.02 81.6705 2238.19 85.2353 Q2236.39 88.777 2236.39 95.9066 Q2236.39 103.013 2238.19 106.578 Q2240.02 110.119 2243.63 110.119 Q2247.27 110.119 2249.07 106.578 Q2250.9 103.013 2250.9 95.9066 Q2250.9 88.777 2249.07 85.2353 Q2247.27 81.6705 2243.63 81.6705 M2243.63 77.9669 Q2249.44 77.9669 2252.5 82.5733 Q2255.58 87.1566 2255.58 95.9066 Q2255.58 104.633 2252.5 109.24 Q2249.44 113.823 2243.63 113.823 Q2237.82 113.823 2234.74 109.24 Q2231.69 104.633 2231.69 95.9066 Q2231.69 87.1566 2234.74 82.5733 Q2237.82 77.9669 2243.63 77.9669 Z" fill="#000000" fill-rule="nonzero" fill-opacity="1" /><path clip-path="url(#clip200)" d="M2273.8 81.6705 Q2270.18 81.6705 2268.36 85.2353 Q2266.55 88.777 2266.55 95.9066 Q2266.55 103.013 2268.36 106.578 Q2270.18 110.119 2273.8 110.119 Q2277.43 110.119 2279.24 106.578 Q2281.06 103.013 2281.06 95.9066 Q2281.06 88.777 2279.24 85.2353 Q2277.43 81.6705 2273.8 81.6705 M2273.8 77.9669 Q2279.61 77.9669 2282.66 82.5733 Q2285.74 87.1566 2285.74 95.9066 Q2285.74 104.633 2282.66 109.24 Q2279.61 113.823 2273.8 113.823 Q2267.99 113.823 2264.91 109.24 Q2261.85 104.633 2261.85 95.9066 Q2261.85 87.1566 2264.91 82.5733 Q2267.99 77.9669 2273.8 77.9669 Z" fill="#000000" fill-rule="nonzero" fill-opacity="1" /><path clip-path="url(#clip200)" d="M2331.24 1069.51 L2331.24 1063.08 L2350.72 1063.08 L2350.72 1039.72 L2331.24 1039.72 L2331.24 1033.29 L2378.76 1033.29 L2378.76 1039.72 L2356.13 1039.72 L2356.13 1063.08 L2378.76 1063.08 L2378.76 1069.51 L2331.24 1069.51 Z" fill="#000000" fill-rule="nonzero" fill-opacity="1" /><path clip-path="url(#clip200)" d="M2360.84 1004.55 Q2360.84 1011.64 2362.47 1014.38 Q2364.09 1017.12 2368.01 1017.12 Q2371.12 1017.12 2372.97 1015.08 Q2374.79 1013.01 2374.79 1009.48 Q2374.79 1004.61 2371.35 1001.68 Q2367.88 998.72 2362.15 998.72 L2360.84 998.72 L2360.84 1004.55 M2358.43 992.864 L2378.76 992.864 L2378.76 998.72 L2373.35 998.72 Q2376.6 1000.73 2378.16 1003.72 Q2379.69 1006.71 2379.69 1011.04 Q2379.69 1016.51 2376.63 1019.76 Q2373.54 1022.97 2368.39 1022.97 Q2362.37 1022.97 2359.32 1018.96 Q2356.26 1014.92 2356.26 1006.93 L2356.26 998.72 L2355.69 998.72 Q2351.65 998.72 2349.45 1001.39 Q2347.22 1004.04 2347.22 1008.84 Q2347.22 1011.9 2347.95 1014.79 Q2348.69 1017.69 2350.15 1020.36 L2344.74 1020.36 Q2343.5 1017.15 2342.89 1014.13 Q2342.26 1011.1 2342.26 1008.24 Q2342.26 1000.5 2346.27 996.683 Q2350.28 992.864 2358.43 992.864 Z" fill="#000000" fill-rule="nonzero" fill-opacity="1" /><path clip-path="url(#clip200)" d="M2343.12 981.024 L2343.12 975.199 L2359.86 975.199 L2343.12 958.68 L2343.12 951.487 L2356.9 965.109 L2378.76 949.736 L2378.76 956.293 L2360.78 968.929 L2367.15 975.199 L2378.76 975.199 L2378.76 981.024 L2343.12 981.024 Z" fill="#000000" fill-rule="nonzero" fill-opacity="1" /><path clip-path="url(#clip200)" d="M2370.68 940.601 L2370.68 933.886 L2378.76 933.886 L2378.76 940.601 L2370.68 940.601 Z" fill="#000000" fill-rule="nonzero" fill-opacity="1" /><path clip-path="url(#clip200)" d="M2373.42 894.323 L2392.32 894.323 L2392.32 900.211 L2343.12 900.211 L2343.12 894.323 L2348.53 894.323 Q2345.34 892.477 2343.82 889.676 Q2342.26 886.843 2342.26 882.928 Q2342.26 876.435 2347.41 872.393 Q2352.57 868.319 2360.97 868.319 Q2369.37 868.319 2374.53 872.393 Q2379.69 876.435 2379.69 882.928 Q2379.69 886.843 2378.16 889.676 Q2376.6 892.477 2373.42 894.323 M2360.97 874.398 Q2354.51 874.398 2350.85 877.072 Q2347.16 879.714 2347.16 884.36 Q2347.16 889.007 2350.85 891.681 Q2354.51 894.323 2360.97 894.323 Q2367.43 894.323 2371.12 891.681 Q2374.79 889.007 2374.79 884.36 Q2374.79 879.714 2371.12 877.072 Q2367.43 874.398 2360.97 874.398 Z" fill="#000000" fill-rule="nonzero" fill-opacity="1" /><path clip-path="url(#clip200)" d="M2360.84 842.41 Q2360.84 849.508 2362.47 852.245 Q2364.09 854.983 2368.01 854.983 Q2371.12 854.983 2372.97 852.946 Q2374.79 850.877 2374.79 847.344 Q2374.79 842.474 2371.35 839.546 Q2367.88 836.586 2362.15 836.586 L2360.84 836.586 L2360.84 842.41 M2358.43 830.729 L2378.76 830.729 L2378.76 836.586 L2373.35 836.586 Q2376.6 838.591 2378.16 841.583 Q2379.69 844.575 2379.69 848.903 Q2379.69 854.378 2376.63 857.625 Q2373.54 860.839 2368.39 860.839 Q2362.37 860.839 2359.32 856.829 Q2356.26 852.787 2356.26 844.798 L2356.26 836.586 L2355.69 836.586 Q2351.65 836.586 2349.45 839.259 Q2347.22 841.901 2347.22 846.707 Q2347.22 849.763 2347.95 852.659 Q2348.69 855.556 2350.15 858.229 L2344.74 858.229 Q2343.5 855.015 2342.89 851.991 Q2342.26 848.967 2342.26 846.103 Q2342.26 838.368 2346.27 834.549 Q2350.28 830.729 2358.43 830.729 Z" fill="#000000" fill-rule="nonzero" fill-opacity="1" /><path clip-path="url(#clip200)" d="M2344.48 793.013 L2349.96 793.013 Q2348.59 795.495 2347.92 798.01 Q2347.22 800.492 2347.22 803.039 Q2347.22 808.736 2350.85 811.887 Q2354.45 815.038 2360.97 815.038 Q2367.5 815.038 2371.12 811.887 Q2374.72 808.736 2374.72 803.039 Q2374.72 800.492 2374.05 798.01 Q2373.35 795.495 2371.98 793.013 L2377.4 793.013 Q2378.54 795.463 2379.11 798.105 Q2379.69 800.715 2379.69 803.675 Q2379.69 811.728 2374.63 816.47 Q2369.57 821.213 2360.97 821.213 Q2352.25 821.213 2347.25 816.438 Q2342.26 811.632 2342.26 803.293 Q2342.26 800.588 2342.83 798.01 Q2343.37 795.432 2344.48 793.013 Z" fill="#000000" fill-rule="nonzero" fill-opacity="1" /><path clip-path="url(#clip200)" d="M2343.12 753.195 L2360.46 766.086 L2378.76 752.527 L2378.76 759.433 L2364.76 769.81 L2378.76 780.186 L2378.76 787.092 L2360.11 773.247 L2343.12 785.915 L2343.12 779.008 L2355.82 769.555 L2343.12 760.102 L2343.12 753.195 Z" fill="#000000" fill-rule="nonzero" fill-opacity="1" /><path clip-path="url(#clip200)" d="M2347.22 730.438 Q2347.22 735.148 2350.91 737.886 Q2354.57 740.623 2360.97 740.623 Q2367.37 740.623 2371.06 737.917 Q2374.72 735.18 2374.72 730.438 Q2374.72 725.759 2371.03 723.022 Q2367.34 720.284 2360.97 720.284 Q2354.64 720.284 2350.95 723.022 Q2347.22 725.759 2347.22 730.438 M2342.26 730.438 Q2342.26 722.799 2347.22 718.438 Q2352.19 714.078 2360.97 714.078 Q2369.72 714.078 2374.72 718.438 Q2379.69 722.799 2379.69 730.438 Q2379.69 738.108 2374.72 742.469 Q2369.72 746.798 2360.97 746.798 Q2352.19 746.798 2347.22 742.469 Q2342.26 738.108 2342.26 730.438 Z" fill="#000000" fill-rule="nonzero" fill-opacity="1" /><path clip-path="url(#clip200)" d="M2374.09 696.413 L2374.09 679.417 L2347.79 679.417 L2347.79 691.734 L2352.25 691.734 Q2365.36 691.734 2372.37 695.49 L2374.09 696.413 M2374.09 704.911 Q2372.81 702.015 2370.11 700.742 Q2363.39 697.622 2349.86 697.622 L2343.12 697.622 L2343.12 673.528 L2374.09 673.528 L2374.09 668.849 L2387.77 668.849 L2387.77 673.528 L2378.76 673.528 L2378.76 702.429 L2387.77 702.429 L2387.77 707.107 L2374.09 707.107 L2374.09 704.911 Z" fill="#000000" fill-rule="nonzero" fill-opacity="1" /><path clip-path="url(#clip200)" d="M2370.68 657.805 L2370.68 651.089 L2376.15 651.089 L2386.34 656.309 L2386.34 660.415 L2376.15 657.805 L2370.68 657.805 Z" fill="#000000" fill-rule="nonzero" fill-opacity="1" /><path clip-path="url(#clip200)" d="M2343.12 618.083 L2343.12 609.521 L2366.99 599.4 L2343.12 589.246 L2343.12 580.748 L2378.76 580.748 L2378.76 586.636 L2348.72 586.636 L2371.92 596.471 L2371.92 602.328 L2348.72 612.195 L2378.76 612.195 L2378.76 618.083 L2343.12 618.083 Z" fill="#000000" fill-rule="nonzero" fill-opacity="1" /><path clip-path="url(#clip200)" d="M2353.14 548.378 Q2354.13 543.763 2357.25 541.185 Q2360.37 538.575 2364.95 538.575 Q2371.98 538.575 2375.84 543.413 Q2379.69 548.251 2379.69 557.163 Q2379.69 560.155 2379.08 563.338 Q2378.51 566.489 2377.33 569.863 L2371.12 569.863 Q2372.68 567.189 2373.48 564.006 Q2374.28 560.823 2374.28 557.354 Q2374.28 551.307 2371.89 548.156 Q2369.5 544.973 2364.95 544.973 Q2360.75 544.973 2358.39 547.933 Q2356.01 550.861 2356.01 556.113 L2356.01 561.651 L2350.72 561.651 L2350.72 555.858 Q2350.72 551.116 2348.85 548.601 Q2346.94 546.087 2343.37 546.087 Q2339.71 546.087 2337.77 548.697 Q2335.8 551.275 2335.8 556.113 Q2335.8 558.755 2336.37 561.778 Q2336.94 564.802 2338.15 568.43 L2332.42 568.43 Q2331.4 564.77 2330.89 561.587 Q2330.38 558.373 2330.38 555.54 Q2330.38 548.219 2333.73 543.954 Q2337.04 539.689 2342.7 539.689 Q2346.65 539.689 2349.39 541.949 Q2352.09 544.209 2353.14 548.378 Z" fill="#000000" fill-rule="nonzero" fill-opacity="1" /><path clip-path="url(#clip200)" d="M2331.24 516.805 L2331.24 511.394 L2384.81 527.945 L2384.81 533.355 L2331.24 516.805 Z" fill="#000000" fill-rule="nonzero" fill-opacity="1" /><path clip-path="url(#clip200)" d="M2344.48 479.597 L2349.96 479.597 Q2348.59 482.08 2347.92 484.594 Q2347.22 487.077 2347.22 489.623 Q2347.22 495.32 2350.85 498.471 Q2354.45 501.622 2360.97 501.622 Q2367.5 501.622 2371.12 498.471 Q2374.72 495.32 2374.72 489.623 Q2374.72 487.077 2374.05 484.594 Q2373.35 482.08 2371.98 479.597 L2377.4 479.597 Q2378.54 482.048 2379.11 484.69 Q2379.69 487.3 2379.69 490.26 Q2379.69 498.312 2374.63 503.055 Q2369.57 507.797 2360.97 507.797 Q2352.25 507.797 2347.25 503.023 Q2342.26 498.217 2342.26 489.878 Q2342.26 487.172 2342.83 484.594 Q2343.37 482.016 2344.48 479.597 Z" fill="#000000" fill-rule="nonzero" fill-opacity="1" /><path clip-path="url(#clip200)" d="M2382.07 454.58 Q2388.44 457.062 2390.38 459.418 Q2392.32 461.773 2392.32 465.72 L2392.32 470.399 L2387.42 470.399 L2387.42 466.961 Q2387.42 464.542 2386.28 463.205 Q2385.13 461.869 2380.86 460.245 L2378.19 459.195 L2343.12 473.613 L2343.12 467.407 L2371 456.267 L2343.12 445.127 L2343.12 438.92 L2382.07 454.58 Z" fill="#000000" fill-rule="nonzero" fill-opacity="1" /><path clip-path="url(#clip200)" d="M2343.12 435.069 L2343.12 400.917 L2347.79 400.917 L2347.79 415.112 L2378.76 415.112 L2378.76 420.873 L2347.79 420.873 L2347.79 435.069 L2343.12 435.069 Z" fill="#000000" fill-rule="nonzero" fill-opacity="1" /><polyline clip-path="url(#clip202)" style="stroke:#808080; stroke-linecap:round; stroke-linejoin:round; stroke-width:8; stroke-opacity:1; fill:none" points="259.76,1384.24 278.157,1372.26 296.555,1359.76 314.952,1345.96 333.349,1331.9 351.746,1317.58 370.143,1305.6 388.54,1293.89 406.937,1280.35 425.334,1268.11 443.731,1256.13 462.128,1242.33 480.526,1230.35 498.923,1217.07 517.32,1204.05 535.717,1189.73 554.114,1177.24 572.511,1163.43 590.908,1149.9 609.305,1136.09 627.702,1130.57 646.099,1125.16 664.497,1119.74 682.894,1115.06 701.291,1100.68 719.688,1095.89 738.085,1091.1 756.482,1085.48 774.879,1079.96 793.276,1074.75 811.673,1069.65 830.07,1064.85 848.468,1059.54 866.865,1054.75 885.262,1049.65 903.659,1044.13 922.056,1038.61 940.453,1033.3 958.85,1027.57 977.247,1022.15 995.644,1017.26 1014.04,1011.74 1032.44,1006.43 1050.84,1000.7 1069.23,995.802 1087.63,990.386 1106.03,985.595 1124.42,980.595 1142.82,975.283 1161.22,969.763 1179.62,961.796 1198.01,953.984 1216.41,945.392 1234.81,937.424 1253.2,929.613 1271.6,921.489 1290,914.146 1308.4,906.178 1326.79,899.148 1345.19,891.337 1363.59,884.306 1381.98,876.182 1400.38,868.371 1418.78,861.184 1437.17,853.061 1455.57,833.896 1473.97,813.899 1492.37,790.986 1510.76,772.238 1529.16,772.238 1547.56,750.991 1565.95,729.744 1584.35,710.58 1602.75,690.583 1621.15,670.585 1639.54,648.088 1657.94,629.341 1676.34,609.344 1694.73,588.93 1713.13,568.933 1731.53,545.967 1749.93,520.189 1768.32,495.349 1786.72,472.383 1805.12,447.074 1823.51,425.515 1841.91,400.674 1860.31,376.302 1878.71,350.525 1897.1,325.216 1915.5,299.438 1933.9,274.129 1952.29,251.632 1970.69,225.854 1989.09,203.357 2007.48,181.329 2025.88,156.957 2044.28,135.866 2062.68,110.089 2081.07,86.1857 "/>
<circle clip-path="url(#clip202)" cx="259.76" cy="1384.24" r="14.4" fill="#e26f46" fill-rule="evenodd" fill-opacity="1" stroke="#000000" stroke-opacity="1" stroke-width="3.2"/>
<circle clip-path="url(#clip202)" cx="609.305" cy="1136.09" r="14.4" fill="#e26f46" fill-rule="evenodd" fill-opacity="1" stroke="#000000" stroke-opacity="1" stroke-width="3.2"/>
<circle clip-path="url(#clip202)" cx="1437.17" cy="853.061" r="14.4" fill="#e26f46" fill-rule="evenodd" fill-opacity="1" stroke="#000000" stroke-opacity="1" stroke-width="3.2"/>
<circle clip-path="url(#clip202)" cx="1713.13" cy="568.933" r="14.4" fill="#e26f46" fill-rule="evenodd" fill-opacity="1" stroke="#000000" stroke-opacity="1" stroke-width="3.2"/>
<circle clip-path="url(#clip202)" cx="2081.07" cy="86.1857" r="14.4" fill="#e26f46" fill-rule="evenodd" fill-opacity="1" stroke="#000000" stroke-opacity="1" stroke-width="3.2"/>
<path clip-path="url(#clip200)" d="M1488.56 1377.32 L2071.36 1377.32 L2071.36 1221.8 L1488.56 1221.8  Z" fill="#ffffff" fill-rule="evenodd" fill-opacity="1"/>
<polyline clip-path="url(#clip200)" style="stroke:#000000; stroke-linecap:round; stroke-linejoin:round; stroke-width:4; stroke-opacity:1; fill:none" points="1488.56,1377.32 2071.36,1377.32 2071.36,1221.8 1488.56,1221.8 1488.56,1377.32 "/>
<polyline clip-path="url(#clip200)" style="stroke:#808080; stroke-linecap:round; stroke-linejoin:round; stroke-width:8; stroke-opacity:1; fill:none" points="1510.01,1273.64 1638.71,1273.64 "/>
<path clip-path="url(#clip200)" d="M1660.17 1256.36 L1664.84 1256.36 L1664.84 1270.52 L1681.83 1270.52 L1681.83 1256.36 L1686.51 1256.36 L1686.51 1290.92 L1681.83 1290.92 L1681.83 1274.46 L1664.84 1274.46 L1664.84 1290.92 L1660.17 1290.92 L1660.17 1256.36 Z" fill="#000000" fill-rule="nonzero" fill-opacity="1" /><path clip-path="url(#clip200)" d="M1707.41 1277.88 Q1702.25 1277.88 1700.26 1279.06 Q1698.27 1280.24 1698.27 1283.09 Q1698.27 1285.36 1699.75 1286.7 Q1701.25 1288.02 1703.82 1288.02 Q1707.36 1288.02 1709.49 1285.52 Q1711.65 1283 1711.65 1278.83 L1711.65 1277.88 L1707.41 1277.88 M1715.91 1276.12 L1715.91 1290.92 L1711.65 1290.92 L1711.65 1286.98 Q1710.19 1289.34 1708.01 1290.48 Q1705.84 1291.59 1702.69 1291.59 Q1698.71 1291.59 1696.35 1289.36 Q1694.01 1287.12 1694.01 1283.37 Q1694.01 1278.99 1696.92 1276.77 Q1699.86 1274.55 1705.67 1274.55 L1711.65 1274.55 L1711.65 1274.13 Q1711.65 1271.19 1709.7 1269.6 Q1707.78 1267.98 1704.29 1267.98 Q1702.06 1267.98 1699.96 1268.51 Q1697.85 1269.04 1695.91 1270.11 L1695.91 1266.17 Q1698.24 1265.27 1700.44 1264.83 Q1702.64 1264.36 1704.73 1264.36 Q1710.35 1264.36 1713.13 1267.28 Q1715.91 1270.2 1715.91 1276.12 Z" fill="#000000" fill-rule="nonzero" fill-opacity="1" /><path clip-path="url(#clip200)" d="M1724.52 1264.99 L1728.75 1264.99 L1728.75 1277.17 L1740.77 1264.99 L1746 1264.99 L1736.09 1275.01 L1747.27 1290.92 L1742.5 1290.92 L1733.31 1277.84 L1728.75 1282.47 L1728.75 1290.92 L1724.52 1290.92 L1724.52 1264.99 Z" fill="#000000" fill-rule="nonzero" fill-opacity="1" /><path clip-path="url(#clip200)" d="M1753.91 1285.04 L1758.8 1285.04 L1758.8 1290.92 L1753.91 1290.92 L1753.91 1285.04 Z" fill="#000000" fill-rule="nonzero" fill-opacity="1" /><path clip-path="url(#clip200)" d="M1787.57 1287.03 L1787.57 1300.78 L1783.29 1300.78 L1783.29 1264.99 L1787.57 1264.99 L1787.57 1268.92 Q1788.91 1266.61 1790.95 1265.5 Q1793.01 1264.36 1795.86 1264.36 Q1800.58 1264.36 1803.52 1268.11 Q1806.48 1271.86 1806.48 1277.98 Q1806.48 1284.09 1803.52 1287.84 Q1800.58 1291.59 1795.86 1291.59 Q1793.01 1291.59 1790.95 1290.48 Q1788.91 1289.34 1787.57 1287.03 M1802.06 1277.98 Q1802.06 1273.28 1800.12 1270.61 Q1798.2 1267.93 1794.82 1267.93 Q1791.44 1267.93 1789.49 1270.61 Q1787.57 1273.28 1787.57 1277.98 Q1787.57 1282.67 1789.49 1285.36 Q1791.44 1288.02 1794.82 1288.02 Q1798.2 1288.02 1800.12 1285.36 Q1802.06 1282.67 1802.06 1277.98 Z" fill="#000000" fill-rule="nonzero" fill-opacity="1" /><path clip-path="url(#clip200)" d="M1825.33 1277.88 Q1820.16 1277.88 1818.17 1279.06 Q1816.18 1280.24 1816.18 1283.09 Q1816.18 1285.36 1817.66 1286.7 Q1819.17 1288.02 1821.74 1288.02 Q1825.28 1288.02 1827.41 1285.52 Q1829.56 1283 1829.56 1278.83 L1829.56 1277.88 L1825.33 1277.88 M1833.82 1276.12 L1833.82 1290.92 L1829.56 1290.92 L1829.56 1286.98 Q1828.1 1289.34 1825.93 1290.48 Q1823.75 1291.59 1820.6 1291.59 Q1816.62 1291.59 1814.26 1289.36 Q1811.92 1287.12 1811.92 1283.37 Q1811.92 1278.99 1814.84 1276.77 Q1817.78 1274.55 1823.59 1274.55 L1829.56 1274.55 L1829.56 1274.13 Q1829.56 1271.19 1827.62 1269.6 Q1825.7 1267.98 1822.2 1267.98 Q1819.98 1267.98 1817.87 1268.51 Q1815.77 1269.04 1813.82 1270.11 L1813.82 1266.17 Q1816.16 1265.27 1818.36 1264.83 Q1820.56 1264.36 1822.64 1264.36 Q1828.27 1264.36 1831.04 1267.28 Q1833.82 1270.2 1833.82 1276.12 Z" fill="#000000" fill-rule="nonzero" fill-opacity="1" /><path clip-path="url(#clip200)" d="M1861.25 1265.98 L1861.25 1269.97 Q1859.45 1268.97 1857.62 1268.48 Q1855.81 1267.98 1853.96 1267.98 Q1849.82 1267.98 1847.53 1270.61 Q1845.23 1273.23 1845.23 1277.98 Q1845.23 1282.72 1847.53 1285.36 Q1849.82 1287.98 1853.96 1287.98 Q1855.81 1287.98 1857.62 1287.49 Q1859.45 1286.98 1861.25 1285.98 L1861.25 1289.92 Q1859.47 1290.75 1857.55 1291.17 Q1855.65 1291.59 1853.5 1291.59 Q1847.64 1291.59 1844.19 1287.91 Q1840.74 1284.23 1840.74 1277.98 Q1840.74 1271.63 1844.22 1268 Q1847.71 1264.36 1853.78 1264.36 Q1855.74 1264.36 1857.62 1264.78 Q1859.49 1265.17 1861.25 1265.98 Z" fill="#000000" fill-rule="nonzero" fill-opacity="1" /><path clip-path="url(#clip200)" d="M1890.21 1264.99 L1880.84 1277.61 L1890.7 1290.92 L1885.67 1290.92 L1878.13 1280.73 L1870.58 1290.92 L1865.56 1290.92 L1875.63 1277.35 L1866.41 1264.99 L1871.44 1264.99 L1878.31 1274.23 L1885.19 1264.99 L1890.21 1264.99 Z" fill="#000000" fill-rule="nonzero" fill-opacity="1" /><path clip-path="url(#clip200)" d="M1906.76 1267.98 Q1903.34 1267.98 1901.34 1270.66 Q1899.35 1273.32 1899.35 1277.98 Q1899.35 1282.63 1901.32 1285.31 Q1903.31 1287.98 1906.76 1287.98 Q1910.16 1287.98 1912.15 1285.29 Q1914.15 1282.61 1914.15 1277.98 Q1914.15 1273.37 1912.15 1270.68 Q1910.16 1267.98 1906.76 1267.98 M1906.76 1264.36 Q1912.32 1264.36 1915.49 1267.98 Q1918.66 1271.59 1918.66 1277.98 Q1918.66 1284.34 1915.49 1287.98 Q1912.32 1291.59 1906.76 1291.59 Q1901.18 1291.59 1898.01 1287.98 Q1894.86 1284.34 1894.86 1277.98 Q1894.86 1271.59 1898.01 1267.98 Q1901.18 1264.36 1906.76 1264.36 Z" fill="#000000" fill-rule="nonzero" fill-opacity="1" /><path clip-path="url(#clip200)" d="M1931.51 1287.51 L1943.87 1287.51 L1943.87 1268.39 L1934.91 1268.39 L1934.91 1271.63 Q1934.91 1281.17 1932.18 1286.26 L1931.51 1287.51 M1925.33 1287.51 Q1927.43 1286.59 1928.36 1284.62 Q1930.63 1279.73 1930.63 1269.9 L1930.63 1264.99 L1948.15 1264.99 L1948.15 1287.51 L1951.55 1287.51 L1951.55 1297.47 L1948.15 1297.47 L1948.15 1290.92 L1927.13 1290.92 L1927.13 1297.47 L1923.73 1297.47 L1923.73 1287.51 L1925.33 1287.51 Z" fill="#000000" fill-rule="nonzero" fill-opacity="1" /><circle clip-path="url(#clip200)" cx="1574.36" cy="1325.48" r="20.48" fill="#e26f46" fill-rule="evenodd" fill-opacity="1" stroke="#000000" stroke-opacity="1" stroke-width="4.55111"/>
<path clip-path="url(#clip200)" d="M1660.17 1308.2 L1689.4 1308.2 L1689.4 1312.13 L1677.13 1312.13 L1677.13 1342.76 L1672.43 1342.76 L1672.43 1312.13 L1660.17 1312.13 L1660.17 1308.2 Z" fill="#000000" fill-rule="nonzero" fill-opacity="1" /><path clip-path="url(#clip200)" d="M1703.78 1319.82 Q1700.35 1319.82 1698.36 1322.5 Q1696.37 1325.16 1696.37 1329.82 Q1696.37 1334.47 1698.34 1337.15 Q1700.33 1339.82 1703.78 1339.82 Q1707.18 1339.82 1709.17 1337.13 Q1711.16 1334.45 1711.16 1329.82 Q1711.16 1325.21 1709.17 1322.52 Q1707.18 1319.82 1703.78 1319.82 M1703.78 1316.2 Q1709.33 1316.2 1712.5 1319.82 Q1715.67 1323.43 1715.67 1329.82 Q1715.67 1336.18 1712.5 1339.82 Q1709.33 1343.43 1703.78 1343.43 Q1698.2 1343.43 1695.03 1339.82 Q1691.88 1336.18 1691.88 1329.82 Q1691.88 1323.43 1695.03 1319.82 Q1698.2 1316.2 1703.78 1316.2 Z" fill="#000000" fill-rule="nonzero" fill-opacity="1" /><path clip-path="url(#clip200)" d="M1737.71 1342.76 L1737.71 1331.85 L1729.77 1331.85 Q1726.23 1331.85 1723.87 1329.65 Q1721.74 1327.66 1721.74 1323.4 L1721.74 1316.83 L1726 1316.83 L1726 1323.01 Q1726 1325.72 1727.2 1327.08 Q1728.43 1328.45 1730.84 1328.45 L1737.71 1328.45 L1737.71 1316.83 L1741.97 1316.83 L1741.97 1342.76 L1737.71 1342.76 Z" fill="#000000" fill-rule="nonzero" fill-opacity="1" /><path clip-path="url(#clip200)" d="M1750.58 1316.83 L1754.82 1316.83 L1754.82 1329.01 L1766.83 1316.83 L1772.06 1316.83 L1762.16 1326.85 L1773.34 1342.76 L1768.57 1342.76 L1759.38 1329.68 L1754.82 1334.31 L1754.82 1342.76 L1750.58 1342.76 L1750.58 1316.83 Z" fill="#000000" fill-rule="nonzero" fill-opacity="1" /><path clip-path="url(#clip200)" d="M1801.41 1316.83 L1801.41 1342.76 L1797.18 1342.76 L1797.18 1321.95 L1784.68 1342.76 L1779.22 1342.76 L1779.22 1316.83 L1783.45 1316.83 L1783.45 1337.59 L1795.93 1316.83 L1801.41 1316.83 Z" fill="#000000" fill-rule="nonzero" fill-opacity="1" /><path clip-path="url(#clip200)" d="M1847.48 1316.83 L1847.48 1342.76 L1843.2 1342.76 L1843.2 1320.23 L1829.38 1320.23 L1829.38 1342.76 L1825.09 1342.76 L1825.09 1316.83 L1847.48 1316.83 Z" fill="#000000" fill-rule="nonzero" fill-opacity="1" /><path clip-path="url(#clip200)" d="M1878.43 1328.73 L1878.43 1330.81 L1858.84 1330.81 Q1859.12 1335.21 1861.48 1337.52 Q1863.87 1339.82 1868.1 1339.82 Q1870.56 1339.82 1872.85 1339.21 Q1875.16 1338.61 1877.43 1337.41 L1877.43 1341.44 Q1875.14 1342.41 1872.73 1342.92 Q1870.33 1343.43 1867.85 1343.43 Q1861.65 1343.43 1858.01 1339.82 Q1854.4 1336.2 1854.4 1330.05 Q1854.4 1323.68 1857.83 1319.95 Q1861.28 1316.2 1867.11 1316.2 Q1872.34 1316.2 1875.37 1319.58 Q1878.43 1322.94 1878.43 1328.73 M1874.17 1327.48 Q1874.12 1323.98 1872.2 1321.9 Q1870.3 1319.82 1867.15 1319.82 Q1863.59 1319.82 1861.44 1321.83 Q1859.31 1323.84 1858.98 1327.5 L1874.17 1327.48 Z" fill="#000000" fill-rule="nonzero" fill-opacity="1" /><path clip-path="url(#clip200)" d="M1889.54 1338.87 L1889.54 1352.62 L1885.26 1352.62 L1885.26 1316.83 L1889.54 1316.83 L1889.54 1320.76 Q1890.88 1318.45 1892.92 1317.34 Q1894.98 1316.2 1897.83 1316.2 Q1902.55 1316.2 1905.49 1319.95 Q1908.45 1323.7 1908.45 1329.82 Q1908.45 1335.93 1905.49 1339.68 Q1902.55 1343.43 1897.83 1343.43 Q1894.98 1343.43 1892.92 1342.32 Q1890.88 1341.18 1889.54 1338.87 M1904.03 1329.82 Q1904.03 1325.12 1902.09 1322.45 Q1900.16 1319.77 1896.78 1319.77 Q1893.4 1319.77 1891.46 1322.45 Q1889.54 1325.12 1889.54 1329.82 Q1889.54 1334.51 1891.46 1337.2 Q1893.4 1339.86 1896.78 1339.86 Q1900.16 1339.86 1902.09 1337.2 Q1904.03 1334.51 1904.03 1329.82 Z" fill="#000000" fill-rule="nonzero" fill-opacity="1" /><path clip-path="url(#clip200)" d="M1937.69 1328.73 L1937.69 1330.81 L1918.1 1330.81 Q1918.38 1335.21 1920.74 1337.52 Q1923.13 1339.82 1927.36 1339.82 Q1929.82 1339.82 1932.11 1339.21 Q1934.42 1338.61 1936.69 1337.41 L1936.69 1341.44 Q1934.4 1342.41 1931.99 1342.92 Q1929.59 1343.43 1927.11 1343.43 Q1920.9 1343.43 1917.27 1339.82 Q1913.66 1336.2 1913.66 1330.05 Q1913.66 1323.68 1917.09 1319.95 Q1920.53 1316.2 1926.37 1316.2 Q1931.6 1316.2 1934.63 1319.58 Q1937.69 1322.94 1937.69 1328.73 M1933.43 1327.48 Q1933.38 1323.98 1931.46 1321.9 Q1929.56 1319.82 1926.41 1319.82 Q1922.85 1319.82 1920.7 1321.83 Q1918.57 1323.84 1918.24 1327.5 L1933.43 1327.48 Z" fill="#000000" fill-rule="nonzero" fill-opacity="1" /><path clip-path="url(#clip200)" d="M1944.52 1342.76 L1944.52 1316.83 L1962.8 1316.83 L1962.8 1320.23 L1948.8 1320.23 L1948.8 1342.76 L1944.52 1342.76 Z" fill="#000000" fill-rule="nonzero" fill-opacity="1" /><path clip-path="url(#clip200)" d="M1991.62 1316.83 L1991.62 1342.76 L1987.39 1342.76 L1987.39 1321.95 L1974.89 1342.76 L1969.42 1342.76 L1969.42 1316.83 L1973.66 1316.83 L1973.66 1337.59 L1986.14 1316.83 L1991.62 1316.83 Z" fill="#000000" fill-rule="nonzero" fill-opacity="1" /><path clip-path="url(#clip200)" d="M2010.67 1316.2 Q2016.23 1316.2 2019.4 1319.82 Q2022.57 1323.43 2022.57 1329.82 Q2022.57 1336.18 2019.4 1339.82 Q2016.23 1343.43 2010.67 1343.43 Q2005.09 1343.43 2002.02 1339.91 Q1998.94 1336.39 1998.77 1329.82 L1998.64 1324.51 Q1998.52 1321.76 1998.52 1320.81 Q1998.52 1317.11 1999.86 1314.38 Q2001.97 1310.09 2005.6 1308.24 Q2009.26 1306.39 2015.37 1306.34 Q2018.2 1306.32 2019.45 1305.93 L2020.63 1309.31 Q2019.49 1309.77 2018.45 1309.79 L2012.66 1310.19 Q2009.75 1310.39 2007.99 1311.41 Q2003.38 1314.12 2002.94 1317.66 L2002.78 1318.96 Q2005.79 1316.2 2010.67 1316.2 M2010.67 1319.82 Q2007.25 1319.82 2005.26 1322.5 Q2003.27 1325.16 2003.27 1329.82 Q2003.27 1334.47 2005.23 1337.15 Q2007.22 1339.82 2010.67 1339.82 Q2014.08 1339.82 2016.07 1337.13 Q2018.06 1334.45 2018.06 1329.82 Q2018.06 1325.21 2016.07 1322.52 Q2014.08 1319.82 2010.67 1319.82 Z" fill="#000000" fill-rule="nonzero" fill-opacity="1" /><path clip-path="url(#clip200)" d="M2041.41 1329.72 Q2036.25 1329.72 2034.26 1330.9 Q2032.27 1332.08 2032.27 1334.93 Q2032.27 1337.2 2033.75 1338.54 Q2035.26 1339.86 2037.83 1339.86 Q2041.37 1339.86 2043.5 1337.36 Q2045.65 1334.84 2045.65 1330.67 L2045.65 1329.72 L2041.41 1329.72 M2049.91 1327.96 L2049.91 1342.76 L2045.65 1342.76 L2045.65 1338.82 Q2044.19 1341.18 2042.02 1342.32 Q2039.84 1343.43 2036.69 1343.43 Q2032.71 1343.43 2030.35 1341.2 Q2028.01 1338.96 2028.01 1335.21 Q2028.01 1330.83 2030.93 1328.61 Q2033.87 1326.39 2039.68 1326.39 L2045.65 1326.39 L2045.65 1325.97 Q2045.65 1323.03 2043.7 1321.44 Q2041.78 1319.82 2038.29 1319.82 Q2036.07 1319.82 2033.96 1320.35 Q2031.85 1320.88 2029.91 1321.95 L2029.91 1318.01 Q2032.25 1317.11 2034.45 1316.67 Q2036.64 1316.2 2038.73 1316.2 Q2044.35 1316.2 2047.13 1319.12 Q2049.91 1322.04 2049.91 1327.96 Z" fill="#000000" fill-rule="nonzero" fill-opacity="1" /></svg>
