<svg version="1.1" viewBox="0.0 0.0 600.0 371.0" fill="none" stroke="none" stroke-linecap="square" stroke-miterlimit="10" width="600" height="371" xmlns:xlink="http://www.w3.org/1999/xlink" xmlns="http://www.w3.org/2000/svg"><path fill="#ffffff" d="M0 0L600.0 0L600.0 371.0L0 371.0L0 0Z" fill-rule="nonzero"/><path stroke="#333333" stroke-width="1.0" stroke-linecap="butt" d="M105.5 274.5L581.5 274.5" fill-rule="nonzero"/><path stroke="#cccccc" stroke-width="1.0" stroke-linecap="butt" d="M105.5 192.5L581.5 192.5" fill-rule="nonzero"/><path stroke="#cccccc" stroke-width="1.0" stroke-linecap="butt" d="M105.5 110.5L581.5 110.5" fill-rule="nonzero"/><path stroke="#cccccc" stroke-width="1.0" stroke-linecap="butt" d="M105.5 29.5L581.5 29.5" fill-rule="nonzero"/><clipPath id="id_0"><path d="M105.55 29.05L581.45 29.05L581.45 274.45L105.55 274.45L105.55 29.05Z" clip-rule="nonzero"/></clipPath><path stroke="#000000" stroke-width="0.0" stroke-linecap="butt" stroke-opacity="0.0" clip-path="url(#id_0)" d="M178.0 274.0L143.0 274.0L143.0 32.0C143.0 30.89543 143.89543 30.0 145.0 30.0L176.0 30.0C177.10457 30.0 178.0 30.89543 178.0 32.0Z" fill-rule="nonzero"/><path fill="#434343" clip-path="url(#id_0)" d="M178.0 274.0L143.0 274.0L143.0 32.0C143.0 30.89543 143.89543 30.0 145.0 30.0L176.0 30.0C177.10457 30.0 178.0 30.89543 178.0 32.0Z" fill-rule="nonzero"/><path stroke="#000000" stroke-width="0.0" stroke-linecap="butt" stroke-opacity="0.0" clip-path="url(#id_0)" d="M288.0 274.0L253.0 274.0L253.0 253.0C253.0 251.89543 253.89543 251.0 255.0 251.0L286.0 251.0C287.10458 251.0 288.0 251.89543 288.0 253.0Z" fill-rule="nonzero"/><path fill="#434343" clip-path="url(#id_0)" d="M288.0 274.0L253.0 274.0L253.0 253.0C253.0 251.89543 253.89543 251.0 255.0 251.0L286.0 251.0C287.10458 251.0 288.0 251.89543 288.0 253.0Z" fill-rule="nonzero"/><path stroke="#000000" stroke-width="0.0" stroke-linecap="butt" stroke-opacity="0.0" clip-path="url(#id_0)" d="M397.0 274.0L362.0 274.0L362.0 259.0C362.0 257.89542 362.89542 257.0 364.0 257.0L395.0 257.0C396.10458 257.0 397.0 257.89542 397.0 259.0Z" fill-rule="nonzero"/><path fill="#434343" clip-path="url(#id_0)" d="M397.0 274.0L362.0 274.0L362.0 259.0C362.0 257.89542 362.89542 257.0 364.0 257.0L395.0 257.0C396.10458 257.0 397.0 257.89542 397.0 259.0Z" fill-rule="nonzero"/><path stroke="#000000" stroke-width="0.0" stroke-linecap="butt" stroke-opacity="0.0" clip-path="url(#id_0)" d="M507.0 274.0L472.0 274.0L472.0 255.0C472.0 253.89543 472.89542 253.0 474.0 253.0L505.0 253.0C506.10458 253.0 507.0 253.89543 507.0 255.0Z" fill-rule="nonzero"/><path fill="#434343" clip-path="url(#id_0)" d="M507.0 274.0L472.0 274.0L472.0 255.0C472.0 253.89543 472.89542 253.0 474.0 253.0L505.0 253.0C506.10458 253.0 507.0 253.89543 507.0 255.0Z" fill-rule="nonzero"/><path stroke="#000000" stroke-width="0.0" stroke-linecap="butt" stroke-opacity="0.0" clip-path="url(#id_0)" d="M214.0 274.0L179.0 274.0L179.0 69.0C179.0 67.89543 179.89543 67.0 181.0 67.0L212.0 67.0C213.10457 67.0 214.0 67.89543 214.0 69.0Z" fill-rule="nonzero"/><path fill="#6fa8dc" clip-path="url(#id_0)" d="M214.0 274.0L179.0 274.0L179.0 69.0C179.0 67.89543 179.89543 67.0 181.0 67.0L212.0 67.0C213.10457 67.0 214.0 67.89543 214.0 69.0Z" fill-rule="nonzero"/><path stroke="#000000" stroke-width="0.0" stroke-linecap="butt" stroke-opacity="0.0" clip-path="url(#id_0)" d="M324.0 274.0L289.0 274.0L289.0 255.0C289.0 253.89543 289.89542 253.0 291.0 253.0L322.0 253.0C323.10458 253.0 324.0 253.89543 324.0 255.0Z" fill-rule="nonzero"/><path fill="#6fa8dc" clip-path="url(#id_0)" d="M324.0 274.0L289.0 274.0L289.0 255.0C289.0 253.89543 289.89542 253.0 291.0 253.0L322.0 253.0C323.10458 253.0 324.0 253.89543 324.0 255.0Z" fill-rule="nonzero"/><path stroke="#000000" stroke-width="0.0" stroke-linecap="butt" stroke-opacity="0.0" clip-path="url(#id_0)" d="M433.0 274.0L398.0 274.0L398.0 261.0C398.0 259.89542 398.89542 259.0 400.0 259.0L431.0 259.0C432.10458 259.0 433.0 259.89542 433.0 261.0Z" fill-rule="nonzero"/><path fill="#6fa8dc" clip-path="url(#id_0)" d="M433.0 274.0L398.0 274.0L398.0 261.0C398.0 259.89542 398.89542 259.0 400.0 259.0L431.0 259.0C432.10458 259.0 433.0 259.89542 433.0 261.0Z" fill-rule="nonzero"/><path stroke="#000000" stroke-width="0.0" stroke-linecap="butt" stroke-opacity="0.0" clip-path="url(#id_0)" d="M543.0 274.0L508.0 274.0L508.0 253.0C508.0 251.89543 508.89542 251.0 510.0 251.0L541.0 251.0C542.10455 251.0 543.0 251.89543 543.0 253.0Z" fill-rule="nonzero"/><path fill="#6fa8dc" clip-path="url(#id_0)" d="M543.0 274.0L508.0 274.0L508.0 253.0C508.0 251.89543 508.89542 251.0 510.0 251.0L541.0 251.0C542.10455 251.0 543.0 251.89543 543.0 253.0Z" fill-rule="nonzero"/><path stroke="#434343" stroke-width="3.0" stroke-linejoin="round" stroke-linecap="round" d="M149.57812 152.86961Q149.57812 155.41649 148.70312 156.65086Q147.84375 157.88524 146.0 157.88524Q144.1875 157.88524 143.3125 156.68211Q142.4375 155.46336 142.40625 153.07274L142.40625 151.13524Q142.40625 148.63524 143.26562 147.41649Q144.14062 146.19774 145.98438 146.19774Q147.82812 146.19774 148.6875 147.36961Q149.5625 148.54149 149.57812 150.99461L149.57812 152.86961ZM148.14062 150.90086Q148.14062 149.05711 147.625 148.22899Q147.10938 147.38524 145.98438 147.38524Q144.875 147.38524 144.35938 148.22899Q143.85938 149.05711 143.84375 150.79149L143.84375 153.10399Q143.84375 154.94774 144.375 155.82274Q144.92188 156.69774 146.0 156.69774Q147.07812 156.69774 147.59375 155.86961Q148.10938 155.04149 148.14062 153.26024L148.14062 150.90086ZM151.54688 159.99461L150.73438 159.43211Q151.46875 158.41649 151.5 157.32274L151.5 156.01024L152.90625 156.01024L152.90625 157.15086Q152.90625 157.94774 152.51562 158.72899Q152.14062 159.52586 151.54688 159.99461ZM155.10938 152.02586L155.6875 146.35399L161.51562 146.35399L161.51562 147.68211L156.92188 147.68211L156.57812 150.79149Q157.40625 150.29149 158.46875 150.29149Q160.03125 150.29149 160.9375 151.32274Q161.85938 152.35399 161.85938 154.10399Q161.85938 155.85399 160.90625 156.86961Q159.95312 157.88524 158.25 157.88524Q156.75 157.88524 155.79688 157.05711Q154.84375 156.21336 154.70312 154.72899L156.07812 154.72899Q156.20312 155.71336 156.76562 156.21336Q157.32812 156.69774 158.25 156.69774Q159.26562 156.69774 159.82812 156.01024Q160.40625 155.32274 160.40625 154.11961Q160.40625 152.97899 159.78125 152.29149Q159.17188 151.58836 158.14062 151.58836Q157.1875 151.58836 156.65625 152.01024L156.26562 152.32274L155.10938 152.02586ZM168.98438 152.72899Q168.53125 153.26024 167.90625 153.58836Q167.28125 153.91649 166.53125 153.91649Q165.54688 153.91649 164.8125 153.43211Q164.07812 152.94774 163.67188 152.07274Q163.28125 151.19774 163.28125 150.13524Q163.28125 148.99461 163.71875 148.08836Q164.15625 147.16649 164.95312 146.68211Q165.75 146.19774 166.8125 146.19774Q168.5 146.19774 169.46875 147.46336Q170.4375 148.71336 170.4375 150.90086L170.4375 151.32274Q170.4375 154.63524 169.125 156.16649Q167.8125 157.69774 165.17188 157.74461L164.89062 157.74461L164.89062 156.51024L165.1875 156.51024Q166.98438 156.47899 167.9375 155.58836Q168.90625 154.68211 168.98438 152.72899ZM166.76562 152.72899Q167.48438 152.72899 168.09375 152.29149Q168.71875 151.83836 169.0 151.18211L169.0 150.60399Q169.0 149.18211 168.375 148.29149Q167.76562 147.40086 166.8125 147.40086Q165.85938 147.40086 165.28125 148.13524Q164.70312 148.85399 164.70312 150.05711Q164.70312 151.21336 165.26562 151.97899Q165.82812 152.72899 166.76562 152.72899ZM179.34375 149.32274Q179.34375 150.16649 178.89062 150.83836Q178.45312 151.49461 177.6875 151.86961Q178.57812 152.26024 179.09375 152.99461Q179.60938 153.72899 179.60938 154.65086Q179.60938 156.13524 178.60938 157.01024Q177.625 157.88524 176.0 157.88524Q174.35938 157.88524 173.35938 157.01024Q172.375 156.11961 172.375 154.65086Q172.375 153.72899 172.875 152.99461Q173.39062 152.24461 174.28125 151.86961Q173.51562 151.49461 173.07812 150.83836Q172.64062 150.16649 172.64062 149.32274Q172.64062 147.88524 173.5625 147.04149Q174.48438 146.19774 176.0 146.19774Q177.5 146.19774 178.42188 147.04149Q179.34375 147.88524 179.34375 149.32274ZM178.17188 154.61961Q178.17188 153.66649 177.5625 153.07274Q176.95312 152.46336 175.96875 152.46336Q175.0 152.46336 174.40625 153.05711Q173.82812 153.65086 173.82812 154.61961Q173.82812 155.58836 174.39062 156.15086Q174.96875 156.69774 176.0 156.69774Q177.01562 156.69774 177.59375 156.15086Q178.17188 155.58836 178.17188 154.61961ZM176.0 147.38524Q175.14062 147.38524 174.60938 147.91649Q174.09375 148.43211 174.09375 149.33836Q174.09375 150.21336 174.60938 150.74461Q175.125 151.27586 175.98438 151.27586Q176.85938 151.27586 177.375 150.74461Q177.90625 150.21336 177.90625 149.35399Q177.90625 148.47899 177.35938 147.93211Q176.82812 147.38524 176.0 147.38524Z" fill-rule="nonzero"/><path fill="#cccccc" d="M149.57812 152.86961Q149.57812 155.41649 148.70312 156.65086Q147.84375 157.88524 146.0 157.88524Q144.1875 157.88524 143.3125 156.68211Q142.4375 155.46336 142.40625 153.07274L142.40625 151.13524Q142.40625 148.63524 143.26562 147.41649Q144.14062 146.19774 145.98438 146.19774Q147.82812 146.19774 148.6875 147.36961Q149.5625 148.54149 149.57812 150.99461L149.57812 152.86961ZM148.14062 150.90086Q148.14062 149.05711 147.625 148.22899Q147.10938 147.38524 145.98438 147.38524Q144.875 147.38524 144.35938 148.22899Q143.85938 149.05711 143.84375 150.79149L143.84375 153.10399Q143.84375 154.94774 144.375 155.82274Q144.92188 156.69774 146.0 156.69774Q147.07812 156.69774 147.59375 155.86961Q148.10938 155.04149 148.14062 153.26024L148.14062 150.90086ZM151.54688 159.99461L150.73438 159.43211Q151.46875 158.41649 151.5 157.32274L151.5 156.01024L152.90625 156.01024L152.90625 157.15086Q152.90625 157.94774 152.51562 158.72899Q152.14062 159.52586 151.54688 159.99461ZM155.10938 152.02586L155.6875 146.35399L161.51562 146.35399L161.51562 147.68211L156.92188 147.68211L156.57812 150.79149Q157.40625 150.29149 158.46875 150.29149Q160.03125 150.29149 160.9375 151.32274Q161.85938 152.35399 161.85938 154.10399Q161.85938 155.85399 160.90625 156.86961Q159.95312 157.88524 158.25 157.88524Q156.75 157.88524 155.79688 157.05711Q154.84375 156.21336 154.70312 154.72899L156.07812 154.72899Q156.20312 155.71336 156.76562 156.21336Q157.32812 156.69774 158.25 156.69774Q159.26562 156.69774 159.82812 156.01024Q160.40625 155.32274 160.40625 154.11961Q160.40625 152.97899 159.78125 152.29149Q159.17188 151.58836 158.14062 151.58836Q157.1875 151.58836 156.65625 152.01024L156.26562 152.32274L155.10938 152.02586ZM168.98438 152.72899Q168.53125 153.26024 167.90625 153.58836Q167.28125 153.91649 166.53125 153.91649Q165.54688 153.91649 164.8125 153.43211Q164.07812 152.94774 163.67188 152.07274Q163.28125 151.19774 163.28125 150.13524Q163.28125 148.99461 163.71875 148.08836Q164.15625 147.16649 164.95312 146.68211Q165.75 146.19774 166.8125 146.19774Q168.5 146.19774 169.46875 147.46336Q170.4375 148.71336 170.4375 150.90086L170.4375 151.32274Q170.4375 154.63524 169.125 156.16649Q167.8125 157.69774 165.17188 157.74461L164.89062 157.74461L164.89062 156.51024L165.1875 156.51024Q166.98438 156.47899 167.9375 155.58836Q168.90625 154.68211 168.98438 152.72899ZM166.76562 152.72899Q167.48438 152.72899 168.09375 152.29149Q168.71875 151.83836 169.0 151.18211L169.0 150.60399Q169.0 149.18211 168.375 148.29149Q167.76562 147.40086 166.8125 147.40086Q165.85938 147.40086 165.28125 148.13524Q164.70312 148.85399 164.70312 150.05711Q164.70312 151.21336 165.26562 151.97899Q165.82812 152.72899 166.76562 152.72899ZM179.34375 149.32274Q179.34375 150.16649 178.89062 150.83836Q178.45312 151.49461 177.6875 151.86961Q178.57812 152.26024 179.09375 152.99461Q179.60938 153.72899 179.60938 154.65086Q179.60938 156.13524 178.60938 157.01024Q177.625 157.88524 176.0 157.88524Q174.35938 157.88524 173.35938 157.01024Q172.375 156.11961 172.375 154.65086Q172.375 153.72899 172.875 152.99461Q173.39062 152.24461 174.28125 151.86961Q173.51562 151.49461 173.07812 150.83836Q172.64062 150.16649 172.64062 149.32274Q172.64062 147.88524 173.5625 147.04149Q174.48438 146.19774 176.0 146.19774Q177.5 146.19774 178.42188 147.04149Q179.34375 147.88524 179.34375 149.32274ZM178.17188 154.61961Q178.17188 153.66649 177.5625 153.07274Q176.95312 152.46336 175.96875 152.46336Q175.0 152.46336 174.40625 153.05711Q173.82812 153.65086 173.82812 154.61961Q173.82812 155.58836 174.39062 156.15086Q174.96875 156.69774 176.0 156.69774Q177.01562 156.69774 177.59375 156.15086Q178.17188 155.58836 178.17188 154.61961ZM176.0 147.38524Q175.14062 147.38524 174.60938 147.91649Q174.09375 148.43211 174.09375 149.33836Q174.09375 150.21336 174.60938 150.74461Q175.125 151.27586 175.98438 151.27586Q176.85938 151.27586 177.375 150.74461Q177.90625 150.21336 177.90625 149.35399Q177.90625 148.47899 177.35938 147.93211Q176.82812 147.38524 176.0 147.38524Z" fill-rule="nonzero"/><path stroke="#434343" stroke-width="3.0" stroke-linejoin="round" stroke-linecap="round" d="M259.57812 263.4488Q259.57812 265.99567 258.70312 267.23004Q257.84375 268.46442 256.0 268.46442Q254.1875 268.46442 253.3125 267.2613Q252.4375 266.04254 252.40625 263.65192L252.40625 261.71442Q252.40625 259.21442 253.26562 257.99567Q254.14062 256.77692 255.98438 256.77692Q257.82812 256.77692 258.6875 257.9488Q259.5625 259.12067 259.57812 261.5738L259.57812 263.4488ZM258.14062 261.48004Q258.14062 259.6363 257.625 258.80817Q257.10938 257.96442 255.98438 257.96442Q254.875 257.96442 254.35938 258.80817Q253.85938 259.6363 253.84375 261.37067L253.84375 263.68317Q253.84375 265.52692 254.375 266.40192Q254.92188 267.27692 256.0 267.27692Q257.07812 267.27692 257.59375 266.4488Q258.10938 265.62067 258.14062 263.83942L258.14062 261.48004ZM261.54688 270.5738L260.73438 270.0113Q261.46875 268.99567 261.5 267.90192L261.5 266.58942L262.90625 266.58942L262.90625 267.73004Q262.90625 268.52692 262.51562 269.30817Q262.14062 270.10504 261.54688 270.5738ZM271.57812 263.4488Q271.57812 265.99567 270.70312 267.23004Q269.84375 268.46442 268.0 268.46442Q266.1875 268.46442 265.3125 267.2613Q264.4375 266.04254 264.40625 263.65192L264.40625 261.71442Q264.40625 259.21442 265.26562 257.99567Q266.14062 256.77692 267.98438 256.77692Q269.82812 256.77692 270.6875 257.9488Q271.5625 259.12067 271.57812 261.5738L271.57812 263.4488ZM270.14062 261.48004Q270.14062 259.6363 269.625 258.80817Q269.10938 257.96442 267.98438 257.96442Q266.875 257.96442 266.35938 258.80817Q265.85938 259.6363 265.84375 261.37067L265.84375 263.68317Q265.84375 265.52692 266.375 266.40192Q266.92188 267.27692 268.0 267.27692Q269.07812 267.27692 269.59375 266.4488Q270.10938 265.62067 270.14062 263.83942L270.14062 261.48004ZM274.10938 262.60504L274.6875 256.93317L280.51562 256.93317L280.51562 258.2613L275.92188 258.2613L275.57812 261.37067Q276.40625 260.87067 277.46875 260.87067Q279.03125 260.87067 279.9375 261.90192Q280.85938 262.93317 280.85938 264.68317Q280.85938 266.43317 279.90625 267.4488Q278.95312 268.46442 277.25 268.46442Q275.75 268.46442 274.79688 267.6363Q273.84375 266.79254 273.70312 265.30817L275.07812 265.30817Q275.20312 266.29254 275.76562 266.79254Q276.32812 267.27692 277.25 267.27692Q278.26562 267.27692 278.82812 266.58942Q279.40625 265.90192 279.40625 264.6988Q279.40625 263.55817 278.78125 262.87067Q278.17188 262.16754 277.14062 262.16754Q276.1875 262.16754 275.65625 262.58942L275.26562 262.90192L274.10938 262.60504ZM289.79688 257.74567L285.07812 268.30817L283.5625 268.30817L288.26562 258.12067L282.10938 258.12067L282.10938 256.93317L289.79688 256.93317L289.79688 257.74567Z" fill-rule="nonzero"/><path fill="#cccccc" d="M259.57812 263.4488Q259.57812 265.99567 258.70312 267.23004Q257.84375 268.46442 256.0 268.46442Q254.1875 268.46442 253.3125 267.2613Q252.4375 266.04254 252.40625 263.65192L252.40625 261.71442Q252.40625 259.21442 253.26562 257.99567Q254.14062 256.77692 255.98438 256.77692Q257.82812 256.77692 258.6875 257.9488Q259.5625 259.12067 259.57812 261.5738L259.57812 263.4488ZM258.14062 261.48004Q258.14062 259.6363 257.625 258.80817Q257.10938 257.96442 255.98438 257.96442Q254.875 257.96442 254.35938 258.80817Q253.85938 259.6363 253.84375 261.37067L253.84375 263.68317Q253.84375 265.52692 254.375 266.40192Q254.92188 267.27692 256.0 267.27692Q257.07812 267.27692 257.59375 266.4488Q258.10938 265.62067 258.14062 263.83942L258.14062 261.48004ZM261.54688 270.5738L260.73438 270.0113Q261.46875 268.99567 261.5 267.90192L261.5 266.58942L262.90625 266.58942L262.90625 267.73004Q262.90625 268.52692 262.51562 269.30817Q262.14062 270.10504 261.54688 270.5738ZM271.57812 263.4488Q271.57812 265.99567 270.70312 267.23004Q269.84375 268.46442 268.0 268.46442Q266.1875 268.46442 265.3125 267.2613Q264.4375 266.04254 264.40625 263.65192L264.40625 261.71442Q264.40625 259.21442 265.26562 257.99567Q266.14062 256.77692 267.98438 256.77692Q269.82812 256.77692 270.6875 257.9488Q271.5625 259.12067 271.57812 261.5738L271.57812 263.4488ZM270.14062 261.48004Q270.14062 259.6363 269.625 258.80817Q269.10938 257.96442 267.98438 257.96442Q266.875 257.96442 266.35938 258.80817Q265.85938 259.6363 265.84375 261.37067L265.84375 263.68317Q265.84375 265.52692 266.375 266.40192Q266.92188 267.27692 268.0 267.27692Q269.07812 267.27692 269.59375 266.4488Q270.10938 265.62067 270.14062 263.83942L270.14062 261.48004ZM274.10938 262.60504L274.6875 256.93317L280.51562 256.93317L280.51562 258.2613L275.92188 258.2613L275.57812 261.37067Q276.40625 260.87067 277.46875 260.87067Q279.03125 260.87067 279.9375 261.90192Q280.85938 262.93317 280.85938 264.68317Q280.85938 266.43317 279.90625 267.4488Q278.95312 268.46442 277.25 268.46442Q275.75 268.46442 274.79688 267.6363Q273.84375 266.79254 273.70312 265.30817L275.07812 265.30817Q275.20312 266.29254 275.76562 266.79254Q276.32812 267.27692 277.25 267.27692Q278.26562 267.27692 278.82812 266.58942Q279.40625 265.90192 279.40625 264.6988Q279.40625 263.55817 278.78125 262.87067Q278.17188 262.16754 277.14062 262.16754Q276.1875 262.16754 275.65625 262.58942L275.26562 262.90192L274.10938 262.60504ZM289.79688 257.74567L285.07812 268.30817L283.5625 268.30817L288.26562 258.12067L282.10938 258.12067L282.10938 256.93317L289.79688 256.93317L289.79688 257.74567Z" fill-rule="nonzero"/><path stroke="#434343" stroke-width="3.0" stroke-linejoin="round" stroke-linecap="round" d="M368.57812 266.6043Q368.57812 269.15118 367.70312 270.38556Q366.84375 271.61993 365.0 271.61993Q363.1875 271.61993 362.3125 270.4168Q361.4375 269.19806 361.40625 266.80743L361.40625 264.86993Q361.40625 262.36993 362.26562 261.15118Q363.14062 259.93243 364.98438 259.93243Q366.82812 259.93243 367.6875 261.1043Q368.5625 262.27618 368.57812 264.7293L368.57812 266.6043ZM367.14062 264.63556Q367.14062 262.7918 366.625 261.96368Q366.10938 261.11993 364.98438 261.11993Q363.875 261.11993 363.35938 261.96368Q362.85938 262.7918 362.84375 264.52618L362.84375 266.83868Q362.84375 268.68243 363.375 269.55743Q363.92188 270.43243 365.0 270.43243Q366.07812 270.43243 366.59375 269.6043Q367.10938 268.77618 367.14062 266.99493L367.14062 264.63556ZM370.54688 273.7293L369.73438 273.1668Q370.46875 272.15118 370.5 271.05743L370.5 269.74493L371.90625 269.74493L371.90625 270.88556Q371.90625 271.68243 371.51562 272.46368Q371.14062 273.26056 370.54688 273.7293ZM380.57812 266.6043Q380.57812 269.15118 379.70312 270.38556Q378.84375 271.61993 377.0 271.61993Q375.1875 271.61993 374.3125 270.4168Q373.4375 269.19806 373.40625 266.80743L373.40625 264.86993Q373.40625 262.36993 374.26562 261.15118Q375.14062 259.93243 376.98438 259.93243Q378.82812 259.93243 379.6875 261.1043Q380.5625 262.27618 380.57812 264.7293L380.57812 266.6043ZM379.14062 264.63556Q379.14062 262.7918 378.625 261.96368Q378.10938 261.11993 376.98438 261.11993Q375.875 261.11993 375.35938 261.96368Q374.85938 262.7918 374.84375 264.52618L374.84375 266.83868Q374.84375 268.68243 375.375 269.55743Q375.92188 270.43243 377.0 270.43243Q378.07812 270.43243 378.59375 269.6043Q379.10938 268.77618 379.14062 266.99493L379.14062 264.63556ZM388.54688 267.63556L390.125 267.63556L390.125 268.82306L388.54688 268.82306L388.54688 271.46368L387.09375 271.46368L387.09375 268.82306L381.92188 268.82306L381.92188 267.96368L387.01562 260.08868L388.54688 260.08868L388.54688 267.63556ZM383.5625 267.63556L387.09375 267.63556L387.09375 262.05743L386.92188 262.36993L383.5625 267.63556ZM396.20312 271.46368L394.75 271.46368L394.75 261.82306L391.82812 262.90118L391.82812 261.58868L395.96875 260.02618L396.20312 260.02618L396.20312 271.46368Z" fill-rule="nonzero"/><path fill="#cccccc" d="M368.57812 266.6043Q368.57812 269.15118 367.70312 270.38556Q366.84375 271.61993 365.0 271.61993Q363.1875 271.61993 362.3125 270.4168Q361.4375 269.19806 361.40625 266.80743L361.40625 264.86993Q361.40625 262.36993 362.26562 261.15118Q363.14062 259.93243 364.98438 259.93243Q366.82812 259.93243 367.6875 261.1043Q368.5625 262.27618 368.57812 264.7293L368.57812 266.6043ZM367.14062 264.63556Q367.14062 262.7918 366.625 261.96368Q366.10938 261.11993 364.98438 261.11993Q363.875 261.11993 363.35938 261.96368Q362.85938 262.7918 362.84375 264.52618L362.84375 266.83868Q362.84375 268.68243 363.375 269.55743Q363.92188 270.43243 365.0 270.43243Q366.07812 270.43243 366.59375 269.6043Q367.10938 268.77618 367.14062 266.99493L367.14062 264.63556ZM370.54688 273.7293L369.73438 273.1668Q370.46875 272.15118 370.5 271.05743L370.5 269.74493L371.90625 269.74493L371.90625 270.88556Q371.90625 271.68243 371.51562 272.46368Q371.14062 273.26056 370.54688 273.7293ZM380.57812 266.6043Q380.57812 269.15118 379.70312 270.38556Q378.84375 271.61993 377.0 271.61993Q375.1875 271.61993 374.3125 270.4168Q373.4375 269.19806 373.40625 266.80743L373.40625 264.86993Q373.40625 262.36993 374.26562 261.15118Q375.14062 259.93243 376.98438 259.93243Q378.82812 259.93243 379.6875 261.1043Q380.5625 262.27618 380.57812 264.7293L380.57812 266.6043ZM379.14062 264.63556Q379.14062 262.7918 378.625 261.96368Q378.10938 261.11993 376.98438 261.11993Q375.875 261.11993 375.35938 261.96368Q374.85938 262.7918 374.84375 264.52618L374.84375 266.83868Q374.84375 268.68243 375.375 269.55743Q375.92188 270.43243 377.0 270.43243Q378.07812 270.43243 378.59375 269.6043Q379.10938 268.77618 379.14062 266.99493L379.14062 264.63556ZM388.54688 267.63556L390.125 267.63556L390.125 268.82306L388.54688 268.82306L388.54688 271.46368L387.09375 271.46368L387.09375 268.82306L381.92188 268.82306L381.92188 267.96368L387.01562 260.08868L388.54688 260.08868L388.54688 267.63556ZM383.5625 267.63556L387.09375 267.63556L387.09375 262.05743L386.92188 262.36993L383.5625 267.63556ZM396.20312 271.46368L394.75 271.46368L394.75 261.82306L391.82812 262.90118L391.82812 261.58868L395.96875 260.02618L396.20312 260.02618L396.20312 271.46368Z" fill-rule="nonzero"/><path stroke="#434343" stroke-width="3.0" stroke-linejoin="round" stroke-linecap="round" d="M478.57812 264.51843Q478.57812 267.0653 477.70312 268.29968Q476.84375 269.53406 475.0 269.53406Q473.1875 269.53406 472.3125 268.33093Q471.4375 267.11218 471.40625 264.72156L471.40625 262.78406Q471.40625 260.28406 472.26562 259.0653Q473.14062 257.84656 474.98438 257.84656Q476.82812 257.84656 477.6875 259.01843Q478.5625 260.1903 478.57812 262.64343L478.57812 264.51843ZM477.14062 262.54968Q477.14062 260.70593 476.625 259.8778Q476.10938 259.03406 474.98438 259.03406Q473.875 259.03406 473.35938 259.8778Q472.85938 260.70593 472.84375 262.4403L472.84375 264.7528Q472.84375 266.59656 473.375 267.47156Q473.92188 268.34656 475.0 268.34656Q476.07812 268.34656 476.59375 267.51843Q477.10938 266.6903 477.14062 264.90906L477.14062 262.54968ZM480.54688 271.64343L479.73438 271.08093Q480.46875 270.0653 480.5 268.97156L480.5 267.65906L481.90625 267.65906L481.90625 268.79968Q481.90625 269.59656 481.51562 270.3778Q481.14062 271.17468 480.54688 271.64343ZM490.57812 264.51843Q490.57812 267.0653 489.70312 268.29968Q488.84375 269.53406 487.0 269.53406Q485.1875 269.53406 484.3125 268.33093Q483.4375 267.11218 483.40625 264.72156L483.40625 262.78406Q483.40625 260.28406 484.26562 259.0653Q485.14062 257.84656 486.98438 257.84656Q488.82812 257.84656 489.6875 259.01843Q490.5625 260.1903 490.57812 262.64343L490.57812 264.51843ZM489.14062 262.54968Q489.14062 260.70593 488.625 259.8778Q488.10938 259.03406 486.98438 259.03406Q485.875 259.03406 485.35938 259.8778Q484.85938 260.70593 484.84375 262.4403L484.84375 264.7528Q484.84375 266.59656 485.375 267.47156Q485.92188 268.34656 487.0 268.34656Q488.07812 268.34656 488.59375 267.51843Q489.10938 266.6903 489.14062 264.90906L489.14062 262.54968ZM493.10938 263.67468L493.6875 258.0028L499.51562 258.0028L499.51562 259.33093L494.92188 259.33093L494.57812 262.4403Q495.40625 261.9403 496.46875 261.9403Q498.03125 261.9403 498.9375 262.97156Q499.85938 264.0028 499.85938 265.7528Q499.85938 267.5028 498.90625 268.51843Q497.95312 269.53406 496.25 269.53406Q494.75 269.53406 493.79688 268.70593Q492.84375 267.86218 492.70312 266.3778L494.07812 266.3778Q494.20312 267.36218 494.76562 267.86218Q495.32812 268.34656 496.25 268.34656Q497.26562 268.34656 497.82812 267.65906Q498.40625 266.97156 498.40625 265.76843Q498.40625 264.6278 497.78125 263.9403Q497.17188 263.23718 496.14062 263.23718Q495.1875 263.23718 494.65625 263.65906L494.26562 263.97156L493.10938 263.67468ZM508.90625 269.3778L501.45312 269.3778L501.45312 268.33093L505.39062 263.95593Q506.26562 262.97156 506.59375 262.34656Q506.92188 261.72156 506.92188 261.0653Q506.92188 260.17468 506.375 259.61218Q505.84375 259.03406 504.95312 259.03406Q503.875 259.03406 503.26562 259.64343Q502.67188 260.2528 502.67188 261.34656L501.23438 261.34656Q501.23438 259.78406 502.23438 258.8153Q503.25 257.84656 504.95312 257.84656Q506.53125 257.84656 507.45312 258.67468Q508.375 259.5028 508.375 260.89343Q508.375 262.5653 506.23438 264.89343L503.1875 268.1903L508.90625 268.1903L508.90625 269.3778Z" fill-rule="nonzero"/><path fill="#cccccc" d="M478.57812 264.51843Q478.57812 267.0653 477.70312 268.29968Q476.84375 269.53406 475.0 269.53406Q473.1875 269.53406 472.3125 268.33093Q471.4375 267.11218 471.40625 264.72156L471.40625 262.78406Q471.40625 260.28406 472.26562 259.0653Q473.14062 257.84656 474.98438 257.84656Q476.82812 257.84656 477.6875 259.01843Q478.5625 260.1903 478.57812 262.64343L478.57812 264.51843ZM477.14062 262.54968Q477.14062 260.70593 476.625 259.8778Q476.10938 259.03406 474.98438 259.03406Q473.875 259.03406 473.35938 259.8778Q472.85938 260.70593 472.84375 262.4403L472.84375 264.7528Q472.84375 266.59656 473.375 267.47156Q473.92188 268.34656 475.0 268.34656Q476.07812 268.34656 476.59375 267.51843Q477.10938 266.6903 477.14062 264.90906L477.14062 262.54968ZM480.54688 271.64343L479.73438 271.08093Q480.46875 270.0653 480.5 268.97156L480.5 267.65906L481.90625 267.65906L481.90625 268.79968Q481.90625 269.59656 481.51562 270.3778Q481.14062 271.17468 480.54688 271.64343ZM490.57812 264.51843Q490.57812 267.0653 489.70312 268.29968Q488.84375 269.53406 487.0 269.53406Q485.1875 269.53406 484.3125 268.33093Q483.4375 267.11218 483.40625 264.72156L483.40625 262.78406Q483.40625 260.28406 484.26562 259.0653Q485.14062 257.84656 486.98438 257.84656Q488.82812 257.84656 489.6875 259.01843Q490.5625 260.1903 490.57812 262.64343L490.57812 264.51843ZM489.14062 262.54968Q489.14062 260.70593 488.625 259.8778Q488.10938 259.03406 486.98438 259.03406Q485.875 259.03406 485.35938 259.8778Q484.85938 260.70593 484.84375 262.4403L484.84375 264.7528Q484.84375 266.59656 485.375 267.47156Q485.92188 268.34656 487.0 268.34656Q488.07812 268.34656 488.59375 267.51843Q489.10938 266.6903 489.14062 264.90906L489.14062 262.54968ZM493.10938 263.67468L493.6875 258.0028L499.51562 258.0028L499.51562 259.33093L494.92188 259.33093L494.57812 262.4403Q495.40625 261.9403 496.46875 261.9403Q498.03125 261.9403 498.9375 262.97156Q499.85938 264.0028 499.85938 265.7528Q499.85938 267.5028 498.90625 268.51843Q497.95312 269.53406 496.25 269.53406Q494.75 269.53406 493.79688 268.70593Q492.84375 267.86218 492.70312 266.3778L494.07812 266.3778Q494.20312 267.36218 494.76562 267.86218Q495.32812 268.34656 496.25 268.34656Q497.26562 268.34656 497.82812 267.65906Q498.40625 266.97156 498.40625 265.76843Q498.40625 264.6278 497.78125 263.9403Q497.17188 263.23718 496.14062 263.23718Q495.1875 263.23718 494.65625 263.65906L494.26562 263.97156L493.10938 263.67468ZM508.90625 269.3778L501.45312 269.3778L501.45312 268.33093L505.39062 263.95593Q506.26562 262.97156 506.59375 262.34656Q506.92188 261.72156 506.92188 261.0653Q506.92188 260.17468 506.375 259.61218Q505.84375 259.03406 504.95312 259.03406Q503.875 259.03406 503.26562 259.64343Q502.67188 260.2528 502.67188 261.34656L501.23438 261.34656Q501.23438 259.78406 502.23438 258.8153Q503.25 257.84656 504.95312 257.84656Q506.53125 257.84656 507.45312 258.67468Q508.375 259.5028 508.375 260.89343Q508.375 262.5653 506.23438 264.89343L503.1875 268.1903L508.90625 268.1903L508.90625 269.3778Z" fill-rule="nonzero"/><path stroke="#6fa8dc" stroke-width="3.0" stroke-linejoin="round" stroke-linecap="round" d="M185.57812 171.44878Q185.57812 173.99565 184.70312 175.23003Q183.84375 176.4644 182.0 176.4644Q180.1875 176.4644 179.3125 175.26128Q178.4375 174.04253 178.40625 171.6519L178.40625 169.7144Q178.40625 167.2144 179.26562 165.99565Q180.14062 164.7769 181.98438 164.7769Q183.82812 164.7769 184.6875 165.94878Q185.5625 167.12065 185.57812 169.57378L185.57812 171.44878ZM184.14062 169.48003Q184.14062 167.63628 183.625 166.80815Q183.10938 165.9644 181.98438 165.9644Q180.875 165.9644 180.35938 166.80815Q179.85938 167.63628 179.84375 169.37065L179.84375 171.68315Q179.84375 173.5269 180.375 174.4019Q180.92188 175.2769 182.0 175.2769Q183.07812 175.2769 183.59375 174.44878Q184.10938 173.62065 184.14062 171.8394L184.14062 169.48003ZM187.54688 178.57378L186.73438 178.01128Q187.46875 176.99565 187.5 175.9019L187.5 174.5894L188.90625 174.5894L188.90625 175.73003Q188.90625 176.5269 188.51562 177.30815Q188.14062 178.10503 187.54688 178.57378ZM191.10938 170.60503L191.6875 164.93315L197.51562 164.93315L197.51562 166.26128L192.92188 166.26128L192.57812 169.37065Q193.40625 168.87065 194.46875 168.87065Q196.03125 168.87065 196.9375 169.9019Q197.85938 170.93315 197.85938 172.68315Q197.85938 174.43315 196.90625 175.44878Q195.95312 176.4644 194.25 176.4644Q192.75 176.4644 191.79688 175.63628Q190.84375 174.79253 190.70312 173.30815L192.07812 173.30815Q192.20312 174.29253 192.76562 174.79253Q193.32812 175.2769 194.25 175.2769Q195.26562 175.2769 195.82812 174.5894Q196.40625 173.9019 196.40625 172.69878Q196.40625 171.55815 195.78125 170.87065Q195.17188 170.16753 194.14062 170.16753Q193.1875 170.16753 192.65625 170.5894L192.26562 170.9019L191.10938 170.60503ZM206.57812 171.44878Q206.57812 173.99565 205.70312 175.23003Q204.84375 176.4644 203.0 176.4644Q201.1875 176.4644 200.3125 175.26128Q199.4375 174.04253 199.40625 171.6519L199.40625 169.7144Q199.40625 167.2144 200.26562 165.99565Q201.14062 164.7769 202.98438 164.7769Q204.82812 164.7769 205.6875 165.94878Q206.5625 167.12065 206.57812 169.57378L206.57812 171.44878ZM205.14062 169.48003Q205.14062 167.63628 204.625 166.80815Q204.10938 165.9644 202.98438 165.9644Q201.875 165.9644 201.35938 166.80815Q200.85938 167.63628 200.84375 169.37065L200.84375 171.68315Q200.84375 173.5269 201.375 174.4019Q201.92188 175.2769 203.0 175.2769Q204.07812 175.2769 204.59375 174.44878Q205.10938 173.62065 205.14062 171.8394L205.14062 169.48003ZM215.79688 165.74565L211.07812 176.30815L209.5625 176.30815L214.26562 166.12065L208.10938 166.12065L208.10938 164.93315L215.79688 164.93315L215.79688 165.74565Z" fill-rule="nonzero"/><path fill="#000000" d="M185.57812 171.44878Q185.57812 173.99565 184.70312 175.23003Q183.84375 176.4644 182.0 176.4644Q180.1875 176.4644 179.3125 175.26128Q178.4375 174.04253 178.40625 171.6519L178.40625 169.7144Q178.40625 167.2144 179.26562 165.99565Q180.14062 164.7769 181.98438 164.7769Q183.82812 164.7769 184.6875 165.94878Q185.5625 167.12065 185.57812 169.57378L185.57812 171.44878ZM184.14062 169.48003Q184.14062 167.63628 183.625 166.80815Q183.10938 165.9644 181.98438 165.9644Q180.875 165.9644 180.35938 166.80815Q179.85938 167.63628 179.84375 169.37065L179.84375 171.68315Q179.84375 173.5269 180.375 174.4019Q180.92188 175.2769 182.0 175.2769Q183.07812 175.2769 183.59375 174.44878Q184.10938 173.62065 184.14062 171.8394L184.14062 169.48003ZM187.54688 178.57378L186.73438 178.01128Q187.46875 176.99565 187.5 175.9019L187.5 174.5894L188.90625 174.5894L188.90625 175.73003Q188.90625 176.5269 188.51562 177.30815Q188.14062 178.10503 187.54688 178.57378ZM191.10938 170.60503L191.6875 164.93315L197.51562 164.93315L197.51562 166.26128L192.92188 166.26128L192.57812 169.37065Q193.40625 168.87065 194.46875 168.87065Q196.03125 168.87065 196.9375 169.9019Q197.85938 170.93315 197.85938 172.68315Q197.85938 174.43315 196.90625 175.44878Q195.95312 176.4644 194.25 176.4644Q192.75 176.4644 191.79688 175.63628Q190.84375 174.79253 190.70312 173.30815L192.07812 173.30815Q192.20312 174.29253 192.76562 174.79253Q193.32812 175.2769 194.25 175.2769Q195.26562 175.2769 195.82812 174.5894Q196.40625 173.9019 196.40625 172.69878Q196.40625 171.55815 195.78125 170.87065Q195.17188 170.16753 194.14062 170.16753Q193.1875 170.16753 192.65625 170.5894L192.26562 170.9019L191.10938 170.60503ZM206.57812 171.44878Q206.57812 173.99565 205.70312 175.23003Q204.84375 176.4644 203.0 176.4644Q201.1875 176.4644 200.3125 175.26128Q199.4375 174.04253 199.40625 171.6519L199.40625 169.7144Q199.40625 167.2144 200.26562 165.99565Q201.14062 164.7769 202.98438 164.7769Q204.82812 164.7769 205.6875 165.94878Q206.5625 167.12065 206.57812 169.57378L206.57812 171.44878ZM205.14062 169.48003Q205.14062 167.63628 204.625 166.80815Q204.10938 165.9644 202.98438 165.9644Q201.875 165.9644 201.35938 166.80815Q200.85938 167.63628 200.84375 169.37065L200.84375 171.68315Q200.84375 173.5269 201.375 174.4019Q201.92188 175.2769 203.0 175.2769Q204.07812 175.2769 204.59375 174.44878Q205.10938 173.62065 205.14062 171.8394L205.14062 169.48003ZM215.79688 165.74565L211.07812 176.30815L209.5625 176.30815L214.26562 166.12065L208.10938 166.12065L208.10938 164.93315L215.79688 164.93315L215.79688 165.74565Z" fill-rule="nonzero"/><path stroke="#6fa8dc" stroke-width="3.0" stroke-linejoin="round" stroke-linecap="round" d="M295.57812 264.51242Q295.57812 267.0593 294.70312 268.29367Q293.84375 269.52805 292.0 269.52805Q290.1875 269.52805 289.3125 268.32492Q288.4375 267.10617 288.40625 264.71555L288.40625 262.77805Q288.40625 260.27805 289.26562 259.0593Q290.14062 257.84055 291.98438 257.84055Q293.82812 257.84055 294.6875 259.01242Q295.5625 260.1843 295.57812 262.63742L295.57812 264.51242ZM294.14062 262.54367Q294.14062 260.69992 293.625 259.8718Q293.10938 259.02805 291.98438 259.02805Q290.875 259.02805 290.35938 259.8718Q289.85938 260.69992 289.84375 262.4343L289.84375 264.7468Q289.84375 266.59055 290.375 267.46555Q290.92188 268.34055 292.0 268.34055Q293.07812 268.34055 293.59375 267.51242Q294.10938 266.6843 294.14062 264.90305L294.14062 262.54367ZM297.54688 271.63742L296.73438 271.07492Q297.46875 270.0593 297.5 268.96555L297.5 267.65305L298.90625 267.65305L298.90625 268.79367Q298.90625 269.59055 298.51562 270.3718Q298.14062 271.16867 297.54688 271.63742ZM307.57812 264.51242Q307.57812 267.0593 306.70312 268.29367Q305.84375 269.52805 304.0 269.52805Q302.1875 269.52805 301.3125 268.32492Q300.4375 267.10617 300.40625 264.71555L300.40625 262.77805Q300.40625 260.27805 301.26562 259.0593Q302.14062 257.84055 303.98438 257.84055Q305.82812 257.84055 306.6875 259.01242Q307.5625 260.1843 307.57812 262.63742L307.57812 264.51242ZM306.14062 262.54367Q306.14062 260.69992 305.625 259.8718Q305.10938 259.02805 303.98438 259.02805Q302.875 259.02805 302.35938 259.8718Q301.85938 260.69992 301.84375 262.4343L301.84375 264.7468Q301.84375 266.59055 302.375 267.46555Q302.92188 268.34055 304.0 268.34055Q305.07812 268.34055 305.59375 267.51242Q306.10938 266.6843 306.14062 264.90305L306.14062 262.54367ZM310.10938 263.66867L310.6875 257.9968L316.51562 257.9968L316.51562 259.32492L311.92188 259.32492L311.57812 262.4343Q312.40625 261.9343 313.46875 261.9343Q315.03125 261.9343 315.9375 262.96555Q316.85938 263.9968 316.85938 265.7468Q316.85938 267.4968 315.90625 268.51242Q314.95312 269.52805 313.25 269.52805Q311.75 269.52805 310.79688 268.69992Q309.84375 267.85617 309.70312 266.3718L311.07812 266.3718Q311.20312 267.35617 311.76562 267.85617Q312.32812 268.34055 313.25 268.34055Q314.26562 268.34055 314.82812 267.65305Q315.40625 266.96555 315.40625 265.76242Q315.40625 264.6218 314.78125 263.9343Q314.17188 263.23117 313.14062 263.23117Q312.1875 263.23117 311.65625 263.65305L311.26562 263.96555L310.10938 263.66867ZM325.90625 269.3718L318.45312 269.3718L318.45312 268.32492L322.39062 263.94992Q323.26562 262.96555 323.59375 262.34055Q323.92188 261.71555 323.92188 261.0593Q323.92188 260.16867 323.375 259.60617Q322.84375 259.02805 321.95312 259.02805Q320.875 259.02805 320.26562 259.63742Q319.67188 260.2468 319.67188 261.34055L318.23438 261.34055Q318.23438 259.77805 319.23438 258.8093Q320.25 257.84055 321.95312 257.84055Q323.53125 257.84055 324.45312 258.66867Q325.375 259.4968 325.375 260.88742Q325.375 262.5593 323.23438 264.88742L320.1875 268.1843L325.90625 268.1843L325.90625 269.3718Z" fill-rule="nonzero"/><path fill="#000000" d="M295.57812 264.51242Q295.57812 267.0593 294.70312 268.29367Q293.84375 269.52805 292.0 269.52805Q290.1875 269.52805 289.3125 268.32492Q288.4375 267.10617 288.40625 264.71555L288.40625 262.77805Q288.40625 260.27805 289.26562 259.0593Q290.14062 257.84055 291.98438 257.84055Q293.82812 257.84055 294.6875 259.01242Q295.5625 260.1843 295.57812 262.63742L295.57812 264.51242ZM294.14062 262.54367Q294.14062 260.69992 293.625 259.8718Q293.10938 259.02805 291.98438 259.02805Q290.875 259.02805 290.35938 259.8718Q289.85938 260.69992 289.84375 262.4343L289.84375 264.7468Q289.84375 266.59055 290.375 267.46555Q290.92188 268.34055 292.0 268.34055Q293.07812 268.34055 293.59375 267.51242Q294.10938 266.6843 294.14062 264.90305L294.14062 262.54367ZM297.54688 271.63742L296.73438 271.07492Q297.46875 270.0593 297.5 268.96555L297.5 267.65305L298.90625 267.65305L298.90625 268.79367Q298.90625 269.59055 298.51562 270.3718Q298.14062 271.16867 297.54688 271.63742ZM307.57812 264.51242Q307.57812 267.0593 306.70312 268.29367Q305.84375 269.52805 304.0 269.52805Q302.1875 269.52805 301.3125 268.32492Q300.4375 267.10617 300.40625 264.71555L300.40625 262.77805Q300.40625 260.27805 301.26562 259.0593Q302.14062 257.84055 303.98438 257.84055Q305.82812 257.84055 306.6875 259.01242Q307.5625 260.1843 307.57812 262.63742L307.57812 264.51242ZM306.14062 262.54367Q306.14062 260.69992 305.625 259.8718Q305.10938 259.02805 303.98438 259.02805Q302.875 259.02805 302.35938 259.8718Q301.85938 260.69992 301.84375 262.4343L301.84375 264.7468Q301.84375 266.59055 302.375 267.46555Q302.92188 268.34055 304.0 268.34055Q305.07812 268.34055 305.59375 267.51242Q306.10938 266.6843 306.14062 264.90305L306.14062 262.54367ZM310.10938 263.66867L310.6875 257.9968L316.51562 257.9968L316.51562 259.32492L311.92188 259.32492L311.57812 262.4343Q312.40625 261.9343 313.46875 261.9343Q315.03125 261.9343 315.9375 262.96555Q316.85938 263.9968 316.85938 265.7468Q316.85938 267.4968 315.90625 268.51242Q314.95312 269.52805 313.25 269.52805Q311.75 269.52805 310.79688 268.69992Q309.84375 267.85617 309.70312 266.3718L311.07812 266.3718Q311.20312 267.35617 311.76562 267.85617Q312.32812 268.34055 313.25 268.34055Q314.26562 268.34055 314.82812 267.65305Q315.40625 266.96555 315.40625 265.76242Q315.40625 264.6218 314.78125 263.9343Q314.17188 263.23117 313.14062 263.23117Q312.1875 263.23117 311.65625 263.65305L311.26562 263.96555L310.10938 263.66867ZM325.90625 269.3718L318.45312 269.3718L318.45312 268.32492L322.39062 263.94992Q323.26562 262.96555 323.59375 262.34055Q323.92188 261.71555 323.92188 261.0593Q323.92188 260.16867 323.375 259.60617Q322.84375 259.02805 321.95312 259.02805Q320.875 259.02805 320.26562 259.63742Q319.67188 260.2468 319.67188 261.34055L318.23438 261.34055Q318.23438 259.77805 319.23438 258.8093Q320.25 257.84055 321.95312 257.84055Q323.53125 257.84055 324.45312 258.66867Q325.375 259.4968 325.375 260.88742Q325.375 262.5593 323.23438 264.88742L320.1875 268.1843L325.90625 268.1843L325.90625 269.3718Z" fill-rule="nonzero"/><path stroke="#6fa8dc" stroke-width="3.0" stroke-linejoin="round" stroke-linecap="round" d="M404.57812 267.35077Q404.57812 269.89764 403.70312 271.13202Q402.84375 272.3664 401.0 272.3664Q399.1875 272.3664 398.3125 271.16327Q397.4375 269.94452 397.40625 267.5539L397.40625 265.6164Q397.40625 263.1164 398.26562 261.89764Q399.14062 260.6789 400.98438 260.6789Q402.82812 260.6789 403.6875 261.85077Q404.5625 263.02264 404.57812 265.47577L404.57812 267.35077ZM403.14062 265.38202Q403.14062 263.53827 402.625 262.71014Q402.10938 261.8664 400.98438 261.8664Q399.875 261.8664 399.35938 262.71014Q398.85938 263.53827 398.84375 265.27264L398.84375 267.58514Q398.84375 269.4289 399.375 270.3039Q399.92188 271.1789 401.0 271.1789Q402.07812 271.1789 402.59375 270.35077Q403.10938 269.52264 403.14062 267.7414L403.14062 265.38202ZM406.54688 274.47577L405.73438 273.91327Q406.46875 272.89764 406.5 271.8039L406.5 270.4914L407.90625 270.4914L407.90625 271.63202Q407.90625 272.4289 407.51562 273.21014Q407.14062 274.00702 406.54688 274.47577ZM416.57812 267.35077Q416.57812 269.89764 415.70312 271.13202Q414.84375 272.3664 413.0 272.3664Q411.1875 272.3664 410.3125 271.16327Q409.4375 269.94452 409.40625 267.5539L409.40625 265.6164Q409.40625 263.1164 410.26562 261.89764Q411.14062 260.6789 412.98438 260.6789Q414.82812 260.6789 415.6875 261.85077Q416.5625 263.02264 416.57812 265.47577L416.57812 267.35077ZM415.14062 265.38202Q415.14062 263.53827 414.625 262.71014Q414.10938 261.8664 412.98438 261.8664Q411.875 261.8664 411.35938 262.71014Q410.85938 263.53827 410.84375 265.27264L410.84375 267.58514Q410.84375 269.4289 411.375 270.3039Q411.92188 271.1789 413.0 271.1789Q414.07812 271.1789 414.59375 270.35077Q415.10938 269.52264 415.14062 267.7414L415.14062 265.38202ZM420.54688 265.81952L421.64062 265.81952Q422.65625 265.8039 423.23438 265.28827Q423.82812 264.75702 423.82812 263.8664Q423.82812 261.8664 421.84375 261.8664Q420.90625 261.8664 420.34375 262.39764Q419.78125 262.9289 419.78125 263.81952L418.34375 263.81952Q418.34375 262.46014 419.32812 261.56952Q420.3125 260.6789 421.84375 260.6789Q423.45312 260.6789 424.35938 261.53827Q425.28125 262.38202 425.28125 263.89764Q425.28125 264.63202 424.79688 265.33514Q424.3125 266.02264 423.48438 266.3664Q424.42188 266.66327 424.9375 267.35077Q425.45312 268.03827 425.45312 269.03827Q425.45312 270.56952 424.45312 271.47577Q423.45312 272.3664 421.84375 272.3664Q420.25 272.3664 419.23438 271.50702Q418.23438 270.63202 418.23438 269.21014L419.6875 269.21014Q419.6875 270.10077 420.26562 270.64764Q420.85938 271.1789 421.84375 271.1789Q422.89062 271.1789 423.4375 270.63202Q424.0 270.08514 424.0 269.06952Q424.0 268.06952 423.39062 267.53827Q422.78125 267.00702 421.64062 266.9914L420.54688 266.9914L420.54688 265.81952ZM434.34375 263.8039Q434.34375 264.64764 433.89062 265.31952Q433.45312 265.97577 432.6875 266.35077Q433.57812 266.7414 434.09375 267.47577Q434.60938 268.21014 434.60938 269.13202Q434.60938 270.6164 433.60938 271.4914Q432.625 272.3664 431.0 272.3664Q429.35938 272.3664 428.35938 271.4914Q427.375 270.60077 427.375 269.13202Q427.375 268.21014 427.875 267.47577Q428.39062 266.72577 429.28125 266.35077Q428.51562 265.97577 428.07812 265.31952Q427.64062 264.64764 427.64062 263.8039Q427.64062 262.3664 428.5625 261.52264Q429.48438 260.6789 431.0 260.6789Q432.5 260.6789 433.42188 261.52264Q434.34375 262.3664 434.34375 263.8039ZM433.17188 269.10077Q433.17188 268.14764 432.5625 267.5539Q431.95312 266.94452 430.96875 266.94452Q430.0 266.94452 429.40625 267.53827Q428.82812 268.13202 428.82812 269.10077Q428.82812 270.06952 429.39062 270.63202Q429.96875 271.1789 431.0 271.1789Q432.01562 271.1789 432.59375 270.63202Q433.17188 270.06952 433.17188 269.10077ZM431.0 261.8664Q430.14062 261.8664 429.60938 262.39764Q429.09375 262.91327 429.09375 263.81952Q429.09375 264.69452 429.60938 265.22577Q430.125 265.75702 430.98438 265.75702Q431.85938 265.75702 432.375 265.22577Q432.90625 264.69452 432.90625 263.83514Q432.90625 262.96014 432.35938 262.41327Q431.82812 261.8664 431.0 261.8664Z" fill-rule="nonzero"/><path fill="#000000" d="M404.57812 267.35077Q404.57812 269.89764 403.70312 271.13202Q402.84375 272.3664 401.0 272.3664Q399.1875 272.3664 398.3125 271.16327Q397.4375 269.94452 397.40625 267.5539L397.40625 265.6164Q397.40625 263.1164 398.26562 261.89764Q399.14062 260.6789 400.98438 260.6789Q402.82812 260.6789 403.6875 261.85077Q404.5625 263.02264 404.57812 265.47577L404.57812 267.35077ZM403.14062 265.38202Q403.14062 263.53827 402.625 262.71014Q402.10938 261.8664 400.98438 261.8664Q399.875 261.8664 399.35938 262.71014Q398.85938 263.53827 398.84375 265.27264L398.84375 267.58514Q398.84375 269.4289 399.375 270.3039Q399.92188 271.1789 401.0 271.1789Q402.07812 271.1789 402.59375 270.35077Q403.10938 269.52264 403.14062 267.7414L403.14062 265.38202ZM406.54688 274.47577L405.73438 273.91327Q406.46875 272.89764 406.5 271.8039L406.5 270.4914L407.90625 270.4914L407.90625 271.63202Q407.90625 272.4289 407.51562 273.21014Q407.14062 274.00702 406.54688 274.47577ZM416.57812 267.35077Q416.57812 269.89764 415.70312 271.13202Q414.84375 272.3664 413.0 272.3664Q411.1875 272.3664 410.3125 271.16327Q409.4375 269.94452 409.40625 267.5539L409.40625 265.6164Q409.40625 263.1164 410.26562 261.89764Q411.14062 260.6789 412.98438 260.6789Q414.82812 260.6789 415.6875 261.85077Q416.5625 263.02264 416.57812 265.47577L416.57812 267.35077ZM415.14062 265.38202Q415.14062 263.53827 414.625 262.71014Q414.10938 261.8664 412.98438 261.8664Q411.875 261.8664 411.35938 262.71014Q410.85938 263.53827 410.84375 265.27264L410.84375 267.58514Q410.84375 269.4289 411.375 270.3039Q411.92188 271.1789 413.0 271.1789Q414.07812 271.1789 414.59375 270.35077Q415.10938 269.52264 415.14062 267.7414L415.14062 265.38202ZM420.54688 265.81952L421.64062 265.81952Q422.65625 265.8039 423.23438 265.28827Q423.82812 264.75702 423.82812 263.8664Q423.82812 261.8664 421.84375 261.8664Q420.90625 261.8664 420.34375 262.39764Q419.78125 262.9289 419.78125 263.81952L418.34375 263.81952Q418.34375 262.46014 419.32812 261.56952Q420.3125 260.6789 421.84375 260.6789Q423.45312 260.6789 424.35938 261.53827Q425.28125 262.38202 425.28125 263.89764Q425.28125 264.63202 424.79688 265.33514Q424.3125 266.02264 423.48438 266.3664Q424.42188 266.66327 424.9375 267.35077Q425.45312 268.03827 425.45312 269.03827Q425.45312 270.56952 424.45312 271.47577Q423.45312 272.3664 421.84375 272.3664Q420.25 272.3664 419.23438 271.50702Q418.23438 270.63202 418.23438 269.21014L419.6875 269.21014Q419.6875 270.10077 420.26562 270.64764Q420.85938 271.1789 421.84375 271.1789Q422.89062 271.1789 423.4375 270.63202Q424.0 270.08514 424.0 269.06952Q424.0 268.06952 423.39062 267.53827Q422.78125 267.00702 421.64062 266.9914L420.54688 266.9914L420.54688 265.81952ZM434.34375 263.8039Q434.34375 264.64764 433.89062 265.31952Q433.45312 265.97577 432.6875 266.35077Q433.57812 266.7414 434.09375 267.47577Q434.60938 268.21014 434.60938 269.13202Q434.60938 270.6164 433.60938 271.4914Q432.625 272.3664 431.0 272.3664Q429.35938 272.3664 428.35938 271.4914Q427.375 270.60077 427.375 269.13202Q427.375 268.21014 427.875 267.47577Q428.39062 266.72577 429.28125 266.35077Q428.51562 265.97577 428.07812 265.31952Q427.64062 264.64764 427.64062 263.8039Q427.64062 262.3664 428.5625 261.52264Q429.48438 260.6789 431.0 260.6789Q432.5 260.6789 433.42188 261.52264Q434.34375 262.3664 434.34375 263.8039ZM433.17188 269.10077Q433.17188 268.14764 432.5625 267.5539Q431.95312 266.94452 430.96875 266.94452Q430.0 266.94452 429.40625 267.53827Q428.82812 268.13202 428.82812 269.10077Q428.82812 270.06952 429.39062 270.63202Q429.96875 271.1789 431.0 271.1789Q432.01562 271.1789 432.59375 270.63202Q433.17188 270.06952 433.17188 269.10077ZM431.0 261.8664Q430.14062 261.8664 429.60938 262.39764Q429.09375 262.91327 429.09375 263.81952Q429.09375 264.69452 429.60938 265.22577Q430.125 265.75702 430.98438 265.75702Q431.85938 265.75702 432.375 265.22577Q432.90625 264.69452 432.90625 263.83514Q432.90625 262.96014 432.35938 262.41327Q431.82812 261.8664 431.0 261.8664Z" fill-rule="nonzero"/><path stroke="#6fa8dc" stroke-width="3.0" stroke-linejoin="round" stroke-linecap="round" d="M514.5781 263.52917Q514.5781 266.07605 513.7031 267.31042Q512.84375 268.5448 511.0 268.5448Q509.1875 268.5448 508.3125 267.34167Q507.4375 266.12292 507.40625 263.7323L507.40625 261.7948Q507.40625 259.2948 508.26562 258.07605Q509.14062 256.8573 510.98438 256.8573Q512.8281 256.8573 513.6875 258.02917Q514.5625 259.20105 514.5781 261.65417L514.5781 263.52917ZM513.1406 261.56042Q513.1406 259.71667 512.625 258.88855Q512.1094 258.0448 510.98438 258.0448Q509.875 258.0448 509.35938 258.88855Q508.85938 259.71667 508.84375 261.45105L508.84375 263.76355Q508.84375 265.6073 509.375 266.4823Q509.92188 267.3573 511.0 267.3573Q512.0781 267.3573 512.59375 266.52917Q513.1094 265.70105 513.1406 263.9198L513.1406 261.56042ZM516.5469 270.65417L515.7344 270.09167Q516.46875 269.07605 516.5 267.9823L516.5 266.6698L517.90625 266.6698L517.90625 267.81042Q517.90625 268.6073 517.5156 269.38855Q517.1406 270.18542 516.5469 270.65417ZM526.5781 263.52917Q526.5781 266.07605 525.7031 267.31042Q524.84375 268.5448 523.0 268.5448Q521.1875 268.5448 520.3125 267.34167Q519.4375 266.12292 519.40625 263.7323L519.40625 261.7948Q519.40625 259.2948 520.2656 258.07605Q521.1406 256.8573 522.9844 256.8573Q524.8281 256.8573 525.6875 258.02917Q526.5625 259.20105 526.5781 261.65417L526.5781 263.52917ZM525.1406 261.56042Q525.1406 259.71667 524.625 258.88855Q524.1094 258.0448 522.9844 258.0448Q521.875 258.0448 521.3594 258.88855Q520.8594 259.71667 520.84375 261.45105L520.84375 263.76355Q520.84375 265.6073 521.375 266.4823Q521.9219 267.3573 523.0 267.3573Q524.0781 267.3573 524.59375 266.52917Q525.1094 265.70105 525.1406 263.9198L525.1406 261.56042ZM529.1094 262.68542L529.6875 257.01355L535.5156 257.01355L535.5156 258.34167L530.9219 258.34167L530.5781 261.45105Q531.40625 260.95105 532.46875 260.95105Q534.03125 260.95105 534.9375 261.9823Q535.8594 263.01355 535.8594 264.76355Q535.8594 266.51355 534.90625 267.52917Q533.9531 268.5448 532.25 268.5448Q530.75 268.5448 529.7969 267.71667Q528.84375 266.87292 528.7031 265.38855L530.0781 265.38855Q530.2031 266.37292 530.7656 266.87292Q531.3281 267.3573 532.25 267.3573Q533.2656 267.3573 533.8281 266.6698Q534.40625 265.9823 534.40625 264.77917Q534.40625 263.63855 533.78125 262.95105Q533.1719 262.24792 532.1406 262.24792Q531.1875 262.24792 530.65625 262.6698L530.2656 262.9823L529.1094 262.68542ZM544.7969 257.82605L540.0781 268.38855L538.5625 268.38855L543.2656 258.20105L537.1094 258.20105L537.1094 257.01355L544.7969 257.01355L544.7969 257.82605Z" fill-rule="nonzero"/><path fill="#000000" d="M514.5781 263.52917Q514.5781 266.07605 513.7031 267.31042Q512.84375 268.5448 511.0 268.5448Q509.1875 268.5448 508.3125 267.34167Q507.4375 266.12292 507.40625 263.7323L507.40625 261.7948Q507.40625 259.2948 508.26562 258.07605Q509.14062 256.8573 510.98438 256.8573Q512.8281 256.8573 513.6875 258.02917Q514.5625 259.20105 514.5781 261.65417L514.5781 263.52917ZM513.1406 261.56042Q513.1406 259.71667 512.625 258.88855Q512.1094 258.0448 510.98438 258.0448Q509.875 258.0448 509.35938 258.88855Q508.85938 259.71667 508.84375 261.45105L508.84375 263.76355Q508.84375 265.6073 509.375 266.4823Q509.92188 267.3573 511.0 267.3573Q512.0781 267.3573 512.59375 266.52917Q513.1094 265.70105 513.1406 263.9198L513.1406 261.56042ZM516.5469 270.65417L515.7344 270.09167Q516.46875 269.07605 516.5 267.9823L516.5 266.6698L517.90625 266.6698L517.90625 267.81042Q517.90625 268.6073 517.5156 269.38855Q517.1406 270.18542 516.5469 270.65417ZM526.5781 263.52917Q526.5781 266.07605 525.7031 267.31042Q524.84375 268.5448 523.0 268.5448Q521.1875 268.5448 520.3125 267.34167Q519.4375 266.12292 519.40625 263.7323L519.40625 261.7948Q519.40625 259.2948 520.2656 258.07605Q521.1406 256.8573 522.9844 256.8573Q524.8281 256.8573 525.6875 258.02917Q526.5625 259.20105 526.5781 261.65417L526.5781 263.52917ZM525.1406 261.56042Q525.1406 259.71667 524.625 258.88855Q524.1094 258.0448 522.9844 258.0448Q521.875 258.0448 521.3594 258.88855Q520.8594 259.71667 520.84375 261.45105L520.84375 263.76355Q520.84375 265.6073 521.375 266.4823Q521.9219 267.3573 523.0 267.3573Q524.0781 267.3573 524.59375 266.52917Q525.1094 265.70105 525.1406 263.9198L525.1406 261.56042ZM529.1094 262.68542L529.6875 257.01355L535.5156 257.01355L535.5156 258.34167L530.9219 258.34167L530.5781 261.45105Q531.40625 260.95105 532.46875 260.95105Q534.03125 260.95105 534.9375 261.9823Q535.8594 263.01355 535.8594 264.76355Q535.8594 266.51355 534.90625 267.52917Q533.9531 268.5448 532.25 268.5448Q530.75 268.5448 529.7969 267.71667Q528.84375 266.87292 528.7031 265.38855L530.0781 265.38855Q530.2031 266.37292 530.7656 266.87292Q531.3281 267.3573 532.25 267.3573Q533.2656 267.3573 533.8281 266.6698Q534.40625 265.9823 534.40625 264.77917Q534.40625 263.63855 533.78125 262.95105Q533.1719 262.24792 532.1406 262.24792Q531.1875 262.24792 530.65625 262.6698L530.2656 262.9823L529.1094 262.68542ZM544.7969 257.82605L540.0781 268.38855L538.5625 268.38855L543.2656 258.20105L537.1094 258.20105L537.1094 257.01355L544.7969 257.01355L544.7969 257.82605Z" fill-rule="nonzero"/><path fill="#000000" d="M320.34375 348.45L320.34375 335.5594L322.90625 335.5594L325.95312 344.6844Q326.375 345.96564 326.5625 346.59064Q326.78125 345.8875 327.25 344.52814L330.34375 335.5594L332.625 335.5594L332.625 348.45L330.98438 348.45L330.98438 337.66876L327.25 348.45L325.70312 348.45L321.98438 337.48126L321.98438 348.45L320.34375 348.45ZM334.59375 343.77814Q334.59375 341.1844 336.04688 339.9344Q337.25 338.90314 338.96875 338.90314Q340.90625 338.90314 342.125 340.16876Q343.34375 341.4344 343.34375 343.65314Q343.34375 345.45 342.79688 346.48126Q342.26562 347.5125 341.23438 348.09064Q340.20312 348.66876 338.96875 348.66876Q337.01562 348.66876 335.79688 347.41876Q334.59375 346.15314 334.59375 343.77814ZM336.21875 343.77814Q336.21875 345.575 337.0 346.46564Q337.78125 347.35626 338.96875 347.35626Q340.15625 347.35626 340.9375 346.46564Q341.71875 345.5594 341.71875 343.73126Q341.71875 341.9969 340.92188 341.10626Q340.14062 340.21564 338.96875 340.21564Q337.78125 340.21564 337.0 341.10626Q336.21875 341.9969 336.21875 343.77814ZM351.25 348.45L351.25 347.27814Q350.35938 348.66876 348.625 348.66876Q347.51562 348.66876 346.57812 348.0594Q345.64062 347.4344 345.125 346.34064Q344.60938 345.23126 344.60938 343.79376Q344.60938 342.3875 345.07812 341.2625Q345.54688 340.1219 346.46875 339.5125Q347.40625 338.90314 348.5625 338.90314Q349.40625 338.90314 350.0625 339.2625Q350.71875 339.6219 351.14062 340.1844L351.14062 335.5594L352.70312 335.5594L352.70312 348.45L351.25 348.45ZM346.23438 343.79376Q346.23438 345.59064 346.98438 346.48126Q347.75 347.35626 348.78125 347.35626Q349.8125 347.35626 350.53125 346.5125Q351.26562 345.66876 351.26562 343.91876Q351.26562 342.0125 350.53125 341.1219Q349.79688 340.21564 348.71875 340.21564Q347.65625 340.21564 346.9375 341.075Q346.23438 341.9344 346.23438 343.79376ZM361.57812 345.45L363.21875 345.65314Q362.82812 347.075 361.78125 347.8719Q360.73438 348.66876 359.10938 348.66876Q357.0625 348.66876 355.85938 347.40314Q354.65625 346.1375 354.65625 343.85626Q354.65625 341.5125 355.85938 340.21564Q357.07812 338.90314 359.01562 338.90314Q360.89062 338.90314 362.07812 340.1844Q363.26562 341.45 363.26562 343.7625Q363.26562 343.90314 363.25 344.1844L356.29688 344.1844Q356.375 345.73126 357.15625 346.54376Q357.95312 347.35626 359.10938 347.35626Q359.98438 347.35626 360.59375 346.90314Q361.21875 346.45 361.57812 345.45ZM356.375 342.8875L361.59375 342.8875Q361.48438 341.71564 361.0 341.1219Q360.23438 340.2 359.03125 340.2Q357.95312 340.2 357.20312 340.9344Q356.46875 341.66876 356.375 342.8875ZM365.15625 348.45L365.15625 335.5594L366.73438 335.5594L366.73438 348.45L365.15625 348.45Z" fill-rule="nonzero"/><path fill="#000000" d="M35.55001 185.65625L22.659388 185.65625L22.659388 183.09375L31.784388 180.04688Q33.065636 179.625 33.690636 179.4375Q32.98751 179.21875 31.628138 178.75L22.659388 175.65625L22.659388 173.375L35.55001 173.375L35.55001 175.01562L24.768763 175.01562L35.55001 178.75L35.55001 180.29688L24.581263 184.01562L35.55001 184.01562L35.55001 185.65625ZM35.55001 172.03125L22.659388 167.07812L22.659388 165.23438L35.55001 159.96875L35.55001 161.90625L31.643763 163.40625L31.643763 168.79688L35.55001 170.21875L35.55001 172.03125ZM30.253138 168.3125L30.253138 163.9375L26.690638 165.28125Q25.065638 165.90625 24.018763 166.20312Q25.253138 166.4375 26.471888 166.89062L30.253138 168.3125ZM35.55001 158.60938L22.659388 158.60938L22.659388 153.75Q22.659388 152.46875 22.784388 151.79688Q22.940638 150.84375 23.393763 150.20312Q23.831263 149.5625 24.643763 149.17188Q25.440638 148.78125 26.393763 148.78125Q28.034388 148.78125 29.175013 149.82812Q30.315638 150.875 30.315638 153.59375L30.315638 156.90625L35.55001 156.90625L35.55001 158.60938ZM28.784388 156.90625L28.784388 153.57812Q28.784388 151.92188 28.175013 151.23438Q27.565638 150.53125 26.440638 150.53125Q25.628138 150.53125 25.065638 150.9375Q24.487513 151.34375 24.300013 152.01562Q24.190638 152.45312 24.190638 153.60938L24.190638 156.90625L28.784388 156.90625ZM35.55001 146.57812L22.659388 146.57812L22.659388 137.26562L24.190638 137.26562L24.190638 144.875L28.128138 144.875L28.128138 137.75L29.643763 137.75L29.643763 144.875L34.034386 144.875L34.034386 136.95312L35.55001 136.95312L35.55001 146.57812Z" fill-rule="nonzero"/><path fill="#000000" d="M72.3 274.59064Q72.3 272.3094 72.76875 270.91876Q73.2375 269.52814 74.15938 268.77814Q75.09688 268.0125 76.50313 268.0125Q77.53438 268.0125 78.31563 268.4344Q79.09688 268.84064 79.59688 269.6375Q80.1125 270.41876 80.40938 271.5594Q80.70625 272.6844 80.70625 274.59064Q80.70625 276.85626 80.2375 278.2625Q79.76875 279.65314 78.83125 280.41876Q77.90938 281.16876 76.50313 281.16876Q74.62813 281.16876 73.56563 279.84064Q72.3 278.23126 72.3 274.59064ZM73.925 274.59064Q73.925 277.7625 74.65938 278.825Q75.40938 279.8719 76.50313 279.8719Q77.58125 279.8719 78.33125 278.825Q79.08125 277.7625 79.08125 274.59064Q79.08125 271.41876 78.33125 270.3719Q77.58125 269.325 76.4875 269.325Q75.39375 269.325 74.7375 270.2469Q73.925 271.41876 73.925 274.59064ZM83.14375 280.95L83.14375 279.15314L84.95625 279.15314L84.95625 280.95Q84.95625 281.95 84.59688 282.5594Q84.25313 283.16876 83.4875 283.4969L83.05 282.825Q83.55 282.60626 83.78438 282.16876Q84.01875 281.7469 84.05 280.95L83.14375 280.95ZM87.3 274.59064Q87.3 272.3094 87.76875 270.91876Q88.2375 269.52814 89.15938 268.77814Q90.09688 268.0125 91.50313 268.0125Q92.53438 268.0125 93.31563 268.4344Q94.09688 268.84064 94.59688 269.6375Q95.1125 270.41876 95.40938 271.5594Q95.70625 272.6844 95.70625 274.59064Q95.70625 276.85626 95.2375 278.2625Q94.76875 279.65314 93.83125 280.41876Q92.90938 281.16876 91.50313 281.16876Q89.62813 281.16876 88.56563 279.84064Q87.3 278.23126 87.3 274.59064ZM88.925 274.59064Q88.925 277.7625 89.65938 278.825Q90.40938 279.8719 91.50313 279.8719Q92.58125 279.8719 93.33125 278.825Q94.08125 277.7625 94.08125 274.59064Q94.08125 271.41876 93.33125 270.3719Q92.58125 269.325 91.4875 269.325Q90.39375 269.325 89.7375 270.2469Q88.925 271.41876 88.925 274.59064Z" fill-rule="nonzero"/><path fill="#000000" d="M72.3 192.79062Q72.3 190.50937 72.76875 189.11874Q73.2375 187.72812 74.15938 186.97812Q75.09688 186.2125 76.50313 186.2125Q77.53438 186.2125 78.31563 186.63437Q79.09688 187.04062 79.59688 187.8375Q80.1125 188.61874 80.40938 189.75937Q80.70625 190.88437 80.70625 192.79062Q80.70625 195.05624 80.2375 196.4625Q79.76875 197.85312 78.83125 198.61874Q77.90938 199.36874 76.50313 199.36874Q74.62813 199.36874 73.56563 198.04062Q72.3 196.43124 72.3 192.79062ZM73.925 192.79062Q73.925 195.9625 74.65938 197.025Q75.40938 198.07187 76.50313 198.07187Q77.58125 198.07187 78.33125 197.025Q79.08125 195.9625 79.08125 192.79062Q79.08125 189.61874 78.33125 188.57187Q77.58125 187.525 76.4875 187.525Q75.39375 187.525 74.7375 188.44687Q73.925 189.61874 73.925 192.79062ZM83.14375 199.15L83.14375 197.35312L84.95625 197.35312L84.95625 199.15Q84.95625 200.15 84.59688 200.75937Q84.25313 201.36874 83.4875 201.69687L83.05 201.025Q83.55 200.80624 83.78438 200.36874Q84.01875 199.94687 84.05 199.15L83.14375 199.15ZM95.6125 197.63437L95.6125 199.15L87.09688 199.15Q87.08125 198.57187 87.28438 198.05624Q87.6125 197.18124 88.31563 196.3375Q89.03438 195.49374 90.39375 194.38437Q92.4875 192.66562 93.22188 191.66562Q93.97188 190.65 93.97188 189.75937Q93.97188 188.80624 93.3 188.16562Q92.62813 187.525 91.55 187.525Q90.39375 187.525 89.70625 188.2125Q89.03438 188.9 89.01875 190.10312L87.39375 189.93124Q87.56563 188.11874 88.64375 187.16562Q89.7375 186.2125 91.58125 186.2125Q93.425 186.2125 94.50313 187.24374Q95.59688 188.275 95.59688 189.79062Q95.59688 190.55624 95.26875 191.30624Q94.95625 192.05624 94.22188 192.88437Q93.4875 193.7125 91.78438 195.15Q90.3625 196.35312 89.95625 196.775Q89.55 197.19687 89.3 197.63437L95.6125 197.63437Z" fill-rule="nonzero"/><path fill="#000000" d="M72.3 110.99062Q72.3 108.70937 72.76875 107.31875Q73.2375 105.92812 74.15938 105.17812Q75.09688 104.4125 76.50313 104.4125Q77.53438 104.4125 78.31563 104.83437Q79.09688 105.24062 79.59688 106.0375Q80.1125 106.81875 80.40938 107.95937Q80.70625 109.08437 80.70625 110.99062Q80.70625 113.25625 80.2375 114.6625Q79.76875 116.05312 78.83125 116.81875Q77.90938 117.56875 76.50313 117.56875Q74.62813 117.56875 73.56563 116.24062Q72.3 114.63125 72.3 110.99062ZM73.925 110.99062Q73.925 114.1625 74.65938 115.225Q75.40938 116.27187 76.50313 116.27187Q77.58125 116.27187 78.33125 115.225Q79.08125 114.1625 79.08125 110.99062Q79.08125 107.81875 78.33125 106.77187Q77.58125 105.725 76.4875 105.725Q75.39375 105.725 74.7375 106.64687Q73.925 107.81875 73.925 110.99062ZM83.14375 117.35L83.14375 115.55312L84.95625 115.55312L84.95625 117.35Q84.95625 118.35 84.59688 118.95937Q84.25313 119.56875 83.4875 119.89687L83.05 119.225Q83.55 119.00625 83.78438 118.56875Q84.01875 118.14687 84.05 117.35L83.14375 117.35ZM92.3625 117.35L92.3625 114.27187L86.78438 114.27187L86.78438 112.81875L92.65938 104.45937L93.95625 104.45937L93.95625 112.81875L95.69063 112.81875L95.69063 114.27187L93.95625 114.27187L93.95625 117.35L92.3625 117.35ZM92.3625 112.81875L92.3625 107.00625L88.33125 112.81875L92.3625 112.81875Z" fill-rule="nonzero"/><path fill="#000000" d="M72.3 29.190624Q72.3 26.909374 72.76875 25.51875Q73.2375 24.128124 74.15938 23.378124Q75.09688 22.6125 76.50313 22.6125Q77.53438 22.6125 78.31563 23.034374Q79.09688 23.440624 79.59688 24.2375Q80.1125 25.01875 80.40938 26.159374Q80.70625 27.284374 80.70625 29.190624Q80.70625 31.45625 80.2375 32.8625Q79.76875 34.253124 78.83125 35.01875Q77.90938 35.76875 76.50313 35.76875Q74.62813 35.76875 73.56563 34.440624Q72.3 32.83125 72.3 29.190624ZM73.925 29.190624Q73.925 32.3625 74.65938 33.425Q75.40938 34.471874 76.50313 34.471874Q77.58125 34.471874 78.33125 33.425Q79.08125 32.3625 79.08125 29.190624Q79.08125 26.01875 78.33125 24.971874Q77.58125 23.925 76.4875 23.925Q75.39375 23.925 74.7375 24.846874Q73.925 26.01875 73.925 29.190624ZM83.14375 35.55L83.14375 33.753124L84.95625 33.753124L84.95625 35.55Q84.95625 36.55 84.59688 37.159374Q84.25313 37.76875 83.4875 38.096874L83.05 37.425Q83.55 37.20625 83.78438 36.76875Q84.01875 36.346874 84.05 35.55L83.14375 35.55ZM95.50313 25.815624L93.94063 25.940624Q93.72188 25.01875 93.33125 24.596874Q92.69063 23.909374 91.75313 23.909374Q91.00313 23.909374 90.425 24.33125Q89.675 24.878124 89.2375 25.925Q88.81563 26.971874 88.8 28.909374Q89.37813 28.034374 90.19063 27.6125Q91.01875 27.190624 91.925 27.190624Q93.51875 27.190624 94.62813 28.3625Q95.7375 29.51875 95.7375 31.3625Q95.7375 32.58125 95.20625 33.628124Q94.69063 34.659374 93.76875 35.221874Q92.8625 35.76875 91.70625 35.76875Q89.72188 35.76875 88.47188 34.315624Q87.22188 32.8625 87.22188 29.51875Q87.22188 25.784374 88.6125 24.08125Q89.81563 22.6125 91.84688 22.6125Q93.37813 22.6125 94.34688 23.471874Q95.31563 24.315624 95.50313 25.815624ZM89.05 31.378124Q89.05 32.190624 89.39375 32.940624Q89.7375 33.690624 90.3625 34.08125Q90.9875 34.471874 91.675 34.471874Q92.675 34.471874 93.39375 33.659374Q94.1125 32.846874 94.1125 31.45625Q94.1125 30.128124 93.39375 29.3625Q92.69063 28.58125 91.6125 28.58125Q90.53438 28.58125 89.78438 29.3625Q89.05 30.128124 89.05 31.378124Z" fill-rule="nonzero"/><path fill="#000000" d="M168.2403 300.45L168.2403 287.5594L170.8028 287.5594L173.84967 296.6844Q174.27155 297.96564 174.45905 298.59064Q174.6778 297.8875 175.14655 296.52814L178.2403 287.5594L180.52155 287.5594L180.52155 300.45L178.88092 300.45L178.88092 289.66876L175.14655 300.45L173.59967 300.45L169.88092 289.48126L169.88092 300.45L168.2403 300.45ZM188.59967 300.45L187.02155 300.45L187.02155 290.3719Q186.44342 290.91876 185.52155 291.46564Q184.59967 291.9969 183.84967 292.27814L183.84967 290.7469Q185.1778 290.1219 186.1778 289.23126Q187.1778 288.34064 187.58405 287.5125L188.59967 287.5125L188.59967 300.45Z" fill-rule="nonzero"/><path fill="#000000" d="M277.6426 300.45L277.6426 287.5594L280.2051 287.5594L283.25198 296.6844Q283.67386 297.96564 283.86136 298.59064Q284.0801 297.8875 284.54886 296.52814L287.6426 287.5594L289.92386 287.5594L289.92386 300.45L288.28323 300.45L288.28323 289.66876L284.54886 300.45L283.00198 300.45L279.28323 289.48126L279.28323 300.45L277.6426 300.45ZM300.36136 298.9344L300.36136 300.45L291.84573 300.45Q291.8301 299.8719 292.03323 299.35626Q292.36136 298.48126 293.06448 297.6375Q293.78323 296.79376 295.1426 295.6844Q297.23636 293.96564 297.97073 292.96564Q298.72073 291.95 298.72073 291.0594Q298.72073 290.10626 298.04886 289.46564Q297.37698 288.825 296.29886 288.825Q295.1426 288.825 294.4551 289.5125Q293.78323 290.2 293.7676 291.40314L292.1426 291.23126Q292.31448 289.41876 293.3926 288.46564Q294.48636 287.5125 296.3301 287.5125Q298.17386 287.5125 299.25198 288.54376Q300.34573 289.575 300.34573 291.09064Q300.34573 291.85626 300.0176 292.60626Q299.7051 293.35626 298.97073 294.1844Q298.23636 295.0125 296.53323 296.45Q295.11136 297.65314 294.7051 298.075Q294.29886 298.4969 294.04886 298.9344L300.36136 298.9344Z" fill-rule="nonzero"/><path fill="#000000" d="M387.0449 300.45L387.0449 287.5594L389.6074 287.5594L392.65427 296.6844Q393.07614 297.96564 393.26364 298.59064Q393.4824 297.8875 393.95114 296.52814L397.0449 287.5594L399.32614 287.5594L399.32614 300.45L397.68552 300.45L397.68552 289.66876L393.95114 300.45L392.40427 300.45L388.68552 289.48126L388.68552 300.45L387.0449 300.45ZM401.45114 297.04376L403.0449 296.84064Q403.31052 298.1844 403.96677 298.77814Q404.62302 299.3719 405.56052 299.3719Q406.68552 299.3719 407.45114 298.60626Q408.21677 297.825 408.21677 296.6844Q408.21677 295.59064 407.49802 294.8875Q406.7949 294.16876 405.70114 294.16876Q405.24802 294.16876 404.57614 294.35626L404.74802 292.96564Q404.90427 292.98126 405.01364 292.98126Q406.01364 292.98126 406.82614 292.45Q407.63864 291.91876 407.63864 290.825Q407.63864 289.95 407.0449 289.3875Q406.45114 288.8094 405.52927 288.8094Q404.6074 288.8094 403.9824 289.3875Q403.37302 289.96564 403.20114 291.1375L401.62302 290.85626Q401.90427 289.2625 402.93552 288.3875Q403.96677 287.5125 405.49802 287.5125Q406.5449 287.5125 407.43552 287.96564Q408.32614 288.41876 408.7949 289.2Q409.26364 289.98126 409.26364 290.85626Q409.26364 291.7 408.81052 292.3875Q408.37302 293.0594 407.4824 293.46564Q408.62302 293.73126 409.24802 294.575Q409.88864 295.40314 409.88864 296.6375Q409.88864 298.325 408.65427 299.5125Q407.43552 300.6844 405.56052 300.6844Q403.8574 300.6844 402.7324 299.66876Q401.62302 298.65314 401.45114 297.04376Z" fill-rule="nonzero"/><path fill="#000000" d="M496.4472 300.45L496.4472 287.5594L499.0097 287.5594L502.05658 296.6844Q502.47845 297.96564 502.66595 298.59064Q502.8847 297.8875 503.35345 296.52814L506.4472 287.5594L508.72845 287.5594L508.72845 300.45L507.08783 300.45L507.08783 289.66876L503.35345 300.45L501.80658 300.45L498.08783 289.48126L498.08783 300.45L496.4472 300.45ZM515.91595 300.45L515.91595 297.3719L510.33783 297.3719L510.33783 295.91876L516.2128 287.5594L517.5097 287.5594L517.5097 295.91876L519.2441 295.91876L519.2441 297.3719L517.5097 297.3719L517.5097 300.45L515.91595 300.45ZM515.91595 295.91876L515.91595 290.10626L511.8847 295.91876L515.91595 295.91876Z" fill-rule="nonzero"/><path fill="#434343" d="M420.4961 65.55C420.4961 64.99772 420.94382 64.55 421.4961 64.55L431.4961 64.55C432.04837 64.55 432.4961 64.99772 432.4961 65.55L432.4961 75.55C432.4961 76.10229 432.04837 76.55 431.4961 76.55L421.4961 76.55C420.94382 76.55 420.4961 76.10229 420.4961 75.55Z" fill-rule="nonzero"/><path stroke="#ffffff" stroke-width="3.0" stroke-linejoin="round" stroke-linecap="round" d="M448.58984 76.26875Q447.60547 77.09688 446.69922 77.44063Q445.79297 77.78438 444.76172 77.78438Q443.0586 77.78438 442.13672 76.95625Q441.21484 76.1125 441.21484 74.81563Q441.21484 74.05 441.5586 73.425Q441.91797 72.8 442.48047 72.425Q443.04297 72.03438 443.7461 71.83125Q444.26172 71.70625 445.3086 71.56563Q447.4336 71.31563 448.4336 70.97188Q448.44922 70.6125 448.44922 70.50313Q448.44922 69.44063 447.94922 68.9875Q447.27734 68.39375 445.94922 68.39375Q444.69922 68.39375 444.10547 68.83125Q443.52734 69.26875 443.2461 70.37813L441.52734 70.14375Q441.76172 69.03438 442.29297 68.3625Q442.82422 67.675 443.83984 67.31563Q444.85547 66.94063 446.19922 66.94063Q447.52734 66.94063 448.35547 67.25313Q449.1836 67.56563 449.57422 68.05Q449.96484 68.51875 450.1211 69.2375Q450.21484 69.69063 450.21484 70.8625L450.21484 73.20625Q450.21484 75.65938 450.32422 76.31563Q450.4336 76.95625 450.77734 77.55L448.9336 77.55Q448.66797 77.00313 448.58984 76.26875ZM448.4336 72.34688Q447.48047 72.7375 445.5586 73.00313Q444.48047 73.15938 444.02734 73.3625Q443.58984 73.55 443.33984 73.925Q443.08984 74.3 443.08984 74.76875Q443.08984 75.47188 443.6211 75.94063Q444.15234 76.40938 445.1836 76.40938Q446.19922 76.40938 446.98047 75.97188Q447.77734 75.51875 448.15234 74.75313Q448.4336 74.14375 448.4336 72.9875L448.4336 72.34688ZM459.54297 77.55L459.54297 76.2375Q458.5586 77.78438 456.63672 77.78438Q455.40234 77.78438 454.35547 77.09688Q453.32422 76.40938 452.7461 75.19063Q452.1836 73.97188 452.1836 72.37813Q452.1836 70.81563 452.69922 69.55Q453.21484 68.28438 454.2461 67.6125Q455.29297 66.94063 456.5586 66.94063Q457.4961 66.94063 458.23047 67.34688Q458.96484 67.7375 459.4336 68.3625L459.4336 63.2375L461.16797 63.2375L461.16797 77.55L459.54297 77.55ZM453.98047 72.37813Q453.98047 74.3625 454.82422 75.34688Q455.66797 76.33125 456.8086 76.33125Q457.96484 76.33125 458.76172 75.39375Q459.57422 74.45625 459.57422 72.51875Q459.57422 70.39375 458.7461 69.39375Q457.9336 68.39375 456.73047 68.39375Q455.5586 68.39375 454.76172 69.3625Q453.98047 70.31563 453.98047 72.37813ZM463.8086 81.51875L463.8086 67.175L465.41797 67.175L465.41797 68.51875Q465.98047 67.7375 466.6836 67.34688Q467.40234 66.94063 468.41797 66.94063Q469.7461 66.94063 470.76172 67.62813Q471.77734 68.31563 472.29297 69.56563Q472.82422 70.8 472.82422 72.28438Q472.82422 73.87813 472.2461 75.15938Q471.6836 76.425 470.58984 77.1125Q469.4961 77.78438 468.29297 77.78438Q467.41797 77.78438 466.71484 77.40938Q466.02734 77.03438 465.57422 76.47188L465.57422 81.51875L463.8086 81.51875ZM465.40234 72.425Q465.40234 74.425 466.21484 75.37813Q467.02734 76.33125 468.1836 76.33125Q469.35547 76.33125 470.1836 75.34688Q471.02734 74.3625 471.02734 72.26875Q471.02734 70.3 470.19922 69.31563Q469.38672 68.31563 468.26172 68.31563Q467.13672 68.31563 466.26172 69.37813Q465.40234 70.425 465.40234 72.425Z" fill-rule="nonzero"/><path fill="#1a1a1a" d="M448.58984 76.26875Q447.60547 77.09688 446.69922 77.44063Q445.79297 77.78438 444.76172 77.78438Q443.0586 77.78438 442.13672 76.95625Q441.21484 76.1125 441.21484 74.81563Q441.21484 74.05 441.5586 73.425Q441.91797 72.8 442.48047 72.425Q443.04297 72.03438 443.7461 71.83125Q444.26172 71.70625 445.3086 71.56563Q447.4336 71.31563 448.4336 70.97188Q448.44922 70.6125 448.44922 70.50313Q448.44922 69.44063 447.94922 68.9875Q447.27734 68.39375 445.94922 68.39375Q444.69922 68.39375 444.10547 68.83125Q443.52734 69.26875 443.2461 70.37813L441.52734 70.14375Q441.76172 69.03438 442.29297 68.3625Q442.82422 67.675 443.83984 67.31563Q444.85547 66.94063 446.19922 66.94063Q447.52734 66.94063 448.35547 67.25313Q449.1836 67.56563 449.57422 68.05Q449.96484 68.51875 450.1211 69.2375Q450.21484 69.69063 450.21484 70.8625L450.21484 73.20625Q450.21484 75.65938 450.32422 76.31563Q450.4336 76.95625 450.77734 77.55L448.9336 77.55Q448.66797 77.00313 448.58984 76.26875ZM448.4336 72.34688Q447.48047 72.7375 445.5586 73.00313Q444.48047 73.15938 444.02734 73.3625Q443.58984 73.55 443.33984 73.925Q443.08984 74.3 443.08984 74.76875Q443.08984 75.47188 443.6211 75.94063Q444.15234 76.40938 445.1836 76.40938Q446.19922 76.40938 446.98047 75.97188Q447.77734 75.51875 448.15234 74.75313Q448.4336 74.14375 448.4336 72.9875L448.4336 72.34688ZM459.54297 77.55L459.54297 76.2375Q458.5586 77.78438 456.63672 77.78438Q455.40234 77.78438 454.35547 77.09688Q453.32422 76.40938 452.7461 75.19063Q452.1836 73.97188 452.1836 72.37813Q452.1836 70.81563 452.69922 69.55Q453.21484 68.28438 454.2461 67.6125Q455.29297 66.94063 456.5586 66.94063Q457.4961 66.94063 458.23047 67.34688Q458.96484 67.7375 459.4336 68.3625L459.4336 63.237503L461.16797 63.237503L461.16797 77.55L459.54297 77.55ZM453.98047 72.37813Q453.98047 74.3625 454.82422 75.34688Q455.66797 76.33125 456.8086 76.33125Q457.96484 76.33125 458.76172 75.39375Q459.57422 74.45625 459.57422 72.51875Q459.57422 70.39375 458.7461 69.39375Q457.9336 68.39375 456.73047 68.39375Q455.5586 68.39375 454.76172 69.3625Q453.98047 70.31563 453.98047 72.37813ZM463.8086 81.51875L463.8086 67.175L465.41797 67.175L465.41797 68.51875Q465.98047 67.7375 466.6836 67.34688Q467.40234 66.94063 468.41797 66.94063Q469.7461 66.94063 470.76172 67.62813Q471.77734 68.31563 472.29297 69.56563Q472.82422 70.8 472.82422 72.28438Q472.82422 73.87813 472.2461 75.15938Q471.6836 76.425 470.58984 77.1125Q469.4961 77.78438 468.29297 77.78438Q467.41797 77.78438 466.71484 77.40938Q466.02734 77.03438 465.57422 76.47188L465.57422 81.51875L463.8086 81.51875ZM465.40234 72.425Q465.40234 74.425 466.21484 75.37813Q467.02734 76.33125 468.1836 76.33125Q469.35547 76.33125 470.1836 75.34688Q471.02734 74.3625 471.02734 72.26875Q471.02734 70.3 470.19922 69.31563Q469.38672 68.31563 468.26172 68.31563Q467.13672 68.31563 466.26172 69.37813Q465.40234 70.425 465.40234 72.425Z" fill-rule="nonzero"/><path fill="#6fa8dc" d="M489.4961 65.55C489.4961 64.99772 489.94382 64.55 490.4961 64.55L500.4961 64.55C501.04837 64.55 501.4961 64.99772 501.4961 65.55L501.4961 75.55C501.4961 76.10229 501.04837 76.55 500.4961 76.55L490.4961 76.55C489.94382 76.55 489.4961 76.10229 489.4961 75.55Z" fill-rule="nonzero"/><path stroke="#ffffff" stroke-width="3.0" stroke-linejoin="round" stroke-linecap="round" d="M513.6992 77.55L509.7461 67.175L511.60547 67.175L513.83984 73.39375Q514.1992 74.39375 514.4961 75.47188Q514.73047 74.65938 515.15234 73.50313L517.4492 67.175L519.2617 67.175L515.33984 77.55L513.6992 77.55ZM527.58984 76.26875Q526.60547 77.09688 525.6992 77.44063Q524.79297 77.78438 523.7617 77.78438Q522.0586 77.78438 521.1367 76.95625Q520.21484 76.1125 520.21484 74.81563Q520.21484 74.05 520.5586 73.425Q520.91797 72.8 521.48047 72.425Q522.04297 72.03438 522.7461 71.83125Q523.2617 71.70625 524.3086 71.56563Q526.4336 71.31563 527.4336 70.97188Q527.4492 70.6125 527.4492 70.50313Q527.4492 69.44063 526.9492 68.9875Q526.27734 68.39375 524.9492 68.39375Q523.6992 68.39375 523.10547 68.83125Q522.52734 69.26875 522.2461 70.37813L520.52734 70.14375Q520.7617 69.03438 521.29297 68.3625Q521.8242 67.675 522.83984 67.31563Q523.85547 66.94063 525.1992 66.94063Q526.52734 66.94063 527.35547 67.25313Q528.1836 67.56563 528.5742 68.05Q528.96484 68.51875 529.1211 69.2375Q529.21484 69.69063 529.21484 70.8625L529.21484 73.20625Q529.21484 75.65938 529.3242 76.31563Q529.4336 76.95625 529.77734 77.55L527.9336 77.55Q527.66797 77.00313 527.58984 76.26875ZM527.4336 72.34688Q526.48047 72.7375 524.5586 73.00313Q523.48047 73.15938 523.02734 73.3625Q522.58984 73.55 522.33984 73.925Q522.08984 74.3 522.08984 74.76875Q522.08984 75.47188 522.6211 75.94063Q523.15234 76.40938 524.1836 76.40938Q525.1992 76.40938 525.98047 75.97188Q526.77734 75.51875 527.15234 74.75313Q527.4336 74.14375 527.4336 72.9875L527.4336 72.34688ZM531.77734 77.55L531.77734 63.2375L533.52734 63.2375L533.52734 77.55L531.77734 77.55Z" fill-rule="nonzero"/><path fill="#1a1a1a" d="M513.6992 77.55L509.7461 67.175L511.60547 67.175L513.83984 73.39375Q514.1992 74.39375 514.4961 75.47188Q514.73047 74.65938 515.15234 73.50313L517.4492 67.175L519.2617 67.175L515.33984 77.55L513.6992 77.55ZM527.58984 76.26875Q526.60547 77.09688 525.6992 77.44063Q524.79297 77.78438 523.7617 77.78438Q522.0586 77.78438 521.1367 76.95625Q520.21484 76.1125 520.21484 74.81563Q520.21484 74.05 520.5586 73.425Q520.91797 72.8 521.48047 72.425Q522.04297 72.03438 522.7461 71.83125Q523.2617 71.70625 524.3086 71.56563Q526.4336 71.31563 527.4336 70.97188Q527.4492 70.6125 527.4492 70.50313Q527.4492 69.44063 526.9492 68.9875Q526.27734 68.39375 524.9492 68.39375Q523.6992 68.39375 523.10547 68.83125Q522.52734 69.26875 522.2461 70.37813L520.52734 70.14375Q520.7617 69.03438 521.29297 68.3625Q521.8242 67.675 522.83984 67.31563Q523.85547 66.94063 525.1992 66.94063Q526.52734 66.94063 527.35547 67.25313Q528.1836 67.56563 528.5742 68.05Q528.96484 68.51875 529.1211 69.2375Q529.21484 69.69063 529.21484 70.8625L529.21484 73.20625Q529.21484 75.65938 529.3242 76.31563Q529.4336 76.95625 529.77734 77.55L527.9336 77.55Q527.66797 77.00313 527.58984 76.26875ZM527.4336 72.34688Q526.48047 72.7375 524.5586 73.00313Q523.48047 73.15938 523.02734 73.3625Q522.58984 73.55 522.33984 73.925Q522.08984 74.3 522.08984 74.76875Q522.08984 75.47188 522.6211 75.94063Q523.15234 76.40938 524.1836 76.40938Q525.1992 76.40938 525.98047 75.97188Q526.77734 75.51875 527.15234 74.75313Q527.4336 74.14375 527.4336 72.9875L527.4336 72.34688ZM531.77734 77.55L531.77734 63.237503L533.52734 63.237503L533.52734 77.55L531.77734 77.55Z" fill-rule="nonzero"/></svg>