<svg version="1.1" viewBox="0.0 0.0 228.0 371.0" fill="none" stroke="none" stroke-linecap="square" stroke-miterlimit="10" width="228" height="371" xmlns:xlink="http://www.w3.org/1999/xlink" xmlns="http://www.w3.org/2000/svg"><path fill="#ffffff" d="M0 0L228.0 0L228.0 371.0L0 371.0L0 0Z" fill-rule="nonzero"/><path stroke="#cccccc" stroke-width="1.0" stroke-linecap="butt" d="M50.5 20.5L50.5 265.5" fill-rule="nonzero"/><path stroke="#cccccc" stroke-width="1.0" stroke-linecap="butt" d="M105.5 20.5L105.5 265.5" fill-rule="nonzero"/><path stroke="#cccccc" stroke-width="1.0" stroke-linecap="butt" d="M161.5 20.5L161.5 265.5" fill-rule="nonzero"/><path stroke="#cccccc" stroke-width="1.0" stroke-linecap="butt" d="M216.5 20.5L216.5 265.5" fill-rule="nonzero"/><path stroke="#333333" stroke-width="1.0" stroke-linecap="butt" d="M50.5 265.5L216.5 265.5" fill-rule="nonzero"/><path stroke="#cccccc" stroke-width="1.0" stroke-linecap="butt" d="M50.5 216.5L216.5 216.5" fill-rule="nonzero"/><path stroke="#cccccc" stroke-width="1.0" stroke-linecap="butt" d="M50.5 167.5L216.5 167.5" fill-rule="nonzero"/><path stroke="#cccccc" stroke-width="1.0" stroke-linecap="butt" d="M50.5 118.5L216.5 118.5" fill-rule="nonzero"/><path stroke="#cccccc" stroke-width="1.0" stroke-linecap="butt" d="M50.5 69.5L216.5 69.5" fill-rule="nonzero"/><path stroke="#cccccc" stroke-width="1.0" stroke-linecap="butt" d="M50.5 20.5L216.5 20.5" fill-rule="nonzero"/><clipPath id="id_0"><path d="M50.4 20.9L216.6 20.9L216.6 265.87277L50.4 265.87277L50.4 20.9Z" clip-rule="nonzero"/></clipPath><path stroke="#000000" stroke-width="2.0" stroke-linecap="butt" clip-path="url(#id_0)" d="M50.4 130.94571L55.100914 130.9016L59.346897 130.8589L64.04781 130.81754L68.597084 130.7775L73.29799 130.73872L77.84726 130.70116L82.54817 130.6648L87.249084 130.62956L91.798355 130.59546L96.49927 130.56242L101.04854 130.53046L105.74945 130.49948L110.45036 130.46948L114.84799 130.44043L119.548904 130.4123L124.098175 130.38506L128.79909 130.35867L133.34836 130.33313L138.04927 130.3084L142.75018 130.28444L147.29945 130.26125L152.00037 130.23877L156.54964 130.21703L161.25055 130.19595L165.95146 130.17557L170.19745 130.1558L174.89836 130.13669L179.44763 130.11818L184.14854 130.10025L188.69781 130.08289L193.39873 130.06606L198.09964 130.04976L202.64891 130.03397L207.34982 130.01869L211.8991 130.00389L216.6 129.98956" fill-rule="nonzero"/><path stroke="#000000" stroke-width="2.0" stroke-linecap="butt" stroke-dasharray="8.0,6.0,2.0,6.0" clip-path="url(#id_0)" d="M50.4 130.94571L55.100914 130.9016L59.346897 130.8589L64.04781 130.81754L68.597084 130.7775L73.29799 130.73872L77.84726 130.70116L82.54817 130.6648L87.249084 130.62956L91.798355 130.59546L96.49927 130.56242L101.04854 130.53046L105.74945 137.60736L110.45036 140.78531L114.84799 142.87119L119.548904 144.49464L124.098175 145.9174L128.79909 147.2527L133.34836 148.54996L138.04927 149.83086L142.75018 151.1049L147.29945 152.37625L152.00037 153.64674L156.54964 154.91714L161.25055 156.1878L165.95146 157.45886L170.19745 158.73036L174.89836 160.00233L179.44763 161.27477L184.14854 162.54765L188.69781 163.82098L193.39873 165.09474L198.09964 166.36891L202.64891 167.64348L207.34982 168.91843L211.8991 170.19376L216.6 171.46947" fill-rule="nonzero"/><path stroke="#000000" stroke-width="2.0" stroke-linecap="butt" stroke-dasharray="8.0,6.0" clip-path="url(#id_0)" d="M50.4 130.94571L55.100914 130.9016L59.346897 130.8589L64.04781 130.81754L68.597084 130.7775L73.29799 130.73872L77.84726 130.70116L82.54817 130.6648L87.249084 130.62956L91.798355 130.59546L96.49927 130.56242L101.04854 130.53046L105.74945 116.283714L110.45036 109.837845L114.84799 105.57896L119.548904 102.24762L124.098175 99.320366L128.79909 96.57067L133.34836 93.89954L138.04927 91.263535L142.75018 88.64358L147.29945 86.03128L152.00037 83.42292L156.54964 80.81686L161.25055 78.21234L165.95146 75.60903L170.19745 73.00676L174.89836 70.40542L179.44763 67.80497L184.14854 65.20538L188.69781 62.606613L193.39873 60.008636L198.09964 57.41143L202.64891 54.814972L207.34982 52.219227L211.8991 49.624172L216.6 47.0298" fill-rule="nonzero"/><path fill="#000000" fill-opacity="0.0" clip-path="url(#id_0)" d="M53.4 130.94571C53.4 132.60255 52.056854 133.94571 50.4 133.94571C48.743145 133.94571 47.4 132.60255 47.4 130.94571C47.4 129.28885 48.743145 127.94571 50.4 127.94571C52.056854 127.94571 53.4 129.28885 53.4 130.94571Z" fill-rule="nonzero"/><path fill="#000000" fill-opacity="0.0" clip-path="url(#id_0)" d="M58.100914 130.9016C58.100914 132.55846 56.757767 133.9016 55.100914 133.9016C53.444057 133.9016 52.100914 132.55846 52.100914 130.9016C52.100914 129.24475 53.444057 127.9016 55.100914 127.9016C56.757767 127.9016 58.100914 129.24475 58.100914 130.9016Z" fill-rule="nonzero"/><path fill="#000000" fill-opacity="0.0" clip-path="url(#id_0)" d="M62.346897 130.8589C62.346897 132.51575 61.003754 133.8589 59.346897 133.8589C57.690044 133.8589 56.346897 132.51575 56.346897 130.8589C56.346897 129.20204 57.690044 127.858894 59.346897 127.858894C61.003754 127.858894 62.346897 129.20204 62.346897 130.8589Z" fill-rule="nonzero"/><path fill="#000000" fill-opacity="0.0" clip-path="url(#id_0)" d="M67.04781 130.81754C67.04781 132.4744 65.704666 133.81754 64.04781 133.81754C62.390957 133.81754 61.04781 132.4744 61.04781 130.81754C61.04781 129.16069 62.390957 127.81754 64.04781 127.81754C65.704666 127.81754 67.04781 129.16069 67.04781 130.81754Z" fill-rule="nonzero"/><path fill="#000000" fill-opacity="0.0" clip-path="url(#id_0)" d="M71.597084 130.7775C71.597084 132.43436 70.25394 133.7775 68.597084 133.7775C66.94022 133.7775 65.597084 132.43436 65.597084 130.7775C65.597084 129.12065 66.94022 127.7775 68.597084 127.7775C70.25394 127.7775 71.597084 129.12065 71.597084 130.7775Z" fill-rule="nonzero"/><path fill="#000000" fill-opacity="0.0" clip-path="url(#id_0)" d="M76.29799 130.73872C76.29799 132.39557 74.95485 133.73872 73.29799 133.73872C71.641136 133.73872 70.29799 132.39557 70.29799 130.73872C70.29799 129.08186 71.641136 127.738716 73.29799 127.738716C74.95485 127.738716 76.29799 129.08186 76.29799 130.73872Z" fill-rule="nonzero"/><path fill="#000000" fill-opacity="0.0" clip-path="url(#id_0)" d="M80.84726 130.70116C80.84726 132.35802 79.50412 133.70116 77.84726 133.70116C76.19041 133.70116 74.84726 132.35802 74.84726 130.70116C74.84726 129.04431 76.19041 127.70116 77.84726 127.70116C79.50412 127.70116 80.84726 129.04431 80.84726 130.70116Z" fill-rule="nonzero"/><path fill="#000000" fill-opacity="0.0" clip-path="url(#id_0)" d="M85.54817 130.6648C85.54817 132.32164 84.20503 133.6648 82.54817 133.6648C80.89132 133.6648 79.54817 132.32164 79.54817 130.6648C79.54817 129.00793 80.89132 127.66479 82.54817 127.66479C84.20503 127.66479 85.54817 129.00793 85.54817 130.6648Z" fill-rule="nonzero"/><path fill="#000000" fill-opacity="0.0" clip-path="url(#id_0)" d="M90.249084 130.62956C90.249084 132.28642 88.905945 133.62956 87.249084 133.62956C85.59223 133.62956 84.249084 132.28642 84.249084 130.62956C84.249084 128.97272 85.59223 127.62957 87.249084 127.62957C88.905945 127.62957 90.249084 128.97272 90.249084 130.62956Z" fill-rule="nonzero"/><path fill="#000000" fill-opacity="0.0" clip-path="url(#id_0)" d="M94.798355 130.59546C94.798355 132.25232 93.455215 133.59546 91.798355 133.59546C90.1415 133.59546 88.798355 132.25232 88.798355 130.59546C88.798355 128.93861 90.1415 127.59547 91.798355 127.59547C93.455215 127.59547 94.798355 128.93861 94.798355 130.59546Z" fill-rule="nonzero"/><path fill="#000000" fill-opacity="0.0" clip-path="url(#id_0)" d="M99.49927 130.56242C99.49927 132.21928 98.15613 133.56242 96.49927 133.56242C94.842415 133.56242 93.49927 132.21928 93.49927 130.56242C93.49927 128.90558 94.842415 127.56243 96.49927 127.56243C98.15613 127.56243 99.49927 128.90558 99.49927 130.56242Z" fill-rule="nonzero"/><path fill="#000000" fill-opacity="0.0" clip-path="url(#id_0)" d="M104.04854 130.53046C104.04854 132.1873 102.70539 133.53046 101.04854 133.53046C99.391685 133.53046 98.04854 132.1873 98.04854 130.53046C98.04854 128.8736 99.391685 127.53045 101.04854 127.53045C102.70539 127.53045 104.04854 128.8736 104.04854 130.53046Z" fill-rule="nonzero"/><path fill="#000000" fill-opacity="0.0" clip-path="url(#id_0)" d="M108.74945 130.49948C108.74945 132.15633 107.4063 133.49948 105.74945 133.49948C104.0926 133.49948 102.74945 132.15633 102.74945 130.49948C102.74945 128.84262 104.0926 127.49947 105.74945 127.49947C107.4063 127.49947 108.74945 128.84262 108.74945 130.49948Z" fill-rule="nonzero"/><path fill="#000000" fill-opacity="0.0" clip-path="url(#id_0)" d="M113.45036 130.46948C113.45036 132.12633 112.107216 133.46948 110.45036 133.46948C108.79351 133.46948 107.45036 132.12633 107.45036 130.46948C107.45036 128.81262 108.79351 127.469475 110.45036 127.469475C112.107216 127.469475 113.45036 128.81262 113.45036 130.46948Z" fill-rule="nonzero"/><path fill="#000000" fill-opacity="0.0" clip-path="url(#id_0)" d="M117.84799 130.44043C117.84799 132.09727 116.504845 133.44043 114.84799 133.44043C113.19114 133.44043 111.84799 132.09727 111.84799 130.44043C111.84799 128.78357 113.19114 127.44042 114.84799 127.44042C116.504845 127.44042 117.84799 128.78357 117.84799 130.44043Z" fill-rule="nonzero"/><path fill="#000000" fill-opacity="0.0" clip-path="url(#id_0)" d="M122.548904 130.4123C122.548904 132.06914 121.20576 133.4123 119.548904 133.4123C117.89205 133.4123 116.548904 132.06914 116.548904 130.4123C116.548904 128.75543 117.89205 127.41229 119.548904 127.41229C121.20576 127.41229 122.548904 128.75543 122.548904 130.4123Z" fill-rule="nonzero"/><path fill="#000000" fill-opacity="0.0" clip-path="url(#id_0)" d="M127.098175 130.38506C127.098175 132.04192 125.75503 133.38506 124.098175 133.38506C122.44132 133.38506 121.098175 132.04192 121.098175 130.38506C121.098175 128.7282 122.44132 127.385056 124.098175 127.385056C125.75503 127.385056 127.098175 128.7282 127.098175 130.38506Z" fill-rule="nonzero"/><path fill="#000000" fill-opacity="0.0" clip-path="url(#id_0)" d="M131.79909 130.35867C131.79909 132.01553 130.45595 133.35867 128.79909 133.35867C127.142235 133.35867 125.79909 132.01553 125.79909 130.35867C125.79909 128.70181 127.142235 127.35867 128.79909 127.35867C130.45595 127.35867 131.79909 128.70181 131.79909 130.35867Z" fill-rule="nonzero"/><path fill="#000000" fill-opacity="0.0" clip-path="url(#id_0)" d="M136.34836 130.33313C136.34836 131.98999 135.00522 133.33313 133.34836 133.33313C131.6915 133.33313 130.34836 131.98999 130.34836 130.33313C130.34836 128.67628 131.6915 127.33313 133.34836 127.33313C135.00522 127.33313 136.34836 128.67628 136.34836 130.33313Z" fill-rule="nonzero"/><path fill="#000000" fill-opacity="0.0" clip-path="url(#id_0)" d="M141.04927 130.3084C141.04927 131.96524 139.70613 133.3084 138.04927 133.3084C136.39241 133.3084 135.04927 131.96524 135.04927 130.3084C135.04927 128.65154 136.39241 127.308395 138.04927 127.308395C139.70613 127.308395 141.04927 128.65154 141.04927 130.3084Z" fill-rule="nonzero"/><path fill="#000000" fill-opacity="0.0" clip-path="url(#id_0)" d="M145.75018 130.28444C145.75018 131.94128 144.40704 133.28444 142.75018 133.28444C141.09332 133.28444 139.75018 131.94128 139.75018 130.28444C139.75018 128.62758 141.09332 127.28443 142.75018 127.28443C144.40704 127.28443 145.75018 128.62758 145.75018 130.28444Z" fill-rule="nonzero"/><path fill="#000000" fill-opacity="0.0" clip-path="url(#id_0)" d="M150.29945 130.26125C150.29945 131.91809 148.95631 133.26125 147.29945 133.26125C145.6426 133.26125 144.29945 131.91809 144.29945 130.26125C144.29945 128.60439 145.6426 127.26124 147.29945 127.26124C148.95631 127.26124 150.29945 128.60439 150.29945 130.26125Z" fill-rule="nonzero"/><path fill="#000000" fill-opacity="0.0" clip-path="url(#id_0)" d="M155.00037 130.23877C155.00037 131.89563 153.65723 133.23877 152.00037 133.23877C150.3435 133.23877 149.00037 131.89563 149.00037 130.23877C149.00037 128.58192 150.3435 127.23878 152.00037 127.23878C153.65723 127.23878 155.00037 128.58192 155.00037 130.23877Z" fill-rule="nonzero"/><path fill="#000000" fill-opacity="0.0" clip-path="url(#id_0)" d="M159.54964 130.21703C159.54964 131.87387 158.20648 133.21703 156.54964 133.21703C154.89278 133.21703 153.54964 131.87387 153.54964 130.21703C153.54964 128.56017 154.89278 127.217026 156.54964 127.217026C158.20648 127.217026 159.54964 128.56017 159.54964 130.21703Z" fill-rule="nonzero"/><path fill="#000000" fill-opacity="0.0" clip-path="url(#id_0)" d="M164.25055 130.19595C164.25055 131.85281 162.9074 133.19595 161.25055 133.19595C159.59369 133.19595 158.25055 131.85281 158.25055 130.19595C158.25055 128.53911 159.59369 127.19596 161.25055 127.19596C162.9074 127.19596 164.25055 128.53911 164.25055 130.19595Z" fill-rule="nonzero"/><path fill="#000000" fill-opacity="0.0" clip-path="url(#id_0)" d="M168.95146 130.17557C168.95146 131.83241 167.6083 133.17557 165.95146 133.17557C164.2946 133.17557 162.95146 131.83241 162.95146 130.17557C162.95146 128.5187 164.2946 127.17556 165.95146 127.17556C167.6083 127.17556 168.95146 128.5187 168.95146 130.17557Z" fill-rule="nonzero"/><path fill="#000000" fill-opacity="0.0" clip-path="url(#id_0)" d="M173.19745 130.1558C173.19745 131.81267 171.8543 133.1558 170.19745 133.1558C168.54059 133.1558 167.19745 131.81267 167.19745 130.1558C167.19745 128.49896 168.54059 127.15581 170.19745 127.15581C171.8543 127.15581 173.19745 128.49896 173.19745 130.1558Z" fill-rule="nonzero"/><path fill="#000000" fill-opacity="0.0" clip-path="url(#id_0)" d="M177.89836 130.13669C177.89836 131.79355 176.5552 133.13669 174.89836 133.13669C173.2415 133.13669 171.89836 131.79355 171.89836 130.13669C171.89836 128.47984 173.2415 127.136696 174.89836 127.136696C176.5552 127.136696 177.89836 128.47984 177.89836 130.13669Z" fill-rule="nonzero"/><path fill="#000000" fill-opacity="0.0" clip-path="url(#id_0)" d="M182.44763 130.11818C182.44763 131.77504 181.10448 133.11818 179.44763 133.11818C177.79077 133.11818 176.44763 131.77504 176.44763 130.11818C176.44763 128.46133 177.79077 127.11818 179.44763 127.11818C181.10448 127.11818 182.44763 128.46133 182.44763 130.11818Z" fill-rule="nonzero"/><path fill="#000000" fill-opacity="0.0" clip-path="url(#id_0)" d="M187.14854 130.10025C187.14854 131.75711 185.80539 133.10025 184.14854 133.10025C182.49168 133.10025 181.14854 131.75711 181.14854 130.10025C181.14854 128.4434 182.49168 127.10025 184.14854 127.10025C185.80539 127.10025 187.14854 128.4434 187.14854 130.10025Z" fill-rule="nonzero"/><path fill="#000000" fill-opacity="0.0" clip-path="url(#id_0)" d="M191.69781 130.08289C191.69781 131.73973 190.35466 133.08289 188.69781 133.08289C187.04095 133.08289 185.69781 131.73973 185.69781 130.08289C185.69781 128.42603 187.04095 127.082886 188.69781 127.082886C190.35466 127.082886 191.69781 128.42603 191.69781 130.08289Z" fill-rule="nonzero"/><path fill="#000000" fill-opacity="0.0" clip-path="url(#id_0)" d="M196.39873 130.06606C196.39873 131.72292 195.05557 133.06606 193.39873 133.06606C191.74187 133.06606 190.39873 131.72292 190.39873 130.06606C190.39873 128.4092 191.74187 127.066055 193.39873 127.066055C195.05557 127.066055 196.39873 128.4092 196.39873 130.06606Z" fill-rule="nonzero"/><path fill="#000000" fill-opacity="0.0" clip-path="url(#id_0)" d="M201.09964 130.04976C201.09964 131.7066 199.75648 133.04976 198.09964 133.04976C196.44278 133.04976 195.09964 131.7066 195.09964 130.04976C195.09964 128.3929 196.44278 127.04975 198.09964 127.04975C199.75648 127.04975 201.09964 128.3929 201.09964 130.04976Z" fill-rule="nonzero"/><path fill="#000000" fill-opacity="0.0" clip-path="url(#id_0)" d="M205.64891 130.03397C205.64891 131.69081 204.30576 133.03397 202.64891 133.03397C200.99205 133.03397 199.64891 131.69081 199.64891 130.03397C199.64891 128.3771 200.99205 127.033966 202.64891 127.033966C204.30576 127.033966 205.64891 128.3771 205.64891 130.03397Z" fill-rule="nonzero"/><path fill="#000000" fill-opacity="0.0" clip-path="url(#id_0)" d="M210.34982 130.01869C210.34982 131.67554 209.00667 133.01869 207.34982 133.01869C205.69296 133.01869 204.34982 131.67554 204.34982 130.01869C204.34982 128.36183 205.69296 127.018684 207.34982 127.018684C209.00667 127.018684 210.34982 128.36183 210.34982 130.01869Z" fill-rule="nonzero"/><path fill="#000000" fill-opacity="0.0" clip-path="url(#id_0)" d="M214.8991 130.00389C214.8991 131.66075 213.55594 133.00389 211.8991 133.00389C210.24223 133.00389 208.8991 131.66075 208.8991 130.00389C208.8991 128.34703 210.24223 127.00389 211.8991 127.00389C213.55594 127.00389 214.8991 128.34703 214.8991 130.00389Z" fill-rule="nonzero"/><path fill="#000000" fill-opacity="0.0" clip-path="url(#id_0)" d="M219.6 129.98956C219.6 131.64642 218.25685 132.98956 216.6 132.98956C214.94315 132.98956 213.6 131.64642 213.6 129.98956C213.6 128.33272 214.94315 126.98956 216.6 126.98956C218.25685 126.98956 219.6 128.33272 219.6 129.98956Z" fill-rule="nonzero"/><path fill="#000000" fill-opacity="0.0" clip-path="url(#id_0)" d="M53.4 130.94571C53.4 132.60255 52.056854 133.94571 50.4 133.94571C48.743145 133.94571 47.4 132.60255 47.4 130.94571C47.4 129.28885 48.743145 127.94571 50.4 127.94571C52.056854 127.94571 53.4 129.28885 53.4 130.94571Z" fill-rule="nonzero"/><path fill="#000000" fill-opacity="0.0" clip-path="url(#id_0)" d="M58.100914 130.9016C58.100914 132.55846 56.757767 133.9016 55.100914 133.9016C53.444057 133.9016 52.100914 132.55846 52.100914 130.9016C52.100914 129.24475 53.444057 127.9016 55.100914 127.9016C56.757767 127.9016 58.100914 129.24475 58.100914 130.9016Z" fill-rule="nonzero"/><path fill="#000000" fill-opacity="0.0" clip-path="url(#id_0)" d="M62.346897 130.8589C62.346897 132.51575 61.003754 133.8589 59.346897 133.8589C57.690044 133.8589 56.346897 132.51575 56.346897 130.8589C56.346897 129.20204 57.690044 127.858894 59.346897 127.858894C61.003754 127.858894 62.346897 129.20204 62.346897 130.8589Z" fill-rule="nonzero"/><path fill="#000000" fill-opacity="0.0" clip-path="url(#id_0)" d="M67.04781 130.81754C67.04781 132.4744 65.704666 133.81754 64.04781 133.81754C62.390957 133.81754 61.04781 132.4744 61.04781 130.81754C61.04781 129.16069 62.390957 127.81754 64.04781 127.81754C65.704666 127.81754 67.04781 129.16069 67.04781 130.81754Z" fill-rule="nonzero"/><path fill="#000000" fill-opacity="0.0" clip-path="url(#id_0)" d="M71.597084 130.7775C71.597084 132.43436 70.25394 133.7775 68.597084 133.7775C66.94022 133.7775 65.597084 132.43436 65.597084 130.7775C65.597084 129.12065 66.94022 127.7775 68.597084 127.7775C70.25394 127.7775 71.597084 129.12065 71.597084 130.7775Z" fill-rule="nonzero"/><path fill="#000000" fill-opacity="0.0" clip-path="url(#id_0)" d="M76.29799 130.73872C76.29799 132.39557 74.95485 133.73872 73.29799 133.73872C71.641136 133.73872 70.29799 132.39557 70.29799 130.73872C70.29799 129.08186 71.641136 127.738716 73.29799 127.738716C74.95485 127.738716 76.29799 129.08186 76.29799 130.73872Z" fill-rule="nonzero"/><path fill="#000000" fill-opacity="0.0" clip-path="url(#id_0)" d="M80.84726 130.70116C80.84726 132.35802 79.50412 133.70116 77.84726 133.70116C76.19041 133.70116 74.84726 132.35802 74.84726 130.70116C74.84726 129.04431 76.19041 127.70116 77.84726 127.70116C79.50412 127.70116 80.84726 129.04431 80.84726 130.70116Z" fill-rule="nonzero"/><path fill="#000000" fill-opacity="0.0" clip-path="url(#id_0)" d="M85.54817 130.6648C85.54817 132.32164 84.20503 133.6648 82.54817 133.6648C80.89132 133.6648 79.54817 132.32164 79.54817 130.6648C79.54817 129.00793 80.89132 127.66479 82.54817 127.66479C84.20503 127.66479 85.54817 129.00793 85.54817 130.6648Z" fill-rule="nonzero"/><path fill="#000000" fill-opacity="0.0" clip-path="url(#id_0)" d="M90.249084 130.62956C90.249084 132.28642 88.905945 133.62956 87.249084 133.62956C85.59223 133.62956 84.249084 132.28642 84.249084 130.62956C84.249084 128.97272 85.59223 127.62957 87.249084 127.62957C88.905945 127.62957 90.249084 128.97272 90.249084 130.62956Z" fill-rule="nonzero"/><path fill="#000000" fill-opacity="0.0" clip-path="url(#id_0)" d="M94.798355 130.59546C94.798355 132.25232 93.455215 133.59546 91.798355 133.59546C90.1415 133.59546 88.798355 132.25232 88.798355 130.59546C88.798355 128.93861 90.1415 127.59547 91.798355 127.59547C93.455215 127.59547 94.798355 128.93861 94.798355 130.59546Z" fill-rule="nonzero"/><path fill="#000000" fill-opacity="0.0" clip-path="url(#id_0)" d="M99.49927 130.56242C99.49927 132.21928 98.15613 133.56242 96.49927 133.56242C94.842415 133.56242 93.49927 132.21928 93.49927 130.56242C93.49927 128.90558 94.842415 127.56243 96.49927 127.56243C98.15613 127.56243 99.49927 128.90558 99.49927 130.56242Z" fill-rule="nonzero"/><path fill="#000000" fill-opacity="0.0" clip-path="url(#id_0)" d="M104.04854 130.53046C104.04854 132.1873 102.70539 133.53046 101.04854 133.53046C99.391685 133.53046 98.04854 132.1873 98.04854 130.53046C98.04854 128.8736 99.391685 127.53045 101.04854 127.53045C102.70539 127.53045 104.04854 128.8736 104.04854 130.53046Z" fill-rule="nonzero"/><path fill="#000000" fill-opacity="0.0" clip-path="url(#id_0)" d="M108.74945 137.60736C108.74945 139.2642 107.4063 140.60736 105.74945 140.60736C104.0926 140.60736 102.74945 139.2642 102.74945 137.60736C102.74945 135.9505 104.0926 134.60736 105.74945 134.60736C107.4063 134.60736 108.74945 135.9505 108.74945 137.60736Z" fill-rule="nonzero"/><path fill="#000000" fill-opacity="0.0" clip-path="url(#id_0)" d="M113.45036 140.78531C113.45036 142.44215 112.107216 143.78531 110.45036 143.78531C108.79351 143.78531 107.45036 142.44215 107.45036 140.78531C107.45036 139.12845 108.79351 137.78531 110.45036 137.78531C112.107216 137.78531 113.45036 139.12845 113.45036 140.78531Z" fill-rule="nonzero"/><path fill="#000000" fill-opacity="0.0" clip-path="url(#id_0)" d="M117.84799 142.87119C117.84799 144.52803 116.504845 145.87119 114.84799 145.87119C113.19114 145.87119 111.84799 144.52803 111.84799 142.87119C111.84799 141.21432 113.19114 139.87119 114.84799 139.87119C116.504845 139.87119 117.84799 141.21432 117.84799 142.87119Z" fill-rule="nonzero"/><path fill="#000000" fill-opacity="0.0" clip-path="url(#id_0)" d="M122.548904 144.49464C122.548904 146.15149 121.20576 147.49464 119.548904 147.49464C117.89205 147.49464 116.548904 146.15149 116.548904 144.49464C116.548904 142.83778 117.89205 141.49464 119.548904 141.49464C121.20576 141.49464 122.548904 142.83778 122.548904 144.49464Z" fill-rule="nonzero"/><path fill="#000000" fill-opacity="0.0" clip-path="url(#id_0)" d="M127.098175 145.9174C127.098175 147.57426 125.75503 148.9174 124.098175 148.9174C122.44132 148.9174 121.098175 147.57426 121.098175 145.9174C121.098175 144.26056 122.44132 142.9174 124.098175 142.9174C125.75503 142.9174 127.098175 144.26056 127.098175 145.9174Z" fill-rule="nonzero"/><path fill="#000000" fill-opacity="0.0" clip-path="url(#id_0)" d="M131.79909 147.2527C131.79909 148.90955 130.45595 150.2527 128.79909 150.2527C127.142235 150.2527 125.79909 148.90955 125.79909 147.2527C125.79909 145.59584 127.142235 144.2527 128.79909 144.2527C130.45595 144.2527 131.79909 145.59584 131.79909 147.2527Z" fill-rule="nonzero"/><path fill="#000000" fill-opacity="0.0" clip-path="url(#id_0)" d="M136.34836 148.54996C136.34836 150.2068 135.00522 151.54996 133.34836 151.54996C131.6915 151.54996 130.34836 150.2068 130.34836 148.54996C130.34836 146.8931 131.6915 145.54996 133.34836 145.54996C135.00522 145.54996 136.34836 146.8931 136.34836 148.54996Z" fill-rule="nonzero"/><path fill="#000000" fill-opacity="0.0" clip-path="url(#id_0)" d="M141.04927 149.83086C141.04927 151.4877 139.70613 152.83086 138.04927 152.83086C136.39241 152.83086 135.04927 151.4877 135.04927 149.83086C135.04927 148.174 136.39241 146.83086 138.04927 146.83086C139.70613 146.83086 141.04927 148.174 141.04927 149.83086Z" fill-rule="nonzero"/><path fill="#000000" fill-opacity="0.0" clip-path="url(#id_0)" d="M145.75018 151.1049C145.75018 152.76175 144.40704 154.1049 142.75018 154.1049C141.09332 154.1049 139.75018 152.76175 139.75018 151.1049C139.75018 149.44804 141.09332 148.1049 142.75018 148.1049C144.40704 148.1049 145.75018 149.44804 145.75018 151.1049Z" fill-rule="nonzero"/><path fill="#000000" fill-opacity="0.0" clip-path="url(#id_0)" d="M150.29945 152.37625C150.29945 154.03311 148.95631 155.37625 147.29945 155.37625C145.6426 155.37625 144.29945 154.03311 144.29945 152.37625C144.29945 150.71939 145.6426 149.37625 147.29945 149.37625C148.95631 149.37625 150.29945 150.71939 150.29945 152.37625Z" fill-rule="nonzero"/><path fill="#000000" fill-opacity="0.0" clip-path="url(#id_0)" d="M155.00037 153.64674C155.00037 155.30359 153.65723 156.64674 152.00037 156.64674C150.3435 156.64674 149.00037 155.30359 149.00037 153.64674C149.00037 151.98988 150.3435 150.64674 152.00037 150.64674C153.65723 150.64674 155.00037 151.98988 155.00037 153.64674Z" fill-rule="nonzero"/><path fill="#000000" fill-opacity="0.0" clip-path="url(#id_0)" d="M159.54964 154.91714C159.54964 156.57399 158.20648 157.91714 156.54964 157.91714C154.89278 157.91714 153.54964 156.57399 153.54964 154.91714C153.54964 153.26028 154.89278 151.91714 156.54964 151.91714C158.20648 151.91714 159.54964 153.26028 159.54964 154.91714Z" fill-rule="nonzero"/><path fill="#000000" fill-opacity="0.0" clip-path="url(#id_0)" d="M164.25055 156.1878C164.25055 157.84465 162.9074 159.1878 161.25055 159.1878C159.59369 159.1878 158.25055 157.84465 158.25055 156.1878C158.25055 154.53094 159.59369 153.1878 161.25055 153.1878C162.9074 153.1878 164.25055 154.53094 164.25055 156.1878Z" fill-rule="nonzero"/><path fill="#000000" fill-opacity="0.0" clip-path="url(#id_0)" d="M168.95146 157.45886C168.95146 159.1157 167.6083 160.45886 165.95146 160.45886C164.2946 160.45886 162.95146 159.1157 162.95146 157.45886C162.95146 155.802 164.2946 154.45886 165.95146 154.45886C167.6083 154.45886 168.95146 155.802 168.95146 157.45886Z" fill-rule="nonzero"/><path fill="#000000" fill-opacity="0.0" clip-path="url(#id_0)" d="M173.19745 158.73036C173.19745 160.38722 171.8543 161.73036 170.19745 161.73036C168.54059 161.73036 167.19745 160.38722 167.19745 158.73036C167.19745 157.07352 168.54059 155.73036 170.19745 155.73036C171.8543 155.73036 173.19745 157.07352 173.19745 158.73036Z" fill-rule="nonzero"/><path fill="#000000" fill-opacity="0.0" clip-path="url(#id_0)" d="M177.89836 160.00233C177.89836 161.6592 176.5552 163.00233 174.89836 163.00233C173.2415 163.00233 171.89836 161.6592 171.89836 160.00233C171.89836 158.34549 173.2415 157.00233 174.89836 157.00233C176.5552 157.00233 177.89836 158.34549 177.89836 160.00233Z" fill-rule="nonzero"/><path fill="#000000" fill-opacity="0.0" clip-path="url(#id_0)" d="M182.44763 161.27477C182.44763 162.93163 181.10448 164.27477 179.44763 164.27477C177.79077 164.27477 176.44763 162.93163 176.44763 161.27477C176.44763 159.61792 177.79077 158.27477 179.44763 158.27477C181.10448 158.27477 182.44763 159.61792 182.44763 161.27477Z" fill-rule="nonzero"/><path fill="#000000" fill-opacity="0.0" clip-path="url(#id_0)" d="M187.14854 162.54765C187.14854 164.20451 185.80539 165.54765 184.14854 165.54765C182.49168 165.54765 181.14854 164.20451 181.14854 162.54765C181.14854 160.89081 182.49168 159.54765 184.14854 159.54765C185.80539 159.54765 187.14854 160.89081 187.14854 162.54765Z" fill-rule="nonzero"/><path fill="#000000" fill-opacity="0.0" clip-path="url(#id_0)" d="M191.69781 163.82098C191.69781 165.47784 190.35466 166.82098 188.69781 166.82098C187.04095 166.82098 185.69781 165.47784 185.69781 163.82098C185.69781 162.16414 187.04095 160.82098 188.69781 160.82098C190.35466 160.82098 191.69781 162.16414 191.69781 163.82098Z" fill-rule="nonzero"/><path fill="#000000" fill-opacity="0.0" clip-path="url(#id_0)" d="M196.39873 165.09474C196.39873 166.7516 195.05557 168.09474 193.39873 168.09474C191.74187 168.09474 190.39873 166.7516 190.39873 165.09474C190.39873 163.43788 191.74187 162.09474 193.39873 162.09474C195.05557 162.09474 196.39873 163.43788 196.39873 165.09474Z" fill-rule="nonzero"/><path fill="#000000" fill-opacity="0.0" clip-path="url(#id_0)" d="M201.09964 166.36891C201.09964 168.02576 199.75648 169.36891 198.09964 169.36891C196.44278 169.36891 195.09964 168.02576 195.09964 166.36891C195.09964 164.71205 196.44278 163.36891 198.09964 163.36891C199.75648 163.36891 201.09964 164.71205 201.09964 166.36891Z" fill-rule="nonzero"/><path fill="#000000" fill-opacity="0.0" clip-path="url(#id_0)" d="M205.64891 167.64348C205.64891 169.30032 204.30576 170.64348 202.64891 170.64348C200.99205 170.64348 199.64891 169.30032 199.64891 167.64348C199.64891 165.98662 200.99205 164.64348 202.64891 164.64348C204.30576 164.64348 205.64891 165.98662 205.64891 167.64348Z" fill-rule="nonzero"/><path fill="#000000" fill-opacity="0.0" clip-path="url(#id_0)" d="M210.34982 168.91843C210.34982 170.57529 209.00667 171.91843 207.34982 171.91843C205.69296 171.91843 204.34982 170.57529 204.34982 168.91843C204.34982 167.26158 205.69296 165.91843 207.34982 165.91843C209.00667 165.91843 210.34982 167.26158 210.34982 168.91843Z" fill-rule="nonzero"/><path fill="#000000" fill-opacity="0.0" clip-path="url(#id_0)" d="M214.8991 170.19376C214.8991 171.85062 213.55594 173.19376 211.8991 173.19376C210.24223 173.19376 208.8991 171.85062 208.8991 170.19376C208.8991 168.53691 210.24223 167.19376 211.8991 167.19376C213.55594 167.19376 214.8991 168.53691 214.8991 170.19376Z" fill-rule="nonzero"/><path fill="#000000" fill-opacity="0.0" clip-path="url(#id_0)" d="M219.6 171.46947C219.6 173.12631 218.25685 174.46947 216.6 174.46947C214.94315 174.46947 213.6 173.12631 213.6 171.46947C213.6 169.8126 214.94315 168.46947 216.6 168.46947C218.25685 168.46947 219.6 169.8126 219.6 171.46947Z" fill-rule="nonzero"/><path fill="#000000" fill-opacity="0.0" clip-path="url(#id_0)" d="M53.4 130.94571C53.4 132.60255 52.056854 133.94571 50.4 133.94571C48.743145 133.94571 47.4 132.60255 47.4 130.94571C47.4 129.28885 48.743145 127.94571 50.4 127.94571C52.056854 127.94571 53.4 129.28885 53.4 130.94571Z" fill-rule="nonzero"/><path fill="#000000" fill-opacity="0.0" clip-path="url(#id_0)" d="M58.100914 130.9016C58.100914 132.55846 56.757767 133.9016 55.100914 133.9016C53.444057 133.9016 52.100914 132.55846 52.100914 130.9016C52.100914 129.24475 53.444057 127.9016 55.100914 127.9016C56.757767 127.9016 58.100914 129.24475 58.100914 130.9016Z" fill-rule="nonzero"/><path fill="#000000" fill-opacity="0.0" clip-path="url(#id_0)" d="M62.346897 130.8589C62.346897 132.51575 61.003754 133.8589 59.346897 133.8589C57.690044 133.8589 56.346897 132.51575 56.346897 130.8589C56.346897 129.20204 57.690044 127.858894 59.346897 127.858894C61.003754 127.858894 62.346897 129.20204 62.346897 130.8589Z" fill-rule="nonzero"/><path fill="#000000" fill-opacity="0.0" clip-path="url(#id_0)" d="M67.04781 130.81754C67.04781 132.4744 65.704666 133.81754 64.04781 133.81754C62.390957 133.81754 61.04781 132.4744 61.04781 130.81754C61.04781 129.16069 62.390957 127.81754 64.04781 127.81754C65.704666 127.81754 67.04781 129.16069 67.04781 130.81754Z" fill-rule="nonzero"/><path fill="#000000" fill-opacity="0.0" clip-path="url(#id_0)" d="M71.597084 130.7775C71.597084 132.43436 70.25394 133.7775 68.597084 133.7775C66.94022 133.7775 65.597084 132.43436 65.597084 130.7775C65.597084 129.12065 66.94022 127.7775 68.597084 127.7775C70.25394 127.7775 71.597084 129.12065 71.597084 130.7775Z" fill-rule="nonzero"/><path fill="#000000" fill-opacity="0.0" clip-path="url(#id_0)" d="M76.29799 130.73872C76.29799 132.39557 74.95485 133.73872 73.29799 133.73872C71.641136 133.73872 70.29799 132.39557 70.29799 130.73872C70.29799 129.08186 71.641136 127.738716 73.29799 127.738716C74.95485 127.738716 76.29799 129.08186 76.29799 130.73872Z" fill-rule="nonzero"/><path fill="#000000" fill-opacity="0.0" clip-path="url(#id_0)" d="M80.84726 130.70116C80.84726 132.35802 79.50412 133.70116 77.84726 133.70116C76.19041 133.70116 74.84726 132.35802 74.84726 130.70116C74.84726 129.04431 76.19041 127.70116 77.84726 127.70116C79.50412 127.70116 80.84726 129.04431 80.84726 130.70116Z" fill-rule="nonzero"/><path fill="#000000" fill-opacity="0.0" clip-path="url(#id_0)" d="M85.54817 130.6648C85.54817 132.32164 84.20503 133.6648 82.54817 133.6648C80.89132 133.6648 79.54817 132.32164 79.54817 130.6648C79.54817 129.00793 80.89132 127.66479 82.54817 127.66479C84.20503 127.66479 85.54817 129.00793 85.54817 130.6648Z" fill-rule="nonzero"/><path fill="#000000" fill-opacity="0.0" clip-path="url(#id_0)" d="M90.249084 130.62956C90.249084 132.28642 88.905945 133.62956 87.249084 133.62956C85.59223 133.62956 84.249084 132.28642 84.249084 130.62956C84.249084 128.97272 85.59223 127.62957 87.249084 127.62957C88.905945 127.62957 90.249084 128.97272 90.249084 130.62956Z" fill-rule="nonzero"/><path fill="#000000" fill-opacity="0.0" clip-path="url(#id_0)" d="M94.798355 130.59546C94.798355 132.25232 93.455215 133.59546 91.798355 133.59546C90.1415 133.59546 88.798355 132.25232 88.798355 130.59546C88.798355 128.93861 90.1415 127.59547 91.798355 127.59547C93.455215 127.59547 94.798355 128.93861 94.798355 130.59546Z" fill-rule="nonzero"/><path fill="#000000" fill-opacity="0.0" clip-path="url(#id_0)" d="M99.49927 130.56242C99.49927 132.21928 98.15613 133.56242 96.49927 133.56242C94.842415 133.56242 93.49927 132.21928 93.49927 130.56242C93.49927 128.90558 94.842415 127.56243 96.49927 127.56243C98.15613 127.56243 99.49927 128.90558 99.49927 130.56242Z" fill-rule="nonzero"/><path fill="#000000" fill-opacity="0.0" clip-path="url(#id_0)" d="M104.04854 130.53046C104.04854 132.1873 102.70539 133.53046 101.04854 133.53046C99.391685 133.53046 98.04854 132.1873 98.04854 130.53046C98.04854 128.8736 99.391685 127.53045 101.04854 127.53045C102.70539 127.53045 104.04854 128.8736 104.04854 130.53046Z" fill-rule="nonzero"/><path fill="#000000" fill-opacity="0.0" clip-path="url(#id_0)" d="M108.74945 116.283714C108.74945 117.94057 107.4063 119.283714 105.74945 119.283714C104.0926 119.283714 102.74945 117.94057 102.74945 116.283714C102.74945 114.626854 104.0926 113.283714 105.74945 113.283714C107.4063 113.283714 108.74945 114.626854 108.74945 116.283714Z" fill-rule="nonzero"/><path fill="#000000" fill-opacity="0.0" clip-path="url(#id_0)" d="M113.45036 109.837845C113.45036 111.4947 112.107216 112.837845 110.45036 112.837845C108.79351 112.837845 107.45036 111.4947 107.45036 109.837845C107.45036 108.18099 108.79351 106.837845 110.45036 106.837845C112.107216 106.837845 113.45036 108.18099 113.45036 109.837845Z" fill-rule="nonzero"/><path fill="#000000" fill-opacity="0.0" clip-path="url(#id_0)" d="M117.84799 105.57896C117.84799 107.23581 116.504845 108.57896 114.84799 108.57896C113.19114 108.57896 111.84799 107.23581 111.84799 105.57896C111.84799 103.922104 113.19114 102.57896 114.84799 102.57896C116.504845 102.57896 117.84799 103.922104 117.84799 105.57896Z" fill-rule="nonzero"/><path fill="#000000" fill-opacity="0.0" clip-path="url(#id_0)" d="M122.548904 102.24762C122.548904 103.90447 121.20576 105.24762 119.548904 105.24762C117.89205 105.24762 116.548904 103.90447 116.548904 102.24762C116.548904 100.59077 117.89205 99.24762 119.548904 99.24762C121.20576 99.24762 122.548904 100.59077 122.548904 102.24762Z" fill-rule="nonzero"/><path fill="#000000" fill-opacity="0.0" clip-path="url(#id_0)" d="M127.098175 99.320366C127.098175 100.97722 125.75503 102.320366 124.098175 102.320366C122.44132 102.320366 121.098175 100.97722 121.098175 99.320366C121.098175 97.66351 122.44132 96.320366 124.098175 96.320366C125.75503 96.320366 127.098175 97.66351 127.098175 99.320366Z" fill-rule="nonzero"/><path fill="#000000" fill-opacity="0.0" clip-path="url(#id_0)" d="M131.79909 96.57067C131.79909 98.22752 130.45595 99.57067 128.79909 99.57067C127.142235 99.57067 125.79909 98.22752 125.79909 96.57067C125.79909 94.91382 127.142235 93.57067 128.79909 93.57067C130.45595 93.57067 131.79909 94.91382 131.79909 96.57067Z" fill-rule="nonzero"/><path fill="#000000" fill-opacity="0.0" clip-path="url(#id_0)" d="M136.34836 93.89954C136.34836 95.5564 135.00522 96.89954 133.34836 96.89954C131.6915 96.89954 130.34836 95.5564 130.34836 93.89954C130.34836 92.24269 131.6915 90.89954 133.34836 90.89954C135.00522 90.89954 136.34836 92.24269 136.34836 93.89954Z" fill-rule="nonzero"/><path fill="#000000" fill-opacity="0.0" clip-path="url(#id_0)" d="M141.04927 91.263535C141.04927 92.92039 139.70613 94.263535 138.04927 94.263535C136.39241 94.263535 135.04927 92.92039 135.04927 91.263535C135.04927 89.60668 136.39241 88.263535 138.04927 88.263535C139.70613 88.263535 141.04927 89.60668 141.04927 91.263535Z" fill-rule="nonzero"/><path fill="#000000" fill-opacity="0.0" clip-path="url(#id_0)" d="M145.75018 88.64358C145.75018 90.30044 144.40704 91.64358 142.75018 91.64358C141.09332 91.64358 139.75018 90.30044 139.75018 88.64358C139.75018 86.986725 141.09332 85.64358 142.75018 85.64358C144.40704 85.64358 145.75018 86.986725 145.75018 88.64358Z" fill-rule="nonzero"/><path fill="#000000" fill-opacity="0.0" clip-path="url(#id_0)" d="M150.29945 86.03128C150.29945 87.68813 148.95631 89.03128 147.29945 89.03128C145.6426 89.03128 144.29945 87.68813 144.29945 86.03128C144.29945 84.37443 145.6426 83.03128 147.29945 83.03128C148.95631 83.03128 150.29945 84.37443 150.29945 86.03128Z" fill-rule="nonzero"/><path fill="#000000" fill-opacity="0.0" clip-path="url(#id_0)" d="M155.00037 83.42292C155.00037 85.07977 153.65723 86.42292 152.00037 86.42292C150.3435 86.42292 149.00037 85.07977 149.00037 83.42292C149.00037 81.76607 150.3435 80.42292 152.00037 80.42292C153.65723 80.42292 155.00037 81.76607 155.00037 83.42292Z" fill-rule="nonzero"/><path fill="#000000" fill-opacity="0.0" clip-path="url(#id_0)" d="M159.54964 80.81686C159.54964 82.47371 158.20648 83.81686 156.54964 83.81686C154.89278 83.81686 153.54964 82.47371 153.54964 80.81686C153.54964 79.16 154.89278 77.81686 156.54964 77.81686C158.20648 77.81686 159.54964 79.16 159.54964 80.81686Z" fill-rule="nonzero"/><path fill="#000000" fill-opacity="0.0" clip-path="url(#id_0)" d="M164.25055 78.21234C164.25055 79.869194 162.9074 81.21234 161.25055 81.21234C159.59369 81.21234 158.25055 79.869194 158.25055 78.21234C158.25055 76.55549 159.59369 75.21234 161.25055 75.21234C162.9074 75.21234 164.25055 76.55549 164.25055 78.21234Z" fill-rule="nonzero"/><path fill="#000000" fill-opacity="0.0" clip-path="url(#id_0)" d="M168.95146 75.60903C168.95146 77.26589 167.6083 78.60903 165.95146 78.60903C164.2946 78.60903 162.95146 77.26589 162.95146 75.60903C162.95146 73.95218 164.2946 72.60903 165.95146 72.60903C167.6083 72.60903 168.95146 73.95218 168.95146 75.60903Z" fill-rule="nonzero"/><path fill="#000000" fill-opacity="0.0" clip-path="url(#id_0)" d="M173.19745 73.00676C173.19745 74.66361 171.8543 76.00676 170.19745 76.00676C168.54059 76.00676 167.19745 74.66361 167.19745 73.00676C167.19745 71.34991 168.54059 70.00676 170.19745 70.00676C171.8543 70.00676 173.19745 71.34991 173.19745 73.00676Z" fill-rule="nonzero"/><path fill="#000000" fill-opacity="0.0" clip-path="url(#id_0)" d="M177.89836 70.40542C177.89836 72.06227 176.5552 73.40542 174.89836 73.40542C173.2415 73.40542 171.89836 72.06227 171.89836 70.40542C171.89836 68.748566 173.2415 67.40542 174.89836 67.40542C176.5552 67.40542 177.89836 68.748566 177.89836 70.40542Z" fill-rule="nonzero"/><path fill="#000000" fill-opacity="0.0" clip-path="url(#id_0)" d="M182.44763 67.80497C182.44763 69.46182 181.10448 70.80497 179.44763 70.80497C177.79077 70.80497 176.44763 69.46182 176.44763 67.80497C176.44763 66.14812 177.79077 64.80497 179.44763 64.80497C181.10448 64.80497 182.44763 66.14812 182.44763 67.80497Z" fill-rule="nonzero"/><path fill="#000000" fill-opacity="0.0" clip-path="url(#id_0)" d="M187.14854 65.20538C187.14854 66.862236 185.80539 68.20538 184.14854 68.20538C182.49168 68.20538 181.14854 66.862236 181.14854 65.20538C181.14854 63.54853 182.49168 62.205383 184.14854 62.205383C185.80539 62.205383 187.14854 63.54853 187.14854 65.20538Z" fill-rule="nonzero"/><path fill="#000000" fill-opacity="0.0" clip-path="url(#id_0)" d="M191.69781 62.606613C191.69781 64.263466 190.35466 65.60661 188.69781 65.60661C187.04095 65.60661 185.69781 64.263466 185.69781 62.606613C185.69781 60.949757 187.04095 59.606613 188.69781 59.606613C190.35466 59.606613 191.69781 60.949757 191.69781 62.606613Z" fill-rule="nonzero"/><path fill="#000000" fill-opacity="0.0" clip-path="url(#id_0)" d="M196.39873 60.008636C196.39873 61.665493 195.05557 63.008636 193.39873 63.008636C191.74187 63.008636 190.39873 61.665493 190.39873 60.008636C190.39873 58.351784 191.74187 57.008636 193.39873 57.008636C195.05557 57.008636 196.39873 58.351784 196.39873 60.008636Z" fill-rule="nonzero"/><path fill="#000000" fill-opacity="0.0" clip-path="url(#id_0)" d="M201.09964 57.41143C201.09964 59.068287 199.75648 60.41143 198.09964 60.41143C196.44278 60.41143 195.09964 59.068287 195.09964 57.41143C195.09964 55.754578 196.44278 54.41143 198.09964 54.41143C199.75648 54.41143 201.09964 55.754578 201.09964 57.41143Z" fill-rule="nonzero"/><path fill="#000000" fill-opacity="0.0" clip-path="url(#id_0)" d="M205.64891 54.814972C205.64891 56.471825 204.30576 57.814972 202.64891 57.814972C200.99205 57.814972 199.64891 56.471825 199.64891 54.814972C199.64891 53.15812 200.99205 51.814972 202.64891 51.814972C204.30576 51.814972 205.64891 53.15812 205.64891 54.814972Z" fill-rule="nonzero"/><path fill="#000000" fill-opacity="0.0" clip-path="url(#id_0)" d="M210.34982 52.219227C210.34982 53.87608 209.00667 55.219227 207.34982 55.219227C205.69296 55.219227 204.34982 53.87608 204.34982 52.219227C204.34982 50.562374 205.69296 49.219227 207.34982 49.219227C209.00667 49.219227 210.34982 50.562374 210.34982 52.219227Z" fill-rule="nonzero"/><path fill="#000000" fill-opacity="0.0" clip-path="url(#id_0)" d="M214.8991 49.624172C214.8991 51.281025 213.55594 52.624172 211.8991 52.624172C210.24223 52.624172 208.8991 51.281025 208.8991 49.624172C208.8991 47.96732 210.24223 46.624172 211.8991 46.624172C213.55594 46.624172 214.8991 47.96732 214.8991 49.624172Z" fill-rule="nonzero"/><path fill="#000000" fill-opacity="0.0" clip-path="url(#id_0)" d="M219.6 47.0298C219.6 48.686653 218.25685 50.0298 216.6 50.0298C214.94315 50.0298 213.6 48.686653 213.6 47.0298C213.6 45.372944 214.94315 44.0298 216.6 44.0298C218.25685 44.0298 219.6 45.372944 219.6 47.0298Z" fill-rule="nonzero"/><path fill="#000000" d="M115.890625 355.6L115.890625 342.70938L120.328125 342.70938Q121.828125 342.70938 122.625 342.89688Q123.734375 343.14688 124.515625 343.81876Q125.53125 344.67813 126.03125 346.02188Q126.546875 347.36563 126.546875 349.08438Q126.546875 350.55313 126.203125 351.69376Q125.859375 352.81876 125.3125 353.56876Q124.78125 354.30313 124.140625 354.74063Q123.515625 355.1625 122.609375 355.38126Q121.703125 355.6 120.53125 355.6L115.890625 355.6ZM117.59375 354.08438L120.34375 354.08438Q121.625 354.08438 122.34375 353.85Q123.0625 353.6 123.5 353.17813Q124.109375 352.56876 124.4375 351.55313Q124.78125 350.52188 124.78125 349.05313Q124.78125 347.0375 124.109375 345.95938Q123.453125 344.86563 122.5 344.50626Q121.828125 344.24063 120.296875 344.24063L117.59375 344.24063L117.59375 354.08438ZM134.78125 354.44376Q133.90625 355.19376 133.07812 355.50626Q132.26562 355.81876 131.34375 355.81876Q129.79688 355.81876 128.96875 355.06876Q128.15625 354.30313 128.15625 353.13126Q128.15625 352.45938 128.46875 351.89688Q128.78125 351.31876 129.28125 350.975Q129.78125 350.63126 130.42188 350.45938Q130.89062 350.33438 131.82812 350.225Q133.73438 349.99063 134.64062 349.67813Q134.65625 349.35 134.65625 349.25626Q134.65625 348.30313 134.20312 347.89688Q133.59375 347.36563 132.40625 347.36563Q131.28125 347.36563 130.75 347.75626Q130.21875 348.14688 129.96875 349.14688L128.42188 348.92813Q128.64062 347.92813 129.10938 347.31876Q129.59375 346.70938 130.5 346.38126Q131.42188 346.05313 132.64062 346.05313Q133.82812 346.05313 134.57812 346.33438Q135.32812 346.61563 135.67188 347.05313Q136.03125 347.475 136.17188 348.11563Q136.25 348.52188 136.25 349.58438L136.25 351.69376Q136.25 353.89688 136.34375 354.49063Q136.45312 355.06876 136.75 355.6L135.09375 355.6Q134.84375 355.1 134.78125 354.44376ZM134.64062 350.9125Q133.78125 351.27188 132.0625 351.50626Q131.09375 351.64688 130.6875 351.83438Q130.28125 352.00626 130.0625 352.35Q129.84375 352.67813 129.84375 353.1Q129.84375 353.725 130.3125 354.14688Q130.79688 354.56876 131.71875 354.56876Q132.64062 354.56876 133.34375 354.17813Q134.0625 353.77188 134.39062 353.08438Q134.64062 352.5375 134.64062 351.49063L134.64062 350.9125ZM142.14062 354.17813L142.375 355.58438Q141.70312 355.725 141.17188 355.725Q140.3125 355.725 139.82812 355.45938Q139.35938 355.17813 139.17188 354.74063Q138.98438 354.2875 138.98438 352.86563L138.98438 347.49063L137.8125 347.49063L137.8125 346.27188L138.98438 346.27188L138.98438 343.95938L140.54688 343.00626L140.54688 346.27188L142.14062 346.27188L142.14062 347.49063L140.54688 347.49063L140.54688 352.95938Q140.54688 353.63126 140.625 353.83438Q140.71875 354.02188 140.90625 354.13126Q141.09375 354.24063 141.45312 354.24063Q141.70312 354.24063 142.14062 354.17813ZM150.07812 352.6L151.71875 352.80313Q151.32812 354.225 150.28125 355.02188Q149.23438 355.81876 147.60938 355.81876Q145.5625 355.81876 144.35938 354.55313Q143.15625 353.2875 143.15625 351.00626Q143.15625 348.6625 144.35938 347.36563Q145.57812 346.05313 147.51562 346.05313Q149.39062 346.05313 150.57812 347.33438Q151.76562 348.6 151.76562 350.9125Q151.76562 351.05313 151.75 351.33438L144.79688 351.33438Q144.875 352.88126 145.65625 353.69376Q146.45312 354.50626 147.60938 354.50626Q148.48438 354.50626 149.09375 354.05313Q149.71875 353.6 150.07812 352.6ZM144.875 350.0375L150.09375 350.0375Q149.98438 348.86563 149.5 348.27188Q148.73438 347.35 147.53125 347.35Q146.45312 347.35 145.70312 348.08438Q144.96875 348.81876 144.875 350.0375Z" fill-rule="nonzero"/><path fill="#000000" d="M21.071875 265.71652Q21.071875 263.68527 21.478125 262.4509Q21.9 261.21652 22.728125 260.54465Q23.55625 259.87277 24.80625 259.87277Q25.728125 259.87277 26.415625 260.24777Q27.11875 260.60715 27.571875 261.31027Q28.025 262.0134 28.275 263.0134Q28.540625 264.0134 28.540625 265.71652Q28.540625 267.73215 28.11875 268.98215Q27.7125 270.21652 26.884375 270.90402Q26.05625 271.5759 24.80625 271.5759Q23.15 271.5759 22.196875 270.37277Q21.071875 268.9509 21.071875 265.71652ZM22.509375 265.71652Q22.509375 268.54465 23.165625 269.48215Q23.8375 270.40402 24.80625 270.40402Q25.775 270.40402 26.43125 269.46652Q27.0875 268.52902 27.0875 265.71652Q27.0875 262.8884 26.43125 261.96652Q25.775 261.02902 24.790625 261.02902Q23.821875 261.02902 23.24375 261.85715Q22.509375 262.90402 22.509375 265.71652ZM30.821875 271.37277L30.821875 269.7634L32.43125 269.7634L32.43125 271.37277Q32.43125 272.2634 32.11875 272.79465Q31.80625 273.34152 31.11875 273.6384L30.728125 273.04465Q31.18125 272.84152 31.384375 272.46652Q31.603125 272.09152 31.61875 271.37277L30.821875 271.37277ZM34.071877 265.71652Q34.071877 263.68527 34.478127 262.4509Q34.9 261.21652 35.728127 260.54465Q36.55625 259.87277 37.80625 259.87277Q38.728127 259.87277 39.415627 260.24777Q40.11875 260.60715 40.571877 261.31027Q41.025 262.0134 41.275 263.0134Q41.540627 264.0134 41.540627 265.71652Q41.540627 267.73215 41.11875 268.98215Q40.7125 270.21652 39.884377 270.90402Q39.05625 271.5759 37.80625 271.5759Q36.15 271.5759 35.196877 270.37277Q34.071877 268.9509 34.071877 265.71652ZM35.509377 265.71652Q35.509377 268.54465 36.165627 269.48215Q36.8375 270.40402 37.80625 270.40402Q38.775 270.40402 39.43125 269.46652Q40.0875 268.52902 40.0875 265.71652Q40.0875 262.8884 39.43125 261.96652Q38.775 261.02902 37.790627 261.02902Q36.821877 261.02902 36.24375 261.85715Q35.509377 262.90402 35.509377 265.71652Z" fill-rule="nonzero"/><path fill="#000000" d="M21.071875 219.3782L22.540625 219.2532Q22.7125 220.33133 23.30625 220.8782Q23.9 221.40945 24.74375 221.40945Q25.759375 221.40945 26.4625 220.64383Q27.165625 219.8782 27.165625 218.61258Q27.165625 217.40945 26.49375 216.72195Q25.821875 216.01883 24.728125 216.01883Q24.040625 216.01883 23.49375 216.33133Q22.946875 216.64383 22.634375 217.1282L21.321875 216.95633L22.43125 211.08133L28.11875 211.08133L28.11875 212.42508L23.55625 212.42508L22.93125 215.5032Q23.9625 214.78445 25.103125 214.78445Q26.603125 214.78445 27.634375 215.83133Q28.665625 216.86258 28.665625 218.48758Q28.665625 220.05008 27.759375 221.17508Q26.65 222.58133 24.74375 222.58133Q23.18125 222.58133 22.196875 221.70633Q21.2125 220.8157 21.071875 219.3782ZM30.821875 222.3782L30.821875 220.76883L32.43125 220.76883L32.43125 222.3782Q32.43125 223.26883 32.11875 223.80008Q31.80625 224.34695 31.11875 224.64383L30.728125 224.05008Q31.18125 223.84695 31.384375 223.47195Q31.603125 223.09695 31.61875 222.3782L30.821875 222.3782ZM34.071877 216.72195Q34.071877 214.6907 34.478127 213.45633Q34.9 212.22195 35.728127 211.55008Q36.55625 210.8782 37.80625 210.8782Q38.728127 210.8782 39.415627 211.2532Q40.11875 211.61258 40.571877 212.3157Q41.025 213.01883 41.275 214.01883Q41.540627 215.01883 41.540627 216.72195Q41.540627 218.73758 41.11875 219.98758Q40.7125 221.22195 39.884377 221.90945Q39.05625 222.58133 37.80625 222.58133Q36.15 222.58133 35.196877 221.3782Q34.071877 219.95633 34.071877 216.72195ZM35.509377 216.72195Q35.509377 219.55008 36.165627 220.48758Q36.8375 221.40945 37.80625 221.40945Q38.775 221.40945 39.43125 220.47195Q40.0875 219.53445 40.0875 216.72195Q40.0875 213.89383 39.43125 212.97195Q38.775 212.03445 37.790627 212.03445Q36.821877 212.03445 36.24375 212.86258Q35.509377 213.90945 35.509377 216.72195Z" fill-rule="nonzero"/><path fill="#000000" d="M17.36875 173.38365L15.9625 173.38365L15.9625 164.4149Q15.446875 164.89928 14.61875 165.38365Q13.80625 165.86803 13.15 166.11803L13.15 164.75865Q14.321875 164.19615 15.196875 163.4149Q16.0875 162.61803 16.4625 161.88365L17.36875 161.88365L17.36875 173.38365ZM21.071875 167.7274Q21.071875 165.69615 21.478125 164.46178Q21.9 163.2274 22.728125 162.55553Q23.55625 161.88365 24.80625 161.88365Q25.728125 161.88365 26.415625 162.25865Q27.11875 162.61803 27.571875 163.32115Q28.025 164.02428 28.275 165.02428Q28.540625 166.02428 28.540625 167.7274Q28.540625 169.74303 28.11875 170.99303Q27.7125 172.2274 26.884375 172.9149Q26.05625 173.58678 24.80625 173.58678Q23.15 173.58678 22.196875 172.38365Q21.071875 170.96178 21.071875 167.7274ZM22.509375 167.7274Q22.509375 170.55553 23.165625 171.49303Q23.8375 172.4149 24.80625 172.4149Q25.775 172.4149 26.43125 171.4774Q27.0875 170.5399 27.0875 167.7274Q27.0875 164.89928 26.43125 163.9774Q25.775 163.0399 24.790625 163.0399Q23.821875 163.0399 23.24375 163.86803Q22.509375 164.9149 22.509375 167.7274ZM30.821875 173.38365L30.821875 171.77428L32.43125 171.77428L32.43125 173.38365Q32.43125 174.27428 32.11875 174.80553Q31.80625 175.3524 31.11875 175.64928L30.728125 175.05553Q31.18125 174.8524 31.384375 174.4774Q31.603125 174.1024 31.61875 173.38365L30.821875 173.38365ZM34.071877 167.7274Q34.071877 165.69615 34.478127 164.46178Q34.9 163.2274 35.728127 162.55553Q36.55625 161.88365 37.80625 161.88365Q38.728127 161.88365 39.415627 162.25865Q40.11875 162.61803 40.571877 163.32115Q41.025 164.02428 41.275 165.02428Q41.540627 166.02428 41.540627 167.7274Q41.540627 169.74303 41.11875 170.99303Q40.7125 172.2274 39.884377 172.9149Q39.05625 173.58678 37.80625 173.58678Q36.15 173.58678 35.196877 172.38365Q34.071877 170.96178 34.071877 167.7274ZM35.509377 167.7274Q35.509377 170.55553 36.165627 171.49303Q36.8375 172.4149 37.80625 172.4149Q38.775 172.4149 39.43125 171.4774Q40.0875 170.5399 40.0875 167.7274Q40.0875 164.89928 39.43125 163.9774Q38.775 163.0399 37.790627 163.0399Q36.821877 163.0399 36.24375 163.86803Q35.509377 164.9149 35.509377 167.7274Z" fill-rule="nonzero"/><path fill="#000000" d="M17.36875 124.38911L15.9625 124.38911L15.9625 115.42036Q15.446875 115.90473 14.61875 116.38911Q13.80625 116.87348 13.15 117.12348L13.15 115.76411Q14.321875 115.20161 15.196875 114.42036Q16.0875 113.62348 16.4625 112.88911L17.36875 112.88911L17.36875 124.38911ZM21.071875 121.38911L22.540625 121.26411Q22.7125 122.34223 23.30625 122.88911Q23.9 123.42036 24.74375 123.42036Q25.759375 123.42036 26.4625 122.65473Q27.165625 121.88911 27.165625 120.62348Q27.165625 119.42036 26.49375 118.73286Q25.821875 118.02973 24.728125 118.02973Q24.040625 118.02973 23.49375 118.34223Q22.946875 118.65473 22.634375 119.13911L21.321875 118.96723L22.43125 113.09223L28.11875 113.09223L28.11875 114.43598L23.55625 114.43598L22.93125 117.51411Q23.9625 116.79536 25.103125 116.79536Q26.603125 116.79536 27.634375 117.84223Q28.665625 118.87348 28.665625 120.49848Q28.665625 122.06098 27.759375 123.18598Q26.65 124.59223 24.74375 124.59223Q23.18125 124.59223 22.196875 123.71723Q21.2125 122.82661 21.071875 121.38911ZM30.821875 124.38911L30.821875 122.77973L32.43125 122.77973L32.43125 124.38911Q32.43125 125.27973 32.11875 125.81098Q31.80625 126.35786 31.11875 126.65473L30.728125 126.06098Q31.18125 125.85786 31.384375 125.48286Q31.603125 125.10786 31.61875 124.38911L30.821875 124.38911ZM34.071877 118.73286Q34.071877 116.70161 34.478127 115.46723Q34.9 114.23286 35.728127 113.56098Q36.55625 112.88911 37.80625 112.88911Q38.728127 112.88911 39.415627 113.26411Q40.11875 113.62348 40.571877 114.32661Q41.025 115.02973 41.275 116.02973Q41.540627 117.02973 41.540627 118.73286Q41.540627 120.74848 41.11875 121.99848Q40.7125 123.23286 39.884377 123.92036Q39.05625 124.59223 37.80625 124.59223Q36.15 124.59223 35.196877 123.38911Q34.071877 121.96723 34.071877 118.73286ZM35.509377 118.73286Q35.509377 121.56098 36.165627 122.49848Q36.8375 123.42036 37.80625 123.42036Q38.775 123.42036 39.43125 122.48286Q40.0875 121.54536 40.0875 118.73286Q40.0875 115.90473 39.43125 114.98286Q38.775 114.04536 37.790627 114.04536Q36.821877 114.04536 36.24375 114.87348Q35.509377 115.92036 35.509377 118.73286Z" fill-rule="nonzero"/><path fill="#000000" d="M19.4625 74.03518L19.4625 75.394554L11.884375 75.394554Q11.86875 74.87893 12.05625 74.41018Q12.3375 73.644554 12.978125 72.894554Q13.61875 72.144554 14.821875 71.16018Q16.68125 69.62893 17.3375 68.738304Q17.99375 67.832054 17.99375 67.03518Q17.99375 66.207054 17.4 65.62893Q16.80625 65.050804 15.8375 65.050804Q14.821875 65.050804 14.2125 65.66018Q13.603125 66.269554 13.603125 67.34768L12.15 67.207054Q12.30625 65.582054 13.275 64.738304Q14.24375 63.894554 15.86875 63.894554Q17.525 63.894554 18.478125 64.81643Q19.446875 65.72268 19.446875 67.06643Q19.446875 67.75393 19.165625 68.425804Q18.884375 69.082054 18.228125 69.81643Q17.571875 70.550804 16.05625 71.832054Q14.790625 72.894554 14.43125 73.28518Q14.071875 73.66018 13.8375 74.03518L19.4625 74.03518ZM21.071875 69.738304Q21.071875 67.707054 21.478125 66.47268Q21.9 65.238304 22.728125 64.56643Q23.55625 63.894554 24.80625 63.894554Q25.728125 63.894554 26.415625 64.269554Q27.11875 64.62893 27.571875 65.332054Q28.025 66.03518 28.275 67.03518Q28.540625 68.03518 28.540625 69.738304Q28.540625 71.75393 28.11875 73.00393Q27.7125 74.238304 26.884375 74.925804Q26.05625 75.59768 24.80625 75.59768Q23.15 75.59768 22.196875 74.394554Q21.071875 72.97268 21.071875 69.738304ZM22.509375 69.738304Q22.509375 72.56643 23.165625 73.50393Q23.8375 74.425804 24.80625 74.425804Q25.775 74.425804 26.43125 73.488304Q27.0875 72.550804 27.0875 69.738304Q27.0875 66.91018 26.43125 65.988304Q25.775 65.050804 24.790625 65.050804Q23.821875 65.050804 23.24375 65.87893Q22.509375 66.925804 22.509375 69.738304ZM30.821875 75.394554L30.821875 73.78518L32.43125 73.78518L32.43125 75.394554Q32.43125 76.28518 32.11875 76.81643Q31.80625 77.363304 31.11875 77.66018L30.728125 77.06643Q31.18125 76.863304 31.384375 76.488304Q31.603125 76.113304 31.61875 75.394554L30.821875 75.394554ZM34.071877 69.738304Q34.071877 67.707054 34.478127 66.47268Q34.9 65.238304 35.728127 64.56643Q36.55625 63.894554 37.80625 63.894554Q38.728127 63.894554 39.415627 64.269554Q40.11875 64.62893 40.571877 65.332054Q41.025 66.03518 41.275 67.03518Q41.540627 68.03518 41.540627 69.738304Q41.540627 71.75393 41.11875 73.00393Q40.7125 74.238304 39.884377 74.925804Q39.05625 75.59768 37.80625 75.59768Q36.15 75.59768 35.196877 74.394554Q34.071877 72.97268 34.071877 69.738304ZM35.509377 69.738304Q35.509377 72.56643 36.165627 73.50393Q36.8375 74.425804 37.80625 74.425804Q38.775 74.425804 39.43125 73.488304Q40.0875 72.550804 40.0875 69.738304Q40.0875 66.91018 39.43125 65.988304Q38.775 65.050804 37.790627 65.050804Q36.821877 65.050804 36.24375 65.87893Q35.509377 66.925804 35.509377 69.738304Z" fill-rule="nonzero"/><path fill="#000000" d="M19.4625 25.040625L19.4625 26.4L11.884375 26.4Q11.86875 25.884375 12.05625 25.415625Q12.3375 24.65 12.978125 23.9Q13.61875 23.15 14.821875 22.165625Q16.68125 20.634375 17.3375 19.74375Q17.99375 18.8375 17.99375 18.040625Q17.99375 17.2125 17.4 16.634375Q16.80625 16.05625 15.8375 16.05625Q14.821875 16.05625 14.2125 16.665625Q13.603125 17.275 13.603125 18.353125L12.15 18.2125Q12.30625 16.5875 13.275 15.74375Q14.24375 14.9 15.86875 14.9Q17.525 14.9 18.478125 15.821875Q19.446875 16.728125 19.446875 18.071875Q19.446875 18.759375 19.165625 19.43125Q18.884375 20.0875 18.228125 20.821875Q17.571875 21.55625 16.05625 22.8375Q14.790625 23.9 14.43125 24.290625Q14.071875 24.665625 13.8375 25.040625L19.4625 25.040625ZM21.071875 23.4L22.540625 23.275Q22.7125 24.353125 23.30625 24.9Q23.9 25.43125 24.74375 25.43125Q25.759375 25.43125 26.4625 24.665625Q27.165625 23.9 27.165625 22.634375Q27.165625 21.43125 26.49375 20.74375Q25.821875 20.040625 24.728125 20.040625Q24.040625 20.040625 23.49375 20.353125Q22.946875 20.665625 22.634375 21.15L21.321875 20.978125L22.43125 15.103125L28.11875 15.103125L28.11875 16.446875L23.55625 16.446875L22.93125 19.525Q23.9625 18.80625 25.103125 18.80625Q26.603125 18.80625 27.634375 19.853125Q28.665625 20.884375 28.665625 22.509375Q28.665625 24.071875 27.759375 25.196875Q26.65 26.603125 24.74375 26.603125Q23.18125 26.603125 22.196875 25.728125Q21.2125 24.8375 21.071875 23.4ZM30.821875 26.4L30.821875 24.790625L32.43125 24.790625L32.43125 26.4Q32.43125 27.290625 32.11875 27.821875Q31.80625 28.36875 31.11875 28.665625L30.728125 28.071875Q31.18125 27.86875 31.384375 27.49375Q31.603125 27.11875 31.61875 26.4L30.821875 26.4ZM34.071877 20.74375Q34.071877 18.7125 34.478127 17.478125Q34.9 16.24375 35.728127 15.571875Q36.55625 14.9 37.80625 14.9Q38.728127 14.9 39.415627 15.275Q40.11875 15.634375 40.571877 16.3375Q41.025 17.040625 41.275 18.040625Q41.540627 19.040625 41.540627 20.74375Q41.540627 22.759375 41.11875 24.009375Q40.7125 25.24375 39.884377 25.93125Q39.05625 26.603125 37.80625 26.603125Q36.15 26.603125 35.196877 25.4Q34.071877 23.978125 34.071877 20.74375ZM35.509377 20.74375Q35.509377 23.571875 36.165627 24.509375Q36.8375 25.43125 37.80625 25.43125Q38.775 25.43125 39.43125 24.49375Q40.0875 23.55625 40.0875 20.74375Q40.0875 17.915625 39.43125 16.99375Q38.775 16.05625 37.790627 16.05625Q36.821877 16.05625 36.24375 16.884375Q35.509377 17.93125 35.509377 20.74375Z" fill-rule="nonzero"/><path fill="#000000" d="M8.035483 311.12875Q7.019858 309.36963 6.754493 308.0975Q6.5026603 306.81757 6.8839 305.82166Q7.2651396 304.82574 8.347671 304.20074Q9.146038 303.7398 9.92893 303.7208Q10.717542 303.68048 11.461522 304.06284Q12.2055025 304.4452 12.9220085 305.18622Q13.652047 305.91943 14.50361 307.39438Q15.511422 309.13995 15.771068 310.43344Q16.036432 311.70557 15.663005 312.715Q15.281765 313.71094 14.199233 314.33594Q12.764879 315.16406 11.337887 314.5987Q9.652671 313.9298 8.035483 311.12875ZM9.280395 310.41Q10.694457 312.85922 11.731536 313.34302Q12.774334 313.80545 13.613296 313.32108Q14.452258 312.8367 14.551837 311.69666Q14.651416 310.55664 13.245166 308.12094Q11.831103 305.67172 10.801837 305.20148Q9.764758 304.7177 8.912264 305.2099Q8.073302 305.69427 7.9866943 306.7005Q7.8741446 307.9743 9.280395 310.41ZM23.245064 308.87878L22.027216 309.5819L17.542841 301.81473Q17.338484 302.49203 16.863495 303.32556Q16.402037 304.1513 15.958707 304.69592L15.279019 303.51868Q16.012644 302.4456 16.37979 301.3315Q16.752657 300.1961 16.710228 299.37262L17.495064 298.9195L23.245064 308.87878ZM24.597998 304.1284L23.88706 302.897L27.621796 300.74075L28.332733 301.97214L24.597998 304.1284ZM36.50297 299.65463L37.18266 300.8319L30.619812 304.62097Q30.348467 304.18222 30.276472 303.68253Q30.13723 302.87885 30.317026 301.90903Q30.496824 300.93918 31.046574 299.48514Q31.891214 297.22934 32.014233 296.1299Q32.129436 295.01697 31.730999 294.32684Q31.316936 293.60965 30.51367 293.40585Q29.710405 293.2021 28.871443 293.68646Q27.991886 294.19427 27.768839 295.02667Q27.545794 295.8591 28.084856 296.7928L26.7561 297.39755Q26.078917 295.91214 26.496004 294.69705Q26.91309 293.482 28.320381 292.6695Q29.754736 291.84137 31.041103 292.16315Q32.33319 292.46362 33.005066 293.62735Q33.348816 294.22275 33.441185 294.94522Q33.525738 295.65417 33.324596 296.6183Q33.123455 297.5824 32.45151 299.4498Q31.886698 301.00278 31.770782 301.52075Q31.647055 302.0252 31.63158 302.46713L36.50297 299.65463ZM35.748295 295.12875Q34.73267 293.36963 34.467304 292.0975Q34.215473 290.81757 34.59671 289.82166Q34.97795 288.82574 36.060482 288.20074Q36.858852 287.7398 37.641743 287.7208Q38.430355 287.68048 39.174335 288.06284Q39.918316 288.4452 40.634823 289.18622Q41.36486 289.91943 42.216423 291.39438Q43.224236 293.13995 43.48388 294.43344Q43.749245 295.70557 43.375816 296.715Q42.99458 297.71094 41.912045 298.33594Q40.47769 299.16406 39.050697 298.5987Q37.365482 297.9298 35.748295 295.12875ZM36.993206 294.41Q38.40727 296.85922 39.444347 297.34302Q40.48715 297.80545 41.326107 297.32108Q42.16507 296.8367 42.26465 295.69666Q42.364227 294.55664 40.957977 292.12094Q39.543915 289.67172 38.51465 289.20148Q37.47757 288.7177 36.625076 289.2099Q35.786114 289.69427 35.699505 290.7005Q35.586956 291.9743 36.993206 294.41ZM43.542522 290.62875Q42.526897 288.86963 42.261536 287.5975Q42.0097 286.31757 42.39094 285.32166Q42.77218 284.32574 43.854713 283.70074Q44.65308 283.2398 45.43597 283.2208Q46.224583 283.18048 46.968563 283.56284Q47.712543 283.9452 48.42905 284.68622Q49.15909 285.41943 50.01065 286.89438Q51.018463 288.63995 51.27811 289.93344Q51.543472 291.20557 51.170048 292.215Q50.788807 293.21094 49.706276 293.83594Q48.27192 294.66406 46.84493 294.0987Q45.15971 293.4298 43.542522 290.62875ZM44.787434 289.91Q46.201496 292.35922 47.238575 292.84302Q48.281376 293.30545 49.12034 292.82108Q49.9593 292.3367 50.05888 291.19666Q50.15846 290.05664 48.75221 287.62094Q47.338146 285.17172 46.30888 284.70148Q45.2718 284.2177 44.419304 284.7099Q43.580345 285.19427 43.493736 286.2005Q43.381184 287.4743 44.787434 289.91ZM49.269505 282.3607L48.589817 281.1834L55.003822 277.4803L55.550697 278.42752Q55.18942 279.98926 55.224483 282.20624Q55.26527 284.4019 55.766693 286.4579Q56.120087 287.91373 56.884743 289.4569L55.626297 290.18347Q54.973675 288.99057 54.453564 287.08972Q53.939167 285.1675 53.868256 283.16968Q53.803062 281.1505 54.12737 279.556L49.269505 282.3607Z" fill-rule="nonzero"/><path fill="#000000" d="M63.384933 311.12875Q62.36931 309.36963 62.103947 308.0975Q61.85211 306.81757 62.233353 305.82166Q62.614594 304.82574 63.697124 304.20074Q64.49549 303.7398 65.27838 303.7208Q66.06699 303.68048 66.810974 304.06284Q67.554955 304.4452 68.27146 305.18622Q69.0015 305.91943 69.853065 307.39438Q70.86088 309.13995 71.12052 310.43344Q71.38589 311.70557 71.01246 312.715Q70.63122 313.71094 69.54868 314.33594Q68.114334 315.16406 66.68734 314.5987Q65.00212 313.9298 63.384933 311.12875ZM64.629845 310.41Q66.04391 312.85922 67.080986 313.34302Q68.12379 313.80545 68.962746 313.32108Q69.80171 312.8367 69.90129 311.69666Q70.00087 310.55664 68.59462 308.12094Q67.18056 305.67172 66.15129 305.20148Q65.11421 304.7177 64.26172 305.2099Q63.422756 305.69427 63.336147 306.7005Q63.223595 307.9743 64.629845 310.41ZM78.59452 308.87878L77.37667 309.5819L72.892296 301.81473Q72.687935 302.49203 72.212944 303.32556Q71.75149 304.1513 71.30816 304.69592L70.62847 303.51868Q71.3621 302.4456 71.72924 301.3315Q72.10211 300.1961 72.059685 299.37262L72.84452 298.9195L78.59452 308.87878ZM79.94745 304.1284L79.23651 302.897L82.971245 300.74075L83.68218 301.97214L79.94745 304.1284ZM91.852425 299.65463L92.53211 300.8319L85.96926 304.62097Q85.69792 304.18222 85.62592 303.68253Q85.48668 302.87885 85.66648 301.90903Q85.846275 300.93918 86.39603 299.48514Q87.24067 297.22934 87.363686 296.1299Q87.47889 295.01697 87.08045 294.32684Q86.66639 293.60965 85.86312 293.40585Q85.05986 293.2021 84.220894 293.68646Q83.34134 294.19427 83.11829 295.02667Q82.89525 295.8591 83.43431 296.7928L82.10555 297.39755Q81.42837 295.91214 81.84546 294.69705Q82.26254 293.482 83.66984 292.6695Q85.10419 291.84137 86.39056 292.16315Q87.68265 292.46362 88.35452 293.62735Q88.69827 294.22275 88.790634 294.94522Q88.87519 295.65417 88.67405 296.6183Q88.47291 297.5824 87.800964 299.4498Q87.23615 301.00278 87.12024 301.52075Q86.996506 302.0252 86.98103 302.46713L91.852425 299.65463ZM91.09775 295.12875Q90.08212 293.36963 89.81676 292.0975Q89.564926 290.81757 89.94617 289.82166Q90.32741 288.82574 91.409935 288.20074Q92.208305 287.7398 92.991196 287.7208Q93.77981 287.68048 94.52379 288.06284Q95.26777 288.4452 95.984276 289.18622Q96.71431 289.91943 97.56587 291.39438Q98.573685 293.13995 98.833336 294.43344Q99.0987 295.70557 98.72527 296.715Q98.34403 297.71094 97.2615 298.33594Q95.82714 299.16406 94.400154 298.5987Q92.714935 297.9298 91.09775 295.12875ZM92.34266 294.41Q93.75672 296.85922 94.7938 297.34302Q95.8366 297.80545 96.67556 297.32108Q97.51453 296.8367 97.614105 295.69666Q97.713684 294.55664 96.307434 292.12094Q94.89337 289.67172 93.864105 289.20148Q92.82703 288.7177 91.97453 289.2099Q91.13557 289.69427 91.04896 290.7005Q90.93641 291.9743 92.34266 294.41ZM98.891975 290.62875Q97.87635 288.86963 97.610985 287.5975Q97.35915 286.31757 97.740395 285.32166Q98.121635 284.32574 99.20416 283.70074Q100.00253 283.2398 100.78542 283.2208Q101.574036 283.18048 102.318016 283.56284Q103.062 283.9452 103.7785 284.68622Q104.508545 285.41943 105.36011 286.89438Q106.36792 288.63995 106.62756 289.93344Q106.89293 291.20557 106.5195 292.215Q106.13826 293.21094 105.055725 293.83594Q103.621376 294.66406 102.19438 294.0987Q100.50916 293.4298 98.891975 290.62875ZM100.13689 289.91Q101.55095 292.35922 102.58803 292.84302Q103.63083 293.30545 104.46979 292.82108Q105.308754 292.3367 105.40833 291.19666Q105.50791 290.05664 104.10166 287.62094Q102.6876 285.17172 101.65833 284.70148Q100.621254 284.2177 99.76876 284.7099Q98.929794 285.19427 98.843185 286.2005Q98.73064 287.4743 100.13689 289.91ZM108.27232 284.56348Q107.3583 284.73035 106.69607 284.4271Q106.033844 284.12384 105.61978 283.40665Q104.99478 282.32413 105.34421 281.1481Q105.699356 279.95074 106.99839 279.20074Q108.29743 278.45074 109.51977 278.75537Q110.747826 279.03867 111.372826 280.12122Q111.77126 280.81134 111.70278 281.53647Q111.6343 282.2616 111.059845 282.9541Q112.138336 282.72836 112.99476 283.11798Q113.86471 283.4998 114.39596 284.41995Q115.13033 285.69193 114.73153 287.0949Q114.33844 288.47656 112.86349 289.32812Q111.40207 290.17188 109.99545 289.82928Q108.59455 289.46536 107.84455 288.16632Q107.28205 287.19205 107.39419 286.26126Q107.506325 285.3305 108.27232 284.56348ZM106.841255 282.6473Q107.247505 283.35095 107.95186 283.53967Q108.66975 283.7206 109.40046 283.29874Q110.1041 282.8925 110.29283 282.1881Q110.48157 281.48376 110.11438 280.84778Q109.723755 280.1712 109.00587 279.99026Q108.28017 279.79584 107.59005 280.19427Q106.886406 280.60052 106.68414 281.31268Q106.48188 282.02484 106.841255 282.6473ZM109.08946 287.44757Q109.39415 287.9753 109.91897 288.3218Q110.45732 288.66052 111.10071 288.6499Q111.73628 288.62576 112.291084 288.30545Q113.17064 287.79764 113.418655 286.9147Q113.65886 286.01825 113.15886 285.15222Q112.65105 284.27267 111.72753 284.0481Q110.80973 283.80215 109.930176 284.30997Q109.07768 284.80215 108.83748 285.6986Q108.597275 286.59506 109.08946 287.44757Z" fill-rule="nonzero"/><path fill="#000000" d="M118.88603 311.12875Q117.87041 309.36963 117.60504 308.0975Q117.35321 306.81757 117.73445 305.82166Q118.11569 304.8257 119.19823 304.2007Q119.9966 303.73978 120.77949 303.7208Q121.5681 303.68045 122.31208 304.06284Q123.05606 304.4452 123.77257 305.18622Q124.5026 305.91943 125.354164 307.39438Q126.36198 309.13995 126.62163 310.4334Q126.88699 311.70554 126.513565 312.715Q126.132324 313.71094 125.04979 314.33594Q123.61543 315.16406 122.18844 314.5987Q120.50322 313.9298 118.88603 311.12875ZM120.13094 310.41Q121.545006 312.85922 122.582085 313.34302Q123.624886 313.80542 124.46385 313.32104Q125.30282 312.83667 125.4024 311.69666Q125.501976 310.55664 124.095726 308.12094Q122.68166 305.67172 121.6524 305.20148Q120.61532 304.71768 119.762825 305.20987Q118.92385 305.69424 118.83724 306.7005Q118.72469 307.9743 120.13094 310.41ZM134.09563 308.87875L132.87778 309.58188L128.3934 301.81473Q128.18904 302.49203 127.71405 303.32556Q127.252594 304.1513 126.809265 304.69592L126.12958 303.51868Q126.8632 302.4456 127.23035 301.3315Q127.60321 300.19608 127.56078 299.3726L128.34563 298.91946L134.09563 308.87875ZM135.44856 304.12836L134.73763 302.89697L138.47235 300.74072L139.18329 301.9721L135.44856 304.12836ZM147.35353 299.65463L148.03322 300.83188L141.47037 304.62094Q141.19902 304.18222 141.12703 303.68253Q140.9878 302.87885 141.16759 301.90903Q141.34738 300.93918 141.89713 299.48514Q142.74178 297.22934 142.86479 296.1299Q142.98 295.01694 142.58156 294.32684Q142.1675 293.60965 141.36423 293.40585Q140.56096 293.20206 139.722 293.68643Q138.84244 294.19424 138.6194 295.02667Q138.39635 295.8591 138.93541 296.7928L137.60666 297.39755Q136.92947 295.91214 137.34656 294.69705Q137.76364 293.48196 139.17094 292.66946Q140.6053 291.84134 141.89166 292.16315Q143.18375 292.46362 143.85562 293.62735Q144.19937 294.22272 144.29175 294.94522Q144.3763 295.65417 144.17516 296.6183Q143.97401 297.5824 143.30206 299.4498Q142.73726 301.00278 142.62134 301.52075Q142.49762 302.02518 142.48213 302.46713L147.35353 299.65463ZM146.59885 295.12875Q145.58322 293.36963 145.31786 292.0975Q145.06602 290.81757 145.44727 289.82166Q145.8285 288.8257 146.91104 288.2007Q147.70941 287.73978 148.4923 287.7208Q149.28091 287.68045 150.02489 288.06284Q150.76888 288.4452 151.48538 289.18622Q152.21542 289.91943 153.06699 291.39438Q154.0748 293.13995 154.33444 294.4334Q154.59981 295.70554 154.22638 296.715Q153.84514 297.71094 152.7626 298.33594Q151.32825 299.16406 149.90126 298.5987Q148.21603 297.9298 146.59885 295.12875ZM147.84377 294.41Q149.25783 296.85922 150.2949 297.343Q151.3377 297.80542 152.17667 297.32104Q153.01562 296.83667 153.1152 295.69666Q153.21478 294.55664 151.80853 292.12094Q150.39447 289.67172 149.3652 289.20148Q148.32812 288.71768 147.47563 289.20987Q146.63667 289.69424 146.55006 290.7005Q146.43752 291.9743 147.84377 294.41ZM154.39308 290.62875Q153.37746 288.86963 153.11209 287.5975Q152.86026 286.31757 153.2415 285.32166Q153.62274 284.3257 154.70528 283.7007Q155.50363 283.23978 156.28653 283.2208Q157.07513 283.18045 157.81912 283.56284Q158.5631 283.9452 159.2796 284.68622Q160.00964 285.41943 160.8612 286.89438Q161.86902 288.63995 162.12866 289.9334Q162.39403 291.20554 162.0206 292.215Q161.63936 293.21094 160.55684 293.83594Q159.12248 294.66406 157.69548 294.0987Q156.01027 293.4298 154.39308 290.62875ZM155.63799 289.91Q157.05205 292.35922 158.08914 292.843Q159.13193 293.30542 159.9709 292.82104Q160.80986 292.33667 160.90944 291.19666Q161.00902 290.05664 159.60277 287.62094Q158.1887 285.17172 157.15944 284.70148Q156.12236 284.21768 155.26987 284.70987Q154.43091 285.19424 154.3443 286.2005Q154.23174 287.4743 155.63799 289.91ZM163.86322 288.62527L164.97798 287.8373Q165.60338 288.5768 166.24162 288.7135Q166.87204 288.83667 167.52156 288.46167Q168.08989 288.13354 168.36093 287.63428Q168.63197 287.13498 168.66042 286.55923Q168.68105 285.96997 168.43509 285.13773Q168.20265 284.29764 167.76515 283.53986Q167.71828 283.45868 167.62453 283.2963Q167.59511 284.08908 167.17006 284.82162Q166.7372 285.54065 166.00648 285.96252Q164.77512 286.67346 163.407 286.27255Q162.03888 285.87164 161.19513 284.41022Q160.32794 282.9082 160.67624 281.48026Q161.03809 280.04446 162.37772 279.27103Q163.35199 278.70853 164.45505 278.77533Q165.5503 278.8286 166.52446 279.54715Q167.49863 280.26572 168.55331 282.0925Q169.65488 284.00046 169.88383 285.36575Q170.12633 286.72327 169.64464 287.79523Q169.1765 288.85938 168.08043 289.4922Q166.9167 290.16406 165.79747 289.9442Q164.69176 289.71658 163.86322 288.62527ZM166.33296 281.37173Q165.72359 280.31625 164.8037 280.03546Q163.88953 279.7333 163.10469 280.18643Q162.29279 280.65518 162.06668 281.6698Q161.8541 282.6766 162.46347 283.7321Q163.01035 284.6793 163.92242 284.94656Q164.84804 285.20602 165.687 284.72165Q166.52596 284.23727 166.72348 283.32938Q166.93452 282.41367 166.33296 281.37173Z" fill-rule="nonzero"/><path fill="#000000" d="M174.23549 311.12875Q173.21986 309.36963 172.9545 308.0975Q172.70267 306.81757 173.0839 305.82166Q173.46513 304.82574 174.54767 304.20074Q175.34604 303.7398 176.12894 303.7208Q176.91754 303.68048 177.66153 304.06284Q178.4055 304.4452 179.12201 305.18622Q179.85205 305.91943 180.70361 307.39438Q181.71143 309.13995 181.97107 310.43344Q182.23643 311.70557 181.863 312.715Q181.48177 313.71094 180.39923 314.33594Q178.96487 315.16406 177.53789 314.5987Q175.85268 313.9298 174.23549 311.12875ZM175.4804 310.41Q176.89445 312.85922 177.93153 313.34302Q178.97433 313.80545 179.8133 313.32108Q180.65225 312.8367 180.75183 311.69666Q180.85141 310.55664 179.44516 308.12094Q178.0311 305.67172 177.00183 305.20148Q175.96475 304.71768 175.11226 305.20987Q174.2733 305.69424 174.18669 306.7005Q174.07414 307.9743 175.4804 310.41ZM189.44507 308.87878L188.22722 309.5819L183.74284 301.81473Q183.53848 302.49203 183.06349 303.32556Q182.60204 304.1513 182.1587 304.69592L181.47902 303.51868Q182.21265 302.4456 182.57979 301.3315Q182.95265 300.1961 182.91023 299.37262L183.69507 298.9195L189.44507 308.87878ZM190.798 304.1284L190.08707 302.897L193.8218 300.74075L194.53273 301.97214L190.798 304.1284ZM202.70297 299.65463L203.38266 300.8319L196.81981 304.62097Q196.54846 304.18222 196.47647 303.68253Q196.33723 302.87885 196.51703 301.90903Q196.69682 300.93918 197.24657 299.48514Q198.09122 297.22934 198.21423 296.1299Q198.32944 295.01697 197.931 294.32684Q197.51694 293.60965 196.71367 293.40585Q195.9104 293.20206 195.07144 293.68643Q194.19188 294.19424 193.96884 295.02667Q193.74579 295.8591 194.28485 296.7928L192.9561 297.39755Q192.27892 295.91214 192.696 294.69705Q193.1131 293.482 194.52039 292.6695Q195.95474 291.84137 197.2411 292.16315Q198.53319 292.46362 199.20506 293.62735Q199.54881 294.22275 199.64119 294.94522Q199.72574 295.65417 199.5246 296.6183Q199.32346 297.5824 198.6515 299.4498Q198.0867 301.00278 197.97078 301.52075Q197.84706 302.0252 197.83157 302.46713L202.70297 299.65463ZM201.9483 295.12875Q200.93268 293.36963 200.66731 292.0975Q200.41547 290.81757 200.7967 289.82166Q201.17795 288.82574 202.26048 288.20074Q203.05885 287.7398 203.84175 287.7208Q204.63036 287.68048 205.37433 288.06284Q206.11832 288.4452 206.83482 289.18622Q207.56487 289.91943 208.41643 291.39438Q209.42424 293.13995 209.68388 294.43344Q209.94925 295.70557 209.57582 296.715Q209.19458 297.71094 208.11205 298.33594Q206.67769 299.16406 205.2507 298.5987Q203.56549 297.9298 201.9483 295.12875ZM203.1932 294.41Q204.60727 296.85922 205.64435 297.34302Q206.68715 297.80545 207.52611 297.32108Q208.36507 296.8367 208.46465 295.69666Q208.56422 294.55664 207.15797 292.12094Q205.74391 289.67172 204.71465 289.20148Q203.67757 288.71768 202.82507 289.20987Q201.98611 289.69424 201.8995 290.7005Q201.78696 291.9743 203.1932 294.41ZM217.15788 292.87878L215.94003 293.5819L211.45566 285.81473Q211.2513 286.49203 210.7763 287.32556Q210.31485 288.1513 209.87152 288.69592L209.19183 287.51868Q209.92546 286.4456 210.2926 285.3315Q210.66547 284.1961 210.62305 283.37262L211.40788 282.9195L217.15788 292.87878ZM217.53676 286.12875Q216.52113 284.36963 216.25577 283.0975Q216.00394 281.81757 216.38518 280.82166Q216.7664 279.82574 217.84894 279.20074Q218.64731 278.7398 219.4302 278.7208Q220.21881 278.68048 220.9628 279.06284Q221.70677 279.4452 222.42328 280.18622Q223.15332 280.91943 224.00488 282.39438Q225.0127 284.13995 225.27234 285.43344Q225.5377 286.70557 225.16428 287.715Q224.78304 288.71094 223.7005 289.33594Q222.26614 290.16406 220.83916 289.5987Q219.15395 288.9298 217.53676 286.12875ZM218.78166 285.41Q220.19572 287.85922 221.2328 288.34302Q222.2756 288.80545 223.11456 288.32108Q223.95352 287.8367 224.0531 286.69666Q224.15268 285.55664 222.74643 283.12094Q221.33237 280.67172 220.3031 280.20148Q219.26602 279.71768 218.41353 280.20987Q217.57457 280.69424 217.48796 281.7005Q217.37541 282.9743 218.78166 285.41Z" fill-rule="nonzero"/></svg>