<svg version="1.1" viewBox="0.0 0.0 253.0 371.0" fill="none" stroke="none" stroke-linecap="square" stroke-miterlimit="10" width="253" height="371" xmlns:xlink="http://www.w3.org/1999/xlink" xmlns="http://www.w3.org/2000/svg"><path fill="#ffffff" d="M0 0L253.0 0L253.0 371.0L0 371.0L0 0Z" fill-rule="nonzero"/><path stroke="#cccccc" stroke-width="1.0" stroke-linecap="butt" d="M99.5 22.5L99.5 264.5" fill-rule="nonzero"/><path stroke="#cccccc" stroke-width="1.0" stroke-linecap="butt" d="M146.5 22.5L146.5 264.5" fill-rule="nonzero"/><path stroke="#cccccc" stroke-width="1.0" stroke-linecap="butt" d="M193.5 22.5L193.5 264.5" fill-rule="nonzero"/><path stroke="#cccccc" stroke-width="1.0" stroke-linecap="butt" d="M240.5 22.5L240.5 264.5" fill-rule="nonzero"/><path stroke="#333333" stroke-width="1.0" stroke-linecap="butt" d="M99.5 264.5L240.5 264.5" fill-rule="nonzero"/><path stroke="#cccccc" stroke-width="1.0" stroke-linecap="butt" d="M99.5 216.5L240.5 216.5" fill-rule="nonzero"/><path stroke="#cccccc" stroke-width="1.0" stroke-linecap="butt" d="M99.5 167.5L240.5 167.5" fill-rule="nonzero"/><path stroke="#cccccc" stroke-width="1.0" stroke-linecap="butt" d="M99.5 119.5L240.5 119.5" fill-rule="nonzero"/><path stroke="#cccccc" stroke-width="1.0" stroke-linecap="butt" d="M99.5 70.5L240.5 70.5" fill-rule="nonzero"/><path stroke="#cccccc" stroke-width="1.0" stroke-linecap="butt" d="M99.5 22.5L240.5 22.5" fill-rule="nonzero"/><clipPath id="id_0"><path d="M99.65 22.15L240.35 22.15L240.35 264.62277L99.65 264.62277L99.65 22.15Z" clip-rule="nonzero"/></clipPath><path stroke="#000000" stroke-width="2.0" stroke-linecap="butt" clip-path="url(#id_0)" d="M99.65 118.73541L103.629654 118.76056L107.22418 118.784904L111.203835 118.80849L115.05511 118.831314L119.03476 118.85343L122.88604 118.87484L126.86569 118.89558L130.84535 118.91566L134.69662 118.9351L138.67628 118.95393L142.52756 118.97217L146.5072 118.98982L150.48686 119.00693L154.20976 119.02348L158.18942 119.03952L162.0407 119.055046L166.02034 119.07008L169.87163 119.08465L173.85127 119.09875L177.83093 119.112404L181.6822 119.12563L185.66187 119.13844L189.51314 119.15084L193.4928 119.16286L197.47244 119.174484L201.06697 119.185745L205.04663 119.19665L208.8979 119.20721L212.87755 119.21744L216.72884 119.22734L220.70848 119.23693L224.68814 119.246216L228.53941 119.25521L232.51907 119.26392L236.37035 119.272354L240.35 119.280525" fill-rule="nonzero"/><path stroke="#000000" stroke-width="2.0" stroke-linecap="butt" stroke-dasharray="8.0,6.0,2.0,6.0" clip-path="url(#id_0)" d="M99.65 118.73541L103.629654 118.76056L107.22418 118.784904L111.203835 118.80849L115.05511 118.831314L119.03476 118.85343L122.88604 118.87484L126.86569 118.89558L130.84535 118.91566L134.69662 118.9351L138.67628 118.95393L142.52756 118.97217L146.5072 127.67645L150.48686 131.61076L154.20976 133.87248L158.18942 135.19066L162.0407 135.96323L166.02034 136.41841L169.87163 136.68849L173.85127 136.8505L177.83093 136.94931L181.6822 137.0111L185.66187 137.05113L189.51314 137.07837L193.4928 137.098L197.47244 137.1131L201.06697 137.12541L205.04663 137.13599L208.8979 137.14545L212.87755 137.15414L216.72884 137.16232L220.70848 137.17006L224.68814 137.17747L228.53941 137.1846L232.51907 137.19148L236.37035 137.19812L240.35 137.20453" fill-rule="nonzero"/><path stroke="#000000" stroke-width="2.0" stroke-linecap="butt" stroke-dasharray="8.0,6.0" clip-path="url(#id_0)" d="M99.65 118.73541L103.629654 118.76056L107.22418 118.784904L111.203835 118.80849L115.05511 118.831314L119.03476 118.85343L122.88604 118.87484L126.86569 118.89558L130.84535 118.91566L134.69662 118.9351L138.67628 118.95393L142.52756 118.97217L146.5072 101.61657L150.48686 93.799255L154.20976 89.3255L158.18942 86.73724L162.0407 85.238686L166.02034 84.37344L169.87163 83.876945L173.85127 83.595245L177.83093 83.438614L181.6822 83.35472L185.66187 83.31304L189.51314 83.29578L193.4928 83.292534L197.47244 83.29726L201.06697 83.30643L205.04663 83.317986L208.8979 83.33074L212.87755 83.34401L216.72884 83.35739L220.70848 83.37066L224.68814 83.38369L228.53941 83.396416L232.51907 83.4088L236.37035 83.42083L240.35 83.4325" fill-rule="nonzero"/><path fill="#000000" fill-opacity="0.0" clip-path="url(#id_0)" d="M102.65 118.73541C102.65 120.392265 101.306854 121.73541 99.65 121.73541C97.99315 121.73541 96.65 120.392265 96.65 118.73541C96.65 117.07856 97.99315 115.73541 99.65 115.73541C101.306854 115.73541 102.65 117.07856 102.65 118.73541Z" fill-rule="nonzero"/><path fill="#000000" fill-opacity="0.0" clip-path="url(#id_0)" d="M106.629654 118.76056C106.629654 120.41741 105.28651 121.76056 103.629654 121.76056C101.9728 121.76056 100.629654 120.41741 100.629654 118.76056C100.629654 117.10371 101.9728 115.76056 103.629654 115.76056C105.28651 115.76056 106.629654 117.10371 106.629654 118.76056Z" fill-rule="nonzero"/><path fill="#000000" fill-opacity="0.0" clip-path="url(#id_0)" d="M110.22418 118.784904C110.22418 120.44176 108.881035 121.784904 107.22418 121.784904C105.56732 121.784904 104.22418 120.44176 104.22418 118.784904C104.22418 117.12805 105.56732 115.784904 107.22418 115.784904C108.881035 115.784904 110.22418 117.12805 110.22418 118.784904Z" fill-rule="nonzero"/><path fill="#000000" fill-opacity="0.0" clip-path="url(#id_0)" d="M114.203835 118.80849C114.203835 120.46534 112.86069 121.80849 111.203835 121.80849C109.546974 121.80849 108.203835 120.46534 108.203835 118.80849C108.203835 117.151634 109.546974 115.80849 111.203835 115.80849C112.86069 115.80849 114.203835 117.151634 114.203835 118.80849Z" fill-rule="nonzero"/><path fill="#000000" fill-opacity="0.0" clip-path="url(#id_0)" d="M118.05511 118.831314C118.05511 120.488174 116.71197 121.831314 115.05511 121.831314C113.398254 121.831314 112.05511 120.488174 112.05511 118.831314C112.05511 117.17446 113.398254 115.831314 115.05511 115.831314C116.71197 115.831314 118.05511 117.17446 118.05511 118.831314Z" fill-rule="nonzero"/><path fill="#000000" fill-opacity="0.0" clip-path="url(#id_0)" d="M122.03476 118.85343C122.03476 120.510284 120.69162 121.85343 119.03476 121.85343C117.37791 121.85343 116.03476 120.510284 116.03476 118.85343C116.03476 117.19658 117.37791 115.85343 119.03476 115.85343C120.69162 115.85343 122.03476 117.19658 122.03476 118.85343Z" fill-rule="nonzero"/><path fill="#000000" fill-opacity="0.0" clip-path="url(#id_0)" d="M125.88604 118.87484C125.88604 120.5317 124.54289 121.87484 122.88604 121.87484C121.22919 121.87484 119.88604 120.5317 119.88604 118.87484C119.88604 117.21799 121.22919 115.87484 122.88604 115.87484C124.54289 115.87484 125.88604 117.21799 125.88604 118.87484Z" fill-rule="nonzero"/><path fill="#000000" fill-opacity="0.0" clip-path="url(#id_0)" d="M129.86569 118.89558C129.86569 120.55243 128.52255 121.89558 126.86569 121.89558C125.20884 121.89558 123.86569 120.55243 123.86569 118.89558C123.86569 117.23872 125.20884 115.89558 126.86569 115.89558C128.52255 115.89558 129.86569 117.23872 129.86569 118.89558Z" fill-rule="nonzero"/><path fill="#000000" fill-opacity="0.0" clip-path="url(#id_0)" d="M133.84535 118.91566C133.84535 120.57251 132.5022 121.91566 130.84535 121.91566C129.18849 121.91566 127.845345 120.57251 127.845345 118.91566C127.845345 117.258804 129.18849 115.91566 130.84535 115.91566C132.5022 115.91566 133.84535 117.258804 133.84535 118.91566Z" fill-rule="nonzero"/><path fill="#000000" fill-opacity="0.0" clip-path="url(#id_0)" d="M137.69662 118.9351C137.69662 120.59196 136.35349 121.9351 134.69662 121.9351C133.03976 121.9351 131.69662 120.59196 131.69662 118.9351C131.69662 117.278244 133.03976 115.9351 134.69662 115.9351C136.35349 115.9351 137.69662 117.278244 137.69662 118.9351Z" fill-rule="nonzero"/><path fill="#000000" fill-opacity="0.0" clip-path="url(#id_0)" d="M141.67628 118.95393C141.67628 120.61079 140.33313 121.95393 138.67628 121.95393C137.01942 121.95393 135.67628 120.61079 135.67628 118.95393C135.67628 117.29707 137.01942 115.95393 138.67628 115.95393C140.33313 115.95393 141.67628 117.29707 141.67628 118.95393Z" fill-rule="nonzero"/><path fill="#000000" fill-opacity="0.0" clip-path="url(#id_0)" d="M145.52756 118.97217C145.52756 120.62902 144.1844 121.97217 142.52756 121.97217C140.8707 121.97217 139.52756 120.62902 139.52756 118.97217C139.52756 117.315315 140.8707 115.97217 142.52756 115.97217C144.1844 115.97217 145.52756 117.315315 145.52756 118.97217Z" fill-rule="nonzero"/><path fill="#000000" fill-opacity="0.0" clip-path="url(#id_0)" d="M149.5072 118.98982C149.5072 120.64668 148.16406 121.98982 146.5072 121.98982C144.85036 121.98982 143.5072 120.64668 143.5072 118.98982C143.5072 117.33297 144.85036 115.98982 146.5072 115.98982C148.16406 115.98982 149.5072 117.33297 149.5072 118.98982Z" fill-rule="nonzero"/><path fill="#000000" fill-opacity="0.0" clip-path="url(#id_0)" d="M153.48686 119.00693C153.48686 120.66378 152.14372 122.00693 150.48686 122.00693C148.83 122.00693 147.48686 120.66378 147.48686 119.00693C147.48686 117.350075 148.83 116.00693 150.48686 116.00693C152.14372 116.00693 153.48686 117.350075 153.48686 119.00693Z" fill-rule="nonzero"/><path fill="#000000" fill-opacity="0.0" clip-path="url(#id_0)" d="M157.20976 119.02348C157.20976 120.680336 155.86662 122.02348 154.20976 122.02348C152.5529 122.02348 151.20976 120.680336 151.20976 119.02348C151.20976 117.36663 152.5529 116.02348 154.20976 116.02348C155.86662 116.02348 157.20976 117.36663 157.20976 119.02348Z" fill-rule="nonzero"/><path fill="#000000" fill-opacity="0.0" clip-path="url(#id_0)" d="M161.18942 119.03952C161.18942 120.69637 159.84627 122.03952 158.18942 122.03952C156.53256 122.03952 155.18942 120.69637 155.18942 119.03952C155.18942 117.38267 156.53256 116.03952 158.18942 116.03952C159.84627 116.03952 161.18942 117.38267 161.18942 119.03952Z" fill-rule="nonzero"/><path fill="#000000" fill-opacity="0.0" clip-path="url(#id_0)" d="M165.0407 119.055046C165.0407 120.7119 163.69754 122.055046 162.0407 122.055046C160.38383 122.055046 159.0407 120.7119 159.0407 119.055046C159.0407 117.39819 160.38383 116.055046 162.0407 116.055046C163.69754 116.055046 165.0407 117.39819 165.0407 119.055046Z" fill-rule="nonzero"/><path fill="#000000" fill-opacity="0.0" clip-path="url(#id_0)" d="M169.02034 119.07008C169.02034 120.72694 167.6772 122.07008 166.02034 122.07008C164.3635 122.07008 163.02034 120.72694 163.02034 119.07008C163.02034 117.41323 164.3635 116.07008 166.02034 116.07008C167.6772 116.07008 169.02034 117.41323 169.02034 119.07008Z" fill-rule="nonzero"/><path fill="#000000" fill-opacity="0.0" clip-path="url(#id_0)" d="M172.87163 119.08465C172.87163 120.7415 171.52847 122.08465 169.87163 122.08465C168.21477 122.08465 166.87163 120.7415 166.87163 119.08465C166.87163 117.427795 168.21477 116.08465 169.87163 116.08465C171.52847 116.08465 172.87163 117.427795 172.87163 119.08465Z" fill-rule="nonzero"/><path fill="#000000" fill-opacity="0.0" clip-path="url(#id_0)" d="M176.85127 119.09875C176.85127 120.75561 175.50813 122.09875 173.85127 122.09875C172.19443 122.09875 170.85127 120.75561 170.85127 119.09875C170.85127 117.441895 172.19443 116.09875 173.85127 116.09875C175.50813 116.09875 176.85127 117.441895 176.85127 119.09875Z" fill-rule="nonzero"/><path fill="#000000" fill-opacity="0.0" clip-path="url(#id_0)" d="M180.83093 119.112404C180.83093 120.769264 179.48778 122.112404 177.83093 122.112404C176.17407 122.112404 174.83093 120.769264 174.83093 119.112404C174.83093 117.45555 176.17407 116.112404 177.83093 116.112404C179.48778 116.112404 180.83093 117.45555 180.83093 119.112404Z" fill-rule="nonzero"/><path fill="#000000" fill-opacity="0.0" clip-path="url(#id_0)" d="M184.6822 119.12563C184.6822 120.782486 183.33907 122.12563 181.6822 122.12563C180.02536 122.12563 178.6822 120.782486 178.6822 119.12563C178.6822 117.46878 180.02536 116.12563 181.6822 116.12563C183.33907 116.12563 184.6822 117.46878 184.6822 119.12563Z" fill-rule="nonzero"/><path fill="#000000" fill-opacity="0.0" clip-path="url(#id_0)" d="M188.66187 119.13844C188.66187 120.795296 187.31871 122.13844 185.66187 122.13844C184.005 122.13844 182.66187 120.795296 182.66187 119.13844C182.66187 117.48158 184.005 116.13844 185.66187 116.13844C187.31871 116.13844 188.66187 117.48158 188.66187 119.13844Z" fill-rule="nonzero"/><path fill="#000000" fill-opacity="0.0" clip-path="url(#id_0)" d="M192.51314 119.15084C192.51314 120.80769 191.17 122.15084 189.51314 122.15084C187.85628 122.15084 186.51314 120.80769 186.51314 119.15084C186.51314 117.49399 187.85628 116.15084 189.51314 116.15084C191.17 116.15084 192.51314 117.49399 192.51314 119.15084Z" fill-rule="nonzero"/><path fill="#000000" fill-opacity="0.0" clip-path="url(#id_0)" d="M196.4928 119.16286C196.4928 120.81971 195.14964 122.16286 193.4928 122.16286C191.83594 122.16286 190.4928 120.81971 190.4928 119.16286C190.4928 117.506 191.83594 116.16286 193.4928 116.16286C195.14964 116.16286 196.4928 117.506 196.4928 119.16286Z" fill-rule="nonzero"/><path fill="#000000" fill-opacity="0.0" clip-path="url(#id_0)" d="M200.47244 119.174484C200.47244 120.83134 199.1293 122.174484 197.47244 122.174484C195.8156 122.174484 194.47244 120.83134 194.47244 119.174484C194.47244 117.51763 195.8156 116.174484 197.47244 116.174484C199.1293 116.174484 200.47244 117.51763 200.47244 119.174484Z" fill-rule="nonzero"/><path fill="#000000" fill-opacity="0.0" clip-path="url(#id_0)" d="M204.06697 119.185745C204.06697 120.8426 202.72383 122.185745 201.06697 122.185745C199.41011 122.185745 198.06697 120.8426 198.06697 119.185745C198.06697 117.52889 199.41011 116.185745 201.06697 116.185745C202.72383 116.185745 204.06697 117.52889 204.06697 119.185745Z" fill-rule="nonzero"/><path fill="#000000" fill-opacity="0.0" clip-path="url(#id_0)" d="M208.04663 119.19665C208.04663 120.8535 206.70348 122.19665 205.04663 122.19665C203.38977 122.19665 202.04663 120.8535 202.04663 119.19665C202.04663 117.539795 203.38977 116.19665 205.04663 116.19665C206.70348 116.19665 208.04663 117.539795 208.04663 119.19665Z" fill-rule="nonzero"/><path fill="#000000" fill-opacity="0.0" clip-path="url(#id_0)" d="M211.8979 119.20721C211.8979 120.86407 210.55475 122.20721 208.8979 122.20721C207.24104 122.20721 205.8979 120.86407 205.8979 119.20721C205.8979 117.550354 207.24104 116.20721 208.8979 116.20721C210.55475 116.20721 211.8979 117.550354 211.8979 119.20721Z" fill-rule="nonzero"/><path fill="#000000" fill-opacity="0.0" clip-path="url(#id_0)" d="M215.87755 119.21744C215.87755 120.87429 214.53441 122.21744 212.87755 122.21744C211.2207 122.21744 209.87755 120.87429 209.87755 119.21744C209.87755 117.560585 211.2207 116.21744 212.87755 116.21744C214.53441 116.21744 215.87755 117.560585 215.87755 119.21744Z" fill-rule="nonzero"/><path fill="#000000" fill-opacity="0.0" clip-path="url(#id_0)" d="M219.72884 119.22734C219.72884 120.88419 218.38568 122.22734 216.72884 122.22734C215.07198 122.22734 213.72884 120.88419 213.72884 119.22734C213.72884 117.57049 215.07198 116.22734 216.72884 116.22734C218.38568 116.22734 219.72884 117.57049 219.72884 119.22734Z" fill-rule="nonzero"/><path fill="#000000" fill-opacity="0.0" clip-path="url(#id_0)" d="M223.70848 119.23693C223.70848 120.89378 222.36534 122.23693 220.70848 122.23693C219.05164 122.23693 217.70848 120.89378 217.70848 119.23693C217.70848 117.58007 219.05164 116.23693 220.70848 116.23693C222.36534 116.23693 223.70848 117.58007 223.70848 119.23693Z" fill-rule="nonzero"/><path fill="#000000" fill-opacity="0.0" clip-path="url(#id_0)" d="M227.68814 119.246216C227.68814 120.90307 226.34499 122.246216 224.68814 122.246216C223.03128 122.246216 221.68814 120.90307 221.68814 119.246216C221.68814 117.58936 223.03128 116.246216 224.68814 116.246216C226.34499 116.246216 227.68814 117.58936 227.68814 119.246216Z" fill-rule="nonzero"/><path fill="#000000" fill-opacity="0.0" clip-path="url(#id_0)" d="M231.53941 119.25521C231.53941 120.91206 230.19627 122.25521 228.53941 122.25521C226.88257 122.25521 225.53941 120.91206 225.53941 119.25521C225.53941 117.59836 226.88257 116.25521 228.53941 116.25521C230.19627 116.25521 231.53941 117.59836 231.53941 119.25521Z" fill-rule="nonzero"/><path fill="#000000" fill-opacity="0.0" clip-path="url(#id_0)" d="M235.51907 119.26392C235.51907 120.92078 234.17592 122.26392 232.51907 122.26392C230.86221 122.26392 229.51907 120.92078 229.51907 119.26392C229.51907 117.60706 230.86221 116.26392 232.51907 116.26392C234.17592 116.26392 235.51907 117.60706 235.51907 119.26392Z" fill-rule="nonzero"/><path fill="#000000" fill-opacity="0.0" clip-path="url(#id_0)" d="M239.37035 119.272354C239.37035 120.92921 238.0272 122.272354 236.37035 122.272354C234.71349 122.272354 233.37035 120.92921 233.37035 119.272354C233.37035 117.6155 234.71349 116.272354 236.37035 116.272354C238.0272 116.272354 239.37035 117.6155 239.37035 119.272354Z" fill-rule="nonzero"/><path fill="#000000" fill-opacity="0.0" clip-path="url(#id_0)" d="M243.35 119.280525C243.35 120.93738 242.00685 122.280525 240.35 122.280525C238.69315 122.280525 237.35 120.93738 237.35 119.280525C237.35 117.623665 238.69315 116.280525 240.35 116.280525C242.00685 116.280525 243.35 117.623665 243.35 119.280525Z" fill-rule="nonzero"/><path fill="#000000" fill-opacity="0.0" clip-path="url(#id_0)" d="M102.65 118.73541C102.65 120.392265 101.306854 121.73541 99.65 121.73541C97.99315 121.73541 96.65 120.392265 96.65 118.73541C96.65 117.07856 97.99315 115.73541 99.65 115.73541C101.306854 115.73541 102.65 117.07856 102.65 118.73541Z" fill-rule="nonzero"/><path fill="#000000" fill-opacity="0.0" clip-path="url(#id_0)" d="M106.629654 118.76056C106.629654 120.41741 105.28651 121.76056 103.629654 121.76056C101.9728 121.76056 100.629654 120.41741 100.629654 118.76056C100.629654 117.10371 101.9728 115.76056 103.629654 115.76056C105.28651 115.76056 106.629654 117.10371 106.629654 118.76056Z" fill-rule="nonzero"/><path fill="#000000" fill-opacity="0.0" clip-path="url(#id_0)" d="M110.22418 118.784904C110.22418 120.44176 108.881035 121.784904 107.22418 121.784904C105.56732 121.784904 104.22418 120.44176 104.22418 118.784904C104.22418 117.12805 105.56732 115.784904 107.22418 115.784904C108.881035 115.784904 110.22418 117.12805 110.22418 118.784904Z" fill-rule="nonzero"/><path fill="#000000" fill-opacity="0.0" clip-path="url(#id_0)" d="M114.203835 118.80849C114.203835 120.46534 112.86069 121.80849 111.203835 121.80849C109.546974 121.80849 108.203835 120.46534 108.203835 118.80849C108.203835 117.151634 109.546974 115.80849 111.203835 115.80849C112.86069 115.80849 114.203835 117.151634 114.203835 118.80849Z" fill-rule="nonzero"/><path fill="#000000" fill-opacity="0.0" clip-path="url(#id_0)" d="M118.05511 118.831314C118.05511 120.488174 116.71197 121.831314 115.05511 121.831314C113.398254 121.831314 112.05511 120.488174 112.05511 118.831314C112.05511 117.17446 113.398254 115.831314 115.05511 115.831314C116.71197 115.831314 118.05511 117.17446 118.05511 118.831314Z" fill-rule="nonzero"/><path fill="#000000" fill-opacity="0.0" clip-path="url(#id_0)" d="M122.03476 118.85343C122.03476 120.510284 120.69162 121.85343 119.03476 121.85343C117.37791 121.85343 116.03476 120.510284 116.03476 118.85343C116.03476 117.19658 117.37791 115.85343 119.03476 115.85343C120.69162 115.85343 122.03476 117.19658 122.03476 118.85343Z" fill-rule="nonzero"/><path fill="#000000" fill-opacity="0.0" clip-path="url(#id_0)" d="M125.88604 118.87484C125.88604 120.5317 124.54289 121.87484 122.88604 121.87484C121.22919 121.87484 119.88604 120.5317 119.88604 118.87484C119.88604 117.21799 121.22919 115.87484 122.88604 115.87484C124.54289 115.87484 125.88604 117.21799 125.88604 118.87484Z" fill-rule="nonzero"/><path fill="#000000" fill-opacity="0.0" clip-path="url(#id_0)" d="M129.86569 118.89558C129.86569 120.55243 128.52255 121.89558 126.86569 121.89558C125.20884 121.89558 123.86569 120.55243 123.86569 118.89558C123.86569 117.23872 125.20884 115.89558 126.86569 115.89558C128.52255 115.89558 129.86569 117.23872 129.86569 118.89558Z" fill-rule="nonzero"/><path fill="#000000" fill-opacity="0.0" clip-path="url(#id_0)" d="M133.84535 118.91566C133.84535 120.57251 132.5022 121.91566 130.84535 121.91566C129.18849 121.91566 127.845345 120.57251 127.845345 118.91566C127.845345 117.258804 129.18849 115.91566 130.84535 115.91566C132.5022 115.91566 133.84535 117.258804 133.84535 118.91566Z" fill-rule="nonzero"/><path fill="#000000" fill-opacity="0.0" clip-path="url(#id_0)" d="M137.69662 118.9351C137.69662 120.59196 136.35349 121.9351 134.69662 121.9351C133.03976 121.9351 131.69662 120.59196 131.69662 118.9351C131.69662 117.278244 133.03976 115.9351 134.69662 115.9351C136.35349 115.9351 137.69662 117.278244 137.69662 118.9351Z" fill-rule="nonzero"/><path fill="#000000" fill-opacity="0.0" clip-path="url(#id_0)" d="M141.67628 118.95393C141.67628 120.61079 140.33313 121.95393 138.67628 121.95393C137.01942 121.95393 135.67628 120.61079 135.67628 118.95393C135.67628 117.29707 137.01942 115.95393 138.67628 115.95393C140.33313 115.95393 141.67628 117.29707 141.67628 118.95393Z" fill-rule="nonzero"/><path fill="#000000" fill-opacity="0.0" clip-path="url(#id_0)" d="M145.52756 118.97217C145.52756 120.62902 144.1844 121.97217 142.52756 121.97217C140.8707 121.97217 139.52756 120.62902 139.52756 118.97217C139.52756 117.315315 140.8707 115.97217 142.52756 115.97217C144.1844 115.97217 145.52756 117.315315 145.52756 118.97217Z" fill-rule="nonzero"/><path fill="#000000" fill-opacity="0.0" clip-path="url(#id_0)" d="M149.5072 127.67645C149.5072 129.33331 148.16406 130.67645 146.5072 130.67645C144.85036 130.67645 143.5072 129.33331 143.5072 127.67645C143.5072 126.0196 144.85036 124.67645 146.5072 124.67645C148.16406 124.67645 149.5072 126.0196 149.5072 127.67645Z" fill-rule="nonzero"/><path fill="#000000" fill-opacity="0.0" clip-path="url(#id_0)" d="M153.48686 131.61076C153.48686 133.26761 152.14372 134.61076 150.48686 134.61076C148.83 134.61076 147.48686 133.26761 147.48686 131.61076C147.48686 129.9539 148.83 128.61076 150.48686 128.61076C152.14372 128.61076 153.48686 129.9539 153.48686 131.61076Z" fill-rule="nonzero"/><path fill="#000000" fill-opacity="0.0" clip-path="url(#id_0)" d="M157.20976 133.87248C157.20976 135.52933 155.86662 136.87248 154.20976 136.87248C152.5529 136.87248 151.20976 135.52933 151.20976 133.87248C151.20976 132.21562 152.5529 130.87248 154.20976 130.87248C155.86662 130.87248 157.20976 132.21562 157.20976 133.87248Z" fill-rule="nonzero"/><path fill="#000000" fill-opacity="0.0" clip-path="url(#id_0)" d="M161.18942 135.19066C161.18942 136.8475 159.84627 138.19066 158.18942 138.19066C156.53256 138.19066 155.18942 136.8475 155.18942 135.19066C155.18942 133.5338 156.53256 132.19066 158.18942 132.19066C159.84627 132.19066 161.18942 133.5338 161.18942 135.19066Z" fill-rule="nonzero"/><path fill="#000000" fill-opacity="0.0" clip-path="url(#id_0)" d="M165.0407 135.96323C165.0407 137.62009 163.69754 138.96323 162.0407 138.96323C160.38383 138.96323 159.0407 137.62009 159.0407 135.96323C159.0407 134.30637 160.38383 132.96323 162.0407 132.96323C163.69754 132.96323 165.0407 134.30637 165.0407 135.96323Z" fill-rule="nonzero"/><path fill="#000000" fill-opacity="0.0" clip-path="url(#id_0)" d="M169.02034 136.41841C169.02034 138.07526 167.6772 139.41841 166.02034 139.41841C164.3635 139.41841 163.02034 138.07526 163.02034 136.41841C163.02034 134.76155 164.3635 133.41841 166.02034 133.41841C167.6772 133.41841 169.02034 134.76155 169.02034 136.41841Z" fill-rule="nonzero"/><path fill="#000000" fill-opacity="0.0" clip-path="url(#id_0)" d="M172.87163 136.68849C172.87163 138.34535 171.52847 139.68849 169.87163 139.68849C168.21477 139.68849 166.87163 138.34535 166.87163 136.68849C166.87163 135.03165 168.21477 133.68849 169.87163 133.68849C171.52847 133.68849 172.87163 135.03165 172.87163 136.68849Z" fill-rule="nonzero"/><path fill="#000000" fill-opacity="0.0" clip-path="url(#id_0)" d="M176.85127 136.8505C176.85127 138.50735 175.50813 139.8505 173.85127 139.8505C172.19443 139.8505 170.85127 138.50735 170.85127 136.8505C170.85127 135.19365 172.19443 133.8505 173.85127 133.8505C175.50813 133.8505 176.85127 135.19365 176.85127 136.8505Z" fill-rule="nonzero"/><path fill="#000000" fill-opacity="0.0" clip-path="url(#id_0)" d="M180.83093 136.94931C180.83093 138.60616 179.48778 139.94931 177.83093 139.94931C176.17407 139.94931 174.83093 138.60616 174.83093 136.94931C174.83093 135.29245 176.17407 133.94931 177.83093 133.94931C179.48778 133.94931 180.83093 135.29245 180.83093 136.94931Z" fill-rule="nonzero"/><path fill="#000000" fill-opacity="0.0" clip-path="url(#id_0)" d="M184.6822 137.0111C184.6822 138.66794 183.33907 140.0111 181.6822 140.0111C180.02536 140.0111 178.6822 138.66794 178.6822 137.0111C178.6822 135.35423 180.02536 134.0111 181.6822 134.0111C183.33907 134.0111 184.6822 135.35423 184.6822 137.0111Z" fill-rule="nonzero"/><path fill="#000000" fill-opacity="0.0" clip-path="url(#id_0)" d="M188.66187 137.05113C188.66187 138.708 187.31871 140.05113 185.66187 140.05113C184.005 140.05113 182.66187 138.708 182.66187 137.05113C182.66187 135.39429 184.005 134.05113 185.66187 134.05113C187.31871 134.05113 188.66187 135.39429 188.66187 137.05113Z" fill-rule="nonzero"/><path fill="#000000" fill-opacity="0.0" clip-path="url(#id_0)" d="M192.51314 137.07837C192.51314 138.73523 191.17 140.07837 189.51314 140.07837C187.85628 140.07837 186.51314 138.73523 186.51314 137.07837C186.51314 135.42152 187.85628 134.07837 189.51314 134.07837C191.17 134.07837 192.51314 135.42152 192.51314 137.07837Z" fill-rule="nonzero"/><path fill="#000000" fill-opacity="0.0" clip-path="url(#id_0)" d="M196.4928 137.098C196.4928 138.75487 195.14964 140.098 193.4928 140.098C191.83594 140.098 190.4928 138.75487 190.4928 137.098C190.4928 135.44116 191.83594 134.098 193.4928 134.098C195.14964 134.098 196.4928 135.44116 196.4928 137.098Z" fill-rule="nonzero"/><path fill="#000000" fill-opacity="0.0" clip-path="url(#id_0)" d="M200.47244 137.1131C200.47244 138.76994 199.1293 140.1131 197.47244 140.1131C195.8156 140.1131 194.47244 138.76994 194.47244 137.1131C194.47244 135.45624 195.8156 134.1131 197.47244 134.1131C199.1293 134.1131 200.47244 135.45624 200.47244 137.1131Z" fill-rule="nonzero"/><path fill="#000000" fill-opacity="0.0" clip-path="url(#id_0)" d="M204.06697 137.12541C204.06697 138.78226 202.72383 140.12541 201.06697 140.12541C199.41011 140.12541 198.06697 138.78226 198.06697 137.12541C198.06697 135.46855 199.41011 134.12541 201.06697 134.12541C202.72383 134.12541 204.06697 135.46855 204.06697 137.12541Z" fill-rule="nonzero"/><path fill="#000000" fill-opacity="0.0" clip-path="url(#id_0)" d="M208.04663 137.13599C208.04663 138.79283 206.70348 140.13599 205.04663 140.13599C203.38977 140.13599 202.04663 138.79283 202.04663 137.13599C202.04663 135.47913 203.38977 134.13599 205.04663 134.13599C206.70348 134.13599 208.04663 135.47913 208.04663 137.13599Z" fill-rule="nonzero"/><path fill="#000000" fill-opacity="0.0" clip-path="url(#id_0)" d="M211.8979 137.14545C211.8979 138.80229 210.55475 140.14545 208.8979 140.14545C207.24104 140.14545 205.8979 138.80229 205.8979 137.14545C205.8979 135.48859 207.24104 134.14545 208.8979 134.14545C210.55475 134.14545 211.8979 135.48859 211.8979 137.14545Z" fill-rule="nonzero"/><path fill="#000000" fill-opacity="0.0" clip-path="url(#id_0)" d="M215.87755 137.15414C215.87755 138.811 214.53441 140.15414 212.87755 140.15414C211.2207 140.15414 209.87755 138.811 209.87755 137.15414C209.87755 135.4973 211.2207 134.15414 212.87755 134.15414C214.53441 134.15414 215.87755 135.4973 215.87755 137.15414Z" fill-rule="nonzero"/><path fill="#000000" fill-opacity="0.0" clip-path="url(#id_0)" d="M219.72884 137.16232C219.72884 138.81917 218.38568 140.16232 216.72884 140.16232C215.07198 140.16232 213.72884 138.81917 213.72884 137.16232C213.72884 135.50546 215.07198 134.16232 216.72884 134.16232C218.38568 134.16232 219.72884 135.50546 219.72884 137.16232Z" fill-rule="nonzero"/><path fill="#000000" fill-opacity="0.0" clip-path="url(#id_0)" d="M223.70848 137.17006C223.70848 138.82692 222.36534 140.17006 220.70848 140.17006C219.05164 140.17006 217.70848 138.82692 217.70848 137.17006C217.70848 135.51321 219.05164 134.17006 220.70848 134.17006C222.36534 134.17006 223.70848 135.51321 223.70848 137.17006Z" fill-rule="nonzero"/><path fill="#000000" fill-opacity="0.0" clip-path="url(#id_0)" d="M227.68814 137.17747C227.68814 138.83434 226.34499 140.17747 224.68814 140.17747C223.03128 140.17747 221.68814 138.83434 221.68814 137.17747C221.68814 135.52063 223.03128 134.17747 224.68814 134.17747C226.34499 134.17747 227.68814 135.52063 227.68814 137.17747Z" fill-rule="nonzero"/><path fill="#000000" fill-opacity="0.0" clip-path="url(#id_0)" d="M231.53941 137.1846C231.53941 138.84146 230.19627 140.1846 228.53941 140.1846C226.88257 140.1846 225.53941 138.84146 225.53941 137.1846C225.53941 135.52776 226.88257 134.1846 228.53941 134.1846C230.19627 134.1846 231.53941 135.52776 231.53941 137.1846Z" fill-rule="nonzero"/><path fill="#000000" fill-opacity="0.0" clip-path="url(#id_0)" d="M235.51907 137.19148C235.51907 138.84833 234.17592 140.19148 232.51907 140.19148C230.86221 140.19148 229.51907 138.84833 229.51907 137.19148C229.51907 135.53462 230.86221 134.19148 232.51907 134.19148C234.17592 134.19148 235.51907 135.53462 235.51907 137.19148Z" fill-rule="nonzero"/><path fill="#000000" fill-opacity="0.0" clip-path="url(#id_0)" d="M239.37035 137.19812C239.37035 138.85497 238.0272 140.19812 236.37035 140.19812C234.71349 140.19812 233.37035 138.85497 233.37035 137.19812C233.37035 135.54126 234.71349 134.19812 236.37035 134.19812C238.0272 134.19812 239.37035 135.54126 239.37035 137.19812Z" fill-rule="nonzero"/><path fill="#000000" fill-opacity="0.0" clip-path="url(#id_0)" d="M243.35 137.20453C243.35 138.86139 242.00685 140.20453 240.35 140.20453C238.69315 140.20453 237.35 138.86139 237.35 137.20453C237.35 135.54768 238.69315 134.20453 240.35 134.20453C242.00685 134.20453 243.35 135.54768 243.35 137.20453Z" fill-rule="nonzero"/><path fill="#000000" fill-opacity="0.0" clip-path="url(#id_0)" d="M102.65 118.73541C102.65 120.392265 101.306854 121.73541 99.65 121.73541C97.99315 121.73541 96.65 120.392265 96.65 118.73541C96.65 117.07856 97.99315 115.73541 99.65 115.73541C101.306854 115.73541 102.65 117.07856 102.65 118.73541Z" fill-rule="nonzero"/><path fill="#000000" fill-opacity="0.0" clip-path="url(#id_0)" d="M106.629654 118.76056C106.629654 120.41741 105.28651 121.76056 103.629654 121.76056C101.9728 121.76056 100.629654 120.41741 100.629654 118.76056C100.629654 117.10371 101.9728 115.76056 103.629654 115.76056C105.28651 115.76056 106.629654 117.10371 106.629654 118.76056Z" fill-rule="nonzero"/><path fill="#000000" fill-opacity="0.0" clip-path="url(#id_0)" d="M110.22418 118.784904C110.22418 120.44176 108.881035 121.784904 107.22418 121.784904C105.56732 121.784904 104.22418 120.44176 104.22418 118.784904C104.22418 117.12805 105.56732 115.784904 107.22418 115.784904C108.881035 115.784904 110.22418 117.12805 110.22418 118.784904Z" fill-rule="nonzero"/><path fill="#000000" fill-opacity="0.0" clip-path="url(#id_0)" d="M114.203835 118.80849C114.203835 120.46534 112.86069 121.80849 111.203835 121.80849C109.546974 121.80849 108.203835 120.46534 108.203835 118.80849C108.203835 117.151634 109.546974 115.80849 111.203835 115.80849C112.86069 115.80849 114.203835 117.151634 114.203835 118.80849Z" fill-rule="nonzero"/><path fill="#000000" fill-opacity="0.0" clip-path="url(#id_0)" d="M118.05511 118.831314C118.05511 120.488174 116.71197 121.831314 115.05511 121.831314C113.398254 121.831314 112.05511 120.488174 112.05511 118.831314C112.05511 117.17446 113.398254 115.831314 115.05511 115.831314C116.71197 115.831314 118.05511 117.17446 118.05511 118.831314Z" fill-rule="nonzero"/><path fill="#000000" fill-opacity="0.0" clip-path="url(#id_0)" d="M122.03476 118.85343C122.03476 120.510284 120.69162 121.85343 119.03476 121.85343C117.37791 121.85343 116.03476 120.510284 116.03476 118.85343C116.03476 117.19658 117.37791 115.85343 119.03476 115.85343C120.69162 115.85343 122.03476 117.19658 122.03476 118.85343Z" fill-rule="nonzero"/><path fill="#000000" fill-opacity="0.0" clip-path="url(#id_0)" d="M125.88604 118.87484C125.88604 120.5317 124.54289 121.87484 122.88604 121.87484C121.22919 121.87484 119.88604 120.5317 119.88604 118.87484C119.88604 117.21799 121.22919 115.87484 122.88604 115.87484C124.54289 115.87484 125.88604 117.21799 125.88604 118.87484Z" fill-rule="nonzero"/><path fill="#000000" fill-opacity="0.0" clip-path="url(#id_0)" d="M129.86569 118.89558C129.86569 120.55243 128.52255 121.89558 126.86569 121.89558C125.20884 121.89558 123.86569 120.55243 123.86569 118.89558C123.86569 117.23872 125.20884 115.89558 126.86569 115.89558C128.52255 115.89558 129.86569 117.23872 129.86569 118.89558Z" fill-rule="nonzero"/><path fill="#000000" fill-opacity="0.0" clip-path="url(#id_0)" d="M133.84535 118.91566C133.84535 120.57251 132.5022 121.91566 130.84535 121.91566C129.18849 121.91566 127.845345 120.57251 127.845345 118.91566C127.845345 117.258804 129.18849 115.91566 130.84535 115.91566C132.5022 115.91566 133.84535 117.258804 133.84535 118.91566Z" fill-rule="nonzero"/><path fill="#000000" fill-opacity="0.0" clip-path="url(#id_0)" d="M137.69662 118.9351C137.69662 120.59196 136.35349 121.9351 134.69662 121.9351C133.03976 121.9351 131.69662 120.59196 131.69662 118.9351C131.69662 117.278244 133.03976 115.9351 134.69662 115.9351C136.35349 115.9351 137.69662 117.278244 137.69662 118.9351Z" fill-rule="nonzero"/><path fill="#000000" fill-opacity="0.0" clip-path="url(#id_0)" d="M141.67628 118.95393C141.67628 120.61079 140.33313 121.95393 138.67628 121.95393C137.01942 121.95393 135.67628 120.61079 135.67628 118.95393C135.67628 117.29707 137.01942 115.95393 138.67628 115.95393C140.33313 115.95393 141.67628 117.29707 141.67628 118.95393Z" fill-rule="nonzero"/><path fill="#000000" fill-opacity="0.0" clip-path="url(#id_0)" d="M145.52756 118.97217C145.52756 120.62902 144.1844 121.97217 142.52756 121.97217C140.8707 121.97217 139.52756 120.62902 139.52756 118.97217C139.52756 117.315315 140.8707 115.97217 142.52756 115.97217C144.1844 115.97217 145.52756 117.315315 145.52756 118.97217Z" fill-rule="nonzero"/><path fill="#000000" fill-opacity="0.0" clip-path="url(#id_0)" d="M149.5072 101.61657C149.5072 103.27343 148.16406 104.61657 146.5072 104.61657C144.85036 104.61657 143.5072 103.27343 143.5072 101.61657C143.5072 99.95972 144.85036 98.61657 146.5072 98.61657C148.16406 98.61657 149.5072 99.95972 149.5072 101.61657Z" fill-rule="nonzero"/><path fill="#000000" fill-opacity="0.0" clip-path="url(#id_0)" d="M153.48686 93.799255C153.48686 95.45611 152.14372 96.799255 150.48686 96.799255C148.83 96.799255 147.48686 95.45611 147.48686 93.799255C147.48686 92.1424 148.83 90.799255 150.48686 90.799255C152.14372 90.799255 153.48686 92.1424 153.48686 93.799255Z" fill-rule="nonzero"/><path fill="#000000" fill-opacity="0.0" clip-path="url(#id_0)" d="M157.20976 89.3255C157.20976 90.98235 155.86662 92.3255 154.20976 92.3255C152.5529 92.3255 151.20976 90.98235 151.20976 89.3255C151.20976 87.66865 152.5529 86.3255 154.20976 86.3255C155.86662 86.3255 157.20976 87.66865 157.20976 89.3255Z" fill-rule="nonzero"/><path fill="#000000" fill-opacity="0.0" clip-path="url(#id_0)" d="M161.18942 86.73724C161.18942 88.394104 159.84627 89.73724 158.18942 89.73724C156.53256 89.73724 155.18942 88.394104 155.18942 86.73724C155.18942 85.08039 156.53256 83.73724 158.18942 83.73724C159.84627 83.73724 161.18942 85.08039 161.18942 86.73724Z" fill-rule="nonzero"/><path fill="#000000" fill-opacity="0.0" clip-path="url(#id_0)" d="M165.0407 85.238686C165.0407 86.89554 163.69754 88.238686 162.0407 88.238686C160.38383 88.238686 159.0407 86.89554 159.0407 85.238686C159.0407 83.58183 160.38383 82.238686 162.0407 82.238686C163.69754 82.238686 165.0407 83.58183 165.0407 85.238686Z" fill-rule="nonzero"/><path fill="#000000" fill-opacity="0.0" clip-path="url(#id_0)" d="M169.02034 84.37344C169.02034 86.0303 167.6772 87.37344 166.02034 87.37344C164.3635 87.37344 163.02034 86.0303 163.02034 84.37344C163.02034 82.71659 164.3635 81.37344 166.02034 81.37344C167.6772 81.37344 169.02034 82.71659 169.02034 84.37344Z" fill-rule="nonzero"/><path fill="#000000" fill-opacity="0.0" clip-path="url(#id_0)" d="M172.87163 83.876945C172.87163 85.533806 171.52847 86.876945 169.87163 86.876945C168.21477 86.876945 166.87163 85.533806 166.87163 83.876945C166.87163 82.22009 168.21477 80.876945 169.87163 80.876945C171.52847 80.876945 172.87163 82.22009 172.87163 83.876945Z" fill-rule="nonzero"/><path fill="#000000" fill-opacity="0.0" clip-path="url(#id_0)" d="M176.85127 83.595245C176.85127 85.252106 175.50813 86.595245 173.85127 86.595245C172.19443 86.595245 170.85127 85.252106 170.85127 83.595245C170.85127 81.93839 172.19443 80.595245 173.85127 80.595245C175.50813 80.595245 176.85127 81.93839 176.85127 83.595245Z" fill-rule="nonzero"/><path fill="#000000" fill-opacity="0.0" clip-path="url(#id_0)" d="M180.83093 83.438614C180.83093 85.09547 179.48778 86.438614 177.83093 86.438614C176.17407 86.438614 174.83093 85.09547 174.83093 83.438614C174.83093 81.78176 176.17407 80.438614 177.83093 80.438614C179.48778 80.438614 180.83093 81.78176 180.83093 83.438614Z" fill-rule="nonzero"/><path fill="#000000" fill-opacity="0.0" clip-path="url(#id_0)" d="M184.6822 83.35472C184.6822 85.01157 183.33907 86.35472 181.6822 86.35472C180.02536 86.35472 178.6822 85.01157 178.6822 83.35472C178.6822 81.69787 180.02536 80.35472 181.6822 80.35472C183.33907 80.35472 184.6822 81.69787 184.6822 83.35472Z" fill-rule="nonzero"/><path fill="#000000" fill-opacity="0.0" clip-path="url(#id_0)" d="M188.66187 83.31304C188.66187 84.969894 187.31871 86.31304 185.66187 86.31304C184.005 86.31304 182.66187 84.969894 182.66187 83.31304C182.66187 81.65619 184.005 80.31304 185.66187 80.31304C187.31871 80.31304 188.66187 81.65619 188.66187 83.31304Z" fill-rule="nonzero"/><path fill="#000000" fill-opacity="0.0" clip-path="url(#id_0)" d="M192.51314 83.29578C192.51314 84.95263 191.17 86.29578 189.51314 86.29578C187.85628 86.29578 186.51314 84.95263 186.51314 83.29578C186.51314 81.63892 187.85628 80.29578 189.51314 80.29578C191.17 80.29578 192.51314 81.63892 192.51314 83.29578Z" fill-rule="nonzero"/><path fill="#000000" fill-opacity="0.0" clip-path="url(#id_0)" d="M196.4928 83.292534C196.4928 84.94939 195.14964 86.292534 193.4928 86.292534C191.83594 86.292534 190.4928 84.94939 190.4928 83.292534C190.4928 81.63568 191.83594 80.292534 193.4928 80.292534C195.14964 80.292534 196.4928 81.63568 196.4928 83.292534Z" fill-rule="nonzero"/><path fill="#000000" fill-opacity="0.0" clip-path="url(#id_0)" d="M200.47244 83.29726C200.47244 84.95411 199.1293 86.29726 197.47244 86.29726C195.8156 86.29726 194.47244 84.95411 194.47244 83.29726C194.47244 81.6404 195.8156 80.29726 197.47244 80.29726C199.1293 80.29726 200.47244 81.6404 200.47244 83.29726Z" fill-rule="nonzero"/><path fill="#000000" fill-opacity="0.0" clip-path="url(#id_0)" d="M204.06697 83.30643C204.06697 84.96328 202.72383 86.30643 201.06697 86.30643C199.41011 86.30643 198.06697 84.96328 198.06697 83.30643C198.06697 81.649574 199.41011 80.30643 201.06697 80.30643C202.72383 80.30643 204.06697 81.649574 204.06697 83.30643Z" fill-rule="nonzero"/><path fill="#000000" fill-opacity="0.0" clip-path="url(#id_0)" d="M208.04663 83.317986C208.04663 84.97484 206.70348 86.317986 205.04663 86.317986C203.38977 86.317986 202.04663 84.97484 202.04663 83.317986C202.04663 81.661125 203.38977 80.317986 205.04663 80.317986C206.70348 80.317986 208.04663 81.661125 208.04663 83.317986Z" fill-rule="nonzero"/><path fill="#000000" fill-opacity="0.0" clip-path="url(#id_0)" d="M211.8979 83.33074C211.8979 84.987595 210.55475 86.33074 208.8979 86.33074C207.24104 86.33074 205.8979 84.987595 205.8979 83.33074C205.8979 81.67388 207.24104 80.33074 208.8979 80.33074C210.55475 80.33074 211.8979 81.67388 211.8979 83.33074Z" fill-rule="nonzero"/><path fill="#000000" fill-opacity="0.0" clip-path="url(#id_0)" d="M215.87755 83.34401C215.87755 85.00086 214.53441 86.34401 212.87755 86.34401C211.2207 86.34401 209.87755 85.00086 209.87755 83.34401C209.87755 81.68716 211.2207 80.34401 212.87755 80.34401C214.53441 80.34401 215.87755 81.68716 215.87755 83.34401Z" fill-rule="nonzero"/><path fill="#000000" fill-opacity="0.0" clip-path="url(#id_0)" d="M219.72884 83.35739C219.72884 85.014244 218.38568 86.35739 216.72884 86.35739C215.07198 86.35739 213.72884 85.014244 213.72884 83.35739C213.72884 81.70053 215.07198 80.35739 216.72884 80.35739C218.38568 80.35739 219.72884 81.70053 219.72884 83.35739Z" fill-rule="nonzero"/><path fill="#000000" fill-opacity="0.0" clip-path="url(#id_0)" d="M223.70848 83.37066C223.70848 85.02751 222.36534 86.37066 220.70848 86.37066C219.05164 86.37066 217.70848 85.02751 217.70848 83.37066C217.70848 81.7138 219.05164 80.37066 220.70848 80.37066C222.36534 80.37066 223.70848 81.7138 223.70848 83.37066Z" fill-rule="nonzero"/><path fill="#000000" fill-opacity="0.0" clip-path="url(#id_0)" d="M227.68814 83.38369C227.68814 85.04054 226.34499 86.38369 224.68814 86.38369C223.03128 86.38369 221.68814 85.04054 221.68814 83.38369C221.68814 81.72683 223.03128 80.38369 224.68814 80.38369C226.34499 80.38369 227.68814 81.72683 227.68814 83.38369Z" fill-rule="nonzero"/><path fill="#000000" fill-opacity="0.0" clip-path="url(#id_0)" d="M231.53941 83.396416C231.53941 85.05327 230.19627 86.396416 228.53941 86.396416C226.88257 86.396416 225.53941 85.05327 225.53941 83.396416C225.53941 81.73956 226.88257 80.396416 228.53941 80.396416C230.19627 80.396416 231.53941 81.73956 231.53941 83.396416Z" fill-rule="nonzero"/><path fill="#000000" fill-opacity="0.0" clip-path="url(#id_0)" d="M235.51907 83.4088C235.51907 85.06566 234.17592 86.4088 232.51907 86.4088C230.86221 86.4088 229.51907 85.06566 229.51907 83.4088C229.51907 81.751945 230.86221 80.4088 232.51907 80.4088C234.17592 80.4088 235.51907 81.751945 235.51907 83.4088Z" fill-rule="nonzero"/><path fill="#000000" fill-opacity="0.0" clip-path="url(#id_0)" d="M239.37035 83.42083C239.37035 85.07769 238.0272 86.42083 236.37035 86.42083C234.71349 86.42083 233.37035 85.07769 233.37035 83.42083C233.37035 81.76398 234.71349 80.42083 236.37035 80.42083C238.0272 80.42083 239.37035 81.76398 239.37035 83.42083Z" fill-rule="nonzero"/><path fill="#000000" fill-opacity="0.0" clip-path="url(#id_0)" d="M243.35 83.4325C243.35 85.089355 242.00685 86.4325 240.35 86.4325C238.69315 86.4325 237.35 85.089355 237.35 83.4325C237.35 81.77565 238.69315 80.4325 240.35 80.4325C242.00685 80.4325 243.35 81.77565 243.35 83.4325Z" fill-rule="nonzero"/><path fill="#000000" d="M152.39062 354.35L152.39062 341.45938L156.82812 341.45938Q158.32812 341.45938 159.125 341.64688Q160.23438 341.89688 161.01562 342.56876Q162.03125 343.42813 162.53125 344.77188Q163.04688 346.11563 163.04688 347.83438Q163.04688 349.30313 162.70312 350.44376Q162.35938 351.56876 161.8125 352.31876Q161.28125 353.05313 160.64062 353.49063Q160.01562 353.9125 159.10938 354.13126Q158.20312 354.35 157.03125 354.35L152.39062 354.35ZM154.09375 352.83438L156.84375 352.83438Q158.125 352.83438 158.84375 352.6Q159.5625 352.35 160.0 351.92813Q160.60938 351.31876 160.9375 350.30313Q161.28125 349.27188 161.28125 347.80313Q161.28125 345.7875 160.60938 344.70938Q159.95312 343.61563 159.0 343.25626Q158.32812 342.99063 156.79688 342.99063L154.09375 342.99063L154.09375 352.83438ZM171.28125 353.19376Q170.40625 353.94376 169.57812 354.25626Q168.76562 354.56876 167.84375 354.56876Q166.29688 354.56876 165.46875 353.81876Q164.65625 353.05313 164.65625 351.88126Q164.65625 351.20938 164.96875 350.64688Q165.28125 350.06876 165.78125 349.725Q166.28125 349.38126 166.92188 349.20938Q167.39062 349.08438 168.32812 348.975Q170.23438 348.74063 171.14062 348.42813Q171.15625 348.1 171.15625 348.00626Q171.15625 347.05313 170.70312 346.64688Q170.09375 346.11563 168.90625 346.11563Q167.78125 346.11563 167.25 346.50626Q166.71875 346.89688 166.46875 347.89688L164.92188 347.67813Q165.14062 346.67813 165.60938 346.06876Q166.09375 345.45938 167.0 345.13126Q167.92188 344.80313 169.14062 344.80313Q170.32812 344.80313 171.07812 345.08438Q171.82812 345.36563 172.17188 345.80313Q172.53125 346.225 172.67188 346.86563Q172.75 347.27188 172.75 348.33438L172.75 350.44376Q172.75 352.64688 172.84375 353.24063Q172.95312 353.81876 173.25 354.35L171.59375 354.35Q171.34375 353.85 171.28125 353.19376ZM171.14062 349.6625Q170.28125 350.02188 168.5625 350.25626Q167.59375 350.39688 167.1875 350.58438Q166.78125 350.75626 166.5625 351.1Q166.34375 351.42813 166.34375 351.85Q166.34375 352.475 166.8125 352.89688Q167.29688 353.31876 168.21875 353.31876Q169.14062 353.31876 169.84375 352.92813Q170.5625 352.52188 170.89062 351.83438Q171.14062 351.2875 171.14062 350.24063L171.14062 349.6625ZM178.64062 352.92813L178.875 354.33438Q178.20312 354.475 177.67188 354.475Q176.8125 354.475 176.32812 354.20938Q175.85938 353.92813 175.67188 353.49063Q175.48438 353.0375 175.48438 351.61563L175.48438 346.24063L174.3125 346.24063L174.3125 345.02188L175.48438 345.02188L175.48438 342.70938L177.04688 341.75626L177.04688 345.02188L178.64062 345.02188L178.64062 346.24063L177.04688 346.24063L177.04688 351.70938Q177.04688 352.38126 177.125 352.58438Q177.21875 352.77188 177.40625 352.88126Q177.59375 352.99063 177.95312 352.99063Q178.20312 352.99063 178.64062 352.92813ZM186.57812 351.35L188.21875 351.55313Q187.82812 352.975 186.78125 353.77188Q185.73438 354.56876 184.10938 354.56876Q182.0625 354.56876 180.85938 353.30313Q179.65625 352.0375 179.65625 349.75626Q179.65625 347.4125 180.85938 346.11563Q182.07812 344.80313 184.01562 344.80313Q185.89062 344.80313 187.07812 346.08438Q188.26562 347.35 188.26562 349.6625Q188.26562 349.80313 188.25 350.08438L181.29688 350.08438Q181.375 351.63126 182.15625 352.44376Q182.95312 353.25626 184.10938 353.25626Q184.98438 353.25626 185.59375 352.80313Q186.21875 352.35 186.57812 351.35ZM181.375 348.7875L186.59375 348.7875Q186.48438 347.61563 186.0 347.02188Q185.23438 346.1 184.03125 346.1Q182.95312 346.1 182.20312 346.83438Q181.46875 347.56876 181.375 348.7875Z" fill-rule="nonzero"/><path fill="#000000" d="M29.650005 219.60938L16.75938 219.60938L16.75938 214.75Q16.75938 213.46875 16.88438 212.79688Q17.04063 211.84375 17.493755 211.20312Q17.931255 210.5625 18.743755 210.17188Q19.54063 209.78125 20.493755 209.78125Q22.13438 209.78125 23.275005 210.82812Q24.41563 211.875 24.41563 214.59375L24.41563 217.90625L29.650005 217.90625L29.650005 219.60938ZM22.88438 217.90625L22.88438 214.57812Q22.88438 212.92188 22.275005 212.23438Q21.66563 211.53125 20.54063 211.53125Q19.72813 211.53125 19.16563 211.9375Q18.587505 212.34375 18.400005 213.01562Q18.29063 213.45312 18.29063 214.60938L18.29063 217.90625L22.88438 217.90625ZM29.650005 207.82812L20.32188 207.82812L20.32188 206.40625L21.72813 206.40625Q20.743755 205.85938 20.431255 205.40625Q20.10313 204.9375 20.10313 204.39062Q20.10313 203.57812 20.618755 202.76562L22.087505 203.29688Q21.743755 203.89062 21.743755 204.46875Q21.743755 204.98438 22.056255 205.40625Q22.368755 205.8125 22.91563 205.98438Q23.75938 206.25 24.75938 206.25L29.650005 206.25L29.650005 207.82812ZM26.650005 195.42188L26.85313 193.78125Q28.275005 194.17188 29.07188 195.21875Q29.868755 196.26562 29.868755 197.89062Q29.868755 199.9375 28.60313 201.14062Q27.337505 202.34375 25.056255 202.34375Q22.712505 202.34375 21.41563 201.14062Q20.10313 199.92188 20.10313 197.98438Q20.10313 196.10938 21.38438 194.92188Q22.650005 193.73438 24.962505 193.73438Q25.10313 193.73438 25.38438 193.75L25.38438 200.70312Q26.931255 200.625 27.743755 199.84375Q28.556255 199.04688 28.556255 197.89062Q28.556255 197.01562 28.10313 196.40625Q27.650005 195.78125 26.650005 195.42188ZM24.087505 200.625L24.087505 195.40625Q22.91563 195.51562 22.32188 196.0Q21.400005 196.76562 21.400005 197.96875Q21.400005 199.04688 22.13438 199.79688Q22.868755 200.53125 24.087505 200.625ZM26.868755 192.45312L26.618755 190.875Q27.556255 190.75 28.056255 190.15625Q28.556255 189.54688 28.556255 188.46875Q28.556255 187.375 28.118755 186.84375Q27.66563 186.3125 27.07188 186.3125Q26.54063 186.3125 26.22813 186.78125Q26.025005 187.10938 25.69688 188.40625Q25.25938 190.14062 24.94688 190.8125Q24.618755 191.48438 24.056255 191.84375Q23.47813 192.1875 22.79063 192.1875Q22.16563 192.1875 21.63438 191.90625Q21.10313 191.60938 20.75938 191.125Q20.47813 190.75 20.29063 190.10938Q20.10313 189.46875 20.10313 188.75Q20.10313 187.64062 20.431255 186.8125Q20.743755 185.98438 21.29063 185.59375Q21.82188 185.1875 22.72813 185.04688L22.931255 186.59375Q22.212505 186.70312 21.806255 187.20312Q21.400005 187.70312 21.400005 188.625Q21.400005 189.71875 21.75938 190.1875Q22.118755 190.65625 22.60313 190.65625Q22.91563 190.65625 23.16563 190.45312Q23.41563 190.26562 23.587505 189.85938Q23.66563 189.60938 23.993755 188.45312Q24.431255 186.78125 24.72813 186.125Q25.00938 185.45312 25.556255 185.07812Q26.10313 184.6875 26.900005 184.6875Q27.69688 184.6875 28.400005 185.15625Q29.10313 185.60938 29.493755 186.48438Q29.868755 187.35938 29.868755 188.45312Q29.868755 190.28125 29.118755 191.23438Q28.35313 192.1875 26.868755 192.45312ZM26.868755 183.45312L26.618755 181.875Q27.556255 181.75 28.056255 181.15625Q28.556255 180.54688 28.556255 179.46875Q28.556255 178.375 28.118755 177.84375Q27.66563 177.3125 27.07188 177.3125Q26.54063 177.3125 26.22813 177.78125Q26.025005 178.10938 25.69688 179.40625Q25.25938 181.14062 24.94688 181.8125Q24.618755 182.48438 24.056255 182.84375Q23.47813 183.1875 22.79063 183.1875Q22.16563 183.1875 21.63438 182.90625Q21.10313 182.60938 20.75938 182.125Q20.47813 181.75 20.29063 181.10938Q20.10313 180.46875 20.10313 179.75Q20.10313 178.64062 20.431255 177.8125Q20.743755 176.98438 21.29063 176.59375Q21.82188 176.1875 22.72813 176.04688L22.931255 177.59375Q22.212505 177.70312 21.806255 178.20312Q21.400005 178.70312 21.400005 179.625Q21.400005 180.71875 21.75938 181.1875Q22.118755 181.65625 22.60313 181.65625Q22.91563 181.65625 23.16563 181.45312Q23.41563 181.26562 23.587505 180.85938Q23.66563 180.60938 23.993755 179.45312Q24.431255 177.78125 24.72813 177.125Q25.00938 176.45312 25.556255 176.07812Q26.10313 175.6875 26.900005 175.6875Q27.69688 175.6875 28.400005 176.15625Q29.10313 176.60938 29.493755 177.48438Q29.868755 178.35938 29.868755 179.45312Q29.868755 181.28125 29.118755 182.23438Q28.35313 183.1875 26.868755 183.45312ZM29.650005 167.70312L28.275005 167.70312Q29.868755 168.78125 29.868755 170.65625Q29.868755 171.48438 29.556255 172.20312Q29.22813 172.92188 28.75938 173.26562Q28.275005 173.60938 27.57188 173.75Q27.10313 173.84375 26.10313 173.84375L20.32188 173.84375L20.32188 172.26562L25.493755 172.26562Q26.72813 172.26562 27.16563 172.17188Q27.79063 172.01562 28.150005 171.53125Q28.493755 171.04688 28.493755 170.34375Q28.493755 169.625 28.13438 169.0Q27.775005 168.375 27.150005 168.125Q26.50938 167.85938 25.32188 167.85938L20.32188 167.85938L20.32188 166.28125L29.650005 166.28125L29.650005 167.70312ZM29.650005 163.82812L20.32188 163.82812L20.32188 162.40625L21.72813 162.40625Q20.743755 161.85938 20.431255 161.40625Q20.10313 160.9375 20.10313 160.39062Q20.10313 159.57812 20.618755 158.76562L22.087505 159.29688Q21.743755 159.89062 21.743755 160.46875Q21.743755 160.98438 22.056255 161.40625Q22.368755 161.8125 22.91563 161.98438Q23.75938 162.25 24.75938 162.25L29.650005 162.25L29.650005 163.82812ZM26.650005 151.42188L26.85313 149.78125Q28.275005 150.17188 29.07188 151.21875Q29.868755 152.26562 29.868755 153.89062Q29.868755 155.9375 28.60313 157.14062Q27.337505 158.34375 25.056255 158.34375Q22.712505 158.34375 21.41563 157.14062Q20.10313 155.92188 20.10313 153.98438Q20.10313 152.10938 21.38438 150.92188Q22.650005 149.73438 24.962505 149.73438Q25.10313 149.73438 25.38438 149.75L25.38438 156.70312Q26.931255 156.625 27.743755 155.84375Q28.556255 155.04688 28.556255 153.89062Q28.556255 153.01562 28.10313 152.40625Q27.650005 151.78125 26.650005 151.42188ZM24.087505 156.625L24.087505 151.40625Q22.91563 151.51562 22.32188 152.0Q21.400005 152.76562 21.400005 153.96875Q21.400005 155.04688 22.13438 155.79688Q22.868755 156.53125 24.087505 156.625ZM29.650005 147.40625L27.85313 147.40625L27.85313 145.59375L29.650005 145.59375Q30.650005 145.59375 31.25938 145.95312Q31.868755 146.29688 32.19688 147.0625L31.525005 147.5Q31.306255 147.0 30.868755 146.76562Q30.44688 146.53125 29.650005 146.5L29.650005 147.40625ZM29.650005 137.65625L16.75938 137.65625L16.75938 135.09375L25.88438 132.04688Q27.16563 131.625 27.79063 131.4375Q27.087505 131.21875 25.72813 130.75L16.75938 127.65625L16.75938 125.375L29.650005 125.375L29.650005 127.015625L18.868755 127.015625L29.650005 130.75L29.650005 132.29688L18.681255 136.01562L29.650005 136.01562L29.650005 137.65625ZM29.650005 122.609375L16.75938 122.609375L16.75938 117.75Q16.75938 116.46875 16.88438 115.796875Q17.04063 114.84375 17.493755 114.203125Q17.931255 113.5625 18.743755 113.171875Q19.54063 112.78125 20.493755 112.78125Q22.13438 112.78125 23.275005 113.828125Q24.41563 114.875 24.41563 117.59375L24.41563 120.90625L29.650005 120.90625L29.650005 122.609375ZM22.88438 120.90625L22.88438 117.578125Q22.88438 115.921875 22.275005 115.234375Q21.66563 114.53125 20.54063 114.53125Q19.72813 114.53125 19.16563 114.9375Q18.587505 115.34375 18.400005 116.015625Q18.29063 116.453125 18.29063 117.609375L18.29063 120.90625L22.88438 120.90625ZM28.493755 104.71875Q29.243755 105.59375 29.556255 106.421875Q29.868755 107.234375 29.868755 108.15625Q29.868755 109.703125 29.118755 110.53125Q28.35313 111.34375 27.181255 111.34375Q26.50938 111.34375 25.94688 111.03125Q25.368755 110.71875 25.025005 110.21875Q24.681255 109.71875 24.50938 109.078125Q24.38438 108.609375 24.275005 107.671875Q24.04063 105.765625 23.72813 104.859375Q23.400005 104.84375 23.306255 104.84375Q22.35313 104.84375 21.94688 105.296875Q21.41563 105.90625 21.41563 107.09375Q21.41563 108.21875 21.806255 108.75Q22.19688 109.28125 23.19688 109.53125L22.97813 111.078125Q21.97813 110.859375 21.368755 110.390625Q20.75938 109.90625 20.431255 109.0Q20.10313 108.078125 20.10313 106.859375Q20.10313 105.671875 20.38438 104.921875Q20.66563 104.171875 21.10313 103.828125Q21.525005 103.46875 22.16563 103.328125Q22.57188 103.25 23.63438 103.25L25.743755 103.25Q27.94688 103.25 28.54063 103.15625Q29.118755 103.046875 29.650005 102.75L29.650005 104.40625Q29.150005 104.65625 28.493755 104.71875ZM24.962505 104.859375Q25.32188 105.71875 25.556255 107.4375Q25.69688 108.40625 25.88438 108.8125Q26.056255 109.21875 26.400005 109.4375Q26.72813 109.65625 27.150005 109.65625Q27.775005 109.65625 28.19688 109.1875Q28.618755 108.703125 28.618755 107.78125Q28.618755 106.859375 28.22813 106.15625Q27.82188 105.4375 27.13438 105.109375Q26.587505 104.859375 25.54063 104.859375L24.962505 104.859375Z" fill-rule="nonzero"/><path fill="#000000" d="M70.32188 264.46652Q70.32188 262.43527 70.72813 261.2009Q71.15 259.96652 71.97813 259.29465Q72.80625 258.62277 74.05625 258.62277Q74.97813 258.62277 75.66563 258.99777Q76.36875 259.35715 76.82188 260.06027Q77.275 260.7634 77.525 261.7634Q77.79063 262.7634 77.79063 264.46652Q77.79063 266.48215 77.36875 267.73215Q76.9625 268.96652 76.13438 269.65402Q75.30625 270.3259 74.05625 270.3259Q72.4 270.3259 71.44688 269.12277Q70.32188 267.7009 70.32188 264.46652ZM71.75938 264.46652Q71.75938 267.29465 72.41563 268.23215Q73.0875 269.15402 74.05625 269.15402Q75.025 269.15402 75.68125 268.21652Q76.3375 267.27902 76.3375 264.46652Q76.3375 261.6384 75.68125 260.71652Q75.025 259.77902 74.04063 259.77902Q73.07188 259.77902 72.49375 260.60715Q71.75938 261.65402 71.75938 264.46652ZM80.07188 270.12277L80.07188 268.5134L81.68125 268.5134L81.68125 270.12277Q81.68125 271.0134 81.36875 271.54465Q81.05625 272.09152 80.36875 272.3884L79.97813 271.79465Q80.43125 271.59152 80.63438 271.21652Q80.85313 270.84152 80.86875 270.12277L80.07188 270.12277ZM83.32188 264.46652Q83.32188 262.43527 83.72813 261.2009Q84.15 259.96652 84.97813 259.29465Q85.80625 258.62277 87.05625 258.62277Q87.97813 258.62277 88.66563 258.99777Q89.36875 259.35715 89.82188 260.06027Q90.275 260.7634 90.525 261.7634Q90.79063 262.7634 90.79063 264.46652Q90.79063 266.48215 90.36875 267.73215Q89.9625 268.96652 89.13438 269.65402Q88.30625 270.3259 87.05625 270.3259Q85.4 270.3259 84.44688 269.12277Q83.32188 267.7009 83.32188 264.46652ZM84.75938 264.46652Q84.75938 267.29465 85.41563 268.23215Q86.0875 269.15402 87.05625 269.15402Q88.025 269.15402 88.68125 268.21652Q89.3375 267.27902 89.3375 264.46652Q89.3375 261.6384 88.68125 260.71652Q88.025 259.77902 87.04063 259.77902Q86.07188 259.77902 85.49375 260.60715Q84.75938 261.65402 84.75938 264.46652Z" fill-rule="nonzero"/><path fill="#000000" d="M70.32188 218.6282L71.79063 218.5032Q71.9625 219.58133 72.55625 220.1282Q73.15 220.65945 73.99375 220.65945Q75.00938 220.65945 75.7125 219.89383Q76.41563 219.1282 76.41563 217.86258Q76.41563 216.65945 75.74375 215.97195Q75.07188 215.26883 73.97813 215.26883Q73.29063 215.26883 72.74375 215.58133Q72.19688 215.89383 71.88438 216.3782L70.57188 216.20633L71.68125 210.33133L77.36875 210.33133L77.36875 211.67508L72.80625 211.67508L72.18125 214.7532Q73.2125 214.03445 74.35313 214.03445Q75.85313 214.03445 76.88438 215.08133Q77.91563 216.11258 77.91563 217.73758Q77.91563 219.30008 77.00938 220.42508Q75.9 221.83133 73.99375 221.83133Q72.43125 221.83133 71.44688 220.95633Q70.4625 220.0657 70.32188 218.6282ZM80.07188 221.6282L80.07188 220.01883L81.68125 220.01883L81.68125 221.6282Q81.68125 222.51883 81.36875 223.05008Q81.05625 223.59695 80.36875 223.89383L79.97813 223.30008Q80.43125 223.09695 80.63438 222.72195Q80.85313 222.34695 80.86875 221.6282L80.07188 221.6282ZM83.32188 215.97195Q83.32188 213.9407 83.72813 212.70633Q84.15 211.47195 84.97813 210.80008Q85.80625 210.1282 87.05625 210.1282Q87.97813 210.1282 88.66563 210.5032Q89.36875 210.86258 89.82188 211.5657Q90.275 212.26883 90.525 213.26883Q90.79063 214.26883 90.79063 215.97195Q90.79063 217.98758 90.36875 219.23758Q89.9625 220.47195 89.13438 221.15945Q88.30625 221.83133 87.05625 221.83133Q85.4 221.83133 84.44688 220.6282Q83.32188 219.20633 83.32188 215.97195ZM84.75938 215.97195Q84.75938 218.80008 85.41563 219.73758Q86.0875 220.65945 87.05625 220.65945Q88.025 220.65945 88.68125 219.72195Q89.3375 218.78445 89.3375 215.97195Q89.3375 213.14383 88.68125 212.22195Q88.025 211.28445 87.04063 211.28445Q86.07188 211.28445 85.49375 212.11258Q84.75938 213.15945 84.75938 215.97195Z" fill-rule="nonzero"/><path fill="#000000" d="M66.61875 173.13365L65.2125 173.13365L65.2125 164.1649Q64.69688 164.64928 63.86875 165.13365Q63.05625 165.61803 62.4 165.86803L62.4 164.50865Q63.571877 163.94615 64.44688 163.1649Q65.3375 162.36803 65.7125 161.63365L66.61875 161.63365L66.61875 173.13365ZM70.32188 167.4774Q70.32188 165.44615 70.72813 164.21178Q71.15 162.9774 71.97813 162.30553Q72.80625 161.63365 74.05625 161.63365Q74.97813 161.63365 75.66563 162.00865Q76.36875 162.36803 76.82188 163.07115Q77.275 163.77428 77.525 164.77428Q77.79063 165.77428 77.79063 167.4774Q77.79063 169.49303 77.36875 170.74303Q76.9625 171.9774 76.13438 172.6649Q75.30625 173.33678 74.05625 173.33678Q72.4 173.33678 71.44688 172.13365Q70.32188 170.71178 70.32188 167.4774ZM71.75938 167.4774Q71.75938 170.30553 72.41563 171.24303Q73.0875 172.1649 74.05625 172.1649Q75.025 172.1649 75.68125 171.2274Q76.3375 170.2899 76.3375 167.4774Q76.3375 164.64928 75.68125 163.7274Q75.025 162.7899 74.04063 162.7899Q73.07188 162.7899 72.49375 163.61803Q71.75938 164.6649 71.75938 167.4774ZM80.07188 173.13365L80.07188 171.52428L81.68125 171.52428L81.68125 173.13365Q81.68125 174.02428 81.36875 174.55553Q81.05625 175.1024 80.36875 175.39928L79.97813 174.80553Q80.43125 174.6024 80.63438 174.2274Q80.85313 173.8524 80.86875 173.13365L80.07188 173.13365ZM83.32188 167.4774Q83.32188 165.44615 83.72813 164.21178Q84.15 162.9774 84.97813 162.30553Q85.80625 161.63365 87.05625 161.63365Q87.97813 161.63365 88.66563 162.00865Q89.36875 162.36803 89.82188 163.07115Q90.275 163.77428 90.525 164.77428Q90.79063 165.77428 90.79063 167.4774Q90.79063 169.49303 90.36875 170.74303Q89.9625 171.9774 89.13438 172.6649Q88.30625 173.33678 87.05625 173.33678Q85.4 173.33678 84.44688 172.13365Q83.32188 170.71178 83.32188 167.4774ZM84.75938 167.4774Q84.75938 170.30553 85.41563 171.24303Q86.0875 172.1649 87.05625 172.1649Q88.025 172.1649 88.68125 171.2274Q89.3375 170.2899 89.3375 167.4774Q89.3375 164.64928 88.68125 163.7274Q88.025 162.7899 87.04063 162.7899Q86.07188 162.7899 85.49375 163.61803Q84.75938 164.6649 84.75938 167.4774Z" fill-rule="nonzero"/><path fill="#000000" d="M66.61875 124.63911L65.2125 124.63911L65.2125 115.67036Q64.69688 116.15473 63.86875 116.63911Q63.05625 117.12348 62.4 117.37348L62.4 116.01411Q63.571877 115.45161 64.44688 114.67036Q65.3375 113.87348 65.7125 113.13911L66.61875 113.13911L66.61875 124.63911ZM70.32188 121.63911L71.79063 121.51411Q71.9625 122.59223 72.55625 123.13911Q73.15 123.67036 73.99375 123.67036Q75.00938 123.67036 75.7125 122.90473Q76.41563 122.13911 76.41563 120.87348Q76.41563 119.67036 75.74375 118.98286Q75.07188 118.27973 73.97813 118.27973Q73.29063 118.27973 72.74375 118.59223Q72.19688 118.90473 71.88438 119.38911L70.57188 119.21723L71.68125 113.34223L77.36875 113.34223L77.36875 114.68598L72.80625 114.68598L72.18125 117.76411Q73.2125 117.04536 74.35313 117.04536Q75.85313 117.04536 76.88438 118.09223Q77.91563 119.12348 77.91563 120.74848Q77.91563 122.31098 77.00938 123.43598Q75.9 124.84223 73.99375 124.84223Q72.43125 124.84223 71.44688 123.96723Q70.4625 123.07661 70.32188 121.63911ZM80.07188 124.63911L80.07188 123.02973L81.68125 123.02973L81.68125 124.63911Q81.68125 125.52973 81.36875 126.06098Q81.05625 126.60786 80.36875 126.90473L79.97813 126.31098Q80.43125 126.10786 80.63438 125.73286Q80.85313 125.35786 80.86875 124.63911L80.07188 124.63911ZM83.32188 118.98286Q83.32188 116.95161 83.72813 115.71723Q84.15 114.48286 84.97813 113.81098Q85.80625 113.13911 87.05625 113.13911Q87.97813 113.13911 88.66563 113.51411Q89.36875 113.87348 89.82188 114.57661Q90.275 115.27973 90.525 116.27973Q90.79063 117.27973 90.79063 118.98286Q90.79063 120.99848 90.36875 122.24848Q89.9625 123.48286 89.13438 124.17036Q88.30625 124.84223 87.05625 124.84223Q85.4 124.84223 84.44688 123.63911Q83.32188 122.21723 83.32188 118.98286ZM84.75938 118.98286Q84.75938 121.81098 85.41563 122.74848Q86.0875 123.67036 87.05625 123.67036Q88.025 123.67036 88.68125 122.73286Q89.3375 121.79536 89.3375 118.98286Q89.3375 116.15473 88.68125 115.23286Q88.025 114.29536 87.04063 114.29536Q86.07188 114.29536 85.49375 115.12348Q84.75938 116.17036 84.75938 118.98286Z" fill-rule="nonzero"/><path fill="#000000" d="M68.7125 74.78518L68.7125 76.144554L61.134377 76.144554Q61.11875 75.62893 61.30625 75.16018Q61.5875 74.394554 62.228127 73.644554Q62.86875 72.894554 64.07188 71.91018Q65.93125 70.37893 66.5875 69.488304Q67.24375 68.582054 67.24375 67.78518Q67.24375 66.957054 66.65 66.37893Q66.05625 65.800804 65.0875 65.800804Q64.07188 65.800804 63.4625 66.41018Q62.853127 67.019554 62.853127 68.09768L61.4 67.957054Q61.55625 66.332054 62.525 65.488304Q63.49375 64.644554 65.11875 64.644554Q66.775 64.644554 67.72813 65.56643Q68.69688 66.47268 68.69688 67.81643Q68.69688 68.50393 68.41563 69.175804Q68.13438 69.832054 67.47813 70.56643Q66.82188 71.300804 65.30625 72.582054Q64.04063 73.644554 63.68125 74.03518Q63.321877 74.41018 63.0875 74.78518L68.7125 74.78518ZM70.32188 70.488304Q70.32188 68.457054 70.72813 67.22268Q71.15 65.988304 71.97813 65.31643Q72.80625 64.644554 74.05625 64.644554Q74.97813 64.644554 75.66563 65.019554Q76.36875 65.37893 76.82188 66.082054Q77.275 66.78518 77.525 67.78518Q77.79063 68.78518 77.79063 70.488304Q77.79063 72.50393 77.36875 73.75393Q76.9625 74.988304 76.13438 75.675804Q75.30625 76.34768 74.05625 76.34768Q72.4 76.34768 71.44688 75.144554Q70.32188 73.72268 70.32188 70.488304ZM71.75938 70.488304Q71.75938 73.31643 72.41563 74.25393Q73.0875 75.175804 74.05625 75.175804Q75.025 75.175804 75.68125 74.238304Q76.3375 73.300804 76.3375 70.488304Q76.3375 67.66018 75.68125 66.738304Q75.025 65.800804 74.04063 65.800804Q73.07188 65.800804 72.49375 66.62893Q71.75938 67.675804 71.75938 70.488304ZM80.07188 76.144554L80.07188 74.53518L81.68125 74.53518L81.68125 76.144554Q81.68125 77.03518 81.36875 77.56643Q81.05625 78.113304 80.36875 78.41018L79.97813 77.81643Q80.43125 77.613304 80.63438 77.238304Q80.85313 76.863304 80.86875 76.144554L80.07188 76.144554ZM83.32188 70.488304Q83.32188 68.457054 83.72813 67.22268Q84.15 65.988304 84.97813 65.31643Q85.80625 64.644554 87.05625 64.644554Q87.97813 64.644554 88.66563 65.019554Q89.36875 65.37893 89.82188 66.082054Q90.275 66.78518 90.525 67.78518Q90.79063 68.78518 90.79063 70.488304Q90.79063 72.50393 90.36875 73.75393Q89.9625 74.988304 89.13438 75.675804Q88.30625 76.34768 87.05625 76.34768Q85.4 76.34768 84.44688 75.144554Q83.32188 73.72268 83.32188 70.488304ZM84.75938 70.488304Q84.75938 73.31643 85.41563 74.25393Q86.0875 75.175804 87.05625 75.175804Q88.025 75.175804 88.68125 74.238304Q89.3375 73.300804 89.3375 70.488304Q89.3375 67.66018 88.68125 66.738304Q88.025 65.800804 87.04063 65.800804Q86.07188 65.800804 85.49375 66.62893Q84.75938 67.675804 84.75938 70.488304Z" fill-rule="nonzero"/><path fill="#000000" d="M68.7125 26.290625L68.7125 27.65L61.134377 27.65Q61.11875 27.134375 61.30625 26.665625Q61.5875 25.9 62.228127 25.15Q62.86875 24.4 64.07188 23.415625Q65.93125 21.884375 66.5875 20.99375Q67.24375 20.0875 67.24375 19.290625Q67.24375 18.4625 66.65 17.884375Q66.05625 17.30625 65.0875 17.30625Q64.07188 17.30625 63.4625 17.915625Q62.853127 18.525 62.853127 19.603125L61.4 19.4625Q61.55625 17.8375 62.525 16.99375Q63.49375 16.15 65.11875 16.15Q66.775 16.15 67.72813 17.071875Q68.69688 17.978125 68.69688 19.321875Q68.69688 20.009375 68.41563 20.68125Q68.13438 21.3375 67.47813 22.071875Q66.82188 22.80625 65.30625 24.0875Q64.04063 25.15 63.68125 25.540625Q63.321877 25.915625 63.0875 26.290625L68.7125 26.290625ZM70.32188 24.65L71.79063 24.525Q71.9625 25.603125 72.55625 26.15Q73.15 26.68125 73.99375 26.68125Q75.00938 26.68125 75.7125 25.915625Q76.41563 25.15 76.41563 23.884375Q76.41563 22.68125 75.74375 21.99375Q75.07188 21.290625 73.97813 21.290625Q73.29063 21.290625 72.74375 21.603125Q72.19688 21.915625 71.88438 22.4L70.57188 22.228125L71.68125 16.353125L77.36875 16.353125L77.36875 17.696875L72.80625 17.696875L72.18125 20.775Q73.2125 20.05625 74.35313 20.05625Q75.85313 20.05625 76.88438 21.103125Q77.91563 22.134375 77.91563 23.759375Q77.91563 25.321875 77.00938 26.446875Q75.9 27.853125 73.99375 27.853125Q72.43125 27.853125 71.44688 26.978125Q70.4625 26.0875 70.32188 24.65ZM80.07188 27.65L80.07188 26.040625L81.68125 26.040625L81.68125 27.65Q81.68125 28.540625 81.36875 29.071875Q81.05625 29.61875 80.36875 29.915625L79.97813 29.321875Q80.43125 29.11875 80.63438 28.74375Q80.85313 28.36875 80.86875 27.65L80.07188 27.65ZM83.32188 21.99375Q83.32188 19.9625 83.72813 18.728125Q84.15 17.49375 84.97813 16.821875Q85.80625 16.15 87.05625 16.15Q87.97813 16.15 88.66563 16.525Q89.36875 16.884375 89.82188 17.5875Q90.275 18.290625 90.525 19.290625Q90.79063 20.290625 90.79063 21.99375Q90.79063 24.009375 90.36875 25.259375Q89.9625 26.49375 89.13438 27.18125Q88.30625 27.853125 87.05625 27.853125Q85.4 27.853125 84.44688 26.65Q83.32188 25.228125 83.32188 21.99375ZM84.75938 21.99375Q84.75938 24.821875 85.41563 25.759375Q86.0875 26.68125 87.05625 26.68125Q88.025 26.68125 88.68125 25.74375Q89.3375 24.80625 89.3375 21.99375Q89.3375 19.165625 88.68125 18.24375Q88.025 17.30625 87.04063 17.30625Q86.07188 17.30625 85.49375 18.134375Q84.75938 19.18125 84.75938 21.99375Z" fill-rule="nonzero"/><path fill="#000000" d="M57.28548 309.87875Q56.269855 308.11963 56.00449 306.8475Q55.75266 305.56757 56.1339 304.57166Q56.515137 303.57574 57.59767 302.95074Q58.396038 302.4898 59.17893 302.4708Q59.96754 302.43048 60.71152 302.81284Q61.4555 303.1952 62.17201 303.93622Q62.902046 304.66943 63.75361 306.14438Q64.76142 307.88995 65.021065 309.18344Q65.28643 310.45557 64.913 311.465Q64.53176 312.46094 63.449234 313.08594Q62.014877 313.91406 60.587887 313.3487Q58.902668 312.6798 57.28548 309.87875ZM58.53039 309.16Q59.944454 311.60922 60.981533 312.09302Q62.024334 312.55545 62.863297 312.07108Q63.702255 311.5867 63.801838 310.44666Q63.901417 309.30664 62.495167 306.87094Q61.081104 304.42172 60.051838 303.95148Q59.014755 303.4677 58.162262 303.9599Q57.3233 304.44427 57.236694 305.4505Q57.12414 306.7243 58.53039 309.16ZM72.49506 307.62878L71.277214 308.3319L66.79284 300.56473Q66.588486 301.24203 66.113495 302.07556Q65.65204 302.9013 65.20871 303.44592L64.52902 302.26868Q65.26264 301.1956 65.62979 300.0815Q66.002655 298.9461 65.96023 298.12262L66.74506 297.6695L72.49506 307.62878ZM73.848 302.8784L73.13706 301.647L76.871796 299.49075L77.58273 300.72214L73.848 302.8784ZM85.752975 298.40463L86.43266 299.5819L79.86981 303.37097Q79.598465 302.93222 79.526474 302.43253Q79.38723 301.62885 79.567024 300.65903Q79.746826 299.68918 80.29657 298.23514Q81.14121 295.97934 81.26423 294.8799Q81.37943 293.76697 80.980995 293.07684Q80.56693 292.35965 79.76367 292.15588Q78.9604 291.9521 78.121445 292.43646Q77.24188 292.94427 77.01884 293.77667Q76.79579 294.6091 77.334854 295.5428L76.006096 296.14755Q75.32892 294.66214 75.746 293.44705Q76.163086 292.232 77.57038 291.4195Q79.00474 290.59137 80.29111 290.91315Q81.58319 291.21362 82.255066 292.37735Q82.598816 292.97275 82.691185 293.69522Q82.77574 294.40417 82.5746 295.3683Q82.37346 296.3324 81.70151 298.1998Q81.136696 299.75278 81.02078 300.27075Q80.89706 300.7752 80.88158 301.21713L85.752975 298.40463ZM84.99829 293.87875Q83.982666 292.11963 83.71731 290.8475Q83.46547 289.56757 83.84671 288.57166Q84.22795 287.57574 85.310486 286.95074Q86.10885 286.4898 86.89174 286.4708Q87.68035 286.43048 88.42433 286.81284Q89.16831 287.1952 89.88482 287.93622Q90.61486 288.66943 91.46642 290.14438Q92.474236 291.88995 92.73388 293.18344Q92.999245 294.45557 92.62582 295.465Q92.244576 296.46094 91.16205 297.08594Q89.72769 297.91406 88.3007 297.3487Q86.61548 296.6798 84.99829 293.87875ZM86.2432 293.16Q87.657265 295.60922 88.69435 296.09302Q89.737144 296.55545 90.57611 296.07108Q91.41507 295.5867 91.51465 294.44666Q91.61423 293.30664 90.20798 290.87094Q88.793915 288.42172 87.76465 287.95148Q86.72757 287.4677 85.87508 287.9599Q85.03612 288.44427 84.94951 289.4505Q84.83695 290.7243 86.2432 293.16ZM92.79253 289.37875Q91.7769 287.61963 91.511536 286.3475Q91.2597 285.06757 91.64094 284.07166Q92.02218 283.07574 93.10471 282.45074Q93.903076 281.9898 94.685974 281.9708Q95.47459 281.93048 96.21857 282.31284Q96.96254 282.6952 97.67905 283.43622Q98.40909 284.16943 99.26065 285.64438Q100.26846 287.38995 100.52811 288.68344Q100.79347 289.95557 100.420044 290.965Q100.0388 291.96094 98.956276 292.58594Q97.52192 293.41406 96.094925 292.8487Q94.40971 292.1798 92.79253 289.37875ZM94.03744 288.66Q95.4515 291.10922 96.48858 291.59302Q97.53137 292.05545 98.37034 291.57108Q99.2093 291.0867 99.308876 289.94666Q99.408455 288.80664 98.002205 286.37094Q96.58814 283.92172 95.558876 283.45148Q94.5218 282.9677 93.669304 283.4599Q92.830345 283.94427 92.74374 284.9505Q92.63119 286.2243 94.03744 288.66ZM98.5195 281.1107L97.83981 279.9334L104.253815 276.2303L104.80069 277.17752Q104.439415 278.73926 104.47448 280.95624Q104.51527 283.1519 105.016685 285.2079Q105.37009 286.66373 106.134735 288.2069L104.8763 288.93347Q104.22367 287.74057 103.70356 285.83972Q103.18916 283.9175 103.11825 281.91968Q103.053055 279.9005 103.377365 278.306L98.5195 281.1107Z" fill-rule="nonzero"/><path fill="#000000" d="M104.14269 309.87875Q103.12707 308.11963 102.8617 306.8475Q102.60986 305.56757 102.991104 304.57166Q103.372345 303.57574 104.45488 302.95074Q105.25324 302.4898 106.03614 302.4708Q106.82475 302.43048 107.56873 302.81284Q108.31271 303.1952 109.02921 303.93622Q109.759254 304.66943 110.61082 306.14438Q111.61863 307.88995 111.87827 309.18344Q112.14364 310.45557 111.77021 311.465Q111.38897 312.46094 110.30644 313.08594Q108.872086 313.91406 107.44509 313.3487Q105.75988 312.6798 104.14269 309.87875ZM105.3876 309.16Q106.80167 311.60922 107.838745 312.09302Q108.88154 312.55545 109.720505 312.07108Q110.55946 311.5867 110.65904 310.44666Q110.75862 309.30664 109.35237 306.87094Q107.93831 304.42172 106.90904 303.95148Q105.87196 303.4677 105.01947 303.9599Q104.18051 304.44427 104.0939 305.4505Q103.98135 306.7243 105.3876 309.16ZM119.35227 307.62878L118.13442 308.3319L113.65005 300.56473Q113.445694 301.24203 112.9707 302.07556Q112.50925 302.9013 112.06592 303.44592L111.38623 302.26868Q112.11985 301.1956 112.487 300.0815Q112.85986 298.9461 112.81744 298.12262L113.60227 297.6695L119.35227 307.62878ZM120.70521 302.8784L119.99427 301.647L123.729 299.49075L124.43993 300.72214L120.70521 302.8784ZM132.61017 298.40466L133.28986 299.5819L126.72701 303.37097Q126.455666 302.93222 126.383675 302.43253Q126.24443 301.62885 126.424225 300.65903Q126.60403 299.6892 127.15378 298.23514Q127.99841 295.97934 128.12143 294.8799Q128.23663 293.76697 127.838196 293.07684Q127.42413 292.35968 126.62087 292.15588Q125.817604 291.9521 124.978645 292.43646Q124.09909 292.94427 123.87604 293.77667Q123.65299 294.6091 124.192055 295.5428L122.863304 296.14758Q122.18612 294.66214 122.6032 293.44708Q123.020294 292.232 124.42758 291.4195Q125.86194 290.59137 127.14831 290.91318Q128.4404 291.21362 129.11227 292.37735Q129.45602 292.97275 129.54839 293.69522Q129.63293 294.40417 129.4318 295.3683Q129.23065 296.3324 128.55872 298.1998Q127.9939 299.75278 127.87798 300.27075Q127.75426 300.7752 127.73878 301.21716L132.61017 298.40466ZM131.8555 293.87875Q130.83987 292.11963 130.57451 290.8475Q130.32268 289.5676 130.70392 288.57166Q131.08516 287.57574 132.16768 286.95074Q132.96605 286.4898 133.74895 286.4708Q134.53755 286.43048 135.28154 286.81284Q136.02551 287.1952 136.74202 287.93622Q137.47206 288.66943 138.32362 290.14438Q139.33144 291.88995 139.59108 293.18344Q139.85645 294.45557 139.48302 295.46503Q139.10178 296.46094 138.01924 297.08594Q136.5849 297.91406 135.1579 297.3487Q133.47269 296.6798 131.8555 293.87875ZM133.1004 293.16Q134.51447 295.60922 135.55154 296.09302Q136.59435 296.55545 137.4333 296.07108Q138.27228 295.5867 138.37186 294.44666Q138.47144 293.30664 137.06519 290.87094Q135.65112 288.42172 134.62186 287.95148Q133.58478 287.4677 132.73228 287.9599Q131.89331 288.44427 131.8067 289.4505Q131.69415 290.7243 133.1004 293.16ZM139.64972 289.37875Q138.6341 287.61963 138.36873 286.3475Q138.1169 285.0676 138.49814 284.07166Q138.87938 283.07574 139.96191 282.45074Q140.76028 281.9898 141.54317 281.9708Q142.33179 281.93048 143.07576 282.31284Q143.81975 282.6952 144.53625 283.43622Q145.2663 284.16943 146.11786 285.64438Q147.12567 287.38995 147.38531 288.68344Q147.65068 289.95557 147.27725 290.96503Q146.89601 291.96094 145.81348 292.58594Q144.37912 293.41406 142.95213 292.8487Q141.2669 292.1798 139.64972 289.37875ZM140.89464 288.66Q142.3087 291.10922 143.34578 291.59302Q144.38858 292.05545 145.22754 291.57108Q146.0665 291.0867 146.16608 289.94666Q146.26566 288.80664 144.8594 286.37094Q143.44534 283.92172 142.41608 283.45148Q141.379 282.9677 140.5265 283.4599Q139.68755 283.94427 139.60094 284.9505Q139.48839 286.2243 140.89464 288.66ZM149.03008 283.3135Q148.11604 283.48035 147.45381 283.1771Q146.7916 282.87384 146.37753 282.15665Q145.75253 281.07413 146.10196 279.8981Q146.4571 278.70074 147.75615 277.95074Q149.05518 277.20074 150.27751 277.50537Q151.50557 277.7887 152.13057 278.87122Q152.529 279.56134 152.46053 280.28647Q152.39204 281.0116 151.8176 281.70413Q152.89609 281.47836 153.7525 281.86798Q154.62245 282.2498 155.1537 283.16995Q155.88808 284.44193 155.48927 285.8449Q155.09619 287.22656 153.62123 288.07812Q152.15982 288.92188 150.7532 288.57928Q149.3523 288.21536 148.6023 286.91632Q148.0398 285.94205 148.15193 285.01126Q148.26407 284.0805 149.03008 283.3135ZM147.599 281.3973Q148.00525 282.10095 148.70961 282.28967Q149.42749 282.4706 150.1582 282.04874Q150.86185 281.6425 151.05058 280.9381Q151.23932 280.23376 150.87213 279.59778Q150.4815 278.9212 149.76361 278.74026Q149.03792 278.54584 148.3478 278.94427Q147.64415 279.35052 147.4419 280.06268Q147.23962 280.77484 147.599 281.3973ZM149.84721 286.19757Q150.1519 286.7253 150.67671 287.0718Q151.21507 287.41052 151.85846 287.3999Q152.49403 287.37576 153.04883 287.05545Q153.92839 286.54764 154.1764 285.6647Q154.41661 284.76825 153.91661 283.90222Q153.4088 283.02267 152.48528 282.7981Q151.56747 282.55215 150.68793 283.05997Q149.83543 283.55215 149.59523 284.4486Q149.35503 285.34506 149.84721 286.19757Z" fill-rule="nonzero"/><path fill="#000000" d="M151.12828 309.87875Q150.11266 308.11963 149.84729 306.8475Q149.59546 305.56757 149.9767 304.57166Q150.35794 303.5757 151.44046 302.9507Q152.23883 302.48978 153.02173 302.4708Q153.81033 302.43048 154.55432 302.81284Q155.2983 303.1952 156.0148 303.93622Q156.74484 304.66943 157.5964 306.14438Q158.60422 307.88995 158.86386 309.18344Q159.12923 310.45557 158.7558 311.465Q158.37456 312.46094 157.29202 313.08594Q155.85768 313.91406 154.43068 313.3487Q152.74547 312.6798 151.12828 309.87875ZM152.37318 309.16Q153.78725 311.60922 154.82433 312.09302Q155.86713 312.55542 156.70609 312.07104Q157.54506 311.58667 157.64464 310.44666Q157.74422 309.30664 156.33797 306.87094Q154.9239 304.42172 153.89464 303.95148Q152.85756 303.46768 152.00507 303.95987Q151.16609 304.44424 151.07948 305.4505Q150.96693 306.7243 152.37318 309.16ZM166.33786 307.62878L165.12001 308.3319L160.63564 300.56473Q160.43127 301.24203 159.95628 302.07556Q159.49483 302.9013 159.0515 303.44592L158.37181 302.26868Q159.10544 301.1956 159.47258 300.0815Q159.84546 298.9461 159.80302 298.1226L160.58786 297.66946L166.33786 307.62878ZM167.6908 302.87836L166.97986 301.647L170.71458 299.49075L171.42552 300.7221L167.6908 302.87836ZM179.59576 298.40463L180.27545 299.5819L173.7126 303.37097Q173.44127 302.93222 173.36926 302.43253Q173.23003 301.62885 173.40982 300.65903Q173.58961 299.68918 174.13937 298.23514Q174.98401 295.97934 175.10703 294.8799Q175.22223 293.76697 174.82379 293.07684Q174.40973 292.35965 173.60646 292.15585Q172.8032 291.95206 171.96423 292.43643Q171.08469 292.94424 170.86163 293.77667Q170.63858 294.6091 171.17764 295.5428L169.84889 296.14755Q169.1717 294.66214 169.58879 293.44705Q170.00589 292.23196 171.41318 291.41946Q172.84753 290.59134 174.1339 290.91315Q175.42598 291.21362 176.09785 292.37735Q176.4416 292.97275 176.53398 293.69522Q176.61853 294.40417 176.41739 295.3683Q176.21625 296.3324 175.54431 298.1998Q174.97949 299.75278 174.86357 300.27075Q174.73985 300.7752 174.72438 301.21713L179.59576 298.40463ZM178.8411 293.87875Q177.82547 292.11963 177.5601 290.8475Q177.30827 289.56757 177.68951 288.57166Q178.07074 287.5757 179.15327 286.9507Q179.95164 286.48978 180.73454 286.4708Q181.52315 286.43048 182.26714 286.81284Q183.01111 287.1952 183.72762 287.93622Q184.45766 288.66943 185.30922 290.14438Q186.31703 291.88995 186.57668 293.18344Q186.84204 294.45557 186.46861 295.465Q186.08737 296.46094 185.00484 297.08594Q183.57048 297.91406 182.1435 297.3487Q180.45828 296.6798 178.8411 293.87875ZM180.086 293.16Q181.50006 295.60922 182.53714 296.09302Q183.57994 296.55542 184.4189 296.07104Q185.25786 295.58667 185.35745 294.44666Q185.45703 293.30664 184.05078 290.87094Q182.63672 288.42172 181.60745 287.95148Q180.57036 287.46768 179.71786 287.95987Q178.8789 288.44424 178.7923 289.4505Q178.67975 290.7243 180.086 293.16ZM186.63531 289.37875Q185.61969 287.61963 185.35432 286.3475Q185.1025 285.06757 185.48373 284.07166Q185.86497 283.0757 186.94751 282.4507Q187.74588 281.98978 188.52876 281.9708Q189.31738 281.93048 190.06136 282.31284Q190.80534 282.6952 191.52185 283.43622Q192.25188 284.16943 193.10344 285.64438Q194.11125 287.38995 194.37091 288.68344Q194.63628 289.95557 194.26285 290.965Q193.8816 291.96094 192.79907 292.58594Q191.36472 293.41406 189.93773 292.8487Q188.2525 292.1798 186.63531 289.37875ZM187.88023 288.66Q189.2943 291.10922 190.33138 291.59302Q191.37418 292.05542 192.21313 291.57104Q193.0521 291.08667 193.15167 289.94666Q193.25125 288.80664 191.845 286.37094Q190.43094 283.92172 189.40167 283.45148Q188.3646 282.96768 187.5121 283.45987Q186.67314 283.94424 186.58653 284.9505Q186.47398 286.2243 187.88023 288.66ZM196.10545 287.37527L197.22021 286.5873Q197.84563 287.3268 198.48386 287.46353Q199.11427 287.58667 199.7638 287.21167Q200.33212 286.88354 200.60316 286.38428Q200.8742 285.88498 200.90265 285.30927Q200.92328 284.72 200.67732 283.88773Q200.44489 283.04764 200.00739 282.28986Q199.96051 282.20868 199.86676 282.0463Q199.83734 282.83908 199.4123 283.57162Q198.97943 284.29065 198.24873 284.71252Q197.01735 285.42346 195.64923 285.02255Q194.28111 284.62164 193.43736 283.16025Q192.57018 281.65823 192.91847 280.23026Q193.28032 278.79446 194.61995 278.02103Q195.59422 277.45853 196.69728 277.52533Q197.79253 277.5786 198.7667 278.29715Q199.74086 279.01572 200.79555 280.8425Q201.89711 282.75046 202.12607 284.11578Q202.36856 285.47327 201.88687 286.54523Q201.41873 287.60938 200.32266 288.2422Q199.15895 288.91406 198.0397 288.6942Q196.93399 288.46658 196.10545 287.37527ZM198.5752 280.12173Q197.96582 279.06625 197.04593 278.78546Q196.13176 278.4833 195.34692 278.93643Q194.53502 279.40518 194.30891 280.4198Q194.09633 281.4266 194.7057 282.4821Q195.25258 283.4293 196.16466 283.69656Q197.09027 283.95602 197.92923 283.47165Q198.7682 282.98727 198.96571 282.07938Q199.17676 281.16367 198.5752 280.12173Z" fill-rule="nonzero"/><path fill="#000000" d="M197.98549 309.87875Q196.96986 308.11963 196.7045 306.8475Q196.45267 305.56757 196.83391 304.57166Q197.21515 303.5757 198.29767 302.9507Q199.09604 302.48978 199.87894 302.4708Q200.66754 302.43048 201.41153 302.81284Q202.1555 303.1952 202.87201 303.93622Q203.60205 304.66943 204.45361 306.14438Q205.46143 307.88995 205.72107 309.18344Q205.98643 310.45557 205.613 311.465Q205.23177 312.46094 204.14923 313.08594Q202.71489 313.91406 201.28789 313.3487Q199.60268 312.6798 197.98549 309.87875ZM199.2304 309.16Q200.64445 311.60922 201.68153 312.09302Q202.72433 312.55542 203.5633 312.07104Q204.40227 311.58667 204.50185 310.44666Q204.60143 309.30664 203.19518 306.87094Q201.78111 304.42172 200.75185 303.95148Q199.71477 303.46768 198.86227 303.95987Q198.0233 304.44424 197.93669 305.4505Q197.82414 306.7243 199.2304 309.16ZM213.19507 307.62878L211.97722 308.3319L207.49284 300.56473Q207.28848 301.24203 206.81349 302.07556Q206.35204 302.9013 205.9087 303.44592L205.22902 302.26868Q205.96265 301.1956 206.32979 300.0815Q206.70267 298.9461 206.66023 298.1226L207.44507 297.66946L213.19507 307.62878ZM214.548 302.87836L213.83707 301.647L217.5718 299.49075L218.28273 300.7221L214.548 302.87836ZM226.45297 298.40463L227.13266 299.5819L220.56981 303.37097Q220.29848 302.93222 220.22647 302.43253Q220.08723 301.62885 220.26703 300.65903Q220.44682 299.68918 220.99658 298.23514Q221.84122 295.97934 221.96423 294.8799Q222.07944 293.76697 221.681 293.07684Q221.26694 292.35965 220.46367 292.15585Q219.66042 291.95206 218.82144 292.43643Q217.9419 292.94424 217.71884 293.77667Q217.49579 294.6091 218.03485 295.5428L216.7061 296.14755Q216.02892 294.66214 216.446 293.44705Q216.8631 292.23196 218.27039 291.41946Q219.70474 290.59134 220.9911 290.91315Q222.28319 291.21362 222.95506 292.37735Q223.29881 292.97275 223.39119 293.69522Q223.47574 294.40417 223.2746 295.3683Q223.07346 296.3324 222.40152 298.1998Q221.8367 299.75278 221.72078 300.27075Q221.59706 300.7752 221.58159 301.21713L226.45297 298.40463ZM225.6983 293.87875Q224.68268 292.11963 224.41731 290.8475Q224.16548 289.56757 224.54672 288.57166Q224.92795 287.5757 226.01048 286.9507Q226.80885 286.48978 227.59175 286.4708Q228.38036 286.43048 229.12434 286.81284Q229.86832 287.1952 230.58482 287.93622Q231.31487 288.66943 232.16643 290.14438Q233.17424 291.88995 233.43388 293.18344Q233.69925 294.45557 233.32582 295.465Q232.94458 296.46094 231.86205 297.08594Q230.42769 297.91406 229.0007 297.3487Q227.31549 296.6798 225.6983 293.87875ZM226.9432 293.16Q228.35727 295.60922 229.39435 296.09302Q230.43715 296.55542 231.27611 296.07104Q232.11507 295.58667 232.21466 294.44666Q232.31424 293.30664 230.90799 290.87094Q229.49393 288.42172 228.46466 287.95148Q227.42757 287.46768 226.57507 287.95987Q225.73611 288.44424 225.6495 289.4505Q225.53696 290.7243 226.9432 293.16ZM240.90788 291.62878L239.69003 292.3319L235.20566 284.56473Q235.0013 285.24203 234.5263 286.07556Q234.06485 286.9013 233.62152 287.44592L232.94183 286.26868Q233.67546 285.1956 234.0426 284.0815Q234.41547 282.9461 234.37305 282.1226L235.15788 281.66946L240.90788 291.62878ZM241.28676 284.87875Q240.27113 283.11963 240.00577 281.8475Q239.75394 280.56757 240.13518 279.57166Q240.51642 278.5757 241.59894 277.9507Q242.39731 277.48978 243.1802 277.4708Q243.96881 277.43048 244.7128 277.81284Q245.45677 278.1952 246.17328 278.93622Q246.90332 279.66943 247.75488 281.14438Q248.7627 282.88995 249.02234 284.18344Q249.2877 285.45557 248.91428 286.465Q248.53304 287.46094 247.4505 288.08594Q246.01616 288.91406 244.58916 288.3487Q242.90395 287.6798 241.28676 284.87875ZM242.53166 284.16Q243.94572 286.60922 244.9828 287.09302Q246.0256 287.55542 246.86456 287.07104Q247.70354 286.58667 247.80312 285.44666Q247.9027 284.30664 246.49644 281.87094Q245.08238 279.42172 244.05312 278.95148Q243.01604 278.46768 242.16354 278.95987Q241.32457 279.44424 241.23796 280.4505Q241.12541 281.7243 242.53166 284.16Z" fill-rule="nonzero"/></svg>