<?xml version="1.0" encoding="UTF-8"?>
<!DOCTYPE svg PUBLIC "-//W3C//DTD SVG 1.1//EN" "http://www.w3.org/Graphics/SVG/1.1/DTD/svg11.dtd">
<svg width="160mm" height="90mm" viewBox="0 0 16000 9000" version="1.1" xmlns="http://www.w3.org/2000/svg" xmlns:xlink="http://www.w3.org/1999/xlink" stroke-width="28.222" stroke-linejoin="round" xml:space="preserve">
 <path fill="rgb(255,255,255)" stroke="none" d="M 8005,9004 L 0,9004 0,0 16009,0 16009,9004 8005,9004 Z"/>
 <path fill="none" stroke="rgb(179,179,179)" stroke-linejoin="round" d="M 8680,7196 L 1952,7196 1952,1660 15409,1660 15409,7196 8680,7196 Z"/>
 <path fill="none" stroke="rgb(179,179,179)" stroke-linejoin="round" d="M 1952,1659 L 1952,7195"/>
 <path fill="none" stroke="rgb(179,179,179)" stroke-linejoin="round" d="M 4195,1659 L 4195,7195"/>
 <path fill="none" stroke="rgb(179,179,179)" stroke-linejoin="round" d="M 6438,1659 L 6438,7195"/>
 <path fill="none" stroke="rgb(179,179,179)" stroke-linejoin="round" d="M 8680,1659 L 8680,7195"/>
 <path fill="none" stroke="rgb(179,179,179)" stroke-linejoin="round" d="M 10923,1659 L 10923,7195"/>
 <path fill="none" stroke="rgb(179,179,179)" stroke-linejoin="round" d="M 13166,1659 L 13166,7195"/>
 <path fill="none" stroke="rgb(179,179,179)" stroke-linejoin="round" d="M 15409,1659 L 15409,7195"/>
 <path fill="none" stroke="rgb(179,179,179)" stroke-linejoin="round" d="M 15409,7195 L 1952,7195"/>
 <path fill="none" stroke="rgb(179,179,179)" stroke-linejoin="round" d="M 15409,6087 L 1952,6087"/>
 <path fill="none" stroke="rgb(179,179,179)" stroke-linejoin="round" d="M 15409,4980 L 1952,4980"/>
 <path fill="none" stroke="rgb(179,179,179)" stroke-linejoin="round" d="M 15409,3873 L 1952,3873"/>
 <path fill="none" stroke="rgb(179,179,179)" stroke-linejoin="round" d="M 15409,2766 L 1952,2766"/>
 <path fill="none" stroke="rgb(179,179,179)" stroke-linejoin="round" d="M 15409,1659 L 1952,1659"/>
 <path fill="none" stroke="rgb(179,179,179)" stroke-linejoin="round" d="M 1952,7345 L 1952,7195"/>
 <path fill="none" stroke="rgb(179,179,179)" stroke-linejoin="round" d="M 1952,7345 L 1952,7195"/>
 <path fill="none" stroke="rgb(179,179,179)" stroke-linejoin="round" d="M 4195,7345 L 4195,7195"/>
 <path fill="none" stroke="rgb(179,179,179)" stroke-linejoin="round" d="M 4195,7345 L 4195,7195"/>
 <path fill="none" stroke="rgb(179,179,179)" stroke-linejoin="round" d="M 6438,7345 L 6438,7195"/>
 <path fill="none" stroke="rgb(179,179,179)" stroke-linejoin="round" d="M 6438,7345 L 6438,7195"/>
 <path fill="none" stroke="rgb(179,179,179)" stroke-linejoin="round" d="M 8680,7345 L 8680,7195"/>
 <path fill="none" stroke="rgb(179,179,179)" stroke-linejoin="round" d="M 8680,7345 L 8680,7195"/>
 <path fill="none" stroke="rgb(179,179,179)" stroke-linejoin="round" d="M 10923,7345 L 10923,7195"/>
 <path fill="none" stroke="rgb(179,179,179)" stroke-linejoin="round" d="M 10923,7345 L 10923,7195"/>
 <path fill="none" stroke="rgb(179,179,179)" stroke-linejoin="round" d="M 13166,7345 L 13166,7195"/>
 <path fill="none" stroke="rgb(179,179,179)" stroke-linejoin="round" d="M 13166,7345 L 13166,7195"/>
 <path fill="none" stroke="rgb(179,179,179)" stroke-linejoin="round" d="M 15409,7345 L 15409,7195"/>
 <path fill="none" stroke="rgb(179,179,179)" stroke-linejoin="round" d="M 15409,7345 L 15409,7195"/>
 <path fill="none" stroke="rgb(179,179,179)" stroke-linejoin="round" d="M 1952,7195 L 15409,7195"/>
 <path fill="none" stroke="rgb(179,179,179)" stroke-linejoin="round" d="M 1802,7195 L 1952,7195"/>
 <path fill="none" stroke="rgb(179,179,179)" stroke-linejoin="round" d="M 1802,7195 L 1952,7195"/>
 <path fill="none" stroke="rgb(179,179,179)" stroke-linejoin="round" d="M 1802,6087 L 1952,6087"/>
 <path fill="none" stroke="rgb(179,179,179)" stroke-linejoin="round" d="M 1802,6087 L 1952,6087"/>
 <path fill="none" stroke="rgb(179,179,179)" stroke-linejoin="round" d="M 1802,4980 L 1952,4980"/>
 <path fill="none" stroke="rgb(179,179,179)" stroke-linejoin="round" d="M 1802,4980 L 1952,4980"/>
 <path fill="none" stroke="rgb(179,179,179)" stroke-linejoin="round" d="M 1802,3873 L 1952,3873"/>
 <path fill="none" stroke="rgb(179,179,179)" stroke-linejoin="round" d="M 1802,3873 L 1952,3873"/>
 <path fill="none" stroke="rgb(179,179,179)" stroke-linejoin="round" d="M 1802,2766 L 1952,2766"/>
 <path fill="none" stroke="rgb(179,179,179)" stroke-linejoin="round" d="M 1802,2766 L 1952,2766"/>
 <path fill="none" stroke="rgb(179,179,179)" stroke-linejoin="round" d="M 1802,1659 L 1952,1659"/>
 <path fill="none" stroke="rgb(179,179,179)" stroke-linejoin="round" d="M 1802,1659 L 1952,1659"/>
 <path fill="none" stroke="rgb(179,179,179)" stroke-linejoin="round" d="M 1952,7195 L 1952,1659"/>
 <path fill="none" stroke="rgb(75,31,111)" stroke-width="80" stroke-linejoin="round" d="M 10063,5651 L 10100,5647 10137,5646 10175,5645 10212,5646 10250,5647 10287,5650 10324,5654 10362,5659 10399,5665 10437,5670 10474,5675 10511,5680 10549,5684 10586,5686 10623,5687 10661,5688 10698,5687 10736,5686 10773,5685 10810,5685 10848,5685 10885,5688 10923,5690 10960,5693 10997,5696 11035,5699 11072,5701 11109,5702 11147,5701 11184,5698 11222,5694 11259,5689 11296,5683 11334,5677 11371,5672 11408,5667 11446,5663 11483,5659 11521,5656 11558,5653 11595,5650 11633,5647 11670,5644 11708,5641 11745,5640 11782,5639 11820,5637 11857,5638 11894,5639 11932,5641 11969,5643 12007,5647 12044,5649 12081,5651 12119,5652 12156,5652 12194,5651 12231,5650 12268,5649 12306,5648 12343,5648 12380,5649 12418,5650 12455,5653 12493,5656 12530,5660 12567,5662 12605,5664 12642,5665 12680,5665 12717,5663 12754,5658 12792,5653 12829,5649 12866,5646 12904,5647 12941,5652 12979,5661 13016,5680 13053,5707 13091,5741 13128,5780 13166,5823 13203,5865 13240,5905 13278,5939 13315,5963 13352,5977 13390,5982 13427,5979 13465,5971 13502,5959 13539,5947 13577,5936 13614,5927 13651,5920 13689,5916 13726,5911 13764,5908 13801,5905 13838,5903 13876,5898 13913,5895 13951,5891 13988,5887 14025,5885 14063,5882 14100,5878 14137,5876 14175,5874 14212,5871 14250,5869 14287,5867 14324,5865 14362,5863 14399,5861 14437,5861 14474,5861 14511,5861 14549,5863 14586,5865 14623,5867 14661,5870 14698,5873 14736,5875 14773,5878 14810,5881 14848,5885 14885,5889 14923,5893 14960,5896 14997,5899 15035,5900 15072,5901 15109,5902 15147,5901 15184,5902 15222,5902 15259,5901 15296,5900 15334,5903 15371,5905 15409,5907"/>
 <path fill="none" stroke="rgb(131,202,255)" stroke-width="80" stroke-linejoin="round" d="M 1989,6014 L 2026,6017 2064,6022 2101,6027 2138,6037 2176,6046 2213,6055 2251,6063 2288,6069 2325,6074 2363,6079 2400,6081 2437,6083 2475,6085 2512,6086 2550,6086 2587,6085 2624,6085 2662,6084 2699,6082 2737,6082 2774,6083 2811,6083 2849,6084 2886,6086 2923,6087 2961,6088 2998,6090 3036,6090 3073,6090 3110,6088 3148,6086 3185,6083 3223,6081 3260,6079 3297,6078 3335,6079 3372,6081 3409,6084 3447,6087 3484,6090 3522,6094 3559,6097 3596,6098 3634,6099 3671,6099 3709,6099 3746,6099 3783,6099 3821,6100 3858,6100 3895,6101 3933,6103 3970,6105 4008,6107 4045,6110 4082,6112 4120,6113 4157,6115 4195,6116 4232,6117 4269,6119 4307,6121 4344,6123 4381,6126 4419,6129 4456,6131 4494,6133 4531,6134 4568,6131 4606,6129 4643,6127 4680,6125 4718,6127 4755,6134 4793,6149 4830,6175 4867,6212 4905,6260 4942,6317 4980,6380 5017,6447 5054,6509 5092,6567 5129,6617 5166,6658 5204,6690 5241,6713 5279,6729 5316,6739 5353,6744 5391,6748 5428,6750 5466,6752 5503,6753 5540,6752 5578,6752 5615,6749 5652,6746 5690,6743 5727,6740 5765,6738 5802,6735 5839,6733 5877,6731 5914,6730 5952,6728 5989,6725 6026,6720 6064,6717 6101,6715 6138,6714 6176,6714 6213,6715 6251,6717 6288,6719 6325,6720 6363,6721 6400,6720 6438,6720 6475,6717 6512,6717 6550,6717 6587,6715 6624,6713 6662,6712 6699,6710 6737,6709 6774,6710 6811,6711 6849,6713 6886,6715 6923,6717 6961,6719 6998,6721 7036,6723 7073,6724 7110,6726 7148,6725 7185,6724 7223,6721 7260,6716 7297,6712 7335,6708 7372,6704 7409,6701 7447,6698 7484,6696 7522,6694 7559,6693 7596,6692 7634,6691 7671,6690 7709,6689 7746,6688 7783,6686 7821,6686 7858,6685 7895,6684 7933,6684 7970,6685 8007,6686 8044,6686 8081,6688 8119,6689 8156,6689 8194,6690 8231,6690 8268,6690 8306,6690 8343,6690 8380,6690 8418,6690 8455,6688 8493,6684 8530,6675 8567,6659 8605,6633 8642,6595 8680,6543 8717,6478 8754,6401 8792,6315 8829,6224 8866,6132 8904,6046 8941,5967 8979,5898 9016,5840 9053,5793 9091,5756 9128,5727 9165,5706 9203,5689 9240,5678 9278,5670 9315,5665 9352,5659 9390,5656 9427,5655 9465,5655 9502,5657 9539,5659 9577,5661 9614,5664 9651,5666 9689,5668 9726,5670 9764,5670 9801,5672 9838,5671 9876,5668 9913,5665 9951,5662 9988,5658 10025,5654"/>
 <path fill="none" stroke="rgb(174,207,0)" stroke-width="80" stroke-linejoin="round" d="M 10063,4480 L 10100,4411 10137,4351 10175,4363 10212,4436 10250,4458 10287,4464 10324,4466 10362,4426 10399,4446 10437,4473 10474,4395 10511,4328 10549,4350 10586,4412 10623,4223 10661,4153 10698,4162 10736,4217 10773,4262 10810,4242 10848,4173 10885,4174 10923,4193 10960,4260 10997,4149 11035,4217 11072,4222 11109,4213 11147,4187 11184,4280 11222,4256 11259,4222 11296,4194 11334,4091 11371,4090 11408,4100 11446,4077 11483,4130 11521,4074 11558,4225 11595,4141 11633,4220 11670,4192 11708,3930 11745,3832 11782,3778 11820,3786 11857,3819 11894,3819 11932,3880 11969,3698 12007,3915 12044,3998 12081,4053 12119,4115 12156,4044 12194,4059 12231,4037 12268,4120 12306,4056 12343,4069 12380,4153 12418,4184 12455,4174 12493,4142 12530,4238 12567,4176 12605,4257 12642,4097 12680,4054 12717,4068 12754,3984 12792,4065 12829,4021 12866,4074 12904,4005 12941,4226 12979,4276 13016,4251 13053,4305 13091,4297 13128,4239 13166,4329 13203,4345 13240,4177 13278,4210 13315,4166 13352,4225 13390,4198 13427,4252 13465,4250 13502,4217 13539,4312 13577,4289 13614,4295 13651,3623 13689,3802 13726,3819 13764,3699 13801,3655 13838,3752 13876,3713 13913,3662 13951,3632 13988,3439 14025,3341 14063,3421 14100,3329 14137,3319 14175,3275 14212,3323 14250,3238 14287,3314 14324,3275 14362,3267 14399,3178 14437,3238 14474,3225 14511,3209 14549,3162 14586,3163 14623,3171 14661,3156 14698,3125 14736,3144 14773,3197 14810,3166 14848,3205 14885,3130 14923,3146 14960,3157 14997,3354 15035,3485 15072,3434 15109,3544 15147,3492 15184,3501 15222,3566 15259,4009 15296,4127 15334,4222 15371,4222 15409,4226"/>
 <path fill="none" stroke="rgb(126,0,33)" stroke-width="80" stroke-linejoin="round" d="M 1989,4121 L 2026,4013 2064,3916 2101,3889 2138,3866 2176,3879 2213,3819 2251,3805 2288,3807 2325,3802 2363,3891 2400,3930 2437,3808 2475,3860 2512,3964 2550,4039 2587,3993 2624,4051 2662,4703 2699,4761 2737,4846 2774,4943 2811,4993 2849,5045 2886,5105 2923,5055 2961,5011 2998,5103 3036,5099 3073,5111 3110,5096 3148,5143 3185,5113 3223,5129 3260,5204 3297,5156 3335,5146 3372,5216 3409,5196 3447,5203 3484,5167 3522,5122 3559,5168 3596,5186 3634,5123 3671,5169 3709,5229 3746,5256 3783,5241 3821,5232 3858,5248 3895,5145 3933,5143 3970,5177 4008,5195 4045,5069 4082,5049 4120,5024 4157,5068 4195,5084 4232,5034 4269,5136 4307,5153 4344,5177 4381,5121 4419,5172 4456,5195 4494,5110 4531,5198 4568,5166 4606,5125 4643,5187 4680,4624 4718,4525 4755,4479 4793,4384 4830,4396 4867,4376 4905,4373 4942,4377 4980,4147 5017,4221 5054,4184 5092,4210 5129,4193 5166,4171 5204,4108 5241,4145 5279,4115 5316,4277 5353,4338 5391,4410 5428,4134 5466,4178 5503,4167 5540,3661 5578,3616 5615,3531 5652,3550 5690,3485 5727,3416 5765,3511 5802,3499 5839,3498 5877,3471 5914,3288 5952,2581 5989,2515 6026,2531 6064,2564 6101,2529 6138,2500 6176,2567 6213,2502 6251,2448 6288,2404 6325,2144 6363,2179 6400,2111 6438,2979 6475,3207 6512,3360 6550,3424 6587,3516 6624,3437 6662,3516 6699,3581 6737,3592 6774,3648 6811,3602 6849,3620 6886,3575 6923,3640 6961,3584 6998,3555 7036,3632 7073,3659 7110,3659 7148,3110 7185,3000 7223,2992 7260,2944 7297,2807 7335,2847 7372,2844 7409,2792 7447,2761 7484,2690 7522,2749 7559,2746 7596,2616 7634,2561 7671,2455 7709,2394 7746,2405 7783,2360 7821,2408 7858,2378 7895,2421 7933,2423 7970,2326 8007,2387 8044,2428 8081,2325 8119,2416 8156,2288 8194,2320 8231,2383 8268,2335 8306,2315 8343,2361 8380,2257 8418,2294 8455,2305 8493,2250 8530,2360 8567,2291 8605,2241 8642,2229 8680,2273 8717,2328 8754,2257 8792,2263 8829,2670 8866,2647 8904,2704 8941,2734 8979,2511 9016,2606 9053,2561 9091,2544 9128,2528 9165,3298 9203,3479 9240,3590 9278,3608 9315,3747 9352,3855 9390,3968 9427,3918 9465,3918 9502,4008 9539,4169 9577,4137 9614,4357 9651,4370 9689,4336 9726,4448 9764,4136 9801,4175 9838,4321 9876,4344 9913,4342 9951,4428 9988,4459 10025,4378"/>
 <path fill="none" stroke="rgb(49,64,4)" stroke-width="80" stroke-linejoin="round" d="M 10063,5799 L 10100,5791 10137,5783 10175,5775 10212,5767 10250,5759 10287,5753 10324,5748 10362,5743 10399,5738 10437,5733 10474,5728 10511,5723 10549,5716 10586,5709 10623,5701 10661,5693 10698,5684 10736,5677 10773,5670 10810,5665 10848,5660 10885,5658 10923,5656 10960,5655 10997,5657 11035,5664 11072,5674 11109,5690 11147,5713 11184,5743 11222,5780 11259,5822 11296,5869 11334,5918 11371,5966 11408,6010 11446,6048 11483,6079 11521,6101 11558,6114 11595,6118 11633,6115 11670,6107 11708,6094 11745,6080 11782,6063 11820,6045 11857,6028 11894,6013 11932,6002 11969,5994 12007,5991 12044,5990 12081,5992 12119,5998 12156,6004 12194,6014 12231,6026 12268,6040 12306,6055 12343,6074 12380,6094 12418,6117 12455,6145 12493,6175 12530,6209 12567,6245 12605,6282 12642,6320 12680,6359 12717,6396 12754,6431 12792,6463 12829,6494 12866,6521 12904,6546 12941,6568 12979,6587 13016,6604 13053,6618 13091,6630 13128,6640 13166,6648 13203,6653 13240,6659 13278,6665 13315,6669 13352,6675 13390,6679 13427,6684 13465,6687 13502,6689 13539,6689 13577,6685 13614,6679 13651,6668 13689,6657 13726,6640 13764,6622 13801,6605 13838,6588 13876,6571 13913,6556 13951,6541 13988,6527 14025,6514 14063,6501 14100,6487 14137,6474 14175,6461 14212,6447 14250,6435 14287,6423 14324,6412 14362,6403 14399,6395 14437,6389 14474,6384 14511,6382 14549,6381 14586,6381 14623,6381 14661,6383 14698,6385 14736,6387 14773,6389 14810,6390 14848,6392 14885,6393 14923,6395 14960,6398 14997,6402 15035,6408 15072,6418 15109,6429 15147,6441 15184,6455 15222,6469 15259,6483 15296,6495 15334,6506 15371,6515 15409,6522"/>
 <path fill="none" stroke="rgb(87,157,28)" stroke-width="80" stroke-linejoin="round" d="M 1989,5948 L 2026,5943 2064,5957 2101,5969 2138,5981 2176,5991 2213,5999 2251,6006 2288,6012 2325,6018 2363,6023 2400,6028 2437,6035 2475,6044 2512,6055 2550,6067 2587,6082 2624,6100 2662,6121 2699,6141 2737,6165 2774,6189 2811,6211 2849,6232 2886,6251 2923,6269 2961,6286 2998,6302 3036,6318 3073,6334 3110,6351 3148,6367 3185,6383 3223,6397 3260,6411 3297,6424 3335,6435 3372,6445 3409,6453 3447,6461 3484,6467 3522,6472 3559,6477 3596,6481 3634,6486 3671,6490 3709,6495 3746,6499 3783,6503 3821,6507 3858,6511 3895,6513 3933,6516 3970,6517 4008,6520 4045,6524 4082,6527 4120,6533 4157,6540 4195,6545 4232,6551 4269,6556 4307,6560 4344,6563 4381,6565 4419,6565 4456,6564 4494,6561 4531,6558 4568,6551 4606,6543 4643,6534 4680,6523 4718,6511 4755,6496 4793,6480 4830,6464 4867,6447 4905,6430 4942,6413 4980,6396 5017,6380 5054,6364 5092,6350 5129,6338 5166,6328 5204,6321 5241,6316 5279,6312 5316,6309 5353,6305 5391,6300 5428,6294 5466,6286 5503,6274 5540,6259 5578,6245 5615,6230 5652,6219 5690,6215 5727,6221 5765,6237 5802,6261 5839,6296 5877,6336 5914,6379 5952,6421 5989,6459 6026,6490 6064,6513 6101,6529 6138,6537 6176,6538 6213,6533 6251,6524 6288,6511 6325,6495 6363,6478 6400,6460 6438,6447 6475,6434 6512,6430 6550,6431 6587,6433 6624,6438 6662,6445 6699,6452 6737,6460 6774,6468 6811,6476 6849,6483 6886,6490 6923,6496 6961,6501 6998,6505 7036,6507 7073,6507 7110,6505 7148,6498 7185,6488 7223,6474 7260,6457 7297,6438 7335,6419 7372,6399 7409,6379 7447,6361 7484,6343 7522,6327 7559,6311 7596,6296 7634,6281 7671,6266 7709,6250 7746,6235 7783,6219 7821,6204 7858,6191 7895,6178 7933,6168 7970,6159 8007,6152 8044,6146 8081,6141 8119,6138 8156,6134 8194,6132 8231,6129 8268,6125 8306,6122 8343,6118 8380,6114 8418,6109 8455,6105 8493,6100 8530,6097 8567,6092 8605,6090 8642,6089 8680,6088 8717,6090 8754,6092 8792,6097 8829,6102 8866,6109 8904,6117 8941,6127 8979,6138 9016,6150 9053,6165 9091,6184 9128,6205 9165,6231 9203,6257 9240,6286 9278,6310 9315,6327 9352,6332 9390,6325 9427,6304 9465,6270 9502,6224 9539,6169 9577,6110 9614,6052 9651,5996 9689,5948 9726,5909 9764,5878 9801,5858 9838,5842 9876,5832 9913,5824 9951,5818 9988,5811 10025,5805"/>
 <defs>
  <mask id="mask1">
   <g>
    <defs>
     <linearGradient id="gradient1" x1="8699" y1="5594" x2="8699" y2="6802" gradientUnits="userSpaceOnUse">
      <stop offset="0.5" style="stop-color:rgb(26,26,26)"/>
      <stop offset="0.5" style="stop-color:rgb(26,26,26)"/>
      <stop offset="1" style="stop-color:rgb(26,26,26)"/>
      <stop offset="1" style="stop-color:rgb(26,26,26)"/>
     </linearGradient>
    </defs>
    <path style="fill:url(#gradient1)" d="M 1939,5594 L 15459,5594 15459,6802 1939,6802 1939,5594 Z"/>
   </g>
  </mask>
 </defs>
 <g style="mask:url(#mask1)">
  <path fill="none" stroke="rgb(255,211,32)" stroke-width="100" stroke-linejoin="round" stroke-dasharray="197,127" d="M 1989,6014 L 2026,6019 2064,6023 2101,6028 2138,6037 2176,6045 2213,6054 2251,6062 2288,6069 2325,6074 2363,6079 2400,6082 2437,6085 2475,6087 2512,6088 2550,6089 2587,6089 2624,6088 2662,6087 2699,6086 2737,6085 2774,6084 2811,6084 2849,6084 2886,6086 2923,6087 2961,6089 2998,6091 3036,6092 3073,6092 3110,6091 3148,6089 3185,6087 3223,6084 3260,6083 3297,6082 3335,6081 3372,6082 3409,6084 3447,6086 3484,6088 3522,6091 3559,6093 3596,6094 3634,6095 3671,6096 3709,6096 3746,6096 3783,6097 3821,6098 3858,6100 3895,6102 3933,6104 3970,6107 4008,6110 4045,6113 4082,6115 4120,6117 4157,6119 4195,6120 4232,6121 4269,6122 4307,6124 4344,6126 4381,6128 4419,6131 4456,6133 4494,6134 4531,6134 4568,6133 4606,6131 4643,6129 4680,6128 4718,6130 4755,6138 4793,6154 4830,6179 4867,6216 4905,6263 4942,6318 4980,6381 5017,6445 5054,6508 5092,6567 5129,6618 5166,6660 5204,6692 5241,6715 5279,6731 5316,6741 5353,6746 5391,6749 5428,6751 5466,6751 5503,6752 5540,6752 5578,6751 5615,6750 5652,6749 5690,6747 5727,6745 5765,6743 5802,6741 5839,6738 5877,6736 5914,6733 5952,6731 5989,6728 6026,6725 6064,6722 6101,6720 6138,6718 6176,6717 6213,6717 6251,6718 6288,6720 6325,6722 6363,6723 6400,6724 6438,6724 6475,6724 6512,6722 6550,6720 6587,6718 6624,6716 6662,6715 6699,6714 6737,6714 6774,6715 6811,6717 6849,6719 6886,6721 6923,6723 6961,6726 6998,6728 7036,6729 7073,6730 7110,6730 7148,6729 7185,6728 7223,6725 7260,6722 7297,6718 7335,6714 7372,6710 7409,6706 7447,6703 7484,6700 7522,6697 7559,6696 7596,6694 7634,6692 7671,6691 7709,6690 7746,6689 7783,6688 7821,6687 7858,6686 7895,6686 7933,6686 7970,6686 8007,6686 8044,6687 8081,6688 8119,6689 8156,6690 8194,6690 8231,6690 8268,6690 8306,6690 8343,6690 8380,6690 8418,6689 8455,6687 8493,6682 8530,6673 8567,6657 8605,6631 8642,6594 8680,6543 8717,6480 8754,6404 8792,6318 8829,6227 8866,6135 8904,6047 8941,5967 8979,5896 9016,5837 9053,5790 9091,5754 9128,5726 9165,5705 9203,5690 9240,5679 9278,5670 9315,5664 9352,5660 9390,5657 9427,5657 9465,5657 9502,5658 9539,5660 9577,5663 9614,5666 9651,5668 9689,5670 9726,5672 9764,5673 9801,5673 9838,5672 9876,5669 9913,5666 9951,5662 9988,5658 10025,5654 10063,5650 10100,5647 10137,5645 10175,5644 10212,5645 10250,5647 10287,5650 10324,5654 10362,5660 10399,5665 10437,5671 10474,5676 10511,5681 10549,5685 10586,5688 10623,5689 10661,5689 10698,5689 10736,5688 10773,5686 10810,5686 10848,5686 10885,5687 10923,5690 10960,5692 10997,5695 11035,5698 11072,5701 11109,5702 11147,5702 11184,5700 11222,5698 11259,5694 11296,5689 11334,5684 11371,5678 11408,5674 11446,5670 11483,5666 11521,5664 11558,5661 11595,5660 11633,5658 11670,5657 11708,5657 11745,5657 11782,5657 11820,5659 11857,5661 11894,5665 11932,5668 11969,5670 12007,5673 12044,5675 12081,5676 12119,5675 12156,5674 12194,5672 12231,5670 12268,5668 12306,5667 12343,5666 12380,5667 12418,5670 12455,5674 12493,5679 12530,5685 12567,5691 12605,5697 12642,5702 12680,5705 12717,5707 12754,5708 12792,5707 12829,5706 12866,5706 12904,5709 12941,5716 12979,5729 13016,5749 13053,5777 13091,5813 13128,5854 13166,5898 13203,5943 13240,5985 13278,6021 13315,6047 13352,6064 13390,6071 13427,6069 13465,6061 13502,6049 13539,6036 13577,6023 13614,6012 13651,6004 13689,5997 13726,5993 13764,5989 13801,5986 13838,5983 13876,5981 13913,5978 13951,5975 13988,5973 14025,5972 14063,5970 14100,5969 14137,5969 14175,5968 14212,5967 14250,5966 14287,5964 14324,5962 14362,5960 14399,5959 14437,5958 14474,5957 14511,5957 14549,5958 14586,5960 14623,5961 14661,5963 14698,5965 14736,5966 14773,5968 14810,5970 14848,5972 14885,5974 14923,5977 14960,5979 14997,5981 15035,5981 15072,5981 15109,5979 15147,5977 15184,5973 15222,5970 15259,5966 15296,5963 15334,5961 15371,5959 15409,5958"/>
 </g>
 <defs>
  <mask id="mask2">
   <g>
    <defs>
     <linearGradient id="gradient2" x1="8699" y1="2081" x2="8699" y2="5325" gradientUnits="userSpaceOnUse">
      <stop offset="0.5" style="stop-color:rgb(26,26,26)"/>
      <stop offset="0.5" style="stop-color:rgb(26,26,26)"/>
      <stop offset="1" style="stop-color:rgb(26,26,26)"/>
      <stop offset="1" style="stop-color:rgb(26,26,26)"/>
     </linearGradient>
    </defs>
    <path style="fill:url(#gradient2)" d="M 1939,2081 L 15459,2081 15459,5325 1939,5325 1939,2081 Z"/>
   </g>
  </mask>
 </defs>
 <g style="mask:url(#mask2)">
  <path fill="none" stroke="rgb(255,66,14)" stroke-width="100" stroke-linejoin="round" stroke-dasharray="197,127" d="M 1989,4121 L 2026,4014 2064,3923 2101,3901 2138,3881 2176,3894 2213,3835 2251,3820 2288,3825 2325,3820 2363,3911 2400,3952 2437,3829 2475,3880 2512,3985 2550,4060 2587,4015 2624,4072 2662,4725 2699,4788 2737,4865 2774,4956 2811,5002 2849,5051 2886,5110 2923,5060 2961,5015 2998,5108 3036,5104 3073,5116 3110,5101 3148,5147 3185,5119 3223,5137 3260,5213 3297,5166 3335,5154 3372,5224 3409,5203 3447,5207 3484,5172 3522,5129 3559,5176 3596,5197 3634,5137 3671,5184 3709,5246 3746,5275 3783,5261 3821,5251 3858,5267 3895,5165 3933,5162 3970,5199 4008,5217 4045,5091 4082,5071 4120,5047 4157,5093 4195,5112 4232,5064 4269,5166 4307,5185 4344,5209 4381,5151 4419,5200 4456,5222 4494,5135 4531,5221 4568,5192 4606,5150 4643,5210 4680,4647 4718,4544 4755,4501 4793,4409 4830,4421 4867,4402 4905,4398 4942,4399 4980,4167 5017,4235 5054,4199 5092,4223 5129,4204 5166,4181 5204,4116 5241,4151 5279,4120 5316,4281 5353,4345 5391,4417 5428,4141 5466,4178 5503,4169 5540,3666 5578,3618 5615,3541 5652,3566 5690,3505 5727,3439 5765,3533 5802,3523 5839,3520 5877,3491 5914,3305 5952,2597 5989,2530 6026,2554 6064,2591 6101,2558 6138,2527 6176,2591 6213,2524 6251,2467 6288,2419 6325,2159 6363,2192 6400,2131 6438,3001 6475,3237 6512,3385 6550,3442 6587,3529 6624,3451 6662,3529 6699,3596 6737,3610 6774,3670 6811,3625 6849,3644 6886,3600 6923,3666 6961,3613 6998,3583 7036,3659 7073,3686 7110,3683 7148,3134 7185,3020 7223,3015 7260,2970 7297,2834 7335,2871 7372,2869 7409,2814 7447,2779 7484,2705 7522,2760 7559,2755 7596,2622 7634,2563 7671,2456 7709,2394 7746,2404 7783,2362 7821,2411 7858,2381 7895,2423 7933,2423 7970,2326 8007,2385 8044,2427 8081,2324 8119,2414 8156,2287 8194,2319 8231,2383 8268,2338 8306,2317 8343,2364 8380,2261 8418,2296 8455,2309 8493,2255 8530,2365 8567,2299 8605,2250 8642,2238 8680,2285 8717,2344 8754,2274 8792,2279 8829,2686 8866,2667 8904,2718 8941,2743 8979,2516 9016,2607 9053,2563 9091,2546 9128,2532 9165,3302 9203,3489 9240,3595 9278,3608 9315,3743 9352,3853 9390,3969 9427,3922 9465,3923 9502,4015 9539,4181 9577,4152 9614,4372 9651,4389 9689,4354 9726,4465 9764,4153 9801,4185 9838,4331 9876,4355 9913,4351 9951,4434 9988,4463 10025,4378 10063,4475 10100,4407 10137,4343 10175,4354 10212,4430 10250,4453 10287,4459 10324,4462 10362,4422 10399,4442 10437,4469 10474,4392 10511,4324 10549,4347 10586,4410 10623,4223 10661,4151 10698,4160 10736,4216 10773,4261 10810,4240 10848,4169 10885,4167 10923,4187 10960,4254 10997,4143 11035,4207 11072,4213 11109,4203 11147,4177 11184,4269 11222,4247 11259,4213 11296,4187 11334,4084 11371,4083 11408,4095 11446,4073 11483,4127 11521,4072 11558,4223 11595,4144 11633,4223 11670,4199 11708,3939 11745,3840 11782,3791 11820,3807 11857,3846 11894,3851 11932,3912 11969,3733 12007,3947 12044,4031 12081,4085 12119,4147 12156,4076 12194,4089 12231,4068 12268,4151 12306,4089 12343,4101 12380,4188 12418,4223 12455,4215 12493,4184 12530,4283 12567,4227 12605,4312 12642,4160 12680,4119 12717,4140 12754,4064 12792,4150 12829,4112 12866,4167 12904,4101 12941,4322 12979,4378 13016,4353 13053,4405 13091,4396 13128,4339 13166,4430 13203,4450 13240,4282 13278,4313 13315,4272 13352,4333 13390,4309 13427,4363 13465,4361 13502,4324 13539,4415 13577,4391 13614,4393 13651,3719 13689,3891 13726,3916 13764,3798 13801,3753 13838,3850 13876,3814 13913,3763 13951,3734 13988,3544 14025,3447 14063,3531 14100,3447 14137,3437 14175,3397 14212,3447 14250,3366 14287,3441 14324,3404 14362,3396 14399,3308 14437,3368 14474,3356 14511,3338 14549,3291 14586,3291 14623,3299 14661,3283 14698,3250 14736,3268 14773,3321 14810,3288 14848,3324 14885,3248 14923,3262 14960,3273 14997,3469 15035,3600 15072,3542 15109,3643 15147,3586 15184,3586 15222,3644 15259,4080 15296,4195 15334,4278 15371,4268 15409,4262"/>
 </g>
 <defs>
  <mask id="mask3">
   <g>
    <defs>
     <linearGradient id="gradient3" x1="8699" y1="5594" x2="8699" y2="6802" gradientUnits="userSpaceOnUse">
      <stop offset="0.5" style="stop-color:rgb(26,26,26)"/>
      <stop offset="0.5" style="stop-color:rgb(26,26,26)"/>
      <stop offset="1" style="stop-color:rgb(26,26,26)"/>
      <stop offset="1" style="stop-color:rgb(26,26,26)"/>
     </linearGradient>
    </defs>
    <path style="fill:url(#gradient3)" d="M 1939,5594 L 15459,5594 15459,6802 1939,6802 1939,5594 Z"/>
   </g>
  </mask>
 </defs>
 <g style="mask:url(#mask3)">
  <path fill="none" stroke="rgb(0,69,134)" stroke-width="100" stroke-linejoin="round" stroke-dasharray="197,127" d="M 1989,5948 L 2026,5951 2064,5955 2101,5959 2138,5966 2176,5973 2213,5981 2251,5990 2288,5998 2325,6005 2363,6013 2400,6021 2437,6030 2475,6040 2512,6052 2550,6066 2587,6083 2624,6102 2662,6123 2699,6146 2737,6169 2774,6191 2811,6213 2849,6233 2886,6252 2923,6270 2961,6287 2998,6304 3036,6321 3073,6337 3110,6354 3148,6371 3185,6387 3223,6401 3260,6415 3297,6427 3335,6437 3372,6445 3409,6451 3447,6457 3484,6462 3522,6466 3559,6470 3596,6474 3634,6478 3671,6483 3709,6487 3746,6491 3783,6495 3821,6499 3858,6503 3895,6506 3933,6509 3970,6513 4008,6517 4045,6521 4082,6525 4120,6530 4157,6536 4195,6542 4232,6548 4269,6553 4307,6557 4344,6560 4381,6562 4419,6562 4456,6561 4494,6558 4531,6553 4568,6548 4606,6540 4643,6531 4680,6521 4718,6509 4755,6497 4793,6482 4830,6467 4867,6451 4905,6434 4942,6417 4980,6400 5017,6383 5054,6367 5092,6353 5129,6341 5166,6331 5204,6323 5241,6317 5279,6313 5316,6309 5353,6305 5391,6300 5428,6293 5466,6283 5503,6271 5540,6257 5578,6242 5615,6230 5652,6222 5690,6220 5727,6227 5765,6243 5802,6269 5839,6303 5877,6343 5914,6386 5952,6428 5989,6467 6026,6500 6064,6525 6101,6541 6138,6549 6176,6549 6213,6543 6251,6532 6288,6517 6325,6501 6363,6486 6400,6471 6438,6459 6475,6450 6512,6444 6550,6443 6587,6445 6624,6450 6662,6458 6699,6467 6737,6476 6774,6486 6811,6495 6849,6503 6886,6510 6923,6516 6961,6520 6998,6523 7036,6525 7073,6523 7110,6519 7148,6512 7185,6501 7223,6486 7260,6469 7297,6450 7335,6430 7372,6409 7409,6388 7447,6368 7484,6349 7522,6331 7559,6314 7596,6298 7634,6282 7671,6267 7709,6252 7746,6237 7783,6222 7821,6208 7858,6194 7895,6181 7933,6170 7970,6161 8007,6154 8044,6148 8081,6143 8119,6140 8156,6136 8194,6134 8231,6131 8268,6127 8306,6123 8343,6119 8380,6114 8418,6109 8455,6104 8493,6099 8530,6094 8567,6091 8605,6088 8642,6087 8680,6088 8717,6090 8754,6094 8792,6098 8829,6105 8866,6112 8904,6119 8941,6128 8979,6138 9016,6150 9053,6164 9091,6183 9128,6205 9165,6230 9203,6257 9240,6284 9278,6307 9315,6323 9352,6329 9390,6323 9427,6303 9465,6269 9502,6223 9539,6169 9577,6110 9614,6052 9651,5997 9689,5948 9726,5908 9764,5878 9801,5856 9838,5841 9876,5831 9913,5824 9951,5818 9988,5812 10025,5805 10063,5797 10100,5789 10137,5780 10175,5771 10212,5763 10250,5756 10287,5749 10324,5744 10362,5738 10399,5734 10437,5729 10474,5724 10511,5717 10549,5711 10586,5703 10623,5695 10661,5687 10698,5678 10736,5670 10773,5663 10810,5657 10848,5651 10885,5647 10923,5645 10960,5644 10997,5646 11035,5651 11072,5661 11109,5677 11147,5700 11184,5730 11222,5768 11259,5811 11296,5859 11334,5908 11371,5957 11408,6002 11446,6040 11483,6071 11521,6093 11558,6107 11595,6113 11633,6112 11670,6107 11708,6098 11745,6086 11782,6073 11820,6060 11857,6048 11894,6037 11932,6027 11969,6020 12007,6015 12044,6013 12081,6014 12119,6017 12156,6023 12194,6032 12231,6043 12268,6057 12306,6074 12343,6093 12380,6115 12418,6140 12455,6169 12493,6202 12530,6238 12567,6277 12605,6319 12642,6361 12680,6404 12717,6445 12754,6484 12792,6520 12829,6554 12866,6583 12904,6609 12941,6632 12979,6651 13016,6668 13053,6682 13091,6694 13128,6703 13166,6711 13203,6717 13240,6723 13278,6729 13315,6734 13352,6739 13390,6744 13427,6748 13465,6751 13502,6752 13539,6750 13577,6744 13614,6736 13651,6725 13689,6711 13726,6695 13764,6678 13801,6661 13838,6644 13876,6629 13913,6615 13951,6603 13988,6592 14025,6581 14063,6571 14100,6560 14137,6550 14175,6539 14212,6529 14250,6518 14287,6508 14324,6498 14362,6490 14399,6482 14437,6476 14474,6472 14511,6468 14549,6467 14586,6466 14623,6466 14661,6467 14698,6468 14736,6469 14773,6470 14810,6470 14848,6470 14885,6470 14923,6471 14960,6472 14997,6475 15035,6479 15072,6484 15109,6491 15147,6499 15184,6507 15222,6516 15259,6523 15296,6530 15334,6534 15371,6538 15409,6540"/>
 </g>
 <text class="TextShape"><tspan class="TextParagraph" font-family="Liberation Sans, sans-serif" font-size="353px" font-weight="400"><tspan class="TextPosition" x="1859" y="7763"><tspan fill="rgb(0,0,0)" stroke="none">0</tspan></tspan></tspan></text>
 <text class="TextShape"><tspan class="TextParagraph" font-family="Liberation Sans, sans-serif" font-size="353px" font-weight="400"><tspan class="TextPosition" x="4010" y="7763"><tspan fill="rgb(0,0,0)" stroke="none">60</tspan></tspan></tspan></text>
 <text class="TextShape"><tspan class="TextParagraph" font-family="Liberation Sans, sans-serif" font-size="353px" font-weight="400"><tspan class="TextPosition" x="6160" y="7763"><tspan fill="rgb(0,0,0)" stroke="none">120</tspan></tspan></tspan></text>
 <text class="TextShape"><tspan class="TextParagraph" font-family="Liberation Sans, sans-serif" font-size="353px" font-weight="400"><tspan class="TextPosition" x="8403" y="7763"><tspan fill="rgb(0,0,0)" stroke="none">180</tspan></tspan></tspan></text>
 <text class="TextShape"><tspan class="TextParagraph" font-family="Liberation Sans, sans-serif" font-size="353px" font-weight="400"><tspan class="TextPosition" x="10646" y="7763"><tspan fill="rgb(0,0,0)" stroke="none">240</tspan></tspan></tspan></text>
 <text class="TextShape"><tspan class="TextParagraph" font-family="Liberation Sans, sans-serif" font-size="353px" font-weight="400"><tspan class="TextPosition" x="12889" y="7763"><tspan fill="rgb(0,0,0)" stroke="none">300</tspan></tspan></tspan></text>
 <text class="TextShape"><tspan class="TextParagraph" font-family="Liberation Sans, sans-serif" font-size="353px" font-weight="400"><tspan class="TextPosition" x="15132" y="7763"><tspan fill="rgb(0,0,0)" stroke="none">360</tspan></tspan></tspan></text>
 <text class="TextShape"><tspan class="TextParagraph" font-family="Liberation Sans, sans-serif" font-size="353px" font-weight="400"><tspan class="TextPosition" x="1517" y="7316"><tspan fill="rgb(0,0,0)" stroke="none">0</tspan></tspan></tspan></text>
 <text class="TextShape"><tspan class="TextParagraph" font-family="Liberation Sans, sans-serif" font-size="353px" font-weight="400"><tspan class="TextPosition" x="1517" y="6208"><tspan fill="rgb(0,0,0)" stroke="none">5</tspan></tspan></tspan></text>
 <text class="TextShape"><tspan class="TextParagraph" font-family="Liberation Sans, sans-serif" font-size="353px" font-weight="400"><tspan class="TextPosition" x="1332" y="5101"><tspan fill="rgb(0,0,0)" stroke="none">10</tspan></tspan></tspan></text>
 <text class="TextShape"><tspan class="TextParagraph" font-family="Liberation Sans, sans-serif" font-size="353px" font-weight="400"><tspan class="TextPosition" x="1332" y="3993"><tspan fill="rgb(0,0,0)" stroke="none">15</tspan></tspan></tspan></text>
 <text class="TextShape"><tspan class="TextParagraph" font-family="Liberation Sans, sans-serif" font-size="353px" font-weight="400"><tspan class="TextPosition" x="1332" y="2886"><tspan fill="rgb(0,0,0)" stroke="none">20</tspan></tspan></tspan></text>
 <text class="TextShape"><tspan class="TextParagraph" font-family="Liberation Sans, sans-serif" font-size="353px" font-weight="400"><tspan class="TextPosition" x="1332" y="1779"><tspan fill="rgb(0,0,0)" stroke="none">25</tspan></tspan></tspan></text>
 <defs>
  <mask id="mask4">
   <g>
    <defs>
     <linearGradient id="gradient4" x1="1506" y1="433" x2="1506" y2="533" gradientUnits="userSpaceOnUse">
      <stop offset="0.5" style="stop-color:rgb(26,26,26)"/>
      <stop offset="0.5" style="stop-color:rgb(26,26,26)"/>
      <stop offset="1" style="stop-color:rgb(26,26,26)"/>
      <stop offset="1" style="stop-color:rgb(26,26,26)"/>
     </linearGradient>
    </defs>
    <path style="fill:url(#gradient4)" d="M 656,433 L 2356,433 2356,533 656,533 656,433 Z"/>
   </g>
  </mask>
 </defs>
 <g style="mask:url(#mask4)">
  <path fill="none" stroke="rgb(0,69,134)" stroke-width="100" stroke-linejoin="round" stroke-dasharray="197,127" d="M 706,483 L 2306,483"/>
 </g>
 <defs>
  <mask id="mask5">
   <g>
    <defs>
     <linearGradient id="gradient5" x1="4498" y1="433" x2="4498" y2="533" gradientUnits="userSpaceOnUse">
      <stop offset="0.5" style="stop-color:rgb(26,26,26)"/>
      <stop offset="0.5" style="stop-color:rgb(26,26,26)"/>
      <stop offset="1" style="stop-color:rgb(26,26,26)"/>
      <stop offset="1" style="stop-color:rgb(26,26,26)"/>
     </linearGradient>
    </defs>
    <path style="fill:url(#gradient5)" d="M 3648,433 L 5348,433 5348,533 3648,533 3648,433 Z"/>
   </g>
  </mask>
 </defs>
 <g style="mask:url(#mask5)">
  <path fill="none" stroke="rgb(255,66,14)" stroke-width="100" stroke-linejoin="round" stroke-dasharray="197,127" d="M 3698,483 L 5298,483"/>
 </g>
 <defs>
  <mask id="mask6">
   <g>
    <defs>
     <linearGradient id="gradient6" x1="7489" y1="433" x2="7489" y2="533" gradientUnits="userSpaceOnUse">
      <stop offset="0.5" style="stop-color:rgb(26,26,26)"/>
      <stop offset="0.5" style="stop-color:rgb(26,26,26)"/>
      <stop offset="1" style="stop-color:rgb(26,26,26)"/>
      <stop offset="1" style="stop-color:rgb(26,26,26)"/>
     </linearGradient>
    </defs>
    <path style="fill:url(#gradient6)" d="M 6640,433 L 8339,433 8339,533 6640,533 6640,433 Z"/>
   </g>
  </mask>
 </defs>
 <g style="mask:url(#mask6)">
  <path fill="none" stroke="rgb(255,211,32)" stroke-width="100" stroke-linejoin="round" stroke-dasharray="197,127" d="M 6690,483 L 8289,483"/>
 </g>
 <path fill="none" stroke="rgb(87,157,28)" stroke-width="80" stroke-linejoin="round" d="M 9681,483 L 11281,483"/>
 <path fill="none" stroke="rgb(49,64,4)" stroke-width="80" stroke-linejoin="round" d="M 12647,483 L 14247,483"/>
 <path fill="none" stroke="rgb(126,0,33)" stroke-width="80" stroke-linejoin="round" d="M 706,981 L 2306,981"/>
 <path fill="none" stroke="rgb(174,207,0)" stroke-width="80" stroke-linejoin="round" d="M 3698,981 L 5298,981"/>
 <path fill="none" stroke="rgb(131,202,255)" stroke-width="80" stroke-linejoin="round" d="M 6690,981 L 8289,981"/>
 <path fill="none" stroke="rgb(75,31,111)" stroke-width="80" stroke-linejoin="round" d="M 9681,981 L 11281,981"/>
 <text class="TextShape"><tspan class="TextParagraph" font-family="Liberation Sans, sans-serif" font-size="353px" font-weight="400"><tspan class="TextPosition" x="2406" y="603"><tspan fill="rgb(0,0,0)" stroke="none">Факт 1</tspan></tspan></tspan></text>
 <text class="TextShape"><tspan class="TextParagraph" font-family="Liberation Sans, sans-serif" font-size="353px" font-weight="400"><tspan class="TextPosition" x="5398" y="603"><tspan fill="rgb(0,0,0)" stroke="none">Факт 2</tspan></tspan></tspan></text>
 <text class="TextShape"><tspan class="TextParagraph" font-family="Liberation Sans, sans-serif" font-size="353px" font-weight="400"><tspan class="TextPosition" x="8389" y="603"><tspan fill="rgb(0,0,0)" stroke="none">Факт 3</tspan></tspan></tspan></text>
 <text class="TextShape"><tspan class="TextParagraph" font-family="Liberation Sans, sans-serif" font-size="353px" font-weight="400"><tspan class="TextPosition" x="11381" y="603"><tspan fill="rgb(0,0,0)" stroke="none">Адп. 1</tspan></tspan></tspan></text>
 <text class="TextShape"><tspan class="TextParagraph" font-family="Liberation Sans, sans-serif" font-size="353px" font-weight="400"><tspan class="TextPosition" x="14347" y="603"><tspan fill="rgb(0,0,0)" stroke="none">Экз. 1</tspan></tspan></tspan></text>
 <text class="TextShape"><tspan class="TextParagraph" font-family="Liberation Sans, sans-serif" font-size="353px" font-weight="400"><tspan class="TextPosition" x="2406" y="1101"><tspan fill="rgb(0,0,0)" stroke="none">Адп. 2</tspan></tspan></tspan></text>
 <text class="TextShape"><tspan class="TextParagraph" font-family="Liberation Sans, sans-serif" font-size="353px" font-weight="400"><tspan class="TextPosition" x="5398" y="1101"><tspan fill="rgb(0,0,0)" stroke="none">Экз. 2</tspan></tspan></tspan></text>
 <text class="TextShape"><tspan class="TextParagraph" font-family="Liberation Sans, sans-serif" font-size="353px" font-weight="400"><tspan class="TextPosition" x="8389" y="1101"><tspan fill="rgb(0,0,0)" stroke="none">Адп. 3</tspan></tspan></tspan></text>
 <text class="TextShape"><tspan class="TextParagraph" font-family="Liberation Sans, sans-serif" font-size="353px" font-weight="400"><tspan class="TextPosition" x="11381" y="1101"><tspan fill="rgb(0,0,0)" stroke="none">Экз. 3</tspan></tspan></tspan></text>
 <text class="TextShape"><tspan class="TextParagraph" font-family="Liberation Sans, sans-serif" font-size="318px" font-weight="400"><tspan class="TextPosition" x="7491" y="8410"><tspan fill="rgb(0,0,0)" stroke="none">Период, мес. </tspan></tspan></tspan></text>
 <text class="TextShape" transform="rotate(-90 837 5815)"><tspan class="TextParagraph" font-family="Liberation Sans, sans-serif" font-size="318px" font-weight="400"><tspan class="TextPosition" x="837" y="5815"><tspan fill="rgb(0,0,0)" stroke="none">Давление, МПа</tspan></tspan></tspan></text>
</svg>