<?xml version="1.0" encoding="UTF-8"?>
<!DOCTYPE svg PUBLIC "-//W3C//DTD SVG 1.1//EN" "http://www.w3.org/Graphics/SVG/1.1/DTD/svg11.dtd">
<svg width="160mm" height="90mm" viewBox="0 0 16000 9000" version="1.1" xmlns="http://www.w3.org/2000/svg" xmlns:xlink="http://www.w3.org/1999/xlink" stroke-width="28.222" stroke-linejoin="round" xml:space="preserve">
 <path fill="rgb(255,255,255)" stroke="none" d="M 8005,9004 L 0,9004 0,0 16009,0 16009,9004 8005,9004 Z"/>
 <path fill="none" stroke="rgb(179,179,179)" stroke-linejoin="round" d="M 8680,7196 L 1952,7196 1952,1661 15409,1661 15409,7196 8680,7196 Z"/>
 <path fill="none" stroke="rgb(179,179,179)" stroke-linejoin="round" d="M 1952,1660 L 1952,7195"/>
 <path fill="none" stroke="rgb(179,179,179)" stroke-linejoin="round" d="M 4195,1660 L 4195,7195"/>
 <path fill="none" stroke="rgb(179,179,179)" stroke-linejoin="round" d="M 6438,1660 L 6438,7195"/>
 <path fill="none" stroke="rgb(179,179,179)" stroke-linejoin="round" d="M 8680,1660 L 8680,7195"/>
 <path fill="none" stroke="rgb(179,179,179)" stroke-linejoin="round" d="M 10923,1660 L 10923,7195"/>
 <path fill="none" stroke="rgb(179,179,179)" stroke-linejoin="round" d="M 13166,1660 L 13166,7195"/>
 <path fill="none" stroke="rgb(179,179,179)" stroke-linejoin="round" d="M 15409,1660 L 15409,7195"/>
 <path fill="none" stroke="rgb(179,179,179)" stroke-linejoin="round" d="M 15409,7195 L 1952,7195"/>
 <path fill="none" stroke="rgb(179,179,179)" stroke-linejoin="round" d="M 15409,6404 L 1952,6404"/>
 <path fill="none" stroke="rgb(179,179,179)" stroke-linejoin="round" d="M 15409,5613 L 1952,5613"/>
 <path fill="none" stroke="rgb(179,179,179)" stroke-linejoin="round" d="M 15409,4822 L 1952,4822"/>
 <path fill="none" stroke="rgb(179,179,179)" stroke-linejoin="round" d="M 15409,4032 L 1952,4032"/>
 <path fill="none" stroke="rgb(179,179,179)" stroke-linejoin="round" d="M 15409,3241 L 1952,3241"/>
 <path fill="none" stroke="rgb(179,179,179)" stroke-linejoin="round" d="M 15409,2450 L 1952,2450"/>
 <path fill="none" stroke="rgb(179,179,179)" stroke-linejoin="round" d="M 15409,1660 L 1952,1660"/>
 <path fill="none" stroke="rgb(179,179,179)" stroke-linejoin="round" d="M 1952,7345 L 1952,7195"/>
 <path fill="none" stroke="rgb(179,179,179)" stroke-linejoin="round" d="M 1952,7345 L 1952,7195"/>
 <path fill="none" stroke="rgb(179,179,179)" stroke-linejoin="round" d="M 4195,7345 L 4195,7195"/>
 <path fill="none" stroke="rgb(179,179,179)" stroke-linejoin="round" d="M 4195,7345 L 4195,7195"/>
 <path fill="none" stroke="rgb(179,179,179)" stroke-linejoin="round" d="M 6438,7345 L 6438,7195"/>
 <path fill="none" stroke="rgb(179,179,179)" stroke-linejoin="round" d="M 6438,7345 L 6438,7195"/>
 <path fill="none" stroke="rgb(179,179,179)" stroke-linejoin="round" d="M 8680,7345 L 8680,7195"/>
 <path fill="none" stroke="rgb(179,179,179)" stroke-linejoin="round" d="M 8680,7345 L 8680,7195"/>
 <path fill="none" stroke="rgb(179,179,179)" stroke-linejoin="round" d="M 10923,7345 L 10923,7195"/>
 <path fill="none" stroke="rgb(179,179,179)" stroke-linejoin="round" d="M 10923,7345 L 10923,7195"/>
 <path fill="none" stroke="rgb(179,179,179)" stroke-linejoin="round" d="M 13166,7345 L 13166,7195"/>
 <path fill="none" stroke="rgb(179,179,179)" stroke-linejoin="round" d="M 13166,7345 L 13166,7195"/>
 <path fill="none" stroke="rgb(179,179,179)" stroke-linejoin="round" d="M 15409,7345 L 15409,7195"/>
 <path fill="none" stroke="rgb(179,179,179)" stroke-linejoin="round" d="M 15409,7345 L 15409,7195"/>
 <path fill="none" stroke="rgb(179,179,179)" stroke-linejoin="round" d="M 1952,7195 L 15409,7195"/>
 <path fill="none" stroke="rgb(179,179,179)" stroke-linejoin="round" d="M 1802,7195 L 1952,7195"/>
 <path fill="none" stroke="rgb(179,179,179)" stroke-linejoin="round" d="M 1802,7195 L 1952,7195"/>
 <path fill="none" stroke="rgb(179,179,179)" stroke-linejoin="round" d="M 1802,6404 L 1952,6404"/>
 <path fill="none" stroke="rgb(179,179,179)" stroke-linejoin="round" d="M 1802,6404 L 1952,6404"/>
 <path fill="none" stroke="rgb(179,179,179)" stroke-linejoin="round" d="M 1802,5613 L 1952,5613"/>
 <path fill="none" stroke="rgb(179,179,179)" stroke-linejoin="round" d="M 1802,5613 L 1952,5613"/>
 <path fill="none" stroke="rgb(179,179,179)" stroke-linejoin="round" d="M 1802,4822 L 1952,4822"/>
 <path fill="none" stroke="rgb(179,179,179)" stroke-linejoin="round" d="M 1802,4822 L 1952,4822"/>
 <path fill="none" stroke="rgb(179,179,179)" stroke-linejoin="round" d="M 1802,4032 L 1952,4032"/>
 <path fill="none" stroke="rgb(179,179,179)" stroke-linejoin="round" d="M 1802,4032 L 1952,4032"/>
 <path fill="none" stroke="rgb(179,179,179)" stroke-linejoin="round" d="M 1802,3241 L 1952,3241"/>
 <path fill="none" stroke="rgb(179,179,179)" stroke-linejoin="round" d="M 1802,3241 L 1952,3241"/>
 <path fill="none" stroke="rgb(179,179,179)" stroke-linejoin="round" d="M 1802,2450 L 1952,2450"/>
 <path fill="none" stroke="rgb(179,179,179)" stroke-linejoin="round" d="M 1802,2450 L 1952,2450"/>
 <path fill="none" stroke="rgb(179,179,179)" stroke-linejoin="round" d="M 1802,1660 L 1952,1660"/>
 <path fill="none" stroke="rgb(179,179,179)" stroke-linejoin="round" d="M 1802,1660 L 1952,1660"/>
 <path fill="none" stroke="rgb(179,179,179)" stroke-linejoin="round" d="M 1952,7195 L 1952,1660"/>
 <path fill="none" stroke="rgb(75,31,111)" stroke-width="80" stroke-linejoin="round" d="M 10063,4850 L 10100,4793 10137,5240 10175,5173 10212,4833 10250,4965 10287,4916 10324,5014 10362,4970 10399,4869 10437,5013 10474,4820 10511,4910 10549,4912 10586,4763 10623,5108 10661,4947 10698,5211 10736,5029 10773,4892 10810,5382 10848,5365 10885,5431 10923,5141 10960,5276 10997,4976 11035,5154 11072,5005 11109,4993 11147,5337 11184,5207 11222,5307 11259,5162 11296,5002 11334,5179 11371,4882 11408,4862 11446,4951 11483,4901 11521,5300 11558,5290 11595,5253 11633,5054 11670,5040 11708,4715 11745,4937 11782,5043 11820,4903 11857,3816 11894,4160 11932,4293 11969,3750 12007,4420 12044,4400 12081,4597 12119,4319 12156,4307 12194,4148 12231,4333 12268,4288 12306,4439 12343,4449 12380,4503 12418,4257 12455,4088 12493,4416 12530,4074 12567,4553 12605,4575 12642,3843 12680,4090 12717,4081 12754,4021 12792,4261 12829,3818 12866,3786 12904,3916 12941,4488 12979,4327 13016,4232 13053,4326 13091,4431 13128,4440 13166,4192 13203,4122 13240,4009 13278,4192 13315,4247 13352,4202 13390,4393 13427,4307 13465,4207 13502,4151 13539,4397 13577,3963 13614,4444 13651,4509 13689,4839 13726,4776 13764,4943 13801,4564 13838,4898 13876,5018 13913,4937 13951,5041 13988,4541 14025,4407 14063,4883 14100,4404 14137,4880 14175,4803 14212,4808 14250,4459 14287,4683 14324,4838 14362,4802 14399,4806 14437,4707 14474,4500 14511,4883 14549,4703 14586,4498 14623,4882 14661,4451 14698,4428 14736,4464 14773,4661 14810,4825 14848,4895 14885,4910 14923,4919 14960,4520 14997,4607 15035,4728 15072,4882 15109,4843 15147,4745 15184,4538 15222,4571 15259,5034 15296,4869 15334,4827 15371,5080 15409,4749"/>
 <path fill="none" stroke="rgb(131,202,255)" stroke-width="80" stroke-linejoin="round" d="M 2026,4133 L 2064,4173 2101,4117 2138,3882 2176,4153 2213,4006 2251,4197 2288,3906 2325,4240 2363,3956 2400,3740 2437,3766 2475,3756 2512,3949 2550,3950 2587,4053 2624,4114 2662,4475 2699,3577 2737,3825 2774,3668 2811,3498 2849,3472 2886,3454 2923,3792 2961,3909 2998,3620 3036,3412 3073,3487 3110,3632 3148,3488 3185,3581 3223,3395 3260,3685 3297,3701 3335,3913 3372,3685 3409,3629 3447,4668 3484,5002 3522,4918 3559,4799 3596,5163 3634,5050 3671,5364 3709,5146 3746,5198 3783,5053 3821,5047 3858,4944 3895,5237 3933,5257 3970,5367 4008,4868 4045,5290 4082,4844 4120,5069 4157,5227 4195,5042 4232,5187 4269,4794 4307,5020 4344,4975 4381,5224 4419,4989 4456,4777 4494,4855 4531,4800 4568,5274 4606,5053 4643,4897 4680,4833 4718,5467 4755,5007 4793,4991 4830,5338 4867,5478 4905,5402 4942,5462 4980,5474 5017,5121 5054,4398 5092,4128 5129,4123 5166,4494 5204,4101 5241,4222 5279,4014 5316,4446 5353,4711 5391,4439 5428,4330 5466,4101 5503,4227 5540,3922 5578,4223 5615,4434 5652,4300 5690,4449 5727,4359 5765,4657 5802,4277 5839,4710 5877,4484 5914,4729 5952,4570 5989,4000 6026,3920 6064,4149 6101,3748 6138,4073 6176,3830 6213,4166 6251,3679 6288,3799 6325,4144 6363,5278 6400,5326 6438,5175 6475,5351 6512,5181 6550,5186 6587,5519 6624,5474 6662,5234 6699,5548 6737,5442 6774,5241 6811,5528 6849,5392 6886,5539 6923,5574 6961,5581 6998,5510 7036,5306 7073,5187 7110,5547 7148,5442 7185,5227 7223,5210 7260,5299 7297,5450 7335,5551 7372,5425 7409,5221 7447,5256 7484,5453 7522,5265 7559,5156 7596,5536 7634,5300 7671,5495 7709,5568 7746,5581 7783,5529 7821,5278 7858,5260 7895,5149 7933,5286 7970,5188 8007,5432 8044,5448 8081,5305 8119,5197 8156,5547 8194,5509 8231,5214 8268,5396 8306,5200 8343,5185 8380,5127 8418,5268 8455,5425 8493,5389 8530,5142 8567,5528 8605,5247 8642,5546 8680,5403 8717,5097 8754,5523 8792,5553 8829,5152 8866,5538 8904,5183 8941,5467 8979,5554 9016,5525 9053,5127 9091,5350 9128,5303 9165,5400 9203,4994 9240,5365 9278,4875 9315,5142 9352,5245 9390,4993 9427,5075 9465,5225 9502,5135 9539,4933 9577,4931 9614,5076 9651,5109 9689,5483 9726,5097 9764,5333 9801,5134 9838,5277 9876,5515 9913,5005 9951,5181 9988,4831 10025,4955"/>
 <path fill="none" stroke="rgb(174,207,0)" stroke-width="80" stroke-linejoin="round" d="M 10063,6264 L 10100,6265 10137,6266 10175,6265 10212,6264 10250,6262 10287,6260 10324,6258 10362,6256 10399,6254 10437,6251 10474,6247 10511,6242 10549,6235 10586,6226 10623,6214 10661,6202 10698,6189 10736,6175 10773,6162 10810,6150 10848,6140 10885,6132 10923,6124 10960,6118 10997,6114 11035,6111 11072,6108 11109,6105 11147,6102 11184,6098 11222,6095 11259,6091 11296,6088 11334,6087 11371,6088 11408,6094 11446,6105 11483,6124 11521,6152 11558,6190 11595,6236 11633,6290 11670,6350 11708,6413 11745,6477 11782,6536 11820,6590 11857,6636 11894,6674 11932,6704 11969,6727 12007,6746 12044,6760 12081,6770 12119,6779 12156,6785 12194,6790 12231,6794 12268,6798 12306,6800 12343,6802 12380,6802 12418,6802 12455,6802 12493,6801 12530,6799 12567,6797 12605,6794 12642,6790 12680,6787 12717,6783 12754,6779 12792,6775 12829,6771 12866,6769 12904,6767 12941,6766 12979,6765 13016,6765 13053,6766 13091,6766 13128,6766 13166,6765 13203,6763 13240,6761 13278,6759 13315,6756 13352,6755 13390,6753 13427,6753 13465,6754 13502,6757 13539,6761 13577,6765 13614,6770 13651,6774 13689,6780 13726,6783 13764,6786 13801,6789 13838,6792 13876,6793 13913,6794 13951,6795 13988,6794 14025,6794 14063,6792 14100,6789 14137,6788 14175,6785 14212,6783 14250,6782 14287,6781 14324,6779 14362,6778 14399,6777 14437,6777 14474,6776 14511,6776 14549,6776 14586,6776 14623,6775 14661,6774 14698,6770 14736,6763 14773,6752 14810,6735 14848,6713 14885,6684 14923,6651 14960,6613 14997,6572 15035,6532 15072,6495 15109,6462 15147,6434 15184,6413 15222,6397 15259,6387 15296,6381 15334,6381 15371,6382 15409,6383"/>
 <path fill="none" stroke="rgb(126,0,33)" stroke-width="80" stroke-linejoin="round" d="M 1989,6329 L 2026,6326 2064,6330 2101,6334 2138,6338 2176,6340 2213,6342 2251,6344 2288,6344 2325,6345 2363,6345 2400,6345 2437,6345 2475,6345 2512,6344 2550,6343 2587,6342 2624,6342 2662,6343 2699,6345 2737,6352 2774,6363 2811,6378 2849,6399 2886,6426 2923,6458 2961,6495 2998,6534 3036,6573 3073,6610 3110,6645 3148,6675 3185,6699 3223,6719 3260,6734 3297,6745 3335,6754 3372,6760 3409,6765 3447,6770 3484,6774 3522,6778 3559,6782 3596,6785 3634,6788 3671,6790 3709,6793 3746,6794 3783,6795 3821,6796 3858,6797 3895,6797 3933,6796 3970,6795 4008,6794 4045,6793 4082,6791 4120,6790 4157,6788 4195,6786 4232,6784 4269,6782 4307,6780 4344,6779 4381,6778 4419,6778 4456,6779 4494,6780 4531,6782 4568,6783 4606,6785 4643,6789 4680,6792 4718,6796 4755,6799 4793,6803 4830,6808 4867,6812 4905,6816 4942,6819 4980,6820 5017,6818 5054,6810 5092,6797 5129,6777 5166,6750 5204,6717 5241,6679 5279,6635 5316,6589 5353,6541 5391,6496 5428,6456 5466,6421 5503,6390 5540,6364 5578,6344 5615,6327 5652,6314 5690,6304 5727,6296 5765,6290 5802,6285 5839,6282 5877,6280 5914,6279 5952,6279 5989,6279 6026,6279 6064,6280 6101,6283 6138,6286 6176,6291 6213,6294 6251,6297 6288,6298 6325,6297 6363,6295 6400,6290 6438,6286 6475,6280 6512,6276 6550,6272 6587,6267 6624,6261 6662,6256 6699,6250 6737,6245 6774,6241 6811,6237 6849,6235 6886,6232 6923,6230 6961,6228 6998,6227 7036,6226 7073,6226 7110,6227 7148,6227 7185,6227 7223,6228 7260,6229 7297,6231 7335,6234 7372,6237 7409,6241 7447,6244 7484,6247 7522,6251 7559,6253 7596,6255 7634,6257 7671,6259 7709,6260 7746,6261 7783,6261 7821,6261 7858,6261 7895,6261 7933,6260 7970,6259 8007,6258 8044,6256 8081,6254 8119,6253 8156,6251 8194,6251 8231,6250 8268,6250 8306,6251 8343,6252 8380,6253 8418,6255 8455,6257 8493,6259 8530,6261 8567,6261 8605,6262 8642,6263 8680,6262 8717,6261 8754,6260 8792,6261 8829,6261 8866,6260 8904,6262 8941,6264 8979,6265 9016,6266 9053,6266 9091,6265 9128,6264 9165,6262 9203,6259 9240,6257 9278,6256 9315,6254 9352,6251 9390,6248 9427,6245 9465,6244 9502,6243 9539,6242 9577,6242 9614,6243 9651,6243 9689,6244 9726,6246 9764,6248 9801,6252 9838,6254 9876,6256 9913,6258 9951,6259 9988,6261 10025,6263"/>
 <path fill="none" stroke="rgb(49,64,4)" stroke-width="80" stroke-linejoin="round" d="M 10063,3348 L 10100,3095 10137,3322 10175,2871 10212,3187 10250,3141 10287,3137 10324,3133 10362,3078 10399,3271 10437,3230 10474,3282 10511,3236 10549,3082 10586,3320 10623,3266 10661,3451 10698,3430 10736,3334 10773,3309 10810,3709 10848,3334 10885,3571 10923,3683 10960,3497 10997,3438 11035,3529 11072,3734 11109,3448 11147,3786 11184,3501 11222,3436 11259,3625 11296,3382 11334,3572 11371,3176 11408,3200 11446,3038 11483,3274 11521,3031 11558,3272 11595,3587 11633,3112 11670,3138 11708,2752 11745,2763 11782,2693 11820,2777 11857,2482 11894,2860 11932,2908 11969,3819 12007,4183 12044,4300 12081,4123 12119,4387 12156,4466 12194,4388 12231,4496 12268,4258 12306,4147 12343,4184 12380,4585 12418,4616 12455,4484 12493,4280 12530,4363 12567,4462 12605,4617 12642,4409 12680,3996 12717,4162 12754,4361 12792,3922 12829,4046 12866,4246 12904,3960 12941,4352 12979,4327 13016,4588 13053,4414 13091,4465 13128,4370 13166,4469 13203,4478 13240,4196 13278,4431 13315,4092 13352,4577 13390,4644 13427,4566 13465,4473 13502,4370 13539,4714 13577,4489 13614,4737 13651,4668 13689,4825 13726,4841 13764,5003 13801,4721 13838,5061 13876,4931 13913,4879 13951,5226 13988,4896 14025,4980 14063,5130 14100,4787 14137,4661 14175,5040 14212,4805 14250,4843 14287,4587 14324,4715 14362,4864 14399,4824 14437,4976 14474,4686 14511,4619 14549,4706 14586,4958 14623,4675 14661,4661 14698,4602 14736,4946 14773,4565 14810,4644 14848,4589 14885,4732 14923,4588 14960,4833 14997,5163 15035,4903 15072,5000 15109,4805 15147,4747 15184,4994 15222,5168 15259,4881 15296,4625 15334,4758 15371,4860 15409,4718"/>
 <path fill="none" stroke="rgb(87,157,28)" stroke-width="80" stroke-linejoin="round" d="M 1989,4451 L 2026,4509 2064,4482 2101,4519 2138,3695 2176,3577 2213,3584 2251,3762 2288,3711 2325,3551 2363,3785 2400,3843 2437,3647 2475,3431 2512,4198 2550,3791 2587,4184 2624,4261 2662,3368 2699,3660 2737,3401 2774,3526 2811,3623 2849,3324 2886,3503 2923,3254 2961,3284 2998,3211 3036,3151 3073,2890 3110,2664 3148,3088 3185,3482 3223,3473 3260,3491 3297,3454 3335,3257 3372,3197 3409,2918 3447,2993 3484,2886 3522,2927 3559,2977 3596,3032 3634,3191 3671,2755 3709,2830 3746,3076 3783,2891 3821,3185 3858,2803 3895,2678 3933,3108 3970,2621 4008,2437 4045,4615 4082,4823 4120,4512 4157,4943 4195,4946 4232,4875 4269,4635 4307,4573 4344,4917 4381,4688 4419,4580 4456,4822 4494,4788 4531,5010 4568,5184 4606,5207 4643,5071 4680,5298 4718,5064 4755,5105 4793,5358 4830,5194 4867,5244 4905,5251 4942,5054 4980,4914 5017,5142 5054,5357 5092,4978 5129,5211 5166,5321 5204,4980 5241,5262 5279,5123 5316,5263 5353,5575 5391,5300 5428,5036 5466,5313 5503,4972 5540,5192 5578,5047 5615,5289 5652,5100 5690,5241 5727,5196 5765,5395 5802,5358 5839,5260 5877,5303 5914,5109 5952,5293 5989,5157 6026,4481 6064,4220 6101,4427 6138,4516 6176,4465 6213,4509 6251,4157 6288,4431 6325,4230 6363,4012 6400,3783 6438,4821 6475,4814 6512,4694 6550,4701 6587,4807 6624,4616 6662,4604 6699,4799 6737,4709 6774,4706 6811,4804 6849,4659 6886,4750 6923,4754 6961,4705 6998,5005 7036,5029 7073,4539 7110,4558 7148,4632 7185,4232 7223,4097 7260,4523 7297,4392 7335,4390 7372,4088 7409,4517 7447,4540 7484,4401 7522,4546 7559,4102 7596,4054 7634,3932 7671,4213 7709,3920 7746,4354 7783,4177 7821,4274 7858,4381 7895,3938 7933,4411 7970,4333 8007,4386 8044,4189 8081,3973 8119,4302 8156,4213 8194,4009 8231,4142 8268,4194 8306,4399 8343,4013 8380,4343 8418,4156 8455,4248 8493,3898 8530,4173 8567,4333 8605,4095 8642,4131 8680,4026 8717,3964 8754,3849 8792,4337 8829,4126 8866,4224 8904,4332 8941,4192 8979,5325 9016,5416 9053,5433 9091,5504 9128,5444 9165,5467 9203,5529 9240,5572 9278,5356 9315,5577 9352,5593 9390,5432 9427,5476 9465,5427 9502,5526 9539,5598 9577,5458 9614,5612 9651,5623 9689,5629 9726,5440 9764,5456 9801,5504 9838,3686 9876,3167 9913,3109 9951,3146 9988,3062 10025,3388"/>
 <defs>
  <mask id="mask1">
   <g>
    <defs>
     <linearGradient id="gradient1" x1="8717" y1="3350" x2="8717" y2="5619" gradientUnits="userSpaceOnUse">
      <stop offset="0.5" style="stop-color:rgb(26,26,26)"/>
      <stop offset="0.5" style="stop-color:rgb(26,26,26)"/>
      <stop offset="1" style="stop-color:rgb(26,26,26)"/>
      <stop offset="1" style="stop-color:rgb(26,26,26)"/>
     </linearGradient>
    </defs>
    <path style="fill:url(#gradient1)" d="M 1976,3350 L 15459,3350 15459,5619 1976,5619 1976,3350 Z"/>
   </g>
  </mask>
 </defs>
 <g style="mask:url(#mask1)">
  <path fill="none" stroke="rgb(255,211,32)" stroke-width="100" stroke-linejoin="round" stroke-dasharray="197,127" d="M 2026,4133 L 2064,4166 2101,4123 2138,3895 2176,4168 2213,4021 2251,4207 2288,3912 2325,4241 2363,3954 2400,3733 2437,3756 2475,3745 2512,3939 2550,3939 2587,4041 2624,4099 2662,4459 2699,3559 2737,3801 2774,3646 2811,3478 2849,3454 2886,3440 2923,3783 2961,3905 2998,3619 3036,3411 3073,3489 3110,3636 3148,3494 3185,3585 3223,3400 3260,3687 3297,3704 3335,3913 3372,3682 3409,3622 3447,4660 3484,4994 3522,4904 3559,4777 3596,5136 3634,5022 3671,5335 3709,5118 3746,5169 3783,5028 3821,5023 3858,4923 3895,5220 3933,5244 3970,5357 4008,4859 4045,5281 4082,4839 4120,5064 4157,5223 4195,5037 4232,5178 4269,4782 4307,5004 4344,4959 4381,5207 4419,4972 4456,4757 4494,4834 4531,4779 4568,5255 4606,5036 4643,4879 4680,4814 4718,5450 4755,4993 4793,4974 4830,5321 4867,5462 4905,5385 4942,5441 4980,5452 5017,5096 5054,4372 5092,4105 5129,4106 5166,4486 5204,4098 5241,4220 5279,4014 5316,4446 5353,4713 5391,4440 5428,4328 5466,4097 5503,4223 5540,3920 5578,4220 5615,4433 5652,4299 5690,4445 5727,4353 5765,4650 5802,4269 5839,4698 5877,4473 5914,4715 5952,4554 5989,3979 6026,3896 6064,4129 6101,3730 6138,4054 6176,3813 6213,4147 6251,3661 6288,3778 6325,4127 6363,5264 6400,5316 6438,5160 6475,5332 6512,5162 6550,5163 6587,5495 6624,5450 6662,5208 6699,5523 6737,5419 6774,5218 6811,5506 6849,5373 6886,5520 6923,5556 6961,5564 6998,5493 7036,5288 7073,5170 7110,5531 7148,5427 7185,5210 7223,5192 7260,5284 7297,5439 7335,5542 7372,5416 7409,5211 7447,5244 7484,5443 7522,5256 7559,5146 7596,5526 7634,5291 7671,5484 7709,5557 7746,5569 7783,5516 7821,5264 7858,5245 7895,5135 7933,5273 7970,5177 8007,5421 8044,5437 8081,5293 8119,5184 8156,5534 8194,5497 8231,5200 8268,5381 8306,5186 8343,5171 8380,5114 8418,5256 8455,5415 8493,5379 8530,5129 8567,5513 8605,5235 8642,5533 8680,5392 8717,5085 8754,5513 8792,5547 8829,5145 8866,5530 8904,5176 8941,5456 8979,5544 9016,5514 9053,5113 9091,5335 9128,5291 9165,5389 9203,4987 9240,5359 9278,4872 9315,5139 9352,5246 9390,4996 9427,5078 9465,5228 9502,5137 9539,4930 9577,4925 9614,5068 9651,5101 9689,5474 9726,5088 9764,5324 9801,5127 9838,5270 9876,5510 9913,5000 9951,5172 9988,4825 10025,4951 10063,4953 10100,4852 10137,4794 10175,5241 10212,5173 10250,4829 10287,4957 10324,4910 10362,5008 10399,4965 10437,4864 10474,5007 10511,4814 10549,4902 10586,4905 10623,4754 10661,5099 10698,4939 10736,5201 10773,5020 10810,4881 10848,5372 10885,5357 10923,5420 10960,5129 10997,5264 11035,4967 11072,5147 11109,5001 11147,4991 11184,5338 11222,5212 11259,5312 11296,5170 11334,5011 11371,5191 11408,4897 11446,4875 11483,4965 11521,4916 11558,5314 11595,5305 11633,5265 11670,5066 11708,5053 11745,4730 11782,4954 11820,5062 11857,4921 11894,3831 11932,4174 11969,4317 12007,3777 12044,4446 12081,4429 12119,4621 12156,4338 12194,4322 12231,4164 12268,4349 12306,4306 12343,4455 12380,4465 12418,4519 12455,4275 12493,4107 12530,4440 12567,4106 12605,4588 12642,4619 12680,3889 12717,4139 12754,4139 12792,4085 12829,4330 12866,3891 12904,3860 12941,3994 12979,4571 13016,4415 13053,4318 13091,4415 13128,4522 13166,4534 13203,4290 13240,4224 13278,4117 13315,4306 13352,4366 13390,4323 13427,4514 13465,4431 13502,4330 13539,4272 13577,4517 13614,4082 13651,4556 13689,4622 13726,4947 13764,4881 13801,5043 13838,4661 13876,4995 13913,5118 13951,5037 13988,5142 14025,4642 14063,4508 14100,4989 14137,4513 14175,4988 14212,4914 14250,4917 14287,4566 14324,4791 14362,4949 14399,4912 14437,4914 14474,4814 14511,4605 14549,4988 14586,4808 14623,4599 14661,4982 14698,4551 14736,4523 14773,4560 14810,4757 14848,4920 14885,4987 14923,4998 14960,5004 14997,4605 15035,4694 15072,4821 15109,4978 15147,4942 15184,4843 15222,4635 15259,4666 15296,5129 15334,4962 15371,4911 15409,5161"/>
 </g>
 <defs>
  <mask id="mask2">
   <g>
    <defs>
     <linearGradient id="gradient2" x1="8717" y1="6037" x2="8717" y2="6928" gradientUnits="userSpaceOnUse">
      <stop offset="0.5" style="stop-color:rgb(26,26,26)"/>
      <stop offset="0.5" style="stop-color:rgb(26,26,26)"/>
      <stop offset="1" style="stop-color:rgb(26,26,26)"/>
      <stop offset="1" style="stop-color:rgb(26,26,26)"/>
     </linearGradient>
    </defs>
    <path style="fill:url(#gradient2)" d="M 1976,6037 L 15459,6037 15459,6928 1976,6928 1976,6037 Z"/>
   </g>
  </mask>
 </defs>
 <g style="mask:url(#mask2)">
  <path fill="none" stroke="rgb(255,66,14)" stroke-width="100" stroke-linejoin="round" stroke-dasharray="197,127" d="M 2026,6329 L 2064,6330 2101,6330 2138,6331 2176,6332 2213,6333 2251,6335 2288,6336 2325,6338 2363,6339 2400,6340 2437,6341 2475,6342 2512,6342 2550,6343 2587,6343 2624,6343 2662,6343 2699,6345 2737,6348 2774,6354 2811,6364 2849,6379 2886,6400 2923,6427 2961,6459 2998,6495 3036,6535 3073,6574 3110,6613 3148,6648 3185,6678 3223,6704 3260,6724 3297,6739 3335,6750 3372,6757 3409,6763 3447,6767 3484,6770 3522,6773 3559,6776 3596,6778 3634,6781 3671,6784 3709,6786 3746,6788 3783,6790 3821,6791 3858,6793 3895,6794 3933,6794 3970,6795 4008,6795 4045,6794 4082,6794 4120,6792 4157,6791 4195,6788 4232,6786 4269,6784 4307,6782 4344,6780 4381,6779 4419,6778 4456,6778 4494,6778 4531,6779 4568,6780 4606,6782 4643,6785 4680,6788 4718,6791 4755,6796 4793,6800 4830,6805 4867,6810 4905,6814 4942,6818 4980,6820 5017,6820 5054,6817 5092,6810 5129,6797 5166,6778 5204,6753 5241,6720 5279,6681 5316,6637 5353,6591 5391,6544 5428,6498 5466,6456 5503,6419 5540,6388 5578,6363 5615,6343 5652,6328 5690,6316 5727,6307 5765,6301 5802,6296 5839,6291 5877,6288 5914,6286 5952,6284 5989,6283 6026,6284 6064,6285 6101,6286 6138,6288 6176,6291 6213,6293 6251,6296 6288,6298 6325,6298 6363,6298 6400,6297 6438,6294 6475,6291 6512,6286 6550,6281 6587,6276 6624,6270 6662,6265 6699,6261 6737,6256 6774,6252 6811,6249 6849,6246 6886,6243 6923,6241 6961,6239 6998,6237 7036,6235 7073,6234 7110,6233 7148,6232 7185,6232 7223,6233 7260,6233 7297,6235 7335,6237 7372,6240 7409,6243 7447,6246 7484,6249 7522,6252 7559,6255 7596,6257 7634,6259 7671,6261 7709,6262 7746,6264 7783,6265 7821,6266 7858,6266 7895,6266 7933,6266 7970,6265 8007,6264 8044,6263 8081,6261 8119,6259 8156,6257 8194,6256 8231,6254 8268,6254 8306,6254 8343,6254 8380,6254 8418,6255 8455,6256 8493,6258 8530,6259 8567,6260 8605,6261 8642,6261 8680,6262 8717,6262 8754,6262 8792,6262 8829,6262 8866,6262 8904,6262 8941,6263 8979,6263 9016,6264 9053,6264 9091,6264 9128,6264 9165,6264 9203,6262 9240,6261 9278,6259 9315,6257 9352,6254 9390,6252 9427,6249 9465,6247 9502,6245 9539,6244 9577,6243 9614,6243 9651,6243 9689,6244 9726,6245 9764,6247 9801,6249 9838,6251 9876,6254 9913,6256 9951,6258 9988,6260 10025,6262 10063,6263 10100,6263 10137,6263 10175,6262 10212,6261 10250,6259 10287,6257 10324,6255 10362,6253 10399,6251 10437,6248 10474,6245 10511,6241 10549,6236 10586,6228 10623,6219 10661,6209 10698,6196 10736,6183 10773,6170 10810,6156 10848,6144 10885,6133 10923,6124 10960,6116 10997,6110 11035,6106 11072,6103 11109,6100 11147,6098 11184,6096 11222,6094 11259,6091 11296,6089 11334,6088 11371,6087 11408,6090 11446,6096 11483,6107 11521,6126 11558,6153 11595,6190 11633,6236 11670,6291 11708,6352 11745,6417 11782,6483 11820,6546 11857,6603 11894,6654 11932,6695 11969,6729 12007,6754 12044,6772 12081,6785 12119,6795 12156,6801 12194,6806 12231,6810 12268,6813 12306,6816 12343,6818 12380,6819 12418,6820 12455,6821 12493,6821 12530,6822 12567,6822 12605,6823 12642,6824 12680,6824 12717,6825 12754,6826 12792,6826 12829,6827 12866,6827 12904,6828 12941,6829 12979,6830 13016,6832 13053,6833 13091,6835 13128,6837 13166,6838 13203,6839 13240,6839 13278,6839 13315,6838 13352,6838 13390,6838 13427,6838 13465,6839 13502,6840 13539,6842 13577,6845 13614,6848 13651,6851 13689,6854 13726,6858 13764,6861 13801,6863 13838,6866 13876,6869 13913,6871 13951,6873 13988,6875 14025,6876 14063,6877 14100,6878 14137,6878 14175,6878 14212,6878 14250,6878 14287,6877 14324,6877 14362,6876 14399,6875 14437,6873 14474,6872 14511,6870 14549,6869 14586,6868 14623,6867 14661,6865 14698,6862 14736,6857 14773,6849 14810,6836 14848,6818 14885,6794 14923,6765 14960,6730 14997,6691 15035,6650 15072,6608 15109,6569 15147,6533 15184,6502 15222,6476 15259,6456 15296,6441 15334,6430 15371,6424 15409,6420"/>
 </g>
 <defs>
  <mask id="mask3">
   <g>
    <defs>
     <linearGradient id="gradient3" x1="8717" y1="2383" x2="8717" y2="5670" gradientUnits="userSpaceOnUse">
      <stop offset="0.5" style="stop-color:rgb(26,26,26)"/>
      <stop offset="0.5" style="stop-color:rgb(26,26,26)"/>
      <stop offset="1" style="stop-color:rgb(26,26,26)"/>
      <stop offset="1" style="stop-color:rgb(26,26,26)"/>
     </linearGradient>
    </defs>
    <path style="fill:url(#gradient3)" d="M 1986,2383 L 15449,2383 15449,5670 1986,5670 1986,2383 Z"/>
   </g>
  </mask>
 </defs>
 <g style="mask:url(#mask3)">
  <path fill="none" stroke="rgb(0,69,134)" stroke-width="80" stroke-linejoin="round" stroke-dasharray="158,102" d="M 2026,4451 L 2064,4510 2101,4483 2138,4516 2176,3689 2213,3567 2251,3577 2288,3757 2325,3706 2363,3546 2400,3777 2437,3836 2475,3639 2512,3421 2550,4188 2587,3785 2624,4173 2662,4251 2699,3358 2737,3646 2774,3394 2811,3521 2849,3622 2886,3325 2923,3504 2961,3258 2998,3289 3036,3217 3073,3157 3110,2895 3148,2667 3185,3090 3223,3486 3260,3472 3297,3486 3335,3445 3372,3247 3409,3184 3447,2906 3484,2981 3522,2876 3559,2914 3596,2962 3634,3014 3671,3168 3709,2728 3746,2799 3783,3045 3821,2860 3858,3152 3895,2772 3933,2648 3970,3084 4008,2605 4045,2423 4082,4604 4120,4820 4157,4499 4195,4918 4232,4918 4269,4844 4307,4604 4344,4545 4381,4893 4419,4670 4456,4564 4494,4807 4531,4775 4568,4996 4606,5168 4643,5193 4680,5057 4718,5284 4755,5054 4793,5097 4830,5353 4867,5192 4905,5241 4942,5248 4980,5051 5017,4912 5054,5141 5092,5356 5129,4975 5166,5205 5204,5318 5241,4978 5279,5259 5316,5123 5353,5263 5391,5574 5428,5301 5466,5036 5503,5315 5540,4975 5578,5193 5615,5049 5652,5289 5690,5101 5727,5240 5765,5195 5802,5394 5839,5357 5877,5258 5914,5302 5952,5110 5989,5295 6026,5158 6064,4483 6101,4222 6138,4433 6176,4527 6213,4478 6251,4521 6288,4168 6325,4440 6363,4242 6400,4025 6438,3798 6475,4836 6512,4835 6550,4707 6587,4708 6624,4811 6662,4620 6699,4609 6737,4806 6774,4718 6811,4716 6849,4816 6886,4672 6923,4764 6961,4768 6998,4719 7036,5017 7073,5040 7110,4547 7148,4562 7185,4636 7223,4233 7260,4098 7297,4524 7335,4394 7372,4388 7409,4082 7447,4507 7484,4530 7522,4388 7559,4530 7596,4086 7634,4036 7671,3918 7709,4201 7746,3910 7783,4342 7821,4165 7858,4258 7895,4363 7933,3919 7970,4390 8007,4314 8044,4365 8081,4168 8119,3952 8156,4281 8194,4197 8231,3992 8268,4125 8306,4178 8343,4383 8380,3997 8418,4325 8455,4141 8493,4232 8530,3883 8567,4158 8605,4320 8642,4084 8680,4121 8717,4018 8754,3958 8792,3847 8829,4337 8866,4130 8904,4226 8941,4334 8979,4196 9016,5328 9053,5421 9091,5430 9128,5495 9165,5431 9203,5452 9240,5515 9278,5559 9315,5343 9352,5565 9390,5584 9427,5425 9465,5471 9502,5425 9539,5526 9577,5598 9614,5458 9651,5611 9689,5623 9726,5630 9764,5441 9801,5457 9838,5505 9876,3685 9913,3159 9951,3106 9988,3149 10025,3067 10063,3388 10100,3343 10137,3081 10175,3303 10212,2851 10250,3163 10287,3118 10324,3112 10362,3106 10399,3050 10437,3243 10474,3203 10511,3252 10549,3205 10586,3050 10623,3287 10661,3234 10698,3416 10736,3394 10773,3297 10810,3270 10848,3669 10885,3296 10923,3529 10960,3642 10997,3454 11035,3395 11072,3488 11109,3694 11147,3410 11184,3747 11222,3467 11259,3402 11296,3595 11334,3355 11371,3546 11408,3153 11446,3175 11483,3015 11521,3249 11558,3008 11595,3247 11633,3562 11670,3088 11708,3114 11745,2734 11782,2752 11820,2689 11857,2778 11894,2487 11932,2866 11969,2921 12007,3831 12044,4197 12081,4310 12119,4127 12156,4388 12194,4471 12231,4394 12268,4504 12306,4270 12343,4161 12380,4204 12418,4608 12455,4643 12493,4510 12530,4310 12567,4398 12605,4503 12642,4666 12680,4463 12717,4054 12754,4222 12792,4426 12829,3988 12866,4110 12904,4311 12941,4023 12979,4411 13016,4386 13053,4645 13091,4471 13128,4520 13166,4428 13203,4526 13240,4536 13278,4256 13315,4490 13352,4151 13390,4632 13427,4698 13465,4615 13502,4517 13539,4413 13577,4756 13614,4529 13651,4774 13689,4705 13726,4858 13764,4873 13801,5033 13838,4749 13876,5088 13913,4960 13951,4910 13988,5260 14025,4935 14063,5022 14100,5176 14137,4837 14175,4714 14212,5099 14250,4869 14287,4908 14324,4655 14362,4783 14399,4935 14437,4895 14474,5046 14511,4755 14549,4685 14586,4772 14623,5025 14661,4741 14698,4724 14736,4666 14773,5009 14810,4629 14848,4706 14885,4653 14923,4796 14960,4653 14997,4894 15035,5222 15072,4958 15109,5050 15147,4855 15184,4791 15222,5034 15259,5200 15296,4903 15334,4635 15371,4761 15409,4862"/>
 </g>
 <text class="TextShape"><tspan class="TextParagraph" font-family="Liberation Sans, sans-serif" font-size="353px" font-weight="400"><tspan class="TextPosition" x="1859" y="7763"><tspan fill="rgb(0,0,0)" stroke="none">0</tspan></tspan></tspan></text>
 <text class="TextShape"><tspan class="TextParagraph" font-family="Liberation Sans, sans-serif" font-size="353px" font-weight="400"><tspan class="TextPosition" x="4010" y="7763"><tspan fill="rgb(0,0,0)" stroke="none">60</tspan></tspan></tspan></text>
 <text class="TextShape"><tspan class="TextParagraph" font-family="Liberation Sans, sans-serif" font-size="353px" font-weight="400"><tspan class="TextPosition" x="6160" y="7763"><tspan fill="rgb(0,0,0)" stroke="none">120</tspan></tspan></tspan></text>
 <text class="TextShape"><tspan class="TextParagraph" font-family="Liberation Sans, sans-serif" font-size="353px" font-weight="400"><tspan class="TextPosition" x="8403" y="7763"><tspan fill="rgb(0,0,0)" stroke="none">180</tspan></tspan></tspan></text>
 <text class="TextShape"><tspan class="TextParagraph" font-family="Liberation Sans, sans-serif" font-size="353px" font-weight="400"><tspan class="TextPosition" x="10646" y="7763"><tspan fill="rgb(0,0,0)" stroke="none">240</tspan></tspan></tspan></text>
 <text class="TextShape"><tspan class="TextParagraph" font-family="Liberation Sans, sans-serif" font-size="353px" font-weight="400"><tspan class="TextPosition" x="12889" y="7763"><tspan fill="rgb(0,0,0)" stroke="none">300</tspan></tspan></tspan></text>
 <text class="TextShape"><tspan class="TextParagraph" font-family="Liberation Sans, sans-serif" font-size="353px" font-weight="400"><tspan class="TextPosition" x="15132" y="7763"><tspan fill="rgb(0,0,0)" stroke="none">360</tspan></tspan></tspan></text>
 <text class="TextShape"><tspan class="TextParagraph" font-family="Liberation Sans, sans-serif" font-size="353px" font-weight="400"><tspan class="TextPosition" x="1517" y="7316"><tspan fill="rgb(0,0,0)" stroke="none">0</tspan></tspan></tspan></text>
 <text class="TextShape"><tspan class="TextParagraph" font-family="Liberation Sans, sans-serif" font-size="353px" font-weight="400"><tspan class="TextPosition" x="1517" y="6525"><tspan fill="rgb(0,0,0)" stroke="none">5</tspan></tspan></tspan></text>
 <text class="TextShape"><tspan class="TextParagraph" font-family="Liberation Sans, sans-serif" font-size="353px" font-weight="400"><tspan class="TextPosition" x="1332" y="5734"><tspan fill="rgb(0,0,0)" stroke="none">10</tspan></tspan></tspan></text>
 <text class="TextShape"><tspan class="TextParagraph" font-family="Liberation Sans, sans-serif" font-size="353px" font-weight="400"><tspan class="TextPosition" x="1332" y="4943"><tspan fill="rgb(0,0,0)" stroke="none">15</tspan></tspan></tspan></text>
 <text class="TextShape"><tspan class="TextParagraph" font-family="Liberation Sans, sans-serif" font-size="353px" font-weight="400"><tspan class="TextPosition" x="1332" y="4152"><tspan fill="rgb(0,0,0)" stroke="none">20</tspan></tspan></tspan></text>
 <text class="TextShape"><tspan class="TextParagraph" font-family="Liberation Sans, sans-serif" font-size="353px" font-weight="400"><tspan class="TextPosition" x="1332" y="3361"><tspan fill="rgb(0,0,0)" stroke="none">25</tspan></tspan></tspan></text>
 <text class="TextShape"><tspan class="TextParagraph" font-family="Liberation Sans, sans-serif" font-size="353px" font-weight="400"><tspan class="TextPosition" x="1332" y="2570"><tspan fill="rgb(0,0,0)" stroke="none">30</tspan></tspan></tspan></text>
 <text class="TextShape"><tspan class="TextParagraph" font-family="Liberation Sans, sans-serif" font-size="353px" font-weight="400"><tspan class="TextPosition" x="1332" y="1780"><tspan fill="rgb(0,0,0)" stroke="none">35</tspan></tspan></tspan></text>
 <defs>
  <mask id="mask4">
   <g>
    <defs>
     <linearGradient id="gradient4" x1="1506" y1="443" x2="1506" y2="523" gradientUnits="userSpaceOnUse">
      <stop offset="0.5" style="stop-color:rgb(26,26,26)"/>
      <stop offset="0.5" style="stop-color:rgb(26,26,26)"/>
      <stop offset="1" style="stop-color:rgb(26,26,26)"/>
      <stop offset="1" style="stop-color:rgb(26,26,26)"/>
     </linearGradient>
    </defs>
    <path style="fill:url(#gradient4)" d="M 666,443 L 2346,443 2346,523 666,523 666,443 Z"/>
   </g>
  </mask>
 </defs>
 <g style="mask:url(#mask4)">
  <path fill="none" stroke="rgb(0,69,134)" stroke-width="80" stroke-linejoin="round" stroke-dasharray="158,102" d="M 706,483 L 2306,483"/>
 </g>
 <defs>
  <mask id="mask5">
   <g>
    <defs>
     <linearGradient id="gradient5" x1="4498" y1="433" x2="4498" y2="533" gradientUnits="userSpaceOnUse">
      <stop offset="0.5" style="stop-color:rgb(26,26,26)"/>
      <stop offset="0.5" style="stop-color:rgb(26,26,26)"/>
      <stop offset="1" style="stop-color:rgb(26,26,26)"/>
      <stop offset="1" style="stop-color:rgb(26,26,26)"/>
     </linearGradient>
    </defs>
    <path style="fill:url(#gradient5)" d="M 3648,433 L 5348,433 5348,533 3648,533 3648,433 Z"/>
   </g>
  </mask>
 </defs>
 <g style="mask:url(#mask5)">
  <path fill="none" stroke="rgb(255,66,14)" stroke-width="100" stroke-linejoin="round" stroke-dasharray="197,127" d="M 3698,483 L 5298,483"/>
 </g>
 <defs>
  <mask id="mask6">
   <g>
    <defs>
     <linearGradient id="gradient6" x1="7489" y1="433" x2="7489" y2="533" gradientUnits="userSpaceOnUse">
      <stop offset="0.5" style="stop-color:rgb(26,26,26)"/>
      <stop offset="0.5" style="stop-color:rgb(26,26,26)"/>
      <stop offset="1" style="stop-color:rgb(26,26,26)"/>
      <stop offset="1" style="stop-color:rgb(26,26,26)"/>
     </linearGradient>
    </defs>
    <path style="fill:url(#gradient6)" d="M 6640,433 L 8339,433 8339,533 6640,533 6640,433 Z"/>
   </g>
  </mask>
 </defs>
 <g style="mask:url(#mask6)">
  <path fill="none" stroke="rgb(255,211,32)" stroke-width="100" stroke-linejoin="round" stroke-dasharray="197,127" d="M 6690,483 L 8289,483"/>
 </g>
 <path fill="none" stroke="rgb(87,157,28)" stroke-width="80" stroke-linejoin="round" d="M 9681,483 L 11281,483"/>
 <path fill="none" stroke="rgb(49,64,4)" stroke-width="80" stroke-linejoin="round" d="M 12647,483 L 14247,483"/>
 <path fill="none" stroke="rgb(126,0,33)" stroke-width="80" stroke-linejoin="round" d="M 706,981 L 2306,981"/>
 <path fill="none" stroke="rgb(174,207,0)" stroke-width="80" stroke-linejoin="round" d="M 3698,981 L 5298,981"/>
 <path fill="none" stroke="rgb(131,202,255)" stroke-width="80" stroke-linejoin="round" d="M 6690,981 L 8289,981"/>
 <path fill="none" stroke="rgb(75,31,111)" stroke-width="80" stroke-linejoin="round" d="M 9681,981 L 11281,981"/>
 <text class="TextShape"><tspan class="TextParagraph" font-family="Liberation Sans, sans-serif" font-size="353px" font-weight="400"><tspan class="TextPosition" x="2406" y="603"><tspan fill="rgb(0,0,0)" stroke="none">Факт 4</tspan></tspan></tspan></text>
 <text class="TextShape"><tspan class="TextParagraph" font-family="Liberation Sans, sans-serif" font-size="353px" font-weight="400"><tspan class="TextPosition" x="5398" y="603"><tspan fill="rgb(0,0,0)" stroke="none">Факт 5</tspan></tspan></tspan></text>
 <text class="TextShape"><tspan class="TextParagraph" font-family="Liberation Sans, sans-serif" font-size="353px" font-weight="400"><tspan class="TextPosition" x="8389" y="603"><tspan fill="rgb(0,0,0)" stroke="none">Факт 6</tspan></tspan></tspan></text>
 <text class="TextShape"><tspan class="TextParagraph" font-family="Liberation Sans, sans-serif" font-size="353px" font-weight="400"><tspan class="TextPosition" x="11381" y="603"><tspan fill="rgb(0,0,0)" stroke="none">Адп. 4</tspan></tspan></tspan></text>
 <text class="TextShape"><tspan class="TextParagraph" font-family="Liberation Sans, sans-serif" font-size="353px" font-weight="400"><tspan class="TextPosition" x="14347" y="603"><tspan fill="rgb(0,0,0)" stroke="none">Экз. 4</tspan></tspan></tspan></text>
 <text class="TextShape"><tspan class="TextParagraph" font-family="Liberation Sans, sans-serif" font-size="353px" font-weight="400"><tspan class="TextPosition" x="2406" y="1101"><tspan fill="rgb(0,0,0)" stroke="none">Адп. 5</tspan></tspan></tspan></text>
 <text class="TextShape"><tspan class="TextParagraph" font-family="Liberation Sans, sans-serif" font-size="353px" font-weight="400"><tspan class="TextPosition" x="5398" y="1101"><tspan fill="rgb(0,0,0)" stroke="none">Экз. 5</tspan></tspan></tspan></text>
 <text class="TextShape"><tspan class="TextParagraph" font-family="Liberation Sans, sans-serif" font-size="353px" font-weight="400"><tspan class="TextPosition" x="8389" y="1101"><tspan fill="rgb(0,0,0)" stroke="none">Адп. 6</tspan></tspan></tspan></text>
 <text class="TextShape"><tspan class="TextParagraph" font-family="Liberation Sans, sans-serif" font-size="353px" font-weight="400"><tspan class="TextPosition" x="11381" y="1101"><tspan fill="rgb(0,0,0)" stroke="none">Экз. 6</tspan></tspan></tspan></text>
 <text class="TextShape"><tspan class="TextParagraph" font-family="Liberation Sans, sans-serif" font-size="318px" font-weight="400"><tspan class="TextPosition" x="7531" y="8410"><tspan fill="rgb(0,0,0)" stroke="none">Период, мес.</tspan></tspan></tspan></text>
 <text class="TextShape" transform="rotate(-90 837 5815)"><tspan class="TextParagraph" font-family="Liberation Sans, sans-serif" font-size="318px" font-weight="400"><tspan class="TextPosition" x="837" y="5815"><tspan fill="rgb(0,0,0)" stroke="none">Давление, МПа</tspan></tspan></tspan></text>
</svg>