<?xml version="1.0" encoding="UTF-8"?>
<!DOCTYPE svg PUBLIC "-//W3C//DTD SVG 1.1//EN" "http://www.w3.org/Graphics/SVG/1.1/DTD/svg11.dtd">
<svg width="160mm" height="90mm" viewBox="0 0 16000 9000" version="1.1" xmlns="http://www.w3.org/2000/svg" xmlns:xlink="http://www.w3.org/1999/xlink" stroke-width="28.222" stroke-linejoin="round" xml:space="preserve">
 <path fill="rgb(255,255,255)" stroke="none" d="M 8005,9004 L 0,9004 0,0 16009,0 16009,9004 8005,9004 Z"/>
 <path fill="none" stroke="rgb(179,179,179)" stroke-linejoin="round" d="M 8680,7196 L 1952,7196 1952,1661 15409,1661 15409,7196 8680,7196 Z"/>
 <path fill="none" stroke="rgb(179,179,179)" stroke-linejoin="round" d="M 1952,1660 L 1952,7195"/>
 <path fill="none" stroke="rgb(179,179,179)" stroke-linejoin="round" d="M 4195,1660 L 4195,7195"/>
 <path fill="none" stroke="rgb(179,179,179)" stroke-linejoin="round" d="M 6438,1660 L 6438,7195"/>
 <path fill="none" stroke="rgb(179,179,179)" stroke-linejoin="round" d="M 8680,1660 L 8680,7195"/>
 <path fill="none" stroke="rgb(179,179,179)" stroke-linejoin="round" d="M 10923,1660 L 10923,7195"/>
 <path fill="none" stroke="rgb(179,179,179)" stroke-linejoin="round" d="M 13166,1660 L 13166,7195"/>
 <path fill="none" stroke="rgb(179,179,179)" stroke-linejoin="round" d="M 15409,1660 L 15409,7195"/>
 <path fill="none" stroke="rgb(179,179,179)" stroke-linejoin="round" d="M 15409,7195 L 1952,7195"/>
 <path fill="none" stroke="rgb(179,179,179)" stroke-linejoin="round" d="M 15409,6404 L 1952,6404"/>
 <path fill="none" stroke="rgb(179,179,179)" stroke-linejoin="round" d="M 15409,5613 L 1952,5613"/>
 <path fill="none" stroke="rgb(179,179,179)" stroke-linejoin="round" d="M 15409,4822 L 1952,4822"/>
 <path fill="none" stroke="rgb(179,179,179)" stroke-linejoin="round" d="M 15409,4032 L 1952,4032"/>
 <path fill="none" stroke="rgb(179,179,179)" stroke-linejoin="round" d="M 15409,3241 L 1952,3241"/>
 <path fill="none" stroke="rgb(179,179,179)" stroke-linejoin="round" d="M 15409,2450 L 1952,2450"/>
 <path fill="none" stroke="rgb(179,179,179)" stroke-linejoin="round" d="M 15409,1660 L 1952,1660"/>
 <path fill="none" stroke="rgb(179,179,179)" stroke-linejoin="round" d="M 1952,7345 L 1952,7195"/>
 <path fill="none" stroke="rgb(179,179,179)" stroke-linejoin="round" d="M 1952,7345 L 1952,7195"/>
 <path fill="none" stroke="rgb(179,179,179)" stroke-linejoin="round" d="M 4195,7345 L 4195,7195"/>
 <path fill="none" stroke="rgb(179,179,179)" stroke-linejoin="round" d="M 4195,7345 L 4195,7195"/>
 <path fill="none" stroke="rgb(179,179,179)" stroke-linejoin="round" d="M 6438,7345 L 6438,7195"/>
 <path fill="none" stroke="rgb(179,179,179)" stroke-linejoin="round" d="M 6438,7345 L 6438,7195"/>
 <path fill="none" stroke="rgb(179,179,179)" stroke-linejoin="round" d="M 8680,7345 L 8680,7195"/>
 <path fill="none" stroke="rgb(179,179,179)" stroke-linejoin="round" d="M 8680,7345 L 8680,7195"/>
 <path fill="none" stroke="rgb(179,179,179)" stroke-linejoin="round" d="M 10923,7345 L 10923,7195"/>
 <path fill="none" stroke="rgb(179,179,179)" stroke-linejoin="round" d="M 10923,7345 L 10923,7195"/>
 <path fill="none" stroke="rgb(179,179,179)" stroke-linejoin="round" d="M 13166,7345 L 13166,7195"/>
 <path fill="none" stroke="rgb(179,179,179)" stroke-linejoin="round" d="M 13166,7345 L 13166,7195"/>
 <path fill="none" stroke="rgb(179,179,179)" stroke-linejoin="round" d="M 15409,7345 L 15409,7195"/>
 <path fill="none" stroke="rgb(179,179,179)" stroke-linejoin="round" d="M 15409,7345 L 15409,7195"/>
 <path fill="none" stroke="rgb(179,179,179)" stroke-linejoin="round" d="M 1952,7195 L 15409,7195"/>
 <path fill="none" stroke="rgb(179,179,179)" stroke-linejoin="round" d="M 1802,7195 L 1952,7195"/>
 <path fill="none" stroke="rgb(179,179,179)" stroke-linejoin="round" d="M 1802,7195 L 1952,7195"/>
 <path fill="none" stroke="rgb(179,179,179)" stroke-linejoin="round" d="M 1802,6404 L 1952,6404"/>
 <path fill="none" stroke="rgb(179,179,179)" stroke-linejoin="round" d="M 1802,6404 L 1952,6404"/>
 <path fill="none" stroke="rgb(179,179,179)" stroke-linejoin="round" d="M 1802,5613 L 1952,5613"/>
 <path fill="none" stroke="rgb(179,179,179)" stroke-linejoin="round" d="M 1802,5613 L 1952,5613"/>
 <path fill="none" stroke="rgb(179,179,179)" stroke-linejoin="round" d="M 1802,4822 L 1952,4822"/>
 <path fill="none" stroke="rgb(179,179,179)" stroke-linejoin="round" d="M 1802,4822 L 1952,4822"/>
 <path fill="none" stroke="rgb(179,179,179)" stroke-linejoin="round" d="M 1802,4032 L 1952,4032"/>
 <path fill="none" stroke="rgb(179,179,179)" stroke-linejoin="round" d="M 1802,4032 L 1952,4032"/>
 <path fill="none" stroke="rgb(179,179,179)" stroke-linejoin="round" d="M 1802,3241 L 1952,3241"/>
 <path fill="none" stroke="rgb(179,179,179)" stroke-linejoin="round" d="M 1802,3241 L 1952,3241"/>
 <path fill="none" stroke="rgb(179,179,179)" stroke-linejoin="round" d="M 1802,2450 L 1952,2450"/>
 <path fill="none" stroke="rgb(179,179,179)" stroke-linejoin="round" d="M 1802,2450 L 1952,2450"/>
 <path fill="none" stroke="rgb(179,179,179)" stroke-linejoin="round" d="M 1802,1660 L 1952,1660"/>
 <path fill="none" stroke="rgb(179,179,179)" stroke-linejoin="round" d="M 1802,1660 L 1952,1660"/>
 <path fill="none" stroke="rgb(179,179,179)" stroke-linejoin="round" d="M 1952,7195 L 1952,1660"/>
 <path fill="none" stroke="rgb(75,31,111)" stroke-width="80" stroke-linejoin="round" d="M 10063,6810 L 10100,6821 10137,6830 10175,6836 10212,6842 10250,6847 10287,6851 10324,6854 10362,6857 10399,6860 10437,6862 10474,6862 10511,6862 10549,6861 10586,6859 10623,6856 10661,6853 10698,6851 10736,6849 10773,6847 10810,6847 10848,6847 10885,6849 10923,6852 10960,6854 10997,6857 11035,6861 11072,6863 11109,6866 11147,6867 11184,6869 11222,6869 11259,6870 11296,6869 11334,6869 11371,6868 11408,6867 11446,6865 11483,6863 11521,6861 11558,6859 11595,6857 11633,6856 11670,6854 11708,6852 11745,6852 11782,6851 11820,6850 11857,6851 11894,6851 11932,6852 11969,6852 12007,6854 12044,6855 12081,6855 12119,6855 12156,6855 12194,6855 12231,6855 12268,6856 12306,6856 12343,6858 12380,6860 12418,6862 12455,6864 12493,6866 12530,6865 12567,6862 12605,6856 12642,6846 12680,6830 12717,6804 12754,6770 12792,6726 12829,6673 12866,6614 12904,6549 12941,6481 12979,6413 13016,6352 13053,6297 13091,6250 13128,6211 13166,6180 13203,6156 13240,6138 13278,6125 13315,6114 13352,6105 13390,6099 13427,6094 13465,6090 13502,6088 13539,6087 13577,6086 13614,6087 13651,6086 13689,6087 13726,6087 13764,6086 13801,6086 13838,6085 13876,6083 13913,6080 13951,6078 13988,6076 14025,6074 14063,6071 14100,6068 14137,6067 14175,6066 14212,6067 14250,6067 14287,6069 14324,6070 14362,6071 14399,6073 14437,6076 14474,6078 14511,6081 14549,6083 14586,6086 14623,6088 14661,6091 14698,6093 14736,6094 14773,6095 14810,6096 14848,6097 14885,6099 14923,6100 14960,6101 14997,6102 15035,6103 15072,6105 15109,6108 15147,6111 15184,6115 15222,6118 15259,6120 15296,6121 15334,6124 15371,6127 15409,6128"/>
 <path fill="none" stroke="rgb(131,202,255)" stroke-width="80" stroke-linejoin="round" d="M 1989,6752 L 2026,6752 2064,6757 2101,6763 2138,6769 2176,6775 2213,6780 2251,6784 2288,6787 2325,6789 2363,6791 2400,6793 2437,6794 2475,6795 2512,6796 2550,6797 2587,6797 2624,6797 2662,6797 2699,6797 2737,6797 2774,6795 2811,6793 2849,6789 2886,6784 2923,6775 2961,6762 2998,6743 3036,6720 3073,6690 3110,6655 3148,6616 3185,6576 3223,6536 3260,6499 3297,6467 3335,6440 3372,6419 3409,6403 3447,6393 3484,6386 3522,6383 3559,6381 3596,6381 3634,6383 3671,6387 3709,6394 3746,6404 3783,6420 3821,6440 3858,6466 3895,6497 3933,6531 3970,6568 4008,6605 4045,6641 4082,6674 4120,6702 4157,6724 4195,6738 4232,6744 4269,6741 4307,6727 4344,6703 4381,6668 4419,6623 4456,6570 4494,6510 4531,6447 4568,6383 4606,6325 4643,6272 4680,6227 4718,6190 4755,6162 4793,6142 4830,6129 4867,6120 4905,6115 4942,6112 4980,6110 5017,6108 5054,6105 5092,6102 5129,6098 5166,6095 5204,6094 5241,6092 5279,6092 5316,6092 5353,6092 5391,6094 5428,6096 5466,6098 5503,6098 5540,6097 5578,6096 5615,6093 5652,6091 5690,6088 5727,6087 5765,6085 5802,6084 5839,6084 5877,6084 5914,6086 5952,6088 5989,6089 6026,6090 6064,6091 6101,6093 6138,6094 6176,6096 6213,6097 6251,6098 6288,6098 6325,6097 6363,6096 6400,6095 6438,6094 6475,6094 6512,6093 6550,6092 6587,6091 6624,6090 6662,6090 6699,6091 6737,6092 6774,6093 6811,6095 6849,6098 6886,6099 6923,6100 6961,6100 6998,6099 7036,6098 7073,6096 7110,6094 7148,6091 7185,6088 7223,6087 7260,6087 7297,6090 7335,6098 7372,6109 7409,6125 7447,6145 7484,6169 7522,6197 7559,6227 7596,6257 7634,6288 7671,6315 7709,6339 7746,6360 7783,6376 7821,6389 7858,6398 7895,6405 7933,6409 7970,6412 8007,6413 8044,6413 8081,6412 8119,6410 8156,6408 8194,6406 8231,6403 8268,6400 8306,6398 8343,6396 8380,6394 8418,6394 8455,6393 8493,6394 8530,6396 8567,6397 8605,6400 8642,6404 8680,6407 8717,6409 8754,6412 8792,6415 8829,6417 8866,6418 8904,6420 8941,6421 8979,6422 9016,6421 9053,6417 9091,6411 9128,6400 9165,6387 9203,6369 9240,6347 9278,6321 9315,6292 9352,6263 9390,6236 9427,6213 9465,6198 9502,6193 9539,6198 9577,6217 9614,6250 9651,6294 9689,6348 9726,6410 9764,6476 9801,6543 9838,6603 9876,6657 9913,6704 9951,6742 9988,6772 10025,6794"/>
 <path fill="none" stroke="rgb(174,207,0)" stroke-width="80" stroke-linejoin="round" d="M 10063,4365 L 10100,4293 10137,4275 10175,4376 10212,4255 10250,4257 10287,4357 10324,4384 10362,4378 10399,4278 10437,4264 10474,4241 10511,4293 10549,4295 10586,4266 10623,4464 10661,4510 10698,4480 10736,4409 10773,4468 10810,4516 10848,4410 10885,4428 10923,4501 10960,4524 10997,4443 11035,4508 11072,4426 11109,4534 11147,4412 11184,4474 11222,4446 11259,4502 11296,4480 11334,4380 11371,4352 11408,4311 11446,4405 11483,4281 11521,4313 11558,4337 11595,4341 11633,4315 11670,4401 11708,4019 11745,3998 11782,4017 11820,3947 11857,4088 11894,4034 11932,4072 11969,4060 12007,3497 12044,3430 12081,3595 12119,3553 12156,3458 12194,3501 12231,3424 12268,3545 12306,3437 12343,3530 12380,3568 12418,3532 12455,3575 12493,3565 12530,3491 12567,3465 12605,3486 12642,3076 12680,3057 12717,2978 12754,3037 12792,2940 12829,2901 12866,2897 12904,2944 12941,3336 12979,3450 13016,3386 13053,3440 13091,3408 13128,3530 13166,3446 13203,3473 13240,3338 13278,3232 13315,3239 13352,3199 13390,3320 13427,3288 13465,3377 13502,3316 13539,3343 13577,3421 13614,3359 13651,3894 13689,3661 13726,3588 13764,3686 13801,3596 13838,3635 13876,3701 13913,3655 13951,3641 13988,3465 14025,3380 14063,3475 14100,3464 14137,3403 14175,3439 14212,3441 14250,3411 14287,3377 14324,3429 14362,3465 14399,3457 14437,3400 14474,3318 14511,3363 14549,3318 14586,3401 14623,3320 14661,3297 14698,3289 14736,3431 14773,3301 14810,3406 14848,3311 14885,3315 14923,3413 14960,3379 14997,3681 15035,3697 15072,3690 15109,3791 15147,3768 15184,3717 15222,3819 15259,4205 15296,4254 15334,4412 15371,4336 15409,4408"/>
 <path fill="none" stroke="rgb(126,0,33)" stroke-width="80" stroke-linejoin="round" d="M 1989,4939 L 2026,4761 2064,4848 2101,4757 2138,4783 2176,4714 2213,4684 2251,4805 2288,4757 2325,4813 2363,4833 2400,4733 2437,4794 2475,4811 2512,4351 2550,4403 2587,4333 2624,4278 2662,3991 2699,3916 2737,3833 2774,3814 2811,3821 2849,3763 2886,3805 2923,3683 2961,3720 2998,3380 3036,3324 3073,3258 3110,3287 3148,3227 3185,3517 3223,3428 3260,3499 3297,3448 3335,3474 3372,3430 3409,3296 3447,3215 3484,3254 3522,3160 3559,3188 3596,3198 3634,3242 3671,3264 3709,3179 3746,3229 3783,3144 3821,3267 3858,3208 3895,3235 3933,3239 3970,2910 4008,2937 4045,2399 4082,2371 4120,2310 4157,2182 4195,2216 4232,2243 4269,2114 4307,2162 4344,2201 4381,2128 4419,2086 4456,2162 4494,2092 4531,2737 4568,2708 4606,2864 4643,2833 4680,3490 4718,3484 4755,3654 4793,3636 4830,3723 4867,3816 4905,3867 4942,3778 4980,3619 5017,3653 5054,3743 5092,3714 5129,3791 5166,3821 5204,3847 5241,3856 5279,3846 5316,4106 5353,4189 5391,4234 5428,3836 5466,3774 5503,3834 5540,4082 5578,4115 5615,4115 5652,4181 5690,4209 5727,4174 5765,4174 5802,4189 5839,4222 5877,4169 5914,4045 5952,4848 5989,5023 6026,5060 6064,5121 6101,5234 6138,5187 6176,5175 6213,5261 6251,5327 6288,5200 6325,5279 6363,5232 6400,5261 6438,3944 6475,3936 6512,3729 6550,3650 6587,3712 6624,3656 6662,3583 6699,3524 6737,3586 6774,3577 6811,3508 6849,3446 6886,3471 6923,3462 6961,3498 6998,3437 7036,3514 7073,3429 7110,3400 7148,4216 7185,4227 7223,4262 7260,4353 7297,4327 7335,4446 7372,4488 7409,4389 7447,4535 7484,4469 7522,4425 7559,4554 7596,4479 7634,4432 7671,4366 7709,4370 7746,4425 7783,4476 7821,4337 7858,4455 7895,4363 7933,4338 7970,4391 8007,4336 8044,4330 8081,4415 8119,4322 8156,4373 8194,4408 8231,4444 8268,4394 8306,4481 8343,4434 8380,4448 8418,4392 8455,4400 8493,4340 8530,4360 8567,4433 8605,4341 8642,4347 8680,4479 8717,4422 8754,4438 8792,4442 8829,4501 8866,4629 8904,4668 8941,4596 8979,4605 9016,4548 9053,4509 9091,4485 9128,4446 9165,3733 9203,3605 9240,3567 9278,3510 9315,3447 9352,3632 9390,3538 9427,3600 9465,3558 9502,3611 9539,3802 9577,3890 9614,4135 9651,4228 9689,4339 9726,4346 9764,3913 9801,3893 9838,4118 9876,4275 9913,4233 9951,4290 9988,4352 10025,4237"/>
 <path fill="none" stroke="rgb(49,64,4)" stroke-width="80" stroke-linejoin="round" d="M 10063,6287 L 10100,6286 10137,6286 10175,6285 10212,6283 10250,6281 10287,6279 10324,6277 10362,6275 10399,6273 10437,6271 10474,6269 10511,6267 10549,6265 10586,6263 10623,6261 10661,6259 10698,6259 10736,6259 10773,6259 10810,6260 10848,6262 10885,6264 10923,6267 10960,6268 10997,6270 11035,6272 11072,6272 11109,6273 11147,6273 11184,6273 11222,6273 11259,6273 11296,6272 11334,6272 11371,6272 11408,6271 11446,6271 11483,6271 11521,6271 11558,6272 11595,6272 11633,6273 11670,6272 11708,6271 11745,6270 11782,6266 11820,6260 11857,6252 11894,6241 11932,6229 11969,6215 12007,6199 12044,6182 12081,6164 12119,6146 12156,6128 12194,6112 12231,6099 12268,6089 12306,6083 12343,6082 12380,6085 12418,6093 12455,6108 12493,6129 12530,6154 12567,6183 12605,6215 12642,6248 12680,6281 12717,6311 12754,6337 12792,6359 12829,6376 12866,6389 12904,6398 12941,6404 12979,6408 13016,6410 13053,6412 13091,6413 13128,6414 13166,6415 13203,6415 13240,6415 13278,6416 13315,6416 13352,6416 13390,6416 13427,6416 13465,6417 13502,6417 13539,6418 13577,6419 13614,6422 13651,6426 13689,6432 13726,6442 13764,6455 13801,6473 13838,6496 13876,6524 13913,6555 13951,6589 13988,6625 14025,6661 14063,6694 14100,6724 14137,6750 14175,6772 14212,6789 14250,6802 14287,6813 14324,6820 14362,6826 14399,6830 14437,6833 14474,6836 14511,6839 14549,6841 14586,6843 14623,6844 14661,6847 14698,6848 14736,6850 14773,6851 14810,6852 14848,6851 14885,6848 14923,6842 14960,6831 14997,6815 15035,6791 15072,6758 15109,6717 15147,6668 15184,6613 15222,6557 15259,6501 15296,6449 15334,6423 15371,6397 15409,6374"/>
 <path fill="none" stroke="rgb(87,157,28)" stroke-width="80" stroke-linejoin="round" d="M 1989,6111 L 2026,6110 2064,6111 2101,6112 2138,6113 2176,6114 2213,6115 2251,6115 2288,6115 2325,6116 2363,6118 2400,6119 2437,6120 2475,6122 2512,6123 2550,6124 2587,6125 2624,6126 2662,6127 2699,6127 2737,6127 2774,6127 2811,6127 2849,6127 2886,6128 2923,6127 2961,6127 2998,6126 3036,6125 3073,6123 3110,6121 3148,6119 3185,6116 3223,6113 3260,6111 3297,6109 3335,6108 3372,6106 3409,6105 3447,6105 3484,6105 3522,6106 3559,6107 3596,6108 3634,6109 3671,6111 3709,6112 3746,6112 3783,6113 3821,6113 3858,6113 3895,6112 3933,6112 3970,6112 4008,6112 4045,6112 4082,6113 4120,6115 4157,6118 4195,6119 4232,6121 4269,6123 4307,6124 4344,6125 4381,6125 4419,6126 4456,6126 4494,6125 4531,6125 4568,6124 4606,6124 4643,6123 4680,6123 4718,6122 4755,6121 4793,6121 4830,6121 4867,6122 4905,6124 4942,6126 4980,6129 5017,6132 5054,6136 5092,6142 5129,6150 5166,6163 5204,6181 5241,6205 5279,6237 5316,6275 5353,6319 5391,6368 5428,6419 5466,6470 5503,6516 5540,6558 5578,6593 5615,6621 5652,6642 5690,6657 5727,6668 5765,6675 5802,6680 5839,6683 5877,6684 5914,6685 5952,6685 5989,6683 6026,6681 6064,6679 6101,6677 6138,6676 6176,6676 6213,6676 6251,6677 6288,6678 6325,6679 6363,6681 6400,6681 6438,6682 6475,6682 6512,6682 6550,6681 6587,6680 6624,6678 6662,6676 6699,6675 6737,6673 6774,6673 6811,6673 6849,6673 6886,6673 6923,6674 6961,6674 6998,6674 7036,6674 7073,6674 7110,6674 7148,6673 7185,6672 7223,6670 7260,6669 7297,6668 7335,6668 7372,6668 7409,6668 7447,6669 7484,6670 7522,6672 7559,6674 7596,6676 7634,6677 7671,6679 7709,6680 7746,6681 7783,6680 7821,6680 7858,6680 7895,6679 7933,6677 7970,6675 8007,6674 8044,6672 8081,6670 8119,6670 8156,6669 8194,6669 8231,6670 8268,6671 8306,6672 8343,6674 8380,6675 8418,6677 8455,6678 8493,6679 8530,6680 8567,6680 8605,6682 8642,6683 8680,6684 8717,6685 8754,6686 8792,6686 8829,6687 8866,6687 8904,6688 8941,6688 8979,6689 9016,6689 9053,6690 9091,6691 9128,6691 9165,6691 9203,6690 9240,6688 9278,6685 9315,6678 9352,6669 9390,6655 9427,6636 9465,6613 9502,6584 9539,6552 9577,6516 9614,6479 9651,6442 9689,6407 9726,6377 9764,6351 9801,6332 9838,6316 9876,6305 9913,6297 9951,6292 9988,6289 10025,6288"/>
 <path fill="none" stroke="rgb(255,211,32)" stroke-width="80" stroke-linejoin="round" stroke-dasharray="158,102" d="M 1989,6752 L 2026,6755 2064,6757 2101,6760 2138,6764 2176,6769 2213,6773 2251,6777 2288,6780 2325,6783 2363,6785 2400,6787 2437,6789 2475,6791 2512,6793 2550,6794 2587,6796 2624,6796 2662,6797 2699,6797 2737,6796 2774,6794 2811,6792 2849,6789 2886,6783 2923,6775 2961,6762 2998,6744 3036,6721 3073,6692 3110,6658 3148,6620 3185,6581 3223,6542 3260,6505 3297,6472 3335,6444 3372,6422 3409,6406 3447,6394 3484,6387 3522,6382 3559,6380 3596,6379 3634,6381 3671,6385 3709,6392 3746,6402 3783,6418 3821,6439 3858,6465 3895,6496 3933,6531 3970,6568 4008,6605 4045,6641 4082,6674 4120,6702 4157,6724 4195,6739 4232,6745 4269,6741 4307,6727 4344,6703 4381,6667 4419,6622 4456,6568 4494,6508 4531,6444 4568,6381 4606,6322 4643,6269 4680,6223 4718,6187 4755,6159 4793,6139 4830,6126 4867,6118 4905,6112 4942,6109 4980,6107 5017,6105 5054,6103 5092,6101 5129,6099 5166,6097 5204,6096 5241,6095 5279,6094 5316,6094 5353,6095 5391,6095 5428,6096 5466,6096 5503,6096 5540,6096 5578,6095 5615,6094 5652,6092 5690,6091 5727,6089 5765,6088 5802,6087 5839,6087 5877,6088 5914,6089 5952,6090 5989,6091 6026,6092 6064,6093 6101,6093 6138,6094 6176,6094 6213,6094 6251,6094 6288,6094 6325,6094 6363,6094 6400,6094 6438,6093 6475,6092 6512,6091 6550,6090 6587,6090 6624,6090 6662,6090 6699,6091 6737,6093 6774,6095 6811,6097 6849,6099 6886,6101 6923,6102 6961,6102 6998,6101 7036,6099 7073,6097 7110,6094 7148,6092 7185,6090 7223,6089 7260,6090 7297,6093 7335,6100 7372,6112 7409,6128 7447,6148 7484,6173 7522,6201 7559,6231 7596,6262 7634,6292 7671,6320 7709,6344 7746,6365 7783,6382 7821,6396 7858,6405 7895,6412 7933,6416 7970,6419 8007,6420 8044,6419 8081,6418 8119,6416 8156,6414 8194,6411 8231,6408 8268,6405 8306,6402 8343,6399 8380,6397 8418,6396 8455,6395 8493,6395 8530,6396 8567,6397 8605,6399 8642,6402 8680,6405 8717,6408 8754,6411 8792,6413 8829,6415 8866,6417 8904,6418 8941,6419 8979,6419 9016,6418 9053,6415 9091,6410 9128,6402 9165,6389 9203,6372 9240,6350 9278,6324 9315,6296 9352,6267 9390,6239 9427,6216 9465,6200 9502,6193 9539,6198 9577,6217 9614,6249 9651,6293 9689,6347 9726,6409 9764,6475 9801,6540 9838,6602 9876,6657 9913,6704 9951,6742 9988,6772 10025,6794 10063,6809 10100,6820 10137,6828 10175,6835 10212,6840 10250,6845 10287,6849 10324,6853 10362,6856 10399,6859 10437,6861 10474,6862 10511,6862 10549,6861 10586,6860 10623,6857 10661,6855 10698,6852 10736,6850 10773,6849 10810,6849 10848,6849 10885,6851 10923,6853 10960,6856 10997,6860 11035,6863 11072,6867 11109,6870 11147,6873 11184,6875 11222,6876 11259,6878 11296,6878 11334,6878 11371,6877 11408,6876 11446,6874 11483,6872 11521,6869 11558,6867 11595,6865 11633,6863 11670,6861 11708,6861 11745,6861 11782,6861 11820,6863 11857,6865 11894,6867 11932,6869 11969,6870 12007,6871 12044,6871 12081,6870 12119,6869 12156,6867 12194,6866 12231,6864 12268,6863 12306,6863 12343,6864 12380,6865 12418,6866 12455,6867 12493,6869 12530,6869 12567,6867 12605,6862 12642,6853 12680,6837 12717,6814 12754,6782 12792,6741 12829,6690 12866,6632 12904,6568 12941,6502 12979,6437 13016,6376 13053,6321 13091,6275 13128,6236 13166,6207 13203,6185 13240,6169 13278,6157 13315,6148 13352,6142 13390,6137 13427,6133 13465,6131 13502,6129 13539,6127 13577,6126 13614,6126 13651,6126 13689,6126 13726,6125 13764,6125 13801,6124 13838,6123 13876,6122 13913,6120 13951,6118 13988,6116 14025,6114 14063,6112 14100,6111 14137,6110 14175,6110 14212,6110 14250,6110 14287,6111 14324,6112 14362,6113 14399,6114 14437,6115 14474,6116 14511,6118 14549,6120 14586,6121 14623,6122 14661,6124 14698,6124 14736,6125 14773,6125 14810,6125 14848,6125 14885,6125 14923,6126 14960,6126 14997,6127 15035,6129 15072,6131 15109,6133 15147,6135 15184,6137 15222,6139 15259,6141 15296,6142 15334,6143 15371,6144 15409,6144"/>
 <defs>
  <mask id="mask1">
   <g>
    <defs>
     <linearGradient id="gradient1" x1="8699" y1="2048" x2="8699" y2="5359" gradientUnits="userSpaceOnUse">
      <stop offset="0.5" style="stop-color:rgb(13,13,13)"/>
      <stop offset="0.5" style="stop-color:rgb(13,13,13)"/>
      <stop offset="1" style="stop-color:rgb(13,13,13)"/>
      <stop offset="1" style="stop-color:rgb(13,13,13)"/>
     </linearGradient>
    </defs>
    <path style="fill:url(#gradient1)" d="M 1939,2048 L 15459,2048 15459,5359 1939,5359 1939,2048 Z"/>
   </g>
  </mask>
 </defs>
 <g style="mask:url(#mask1)">
  <path fill="none" stroke="rgb(255,66,14)" stroke-width="100" stroke-linejoin="round" stroke-dasharray="197,127" d="M 1989,4939 L 2026,4758 2064,4849 2101,4764 2138,4791 2176,4724 2213,4692 2251,4813 2288,4763 2325,4817 2363,4836 2400,4735 2437,4795 2475,4813 2512,4353 2550,4402 2587,4336 2624,4281 2662,3995 2699,3923 2737,3840 2774,3820 2811,3826 2849,3767 2886,3807 2923,3682 2961,3717 2998,3376 3036,3319 3073,3256 3110,3288 3148,3232 3185,3525 3223,3441 3260,3514 3297,3466 3335,3493 3372,3453 3409,3320 3447,3239 3484,3278 3522,3185 3559,3212 3596,3223 3634,3266 3671,3286 3709,3201 3746,3249 3783,3163 3821,3285 3858,3227 3895,3253 3933,3256 3970,2925 4008,2950 4045,2414 4082,2382 4120,2323 4157,2198 4195,2233 4232,2261 4269,2134 4307,2181 4344,2218 4381,2143 4419,2098 4456,2173 4494,2101 4531,2745 4568,2719 4606,2869 4643,2836 4680,3493 4718,3487 4755,3655 4793,3638 4830,3723 4867,3818 4905,3869 4942,3780 4980,3619 5017,3653 5054,3746 5092,3717 5129,3795 5166,3825 5204,3851 5241,3861 5279,3851 5316,4111 5353,4197 5391,4240 5428,3839 5466,3773 5503,3834 5540,4085 5578,4118 5615,4118 5652,4184 5690,4213 5727,4179 5765,4179 5802,4195 5839,4228 5877,4176 5914,4049 5952,4851 5989,5029 6026,5061 6064,5118 6101,5227 6138,5175 6176,5159 6213,5243 6251,5309 6288,5182 6325,5260 6363,5213 6400,5242 6438,3925 6475,3911 6512,3711 6550,3634 6587,3699 6624,3644 6662,3571 6699,3510 6737,3571 6774,3562 6811,3492 6849,3428 6886,3451 6923,3442 6961,3479 6998,3418 7036,3495 7073,3411 7110,3383 7148,4201 7185,4217 7223,4250 7260,4343 7297,4317 7335,4437 7372,4483 7409,4388 7447,4536 7484,4475 7522,4435 7559,4567 7596,4497 7634,4452 7671,4388 7709,4393 7746,4451 7783,4502 7821,4365 7858,4484 7895,4392 7933,4368 7970,4421 8007,4366 8044,4359 8081,4445 8119,4351 8156,4400 8194,4434 8231,4469 8268,4417 8306,4502 8343,4454 8380,4466 8418,4408 8455,4415 8493,4353 8530,4372 8567,4445 8605,4350 8642,4353 8680,4484 8717,4427 8754,4440 8792,4442 8829,4499 8866,4628 8904,4666 8941,4594 8979,4602 9016,4546 9053,4510 9091,4490 9128,4455 9165,3745 9203,3618 9240,3583 9278,3528 9315,3465 9352,3650 9390,3555 9427,3612 9465,3567 9502,3616 9539,3806 9577,3894 9614,4139 9651,4232 9689,4342 9726,4348 9764,3915 9801,3892 9838,4121 9876,4283 9913,4243 9951,4296 9988,4355 10025,4237 10063,4362 10100,4290 10137,4271 10175,4372 10212,4252 10250,4255 10287,4355 10324,4384 10362,4378 10399,4276 10437,4263 10474,4241 10511,4294 10549,4298 10586,4269 10623,4468 10661,4515 10698,4485 10736,4414 10773,4473 10810,4524 10848,4416 10885,4433 10923,4505 10960,4531 10997,4450 11035,4514 11072,4433 11109,4541 11147,4421 11184,4482 11222,4456 11259,4512 11296,4491 11334,4390 11371,4360 11408,4319 11446,4412 11483,4287 11521,4314 11558,4337 11595,4340 11633,4312 11670,4400 11708,4018 11745,3997 11782,4022 11820,3957 11857,4103 11894,4055 11932,4093 11969,4083 12007,3518 12044,3448 12081,3616 12119,3575 12156,3475 12194,3513 12231,3434 12268,3551 12306,3442 12343,3531 12380,3568 12418,3531 12455,3573 12493,3564 12530,3490 12567,3465 12605,3487 12642,3078 12680,3059 12717,2986 12754,3048 12792,2952 12829,2915 12866,2913 12904,2961 12941,3357 12979,3475 13016,3410 13053,3464 13091,3435 13128,3559 13166,3478 13203,3507 13240,3375 13278,3269 13315,3277 13352,3240 13390,3362 13427,3330 13465,3419 13502,3358 13539,3384 13577,3463 13614,3402 13651,3936 13689,3704 13726,3628 13764,3727 13801,3639 13838,3679 13876,3746 13913,3701 13951,3687 13988,3510 14025,3425 14063,3522 14100,3512 14137,3451 14175,3486 14212,3487 14250,3456 14287,3421 14324,3473 14362,3507 14399,3498 14437,3439 14474,3356 14511,3399 14549,3354 14586,3435 14623,3353 14661,3327 14698,3319 14736,3462 14773,3330 14810,3435 14848,3341 14885,3343 14923,3442 14960,3408 14997,3710 15035,3726 15072,3714 15109,3810 15147,3784 15184,3728 15222,3827 15259,4213 15296,4262 15334,4415 15371,4337 15409,4407"/>
 </g>
 <defs>
  <mask id="mask2">
   <g>
    <defs>
     <linearGradient id="gradient2" x1="8699" y1="6047" x2="8699" y2="6918" gradientUnits="userSpaceOnUse">
      <stop offset="0.5" style="stop-color:rgb(26,26,26)"/>
      <stop offset="0.5" style="stop-color:rgb(26,26,26)"/>
      <stop offset="1" style="stop-color:rgb(26,26,26)"/>
      <stop offset="1" style="stop-color:rgb(26,26,26)"/>
     </linearGradient>
    </defs>
    <path style="fill:url(#gradient2)" d="M 1949,6047 L 15449,6047 15449,6918 1949,6918 1949,6047 Z"/>
   </g>
  </mask>
 </defs>
 <g style="mask:url(#mask2)">
  <path fill="none" stroke="rgb(0,69,134)" stroke-width="80" stroke-linejoin="round" stroke-dasharray="158,102" d="M 1989,6111 L 2026,6111 2064,6111 2101,6112 2138,6112 2176,6112 2213,6112 2251,6113 2288,6114 2325,6115 2363,6116 2400,6118 2437,6119 2475,6121 2512,6123 2550,6124 2587,6126 2624,6127 2662,6127 2699,6128 2737,6129 2774,6129 2811,6129 2849,6129 2886,6129 2923,6128 2961,6128 2998,6127 3036,6125 3073,6124 3110,6122 3148,6120 3185,6118 3223,6116 3260,6113 3297,6112 3335,6110 3372,6109 3409,6108 3447,6107 3484,6107 3522,6108 3559,6108 3596,6109 3634,6110 3671,6111 3709,6112 3746,6112 3783,6112 3821,6112 3858,6112 3895,6112 3933,6112 3970,6112 4008,6113 4045,6113 4082,6115 4120,6116 4157,6118 4195,6119 4232,6121 4269,6123 4307,6124 4344,6125 4381,6126 4419,6126 4456,6126 4494,6126 4531,6125 4568,6125 4606,6124 4643,6123 4680,6122 4718,6122 4755,6122 4793,6122 4830,6123 4867,6124 4905,6125 4942,6127 4980,6130 5017,6133 5054,6137 5092,6143 5129,6152 5166,6164 5204,6182 5241,6207 5279,6238 5316,6276 5353,6320 5391,6369 5428,6419 5466,6469 5503,6516 5540,6557 5578,6593 5615,6621 5652,6643 5690,6659 5727,6670 5765,6678 5802,6683 5839,6686 5877,6687 5914,6687 5952,6687 5989,6686 6026,6684 6064,6682 6101,6679 6138,6678 6176,6676 6213,6676 6251,6676 6288,6677 6325,6679 6363,6680 6400,6682 6438,6683 6475,6683 6512,6683 6550,6682 6587,6681 6624,6679 6662,6678 6699,6677 6737,6676 6774,6676 6811,6675 6849,6675 6886,6676 6923,6676 6961,6676 6998,6676 7036,6676 7073,6676 7110,6675 7148,6674 7185,6673 7223,6672 7260,6671 7297,6670 7335,6669 7372,6669 7409,6669 7447,6670 7484,6671 7522,6673 7559,6676 7596,6678 7634,6680 7671,6682 7709,6683 7746,6684 7783,6685 7821,6684 7858,6684 7895,6682 7933,6681 7970,6679 8007,6677 8044,6676 8081,6674 8119,6673 8156,6673 8194,6673 8231,6673 8268,6674 8306,6675 8343,6676 8380,6677 8418,6678 8455,6679 8493,6679 8530,6680 8567,6681 8605,6682 8642,6683 8680,6684 8717,6686 8754,6686 8792,6687 8829,6688 8866,6688 8904,6688 8941,6689 8979,6689 9016,6690 9053,6690 9091,6691 9128,6692 9165,6692 9203,6692 9240,6690 9278,6686 9315,6680 9352,6670 9390,6656 9427,6637 9465,6614 9502,6585 9539,6552 9577,6517 9614,6479 9651,6443 9689,6408 9726,6378 9764,6352 9801,6332 9838,6316 9876,6305 9913,6298 9951,6293 9988,6290 10025,6288 10063,6286 10100,6284 10137,6282 10175,6280 10212,6277 10250,6275 10287,6272 10324,6270 10362,6267 10399,6265 10437,6263 10474,6260 10511,6257 10549,6255 10586,6253 10623,6251 10661,6249 10698,6248 10736,6248 10773,6248 10810,6249 10848,6251 10885,6253 10923,6254 10960,6256 10997,6258 11035,6259 11072,6261 11109,6262 11147,6262 11184,6263 11222,6264 11259,6264 11296,6264 11334,6264 11371,6264 11408,6264 11446,6264 11483,6264 11521,6263 11558,6263 11595,6263 11633,6262 11670,6262 11708,6261 11745,6260 11782,6259 11820,6255 11857,6250 11894,6243 11932,6233 11969,6220 12007,6205 12044,6188 12081,6170 12119,6152 12156,6134 12194,6118 12231,6105 12268,6095 12306,6089 12343,6087 12380,6091 12418,6100 12455,6115 12493,6136 12530,6163 12567,6193 12605,6227 12642,6262 12680,6296 12717,6328 12754,6357 12792,6380 12829,6399 12866,6413 12904,6422 12941,6429 12979,6433 13016,6435 13053,6437 13091,6438 13128,6439 13166,6440 13203,6442 13240,6443 13278,6443 13315,6444 13352,6444 13390,6444 13427,6444 13465,6444 13502,6444 13539,6444 13577,6445 13614,6446 13651,6450 13689,6456 13726,6465 13764,6478 13801,6495 13838,6518 13876,6546 13913,6577 13951,6612 13988,6649 14025,6686 14063,6720 14100,6751 14137,6779 14175,6802 14212,6820 14250,6834 14287,6844 14324,6852 14362,6858 14399,6862 14437,6865 14474,6867 14511,6869 14549,6870 14586,6872 14623,6873 14661,6874 14698,6875 14736,6877 14773,6878 14810,6878 14848,6877 14885,6875 14923,6869 14960,6858 14997,6842 15035,6818 15072,6784 15109,6741 15147,6691 15184,6633 15222,6574 15259,6515 15296,6460 15334,6429 15371,6401 15409,6375"/>
 </g>
 <text class="TextShape"><tspan class="TextParagraph" font-family="Liberation Sans, sans-serif" font-size="353px" font-weight="400"><tspan class="TextPosition" x="1859" y="7763"><tspan fill="rgb(0,0,0)" stroke="none">0</tspan></tspan></tspan></text>
 <text class="TextShape"><tspan class="TextParagraph" font-family="Liberation Sans, sans-serif" font-size="353px" font-weight="400"><tspan class="TextPosition" x="4010" y="7763"><tspan fill="rgb(0,0,0)" stroke="none">60</tspan></tspan></tspan></text>
 <text class="TextShape"><tspan class="TextParagraph" font-family="Liberation Sans, sans-serif" font-size="353px" font-weight="400"><tspan class="TextPosition" x="6160" y="7763"><tspan fill="rgb(0,0,0)" stroke="none">120</tspan></tspan></tspan></text>
 <text class="TextShape"><tspan class="TextParagraph" font-family="Liberation Sans, sans-serif" font-size="353px" font-weight="400"><tspan class="TextPosition" x="8403" y="7763"><tspan fill="rgb(0,0,0)" stroke="none">180</tspan></tspan></tspan></text>
 <text class="TextShape"><tspan class="TextParagraph" font-family="Liberation Sans, sans-serif" font-size="353px" font-weight="400"><tspan class="TextPosition" x="10646" y="7763"><tspan fill="rgb(0,0,0)" stroke="none">240</tspan></tspan></tspan></text>
 <text class="TextShape"><tspan class="TextParagraph" font-family="Liberation Sans, sans-serif" font-size="353px" font-weight="400"><tspan class="TextPosition" x="12889" y="7763"><tspan fill="rgb(0,0,0)" stroke="none">300</tspan></tspan></tspan></text>
 <text class="TextShape"><tspan class="TextParagraph" font-family="Liberation Sans, sans-serif" font-size="353px" font-weight="400"><tspan class="TextPosition" x="15132" y="7763"><tspan fill="rgb(0,0,0)" stroke="none">360</tspan></tspan></tspan></text>
 <text class="TextShape"><tspan class="TextParagraph" font-family="Liberation Sans, sans-serif" font-size="353px" font-weight="400"><tspan class="TextPosition" x="1517" y="7316"><tspan fill="rgb(0,0,0)" stroke="none">0</tspan></tspan></tspan></text>
 <text class="TextShape"><tspan class="TextParagraph" font-family="Liberation Sans, sans-serif" font-size="353px" font-weight="400"><tspan class="TextPosition" x="1517" y="6525"><tspan fill="rgb(0,0,0)" stroke="none">5</tspan></tspan></tspan></text>
 <text class="TextShape"><tspan class="TextParagraph" font-family="Liberation Sans, sans-serif" font-size="353px" font-weight="400"><tspan class="TextPosition" x="1332" y="5734"><tspan fill="rgb(0,0,0)" stroke="none">10</tspan></tspan></tspan></text>
 <text class="TextShape"><tspan class="TextParagraph" font-family="Liberation Sans, sans-serif" font-size="353px" font-weight="400"><tspan class="TextPosition" x="1332" y="4943"><tspan fill="rgb(0,0,0)" stroke="none">15</tspan></tspan></tspan></text>
 <text class="TextShape"><tspan class="TextParagraph" font-family="Liberation Sans, sans-serif" font-size="353px" font-weight="400"><tspan class="TextPosition" x="1332" y="4152"><tspan fill="rgb(0,0,0)" stroke="none">20</tspan></tspan></tspan></text>
 <text class="TextShape"><tspan class="TextParagraph" font-family="Liberation Sans, sans-serif" font-size="353px" font-weight="400"><tspan class="TextPosition" x="1332" y="3361"><tspan fill="rgb(0,0,0)" stroke="none">25</tspan></tspan></tspan></text>
 <text class="TextShape"><tspan class="TextParagraph" font-family="Liberation Sans, sans-serif" font-size="353px" font-weight="400"><tspan class="TextPosition" x="1332" y="2570"><tspan fill="rgb(0,0,0)" stroke="none">30</tspan></tspan></tspan></text>
 <text class="TextShape"><tspan class="TextParagraph" font-family="Liberation Sans, sans-serif" font-size="353px" font-weight="400"><tspan class="TextPosition" x="1332" y="1780"><tspan fill="rgb(0,0,0)" stroke="none">35</tspan></tspan></tspan></text>
 <defs>
  <mask id="mask3">
   <g>
    <defs>
     <linearGradient id="gradient3" x1="1506" y1="443" x2="1506" y2="523" gradientUnits="userSpaceOnUse">
      <stop offset="0.5" style="stop-color:rgb(26,26,26)"/>
      <stop offset="0.5" style="stop-color:rgb(26,26,26)"/>
      <stop offset="1" style="stop-color:rgb(26,26,26)"/>
      <stop offset="1" style="stop-color:rgb(26,26,26)"/>
     </linearGradient>
    </defs>
    <path style="fill:url(#gradient3)" d="M 666,443 L 2346,443 2346,523 666,523 666,443 Z"/>
   </g>
  </mask>
 </defs>
 <g style="mask:url(#mask3)">
  <path fill="none" stroke="rgb(0,69,134)" stroke-width="80" stroke-linejoin="round" stroke-dasharray="158,102" d="M 706,483 L 2306,483"/>
 </g>
 <defs>
  <mask id="mask4">
   <g>
    <defs>
     <linearGradient id="gradient4" x1="4498" y1="433" x2="4498" y2="533" gradientUnits="userSpaceOnUse">
      <stop offset="0.5" style="stop-color:rgb(13,13,13)"/>
      <stop offset="0.5" style="stop-color:rgb(13,13,13)"/>
      <stop offset="1" style="stop-color:rgb(13,13,13)"/>
      <stop offset="1" style="stop-color:rgb(13,13,13)"/>
     </linearGradient>
    </defs>
    <path style="fill:url(#gradient4)" d="M 3648,433 L 5348,433 5348,533 3648,533 3648,433 Z"/>
   </g>
  </mask>
 </defs>
 <g style="mask:url(#mask4)">
  <path fill="none" stroke="rgb(255,66,14)" stroke-width="100" stroke-linejoin="round" stroke-dasharray="197,127" d="M 3698,483 L 5298,483"/>
 </g>
 <path fill="none" stroke="rgb(255,211,32)" stroke-width="80" stroke-linejoin="round" stroke-dasharray="158,102" d="M 6690,483 L 8289,483"/>
 <path fill="none" stroke="rgb(87,157,28)" stroke-width="80" stroke-linejoin="round" d="M 9681,483 L 11281,483"/>
 <path fill="none" stroke="rgb(49,64,4)" stroke-width="80" stroke-linejoin="round" d="M 12647,483 L 14247,483"/>
 <path fill="none" stroke="rgb(126,0,33)" stroke-width="80" stroke-linejoin="round" d="M 706,981 L 2306,981"/>
 <path fill="none" stroke="rgb(174,207,0)" stroke-width="80" stroke-linejoin="round" d="M 3698,981 L 5298,981"/>
 <path fill="none" stroke="rgb(131,202,255)" stroke-width="80" stroke-linejoin="round" d="M 6690,981 L 8289,981"/>
 <path fill="none" stroke="rgb(75,31,111)" stroke-width="80" stroke-linejoin="round" d="M 9681,981 L 11281,981"/>
 <text class="TextShape"><tspan class="TextParagraph" font-family="Liberation Sans, sans-serif" font-size="353px" font-weight="400"><tspan class="TextPosition" x="2406" y="603"><tspan fill="rgb(0,0,0)" stroke="none">Факт 7</tspan></tspan></tspan></text>
 <text class="TextShape"><tspan class="TextParagraph" font-family="Liberation Sans, sans-serif" font-size="353px" font-weight="400"><tspan class="TextPosition" x="5398" y="603"><tspan fill="rgb(0,0,0)" stroke="none">Факт 8</tspan></tspan></tspan></text>
 <text class="TextShape"><tspan class="TextParagraph" font-family="Liberation Sans, sans-serif" font-size="353px" font-weight="400"><tspan class="TextPosition" x="8389" y="603"><tspan fill="rgb(0,0,0)" stroke="none">Факт 9</tspan></tspan></tspan></text>
 <text class="TextShape"><tspan class="TextParagraph" font-family="Liberation Sans, sans-serif" font-size="353px" font-weight="400"><tspan class="TextPosition" x="11381" y="603"><tspan fill="rgb(0,0,0)" stroke="none">Адп. 7</tspan></tspan></tspan></text>
 <text class="TextShape"><tspan class="TextParagraph" font-family="Liberation Sans, sans-serif" font-size="353px" font-weight="400"><tspan class="TextPosition" x="14347" y="603"><tspan fill="rgb(0,0,0)" stroke="none">Экз. 7</tspan></tspan></tspan></text>
 <text class="TextShape"><tspan class="TextParagraph" font-family="Liberation Sans, sans-serif" font-size="353px" font-weight="400"><tspan class="TextPosition" x="2406" y="1101"><tspan fill="rgb(0,0,0)" stroke="none">Адп. 8</tspan></tspan></tspan></text>
 <text class="TextShape"><tspan class="TextParagraph" font-family="Liberation Sans, sans-serif" font-size="353px" font-weight="400"><tspan class="TextPosition" x="5398" y="1101"><tspan fill="rgb(0,0,0)" stroke="none">Экз. 8</tspan></tspan></tspan></text>
 <text class="TextShape"><tspan class="TextParagraph" font-family="Liberation Sans, sans-serif" font-size="353px" font-weight="400"><tspan class="TextPosition" x="8389" y="1101"><tspan fill="rgb(0,0,0)" stroke="none">Адп. 9</tspan></tspan></tspan></text>
 <text class="TextShape"><tspan class="TextParagraph" font-family="Liberation Sans, sans-serif" font-size="353px" font-weight="400"><tspan class="TextPosition" x="11381" y="1101"><tspan fill="rgb(0,0,0)" stroke="none">Экз. 9</tspan></tspan></tspan></text>
 <text class="TextShape"><tspan class="TextParagraph" font-family="Liberation Sans, sans-serif" font-size="318px" font-weight="400"><tspan class="TextPosition" x="7531" y="8410"><tspan fill="rgb(0,0,0)" stroke="none">Период, мес.</tspan></tspan></tspan></text>
 <text class="TextShape" transform="rotate(-90 837 5815)"><tspan class="TextParagraph" font-family="Liberation Sans, sans-serif" font-size="318px" font-weight="400"><tspan class="TextPosition" x="837" y="5815"><tspan fill="rgb(0,0,0)" stroke="none">Давление, МПа</tspan></tspan></tspan></text>
</svg>